<svg width="48" height="48" viewBox="0 0 48 48" fill="none" xmlns="http://www.w3.org/2000/svg">
<path fill-rule="evenodd" clip-rule="evenodd" d="M10 29C10 27.3431 11.3431 26 13 26H35C36.6569 26 38 27.3431 38 29V41C38 42.6569 36.6569 44 35 44H13C11.3431 44 10 42.6569 10 41V29ZM18.75 31C19.4404 31 20 31.5596 20 32.25C20 32.6201 19.8404 32.9516 19.5831 33.1819C19.5736 33.1904 19.5643 33.1991 19.5551 33.2079L14.3051 38.2809C14.012 38.5641 13.9201 38.9969 14.0729 39.3747C14.2256 39.7526 14.5924 40 15 40H21C21.5523 40 22 39.5523 22 39C22 38.4477 21.5523 38 21 38H17.474L20.9324 34.6583C21.5867 34.065 22 33.2051 22 32.25C22 30.4551 20.5449 29 18.75 29H17.25C15.8334 29 14.6309 29.9058 14.1852 31.1668C14.0011 31.6875 14.2741 32.2588 14.7948 32.4428C15.3155 32.6269 15.8868 32.354 16.0709 31.8332C16.2429 31.3464 16.7073 31 17.25 31H18.75ZM32.7526 31.7739C33.1208 31.3623 33.0856 30.7301 32.6739 30.3619C31.9417 29.7069 31.0458 29.2586 30.0786 29.0662C29.011 28.8539 27.9045 28.9629 26.8988 29.3794C25.8932 29.7959 25.0337 30.5013 24.429 31.4064C23.8242 32.3114 23.5014 33.3755 23.5014 34.464C23.5014 35.5524 23.8242 36.6165 24.429 37.5215C25.0337 38.4266 25.8932 39.132 26.8988 39.5485C27.9045 39.9651 29.011 40.0741 30.0786 39.8617C31.0458 39.6693 31.9417 39.221 32.6739 38.566C32.886 38.3763 33.0073 38.1052 33.0073 37.8207V34.464C33.0073 33.9117 32.5595 33.464 32.0073 33.464H29.0049C28.4526 33.464 28.0049 33.9117 28.0049 34.464C28.0049 35.0162 28.4526 35.464 29.0049 35.464H31.0073V37.3389C30.6128 37.6136 30.1642 37.8055 29.6884 37.9001C29.0088 38.0353 28.3044 37.9659 27.6642 37.7008C27.024 37.4356 26.4769 36.9865 26.0919 36.4104C25.7069 35.8342 25.5014 35.1569 25.5014 34.464C25.5014 33.771 25.7069 33.0937 26.0919 32.5175C26.4769 31.9414 27.024 31.4923 27.6642 31.2272C28.3044 30.962 29.0088 30.8926 29.6884 31.0278C30.3041 31.1503 30.8744 31.4357 31.3406 31.8526C31.7522 32.2208 32.3844 32.1856 32.7526 31.7739Z" fill="#333333"/>
<path d="M33.1924 4.80762C34.3995 6.01478 35.3571 7.44789 36.0104 9.02512C36.6637 10.6024 37 12.2928 37 14C37 15.7072 36.6637 17.3977 36.0104 18.9749C35.3571 20.5521 34.3995 21.9852 33.1924 23.1924" stroke="#333333" stroke-width="2"/>
<path d="M28.9497 9.05029C29.5997 9.7003 30.1153 10.472 30.4671 11.3213C30.8189 12.1705 31 13.0808 31 14C31 14.9193 30.8189 15.8295 30.4671 16.6788C30.1153 17.5281 29.5997 18.2998 28.9497 18.9498" stroke="#333333" stroke-width="2"/>
<path d="M19.0503 18.9498C18.4002 18.2998 17.8846 17.5281 17.5328 16.6788C17.1811 15.8295 17 14.9193 17 14C17 13.0808 17.1811 12.1705 17.5328 11.3213C17.8846 10.472 18.4002 9.7003 19.0503 9.05029" stroke="#333333" stroke-width="2"/>
<path d="M14.8076 23.1924C13.6004 21.9852 12.6429 20.5521 11.9896 18.9749C11.3363 17.3977 11 15.7072 11 14C11 12.2928 11.3363 10.6024 11.9896 9.02512C12.6429 7.44789 13.6005 6.01478 14.8076 4.80762" stroke="#333333" stroke-width="2"/>
<circle cx="24" cy="14" r="2" fill="#333333"/>
</svg>
