<svg width="48" height="48" viewBox="0 0 48 48" fill="none" xmlns="http://www.w3.org/2000/svg">
<path d="M21.8838 16.7361C21.6589 16.5289 21.4785 16.279 21.3534 16.0013C21.2282 15.7236 21.161 15.4239 21.1555 15.12C21.1501 14.816 21.2067 14.5141 21.3218 14.2323C21.4369 13.9504 21.6083 13.6944 21.8257 13.4794C22.0431 13.2645 22.302 13.095 22.5871 12.9812C22.8721 12.8673 23.1774 12.8114 23.4848 12.8168C23.7922 12.8221 24.0953 12.8886 24.3761 13.0124C24.6569 13.1361 24.9097 13.3145 25.1193 13.5369C25.5236 13.966 25.7438 14.5335 25.7333 15.12C25.7228 15.7064 25.4826 16.2659 25.0632 16.6807C24.6437 17.0954 24.0779 17.333 23.4848 17.3433C22.8917 17.3536 22.3178 17.136 21.8838 16.7361ZM13.2473 5L15.4068 7.13535C13.2605 9.25787 12.0547 12.1365 12.0547 15.138C12.0547 18.1395 13.2605 21.0181 15.4068 23.1407L13.2473 25.276C11.9007 23.9447 10.8326 22.3642 10.1038 20.6247C9.37508 18.8852 9 17.0208 9 15.138C9 13.2552 9.37508 11.3908 10.1038 9.65127C10.8326 7.91178 11.9007 6.33127 13.2473 5ZM33.7527 5C35.0993 6.33127 36.1674 7.91178 36.8962 9.65127C37.6249 11.3908 38 13.2552 38 15.138C38 17.0208 37.6249 18.8852 36.8962 20.6247C36.1674 22.3642 35.0993 23.9447 33.7527 25.276L31.5932 23.1407C33.7395 21.0181 34.9453 18.1395 34.9453 15.138C34.9453 12.1365 33.7395 9.25787 31.5932 7.13535L33.7527 5ZM17.5648 9.26768L19.7228 11.4015C19.2267 11.892 18.8332 12.4743 18.5647 13.1151C18.2962 13.756 18.1581 14.4428 18.1581 15.1365C18.1581 15.8302 18.2962 16.517 18.5647 17.1579C18.8332 17.7987 19.2267 18.381 19.7228 18.8715L17.5648 21.0053C15.9907 19.4488 15.1064 17.3377 15.1064 15.1365C15.1064 12.9353 15.9907 10.8242 17.5648 9.26768ZM29.4352 9.26768C31.0093 10.8242 31.8936 12.9353 31.8936 15.1365C31.8936 17.3377 31.0093 19.4488 29.4352 21.0053L27.2772 18.8715C27.7733 18.381 28.1668 17.7987 28.4353 17.1579C28.7038 16.517 28.8419 15.8302 28.8419 15.1365C28.8419 14.4428 28.7038 13.756 28.4353 13.1151C28.1668 12.4743 27.7733 11.892 27.2772 11.4015L29.4352 9.26768Z" fill="#333333"/>
<path fill-rule="evenodd" clip-rule="evenodd" d="M12 27C10.3431 27 9 28.3431 9 30V40C9 41.6569 10.3431 43 12 43H36C37.6569 43 39 41.6569 39 40V30C39 28.3431 37.6569 27 36 27H12ZM16.1982 40.0898H23.0205V38.4971H18.7412L21.0039 36.1113C21.6237 35.4323 22.0612 34.8376 22.3164 34.3271C22.5716 33.8167 22.6992 33.3154 22.6992 32.8232C22.6992 31.9255 22.4144 31.2305 21.8447 30.7383C21.2796 30.2461 20.4844 30 19.459 30C18.7891 30 18.1898 30.1436 17.6611 30.4307C17.1325 30.7132 16.7223 31.1051 16.4307 31.6064C16.1436 32.1077 16 32.6615 16 33.2676H17.9824C17.9824 32.7663 18.11 32.363 18.3652 32.0576C18.625 31.7477 18.9782 31.5928 19.4248 31.5928C19.8395 31.5928 20.1585 31.7204 20.3818 31.9756C20.6051 32.2262 20.7168 32.5726 20.7168 33.0146C20.7168 33.3382 20.6097 33.68 20.3955 34.04C20.1859 34.4001 19.86 34.8216 19.418 35.3047L16.1982 38.7363V40.0898ZM30.7588 39.8643C31.4333 39.6182 31.9551 39.2741 32.3242 38.832V34.8604H28.4072V36.3711H30.2734V38.0869C29.9453 38.415 29.3962 38.5791 28.626 38.5791C27.8604 38.5791 27.2793 38.3125 26.8828 37.7793C26.4863 37.2461 26.2881 36.4577 26.2881 35.4141V34.7783C26.2926 33.7438 26.4772 32.9645 26.8418 32.4404C27.2064 31.9163 27.7373 31.6543 28.4346 31.6543C28.9814 31.6543 29.4098 31.7865 29.7197 32.0508C30.0342 32.3151 30.237 32.7321 30.3281 33.3018H32.3242C32.2012 32.2262 31.807 31.4082 31.1416 30.8477C30.4762 30.2826 29.5534 30 28.373 30C27.5254 30 26.7848 30.1937 26.1514 30.5811C25.5225 30.9639 25.0394 31.5199 24.7021 32.249C24.3695 32.9736 24.2031 33.8327 24.2031 34.8262V35.5029C24.2122 36.4691 24.3923 37.3099 24.7432 38.0254C25.0986 38.7409 25.5999 39.2878 26.2471 39.666C26.8988 40.0397 27.6553 40.2266 28.5166 40.2266C29.3369 40.2266 30.0843 40.1058 30.7588 39.8643Z" fill="#333333"/>
</svg>
