<svg width="48" height="48" viewBox="0 0 48 48" fill="none" xmlns="http://www.w3.org/2000/svg">
<path fill-rule="evenodd" clip-rule="evenodd" d="M26.2357 13.2804C28.2841 10.9382 39.2383 8 39.2383 8C39.2383 8 37.3763 19.7165 35.7376 21.5903C34.5785 22.9157 31.013 22.1954 29.0255 21.6604C28.153 23.042 27.4153 24.5718 27.0297 26.1677C26.8968 26.718 26.307 26.9913 25.7125 26.778C25.118 26.5647 24.7438 25.9457 24.8767 25.3955C25.3221 23.5519 26.1624 21.8267 27.1278 20.3065C26.2472 18.6031 24.7076 15.0277 26.2357 13.2804ZM13.8889 28H9V39H13.8889V37.0936C14.6799 37.0664 15.5036 37.0451 15.8541 37.0589C17.5304 37.1252 18.7823 37.5156 20.048 37.9104C21.2288 38.2787 22.4218 38.6508 23.9828 38.7669C24.3751 38.796 24.7568 38.8337 25.1269 38.8702L25.127 38.8702C26.4637 39.002 27.6484 39.1188 28.6277 38.7669C29.8783 38.3174 37.0244 34.9016 37.9177 34.0027C38.8109 33.1038 38.3643 30.6767 35.5952 31.1262C34.2288 31.3479 32.645 31.9856 31.2085 32.5638C29.7338 33.1575 28.4144 33.6886 27.6451 33.6431C26.1266 33.5532 22.1069 32.8341 22.1069 32.8341L26.7222 32.8889C26.7222 32.8889 27.3742 32.9229 28.2704 32.2948C29.1666 31.6667 29.9676 29.8677 28.6277 29.8677C27.2878 29.8677 25.8586 29.4183 25.8586 29.4183L20.1417 28.1598C20.1417 28.1598 18.1765 27.8002 17.3726 28.1598C16.8625 28.3879 15.1054 29.0141 13.8889 29.4414V28ZM12.6904 12.4872C12.6904 12.4872 20.8205 14.6908 22.3407 16.4475C23.3976 17.6688 22.4772 20.0807 21.818 21.4375C22.6113 22.7436 23.3066 24.1683 23.7571 25.6532C23.9181 26.1837 23.6227 26.7462 23.0974 26.9096C22.572 27.073 22.0157 26.7753 21.8547 26.2448C21.4876 25.0348 20.9254 23.8494 20.2671 22.7333C18.7914 23.1345 16.1483 23.6733 15.2886 22.6799C14.0724 21.2746 12.6904 12.4872 12.6904 12.4872ZM28.5434 19.9729C28.0902 19.6572 27.9787 19.034 28.2944 18.5808C30.0887 16.0046 31.5146 14.3364 32.5059 13.3022C33.0017 12.785 33.3891 12.4261 33.6597 12.1915C33.7951 12.0741 33.9013 11.9878 33.9772 11.9283C34.0152 11.8985 34.0457 11.8755 34.0684 11.8586L34.0968 11.8378L34.1066 11.8307L34.1105 11.828L34.1121 11.8269L34.1128 11.8263C34.1132 11.8261 34.1135 11.8258 34.6843 12.6384L34.1135 11.8258C34.5655 11.5084 35.1892 11.6174 35.5066 12.0693C35.823 12.5198 35.7158 13.1408 35.2677 13.4592L35.2608 13.4643C35.252 13.4708 35.2352 13.4835 35.2106 13.5028C35.1613 13.5413 35.0808 13.6065 34.9699 13.7026C34.7481 13.8948 34.4052 14.211 33.9497 14.6862C33.0386 15.6367 31.6777 17.2226 29.9355 19.7239C29.6198 20.177 28.9966 20.2885 28.5434 19.9729ZM20.7147 20.0796C21.0285 20.5348 20.9173 21.1614 20.4662 21.4791C20.0152 21.7967 19.3952 21.6852 19.0814 21.2299C18.1517 19.8811 17.431 19.0339 16.9567 18.5339C16.7197 18.284 16.5444 18.1211 16.4356 18.0258C16.3813 17.9781 16.3435 17.9474 16.323 17.9311C16.3137 17.9238 16.3079 17.9194 16.3057 17.9177C15.863 17.5971 15.7582 16.9749 16.0726 16.5232C16.3889 16.0688 17.0095 15.959 17.4588 16.2779L16.8886 17.097C17.4588 16.2779 17.4591 16.2781 17.4595 16.2784L17.4602 16.2789L17.4617 16.28L17.465 16.2823L17.4727 16.2879L17.4928 16.3028C17.5083 16.3144 17.5278 16.3294 17.5514 16.3481C17.5985 16.3853 17.6617 16.4373 17.7403 16.5062C17.8977 16.6441 18.1171 16.8498 18.3941 17.1419C18.948 17.7258 19.7332 18.6556 20.7147 20.0796Z" fill="#333333"/>
</svg>
