<svg width="48" height="48" viewBox="0 0 48 48" fill="none" xmlns="http://www.w3.org/2000/svg">
<path fill-rule="evenodd" clip-rule="evenodd" d="M44 24C44 35.0457 35.0457 44 24 44C12.9543 44 4 35.0457 4 24C4 12.9543 12.9543 4 24 4C35.0457 4 44 12.9543 44 24ZM21 12C21 10.3431 22.3431 9 24 9C25.6569 9 27 10.3431 27 12V28C27 29.6569 25.6569 31 24 31C22.3431 31 21 29.6569 21 28V12ZM24 33C22.3431 33 21 34.3431 21 36C21 37.6569 22.3431 39 24 39C25.6569 39 27 37.6569 27 36C27 34.3431 25.6569 33 24 33Z" fill="#333333"/>
</svg>
