<svg width="48" height="48" viewBox="0 0 48 48" fill="none" xmlns="http://www.w3.org/2000/svg">
<path fill-rule="evenodd" clip-rule="evenodd" d="M23.0886 4.55328C23.457 3.81558 24.5096 3.81557 24.878 4.55327L43.86 42.5692C44.192 43.234 43.7084 44.0159 42.9653 44.0159H5.00129C4.25814 44.0159 3.77464 43.234 4.10662 42.5692L23.0886 4.55328ZM21 18C21 16.3431 22.3431 15 24 15C25.6569 15 27 16.3431 27 18V29C27 30.6569 25.6569 32 24 32C22.3431 32 21 30.6569 21 29V18ZM23.9663 34C22.3281 34 21 35.3281 21 36.9663C21 38.6045 22.3281 39.9326 23.9663 39.9326H24.0337C25.6719 39.9326 27 38.6045 27 36.9663C27 35.3281 25.6719 34 24.0337 34H23.9663Z" fill="#333333"/>
</svg>
