<svg width="48" height="48" viewBox="0 0 48 48" fill="none" xmlns="http://www.w3.org/2000/svg">
<path fill-rule="evenodd" clip-rule="evenodd" d="M31 25.7311V9C31 7.89543 30.1046 7 29 7C27.8954 7 27 7.89543 27 9V23H25V6C25 4.89543 24.1046 4 23 4C21.8954 4 21 4.89543 21 6V23H19V9C19 7.89543 18.1046 7 17 7C15.8954 7 15 7.89543 15 9V25.1111H13V15C13 13.8954 12.1046 13 11 13C9.89543 13 9 13.8954 9 15V32C9 38.6274 14.3726 44 21 44H22.4221C26.8271 44 30.8779 41.5866 32.975 37.7128L39.9127 24.8973C40.5317 23.7539 40.1921 22.3278 39.1241 21.5862C37.9556 20.7747 36.3491 21.0754 35.5532 22.2546L32.8288 26.2906C32.277 27.1082 31 26.7176 31 25.7311ZM18.0229 29.9835C18.5752 29.9831 19.0225 29.535 19.0221 28.9827C19.0216 28.4304 18.5735 27.9831 18.0212 27.9835C17.469 27.984 17.0216 28.4321 17.0221 28.9844C17.0225 29.5366 17.4706 29.984 18.0229 29.9835ZM23.0237 30.9794C23.576 30.979 24.0233 30.5309 24.0229 29.9786C24.0224 29.4263 23.5743 28.979 23.0221 28.9794C22.4698 28.9799 22.0224 29.428 22.0229 29.9803C22.0233 30.5325 22.4714 30.9799 23.0237 30.9794ZM21.0262 33.9811C21.0266 34.5334 20.5793 34.9814 20.027 34.9819C19.4747 34.9824 19.0266 34.535 19.0262 33.9827C19.0257 33.4304 19.473 32.9824 20.0253 32.9819C20.5776 32.9814 21.0257 33.4288 21.0262 33.9811ZM25.0262 33.9778C25.5784 33.9774 26.0258 33.5293 26.0253 32.977C26.0249 32.4247 25.5768 31.9774 25.0245 31.9778C24.4722 31.9783 24.0249 32.4263 24.0253 32.9786C24.0258 33.5309 24.4739 33.9783 25.0262 33.9778ZM28.0286 36.9753C28.0291 37.5276 27.5817 37.9757 27.0294 37.9762C26.4771 37.9766 26.0291 37.5293 26.0286 36.977C26.0282 36.4247 26.4755 35.9766 27.0278 35.9762C27.5801 35.9757 28.0282 36.4231 28.0286 36.9753ZM29.0253 32.9745C29.5776 32.9741 30.025 32.526 30.0245 31.9737C30.0241 31.4214 29.576 30.9741 29.0237 30.9745C28.4714 30.975 28.0241 31.4231 28.0245 31.9753C28.025 32.5276 28.473 32.975 29.0253 32.9745ZM23.0294 37.9794C23.0299 38.5317 22.5825 38.9798 22.0302 38.9803C21.478 38.9807 21.0299 38.5334 21.0294 37.9811C21.029 37.4288 21.4763 36.9807 22.0286 36.9803C22.5809 36.9798 23.029 37.4272 23.0294 37.9794ZM17.0294 37.9844C17.5817 37.9839 18.0291 37.5358 18.0286 36.9835C18.0282 36.4313 17.5801 35.9839 17.0278 35.9844C16.4755 35.9848 16.0282 36.4329 16.0286 36.9852C16.0291 37.5375 16.4771 37.9848 17.0294 37.9844ZM16.0253 32.9852C16.0258 33.5375 15.5784 33.9855 15.0262 33.986C14.4739 33.9864 14.0258 33.5391 14.0253 32.9868C14.0249 32.4345 14.4722 31.9864 15.0245 31.986C15.5768 31.9855 16.0249 32.4329 16.0253 32.9852Z" fill="#333333"/>
</svg>
