<svg width="48" height="48" viewBox="0 0 48 48" fill="none" xmlns="http://www.w3.org/2000/svg">
<path d="M31 14L32 12H30L31 14Z" fill="#333333"/>
<path fill-rule="evenodd" clip-rule="evenodd" d="M9 14C7.34315 14 6 15.3431 6 17V35H10.126C10.5701 36.7252 12.1362 38 14 38C15.8638 38 17.4299 36.7252 17.874 35H29.126C29.5701 36.7252 31.1362 38 33 38C34.8638 38 36.4299 36.7252 36.874 35H42V26.8757C42 26.0384 41.6501 25.2392 41.0348 24.6713L35.7529 19.7956C35.1987 19.2841 34.4722 19 33.718 19H33V18H32V17C32 16.4477 31.5523 16 31 16C30.4477 16 30 16.4477 30 17V18H29V19H28V17C28 15.3431 26.6569 14 25 14H9ZM33 30C31.1362 30 29.5701 31.2748 29.126 33H28V28L40 28V33H36.874C36.4299 31.2748 34.8638 30 33 30ZM39.5257 26L28 26V21H33.718C33.9694 21 34.2116 21.0947 34.3963 21.2652L39.5257 26ZM16 34C16 35.1046 15.1046 36 14 36C12.8954 36 12 35.1046 12 34C12 32.8954 12.8954 32 14 32C15.1046 32 16 32.8954 16 34ZM33 36C34.1046 36 35 35.1046 35 34C35 32.8954 34.1046 32 33 32C31.8954 32 31 32.8954 31 34C31 35.1046 31.8954 36 33 36ZM17 18C17.5523 18 18 18.4477 18 19V22H21C21.5523 22 22 22.4477 22 23C22 23.5523 21.5523 24 21 24H18V27C18 27.5523 17.5523 28 17 28C16.4477 28 16 27.5523 16 27V24H13C12.4477 24 12 23.5523 12 23C12 22.4477 12.4477 22 13 22H16V19C16 18.4477 16.4477 18 17 18Z" fill="#333333"/>
<path d="M33.7071 14.1213L35.8284 13.4142L34.4142 12L33.7071 14.1213Z" fill="#333333"/>
<path d="M34 17L36 18V16L34 17Z" fill="#333333"/>
</svg>
