<svg width="48" height="48" viewBox="0 0 48 48" fill="none" xmlns="http://www.w3.org/2000/svg">
<path d="M31.4999 28.7429C31.4999 34.7075 27.7278 38 23.9999 38C20.2719 38 16.4999 34.7075 16.4999 28.7429C16.4999 22.7782 20.2719 15.6286 23.9999 15.6286C27.7278 15.6286 31.4999 22.7782 31.4999 28.7429Z" fill="#333333"/>
<path d="M26.2499 16.4C26.2499 14.6958 25.2425 13.3142 23.9999 13.3142C22.7572 13.3142 21.7499 14.6958 21.7499 16.4C21.7499 18.1042 22.7572 19.4857 23.9999 19.4857C25.2425 19.4857 26.2499 18.1042 26.2499 16.4Z" fill="#333333"/>
<path fill-rule="evenodd" clip-rule="evenodd" d="M27.4278 10.283C27.8238 9.89802 28.4569 9.90694 28.8419 10.3029L31.8419 13.3886C32.189 13.7457 32.2205 14.3037 31.9159 14.6975C31.1717 15.6597 30.4529 16.372 29.5419 16.8728C28.6386 17.3693 27.6277 17.6126 26.3807 17.7771C25.8331 17.8494 25.3307 17.4641 25.2585 16.9165C25.1862 16.369 25.5715 15.8665 26.1191 15.7943C27.2674 15.6428 27.9934 15.4417 28.5785 15.1201C28.9847 14.8968 29.363 14.5933 29.7803 14.1373L27.4079 11.6971C27.0229 11.3011 27.0318 10.668 27.4278 10.283Z" fill="#333333"/>
<path fill-rule="evenodd" clip-rule="evenodd" d="M34.1443 14.7097C34.6518 14.9275 34.8866 15.5155 34.6688 16.023L33.3188 19.1681C33.2119 19.417 33.0086 19.612 32.7554 19.7083L28.8554 21.1918C28.3392 21.3882 27.7616 21.1289 27.5652 20.6127C27.3688 20.0965 27.6281 19.5188 28.1443 19.3225L31.6481 17.9897L32.8309 15.2341C33.0488 14.7266 33.6368 14.4918 34.1443 14.7097Z" fill="#333333"/>
<path fill-rule="evenodd" clip-rule="evenodd" d="M36.5552 18.654C37.0145 18.9607 37.1382 19.5817 36.8315 20.041L34.7315 23.186C34.6161 23.3589 34.4497 23.4915 34.2554 23.5654L30.3554 25.0489C29.8392 25.2453 29.2616 24.986 29.0652 24.4698C28.8688 23.9536 29.1281 23.3759 29.6443 23.1796L33.2457 21.8097L35.1682 18.9304C35.4749 18.4711 36.0959 18.3473 36.5552 18.654Z" fill="#333333"/>
<path fill-rule="evenodd" clip-rule="evenodd" d="M29.8121 26.0813C30.0039 25.5634 30.5792 25.299 31.0971 25.4908L30.7499 26.4285C31.0971 25.4908 31.0971 25.4908 31.0971 25.4908L31.0995 25.4917L31.1033 25.4931L31.1149 25.4975L31.1538 25.5124C31.1864 25.525 31.2321 25.5431 31.2892 25.5664C31.4031 25.6129 31.5628 25.6807 31.7533 25.7682C32.1316 25.942 32.6436 26.1995 33.1625 26.5304C33.675 26.8572 34.2341 27.2806 34.6748 27.7974C35.114 28.3124 35.4999 28.9977 35.4999 29.8228C35.4999 31.0275 35.0617 32.3529 34.6767 33.3033C34.4778 33.7942 34.2795 34.2175 34.1307 34.5185C34.0561 34.6694 33.9935 34.7905 33.9488 34.8752C33.9264 34.9176 33.9085 34.9509 33.8958 34.9743L33.8808 35.002L33.8763 35.01L33.8749 35.0126L33.8744 35.0135C33.8744 35.0135 33.874 35.0142 32.9999 34.5285L33.8744 35.0135C33.6062 35.4963 32.997 35.6709 32.5142 35.4027C32.0316 35.1346 31.8576 34.5261 32.1254 34.0434L32.1276 34.0395L32.1376 34.0211C32.1469 34.004 32.1612 33.9774 32.1799 33.942C32.2172 33.8712 32.2718 33.7658 32.3378 33.6322C32.4702 33.3643 32.6469 32.9871 32.823 32.5524C33.188 31.6513 33.4999 30.6239 33.4999 29.8228C33.4999 29.6451 33.417 29.4047 33.153 29.0952C32.8907 28.7875 32.5122 28.4878 32.0872 28.2167C31.6686 27.9497 31.2431 27.7348 30.9183 27.5855C30.7572 27.5115 30.624 27.4551 30.5328 27.4179C30.4873 27.3993 30.4525 27.3855 30.4302 27.3769L30.4063 27.3677L30.4026 27.3663C29.885 27.1744 29.6204 26.5991 29.8121 26.0813Z" fill="#333333"/>
<path fill-rule="evenodd" clip-rule="evenodd" d="M20.5719 10.283C20.176 9.89802 19.5429 9.90694 19.1579 10.3029L16.1579 13.3886C15.8108 13.7457 15.7792 14.3037 16.0839 14.6975C16.8281 15.6597 17.5468 16.372 18.4578 16.8728C19.3611 17.3693 20.3721 17.6126 21.6191 17.7771C22.1666 17.8494 22.669 17.4641 22.7413 16.9165C22.8135 16.369 22.4282 15.8665 21.8807 15.7943C20.7323 15.6428 20.0063 15.4417 19.4212 15.1201C19.015 14.8968 18.6367 14.5933 18.2194 14.1373L20.5919 11.6971C20.9768 11.3011 20.9679 10.668 20.5719 10.283Z" fill="#333333"/>
<path fill-rule="evenodd" clip-rule="evenodd" d="M13.8554 14.7097C13.3479 14.9275 13.1131 15.5155 13.3309 16.023L14.6809 19.1681C14.7878 19.417 14.9911 19.612 15.2443 19.7083L19.1443 21.1918C19.6605 21.3882 20.2382 21.1289 20.4345 20.6127C20.6309 20.0965 20.3716 19.5188 19.8554 19.3225L16.3516 17.9897L15.1688 15.2341C14.9509 14.7266 14.3629 14.4918 13.8554 14.7097Z" fill="#333333"/>
<path fill-rule="evenodd" clip-rule="evenodd" d="M11.4446 18.654C10.9853 18.9607 10.8615 19.5817 11.1682 20.041L13.2682 23.186C13.3836 23.3589 13.5501 23.4915 13.7443 23.5654L17.6443 25.0489C18.1605 25.2453 18.7382 24.986 18.9345 24.4698C19.1309 23.9536 18.8716 23.3759 18.3554 23.1796L14.7541 21.8097L12.8315 18.9304C12.5248 18.4711 11.9039 18.3473 11.4446 18.654Z" fill="#333333"/>
<path fill-rule="evenodd" clip-rule="evenodd" d="M18.1876 26.0813C17.9959 25.5634 17.4205 25.299 16.9026 25.4908L17.2499 26.4285C16.9026 25.4908 16.9026 25.4908 16.9026 25.4908L16.9002 25.4917L16.8964 25.4931L16.8848 25.4975L16.8459 25.5124C16.8133 25.525 16.7676 25.5431 16.7106 25.5664C16.5967 25.6129 16.4369 25.6807 16.2464 25.7682C15.8681 25.942 15.3561 26.1995 14.8372 26.5304C14.3247 26.8572 13.7657 27.2806 13.3249 27.7974C12.8857 28.3124 12.4999 28.9977 12.4999 29.8228C12.4999 31.0275 12.938 32.3529 13.323 33.3033C13.5219 33.7942 13.7202 34.2175 13.869 34.5185C13.9436 34.6694 14.0063 34.7905 14.0509 34.8752C14.0733 34.9176 14.0912 34.9509 14.1039 34.9743L14.119 35.002L14.1234 35.01L14.1248 35.0126L14.1253 35.0135C14.1253 35.0135 14.1257 35.0142 14.9999 34.5285L14.1253 35.0135C14.3935 35.4963 15.0027 35.6709 15.4855 35.4027C15.9681 35.1346 16.1421 34.5261 15.8743 34.0434L15.8722 34.0395L15.8621 34.0211C15.8529 34.004 15.8385 33.9774 15.8199 33.942C15.7825 33.8712 15.728 33.7658 15.6619 33.6322C15.5295 33.3643 15.3528 32.9871 15.1767 32.5524C14.8117 31.6513 14.4999 30.6239 14.4999 29.8228C14.4999 29.6451 14.5827 29.4047 14.8467 29.0952C15.1091 28.7875 15.4875 28.4878 15.9125 28.2167C16.3311 27.9497 16.7566 27.7348 17.0814 27.5855C17.2425 27.5115 17.3757 27.4551 17.4669 27.4179C17.5124 27.3993 17.5472 27.3855 17.5696 27.3769L17.5934 27.3677L17.5971 27.3663C18.1148 27.1744 18.3794 26.5991 18.1876 26.0813Z" fill="#333333"/>
</svg>
