<svg width="48" height="48" viewBox="0 0 48 48" fill="none" xmlns="http://www.w3.org/2000/svg">
<path fill-rule="evenodd" clip-rule="evenodd" d="M33 32C35.5661 32 37 30.3309 37 29C37 27.6691 35.5661 26 33 26C30.434 26 29 27.6691 29 29C29 30.3309 30.434 32 33 32ZM33 34C36.3137 34 39 31.7614 39 29C39 26.2386 36.3137 24 33 24C29.6863 24 27 26.2386 27 29C27 31.7614 29.6863 34 33 34Z" fill="#333333"/>
<path d="M15.7274 13.1262C16.3972 12.9551 17.0719 12.6836 17.5565 12.3267C18.8261 11.3917 19.564 9.51331 17.9386 9.71926C17.4662 9.77913 17.1245 9.79097 16.8464 9.80061C16.1676 9.82413 15.8669 9.83455 14.9664 10.4978C14.5994 10.768 14.2777 11.0577 14.0147 11.3452C12.6165 10.3041 10.7541 9.83879 7.50017 10C7.22403 10 7 10.2239 7 10.5C7 10.7761 7.22386 11 7.5 11H9.23722C9.5226 11.184 9.76775 11.3559 9.98391 11.5202L6.40002 16H6.18808C4.84835 16 3.88746 17.2915 4.27243 18.5747L4.57243 19.5747C4.82622 20.4207 5.60486 21 6.48808 21H9.84965C10.2723 21 10.6842 21.1339 11.026 21.3826L13.2161 22.9753C13.2824 23.0235 13.3501 23.067 13.419 23.1058C14.9863 27.1444 16.6384 30.2908 18.4895 31.8736L18.8345 36.0137C18.361 36.0925 18 36.5041 18 37C18 37.5523 18.4477 38 19 38H22V29H31.8108C33.2902 30.4412 34.9494 31.5713 37.5 32L37.8345 36.0137C37.361 36.0925 37 36.5041 37 37C37 37.5523 37.4477 38 38 38H41V23.014L41 23V20C41 18.5792 40.5245 17.2738 39.7297 16.246C40.3549 16.4138 40.7917 16.6591 41.1002 16.9555C41.6574 17.4909 42 18.3922 42 20L42.3871 25.4195C42.1516 25.7854 42 26.3573 42 27C42 28.1046 42.4477 29 43 29C43.5523 29 44 28.1046 44 27C44 26.3573 43.8484 25.7854 43.6129 25.4195L44 20C44 18.1657 43.6172 16.6004 42.4859 15.5133C41.3691 14.4404 39.73 14.0358 37.7133 14.0018C37.6373 14.0005 35.5563 14 35.5 14V14.0068C35.408 14.0023 35.3154 14 35.2222 14L20.5 14C18.5657 14 17.105 13.7124 15.8792 13.3319C15.8287 13.2623 15.7781 13.1937 15.7274 13.1262Z" fill="#333333"/>
<path d="M28.0739 29.7685L26.3264 30.4834L27.0837 32.3345L28.8312 31.6196L28.0739 29.7685Z" fill="#333333"/>
<path d="M28.8763 33.8583L29.9349 31.8887L31.6966 32.8355L30.638 34.8051L28.8763 33.8583Z" fill="#333333"/>
<path d="M33.0093 32.9183L33.4339 35.1137L35.3975 34.7338L34.9729 32.5385L33.0093 32.9183Z" fill="#333333"/>
</svg>
