<svg width="48" height="48" viewBox="0 0 48 48" fill="none" xmlns="http://www.w3.org/2000/svg">
<path fill-rule="evenodd" clip-rule="evenodd" d="M19 42H28.5V44H19V42Z" fill="#333333"/>
<path fill-rule="evenodd" clip-rule="evenodd" d="M25 38C25.5522 38 26 38.4477 26 39V43C26 43.5522 25.5522 44 25 44C24.4477 44 24 43.5522 24 43V39C24 38.4477 24.4477 38 25 38Z" fill="#333333"/>
<path fill-rule="evenodd" clip-rule="evenodd" d="M24.2008 40C28.2557 40 31.9507 38.4757 34.7326 35.9748C33.1167 36.6352 31.3406 37 29.4781 37C22.0715 37 15.9999 31.2161 15.9999 24C15.9999 23.4477 16.4477 23 16.9999 23C17.5522 23 17.9999 23.4477 17.9999 24C17.9999 30.0386 23.1017 35 29.4781 35C33.0029 35 36.1477 33.479 38.2498 31.0947C38.3154 31.0203 38.3896 30.958 38.4695 30.9079C38.9704 29.8179 39.3474 28.6604 39.5828 27.453C39.9516 25.5613 40.4969 23.6687 41.6612 22.1328C42.1436 21.4964 41.6012 20.5973 40.8133 20.7272L27.6985 22.8899C25.6033 23.2354 23.5184 22.2198 22.4989 20.357L17.9343 12.0169C17.2536 10.7733 15.9488 9.99995 14.5312 9.99995C11.994 9.99995 10.1397 12.3953 10.7755 14.8516L11.1233 16.1953C11.4804 17.5749 11.4744 19.0234 11.1057 20.4L10.3447 23.2421C9.46287 26.5353 9.21035 30.1543 11.0952 32.9951C13.8945 37.214 18.7189 40 24.2008 40ZM14 14C14.5523 14 15 13.5522 15 13C15 12.4477 14.5523 12 14 12C13.4477 12 13 12.4477 13 13C13 13.5522 13.4477 14 14 14Z" fill="#333333"/>
<path fill-rule="evenodd" clip-rule="evenodd" d="M15.0857 5.99995C16.3457 4.74002 18.5 5.63235 18.5 7.41417V8.99995H19.8698C21.7088 8.99995 22.573 11.273 21.1985 12.4948L18.6643 14.7474C18.2515 15.1143 17.6195 15.0771 17.2525 14.6643C16.8856 14.2515 16.9228 13.6195 17.3356 13.2525L19.8698 11H18.5C17.3954 11 16.5 10.1045 16.5 8.99995L16.5 7.41417L7.91417 16H11.5C12.0522 16 12.5 16.4477 12.5 17C12.5 17.5522 12.0522 18 11.5 18H7.91417C6.13236 18 5.24002 15.8457 6.49995 14.5857L15.0857 5.99995Z" fill="#333333"/>
</svg>
