<svg width="48" height="48" viewBox="0 0 48 48" fill="none" xmlns="http://www.w3.org/2000/svg">
<path d="M22.0264 22.9659C21.1298 21.3037 20.0458 19.7345 18.7926 18.2844C17.8131 16.8114 16.5555 15.5143 15.0802 14.4552C14.1534 13.9471 13.0581 13.772 12.0016 13.9631C10.5011 14.2632 9.60853 15.9797 8.81948 17.036L6.23242 20.301C6.04723 20.5475 5.96841 20.8495 6.01152 21.1473C6.05463 21.4452 6.21654 21.7171 6.46525 21.9095L11.122 26.4386C11.3354 26.595 12 27.5 12 27.5C12 27.5 8.56191 36.2806 7.86227 38.3907H12.92L13.1011 41.7997C13.1011 42.1181 13.2373 42.4234 13.4799 42.6485C13.7225 42.8736 14.0515 43.0001 14.3946 43.0001C14.7377 43.0001 15.0667 42.8736 15.3093 42.6485C15.5518 42.4234 15.6881 42.1181 15.6881 41.7997L15.8821 38.4627H20.4612C20.4612 38.1626 20.0085 32.2568 20.0473 31.5726C20.0861 30.8883 20.8881 30.4802 21.3408 30.0721C21.867 29.5759 22.3037 29.0044 22.6344 28.3796C22.9043 27.8142 23.0621 27.2083 23.1 26.591C23.0807 25.3175 22.7111 24.0697 22.0264 22.9659ZM10.0911 20.8892L11.8075 18.0083C11.9886 18.8006 12.1956 19.5928 12.3896 20.4091C12.7131 21.5128 12.8826 21.6504 12.8941 22.7941C11 21.5 10.9387 21.4414 10.0911 20.8892Z" fill="#333333"/>
<path d="M20 9C20 11.2091 18.2091 13 16 13C13.7909 13 12 11.2091 12 9C12 6.79086 13.7909 5 16 5C18.2091 5 20 6.79086 20 9Z" fill="#333333"/>
<path d="M29.9375 5.5625C29.9375 5.25184 30.1893 5 30.5 5C30.8107 5 31.0625 5.25184 31.0625 5.5625V8.9375C31.0625 9.24816 30.8107 9.5 30.5 9.5C30.1893 9.5 29.9375 9.24816 29.9375 8.9375V5.5625Z" fill="#333333"/>
<path d="M38.9375 5.5625C38.9375 5.25184 39.1893 5 39.5 5C39.8107 5 40.0625 5.25184 40.0625 5.5625V8.9375C40.0625 9.24816 39.8107 9.5 39.5 9.5C39.1893 9.5 38.9375 9.24816 38.9375 8.9375V5.5625Z" fill="#333333"/>
<path fill-rule="evenodd" clip-rule="evenodd" d="M30.5387 16.25C30.5261 16.2632 30.5132 16.2761 30.5 16.2887C30.4868 16.2761 30.4739 16.2632 30.4613 16.25C30.4739 16.2368 30.4868 16.2239 30.5 16.2113C30.5132 16.2239 30.5261 16.2368 30.5387 16.25ZM29.8125 14.5625C29.2602 14.5625 28.8125 15.0102 28.8125 15.5625V16.9375C28.8125 17.4898 29.2602 17.9375 29.8125 17.9375H31.1875C31.7398 17.9375 32.1875 17.4898 32.1875 16.9375V15.5625C32.1875 15.0102 31.7398 14.5625 31.1875 14.5625H29.8125Z" fill="#333333"/>
<path fill-rule="evenodd" clip-rule="evenodd" d="M35.0387 16.25C35.0261 16.2632 35.0132 16.2761 35 16.2887C34.9868 16.2761 34.9739 16.2632 34.9613 16.25C34.9739 16.2368 34.9868 16.2239 35 16.2113C35.0132 16.2239 35.0261 16.2368 35.0387 16.25ZM34.3125 14.5625C33.7602 14.5625 33.3125 15.0102 33.3125 15.5625V16.9375C33.3125 17.4898 33.7602 17.9375 34.3125 17.9375H35.6875C36.2398 17.9375 36.6875 17.4898 36.6875 16.9375V15.5625C36.6875 15.0102 36.2398 14.5625 35.6875 14.5625H34.3125Z" fill="#333333"/>
<path fill-rule="evenodd" clip-rule="evenodd" d="M39.5387 16.25C39.5261 16.2632 39.5132 16.2761 39.5 16.2887C39.4868 16.2761 39.4739 16.2632 39.4613 16.25C39.4739 16.2368 39.4868 16.2239 39.5 16.2113C39.5132 16.2239 39.5261 16.2368 39.5387 16.25ZM38.8125 14.5625C38.2602 14.5625 37.8125 15.0102 37.8125 15.5625V16.9375C37.8125 17.4898 38.2602 17.9375 38.8125 17.9375H40.1875C40.7398 17.9375 41.1875 17.4898 41.1875 16.9375V15.5625C41.1875 15.0102 40.7398 14.5625 40.1875 14.5625H38.8125Z" fill="#333333"/>
<path fill-rule="evenodd" clip-rule="evenodd" d="M30.5387 20.75C30.5261 20.7632 30.5132 20.7761 30.5 20.7887C30.4868 20.7761 30.4739 20.7632 30.4613 20.75C30.4739 20.7368 30.4868 20.7239 30.5 20.7113C30.5132 20.7239 30.5261 20.7368 30.5387 20.75ZM29.8125 19.0625C29.2602 19.0625 28.8125 19.5102 28.8125 20.0625V21.4375C28.8125 21.9898 29.2602 22.4375 29.8125 22.4375H31.1875C31.7398 22.4375 32.1875 21.9898 32.1875 21.4375V20.0625C32.1875 19.5102 31.7398 19.0625 31.1875 19.0625H29.8125Z" fill="#333333"/>
<path fill-rule="evenodd" clip-rule="evenodd" d="M35.0387 20.75C35.0261 20.7632 35.0132 20.7761 35 20.7887C34.9868 20.7761 34.9739 20.7632 34.9613 20.75C34.9739 20.7368 34.9868 20.7239 35 20.7113C35.0132 20.7239 35.0261 20.7368 35.0387 20.75ZM34.3125 19.0625C33.7602 19.0625 33.3125 19.5102 33.3125 20.0625V21.4375C33.3125 21.9898 33.7602 22.4375 34.3125 22.4375H35.6875C36.2398 22.4375 36.6875 21.9898 36.6875 21.4375V20.0625C36.6875 19.5102 36.2398 19.0625 35.6875 19.0625H34.3125Z" fill="#333333"/>
<path fill-rule="evenodd" clip-rule="evenodd" d="M39.5387 20.75C39.5261 20.7632 39.5132 20.7761 39.5 20.7887C39.4868 20.7761 39.4739 20.7632 39.4613 20.75C39.4739 20.7368 39.4868 20.7239 39.5 20.7113C39.5132 20.7239 39.5261 20.7368 39.5387 20.75ZM38.8125 19.0625C38.2602 19.0625 37.8125 19.5102 37.8125 20.0625V21.4375C37.8125 21.9898 38.2602 22.4375 38.8125 22.4375H40.1875C40.7398 22.4375 41.1875 21.9898 41.1875 21.4375V20.0625C41.1875 19.5102 40.7398 19.0625 40.1875 19.0625H38.8125Z" fill="#333333"/>
<path fill-rule="evenodd" clip-rule="evenodd" d="M42 9.25H28L28 23.25H42V9.25ZM28 7.25C26.8954 7.25 26 8.14543 26 9.25V23.25C26 24.3546 26.8954 25.25 28 25.25H42C43.1046 25.25 44 24.3546 44 23.25V9.25C44 8.14543 43.1046 7.25 42 7.25H28Z" fill="#333333"/>
<path d="M26 9.25C26 8.14543 26.8954 7.25 28 7.25H42C43.1046 7.25 44 8.14543 44 9.25V11.4375C44 12.5421 43.1046 13.4375 42 13.4375H28C26.8954 13.4375 26 12.5421 26 11.4375V9.25Z" fill="#333333"/>
<path fill-rule="evenodd" clip-rule="evenodd" d="M42 9.25H28L28 11.4375H42V9.25ZM28 7.25C26.8954 7.25 26 8.14543 26 9.25V11.4375C26 12.5421 26.8954 13.4375 28 13.4375H42C43.1046 13.4375 44 12.5421 44 11.4375V9.25C44 8.14543 43.1046 7.25 42 7.25H28Z" fill="#333333"/>
<path fill-rule="evenodd" clip-rule="evenodd" d="M43.4375 13.4375H26.5625V11.4375H43.4375V13.4375Z" fill="#333333"/>
</svg>
