<svg width="48" height="48" viewBox="0 0 48 48" fill="none" xmlns="http://www.w3.org/2000/svg">
<path fill-rule="evenodd" clip-rule="evenodd" d="M20.5719 10.283C20.176 9.89802 19.5429 9.90694 19.1579 10.3029L16.1579 13.3886C15.8108 13.7457 15.7792 14.3037 16.0839 14.6975C16.8281 15.6597 17.5468 16.372 18.4578 16.8728C19.074 17.2115 19.7403 17.4324 20.4975 17.5908C20.0929 18.0431 19.7056 18.5602 19.3423 19.1273L16.3516 17.9897L15.1688 15.2341C14.9509 14.7266 14.3629 14.4918 13.8554 14.7097C13.3479 14.9275 13.1131 15.5155 13.3309 16.023L14.6809 19.1681C14.7878 19.417 14.9911 19.612 15.2443 19.7083L18.3638 20.8949C18.0625 21.5251 17.7897 22.1892 17.5516 22.8738L14.7541 21.8097L12.8315 18.9304C12.5248 18.4711 11.9039 18.3473 11.4446 18.654C10.9853 18.9607 10.8615 19.5817 11.1682 20.041L13.2682 23.186C13.3836 23.3589 13.5501 23.4915 13.7443 23.5654L16.9885 24.7994C16.9317 25.0382 16.8793 25.2778 16.8318 25.5179C16.8006 25.5301 16.7598 25.5463 16.7106 25.5664C16.5967 25.6129 16.4369 25.6807 16.2464 25.7682C15.8681 25.942 15.3561 26.1995 14.8372 26.5304C14.3247 26.8572 13.7657 27.2806 13.3249 27.7974C12.8857 28.3124 12.4999 28.9977 12.4999 29.8228C12.4999 31.0275 12.938 32.3529 13.323 33.3033C13.5219 33.7942 13.7202 34.2175 13.869 34.5185C13.9436 34.6694 14.0063 34.7905 14.0509 34.8752C14.0733 34.9176 14.0912 34.9509 14.1039 34.9743L14.119 35.002L14.1234 35.01L14.1253 35.0135C14.3935 35.4963 15.0027 35.6709 15.4855 35.4027C15.9681 35.1346 16.1421 34.5261 15.8743 34.0434L15.8722 34.0395L15.8621 34.0211C15.8529 34.004 15.8385 33.9774 15.8199 33.942C15.7825 33.8712 15.728 33.7658 15.6619 33.6322C15.5295 33.3643 15.3528 32.9871 15.1767 32.5524C14.8117 31.6513 14.4999 30.6239 14.4999 29.8228C14.4999 29.6451 14.5827 29.4047 14.8467 29.0952C15.1091 28.7875 15.4875 28.4878 15.9125 28.2167C16.1199 28.0845 16.3289 27.965 16.5265 27.86C16.5089 28.1565 16.4999 28.4511 16.4999 28.7429C16.4999 34.7075 20.2719 38 23.9999 38C27.7278 38 31.4999 34.7075 31.4999 28.7429C31.4999 28.4511 31.4908 28.1565 31.4732 27.86C31.6709 27.965 31.8799 28.0845 32.0872 28.2167C32.5122 28.4878 32.8907 28.7875 33.153 29.0952C33.417 29.4047 33.4999 29.6451 33.4999 29.8228C33.4999 30.6239 33.188 31.6513 32.823 32.5524C32.6469 32.9871 32.4702 33.3643 32.3378 33.6322C32.2718 33.7658 32.2172 33.8712 32.1799 33.942C32.1775 33.9464 32.1753 33.9507 32.1731 33.9549C32.1577 33.9839 32.1457 34.0062 32.1376 34.0211L32.1276 34.0395L32.1254 34.0434C31.8576 34.5261 32.0316 35.1346 32.5142 35.4027C32.997 35.6709 33.6062 35.4963 33.8744 35.0135L33.8749 35.0126L33.8763 35.01L33.8808 35.002L33.8958 34.9743C33.9085 34.9509 33.9264 34.9176 33.9488 34.8752C33.9935 34.7905 34.0561 34.6694 34.1307 34.5185C34.2795 34.2175 34.4778 33.7942 34.6767 33.3033C35.0617 32.3529 35.4999 31.0275 35.4999 29.8228C35.4999 28.9977 35.114 28.3124 34.6748 27.7974C34.2341 27.2806 33.675 26.8572 33.1625 26.5304C32.6436 26.1995 32.1316 25.942 31.7533 25.7682C31.5628 25.6807 31.4031 25.6129 31.2892 25.5664C31.24 25.5463 31.1992 25.5301 31.168 25.5179C31.1204 25.2778 31.0681 25.0382 31.0112 24.7994L34.2554 23.5654C34.4497 23.4915 34.6161 23.3589 34.7315 23.186L36.8315 20.041C37.1382 19.5817 37.0145 18.9607 36.5552 18.654C36.0959 18.3473 35.4749 18.4711 35.1682 18.9304L33.2457 21.8097L30.4481 22.8738C30.21 22.1892 29.9372 21.5251 29.6359 20.8949L32.7554 19.7083C33.0086 19.612 33.2119 19.417 33.3188 19.1681L34.6688 16.023C34.8866 15.5155 34.6518 14.9275 34.1443 14.7097C33.6368 14.4918 33.0488 14.7266 32.8309 15.2341L31.6481 17.9897L28.6575 19.1273C28.6348 19.0919 28.612 19.0566 28.5891 19.0216C28.2456 18.4958 27.8815 18.0149 27.5022 17.5908C28.2594 17.4324 28.9257 17.2115 29.5419 16.8728C30.4529 16.372 31.1717 15.6597 31.9159 14.6975C32.2205 14.3037 32.189 13.7457 31.8419 13.3886L28.8419 10.3029C28.4569 9.90694 27.8238 9.89802 27.4278 10.283C27.0318 10.668 27.0229 11.3011 27.4079 11.6971L29.7803 14.1373C29.363 14.5933 28.9847 14.8968 28.5785 15.1201C28.0081 15.4337 27.3038 15.6326 26.2048 15.7828C25.9964 14.3743 25.0884 13.3142 23.9999 13.3142C22.9113 13.3142 22.0034 14.3743 21.7949 15.7828C20.6959 15.6326 19.9916 15.4337 19.4212 15.1201C19.015 14.8968 18.6367 14.5933 18.2194 14.1373L20.5919 11.6971C20.9768 11.3011 20.9679 10.668 20.5719 10.283ZM32.9999 34.5285C33.874 35.0142 33.8744 35.0135 33.8744 35.0135L32.9999 34.5285ZM14.9999 34.5285L14.1253 35.0135C14.1253 35.0135 14.1257 35.0142 14.9999 34.5285Z" fill="#333333"/>
</svg>
