<svg width="48" height="49" viewBox="0 0 48 49" fill="none" xmlns="http://www.w3.org/2000/svg">
<path d="M24 17.75C27.0375 17.75 29.5 15.2876 29.5 12.25C29.5 9.21243 27.0375 6.75 24 6.75C20.9624 6.75 18.5 9.21243 18.5 12.25C18.5 15.2876 20.9624 17.75 24 17.75Z" fill="#333333"/>
<path d="M28.9999 23.2857C30.7024 23.0395 32.4955 22.67 34.4802 22.179C35.5525 21.9138 36.2067 20.8295 35.9414 19.7573C35.6762 18.685 34.592 18.0308 33.5197 18.2961C29.7071 19.2392 26.8335 19.6627 24.0074 19.652C21.1755 19.6412 18.2944 19.1942 14.4584 18.2908C13.3833 18.0376 12.3064 18.7039 12.0532 19.7791C11.8 20.8542 12.4663 21.9311 13.5415 22.1843C15.5157 22.6492 17.302 23.0113 18.9999 23.2595V25.75H28.9999V23.2857Z" fill="#333333"/>
<path fill-rule="evenodd" clip-rule="evenodd" d="M26.6793 32.7296C28.4295 31.9502 28.9999 30.3236 28.9999 29.6904V27.75H18.9999V29.6904C18.9999 30.3236 19.5703 31.9502 21.3205 32.7296C21.5208 32.8188 21.7459 32.9306 21.9482 33.031L22.0673 33.0901C22.316 33.213 22.5566 33.3292 22.7999 33.4323C23.3074 33.6473 23.7033 33.75 23.9999 33.75C24.2966 33.75 24.6924 33.6473 25.1999 33.4323C25.4433 33.3292 25.6839 33.213 25.9325 33.0901L26.0516 33.0311M26.6793 32.7296C26.4791 32.8188 26.2539 32.9306 26.0516 33.0311L26.6793 32.7296Z" fill="#333333"/>
<path d="M20.4348 34.6064C19.2526 34.0691 18.4585 33.257 17.9809 32.4495C16.4293 33.8001 15.5748 35.4984 15.5748 37.7395C15.5748 38.6334 15.766 39.9747 16.263 41.0617C16.7719 42.1749 17.4551 42.75 18.3186 42.75C19.2452 42.75 20.0295 42.0409 20.0295 41.1283C20.0295 40.7223 19.8577 40.3384 19.5859 39.7677L19.5679 39.73C19.3216 39.2136 18.9965 38.5319 18.9965 37.7395C18.9965 36.8727 19.4264 35.9527 19.9266 35.2079C20.0873 34.9688 20.2572 34.7742 20.4348 34.6064Z" fill="#333333"/>
<path d="M27.5652 34.6062C28.7473 34.069 29.5414 33.2569 30.0191 32.4494C31.5707 33.7999 32.4253 35.4983 32.4253 37.7395C32.4253 38.6334 32.234 39.9747 31.7371 41.0617C31.2282 42.1749 30.5449 42.75 29.6814 42.75C28.7548 42.75 27.9705 42.0409 27.9705 41.1283C27.9705 40.7223 28.1423 40.3384 28.4142 39.7677L28.4322 39.73C28.6784 39.2136 29.0035 38.5319 29.0035 37.7395C29.0035 36.8727 28.5737 35.9527 28.0734 35.2079C27.9127 34.9687 27.7427 34.7741 27.5652 34.6062Z" fill="#333333"/>
</svg>
