<svg width="48" height="49" viewBox="0 0 48 49" fill="none" xmlns="http://www.w3.org/2000/svg">
<path fill-rule="evenodd" clip-rule="evenodd" d="M17.8 26.8499C19.1255 27.844 19.3941 29.7244 18.4 31.0499L15.4 35.0499C14.8334 35.8053 13.9443 36.2499 13 36.2499H9C7.34315 36.2499 6 34.9068 6 33.2499C6 31.5931 7.34315 30.2499 9 30.2499H11.5L13.6 27.4499C14.5941 26.1244 16.4745 25.8558 17.8 26.8499Z" fill="#333333"/>
<path d="M39.474 30.6434H36.2699L35.7002 30.3813C34.2406 28.7593 31.8761 25.2327 29.895 24.022C29.0572 23.5097 28.1152 23.244 27.1587 23.2501H27.154H21.5L22.0859 36.25H26.8148H26.8159C27.5967 36.2486 28.3694 36.0731 29.0878 35.7336C29.8066 35.3942 30.4566 34.8977 30.999 34.2737L31.5685 33.6186C32.2876 34.4178 32.9516 36.25 34.0189 36.25H39.6078C40.2779 36.25 40.7864 35.9547 41.2603 35.429C41.7339 34.9032 42.0001 34.1901 42.0001 33.4467C42.0001 32.7033 41.7339 31.9902 41.2603 31.4646C40.7864 30.9387 40.144 30.6434 39.474 30.6434Z" fill="#333333"/>
<path d="M40 15.75C40 19.3399 37.0899 22.25 33.5 22.25C29.9101 22.25 27 19.3399 27 15.75C27 12.1601 29.9101 9.25 33.5 9.25C37.0899 9.25 40 12.1601 40 15.75Z" fill="#333333"/>
<path fill-rule="evenodd" clip-rule="evenodd" d="M33.5 20.25C35.9853 20.25 38 18.2353 38 15.75C38 13.2647 35.9853 11.25 33.5 11.25C31.0147 11.25 29 13.2647 29 15.75C29 18.2353 31.0147 20.25 33.5 20.25ZM33.5 22.25C37.0899 22.25 40 19.3399 40 15.75C40 12.1601 37.0899 9.25 33.5 9.25C29.9101 9.25 27 12.1601 27 15.75C27 19.3399 29.9101 22.25 33.5 22.25Z" fill="#333333"/>
</svg>
