<svg width="48" height="48" viewBox="0 0 48 48" fill="none" xmlns="http://www.w3.org/2000/svg">
<path fill-rule="evenodd" clip-rule="evenodd" d="M23.9859 16.46C26.8662 16.46 29.2012 14.1184 29.2012 11.23C29.2012 8.34155 26.8662 6 23.9859 6C21.1055 6 18.7705 8.34155 18.7705 11.23C18.7705 14.1184 21.1055 16.46 23.9859 16.46Z" fill="#333333"/>
<path fill-rule="evenodd" clip-rule="evenodd" d="M12.2154 15.1602L12.2055 15.1388L12.1949 15.1177C12.1157 14.9587 11.9895 14.571 12.0007 14.1385C12.0108 13.747 12.1271 13.38 12.4495 13.0567C12.8642 12.6409 13.1969 12.5487 13.4446 12.5334C13.739 12.5153 14.0975 12.5997 14.5111 12.805C14.5214 12.8116 14.5918 12.8562 14.7313 12.9919C14.8888 13.145 15.0733 13.3529 15.3099 13.6361C15.4052 13.7502 15.509 13.8769 15.6204 14.0128L15.6204 14.0129L15.6205 14.0129C16.0235 14.5048 16.5259 15.1178 17.0849 15.6944C18.5745 17.231 20.7397 18.813 24 18.813C27.2603 18.813 29.4255 17.231 30.9151 15.6944C31.4741 15.1178 31.9765 14.5048 32.3796 14.0129L32.3797 14.0127C32.491 13.8768 32.5948 13.7502 32.6901 13.6361C32.9267 13.3529 33.1112 13.145 33.2687 12.9919C33.4082 12.8562 33.4787 12.8113 33.489 12.8047C33.9026 12.5994 34.261 12.5153 34.5554 12.5334C34.8031 12.5487 35.1358 12.6409 35.5505 13.0567C35.8729 13.38 35.9892 13.747 35.9993 14.1385C36.0105 14.571 35.8843 14.9587 35.8051 15.1177L35.7945 15.1388L35.7846 15.1602C34.219 18.5243 32.3947 20.3718 30.2778 21.2943L29.2295 21.7512V25.4998H18.7705V21.7512L17.7222 21.2943C15.6053 20.3718 13.781 18.5243 12.2154 15.1602ZM18.7705 27.4998V28.7244C18.7705 29.3606 19.3671 30.9949 21.1976 31.7779C21.4071 31.8675 21.6426 31.9799 21.8542 32.0808L21.9787 32.1401C22.2388 32.2636 22.4904 32.3804 22.7449 32.484C23.2757 32.7 23.6897 32.8031 24 32.8031C24.3103 32.8031 24.7243 32.7 25.2551 32.484C25.5096 32.3804 25.7612 32.2636 26.0213 32.1401L26.1458 32.0808C26.3574 31.9799 26.5929 31.8675 26.8024 31.7779C28.6329 30.9949 29.2295 29.3606 29.2295 28.7244V27.4998H18.7705Z" fill="#333333"/>
<path fill-rule="evenodd" clip-rule="evenodd" d="M18.3676 31.3811C18.7753 32.263 19.5416 33.1966 20.7613 33.7869C20.464 34.0355 20.1834 34.3292 19.9265 34.7475C19.4263 35.5624 18.9965 36.569 18.9965 37.5174C18.9965 38.3844 19.3215 39.1303 19.5678 39.6953L19.5858 39.7366C19.8576 40.3609 20.0294 40.781 20.0294 41.2252C20.0294 42.2238 19.2451 42.9996 18.3186 42.9996C17.4551 42.9996 16.7718 42.3704 16.2629 41.1524C15.766 39.963 15.5747 38.4955 15.5747 37.5174C15.5747 34.8686 16.5718 32.9128 18.3676 31.3811Z" fill="#333333"/>
<path fill-rule="evenodd" clip-rule="evenodd" d="M27.2386 33.7869C28.4583 33.1966 29.2246 32.263 29.6324 31.3811C31.4281 32.9128 32.4253 34.8686 32.4253 37.5174C32.4253 38.4955 32.234 39.963 31.7371 41.1524C31.2282 42.3704 30.5449 42.9996 29.6814 42.9996C28.7548 42.9996 27.9705 42.2238 27.9705 41.2252C27.9705 40.781 28.1423 40.3609 28.4142 39.7366L28.4322 39.6953C28.6784 39.1303 29.0035 38.3844 29.0035 37.5174C29.0035 36.569 28.5737 35.5624 28.0734 34.7475C27.8166 34.3292 27.536 34.0355 27.2386 33.7869Z" fill="#333333"/>
</svg>
