<svg width="48" height="48" viewBox="0 0 48 48" fill="none" xmlns="http://www.w3.org/2000/svg">
<path fill-rule="evenodd" clip-rule="evenodd" d="M38.8492 9.15076C35.7251 6.02657 30.6597 6.02657 27.5355 9.15076L9.15076 27.5355C6.02657 30.6597 6.02657 35.7251 9.15076 38.8492C12.275 41.9734 17.3403 41.9734 20.4645 38.8492L38.8492 20.4645C41.9734 17.3403 41.9734 12.275 38.8492 9.15076ZM26.8283 16.9285C26.0473 16.1474 24.7809 16.1474 23.9999 16.9285L16.9288 23.9995C16.1478 24.7806 16.1478 26.0469 16.9288 26.828L21.1715 31.0706C21.9525 31.8517 23.2188 31.8517 23.9999 31.0706L31.071 23.9995C31.852 23.2185 31.852 21.9522 31.071 21.1711L26.8283 16.9285ZM25.4141 18.3427L29.6567 22.5853L22.5857 29.6564L18.343 25.4138L25.4141 18.3427ZM33.1213 16.1211C32.7308 16.5116 32.0976 16.5116 31.7071 16.1211C31.3166 15.7306 31.3166 15.0974 31.7071 14.7069C32.0976 14.3164 32.7308 14.3164 33.1213 14.7069C33.5119 15.0974 33.5119 15.7306 33.1213 16.1211ZM32.7071 12.1211C33.0976 12.5116 33.7308 12.5116 34.1213 12.1211C34.5119 11.7306 34.5119 11.0974 34.1213 10.7069C33.7308 10.3164 33.0976 10.3164 32.7071 10.7069C32.3166 11.0974 32.3166 11.7306 32.7071 12.1211ZM30.1213 13.1211C29.7308 13.5116 29.0976 13.5116 28.7071 13.1211C28.3166 12.7306 28.3166 12.0974 28.7071 11.7069C29.0976 11.3164 29.7308 11.3164 30.1213 11.7069C30.5119 12.0974 30.5119 12.7306 30.1213 13.1211ZM34.7071 19.1211C35.0976 19.5116 35.7308 19.5116 36.1213 19.1211C36.5119 18.7306 36.5119 18.0974 36.1213 17.7069C35.7308 17.3164 35.0976 17.3164 34.7071 17.7069C34.3166 18.0974 34.3166 18.7306 34.7071 19.1211ZM37.1213 15.1211C36.7308 15.5116 36.0976 15.5116 35.7071 15.1211C35.3166 14.7306 35.3166 14.0974 35.7071 13.7069C36.0976 13.3164 36.7308 13.3164 37.1213 13.7069C37.5119 14.0974 37.5119 14.7306 37.1213 15.1211ZM16.1213 31.7071C15.7308 31.3165 15.0976 31.3165 14.7071 31.7071C14.3166 32.0976 14.3166 32.7308 14.7071 33.1213C15.0976 33.5118 15.7308 33.5118 16.1213 33.1213C16.5119 32.7308 16.5119 32.0976 16.1213 31.7071ZM15.1213 35.7071C15.5119 36.0976 15.5119 36.7308 15.1213 37.1213C14.7308 37.5118 14.0976 37.5118 13.7071 37.1213C13.3166 36.7308 13.3166 36.0976 13.7071 35.7071C14.0976 35.3165 14.7308 35.3165 15.1213 35.7071ZM19.1213 34.7071C18.7308 34.3165 18.0976 34.3165 17.7071 34.7071C17.3166 35.0976 17.3166 35.7308 17.7071 36.1213C18.0976 36.5118 18.7308 36.5118 19.1213 36.1213C19.5119 35.7308 19.5119 35.0976 19.1213 34.7071ZM11.7071 28.7071C12.0976 28.3165 12.7308 28.3165 13.1213 28.7071C13.5119 29.0976 13.5119 29.7308 13.1213 30.1213C12.7308 30.5118 12.0976 30.5118 11.7071 30.1213C11.3166 29.7308 11.3166 29.0976 11.7071 28.7071ZM12.1213 32.7071C11.7308 32.3165 11.0976 32.3165 10.7071 32.7071C10.3166 33.0976 10.3166 33.7308 10.7071 34.1213C11.0976 34.5118 11.7308 34.5118 12.1213 34.1213C12.5119 33.7308 12.5119 33.0976 12.1213 32.7071Z" fill="#333333"/>
</svg>
