<svg width="48" height="48" viewBox="0 0 48 48" fill="none" xmlns="http://www.w3.org/2000/svg">
<path fill-rule="evenodd" clip-rule="evenodd" d="M10.4894 29.3487V34.5488C10.4894 35.6534 11.3848 36.5488 12.4894 36.5488H42.4894C43.5939 36.5488 44.4894 35.6534 44.4894 34.5488V18.5488C44.4894 17.4443 43.5939 16.5488 42.4894 16.5488H35.6339V18.5488H39.4905C39.491 18.9415 39.5686 19.3302 39.7188 19.693C39.8696 20.0569 40.0906 20.3877 40.3692 20.6662C40.6477 20.9448 40.9785 21.1658 41.3424 21.3166C41.7061 21.4672 42.0958 21.5448 42.4894 21.5449V31.5489C42.1014 31.5511 41.7174 31.6287 41.3588 31.7772C40.9948 31.928 40.6641 32.1489 40.3855 32.4275C40.1069 32.7061 39.886 33.0368 39.7352 33.4008C39.5844 33.7648 39.5068 34.1549 39.5068 34.5488H15.4852C15.4804 34.1677 15.403 33.7908 15.2571 33.4384C15.1063 33.0744 14.8853 32.7437 14.6067 32.4651C14.3282 32.1865 13.9975 31.9655 13.6335 31.8148C13.2707 31.6645 12.882 31.5869 12.4894 31.5864V29.3487H10.4894Z" fill="#333333"/>
<path d="M24.5106 21.4512C24.5106 23.6603 22.7198 25.4512 20.5106 25.4512C18.3015 25.4512 16.5106 23.6603 16.5106 21.4512C16.5106 19.242 18.3015 17.4512 20.5106 17.4512C22.7198 17.4512 24.5106 19.242 24.5106 21.4512Z" fill="#333333"/>
<path fill-rule="evenodd" clip-rule="evenodd" d="M5.51062 11.4512C4.40605 11.4512 3.51062 12.3466 3.51062 13.4512V29.4512C3.51062 30.5557 4.40605 31.4512 5.51062 31.4512H35.5106C36.6152 31.4512 37.5106 30.5557 37.5106 29.4512V13.4512C37.5106 12.3466 36.6152 11.4512 35.5106 11.4512H5.51062ZM8.50879 13.4512H32.5117C32.5122 13.8438 32.5898 14.2325 32.7401 14.5953C32.8908 14.9593 33.1118 15.29 33.3904 15.5686C33.669 15.8472 33.9997 16.0681 34.3637 16.2189C34.7273 16.3695 35.117 16.4471 35.5106 16.4473V26.4512C35.1226 26.4535 34.7386 26.531 34.38 26.6795C34.016 26.8303 33.6853 27.0513 33.4068 27.3299C33.1282 27.6084 32.9072 27.9391 32.7564 28.3031C32.6057 28.6671 32.5281 29.0572 32.5281 29.4512H8.50643C8.50165 29.07 8.42427 28.6931 8.2783 28.3407C8.12754 27.9767 7.90656 27.646 7.62799 27.3674C7.34941 27.0889 7.01869 26.8679 6.65472 26.7171C6.29196 26.5669 5.90324 26.4893 5.51062 26.4888L5.51062 16.4512C5.90396 16.4509 6.29343 16.3733 6.65684 16.2228C7.02082 16.072 7.35153 15.8511 7.63011 15.5725C7.90869 15.2939 8.12966 14.9632 8.28043 14.5992C8.43119 14.2352 8.50879 13.8451 8.50879 13.4512Z" fill="#333333"/>
</svg>
