<svg width="48" height="48" viewBox="0 0 48 48" fill="none" xmlns="http://www.w3.org/2000/svg">
<path fill-rule="evenodd" clip-rule="evenodd" d="M38.2143 19.5319C38.1237 19.6148 38.0266 19.6868 37.9247 19.7477C37.9301 20.8351 37.9461 21.9457 37.962 23.0465V23.0467V23.0468V23.047V23.0472V23.0474V23.0476V23.0478V23.048V23.0483C37.9842 24.5936 38.0062 26.1198 37.9983 27.536C37.9831 30.2549 37.8624 32.8418 37.4203 35.0818C36.9793 37.3163 36.1985 39.3134 34.7793 40.7537C33.3307 42.2238 31.331 43 28.7031 43C24.3102 43 21.8272 41.3632 20.4726 39.5782C19.8121 38.7078 19.4478 37.8388 19.2478 37.1859C19.1652 36.916 19.1099 36.6806 19.0731 36.494C17.651 36.7958 15.9634 37 14 37C6.47368 37 3 34 3 34V12C3 12 3.02856 12.0225 3.0854 12.0635C3.02904 11.8789 3 11.6908 3 11.5C3 9.01472 7.92487 7 14 7C20.0751 7 25 9.01472 25 11.5C25 11.6894 24.9714 11.876 24.9159 12.0593C24.9717 12.0209 25 12 25 12V16.0619C28.9463 16.554 32 19.9204 32 24C32 28.0796 28.9463 31.446 25 31.9381V34C25 34 23.7143 35.1104 21.0126 35.9801C21.0152 35.9963 21.0182 36.014 21.0216 36.0333C21.0446 36.1638 21.0866 36.3602 21.1602 36.6003C21.3077 37.0822 21.578 37.7264 22.0658 38.3692C23.0078 39.6105 24.8765 41 28.7031 41C30.9103 41 32.3556 40.3639 33.3547 39.3499C34.3833 38.3061 35.053 36.7473 35.4582 34.6945C35.8622 32.6473 35.9833 30.2155 35.9983 27.5248C36.0065 26.0721 35.9849 24.6185 35.9628 23.1255V23.1252V23.1249V23.1246V23.1243V23.124V23.1236V23.1233V23.1229L35.9628 23.122V23.1217V23.1215V23.1212V23.121V23.1207V23.1205L35.9627 23.1196C35.9459 21.9854 35.9288 20.8287 35.924 19.6325C35.8795 19.5983 35.8362 19.5618 35.7942 19.5229L35.6953 19.4322C30.9721 15.1255 27.8863 12.3057 28.0032 8.78783C28.0572 7.24649 28.8399 5.76861 30.1084 4.8982C32.4835 3.26619 35.4164 4.02779 36.9998 5.89554C38.5831 4.02779 41.516 3.25712 43.8911 4.8982C45.1596 5.76861 45.9423 7.24649 45.9963 8.78783C46.1218 12.2922 43.0512 15.1038 38.3586 19.4006L38.3043 19.4503L38.2143 19.5319ZM23 16.0619C19.0537 16.554 16 19.9204 16 24C16 28.0796 19.0537 31.446 23 31.9381V32.9432C22.651 33.1473 22.1712 33.3976 21.5565 33.6525C19.9799 34.306 17.4896 35 14 35C13.657 35 13.3237 34.9933 13 34.9806V16.9818C13.3266 16.9938 13.6599 17 14 17C17.7658 17 20.7672 16.1864 22.8458 15.3578C22.8978 15.3371 22.9492 15.3164 23 15.2957V16.0619ZM14 15C18.4183 15 22 13.6569 22 12C22 10.3431 18.4183 9 14 9C9.58172 9 6 10.3431 6 12C6 13.6569 9.58172 15 14 15ZM26 24C26 25.1046 25.1046 26 24 26C22.8954 26 22 25.1046 22 24C22 23.2597 22.4022 22.6134 23 22.2676V19C23 18.4477 23.4477 18 24 18C24.5523 18 25 18.4477 25 19V22.2676C25.5978 22.6134 26 23.2597 26 24Z" fill="#333333"/>
</svg>
