<svg width="48" height="48" viewBox="0 0 48 48" fill="none" xmlns="http://www.w3.org/2000/svg">
<path fill-rule="evenodd" clip-rule="evenodd" d="M12 8C12 5.79086 13.7909 4 16 4H24.6C24.2686 4 24 4.26729 24 4.59702C24 4.92674 24.2686 5.19403 24.6 5.19403C24.9314 5.19403 25.2 4.92674 25.2 4.59702C25.2 4.26729 24.9314 4 24.6 4H32C34.2091 4 36 5.79086 36 8V40C36 42.2091 34.2091 44 32 44H24.615C24.9394 43.9921 25.2 43.7279 25.2 43.4032C25.2 43.0734 24.9314 42.8062 24.6 42.8062C24.2686 42.8062 24 43.0734 24 43.4032C24 43.7279 24.2606 43.9921 24.585 44H16C13.7909 44 12 42.2091 12 40V8ZM25.2 40.4183C25.2 40.0886 24.9314 39.8213 24.6 39.8213C24.2686 39.8213 24 40.0886 24 40.4183C24 40.748 24.2686 41.0153 24.6 41.0153C24.9314 41.0153 25.2 40.748 25.2 40.4183ZM24.6 36.8359C24.9314 36.8359 25.2 37.1032 25.2 37.433C25.2 37.7627 24.9314 38.03 24.6 38.03C24.2686 38.03 24 37.7627 24 37.433C24 37.1032 24.2686 36.8359 24.6 36.8359ZM25.2 34.4481C25.2 34.1184 24.9314 33.8511 24.6 33.8511C24.2686 33.8511 24 34.1184 24 34.4481C24 34.7778 24.2686 35.0451 24.6 35.0451C24.9314 35.0451 25.2 34.7778 25.2 34.4481ZM24.6 30.8657C24.9314 30.8657 25.2 31.133 25.2 31.4627C25.2 31.7925 24.9314 32.0598 24.6 32.0598C24.2686 32.0598 24 31.7925 24 31.4627C24 31.133 24.2686 30.8657 24.6 30.8657ZM25.2 28.4779C25.2 28.1482 24.9314 27.8809 24.6 27.8809C24.2686 27.8809 24 28.1482 24 28.4779C24 28.8076 24.2686 29.0749 24.6 29.0749C24.9314 29.0749 25.2 28.8076 25.2 28.4779ZM24.6 24.8955C24.9314 24.8955 25.2 25.1628 25.2 25.4925C25.2 25.8222 24.9314 26.0895 24.6 26.0895C24.2686 26.0895 24 25.8222 24 25.4925C24 25.1628 24.2686 24.8955 24.6 24.8955ZM25.2 22.5077C25.2 22.1779 24.9314 21.9106 24.6 21.9106C24.2686 21.9106 24 22.1779 24 22.5077C24 22.8374 24.2686 23.1047 24.6 23.1047C24.9314 23.1047 25.2 22.8374 25.2 22.5077ZM24.6 18.9253C24.9314 18.9253 25.2 19.1926 25.2 19.5223C25.2 19.852 24.9314 20.1193 24.6 20.1193C24.2686 20.1193 24 19.852 24 19.5223C24 19.1926 24.2686 18.9253 24.6 18.9253ZM25.2 16.5374C25.2 16.2077 24.9314 15.9404 24.6 15.9404C24.2686 15.9404 24 16.2077 24 16.5374C24 16.8672 24.2686 17.1345 24.6 17.1345C24.9314 17.1345 25.2 16.8672 25.2 16.5374ZM24.6 12.9556C24.9314 12.9556 25.2 13.2229 25.2 13.5526C25.2 13.8823 24.9314 14.1496 24.6 14.1496C24.2686 14.1496 24 13.8823 24 13.5526C24 13.2229 24.2686 12.9556 24.6 12.9556ZM25.2 10.5672C25.2 10.2375 24.9314 9.97021 24.6 9.97021C24.2686 9.97021 24 10.2375 24 10.5672C24 10.897 24.2686 11.1642 24.6 11.1642C24.9314 11.1642 25.2 10.897 25.2 10.5672ZM24.6 6.98535C24.9314 6.98535 25.2 7.25264 25.2 7.58237C25.2 7.91209 24.9314 8.17938 24.6 8.17938C24.2686 8.17938 24 7.91209 24 7.58237C24 7.25264 24.2686 6.98535 24.6 6.98535ZM20 8.67662C20 9.50093 19.3284 10.1692 18.5 10.1692C17.6716 10.1692 17 9.50093 17 8.67662C17 7.85231 17.6716 7.18408 18.5 7.18408C19.3284 7.18408 20 7.85231 20 8.67662ZM18.5 15.1443C19.3284 15.1443 20 14.4761 20 13.6518C20 12.8274 19.3284 12.1592 18.5 12.1592C17.6716 12.1592 17 12.8274 17 13.6518C17 14.4761 17.6716 15.1443 18.5 15.1443ZM20 18.6269C20 19.4512 19.3284 20.1194 18.5 20.1194C17.6716 20.1194 17 19.4512 17 18.6269C17 17.8026 17.6716 17.1343 18.5 17.1343C19.3284 17.1343 20 17.8026 20 18.6269ZM18.5 25.0946C19.3284 25.0946 20 24.4263 20 23.602C20 22.7777 19.3284 22.1095 18.5 22.1095C17.6716 22.1095 17 22.7777 17 23.602C17 24.4263 17.6716 25.0946 18.5 25.0946ZM20 28.5771C20 29.4014 19.3284 30.0697 18.5 30.0697C17.6716 30.0697 17 29.4014 17 28.5771C17 27.7528 17.6716 27.0846 18.5 27.0846C19.3284 27.0846 20 27.7528 20 28.5771ZM18.5 35.0448C19.3284 35.0448 20 34.3766 20 33.5523C20 32.728 19.3284 32.0597 18.5 32.0597C17.6716 32.0597 17 32.728 17 33.5523C17 34.3766 17.6716 35.0448 18.5 35.0448ZM20 38.5274C20 39.3517 19.3284 40.0199 18.5 40.0199C17.6716 40.0199 17 39.3517 17 38.5274C17 37.7031 17.6716 37.0349 18.5 37.0349C19.3284 37.0349 20 37.7031 20 38.5274ZM30.5 10.1692C31.3284 10.1692 32 9.50093 32 8.67662C32 7.85231 31.3284 7.18408 30.5 7.18408C29.6716 7.18408 29 7.85231 29 8.67662C29 9.50093 29.6716 10.1692 30.5 10.1692ZM32 13.6518C32 14.4761 31.3284 15.1443 30.5 15.1443C29.6716 15.1443 29 14.4761 29 13.6518C29 12.8274 29.6716 12.1592 30.5 12.1592C31.3284 12.1592 32 12.8274 32 13.6518ZM30.5 20.1194C31.3284 20.1194 32 19.4512 32 18.6269C32 17.8026 31.3284 17.1343 30.5 17.1343C29.6716 17.1343 29 17.8026 29 18.6269C29 19.4512 29.6716 20.1194 30.5 20.1194ZM32 23.602C32 24.4263 31.3284 25.0946 30.5 25.0946C29.6716 25.0946 29 24.4263 29 23.602C29 22.7777 29.6716 22.1095 30.5 22.1095C31.3284 22.1095 32 22.7777 32 23.602ZM30.5 30.0697C31.3284 30.0697 32 29.4014 32 28.5771C32 27.7528 31.3284 27.0846 30.5 27.0846C29.6716 27.0846 29 27.7528 29 28.5771C29 29.4014 29.6716 30.0697 30.5 30.0697ZM32 33.5523C32 34.3766 31.3284 35.0448 30.5 35.0448C29.6716 35.0448 29 34.3766 29 33.5523C29 32.728 29.6716 32.0597 30.5 32.0597C31.3284 32.0597 32 32.728 32 33.5523ZM30.5 40.0199C31.3284 40.0199 32 39.3517 32 38.5274C32 37.7031 31.3284 37.0349 30.5 37.0349C29.6716 37.0349 29 37.7031 29 38.5274C29 39.3517 29.6716 40.0199 30.5 40.0199Z" fill="#333333"/>
</svg>
