<svg width="48" height="48" viewBox="0 0 48 48" fill="none" xmlns="http://www.w3.org/2000/svg">
<path fill-rule="evenodd" clip-rule="evenodd" d="M16 4C13.7909 4 12 5.79086 12 8V23C12.5523 23 13 23.4477 13 24C13 24.5523 12.5523 25 12 25V40C12 42.2091 13.7909 44 16 44H32C34.2091 44 36 42.2091 36 40V25C35.4477 25 35 24.5523 35 24C35 23.4477 35.4477 23 36 23V8C36 5.79086 34.2091 4 32 4H16ZM16 24C16 24.5523 15.5523 25 15 25C14.4477 25 14 24.5523 14 24C14 23.4477 14.4477 23 15 23C15.5523 23 16 23.4477 16 24ZM18 25C18.5523 25 19 24.5523 19 24C19 23.4477 18.5523 23 18 23C17.4477 23 17 23.4477 17 24C17 24.5523 17.4477 25 18 25ZM22 24C22 24.5523 21.5523 25 21 25C20.4477 25 20 24.5523 20 24C20 23.4477 20.4477 23 21 23C21.5523 23 22 23.4477 22 24ZM24 25C24.5523 25 25 24.5523 25 24C25 23.4477 24.5523 23 24 23C23.4477 23 23 23.4477 23 24C23 24.5523 23.4477 25 24 25ZM28 24C28 24.5523 27.5523 25 27 25C26.4477 25 26 24.5523 26 24C26 23.4477 26.4477 23 27 23C27.5523 23 28 23.4477 28 24ZM30 25C30.5523 25 31 24.5523 31 24C31 23.4477 30.5523 23 30 23C29.4477 23 29 23.4477 29 24C29 24.5523 29.4477 25 30 25ZM34 24C34 24.5523 33.5523 25 33 25C32.4477 25 32 24.5523 32 24C32 23.4477 32.4477 23 33 23C33.5523 23 34 23.4477 34 24ZM19.2426 11.4142C20.0237 10.6332 21.29 10.6332 22.0711 11.4142C22.8521 12.1953 22.8521 13.4616 22.0711 14.2426L19.2426 17.0711C18.4616 17.8521 17.1953 17.8521 16.4142 17.0711C15.6332 16.29 15.6332 15.0237 16.4142 14.2426L19.2426 11.4142ZM31.0711 11.4142C30.29 10.6332 29.0237 10.6332 28.2426 11.4142L25.4142 14.2426C24.6332 15.0237 24.6332 16.29 25.4142 17.0711C26.1953 17.8521 27.4616 17.8521 28.2426 17.0711L31.0711 14.2426C31.8521 13.4616 31.8521 12.1953 31.0711 11.4142ZM19.2426 31.4142C20.0237 30.6332 21.29 30.6332 22.0711 31.4142C22.8521 32.1953 22.8521 33.4616 22.0711 34.2426L19.2426 37.0711C18.4616 37.8521 17.1953 37.8521 16.4142 37.0711C15.6332 36.29 15.6332 35.0237 16.4142 34.2426L19.2426 31.4142ZM31.0711 31.4142C30.29 30.6332 29.0237 30.6332 28.2426 31.4142L25.4142 34.2426C24.6332 35.0237 24.6332 36.29 25.4142 37.0711C26.1953 37.8521 27.4616 37.8521 28.2426 37.0711L31.0711 34.2426C31.8521 33.4616 31.8521 32.1953 31.0711 31.4142Z" fill="#333333"/>
</svg>
