<svg width="48" height="48" viewBox="0 0 48 48" fill="none" xmlns="http://www.w3.org/2000/svg">
<path fill-rule="evenodd" clip-rule="evenodd" d="M28.0001 11C28.0001 12.2256 27.4489 13.3224 26.5808 14.0562C27.9597 14.3267 29.0001 15.5418 29.0001 17V18.0988L32.1513 22.0379C32.2299 22.1318 32.2956 22.2338 32.348 22.3412C32.547 22.7474 32.5482 23.218 32.3664 23.6198C32.3177 23.7274 32.2558 23.8301 32.1811 23.9253L29.2001 27.9C29.0155 28.146 28.7699 28.3193 28.5001 28.4144V39C28.5001 39.8284 27.8285 40.5 27.0001 40.5C26.1717 40.5 25.5001 39.8284 25.5001 39V31H22.5001V39C22.5001 39.8284 21.8285 40.5 21.0001 40.5C20.1717 40.5 19.5001 39.8284 19.5001 39V28.4144C19.2302 28.3193 18.9846 28.1461 18.8001 27.9L15.8193 23.9256C15.7437 23.8294 15.6812 23.7254 15.6322 23.6164C15.4514 23.2143 15.4537 22.7437 15.6538 22.3379C15.7058 22.2318 15.7709 22.1311 15.8485 22.0383L19.0001 18.0988V17C19.0001 15.5418 20.0404 14.3267 21.4193 14.0562C20.5512 13.3224 20.0001 12.2256 20.0001 11C20.0001 8.79086 21.7909 7 24.0001 7C26.2092 7 28.0001 8.79086 28.0001 11ZM27.4825 25.1901L29.1028 23.0296L28.5001 22.2762V23.4648L27.4454 22.7617C27.1672 22.5762 27.0001 22.264 27.0001 21.9296V16H26.0001V14.4649C25.4117 14.8052 24.7286 15 24.0001 15C23.2715 15 22.5884 14.8052 22.0001 14.4649V16H21.0001V21.9296C21.0001 22.264 20.833 22.5762 20.5548 22.7617L19.5001 23.4648V22.2761L18.8973 23.0296L20.5177 25.1901L21.6642 24.4258C22.4988 23.8694 23.0001 22.9327 23.0001 21.9296L23.0001 16H25.0001V16.5L25.0001 21.9296C25.0001 22.9327 25.5014 23.8694 26.336 24.4258L27.4825 25.1901Z" fill="#333333"/>
</svg>
