<svg width="48" height="48" viewBox="0 0 48 48" fill="none" xmlns="http://www.w3.org/2000/svg">
<path fill-rule="evenodd" clip-rule="evenodd" d="M23.9999 18.25C25.9329 18.25 27.4999 16.683 27.4999 14.75C27.4999 12.817 25.9329 11.25 23.9999 11.25C22.0669 11.25 20.4999 12.817 20.4999 14.75C20.4999 16.683 22.0669 18.25 23.9999 18.25ZM21.4999 19.75C20.9984 19.75 20.53 20.0007 20.2518 20.4179L16.2518 26.4179C15.7923 27.1072 15.9786 28.0385 16.6679 28.4981C17.3572 28.9576 18.2885 28.7713 18.748 28.0821L19.9999 26.2042V35.25C19.9999 36.0784 20.6715 36.75 21.4999 36.75C22.3283 36.75 22.9999 36.0784 22.9999 35.25V30.25H24.9999V35.25C24.9999 36.0784 25.6715 36.75 26.4999 36.75C27.3283 36.75 27.9999 36.0784 27.9999 35.25V26.2042L29.2518 28.0821C29.7114 28.7713 30.6427 28.9576 31.332 28.4981C32.0213 28.0385 32.2075 27.1072 31.748 26.4179L27.748 20.4179C27.4698 20.0007 27.0014 19.75 26.4999 19.75H21.4999Z" fill="#333333"/>
</svg>
