<svg width="48" height="48" viewBox="0 0 48 48" fill="none" xmlns="http://www.w3.org/2000/svg">
<path fill-rule="evenodd" clip-rule="evenodd" d="M29.9553 35.0298C35.5384 33.6868 39.0894 28.4205 37.8869 23.2673C36.6843 18.1141 31.1834 15.0253 25.6004 16.3684C20.0173 17.7115 16.4663 22.9778 17.6688 28.131C18.8714 33.2842 24.3723 36.3729 29.9553 35.0298ZM32.0278 30.4933C33.3319 30.4933 34.389 29.4201 34.389 28.0961C34.389 26.7721 33.3319 25.6988 32.0278 25.6988C30.7238 25.6988 29.6667 26.7721 29.6667 28.0961C29.6667 29.4201 30.7238 30.4933 32.0278 30.4933Z" fill="#333333"/>
<path d="M17.389 17.1557C17.389 15.4707 18.7344 14.1047 20.394 14.1047C22.0537 14.1047 23.3991 15.4707 23.3991 17.1557C23.3991 18.8408 22.0537 20.2068 20.394 20.2068C18.7344 20.2068 17.389 18.8408 17.389 17.1557Z" fill="#333333"/>
<path d="M13.096 16.2837C13.096 14.5986 14.4414 13.2326 16.1011 13.2326C17.7607 13.2326 19.1061 14.5986 19.1061 16.2837C19.1061 17.9687 17.7607 19.3347 16.1011 19.3347C14.4414 19.3347 13.096 17.9687 13.096 16.2837Z" fill="#333333"/>
<path d="M9.66168 18.8992C9.66168 17.2141 11.0071 15.8481 12.6667 15.8481C14.3264 15.8481 15.6718 17.2141 15.6718 18.8992C15.6718 20.5842 14.3264 21.9502 12.6667 21.9502C11.0071 21.9502 9.66168 20.5842 9.66168 18.8992Z" fill="#333333"/>
<path d="M7.94452 23.2581C7.94452 21.573 9.28992 20.207 10.9496 20.207C12.6092 20.207 13.9546 21.573 13.9546 23.2581C13.9546 24.9431 12.6092 26.3091 10.9496 26.3091C9.28992 26.3091 7.94452 24.9431 7.94452 23.2581Z" fill="#333333"/>
<path d="M8.80304 27.6167C8.80304 25.9317 10.1484 24.5657 11.8081 24.5657C13.4677 24.5657 14.8131 25.9317 14.8131 27.6167C14.8131 29.3018 13.4677 30.6678 11.8081 30.6678C10.1484 30.6678 8.80304 29.3018 8.80304 27.6167Z" fill="#333333"/>
<path d="M11.3788 31.9752C11.3788 30.2901 12.7242 28.9241 14.3839 28.9241C16.0435 28.9241 17.3889 30.2901 17.3889 31.9752C17.3889 33.6602 16.0435 35.0262 14.3839 35.0262C12.7242 35.0262 11.3788 33.6602 11.3788 31.9752Z" fill="#333333"/>
<path d="M13 36.5001C13 35.1194 14.1193 34.0001 15.5 34.0001C16.8807 34.0001 18 35.1194 18 36.5001C18 37.8808 16.8807 39.0001 15.5 39.0001C14.1193 39.0001 13 37.8808 13 36.5001Z" fill="#333333"/>
<path d="M13.096 40.2567C13.096 39.2938 13.8648 38.5132 14.8132 38.5132C15.7616 38.5132 16.5304 39.2938 16.5304 40.2567C16.5304 41.2195 15.7616 42.0001 14.8132 42.0001C13.8648 42.0001 13.096 41.2195 13.096 40.2567Z" fill="#333333"/>
<path d="M16.1011 29.7958C15.2425 28.4882 13.9546 20.6426 19.5354 21.0784C25.1162 21.5143 20.8233 20.6426 20.8233 20.6426L20.394 17.5915L16.5304 16.2839L12.2374 19.335L11.3788 26.3088C11.3788 26.3088 16.9596 31.1034 16.1011 29.7958Z" fill="#333333"/>
<path fill-rule="evenodd" clip-rule="evenodd" d="M31.7042 17.3271L31.7059 17.3201L31.7149 17.2827C31.7235 17.248 31.7372 17.1943 31.7562 17.1238C31.7943 16.9827 31.8537 16.7751 31.9367 16.5191C32.1033 16.0053 32.3621 15.3051 32.73 14.5592C33.4835 13.0311 34.6103 11.4824 36.1762 10.7878C36.6838 10.5627 36.9116 9.97459 36.6849 9.47426C36.4583 8.97394 35.8631 8.75086 35.3555 8.976C33.138 9.95949 31.7429 12.0261 30.9204 13.6939C30.5002 14.546 30.2075 15.3388 30.0195 15.9186C29.9252 16.2093 29.8566 16.4486 29.811 16.6178C29.7881 16.7024 29.771 16.7696 29.7593 16.8171C29.7534 16.8408 29.7489 16.8596 29.7457 16.8733L29.7418 16.8897L29.7402 16.8968C29.7402 16.8968 29.7399 16.8982 30.7219 17.1126L29.7399 16.8982C29.6183 17.4339 29.9594 17.9642 30.5019 18.0826C31.0441 18.2011 31.5824 17.8626 31.7042 17.3271Z" fill="#333333"/>
<path fill-rule="evenodd" clip-rule="evenodd" d="M6.64464 6.06531C7.16087 5.86903 7.73847 6.12841 7.93475 6.64464C8.48039 8.07976 9.73202 8.79455 11.0729 8.79455C12.423 8.79455 13.8407 8.06163 14.6081 6.54786C14.7707 6.2271 15.093 6.01836 15.4522 6.00117C15.8114 5.98398 16.1522 6.161 16.3447 6.46476C17.4018 8.13294 18.6565 8.79455 19.75 8.79455C20.8435 8.79455 22.0983 8.13294 23.1553 6.46476C23.3478 6.161 23.6886 5.98398 24.0478 6.00117C24.407 6.01836 24.7294 6.2271 24.892 6.54786C25.692 8.12603 26.9102 8.79456 28.0729 8.79456C29.2559 8.79457 30.6184 8.10116 31.6553 6.46477C31.8387 6.1754 32.1574 6.00003 32.5 6.00003C32.8426 6.00003 33.1613 6.17539 33.3447 6.46476C34.4018 8.13294 35.6565 8.79455 36.75 8.79455C37.8435 8.79455 39.0983 8.13294 40.1553 6.46476C40.451 5.99826 41.0688 5.85972 41.5353 6.15534C42.0018 6.45096 42.1403 7.06878 41.8447 7.53529C40.5407 9.59315 38.726 10.7945 36.75 10.7945C35.1682 10.7945 33.6897 10.0246 32.4939 8.66177C31.2522 10.0406 29.6824 10.7946 28.0729 10.7946C26.4972 10.7946 25.0266 10.0711 23.9386 8.73786C22.7548 10.0533 21.3022 10.7945 19.75 10.7945C18.1913 10.7945 16.733 10.047 15.5464 8.7211C14.3655 10.0956 12.7036 10.7945 11.0729 10.7945C8.99025 10.7945 6.93633 9.64632 6.06531 7.35541C5.86903 6.83918 6.12841 6.26158 6.64464 6.06531Z" fill="#333333"/>
</svg>
