<svg width="48" height="48" viewBox="0 0 48 48" fill="none" xmlns="http://www.w3.org/2000/svg">
<path d="M15 6C15 5.44772 15.4477 5 16 5C16.5523 5 17 5.44772 17 6V12C17 12.5523 16.5523 13 16 13C15.4477 13 15 12.5523 15 12V6Z" fill="#333333"/>
<path d="M31 6C31 5.44772 31.4477 5 32 5C32.5523 5 33 5.44772 33 6V12C33 12.5523 32.5523 13 32 13C31.4477 13 31 12.5523 31 12V6Z" fill="#333333"/>
<path fill-rule="evenodd" clip-rule="evenodd" d="M17 24H15L15 26H17V24ZM15 22C13.8954 22 13 22.8954 13 24V26C13 27.1046 13.8954 28 15 28H17C18.1046 28 19 27.1046 19 26V24C19 22.8954 18.1046 22 17 22H15Z" fill="#333333"/>
<path fill-rule="evenodd" clip-rule="evenodd" d="M25 24H23L23 26H25V24ZM23 22C21.8954 22 21 22.8954 21 24V26C21 27.1046 21.8954 28 23 28H25C26.1046 28 27 27.1046 27 26V24C27 22.8954 26.1046 22 25 22H23Z" fill="#333333"/>
<path fill-rule="evenodd" clip-rule="evenodd" d="M33 24H31L31 26H33V24ZM31 22C29.8954 22 29 22.8954 29 24V26C29 27.1046 29.8954 28 31 28H33C34.1046 28 35 27.1046 35 26V24C35 22.8954 34.1046 22 33 22H31Z" fill="#333333"/>
<path fill-rule="evenodd" clip-rule="evenodd" d="M17 32H15L15 34H17V32ZM15 30C13.8954 30 13 30.8954 13 32V34C13 35.1046 13.8954 36 15 36H17C18.1046 36 19 35.1046 19 34V32C19 30.8954 18.1046 30 17 30H15Z" fill="#333333"/>
<path fill-rule="evenodd" clip-rule="evenodd" d="M25 32H23L23 34H25V32ZM23 30C21.8954 30 21 30.8954 21 32V34C21 35.1046 21.8954 36 23 36H25C26.1046 36 27 35.1046 27 34V32C27 30.8954 26.1046 30 25 30H23Z" fill="#333333"/>
<path fill-rule="evenodd" clip-rule="evenodd" d="M33 32H31L31 34H33V32ZM31 30C29.8954 30 29 30.8954 29 32V34C29 35.1046 29.8954 36 31 36H33C34.1046 36 35 35.1046 35 34V32C35 30.8954 34.1046 30 33 30H31Z" fill="#333333"/>
<path fill-rule="evenodd" clip-rule="evenodd" d="M38 14.6922V37C38 38.1046 37.1046 39 36 39H12C10.8954 39 10 38.1046 10 37V16.3845C10 14.9203 11.655 14.0686 12.8465 14.9196C13.8303 15.6223 15.0089 16 16.2178 16H35.0762C36.1958 16 37.2583 15.5218 38 14.6922ZM14.009 13.2922C11.4938 11.4956 8 13.2935 8 16.3845V37C8 39.2091 9.79086 41 12 41H36C38.2091 41 40 39.2091 40 37V14.4793C40 12.6625 37.7121 11.8599 36.5771 13.2787C36.2123 13.7346 35.6601 14 35.0762 14H16.2178C15.4258 14 14.6535 13.7525 14.009 13.2922Z" fill="#333333"/>
<path fill-rule="evenodd" clip-rule="evenodd" d="M33 9H19V12C19 12.5523 18.5523 13 18 13C17.4477 13 17 12.5523 17 12V9H12C9.79086 9 8 10.7909 8 13V20H40V13C40 10.7909 38.2091 9 36 9H35V12C35 12.5523 34.5523 13 34 13C33.4477 13 33 12.5523 33 12V9Z" fill="#333333"/>
<path fill-rule="evenodd" clip-rule="evenodd" d="M31 11H21V12C21 13.6569 19.6569 15 18 15C16.3431 15 15 13.6569 15 12V11H12C10.8954 11 10 11.8954 10 13V18H38V13C38 12.2597 37.5978 11.6134 37 11.2676V12C37 13.6569 35.6569 15 34 15C32.3431 15 31 13.6569 31 12V11ZM19 9V12C19 12.5523 18.5523 13 18 13C17.4477 13 17 12.5523 17 12V9H12C9.79086 9 8 10.7909 8 13V20H40V13C40 11.1362 38.7252 9.57006 37 9.12602C36.6804 9.04375 36.3453 9 36 9H35V12C35 12.5523 34.5523 13 34 13C33.4477 13 33 12.5523 33 12V9H19Z" fill="#333333"/>
<path fill-rule="evenodd" clip-rule="evenodd" d="M39 20H9V18H39V20Z" fill="#333333"/>
</svg>
