<svg width="48" height="48" viewBox="0 0 48 48" fill="none" xmlns="http://www.w3.org/2000/svg">
<path fill-rule="evenodd" clip-rule="evenodd" d="M20 4C18.3431 4 17 5.34315 17 7H14C11.7909 7 10 8.79086 10 11V20.9883L17.6326 20.9886L21.0207 14.9653L23.1377 22.375L25.7284 19.0441H31.2175C31.7698 19.0441 32.2175 19.4918 32.2175 20.0441C32.2175 20.5964 31.7698 21.0441 31.2175 21.0441H26.7065L22.2972 26.7133L20.4142 20.1229L18.8023 22.9886L10 22.9883V39C10 41.2091 11.7909 43 14 43H34C36.2091 43 38 41.2091 38 39V11C38 8.79086 36.2091 7 34 7H31C31 5.34315 29.6569 4 28 4H20ZM19 7C19 6.44772 19.4477 6 20 6H28C28.5523 6 29 6.44772 29 7V9C29 9.55228 28.5523 10 28 10H20C19.4477 10 19 9.55228 19 9V7ZM16 30C15.4477 30 15 30.4477 15 31C15 31.5523 15.4477 32 16 32H32C32.5523 32 33 31.5523 33 31C33 30.4477 32.5523 30 32 30H16ZM18 36C18 35.4477 18.4477 35 19 35H29C29.5523 35 30 35.4477 30 36C30 36.5523 29.5523 37 29 37H19C18.4477 37 18 36.5523 18 36Z" fill="#333333"/>
</svg>
