<svg width="48" height="48" viewBox="0 0 48 48" fill="none" xmlns="http://www.w3.org/2000/svg">
<path d="M15 7C15 6.44772 15.4477 6 16 6C16.5523 6 17 6.44772 17 7V13C17 13.5523 16.5523 14 16 14C15.4477 14 15 13.5523 15 13V7Z" fill="#333333"/>
<path d="M31 7C31 6.44772 31.4477 6 32 6C32.5523 6 33 6.44772 33 7V13C33 13.5523 32.5523 14 32 14C31.4477 14 31 13.5523 31 13V7Z" fill="#333333"/>
<path fill-rule="evenodd" clip-rule="evenodd" d="M39 38V15.6088C39 15.593 38.9988 15.5827 38.9979 15.5772L38.997 15.5725C38.9927 15.5684 38.9811 15.5588 38.9596 15.5509C38.9381 15.543 38.9231 15.5428 38.9171 15.5431L38.9134 15.5461C38.9092 15.5498 38.9016 15.5568 38.8913 15.5689C38.1196 16.4768 36.9882 17 35.7966 17H15.6571C14.4646 17 13.2992 16.6447 12.3096 15.9794L12.1158 15.8491C10.7872 14.956 9 15.908 9 17.5089V38C9 39.1046 9.89543 40 11 40H37C38.1046 40 39 39.1046 39 38ZM13.2317 14.1894C10.5745 12.403 7 14.3071 7 17.5089V38C7 40.2091 8.79086 42 11 42H37C39.2091 42 41 40.2091 41 38V15.6088C41 13.6905 38.6098 12.812 37.3675 14.2736C36.9757 14.7344 36.4014 15 35.7966 15H15.6571C14.8621 15 14.0851 14.7631 13.4254 14.3196L13.2317 14.1894Z" fill="#333333"/>
<path fill-rule="evenodd" clip-rule="evenodd" d="M33 10H19V13C19 13.5523 18.5523 14 18 14C17.4477 14 17 13.5523 17 13V10H11C8.79086 10 7 11.7909 7 14V20H41V14C41 11.7909 39.2091 10 37 10H35V13C35 13.5523 34.5523 14 34 14C33.4477 14 33 13.5523 33 13V10Z" fill="#333333"/>
<path fill-rule="evenodd" clip-rule="evenodd" d="M31 12H21V13C21 14.6569 19.6569 16 18 16C16.3431 16 15 14.6569 15 13V12H11C9.89543 12 9 12.8954 9 14V18H39V14C39 12.8954 38.1046 12 37 12V13C37 14.6569 35.6569 16 34 16C32.3431 16 31 14.6569 31 13V12ZM19 10V13C19 13.5523 18.5523 14 18 14C17.4477 14 17 13.5523 17 13V10H11C8.79086 10 7 11.7909 7 14V20H41V14C41 11.7909 39.2091 10 37 10H35V13C35 13.5523 34.5523 14 34 14C33.4477 14 33 13.5523 33 13V10H19Z" fill="#333333"/>
<path fill-rule="evenodd" clip-rule="evenodd" d="M22.3 23C22.3 22.4477 22.7477 22 23.3 22H24.7C25.2523 22 25.7 22.4477 25.7 23C25.7 23.5523 25.2523 24 24.7 24H23.3C22.7477 24 22.3 23.5523 22.3 23Z" fill="#333333"/>
<path fill-rule="evenodd" clip-rule="evenodd" d="M23 26.5V23.7H25V26.5H23Z" fill="#333333"/>
<path fill-rule="evenodd" clip-rule="evenodd" d="M27.4929 23.6929C27.8834 23.3024 28.5166 23.3024 28.9071 23.6929L30.3071 25.0929C30.6976 25.4834 30.6976 26.1166 30.3071 26.5071C29.9166 26.8976 29.2834 26.8976 28.8929 26.5071L27.4929 25.1071C27.1024 24.7166 27.1024 24.0834 27.4929 23.6929Z" fill="#333333"/>
<path fill-rule="evenodd" clip-rule="evenodd" d="M26.0929 26.4929L28.1929 24.3929L29.6071 25.8071L27.5071 27.9071L26.0929 26.4929Z" fill="#333333"/>
<path fill-rule="evenodd" clip-rule="evenodd" d="M31 28.3C31.5523 28.3 32 28.7477 32 29.3V30.7C32 31.2523 31.5523 31.7 31 31.7C30.4477 31.7 30 31.2523 30 30.7V29.3C30 28.7477 30.4477 28.3 31 28.3Z" fill="#333333"/>
<path fill-rule="evenodd" clip-rule="evenodd" d="M27.2 30C27.2 29.4477 27.6477 29 28.2 29H31C31.5523 29 32 29.4477 32 30C32 30.5523 31.5523 31 31 31H28.2C27.6477 31 27.2 30.5523 27.2 30Z" fill="#333333"/>
<path fill-rule="evenodd" clip-rule="evenodd" d="M31.0071 33.4929C31.3976 33.8834 31.3976 34.5166 31.0071 34.9071L29.6071 36.3071C29.2166 36.6977 28.5834 36.6977 28.1929 36.3071C27.8024 35.9166 27.8024 35.2834 28.1929 34.8929L29.5929 33.4929C29.9834 33.1024 30.6166 33.1024 31.0071 33.4929Z" fill="#333333"/>
<path fill-rule="evenodd" clip-rule="evenodd" d="M28.2071 32.0929L30.3071 34.1929L28.8929 35.6071L26.7929 33.5071L28.2071 32.0929Z" fill="#333333"/>
<path fill-rule="evenodd" clip-rule="evenodd" d="M22.3 37C22.3 36.4477 22.7477 36 23.3 36H24.7C25.2523 36 25.7 36.4477 25.7 37C25.7 37.5523 25.2523 38 24.7 38H23.3C22.7477 38 22.3 37.5523 22.3 37Z" fill="#333333"/>
<path fill-rule="evenodd" clip-rule="evenodd" d="M24 33.2C24.5523 33.2 25 33.6477 25 34.2V37C25 37.5523 24.5523 38 24 38C23.4477 38 23 37.5523 23 37V34.2C23 33.6477 23.4477 33.2 24 33.2Z" fill="#333333"/>
<path fill-rule="evenodd" clip-rule="evenodd" d="M17.6929 33.4929C18.0834 33.1024 18.7166 33.1024 19.1071 33.4929L20.5071 34.8929C20.8976 35.2834 20.8976 35.9166 20.5071 36.3071C20.1166 36.6977 19.4834 36.6977 19.0929 36.3071L17.6929 34.9071C17.3024 34.5166 17.3024 33.8834 17.6929 33.4929Z" fill="#333333"/>
<path fill-rule="evenodd" clip-rule="evenodd" d="M21.9071 33.5071L19.8071 35.6071L18.3929 34.1929L20.4929 32.0929L21.9071 33.5071Z" fill="#333333"/>
<path fill-rule="evenodd" clip-rule="evenodd" d="M17 28.3C17.5523 28.3 18 28.7477 18 29.3V30.7C18 31.2523 17.5523 31.7 17 31.7C16.4477 31.7 16 31.2523 16 30.7V29.3C16 28.7477 16.4477 28.3 17 28.3Z" fill="#333333"/>
<path fill-rule="evenodd" clip-rule="evenodd" d="M16 30C16 29.4477 16.4477 29 17 29H19.8C20.3523 29 20.8 29.4477 20.8 30C20.8 30.5523 20.3523 31 19.8 31H17C16.4477 31 16 30.5523 16 30Z" fill="#333333"/>
<path fill-rule="evenodd" clip-rule="evenodd" d="M20.5071 23.6929C20.8976 24.0834 20.8976 24.7166 20.5071 25.1071L19.1071 26.5071C18.7166 26.8976 18.0834 26.8976 17.6929 26.5071C17.3024 26.1166 17.3024 25.4834 17.6929 25.0929L19.0929 23.6929C19.4834 23.3024 20.1166 23.3024 20.5071 23.6929Z" fill="#333333"/>
<path fill-rule="evenodd" clip-rule="evenodd" d="M20.4929 27.9071L18.3929 25.8071L19.8071 24.3929L21.9071 26.4929L20.4929 27.9071Z" fill="#333333"/>
<path d="M29 30C29 32.7614 26.7614 35 24 35C21.2386 35 19 32.7614 19 30C19 27.2386 21.2386 25 24 25C26.7614 25 29 27.2386 29 30Z" fill="#333333"/>
</svg>
