<svg width="48" height="48" viewBox="0 0 48 48" fill="none" xmlns="http://www.w3.org/2000/svg">
<path fill-rule="evenodd" clip-rule="evenodd" d="M16 4C14.3431 4 13 5.34315 13 7H10C7.79086 7 6 8.79086 6 11V20.9883L13.6326 20.9886L17.0207 14.9653L19.1377 22.375L21.7284 19.0441H27.2175C27.7698 19.0441 28.2175 19.4918 28.2175 20.0441C28.2175 20.5964 27.7698 21.0441 27.2175 21.0441H22.7065L18.2972 26.7133L16.4142 20.1229L14.8023 22.9886L6 22.9883V39C6 41.2091 7.79086 43 10 43H30C32.2091 43 34 41.2091 34 39V11C34 8.79086 32.2091 7 30 7H27C27 5.34315 25.6569 4 24 4H16ZM15 7C15 6.44772 15.4477 6 16 6H24C24.5523 6 25 6.44772 25 7V9C25 9.55228 24.5523 10 24 10H16C15.4477 10 15 9.55228 15 9V7ZM12 30C11.4477 30 11 30.4477 11 31C11 31.5523 11.4477 32 12 32H28C28.5523 32 29 31.5523 29 31C29 30.4477 28.5523 30 28 30H12ZM14 36C14 35.4477 14.4477 35 15 35H25C25.5523 35 26 35.4477 26 36C26 36.5523 25.5523 37 25 37H15C14.4477 37 14 36.5523 14 36Z" fill="#333333"/>
<path d="M43 20H37V38L40 42L43 38V20Z" fill="#333333"/>
<path d="M41 13H39C37.8954 13 37 13.8954 37 15V19H43V15C43 13.8954 42.1046 13 41 13Z" fill="#333333"/>
<path fill-rule="evenodd" clip-rule="evenodd" d="M13 9H10C8.89543 9 8 9.89543 8 11V18.9884L12.4629 18.9885L16.394 12H16C14.3431 12 13 10.6569 13 9ZM24 10C24.5523 10 25 9.55228 25 9V7C25 6.44772 24.5523 6 24 6H16C15.4477 6 15 6.44772 15 7V9C15 9.55228 15.4477 10 16 10H24ZM27 9C27 10.6569 25.6569 12 24 12H18.2535L19.9782 18.0367L20.7502 17.0441H27.2175C28.8743 17.0441 30.2175 18.3873 30.2175 20.0441C30.2175 21.701 28.8743 23.0441 27.2175 23.0441H23.6847L19.8301 28H28C29.6569 28 31 29.3431 31 31C31 32.6569 29.6569 34 28 34H27.2361C27.7111 34.5308 28 35.2316 28 36C28 37.6569 26.6569 39 25 39H15C13.3431 39 12 37.6569 12 36C12 35.2316 12.2889 34.5308 12.7639 34H12C10.3431 34 9 32.6569 9 31C9 29.3431 10.3431 28 12 28H16.5848L15.7244 24.9886L8 24.9883V39C8 40.1046 8.89543 41 10 41H30C31.1046 41 32 40.1046 32 39V11C32 9.89543 31.1046 9 30 9H27ZM6 22.9883L14.8023 22.9886L16.4142 20.1229L18.2972 26.7133L22.7065 21.0441H27.2175C27.7698 21.0441 28.2175 20.5964 28.2175 20.0441C28.2175 19.4918 27.7698 19.0441 27.2175 19.0441H21.7284L19.1377 22.375L17.0207 14.9653L13.6326 20.9885L6.00006 20.9883L6 11C6 8.79086 7.79086 7 10 7H13C13 5.34315 14.3431 4 16 4H24C25.6569 4 27 5.34315 27 7H30C32.2091 7 34 8.79086 34 11V39C34 41.2091 32.2091 43 30 43H10C7.79086 43 6 41.2091 6 39V22.9883ZM37 19H43V15C43 13.8954 42.1046 13 41 13H39C37.8954 13 37 13.8954 37 15V19ZM39 17V15H41V17H39ZM12 30C11.4477 30 11 30.4477 11 31C11 31.5523 11.4477 32 12 32H28C28.5523 32 29 31.5523 29 31C29 30.4477 28.5523 30 28 30H12ZM15 35C14.4477 35 14 35.4477 14 36C14 36.5523 14.4477 37 15 37H25C25.5523 37 26 36.5523 26 36C26 35.4477 25.5523 35 25 35H15ZM41 22H39V37.3333L40 38.6667L41 37.3333V22ZM37 20H43V38L40 42L37 38V20Z" fill="#333333"/>
</svg>
