<svg width="48" height="48" viewBox="0 0 48 48" fill="none" xmlns="http://www.w3.org/2000/svg">
<path fill-rule="evenodd" clip-rule="evenodd" d="M12 9C12 7.34315 13.3431 6 15 6H23C24.6569 6 26 7.34315 26 9V11C26 12.6569 24.6569 14 23 14H15C13.3431 14 12 12.6569 12 11V9ZM15 8C14.4477 8 14 8.44772 14 9V11C14 11.5523 14.4477 12 15 12H23C23.5523 12 24 11.5523 24 11V9C24 8.44772 23.5523 8 23 8H15Z" fill="#333333"/>
<path fill-rule="evenodd" clip-rule="evenodd" d="M13 9H9C7.34315 9 6 10.3431 6 12V21H13.035L16.3333 15.4661L18.3328 22.8048L20.5104 20H25.768C26.3203 20 26.768 20.4477 26.768 21C26.768 21.5523 26.3203 22 25.768 22H21.4896L17.4561 27.1952L15.6411 20.5339L14.1713 23H6V39C6 40.6569 7.34315 42 9 42H29C30.6569 42 32 40.6569 32 39V12C32 10.3431 30.6569 9 29 9H25V11C25 12.1046 24.1046 13 23 13H15C13.8954 13 13 12.1046 13 11V9ZM11 30C11 29.4477 11.4477 29 12 29H26C26.5523 29 27 29.4477 27 30C27 30.5523 26.5523 31 26 31H12C11.4477 31 11 30.5523 11 30ZM12 34C11.4477 34 11 34.4477 11 35C11 35.5523 11.4477 36 12 36H26C26.5523 36 27 35.5523 27 35C27 34.4477 26.5523 34 26 34H12Z" fill="#333333"/>
<path fill-rule="evenodd" clip-rule="evenodd" d="M39 15C37.3431 15 36 16.3431 36 18V21H42V18C42 16.3431 40.6569 15 39 15ZM42 23H36V38L39 42L42 38V23Z" fill="#333333"/>
</svg>
