<svg width="48" height="48" viewBox="0 0 48 48" fill="none" xmlns="http://www.w3.org/2000/svg">
<path fill-rule="evenodd" clip-rule="evenodd" d="M27.9245 8C27.9245 10.2091 26.1337 12 23.9245 12C21.7154 12 19.9245 10.2091 19.9245 8C19.9245 5.79086 21.7154 4 23.9245 4C26.1337 4 27.9245 5.79086 27.9245 8ZM26.9935 17.5953C27.1024 17.7561 27.1943 17.9322 27.2655 18.1221C27.7503 19.4149 27.0953 20.8559 25.8025 21.3407L25.3487 21.5109L30.3979 23.4044C30.9605 23.6153 31.5946 23.4703 32.0095 23.0358C32.4244 22.6013 32.54 21.9612 32.3033 21.409L29.315 14.4363C29.2807 14.3518 29.2389 14.2711 29.1905 14.195C29.0824 14.0249 28.9426 13.8807 28.7811 13.7684C28.5289 13.5931 28.2239 13.4958 27.9052 13.5H19.9246C19.3245 13.5 18.7822 13.8576 18.5458 14.4091L15.5458 21.4091C15.3092 21.9613 15.4248 22.6014 15.8397 23.0359C16.2546 23.4704 16.8887 23.6154 17.4512 23.4045L25.4512 20.4045C26.2269 20.1136 26.6199 19.249 26.3291 18.4733C26.0382 17.6976 25.1736 17.3046 24.3979 17.5955L19.6871 19.3621L20.2324 18.0896L21.9726 17.437L21.9727 17.4369L24.0468 16.6591C24.1718 16.6123 24.2981 16.5761 24.4248 16.55L24.4249 16.5501C24.572 16.5199 24.7196 16.5034 24.8662 16.5H24.9822C25.7815 16.5187 26.5373 16.9226 26.9933 17.5952L26.9935 17.5953ZM18.9246 23.92V42C18.9246 42.8284 19.5961 43.5 20.4246 43.5C21.253 43.5 21.9246 42.8284 21.9246 42V30H25.9246V42C25.9246 42.8284 26.5961 43.5 27.4246 43.5C28.253 43.5 28.9246 42.8284 28.9246 42V23.8628L24.3291 21.8933L18.9246 23.92ZM14.9886 19.8139C13.6432 21.1593 13.6432 23.3406 14.9886 24.686L13.5744 26.1002C11.448 23.9738 11.448 20.5261 13.5744 18.3997L14.9886 19.8139ZM32.8606 24.686C34.206 23.3406 34.206 21.1593 32.8606 19.8139L34.2748 18.3997C36.4012 20.5261 36.4012 23.9738 34.2748 26.1002L32.8606 24.686ZM12.8818 17.7071C10.3727 20.2161 10.3727 24.284 12.8818 26.793L11.4675 28.2072C8.17749 24.9172 8.17749 19.5829 11.4675 16.2929L12.8818 17.7071ZM34.9675 26.793C37.4765 24.284 37.4765 20.2161 34.9675 17.7071L36.3817 16.2929C39.6718 19.5829 39.6718 24.9172 36.3817 28.2072L34.9675 26.793Z" fill="#333333"/>
</svg>
