<svg width="48" height="48" viewBox="0 0 48 48" fill="none" xmlns="http://www.w3.org/2000/svg">
<path fill-rule="evenodd" clip-rule="evenodd" d="M3 2H18C23.5228 2 28 6.47715 28 12H27H25H20V11C20 10.4477 19.5523 10 19 10H3V2ZM18 13H30V17H18V13ZM24 19C24 19 14 26 14 35C14 37.6522 15.0536 40.1957 16.9289 42.0711C18.8043 43.9464 21.3478 45 24 45C26.6522 45 29.1957 43.9464 31.0711 42.0711C32.9464 40.1957 34 37.6522 34 35C34 26 24 19 24 19ZM23 27C23.5523 27 24 26.5523 24 26C24 25.4477 23.5523 25 23 25C22.4477 25 22 25.4477 22 26C22 26.5523 22.4477 27 23 27ZM28 31C28.5523 31 29 30.5523 29 30C29 29.4477 28.5523 29 28 29C27.4477 29 27 29.4477 27 30C27 30.5523 27.4477 31 28 31ZM27 39C27 39.5523 26.5523 40 26 40C25.4477 40 25 39.5523 25 39C25 38.4477 25.4477 38 26 38C26.5523 38 27 38.4477 27 39ZM20 32C20 32.5523 20.4477 33 21 33C21.5523 33 22 32.5523 22 32C22 31.4477 22.4477 31 23 31C23.5523 31 24 30.5523 24 30C24 29.4477 23.5523 29 23 29C21.3431 29 20 30.3431 20 32ZM25.5165 34.3268C25.3736 33.7934 25.6902 33.245 26.2236 33.1021C27.824 32.6733 29.469 33.623 29.8979 35.2234C30.0408 35.7569 29.7242 36.3052 29.1907 36.4482C28.6573 36.5911 28.1089 36.2745 27.966 35.741C27.8231 35.2076 27.2747 34.891 26.7413 35.0339C26.2078 35.1769 25.6595 34.8603 25.5165 34.3268ZM22 39C22.5523 39 23 38.5523 23 38C23 37.4477 22.5523 37 22 37C21.4477 37 21 36.5523 21 36C21 35.4477 20.5523 35 20 35C19.4477 35 19 35.4477 19 36C19 37.6569 20.3431 39 22 39Z" fill="#333333"/>
</svg>
