<svg width="48" height="48" viewBox="0 0 48 48" fill="none" xmlns="http://www.w3.org/2000/svg">
<path fill-rule="evenodd" clip-rule="evenodd" d="M38.1808 14.0165C38.724 14.1164 39.0834 14.6377 38.9835 15.1808C37.5257 23.1093 34.0067 28.607 29.0476 32.1024C24.1117 35.5814 17.8585 37 11.0523 37H7C6.44772 37 6 36.5523 6 36C6 35.4477 6.44772 35 7 35H11.0523C17.6037 35 23.406 33.6319 27.8954 30.4676C32.3616 27.3197 35.6378 22.3173 37.0165 14.8192C37.1164 14.276 37.6377 13.9166 38.1808 14.0165Z" fill="#333333"/>
<path fill-rule="evenodd" clip-rule="evenodd" d="M38.6157 13.0294C38.893 13.0982 39.1276 13.2822 39.2604 13.5352L41.8854 18.5352C42.1421 19.0242 41.9538 19.6287 41.4648 19.8854C40.9758 20.1421 40.3713 19.9538 40.1146 19.4648L38.0126 15.461L34.5655 17.8247C34.11 18.1371 33.4876 18.021 33.1753 17.5655C32.8629 17.11 32.979 16.4876 33.4345 16.1753L37.8095 13.1753C38.0451 13.0137 38.3385 12.9606 38.6157 13.0294Z" fill="#333333"/>
<path fill-rule="evenodd" clip-rule="evenodd" d="M8 6V40H42V42H7C6.44772 42 6 41.5523 6 41V6H8Z" fill="#333333"/>
<path fill-rule="evenodd" clip-rule="evenodd" d="M14.6944 19.8459C14.6914 19.8399 14.6882 19.8329 14.6849 19.8248C14.6623 19.7707 14.6154 19.6272 14.6154 19.3476C14.6154 17.8638 13.9578 16.9175 13.6472 16.4705C13.5959 16.3966 13.554 16.3364 13.5262 16.2896C13.3526 15.9981 13 15.3589 13 13.243C13 11.5415 13.7561 10.3101 14.9761 9.4374C16.2554 8.52225 18.0739 8 20 8C21.9261 8 23.7446 8.52225 25.0239 9.4374C26.2439 10.3101 27 11.5415 27 13.243C27 15.3589 26.6474 15.9981 26.4738 16.2896C26.446 16.3364 26.4041 16.3966 26.3528 16.4705C26.0422 16.9175 25.3846 17.8638 25.3846 19.3476C25.3846 19.548 25.3431 19.641 25.3254 19.6752C25.3039 19.7168 25.2721 19.7559 25.2224 19.7958C25.1685 19.8392 25.1078 19.8716 25.0621 19.891C25.0598 19.892 25.0578 19.8929 25.0558 19.8937C24.6558 19.9932 24.3971 20.1892 24.3236 20.2452C24.1647 20.3664 24.0596 20.4847 24.0136 20.5384C23.9154 20.6532 23.8512 20.755 23.8285 20.7913C23.7731 20.8801 23.7324 20.9598 23.7126 20.9993C23.6662 21.092 23.6217 21.1923 23.5828 21.2847C23.5021 21.4764 23.4077 21.7243 23.3169 21.9999C23.2377 22.2402 23.1431 22.5546 23.0664 22.9038C22.2706 22.9969 21.1836 23 20 23C18.8542 23 17.7989 22.9971 17.0107 22.9125C16.9837 22.6761 16.947 22.438 16.8986 22.21C16.8347 21.9096 16.7214 21.4825 16.4964 21.0817C16.3246 20.7757 15.7743 19.9517 14.6944 19.8459ZM12.6154 19.3476C12.6154 21.3825 14 21.8347 14.4615 21.8347C14.9231 21.8347 15.0769 23.1912 15.0769 24.0956C15.0769 25 17.6923 25 20 25C22.3077 25 24.9231 25 24.9231 24.0956C24.9231 23.1912 25.5 21.8347 25.5385 21.8347C25.5769 21.8347 27.3846 21.3825 27.3846 19.3476C27.3846 18.5425 27.6375 18.1622 27.9431 17.7024C28.41 17.0001 29 16.1125 29 13.243C29 3.58566 11 3.58566 11 13.243C11 16.1125 11.59 17.0001 12.0569 17.7024C12.3625 18.1622 12.6154 18.5425 12.6154 19.3476Z" fill="#333333"/>
<path d="M19 16C19 17.1046 18.1046 18 17 18C15.8954 18 15 17.1046 15 16C15 14.8954 15.8954 14 17 14C18.1046 14 19 14.8954 19 16Z" fill="#333333"/>
<path d="M25.0695 16.1067C25.0705 17.2702 24.1281 18.2142 22.9645 18.2151C21.801 18.2161 20.857 17.2737 20.8561 16.1101C20.8551 14.9466 21.7976 14.0026 22.9611 14.0017C24.1246 14.0007 25.0686 14.9432 25.0695 16.1067Z" fill="#333333"/>
</svg>
