<svg width="48" height="48" viewBox="0 0 48 48" fill="none" xmlns="http://www.w3.org/2000/svg">
<path fill-rule="evenodd" clip-rule="evenodd" d="M38.1808 14.0165C38.724 14.1164 39.0834 14.6377 38.9835 15.1808C37.5257 23.1093 34.0067 28.607 29.0476 32.1024C24.1117 35.5814 17.8585 37 11.0523 37H7C6.44772 37 6 36.5523 6 36C6 35.4477 6.44772 35 7 35H11.0523C17.6037 35 23.406 33.6319 27.8954 30.4676C32.3616 27.3197 35.6378 22.3173 37.0165 14.8192C37.1164 14.276 37.6377 13.9166 38.1808 14.0165Z" fill="#333333"/>
<path fill-rule="evenodd" clip-rule="evenodd" d="M38.6157 13.0294C38.893 13.0982 39.1276 13.2822 39.2604 13.5352L41.8854 18.5352C42.1421 19.0242 41.9538 19.6287 41.4648 19.8854C40.9758 20.1421 40.3713 19.9538 40.1146 19.4648L38.0126 15.461L34.5655 17.8247C34.11 18.1371 33.4876 18.021 33.1753 17.5655C32.8629 17.11 32.979 16.4876 33.4345 16.1753L37.8095 13.1753C38.0451 13.0137 38.3385 12.9606 38.6157 13.0294Z" fill="#333333"/>
<path d="M27 13.8571C27 13.453 26.8395 13.0654 26.5537 12.7796C26.2679 12.4939 25.8803 12.3333 25.4762 12.3333H21.6667V8.52381C21.6667 8.11967 21.5061 7.73208 21.2204 7.44631C20.9346 7.16054 20.547 7 20.1429 7H17.8571C17.453 7 17.0654 7.16054 16.7796 7.44631C16.4939 7.73208 16.3333 8.11967 16.3333 8.52381V12.3333H12.5238C12.1197 12.3333 11.7321 12.4939 11.4463 12.7796C11.1605 13.0654 11 13.453 11 13.8571V16.1429C11 16.547 11.1605 16.9346 11.4463 17.2204C11.7321 17.5061 12.1197 17.6667 12.5238 17.6667H16.3333V21.4762C16.3333 21.8803 16.4939 22.2679 16.7796 22.5537C17.0654 22.8395 17.453 23 17.8571 23H20.1429C20.547 23 20.9346 22.8395 21.2204 22.5537C21.5061 22.2679 21.6667 21.8803 21.6667 21.4762V17.6667H25.4762C25.8803 17.6667 26.2679 17.5061 26.5537 17.2204C26.8395 16.9346 27 16.547 27 16.1429V13.8571Z" fill="#333333"/>
<path fill-rule="evenodd" clip-rule="evenodd" d="M8 6V40H42V42H7C6.44772 42 6 41.5523 6 41V6H8Z" fill="#333333"/>
</svg>
