<svg width="48" height="48" viewBox="0 0 48 48" fill="none" xmlns="http://www.w3.org/2000/svg">
<path fill-rule="evenodd" clip-rule="evenodd" d="M14.6944 19.8459C14.6914 19.8399 14.6882 19.8329 14.6849 19.8248C14.6623 19.7707 14.6154 19.6272 14.6154 19.3476C14.6154 17.8638 13.9578 16.9175 13.6472 16.4705C13.5959 16.3966 13.554 16.3364 13.5262 16.2896C13.3526 15.9981 13 15.3589 13 13.243C13 11.5415 13.7561 10.3101 14.9761 9.4374C16.2554 8.52225 18.0739 8 20 8C21.9261 8 23.7446 8.52225 25.0239 9.4374C26.2439 10.3101 27 11.5415 27 13.243C27 15.3589 26.6474 15.9981 26.4738 16.2896C26.446 16.3364 26.4041 16.3966 26.3528 16.4705C26.0422 16.9175 25.3846 17.8638 25.3846 19.3476C25.3846 19.548 25.3431 19.641 25.3254 19.6752C25.3039 19.7168 25.2721 19.7559 25.2224 19.7958C25.1685 19.8392 25.1078 19.8716 25.0621 19.891C25.0598 19.892 25.0578 19.8929 25.0558 19.8937C24.6558 19.9932 24.3971 20.1892 24.3236 20.2452C24.1647 20.3664 24.0596 20.4847 24.0136 20.5384C23.9154 20.6532 23.8512 20.755 23.8285 20.7913C23.7731 20.8801 23.7324 20.9598 23.7126 20.9993C23.6662 21.092 23.6217 21.1923 23.5828 21.2847C23.5021 21.4764 23.4077 21.7243 23.3169 21.9999C23.2377 22.2402 23.1431 22.5546 23.0664 22.9038C22.2706 22.9969 21.1836 23 20 23C18.8542 23 17.7989 22.9971 17.0107 22.9125C16.9837 22.6761 16.947 22.438 16.8986 22.21C16.8347 21.9096 16.7214 21.4825 16.4964 21.0817C16.3246 20.7757 15.7743 19.9517 14.6944 19.8459ZM12.6154 19.3476C12.6154 21.3825 14 21.8347 14.4615 21.8347C14.9231 21.8347 15.0769 23.1912 15.0769 24.0956C15.0769 25 17.6923 25 20 25C22.3077 25 24.9231 25 24.9231 24.0956C24.9231 23.1912 25.5 21.8347 25.5385 21.8347C25.5769 21.8347 27.3846 21.3825 27.3846 19.3476C27.3846 18.5425 27.6375 18.1622 27.9431 17.7024C28.41 17.0001 29 16.1125 29 13.243C29 3.58566 11 3.58566 11 13.243C11 16.1125 11.59 17.0001 12.0569 17.7024C12.3625 18.1622 12.6154 18.5425 12.6154 19.3476Z" fill="#333333"/>
<path d="M19 16C19 17.1046 18.1046 18 17 18C15.8954 18 15 17.1046 15 16C15 14.8954 15.8954 14 17 14C18.1046 14 19 14.8954 19 16Z" fill="#333333"/>
<path d="M25.0695 16.1067C25.0705 17.2702 24.1281 18.2142 22.9645 18.2151C21.801 18.2161 20.857 17.2737 20.8561 16.1101C20.8551 14.9466 21.7976 14.0026 22.9611 14.0017C24.1246 14.0007 25.0686 14.9432 25.0695 16.1067Z" fill="#333333"/>
<path fill-rule="evenodd" clip-rule="evenodd" d="M22.9198 31C21.5241 31 20.1554 31.2147 18.9251 31.6207L15.2528 32.8277C12.9159 33.598 10.3507 33.9958 7.75813 33.996H7C6.44772 33.996 6 33.5483 6 32.996C6 32.4437 6.44772 31.996 7 31.996H7.75797C10.1512 31.9958 12.5038 31.628 14.6268 30.9283L18.2985 29.7213C19.743 29.2448 21.3246 29 22.9198 29C24.5151 29 26.0963 29.2447 27.541 29.7213M27.541 29.7213L31.2128 30.9323C33.3353 31.6318 35.6874 31.9996 38.08 32H41C41.5523 32 42 32.4477 42 33C42 33.5523 41.5523 34 41 34H38.08C35.4878 33.9996 32.9233 33.6019 30.5867 32.8317L26.9146 31.6207C25.6842 31.2148 24.3154 31 22.9198 31" fill="#333333"/>
<path fill-rule="evenodd" clip-rule="evenodd" d="M36.293 27.5105C36.6836 27.1201 37.3168 27.1202 37.7073 27.5108L42.4873 32.2928C42.8776 32.6833 42.8776 33.3162 42.4873 33.7067L37.7073 38.4887C37.3168 38.8793 36.6836 38.8795 36.293 38.489C35.9024 38.0986 35.9023 37.4654 36.2927 37.0748L40.3661 32.9998L36.2927 28.9247C35.9023 28.5341 35.9024 27.901 36.293 27.5105Z" fill="#333333"/>
<path fill-rule="evenodd" clip-rule="evenodd" d="M8 6V40H42V42H7C6.44772 42 6 41.5523 6 41V6H8Z" fill="#333333"/>
</svg>
