<svg width="48" height="48" viewBox="0 0 48 48" fill="none" xmlns="http://www.w3.org/2000/svg">
<path fill-rule="evenodd" clip-rule="evenodd" d="M33.5 5.15771C33.2239 5.15771 33 5.38157 33 5.65771V6.99994H34V5.65771C34 5.38157 33.7761 5.15771 33.5 5.15771ZM34 8.99994H33V10.4998V10.9993L32.6006 11.2993C32.234 11.5747 32 12.0098 32 12.4999C32 13.3284 32.6716 13.9999 33.5 13.9999C34.3284 13.9999 35 13.3284 35 12.4999C35 12.0098 34.766 11.5747 34.3994 11.2993L34 10.9993V10.4998V8.99994ZM31 5.65771C31 4.277 32.1193 3.15771 33.5 3.15771C34.8807 3.15771 36 4.277 36 5.65771V10.0505C36.6175 10.681 37 11.5459 37 12.4999C37 14.4329 35.433 15.9999 33.5 15.9999C31.567 15.9999 30 14.4329 30 12.4999C30 11.5459 30.3825 10.681 31 10.0505V5.65771ZM27.9246 7.99994C27.9246 10.2091 26.1337 11.9999 23.9245 11.9999C21.7154 11.9999 19.9245 10.2091 19.9245 7.99994C19.9245 5.7908 21.7154 3.99994 23.9245 3.99994C26.1337 3.99994 27.9246 5.7908 27.9246 7.99994ZM26.9935 17.5952C27.1024 17.756 27.1943 17.9322 27.2655 18.1221C27.7503 19.4149 27.0953 20.8559 25.8025 21.3407L25.3487 21.5109L30.3979 23.4043C30.9605 23.6153 31.5946 23.4702 32.0095 23.0358C32.4244 22.6013 32.54 21.9611 32.3033 21.409L29.315 14.4363C29.2807 14.3517 29.2389 14.271 29.1905 14.195C29.0824 14.0249 28.9426 13.8806 28.7811 13.7684C28.5289 13.593 28.2239 13.4957 27.9052 13.4999H19.9246C19.3245 13.4999 18.7822 13.8575 18.5458 14.4091L15.5458 21.4091C15.3092 21.9612 15.4248 22.6014 15.8397 23.0359C16.2546 23.4703 16.8887 23.6154 17.4512 23.4044L25.4512 20.4044C26.2269 20.1136 26.6199 19.2489 26.3291 18.4733C26.0382 17.6976 25.1736 17.3046 24.3979 17.5954L19.6871 19.362L20.2324 18.0895L21.9726 17.4369L21.9727 17.4369L24.0468 16.659C24.1718 16.6122 24.2981 16.576 24.4248 16.55L24.4249 16.55C24.572 16.5198 24.7196 16.5034 24.8662 16.4999H24.9822C25.7815 16.5186 26.5373 16.9225 26.9933 17.5952L26.9935 17.5952ZM18.9246 23.9199V41.9999C18.9246 42.8284 19.5961 43.4999 20.4246 43.4999C21.253 43.4999 21.9246 42.8284 21.9246 41.9999V29.9999H25.9246V41.9999C25.9246 42.8284 26.5961 43.4999 27.4246 43.4999C28.253 43.4999 28.9246 42.8284 28.9246 41.9999V23.8627L24.3291 21.8932L18.9246 23.9199ZM14.9886 19.8138C13.6432 21.1592 13.6432 23.3405 14.9886 24.6859L13.5744 26.1001C11.448 23.9737 11.448 20.5261 13.5744 18.3996L14.9886 19.8138ZM32.8606 24.6859C34.206 23.3405 34.206 21.1592 32.8606 19.8138L34.2748 18.3996C36.4012 20.5261 36.4012 23.9737 34.2748 26.1001L32.8606 24.6859ZM12.8818 17.707C10.3728 20.216 10.3727 24.2839 12.8818 26.7929L11.4675 28.2072C8.17749 24.9171 8.17749 19.5829 11.4675 16.2928L12.8818 17.707ZM34.9675 26.7929C37.4765 24.2839 37.4765 20.216 34.9675 17.707L36.3817 16.2928C39.6718 19.5829 39.6718 24.9171 36.3817 28.2072L34.9675 26.7929Z" fill="#333333"/>
</svg>
