<svg width="48" height="48" viewBox="0 0 48 48" fill="none" xmlns="http://www.w3.org/2000/svg">
<path fill-rule="evenodd" clip-rule="evenodd" d="M37.2643 25.9548L37.0987 25.6016C36.3843 24.0782 36.1756 22.4641 36.1122 21.0322C36.0803 20.3106 36.0845 19.5974 36.0916 18.9418C36.0925 18.8516 36.0936 18.7629 36.0946 18.6753C36.1011 18.1095 36.107 17.5956 36.0955 17.1007C36.0465 15.151 35.4329 13.2527 34.3229 11.6276C33.0588 10.059 31.4072 8.82589 29.5194 8.04746L29.4866 8.03392L29.4542 8.01923C26.899 6.85779 24.1142 6.25813 21.2954 6.26358L21.2932 6.26358C17.746 6.26649 14.3526 7.65263 11.8576 10.1055C9.3638 12.5571 7.97141 15.8725 7.97424 19.3202C7.97591 21.3645 8.57077 23.6957 9.60426 25.8524C10.6401 28.0142 12.0435 29.8488 13.521 30.9854L14.3007 31.5852L14.308 40.5007C14.6332 40.9027 15.2647 41.3989 16.2116 41.829C17.3705 42.3553 18.5351 42.568 19.2091 42.5124L19.2903 42.5057L19.3718 42.5056C21.3281 42.504 22.2431 41.9505 22.6368 41.6139C22.7795 41.4919 22.8787 41.3771 22.9452 41.2867L22.9407 35.7513L25.4382 36.3947L25.4394 36.395L25.4404 36.3952L25.4417 36.3956L25.4538 36.3985C25.4693 36.4023 25.496 36.4087 25.533 36.4173C25.6072 36.4344 25.7227 36.46 25.8735 36.4901C26.1759 36.5505 26.6158 36.6283 27.1462 36.6933C28.2229 36.8253 29.5963 36.8947 30.9224 36.6991C32.2598 36.5018 33.3742 36.0618 34.1402 35.3276C34.8536 34.6438 35.4812 33.4989 35.4795 31.4027L35.4781 29.6928L37.1593 29.4268L37.1606 29.4266L37.1687 29.4252C37.1747 29.4242 37.1833 29.4226 37.1943 29.4205C37.2053 29.4185 37.2187 29.4159 37.2343 29.4128C37.2975 29.4003 37.3955 29.3796 37.5169 29.3493C37.7658 29.2873 38.0837 29.1926 38.3936 29.0617C38.7153 28.9256 38.9468 28.7844 39.0832 28.664C39.1107 28.6398 39.13 28.6204 39.1432 28.6059C39.1383 28.5522 39.1196 28.4422 39.0496 28.2643C38.9401 27.9861 38.7532 27.6646 38.5139 27.3322C38.28 27.0072 38.0312 26.7203 37.8375 26.5124C37.7421 26.41 37.6637 26.3306 37.6119 26.2795C37.5988 26.2665 37.5875 26.2554 37.5781 26.2463C37.5691 26.2376 37.5619 26.2306 37.5566 26.2256L37.5484 26.2178L37.5473 26.2168L37.2643 25.9548ZM24.9428 38.3323C24.9428 38.3323 25.7448 38.5389 26.9431 38.6833C30.4841 39.1101 37.4857 38.9942 37.4795 31.401C37.4795 31.401 40.7819 30.8786 41.1148 28.9907C41.4478 27.1029 38.9095 24.7524 38.9095 24.7524C38.0455 22.91 38.0707 20.7396 38.0944 18.7021C38.101 18.1388 38.1074 17.5856 38.0949 17.0524C38.0359 14.6879 37.284 12.3901 35.9294 10.434C34.4462 8.5721 32.5019 7.11394 30.2818 6.19849C27.4646 4.91797 24.3962 4.25758 21.2915 4.26358C17.2259 4.26691 13.328 5.85528 10.4555 8.67925C7.58291 11.5032 5.97097 15.3315 5.97424 19.3219C5.97817 24.1228 8.73162 29.8243 12.3015 32.5706L12.3084 41.0646C13.3225 43.187 17.1425 44.6896 19.3734 44.5056C24.1117 44.5018 24.9456 41.7655 24.9456 41.7655L24.9428 38.3323Z" fill="#333333"/>
<path fill-rule="evenodd" clip-rule="evenodd" d="M26.6982 20.4936C27.1876 20.4932 27.2688 20.4022 27.4245 20.2277C27.5147 20.1266 27.6299 19.9974 27.864 19.8417C28.5124 20.2645 29.2775 20.4858 30.0581 20.4763L32.5367 19.5962C33.2349 19.0352 33.7139 18.2578 33.8936 17.3941C34.0732 16.5305 33.9426 15.633 33.5235 14.8519C33.1045 14.0709 32.4225 13.4535 31.5916 13.1033C31.4013 12.2675 30.923 11.5201 30.2361 10.9853L27.8152 10.163L27.5427 10.1632C27.0037 9.39929 26.1951 8.8547 25.2705 8.63301L21.0814 8.35255C20.2189 8.423 19.4059 8.77376 18.7731 9.34839C18.4739 9.27998 18.1676 9.24465 17.8602 9.24307C17.1159 9.24516 16.3881 9.45687 15.7646 9.85263C15.1412 10.2484 14.6488 10.8113 14.3469 11.4734L12.3764 12.8341C11.8864 13.4814 11.6229 14.2647 11.6249 15.0687C11.6203 15.4048 11.6665 15.7398 11.7619 16.0629C11.2452 16.7166 10.9677 17.5194 10.9736 18.3441C10.9731 19.3005 11.3493 20.2206 12.0248 20.9153C12.0798 21.6 12.3262 22.257 12.7373 22.8152C13.1484 23.3734 13.7086 23.8115 14.3572 24.0822C15.1046 24.5374 15.7377 25.1498 16.2099 25.8745C16.6821 26.5992 16.8774 27.4177 16.9816 28.2698L21.0977 28.2664L21.0944 24.2888C21.0929 23.5826 21.2948 22.8901 21.6772 22.2898C21.7352 22.1988 21.7894 22.1104 21.8418 22.0249L21.8418 22.0248C22.1347 21.5467 22.3726 21.1584 22.9245 20.8932C23.5343 20.6655 24.0835 20.307 24.5313 19.8444C25.1701 20.268 25.9252 20.4943 26.6982 20.4936ZM13.9752 20.3584L21.9741 19.1057L16.782 13.3561L13.9752 20.3584ZM22.4697 15.6823L24.8379 11.282L29.3211 13.6061L26.953 18.0064L22.4697 15.6823Z" fill="#333333"/>
<path d="M33.978 23.842C33.9787 24.6705 33.3077 25.3426 32.4793 25.3433C31.6508 25.3439 30.9787 24.6729 30.978 23.8445C30.9774 23.0161 31.6484 22.3439 32.4768 22.3433C33.3052 22.3426 33.9774 23.0136 33.978 23.842Z" fill="#333333"/>
<path fill-rule="evenodd" clip-rule="evenodd" d="M20.985 32.3527L16.985 32.356L16.9834 30.356L20.9834 30.3527L20.985 32.3527Z" fill="#333333"/>
<path fill-rule="evenodd" clip-rule="evenodd" d="M20.9882 36.3527L16.9882 36.356L16.9866 34.356L20.9866 34.3527L20.9882 36.3527Z" fill="#333333"/>
<path fill-rule="evenodd" clip-rule="evenodd" d="M20.9914 40.3527L16.9914 40.356L16.9897 38.356L20.9897 38.3527L20.9914 40.3527Z" fill="#333333"/>
</svg>
