<svg width="48" height="48" viewBox="0 0 48 48" fill="none" xmlns="http://www.w3.org/2000/svg">
<path d="M20.5 20.6C23.3167 20.6 25.6 18.3167 25.6 15.5C25.6 12.6833 23.3167 10.4 20.5 10.4C17.6833 10.4 15.4 12.6833 15.4 15.5C15.4 18.3167 17.6833 20.6 20.5 20.6Z" fill="#333333"/>
<path fill-rule="evenodd" clip-rule="evenodd" d="M20.5 11.4C18.2356 11.4 16.4 13.2356 16.4 15.5C16.4 17.7644 18.2356 19.6 20.5 19.6C22.7644 19.6 24.6 17.7644 24.6 15.5C24.6 13.2356 22.7644 11.4 20.5 11.4ZM14.4 15.5C14.4 12.1311 17.1311 9.4 20.5 9.4C23.8689 9.4 26.6 12.1311 26.6 15.5C26.6 18.8689 23.8689 21.6 20.5 21.6C17.1311 21.6 14.4 18.8689 14.4 15.5Z" fill="#333333"/>
<path fill-rule="evenodd" clip-rule="evenodd" d="M18.65 7C18.65 6.44772 19.0977 6 19.65 6H21.35C21.9023 6 22.35 6.44772 22.35 7C22.35 7.55228 21.9023 8 21.35 8H19.65C19.0977 8 18.65 7.55228 18.65 7Z" fill="#333333"/>
<path fill-rule="evenodd" clip-rule="evenodd" d="M19.5 11.25V7.85H21.5V11.25H19.5Z" fill="#333333"/>
<path fill-rule="evenodd" clip-rule="evenodd" d="M24.8929 7.99289C25.2834 7.60237 25.9166 7.60237 26.3071 7.99289L28.0071 9.69289C28.3976 10.0834 28.3976 10.7166 28.0071 11.1071C27.6166 11.4976 26.9834 11.4976 26.5929 11.1071L24.8929 9.40711C24.5024 9.01658 24.5024 8.38342 24.8929 7.99289Z" fill="#333333"/>
<path fill-rule="evenodd" clip-rule="evenodd" d="M23.1929 11.3929L25.7429 8.84289L27.1571 10.2571L24.6071 12.8071L23.1929 11.3929Z" fill="#333333"/>
<path fill-rule="evenodd" clip-rule="evenodd" d="M29 13.65C29.5523 13.65 30 14.0977 30 14.65V16.35C30 16.9023 29.5523 17.35 29 17.35C28.4477 17.35 28 16.9023 28 16.35V14.65C28 14.0977 28.4477 13.65 29 13.65Z" fill="#333333"/>
<path fill-rule="evenodd" clip-rule="evenodd" d="M24.6 15.5C24.6 14.9477 25.0477 14.5 25.6 14.5H29C29.5523 14.5 30 14.9477 30 15.5C30 16.0523 29.5523 16.5 29 16.5H25.6C25.0477 16.5 24.6 16.0523 24.6 15.5Z" fill="#333333"/>
<path fill-rule="evenodd" clip-rule="evenodd" d="M28.8571 19.8929C29.2476 20.2834 29.2476 20.9166 28.8571 21.3071L27.1571 23.0071C26.7666 23.3976 26.1334 23.3976 25.7429 23.0071C25.3524 22.6166 25.3524 21.9834 25.7429 21.5929L27.4429 19.8929C27.8334 19.5024 28.4666 19.5024 28.8571 19.8929Z" fill="#333333"/>
<path fill-rule="evenodd" clip-rule="evenodd" d="M25.4571 18.1929L28.0071 20.7429L26.5929 22.1571L24.0429 19.6071L25.4571 18.1929Z" fill="#333333"/>
<path fill-rule="evenodd" clip-rule="evenodd" d="M18.65 24C18.65 23.4477 19.0977 23 19.65 23H21.35C21.9023 23 22.35 23.4477 22.35 24C22.35 24.5523 21.9023 25 21.35 25H19.65C19.0977 25 18.65 24.5523 18.65 24Z" fill="#333333"/>
<path fill-rule="evenodd" clip-rule="evenodd" d="M20.5 19.6C21.0523 19.6 21.5 20.0477 21.5 20.6V24C21.5 24.5523 21.0523 25 20.5 25C19.9477 25 19.5 24.5523 19.5 24V20.6C19.5 20.0477 19.9477 19.6 20.5 19.6Z" fill="#333333"/>
<path fill-rule="evenodd" clip-rule="evenodd" d="M12.9929 19.8929C13.3834 19.5024 14.0166 19.5024 14.4071 19.8929L16.1071 21.5929C16.4976 21.9834 16.4976 22.6166 16.1071 23.0071C15.7166 23.3976 15.0834 23.3976 14.6929 23.0071L12.9929 21.3071C12.6024 20.9166 12.6024 20.2834 12.9929 19.8929Z" fill="#333333"/>
<path fill-rule="evenodd" clip-rule="evenodd" d="M17.8071 19.6071L15.2571 22.1571L13.8429 20.7429L16.3929 18.1929L17.8071 19.6071Z" fill="#333333"/>
<path fill-rule="evenodd" clip-rule="evenodd" d="M12 13.65C12.5523 13.65 13 14.0977 13 14.65V16.35C13 16.9023 12.5523 17.35 12 17.35C11.4477 17.35 11 16.9023 11 16.35V14.65C11 14.0977 11.4477 13.65 12 13.65Z" fill="#333333"/>
<path fill-rule="evenodd" clip-rule="evenodd" d="M11 15.5C11 14.9477 11.4477 14.5 12 14.5H15.4C15.9523 14.5 16.4 14.9477 16.4 15.5C16.4 16.0523 15.9523 16.5 15.4 16.5H12C11.4477 16.5 11 16.0523 11 15.5Z" fill="#333333"/>
<path fill-rule="evenodd" clip-rule="evenodd" d="M16.1071 7.99289C16.4976 8.38342 16.4976 9.01658 16.1071 9.40711L14.4071 11.1071C14.0166 11.4976 13.3834 11.4976 12.9929 11.1071C12.6024 10.7166 12.6024 10.0834 12.9929 9.69289L14.6929 7.99289C15.0834 7.60237 15.7166 7.60237 16.1071 7.99289Z" fill="#333333"/>
<path fill-rule="evenodd" clip-rule="evenodd" d="M16.3929 12.8071L13.8429 10.2571L15.2571 8.84289L17.8071 11.3929L16.3929 12.8071Z" fill="#333333"/>
<path fill-rule="evenodd" clip-rule="evenodd" d="M22.9198 31C21.5241 31 20.1554 31.2147 18.9251 31.6207L15.2528 32.8277C12.9159 33.598 10.3507 33.9958 7.75813 33.996H7C6.44772 33.996 6 33.5483 6 32.996C6 32.4437 6.44772 31.996 7 31.996H7.75797C10.1512 31.9958 12.5038 31.628 14.6268 30.9283L18.2985 29.7213C19.743 29.2448 21.3246 29 22.9198 29C24.5151 29 26.0963 29.2447 27.541 29.7213M27.541 29.7213L31.2128 30.9323C33.3353 31.6318 35.6874 31.9996 38.08 32H41C41.5523 32 42 32.4477 42 33C42 33.5523 41.5523 34 41 34H38.08C35.4878 33.9996 32.9233 33.6019 30.5867 32.8317L26.9146 31.6207C25.6842 31.2148 24.3154 31 22.9198 31" fill="#333333"/>
<path fill-rule="evenodd" clip-rule="evenodd" d="M36.293 27.5105C36.6836 27.1201 37.3168 27.1202 37.7073 27.5108L42.4873 32.2928C42.8776 32.6833 42.8776 33.3162 42.4873 33.7067L37.7073 38.4887C37.3168 38.8793 36.6836 38.8795 36.293 38.489C35.9024 38.0986 35.9023 37.4654 36.2927 37.0748L40.3661 32.9998L36.2927 28.9247C35.9023 28.5341 35.9024 27.901 36.293 27.5105Z" fill="#333333"/>
<path fill-rule="evenodd" clip-rule="evenodd" d="M8 6V40H42V42H7C6.44772 42 6 41.5523 6 41V6H8Z" fill="#333333"/>
</svg>
