<svg width="48" height="48" viewBox="0 0 48 48" fill="none" xmlns="http://www.w3.org/2000/svg">
<path d="M32.5 20.6C35.3167 20.6 37.6 18.3167 37.6 15.5C37.6 12.6833 35.3167 10.4 32.5 10.4C29.6833 10.4 27.4 12.6833 27.4 15.5C27.4 18.3167 29.6833 20.6 32.5 20.6Z" fill="#333333"/>
<path fill-rule="evenodd" clip-rule="evenodd" d="M32.5 11.4C30.2356 11.4 28.4 13.2356 28.4 15.5C28.4 17.7644 30.2356 19.6 32.5 19.6C34.7644 19.6 36.6 17.7644 36.6 15.5C36.6 13.2356 34.7644 11.4 32.5 11.4ZM26.4 15.5C26.4 12.1311 29.1311 9.4 32.5 9.4C35.8689 9.4 38.6 12.1311 38.6 15.5C38.6 18.8689 35.8689 21.6 32.5 21.6C29.1311 21.6 26.4 18.8689 26.4 15.5Z" fill="#333333"/>
<path fill-rule="evenodd" clip-rule="evenodd" d="M30.65 7C30.65 6.44772 31.0977 6 31.65 6H33.35C33.9023 6 34.35 6.44772 34.35 7C34.35 7.55228 33.9023 8 33.35 8H31.65C31.0977 8 30.65 7.55228 30.65 7Z" fill="#333333"/>
<path fill-rule="evenodd" clip-rule="evenodd" d="M31.5 11.25V7.85H33.5V11.25H31.5Z" fill="#333333"/>
<path fill-rule="evenodd" clip-rule="evenodd" d="M36.8929 7.99289C37.2834 7.60237 37.9166 7.60237 38.3071 7.99289L40.0071 9.69289C40.3976 10.0834 40.3976 10.7166 40.0071 11.1071C39.6166 11.4976 38.9834 11.4976 38.5929 11.1071L36.8929 9.40711C36.5024 9.01658 36.5024 8.38342 36.8929 7.99289Z" fill="#333333"/>
<path fill-rule="evenodd" clip-rule="evenodd" d="M35.1929 11.3929L37.7429 8.84289L39.1571 10.2571L36.6071 12.8071L35.1929 11.3929Z" fill="#333333"/>
<path fill-rule="evenodd" clip-rule="evenodd" d="M41 13.65C41.5523 13.65 42 14.0977 42 14.65V16.35C42 16.9023 41.5523 17.35 41 17.35C40.4477 17.35 40 16.9023 40 16.35V14.65C40 14.0977 40.4477 13.65 41 13.65Z" fill="#333333"/>
<path fill-rule="evenodd" clip-rule="evenodd" d="M36.6 15.5C36.6 14.9477 37.0477 14.5 37.6 14.5H41C41.5523 14.5 42 14.9477 42 15.5C42 16.0523 41.5523 16.5 41 16.5H37.6C37.0477 16.5 36.6 16.0523 36.6 15.5Z" fill="#333333"/>
<path fill-rule="evenodd" clip-rule="evenodd" d="M40.8571 19.8929C41.2476 20.2834 41.2476 20.9166 40.8571 21.3071L39.1571 23.0071C38.7666 23.3976 38.1334 23.3976 37.7429 23.0071C37.3524 22.6166 37.3524 21.9834 37.7429 21.5929L39.4429 19.8929C39.8334 19.5024 40.4666 19.5024 40.8571 19.8929Z" fill="#333333"/>
<path fill-rule="evenodd" clip-rule="evenodd" d="M37.4571 18.1929L40.0071 20.7429L38.5929 22.1571L36.0429 19.6071L37.4571 18.1929Z" fill="#333333"/>
<path fill-rule="evenodd" clip-rule="evenodd" d="M30.65 24C30.65 23.4477 31.0977 23 31.65 23H33.35C33.9023 23 34.35 23.4477 34.35 24C34.35 24.5523 33.9023 25 33.35 25H31.65C31.0977 25 30.65 24.5523 30.65 24Z" fill="#333333"/>
<path fill-rule="evenodd" clip-rule="evenodd" d="M32.5 19.6C33.0523 19.6 33.5 20.0477 33.5 20.6V24C33.5 24.5523 33.0523 25 32.5 25C31.9477 25 31.5 24.5523 31.5 24V20.6C31.5 20.0477 31.9477 19.6 32.5 19.6Z" fill="#333333"/>
<path fill-rule="evenodd" clip-rule="evenodd" d="M24.9929 19.8929C25.3834 19.5024 26.0166 19.5024 26.4071 19.8929L28.1071 21.5929C28.4976 21.9834 28.4976 22.6166 28.1071 23.0071C27.7166 23.3976 27.0834 23.3976 26.6929 23.0071L24.9929 21.3071C24.6024 20.9166 24.6024 20.2834 24.9929 19.8929Z" fill="#333333"/>
<path fill-rule="evenodd" clip-rule="evenodd" d="M29.8071 19.6071L27.2571 22.1571L25.8429 20.7429L28.3929 18.1929L29.8071 19.6071Z" fill="#333333"/>
<path fill-rule="evenodd" clip-rule="evenodd" d="M24 13.65C24.5523 13.65 25 14.0977 25 14.65V16.35C25 16.9023 24.5523 17.35 24 17.35C23.4477 17.35 23 16.9023 23 16.35V14.65C23 14.0977 23.4477 13.65 24 13.65Z" fill="#333333"/>
<path fill-rule="evenodd" clip-rule="evenodd" d="M23 15.5C23 14.9477 23.4477 14.5 24 14.5H27.4C27.9523 14.5 28.4 14.9477 28.4 15.5C28.4 16.0523 27.9523 16.5 27.4 16.5H24C23.4477 16.5 23 16.0523 23 15.5Z" fill="#333333"/>
<path fill-rule="evenodd" clip-rule="evenodd" d="M28.1071 7.99289C28.4976 8.38342 28.4976 9.01658 28.1071 9.40711L26.4071 11.1071C26.0166 11.4976 25.3834 11.4976 24.9929 11.1071C24.6024 10.7166 24.6024 10.0834 24.9929 9.69289L26.6929 7.99289C27.0834 7.60237 27.7166 7.60237 28.1071 7.99289Z" fill="#333333"/>
<path fill-rule="evenodd" clip-rule="evenodd" d="M28.3929 12.8071L25.8429 10.2571L27.2571 8.84289L29.8071 11.3929L28.3929 12.8071Z" fill="#333333"/>
<path fill-rule="evenodd" clip-rule="evenodd" d="M8 6V40H42V42H7C6.44772 42 6 41.5523 6 41V6H8Z" fill="#333333"/>
<path fill-rule="evenodd" clip-rule="evenodd" d="M6 17C6 16.4477 6.44772 16 7 16H8.87115C11.3026 16 13.6843 16.7409 15.8282 18.1398C17.9693 19.5368 19.8121 21.5492 21.2308 23.9988C22.5133 26.2137 24.1496 27.981 25.9954 29.1854C27.8383 30.3879 29.844 31.0001 31.8596 31H39.5C40.0523 31 40.5 31.4477 40.5 32C40.5 32.5523 40.0523 33 39.5 33H31.8597C29.4283 33.0002 27.0465 32.2593 24.9025 30.8604C22.7615 29.4633 20.9186 27.4509 19.5 25.0011C18.2174 22.7864 16.5811 21.0192 14.7353 19.8148C12.8924 18.6123 10.8868 18 8.87117 18H7C6.44772 18 6 17.5523 6 17Z" fill="#333333"/>
<path fill-rule="evenodd" clip-rule="evenodd" d="M35.293 26.5105C35.6836 26.1201 36.3168 26.1202 36.7073 26.5108L41.4873 31.2928C41.8776 31.6833 41.8776 32.3162 41.4873 32.7067L36.7073 37.4887C36.3168 37.8793 35.6836 37.8795 35.293 37.489C34.9024 37.0986 34.9023 36.4654 35.2927 36.0748L39.3661 31.9998L35.2927 27.9247C34.9023 27.5341 34.9024 26.901 35.293 26.5105Z" fill="#333333"/>
</svg>
