<svg width="48" height="48" viewBox="0 0 48 48" fill="none" xmlns="http://www.w3.org/2000/svg">
<path fill-rule="evenodd" clip-rule="evenodd" d="M37.2645 25.9546L37.0988 25.6014C36.3844 24.0781 36.1757 22.464 36.1123 21.032C36.0804 20.3105 36.0846 19.5972 36.0917 18.9416C36.0927 18.8515 36.0937 18.7627 36.0947 18.6752C36.1012 18.1094 36.1072 17.5955 36.0956 17.1005C36.0466 15.1509 35.433 13.2526 34.3231 11.6275C33.0589 10.0588 31.4073 8.82576 29.5195 8.04734L29.4867 8.0338L29.4544 8.0191C26.8991 6.85767 24.1144 6.25801 21.2955 6.26346L21.2933 6.26346C17.7461 6.26636 14.3527 7.65251 11.8577 10.1053C9.36392 12.5569 7.97153 15.8723 7.97436 19.3201C7.97603 21.3644 8.57089 23.6956 9.60438 25.8523C10.6403 28.0141 12.0437 29.8487 13.5211 30.9853L14.3008 31.5851L14.3081 40.5006C14.6333 40.9026 15.2648 41.3988 16.2118 41.8289C17.3706 42.3552 18.5353 42.5679 19.2092 42.5123L19.2904 42.5056L19.3719 42.5055C21.3282 42.5039 22.2432 41.9503 22.6369 41.6138C22.7796 41.4918 22.8788 41.377 22.9453 41.2866L22.9408 35.7512L25.4383 36.3945L25.4395 36.3948L25.4405 36.3951L25.4418 36.3954L25.4539 36.3984C25.4694 36.4022 25.4961 36.4086 25.5332 36.4172C25.6074 36.4343 25.7229 36.4598 25.8737 36.4899C26.176 36.5503 26.616 36.6282 27.1463 36.6932C28.223 36.8252 29.5965 36.8946 30.9225 36.699C32.2599 36.5017 33.3743 36.0617 34.1403 35.3275C34.8538 34.6436 35.4814 33.4988 35.4796 31.4025L35.4782 29.6927L37.1594 29.4267L37.1607 29.4265L37.1689 29.4251C37.1748 29.424 37.1834 29.4225 37.1945 29.4204C37.2054 29.4184 37.2188 29.4158 37.2345 29.4127C37.2977 29.4002 37.3956 29.3794 37.5171 29.3492C37.7659 29.2871 38.0839 29.1925 38.3937 29.0615C38.7155 28.9255 38.9469 28.7843 39.0833 28.6639C39.1108 28.6397 39.1301 28.6202 39.1433 28.6057C39.1384 28.5521 39.1197 28.4421 39.0497 28.2642C38.9402 27.986 38.7533 27.6645 38.514 27.3321C38.2801 27.0071 38.0313 26.7202 37.8376 26.5123C37.7422 26.4099 37.6638 26.3305 37.6121 26.2794C37.5989 26.2664 37.5876 26.2553 37.5782 26.2462C37.5692 26.2374 37.562 26.2305 37.5567 26.2255L37.5485 26.2176L37.5474 26.2167L37.2645 25.9546ZM24.9429 38.3322C24.9429 38.3322 25.7449 38.5388 26.9432 38.6832C30.4842 39.11 37.4859 38.9941 37.4796 31.4009C37.4796 31.4009 40.782 30.8784 41.115 28.9906C41.4479 27.1028 38.9096 24.7523 38.9096 24.7523C38.0456 22.9099 38.0708 20.7395 38.0945 18.702C38.1011 18.1386 38.1075 17.5855 38.095 17.0522C38.036 14.6877 37.2842 12.39 35.9295 10.4339C34.4463 8.57197 32.502 7.11382 30.282 6.19836C27.4647 4.91785 24.3963 4.25746 21.2916 4.26346C17.226 4.26679 13.3281 5.85515 10.4556 8.67913C7.58303 11.5031 5.97109 15.3314 5.97436 19.3217C5.97829 24.1227 8.73175 29.8241 12.3016 32.5705L12.3086 41.0645C13.3226 43.1868 17.1426 44.6895 19.3736 44.5055C24.1118 44.5016 24.9457 41.7654 24.9457 41.7654L24.9429 38.3322Z" fill="#333333"/>
<path fill-rule="evenodd" clip-rule="evenodd" d="M26.6982 20.4935C27.1876 20.4931 27.2688 20.4021 27.4245 20.2275C27.5147 20.1264 27.6299 19.9973 27.864 19.8416C28.5124 20.2644 29.2775 20.4856 30.0581 20.4762L32.5367 19.5961C33.2349 19.035 33.7139 18.2576 33.8936 17.394C34.0732 16.5304 33.9426 15.6329 33.5235 14.8518C33.1045 14.0707 32.4225 13.4534 31.5916 13.1032C31.4013 12.2674 30.923 11.52 30.2361 10.9852L27.8152 10.1629L27.5427 10.1631C27.0037 9.39916 26.1951 8.85458 25.2705 8.63289L21.0814 8.35243C20.2189 8.42288 19.4059 8.77364 18.7731 9.34827C18.4739 9.27986 18.1676 9.24453 17.8602 9.24295C17.1159 9.24504 16.3881 9.45675 15.7646 9.85251C15.1412 10.2483 14.6488 10.8112 14.3469 11.4733L12.3764 12.834C11.8864 13.4813 11.6229 14.2646 11.6249 15.0685C11.6203 15.4047 11.6665 15.7397 11.7619 16.0628C11.2452 16.7164 10.9677 17.5193 10.9736 18.3439C10.9731 19.3003 11.3493 20.2205 12.0248 20.9152C12.0798 21.5999 12.3262 22.2569 12.7373 22.8151C13.1484 23.3733 13.7086 23.8114 14.3572 24.0821C15.1046 24.5373 15.7377 25.1497 16.2099 25.8744C16.6821 26.5991 16.8774 27.4176 16.9816 28.2696L21.0977 28.2663L21.0944 24.2887C21.0929 23.5825 21.2948 22.89 21.6772 22.2897C21.7352 22.1987 21.7894 22.1103 21.8418 22.0248L21.8418 22.0246C22.1347 21.5466 22.3726 21.1583 22.9245 20.893C23.5343 20.6654 24.0835 20.3069 24.5313 19.8443C25.1701 20.2679 25.9252 20.4941 26.6982 20.4935ZM13.9752 20.3582L21.9741 19.1056L16.782 13.3559L13.9752 20.3582ZM22.4697 15.6821L24.8379 11.2819L29.3211 13.606L26.953 18.0063L22.4697 15.6821Z" fill="#333333"/>
<path d="M33.978 23.8419C33.9787 24.6703 33.3077 25.3425 32.4793 25.3431C31.6508 25.3438 30.9787 24.6728 30.978 23.8444C30.9774 23.0159 31.6484 22.3438 32.4768 22.3431C33.3052 22.3425 33.9774 23.0135 33.978 23.8419Z" fill="#333333"/>
<path fill-rule="evenodd" clip-rule="evenodd" d="M20.985 32.3526L16.985 32.3558L16.9834 30.3558L20.9834 30.3526L20.985 32.3526Z" fill="#333333"/>
<path fill-rule="evenodd" clip-rule="evenodd" d="M20.9883 36.3526L16.9883 36.3558L16.9867 34.3558L20.9867 34.3526L20.9883 36.3526Z" fill="#333333"/>
<path fill-rule="evenodd" clip-rule="evenodd" d="M20.9916 40.3526L16.9916 40.3558L16.99 38.3558L20.99 38.3526L20.9916 40.3526Z" fill="#333333"/>
</svg>
