<svg width="48" height="48" viewBox="0 0 48 48" fill="none" xmlns="http://www.w3.org/2000/svg">
<path fill-rule="evenodd" clip-rule="evenodd" d="M27.6944 19.8459C27.6914 19.8399 27.6882 19.8329 27.6849 19.8248C27.6623 19.7707 27.6154 19.6272 27.6154 19.3476C27.6154 17.8638 26.9578 16.9175 26.6472 16.4705C26.5959 16.3966 26.554 16.3364 26.5262 16.2896C26.3526 15.9981 26 15.3589 26 13.243C26 11.5415 26.7561 10.3101 27.9761 9.4374C29.2554 8.52225 31.0739 8 33 8C34.9261 8 36.7446 8.52225 38.0239 9.4374C39.2439 10.3101 40 11.5415 40 13.243C40 15.3589 39.6474 15.9981 39.4738 16.2896C39.446 16.3364 39.4041 16.3966 39.3528 16.4705C39.0422 16.9175 38.3846 17.8638 38.3846 19.3476C38.3846 19.548 38.3431 19.641 38.3254 19.6752C38.3039 19.7168 38.2721 19.7559 38.2224 19.7958C38.1685 19.8392 38.1078 19.8716 38.0621 19.891C38.0598 19.892 38.0578 19.8929 38.0558 19.8937C37.6558 19.9932 37.3971 20.1892 37.3236 20.2452C37.1647 20.3664 37.0596 20.4847 37.0136 20.5384C36.9154 20.6532 36.8512 20.755 36.8285 20.7913C36.7731 20.8801 36.7324 20.9598 36.7126 20.9993C36.6662 21.092 36.6217 21.1923 36.5828 21.2847C36.5021 21.4764 36.4077 21.7243 36.3169 21.9999C36.2377 22.2402 36.1431 22.5546 36.0664 22.9038C35.2706 22.9969 34.1836 23 33 23C31.8542 23 30.7989 22.9971 30.0107 22.9125C29.9837 22.6761 29.947 22.438 29.8986 22.21C29.8347 21.9096 29.7214 21.4825 29.4964 21.0817C29.3246 20.7757 28.7743 19.9517 27.6944 19.8459ZM25.6154 19.3476C25.6154 21.3825 27 21.8347 27.4615 21.8347C27.9231 21.8347 28.0769 23.1912 28.0769 24.0956C28.0769 25 30.6923 25 33 25C35.3077 25 37.9231 25 37.9231 24.0956C37.9231 23.1912 38.5 21.8347 38.5385 21.8347C38.5769 21.8347 40.3846 21.3825 40.3846 19.3476C40.3846 18.5425 40.6375 18.1622 40.9431 17.7024C41.41 17.0001 42 16.1125 42 13.243C42 3.58566 24 3.58566 24 13.243C24 16.1125 24.59 17.0001 25.0569 17.7024C25.3625 18.1622 25.6154 18.5425 25.6154 19.3476Z" fill="#333333"/>
<path d="M32 16C32 17.1046 31.1046 18 30 18C28.8954 18 28 17.1046 28 16C28 14.8954 28.8954 14 30 14C31.1046 14 32 14.8954 32 16Z" fill="#333333"/>
<path d="M38.0695 16.1067C38.0705 17.2702 37.1281 18.2142 35.9645 18.2151C34.801 18.2161 33.857 17.2737 33.8561 16.1101C33.8551 14.9466 34.7976 14.0026 35.9611 14.0017C37.1246 14.0007 38.0686 14.9432 38.0695 16.1067Z" fill="#333333"/>
<path fill-rule="evenodd" clip-rule="evenodd" d="M8 6V40H42V42H7C6.44772 42 6 41.5523 6 41V6H8Z" fill="#333333"/>
<path fill-rule="evenodd" clip-rule="evenodd" d="M6 17C6 16.4477 6.44772 16 7 16H8.87115C11.3026 16 13.6843 16.7409 15.8282 18.1398C17.9693 19.5368 19.8121 21.5492 21.2308 23.9988C22.5133 26.2137 24.1496 27.981 25.9954 29.1854C27.8383 30.3879 29.844 31.0001 31.8596 31H39.5C40.0523 31 40.5 31.4477 40.5 32C40.5 32.5523 40.0523 33 39.5 33H31.8597C29.4283 33.0002 27.0465 32.2593 24.9025 30.8604C22.7615 29.4633 20.9186 27.4509 19.5 25.0011C18.2174 22.7864 16.5811 21.0192 14.7353 19.8148C12.8924 18.6123 10.8868 18 8.87117 18H7C6.44772 18 6 17.5523 6 17Z" fill="#333333"/>
<path fill-rule="evenodd" clip-rule="evenodd" d="M35.293 26.5105C35.6836 26.1201 36.3168 26.1202 36.7073 26.5108L41.4873 31.2928C41.8776 31.6833 41.8776 32.3162 41.4873 32.7067L36.7073 37.4887C36.3168 37.8793 35.6836 37.8795 35.293 37.489C34.9024 37.0986 34.9023 36.4654 35.2927 36.0748L39.3661 31.9998L35.2927 27.9247C34.9023 27.5341 34.9024 26.901 35.293 26.5105Z" fill="#333333"/>
</svg>
