<svg width="48" height="48" viewBox="0 0 48 48" fill="none" xmlns="http://www.w3.org/2000/svg">
<path d="M27.296 19.656C27.6157 19.6518 27.9209 19.5218 28.1455 19.2943C28.3701 19.0667 28.496 18.7598 28.496 18.44C28.4618 18.1436 28.3198 17.8701 28.0971 17.6715C27.8743 17.473 27.5863 17.3633 27.288 17.3633C26.9896 17.3633 26.7016 17.473 26.4788 17.6715C26.2561 17.8701 26.1141 18.1436 26.08 18.44C26.0841 18.7612 26.2135 19.0681 26.4407 19.2953C26.6678 19.5224 26.9747 19.6519 27.296 19.656Z" fill="#333333"/>
<path d="M33.0719 16.312C32.7522 16.3162 32.447 16.4462 32.2224 16.6738C31.9978 16.9014 31.8719 17.2083 31.8719 17.528C31.8719 17.8463 31.9984 18.1515 32.2234 18.3765C32.4485 18.6016 32.7537 18.728 33.0719 18.728C33.3917 18.728 33.6986 18.6021 33.9262 18.3775C34.1538 18.1529 34.2837 17.8477 34.2879 17.528C34.2838 17.2068 34.1544 16.8999 33.9272 16.6728C33.7001 16.4456 33.3932 16.3162 33.0719 16.312Z" fill="#333333"/>
<path d="M39.344 13.08C39.5078 13.0781 39.6696 13.0431 39.8196 12.9771C39.9696 12.911 40.1047 12.8154 40.2168 12.6958C40.3289 12.5762 40.4156 12.4353 40.4718 12.2813C40.5281 12.1274 40.5526 11.9637 40.544 11.8C40.5461 11.6419 40.5165 11.4848 40.457 11.3383C40.3975 11.1917 40.3091 11.0586 40.1973 10.9467C40.0854 10.8349 39.9523 10.7465 39.8057 10.687C39.6592 10.6275 39.5021 10.5979 39.344 10.6C39.1737 10.5804 39.0011 10.597 38.8377 10.6488C38.6742 10.7005 38.5236 10.7862 38.3956 10.9003C38.2676 11.0144 38.1652 11.1542 38.0951 11.3107C38.025 11.4671 37.9887 11.6366 37.9887 11.808C37.9887 11.9795 38.025 12.149 38.0951 12.3054C38.1652 12.4619 38.2676 12.6017 38.3956 12.7158C38.5236 12.8299 38.6742 12.9156 38.8377 12.9673C39.0011 13.0191 39.1737 13.0357 39.344 13.016V13.08Z" fill="#333333"/>
<path d="M40.096 16.7601C40.0991 16.5189 40.0305 16.2823 39.8988 16.0802C39.7672 15.8781 39.5784 15.7198 39.3565 15.6253C39.1346 15.5308 38.8896 15.5044 38.6527 15.5495C38.4158 15.5946 38.1976 15.7092 38.0259 15.8786C37.8543 16.048 37.7369 16.2646 37.6886 16.5009C37.6404 16.7372 37.6635 16.9825 37.7551 17.2056C37.8466 17.4288 38.0024 17.6196 38.2028 17.754C38.4031 17.8883 38.6388 17.9601 38.88 17.9601C39.1997 17.9601 39.5066 17.8342 39.7342 17.6096C39.9618 17.385 40.0917 17.0798 40.096 16.7601Z" fill="#333333"/>
<path d="M44.304 8.34409C44.0749 8.28271 43.8327 8.29062 43.608 8.36684C43.3833 8.44305 43.1863 8.58415 43.0418 8.77229C42.8973 8.96044 42.8118 9.1872 42.7961 9.42391C42.7805 9.66062 42.8353 9.89667 42.9537 10.1022C43.0721 10.3078 43.2488 10.4736 43.4615 10.5788C43.6741 10.684 43.9132 10.7238 44.1484 10.6932C44.3837 10.6626 44.6046 10.5629 44.7832 10.4068C44.9618 10.2507 45.0902 10.0451 45.152 9.81609C45.1931 9.66375 45.2038 9.5048 45.1835 9.34833C45.1631 9.19185 45.1121 9.04094 45.0333 8.90421C44.9545 8.76748 44.8496 8.64763 44.7244 8.55152C44.5993 8.4554 44.4564 8.38492 44.304 8.34409Z" fill="#333333"/>
<path d="M31.2479 20.2159C31.0956 20.1725 30.9361 20.1602 30.7789 20.1795C30.6217 20.1989 30.4699 20.2496 30.3327 20.3287C30.1954 20.4078 30.0754 20.5136 29.9798 20.6399C29.8842 20.7662 29.8148 20.9104 29.7759 21.0639C29.7348 21.2163 29.7241 21.3752 29.7445 21.5317C29.7648 21.6882 29.8159 21.8391 29.8946 21.9758C29.9734 22.1125 30.0784 22.2324 30.2035 22.3285C30.3287 22.4246 30.4715 22.4951 30.6239 22.5359C30.9337 22.6194 31.2639 22.5772 31.5426 22.4183C31.8213 22.2595 32.0259 21.997 32.1119 21.6879C32.1528 21.5345 32.1628 21.3745 32.1414 21.2172C32.1201 21.0599 32.0677 20.9084 31.9873 20.7715C31.9069 20.6346 31.8002 20.515 31.6733 20.4196C31.5464 20.3243 31.4018 20.255 31.2479 20.2159Z" fill="#333333"/>
<path d="M36.672 20.4561C36.5196 20.4149 36.3607 20.4042 36.2042 20.4246C36.0477 20.445 35.8968 20.496 35.7601 20.5748C35.6234 20.6535 35.5035 20.7585 35.4074 20.8836C35.3113 21.0088 35.2408 21.1516 35.2 21.3041C35.1172 21.6117 35.1601 21.9396 35.3191 22.2157C35.4782 22.4917 35.7403 22.6933 36.048 22.7761C36.3556 22.8588 36.6836 22.8159 36.9596 22.6569C37.2357 22.4979 37.4372 22.2357 37.52 21.9281C37.5611 21.7757 37.5718 21.6168 37.5514 21.4603C37.5311 21.3038 37.4801 21.1529 37.4013 21.0162C37.3225 20.8794 37.2176 20.7596 37.0924 20.6635C36.9673 20.5674 36.8244 20.4969 36.672 20.4561Z" fill="#333333"/>
<path d="M43.872 18.5841C43.6399 18.5195 43.3938 18.5253 43.165 18.6007C42.9362 18.6762 42.735 18.8179 42.5869 19.0079C42.4387 19.198 42.3504 19.4277 42.3331 19.668C42.3157 19.9083 42.3701 20.1483 42.4894 20.3576C42.6087 20.5669 42.7875 20.7361 43.0031 20.8437C43.2187 20.9512 43.4613 20.9923 43.7003 20.9617C43.9393 20.9311 44.1638 20.8302 44.3453 20.6718C44.5269 20.5134 44.6573 20.3047 44.72 20.0721C44.7635 19.9187 44.7761 19.7582 44.7569 19.5999C44.7377 19.4416 44.6871 19.2887 44.6082 19.1502C44.5292 19.0116 44.4235 18.8902 44.2971 18.793C44.1707 18.6958 44.0261 18.6248 43.872 18.5841Z" fill="#333333"/>
<path d="M40.512 23.5121C40.2023 23.5983 39.9386 23.8022 39.7772 24.0802C39.6158 24.3582 39.5694 24.6883 39.648 25.0001C39.734 25.3091 39.9387 25.5716 40.2174 25.7305C40.4961 25.8893 40.8262 25.9316 41.136 25.8481C41.2884 25.8072 41.4313 25.7367 41.5564 25.6406C41.6816 25.5445 41.7865 25.4247 41.8653 25.2879C41.944 25.1512 41.9951 25.0003 42.0154 24.8438C42.0358 24.6873 42.0251 24.5284 41.984 24.3761C41.9012 24.0676 41.7005 23.8041 41.425 23.6424C41.1496 23.4807 40.8216 23.4339 40.512 23.5121Z" fill="#333333"/>
<path d="M29.5679 15.8959C29.8476 15.7878 30.0776 15.5802 30.2135 15.3129C30.3494 15.0456 30.3818 14.7375 30.3044 14.4478C30.2271 14.1581 30.0453 13.9072 29.7942 13.7433C29.5431 13.5794 29.2403 13.5141 28.9439 13.5599C28.6355 13.6427 28.3719 13.8434 28.2103 14.1189C28.0486 14.3943 28.0018 14.7223 28.0799 15.0319C28.1189 15.1875 28.1887 15.3338 28.2851 15.4619C28.3815 15.5901 28.5027 15.6977 28.6414 15.7782C28.7802 15.8588 28.9336 15.9107 29.0928 15.9309C29.2519 15.9511 29.4135 15.9392 29.5679 15.8959Z" fill="#333333"/>
<path d="M35.648 12.3279C35.5617 12.0182 35.3578 11.7545 35.0798 11.5931C34.8018 11.4317 34.4717 11.3853 34.16 11.4639C33.851 11.5499 33.5884 11.7546 33.4296 12.0333C33.2708 12.312 33.2285 12.6422 33.312 12.9519C33.3528 13.1043 33.4233 13.2472 33.5194 13.3723C33.6155 13.4975 33.7354 13.6024 33.8721 13.6812C34.0089 13.76 34.1598 13.811 34.3162 13.8314C34.4727 13.8517 34.6317 13.841 34.784 13.7999C35.0925 13.7172 35.356 13.5164 35.5177 13.241C35.6793 12.9655 35.7261 12.6376 35.648 12.3279Z" fill="#333333"/>
<path d="M35.664 8.60006C35.9823 8.51731 36.2546 8.31152 36.4211 8.02797C36.5877 7.74441 36.6348 7.40632 36.552 7.08806C36.4693 6.7698 36.2635 6.49744 35.9799 6.33091C35.6964 6.16438 35.3583 6.11731 35.04 6.20006C34.7315 6.2828 34.468 6.48357 34.3063 6.759C34.1447 7.03442 34.0979 7.3624 34.176 7.67206C34.2077 7.83342 34.2722 7.98655 34.3655 8.12195C34.4588 8.25734 34.579 8.37211 34.7185 8.45913C34.858 8.54615 35.014 8.60356 35.1766 8.6278C35.3393 8.65205 35.5052 8.6426 35.664 8.60006Z" fill="#333333"/>
<path d="M23.072 21.8481H19.696V20.8081H20.8C21.5441 20.8081 22.2579 20.5136 22.7855 19.9889C23.3132 19.4643 23.6117 18.7521 23.616 18.0081V16.1681C23.616 16.2641 24.336 16.1681 24.4 16.1681C24.5949 16.1367 24.7714 16.0344 24.8954 15.8809C25.0195 15.7273 25.0824 15.5332 25.072 15.3361C25.0247 15.0391 24.9273 14.7524 24.784 14.4881L24.4 13.5121C24.128 12.8401 23.856 12.1681 23.6 11.4801C23.6 11.4801 23.44 9.88006 23.296 9.33606C22.8497 7.87273 21.9479 6.59009 20.7219 5.67493C19.4959 4.75977 18.0098 4.25988 16.48 4.24806C14.9996 4.24537 13.5553 4.70525 12.349 5.56343C11.1427 6.42161 10.2346 7.63521 9.7517 9.03464C9.26877 10.4341 9.23511 11.9494 9.65541 13.3689C10.0757 14.7884 10.929 16.0412 12.096 16.9521V21.8481H9.15197C7.35885 21.8433 5.63505 22.5404 4.3493 23.7903C3.06355 25.0401 2.31794 26.7435 2.27197 28.5361V43.8001H30.4V29.5761C30.4319 28.586 30.2671 27.5995 29.9152 26.6736C29.5632 25.7477 29.031 24.9009 28.3494 24.1821C27.6679 23.4633 26.8505 22.8869 25.9446 22.4863C25.0387 22.0856 24.0623 21.8687 23.072 21.8481ZM19.136 17.0481C19.1987 16.8154 19.3291 16.6067 19.5106 16.4483C19.6922 16.2899 19.9167 16.189 20.1556 16.1584C20.3946 16.1278 20.6373 16.1689 20.8529 16.2765C21.0685 16.384 21.2472 16.5532 21.3665 16.7625C21.4858 16.9718 21.5402 17.2119 21.5229 17.4522C21.5055 17.6925 21.4172 17.9222 21.2691 18.1122C21.121 18.3022 20.9197 18.4439 20.6909 18.5194C20.4621 18.5949 20.2161 18.6007 19.984 18.5361C19.6867 18.4368 19.4393 18.2267 19.2932 17.9495C19.1472 17.6722 19.1138 17.3493 19.2 17.0481H19.136ZM15.344 19.8001C15.4067 19.5674 15.5371 19.3587 15.7186 19.2003C15.9002 19.0419 16.1247 18.941 16.3636 18.9104C16.6026 18.8798 16.8453 18.9209 17.0609 19.0285C17.2765 19.136 17.4552 19.3052 17.5745 19.5145C17.6938 19.7238 17.7482 19.9639 17.7309 20.2042C17.7135 20.4445 17.6252 20.6742 17.4771 20.8642C17.329 21.0542 17.1277 21.1959 16.8989 21.2714C16.6701 21.3469 16.4241 21.3527 16.192 21.2881C15.8829 21.202 15.6204 20.9974 15.4616 20.7187C15.3027 20.44 15.2605 20.1098 15.344 19.8001ZM24.608 40.6001C24.5463 40.7046 24.4603 40.7927 24.3572 40.8568C24.2541 40.9209 24.137 40.959 24.016 40.9681C23.8645 40.9649 23.7153 40.9306 23.5777 40.8673C23.4401 40.804 23.3169 40.713 23.216 40.6001L22.688 40.2161C22.1873 39.8885 21.6504 39.62 21.088 39.4161C19.952 38.9361 18.88 38.4881 18.88 37.3201C18.88 37.1761 18.88 36.9841 18.88 36.7761C18.8996 36.4403 18.8996 36.1038 18.88 35.7681C18.8338 35.2661 18.7482 34.7686 18.624 34.2801C18.5153 33.8107 18.4352 33.3351 18.384 32.8561C17.8832 32.7283 17.4285 32.4622 17.072 32.0881C16.678 31.6713 16.3683 31.1824 16.16 30.6481C15.9516 31.1824 15.642 31.6713 15.248 32.0881C14.8948 32.4583 14.4463 32.724 13.952 32.8561C13.902 33.3364 13.8165 33.8124 13.696 34.2801C13.5754 34.7687 13.4951 35.2663 13.456 35.7681C13.456 36.1521 13.456 36.5041 13.456 36.7761C13.456 37.0481 13.456 37.1761 13.456 37.3201C13.456 38.4881 12.384 38.9201 11.264 39.4161C10.702 39.6211 10.1652 39.8895 9.66397 40.2161L9.34397 40.6001C9.13196 40.8151 8.84577 40.941 8.54397 40.9521C8.43173 40.9412 8.32374 40.9036 8.22907 40.8424C8.1344 40.7811 8.05583 40.698 7.99997 40.6001C7.21597 39.4801 7.02397 35.8001 7.99997 32.6001C8.84797 29.7521 11.44 26.9521 13.232 26.9521C13.3582 26.948 13.4838 26.9717 13.5999 27.0215C13.716 27.0712 13.8198 27.1458 13.904 27.2401C14.368 27.7521 14.288 28.8401 14.224 29.9921V30.6321C14.224 30.5521 14.32 30.8401 14.32 31.2241L14.4 31.0001C15.2812 29.62 15.6962 27.9936 15.584 26.3601V25.8321C15.584 25.2561 15.584 24.7761 15.504 24.4401C15.4765 24.2512 15.5251 24.0592 15.6391 23.9062C15.7531 23.7532 15.9232 23.6518 16.112 23.6241C16.165 23.6159 16.2189 23.6159 16.272 23.6241H16.432C16.5248 23.6358 16.6143 23.666 16.6953 23.7128C16.7763 23.7595 16.8472 23.822 16.9038 23.8965C16.9604 23.971 17.0016 24.056 17.025 24.1466C17.0484 24.2371 17.0535 24.3315 17.04 24.4241C17.04 24.7761 17.04 25.2881 17.04 25.8641V26.3121C16.8936 27.9549 17.2868 29.6008 18.16 31.0001C18.2165 31.0618 18.281 31.1156 18.352 31.1601C18.352 30.7921 18.352 30.5041 18.448 30.5841C18.448 30.3761 18.448 30.1681 18.448 29.9441C18.448 28.7921 18.304 27.7041 18.768 27.1921C18.8507 27.0961 18.9542 27.0202 19.0706 26.9703C19.1871 26.9204 19.3134 26.8977 19.44 26.9041C21.232 26.9041 23.824 29.7041 24.672 32.5521C25.6 35.6881 25.376 39.4321 24.608 40.6001Z" fill="#333333"/>
</svg>
