<svg width="48" height="48" viewBox="0 0 48 48" fill="none" xmlns="http://www.w3.org/2000/svg">
<path fill-rule="evenodd" clip-rule="evenodd" d="M18.1254 29.6236C17.8971 29.1592 17.3814 28.9083 16.8786 29.0309C11.4745 30.3492 6 33.0372 6 37.0809V44H16V34C16 33.4477 16.4477 33 17 33C17.5523 33 18 33.4477 18 34V44H30V34C30 33.4477 30.4477 33 31 33C31.5523 33 32 33.4477 32 34V44H42V37.0809C42 33.0372 36.5255 30.3492 31.1214 29.0309C30.6186 28.9083 30.1029 29.1592 29.8746 29.6236L25.8105 29.8958L22.1893 29.8955L18.1254 29.6236Z" fill="#333333"/>
<path fill-rule="evenodd" clip-rule="evenodd" d="M25 4.91406C26.0674 5.05142 27.0785 5.40145 28 5.8952V8.99958C28 9.55187 28.4477 9.99958 29 9.99958C29.5523 9.99958 30 9.55187 30 8.99958V7.30074C31.2334 8.4022 32.1606 9.73931 32.6383 11.0162C32.6565 11.4852 32.6057 11.9698 32.5138 12.4412C32.3972 13.0396 32.2213 13.5777 32.0735 13.9675C31.9999 14.1617 31.934 14.3173 31.8871 14.423C31.8636 14.4758 31.845 14.5161 31.8326 14.5424L31.8189 14.5712L31.8154 14.5783C31.6807 14.8503 31.7918 15.18 32.0637 15.315C32.3358 15.4501 32.6658 15.339 32.8009 15.0669L32.3158 14.8261C32.8009 15.0669 32.8012 15.0663 32.8013 15.0662L32.8019 15.065L32.8035 15.0616L32.8089 15.0505L32.8276 15.0113C32.8434 14.9779 32.8655 14.93 32.8926 14.8691C32.9466 14.7473 33.0204 14.5729 33.1021 14.3575C33.2649 13.928 33.4617 13.3281 33.5935 12.6516C33.6163 12.5346 33.6374 12.414 33.6561 12.2904C34.5129 13.4107 35 14.5716 35 15.5747C35 18.7641 30.0751 19.1497 24 19.1497C17.9249 19.1497 13 18.7641 13 15.5747C13 14.6346 13.4278 13.556 14.1868 12.502C14.1542 13.3989 14.333 14.3435 14.9369 15.1757C15.1172 15.4241 15.4608 15.4827 15.7044 15.3067C15.9481 15.1306 15.9994 14.7865 15.8191 14.5381C15.1018 13.5497 15.1944 12.2339 15.5559 11.0415C15.7318 10.461 15.9606 9.94772 16.1466 9.57826C16.2393 9.39423 16.3204 9.24764 16.3776 9.14826C16.4062 9.09861 16.4288 9.06086 16.4437 9.03624L16.4603 9.00933L16.4644 9.00269C16.4691 8.99535 16.4735 8.98793 16.4778 8.98044C16.9075 8.38893 17.4199 7.81877 18 7.30073V8.99958C18 9.55187 18.4477 9.99958 19 9.99958C19.5523 9.99958 20 9.55187 20 8.99958L20 5.89519C20.9215 5.40145 21.9326 5.05142 23 4.91406V6.99958C23 7.55187 23.4477 7.99958 24 7.99958C24.5523 7.99958 25 7.55187 25 6.99958V4.91406Z" fill="#333333"/>
<path fill-rule="evenodd" clip-rule="evenodd" d="M17 18C17 21.866 20.134 25 24 25C27.866 25 31 21.866 31 18H33C33 22.9706 28.9706 27 24 27C19.0294 27 15 22.9706 15 18H17Z" fill="#333333"/>
</svg>
