<svg width="48" height="48" viewBox="0 0 48 48" fill="none" xmlns="http://www.w3.org/2000/svg">
<path fill-rule="evenodd" clip-rule="evenodd" d="M10.2963 30.3726C6.52453 26.8039 10.2963 11 23.4975 11C36.6986 11 41.8848 24.7647 38.113 30.3726C39.7342 30.3726 41 28 41.1272 26.6019C44.7255 29.5804 45.0709 37 24.1116 37C2.65377 37 3.09675 28.7912 7.25566 26.2941C7.3899 28.8431 8.91005 30.3726 10.2963 30.3726ZM16.3651 23.2067C16.4107 22.4315 16.8776 21.3663 17.6936 20.4124C18.5145 19.4529 19.4506 18.8822 20.166 18.7738C20.9962 18.648 21.5678 17.8689 21.4428 17.0337C21.3178 16.1984 20.5435 15.6233 19.7133 15.749C18.0133 16.0066 16.4749 17.1481 15.3893 18.417C14.299 19.6915 13.4275 21.3708 13.3301 23.0259C13.2805 23.8691 13.9197 24.5931 14.7578 24.643C15.5959 24.6929 16.3155 24.0499 16.3651 23.2067Z" fill="#333333"/>
</svg>
