<svg width="48" height="48" viewBox="0 0 48 48" fill="none" xmlns="http://www.w3.org/2000/svg">
<path fill-rule="evenodd" clip-rule="evenodd" d="M11.1227 12.2188C11.1227 11.5457 11.6684 11 12.3415 11C13.0146 11 13.5602 11.5457 13.5602 12.2188V15.3889L16.3058 13.8037C16.8887 13.4672 17.6341 13.6669 17.9706 14.2498C18.3072 14.8327 18.1075 15.5781 17.5246 15.9147L14.779 17.4998L17.5246 19.085C18.1075 19.4215 18.3072 20.1669 17.9706 20.7498C17.6341 21.3327 16.8887 21.5325 16.3058 21.1959L13.5602 19.6108V22.7812C13.5602 23.4543 13.0146 24 12.3415 24C11.6684 24 11.1227 23.4543 11.1227 22.7812V19.6108L8.37716 21.1959C7.79424 21.5325 7.04886 21.3327 6.71231 20.7498C6.37576 20.1669 6.57549 19.4215 7.15841 19.085L9.90398 17.4998L7.15841 15.9147C6.57549 15.5781 6.37576 14.8327 6.71231 14.2498C7.04886 13.6669 7.79424 13.4672 8.37716 13.8037L11.1227 15.3889V12.2188Z" fill="#333333"/>
<path fill-rule="evenodd" clip-rule="evenodd" d="M23 29.7786L23 27.9999L23 21.7882L23 9.38107C23 6.4224 25.2386 4.02393 28 4.02393C30.7614 4.02393 33 6.4224 33 9.38107L33 21.7882L33 28.0005L33 29.7786C34.8289 31.2447 36 33.4975 36 36.0239C36 40.4422 32.4183 44.0239 28 44.0239C23.5817 44.0239 20 40.4422 20 36.0239C20 33.4975 21.1711 31.2447 23 29.7786ZM26.9824 21.4451C28.1778 21.7552 29.5429 22.1093 31 22.0849L31 19.9999L29 19.9999C28.4477 19.9999 28 19.5522 28 18.9999C28 18.4476 28.4477 17.9999 29 17.9999L31 17.9999L31 15.9999L29 15.9999C28.4477 15.9999 28 15.5522 28 14.9999C28 14.4476 28.4477 13.9999 29 13.9999L31 13.9999L31 11.9999L29 11.9999C28.4477 11.9999 28 11.5522 28 10.9999C28 10.4476 28.4477 9.99988 29 9.99988L31 9.99988L31 9.38107C31 7.60587 29.6569 6.16678 28 6.16678C26.3431 6.16678 25 7.60587 25 9.38107L25 21.0225C25.5858 21.0829 26.2524 21.2558 26.9824 21.4451Z" fill="#333333"/>
</svg>
