<svg width="48" height="48" viewBox="0 0 48 48" fill="none" xmlns="http://www.w3.org/2000/svg">
<path fill-rule="evenodd" clip-rule="evenodd" d="M18.5 6C10.4919 6 4 12.4919 4 20.5C4 38.5 28 42 28 42V35H29.5C37.5081 35 44 28.5081 44 20.5C44 12.4919 37.5081 6 29.5 6H18.5ZM30.3565 12.7347C31.9545 13.941 33 15.7808 33 18.1461C33 21.0267 31.1738 22.8313 29.3653 23.828C28.2935 24.4186 27.1239 24.7958 26.0666 25.0204C26.0556 26.1156 25.1644 27 24.0667 27C22.9621 27 22.0667 26.1046 22.0667 25V23.2865C22.0667 22.2298 22.8887 21.3554 23.9433 21.2903C24.8975 21.2313 26.3207 20.9386 27.4347 20.3247C28.5151 19.7293 29 19.0351 29 18.1461C29 17.0845 28.583 16.4077 27.9466 15.9272C27.2423 15.3956 26.1716 15.048 24.9182 15.0046C23.6735 14.9614 22.4336 15.2266 21.492 15.7093C20.546 16.1941 20.0804 16.792 19.939 17.3513C19.6681 18.4222 18.5805 19.0707 17.5096 18.7999C16.4388 18.5291 15.7902 17.4414 16.0611 16.3706C16.5696 14.3598 18.054 12.9766 19.6674 12.1496C21.2852 11.3204 23.214 10.9431 25.0568 11.007C26.8909 11.0706 28.8265 11.5797 30.3565 12.7347ZM22 30C22 28.8955 22.8954 28 24 28C25.1046 28 26 28.8955 26 30C26 31.1046 25.1046 32 24 32C22.8954 32 22 31.1046 22 30Z" fill="#333333"/>
</svg>
