<svg width="48" height="48" viewBox="0 0 48 48" fill="none" xmlns="http://www.w3.org/2000/svg">
<path fill-rule="evenodd" clip-rule="evenodd" d="M25.9631 22.0194H22.7229V21.0728H23.7825C24.4967 21.0728 25.1818 20.8048 25.6882 20.3273C26.1946 19.8497 26.4812 19.2015 26.4852 18.5243V16.8495C26.4852 16.919 26.9225 16.878 27.1323 16.8582L27.1323 16.8582L27.1323 16.8582C27.1862 16.8532 27.2251 16.8495 27.2377 16.8495C27.4248 16.821 27.5941 16.7279 27.7132 16.5881C27.8323 16.4483 27.8926 16.2717 27.8826 16.0922C27.8372 15.822 27.7438 15.561 27.6062 15.3204L27.2377 14.432C26.9766 13.8204 26.7156 13.2087 26.4699 12.5825C26.4699 12.5825 26.3163 11.1262 26.1781 10.6311C25.7497 9.29916 24.8842 8.13171 23.7076 7.29874C22.5309 6.46577 21.1046 6.01077 19.6363 6.00001C18.2155 5.99757 16.8293 6.41615 15.6716 7.19726C14.5138 7.97837 13.6423 9.08298 13.1788 10.3567C12.7153 11.6305 12.683 13.0097 13.0864 14.3018C13.4897 15.5938 14.3087 16.734 15.4287 17.5631V22.0194H12.6032C10.8822 22.0151 9.22776 22.6496 7.99374 23.7872C6.75973 24.9248 6.04412 26.4752 6 28.1068V42H32.9963V29.0534C33.0269 28.1523 32.8688 27.2544 32.531 26.4116C32.1931 25.5689 31.6824 24.7981 31.0282 24.1439C30.3741 23.4896 29.5896 22.965 28.7201 22.6003C27.8507 22.2357 26.9136 22.0382 25.9631 22.0194ZM20.8572 31.9962C20.7885 31.9931 20.6974 31.9874 20.5907 31.9771C20.3661 31.9552 20.0498 31.9104 19.72 31.8142C19.5042 31.7512 19.2486 31.6567 19 31.5095C18.7514 31.6567 18.4958 31.7512 18.28 31.8142C17.9502 31.9104 17.6339 31.9552 17.4093 31.9771C17.2945 31.9882 17.1978 31.9939 17.1276 31.9969C17.0923 31.9983 17.0634 31.9991 17.0419 31.9995L17.0377 31.9996C17.1036 33.8696 17.1314 36.2941 16.0567 37.3659C14.6469 38.7719 11.8272 39.4749 10.4174 38.3032C9.00755 37.1315 11.3573 25.6491 14.6469 25.6491C16.9296 25.6491 17.013 28.3908 17.0014 29.9999L17.003 29.9999L17.0272 29.9992L17.0443 29.9986C17.0835 29.997 17.143 29.9935 17.2157 29.9865C17.3661 29.9718 17.5498 29.9438 17.72 29.8942C17.8635 29.8523 17.9526 29.8079 18 29.7768V26.9792V25.5911V25.4618V25.4022V25.3461V25.245V25.2392V25.2335V25.2222V25.2004V25.1796V25.1598V25.0916V25.0879V25.0843V25.0808V25.0773V25.0739V25.0706V25.0674V25.0642V25.0522V25.0494V25.0467V25.044V25.0415V25.0235V25.0216V25.0198V25.0181V25.0164V25.0148V25.0133V25.0119V25.0106V25.0093V25.0081V25.007V25.006V25.005V25.0042V25.0034V25.0027V25.002V25.0015V25.001V25.0007V25.0004V25.0002V25L19 25L20 25V25.0002V25.0004V25.0007V25.001V25.0015V25.002V25.0027V25.0034V25.0042V25.005V25.006V25.007V25.0081V25.0093V25.0106V25.0119V25.0133V25.0148V25.0164V25.0181V25.0198V25.0216V25.0235V25.0415V25.044V25.0467V25.0494V25.0522V25.0642V25.0674V25.0706V25.0739V25.0773V25.0808V25.0843V25.0879V25.0916V25.1598V25.1796V25.2004V25.2222V25.2335V25.2392V25.245V25.3461V25.4022V25.4618V25.5911V26.9792V29.7768C20.0474 29.8079 20.1365 29.8523 20.28 29.8942C20.4502 29.9438 20.6339 29.9718 20.7843 29.9865C20.8253 29.9904 20.8621 29.9933 20.8934 29.9953C20.8819 28.3855 20.9673 25.6491 23.2479 25.6491C26.5375 25.6491 28.8872 37.1315 27.4774 38.3032C26.0675 39.4749 23.2479 38.7719 21.838 37.3659C20.7627 36.2935 20.7912 33.8667 20.8572 31.9962ZM16.9991 30.2411L16.9999 30.1664L17 30.8696C16.9979 30.7651 16.9966 30.6651 16.9966 30.5702C16.9966 30.4705 16.9978 30.3602 16.9991 30.2413L16.9991 30.2411ZM25 18C25 18.5523 24.5523 19 24 19C23.4477 19 23 18.5523 23 18C23 17.4477 23.4477 17 24 17C24.5523 17 25 17.4477 25 18ZM21 18C21.5523 18 22 17.5523 22 17C22 16.4477 21.5523 16 21 16C20.4477 16 20 16.4477 20 17C20 17.5523 20.4477 18 21 18Z" fill="#333333"/>
<path d="M32 14C32 14.5523 31.5523 15 31 15C30.4477 15 30 14.5523 30 14C30 13.4477 30.4477 13 31 13C31.5523 13 32 13.4477 32 14Z" fill="#333333"/>
<path d="M34 17C34 17.5523 33.5523 18 33 18C32.4477 18 32 17.5523 32 17C32 16.4477 32.4477 16 33 16C33.5523 16 34 16.4477 34 17Z" fill="#333333"/>
<path d="M36 20C36 20.5523 35.5523 21 35 21C34.4477 21 34 20.5523 34 20C34 19.4477 34.4477 19 35 19C35.5523 19 36 19.4477 36 20Z" fill="#333333"/>
<path d="M42 19C42 19.5523 41.5523 20 41 20C40.4477 20 40 19.5523 40 19C40 18.4477 40.4477 18 41 18C41.5523 18 42 18.4477 42 19Z" fill="#333333"/>
<path d="M42 14C42 14.5523 41.5523 15 41 15C40.4477 15 40 14.5523 40 14C40 13.4477 40.4477 13 41 13C41.5523 13 42 13.4477 42 14Z" fill="#333333"/>
<path d="M42 10C42 10.5523 41.5523 11 41 11C40.4477 11 40 10.5523 40 10C40 9.44772 40.4477 9 41 9C41.5523 9 42 9.44772 42 10Z" fill="#333333"/>
<path d="M38 12C38 12.5523 37.5523 13 37 13C36.4477 13 36 12.5523 36 12C36 11.4477 36.4477 11 37 11C37.5523 11 38 11.4477 38 12Z" fill="#333333"/>
<path d="M38 16C38 16.5523 37.5523 17 37 17C36.4477 17 36 16.5523 36 16C36 15.4477 36.4477 15 37 15C37.5523 15 38 15.4477 38 16Z" fill="#333333"/>
<path d="M30 19C30 19.5523 29.5523 20 29 20C28.4477 20 28 19.5523 28 19C28 18.4477 28.4477 18 29 18C29.5523 18 30 18.4477 30 19Z" fill="#333333"/>
</svg>
