<svg width="48" height="48" viewBox="0 0 48 48" fill="none" xmlns="http://www.w3.org/2000/svg">
<path fill-rule="evenodd" clip-rule="evenodd" d="M4 12C4 7.58172 7.58172 4 12 4H36C40.4183 4 44 7.58172 44 12V36C44 40.4183 40.4183 44 36 44H12C7.58172 44 4 40.4183 4 36V12ZM31 15H17C15.8954 15 15 15.8954 15 17V31C15 32.1046 15.8954 33 17 33H31C32.1046 33 33 32.1046 33 31V17C33 15.8954 32.1046 15 31 15ZM17 13C14.7909 13 13 14.7909 13 17V31C13 33.2091 14.7909 35 17 35H31C33.2091 35 35 33.2091 35 31V17C35 14.7909 33.2091 13 31 13H17ZM20 19C20.5523 19 21 18.5523 21 18C21 17.4477 20.5523 17 20 17C19.4477 17 19 17.4477 19 18C19 18.5523 19.4477 19 20 19ZM23 21C23 21.5523 22.5523 22 22 22C21.4477 22 21 21.5523 21 21C21 20.4477 21.4477 20 22 20C22.5523 20 23 20.4477 23 21ZM18 22C18.5523 22 19 21.5523 19 21C19 20.4477 18.5523 20 18 20C17.4477 20 17 20.4477 17 21C17 21.5523 17.4477 22 18 22ZM21 24C21 24.5523 20.5523 25 20 25C19.4477 25 19 24.5523 19 24C19 23.4477 19.4477 23 20 23C20.5523 23 21 23.4477 21 24ZM22 28C22.5523 28 23 27.5523 23 27C23 26.4477 22.5523 26 22 26C21.4477 26 21 26.4477 21 27C21 27.5523 21.4477 28 22 28ZM19 27C19 27.5523 18.5523 28 18 28C17.4477 28 17 27.5523 17 27C17 26.4477 17.4477 26 18 26C18.5523 26 19 26.4477 19 27ZM20 31C20.5523 31 21 30.5523 21 30C21 29.4477 20.5523 29 20 29C19.4477 29 19 29.4477 19 30C19 30.5523 19.4477 31 20 31ZM25 18C25 18.5523 24.5523 19 24 19C23.4477 19 23 18.5523 23 18C23 17.4477 23.4477 17 24 17C24.5523 17 25 17.4477 25 18ZM26 22C26.5523 22 27 21.5523 27 21C27 20.4477 26.5523 20 26 20C25.4477 20 25 20.4477 25 21C25 21.5523 25.4477 22 26 22ZM25 24C25 24.5523 24.5523 25 24 25C23.4477 25 23 24.5523 23 24C23 23.4477 23.4477 23 24 23C24.5523 23 25 23.4477 25 24ZM26 28C26.5523 28 27 27.5523 27 27C27 26.4477 26.5523 26 26 26C25.4477 26 25 26.4477 25 27C25 27.5523 25.4477 28 26 28ZM25 30C25 30.5523 24.5523 31 24 31C23.4477 31 23 30.5523 23 30C23 29.4477 23.4477 29 24 29C24.5523 29 25 29.4477 25 30ZM28 19C28.5523 19 29 18.5523 29 18C29 17.4477 28.5523 17 28 17C27.4477 17 27 17.4477 27 18C27 18.5523 27.4477 19 28 19ZM31 21C31 21.5523 30.5523 22 30 22C29.4477 22 29 21.5523 29 21C29 20.4477 29.4477 20 30 20C30.5523 20 31 20.4477 31 21ZM28 25C28.5523 25 29 24.5523 29 24C29 23.4477 28.5523 23 28 23C27.4477 23 27 23.4477 27 24C27 24.5523 27.4477 25 28 25ZM31 27C31 27.5523 30.5523 28 30 28C29.4477 28 29 27.5523 29 27C29 26.4477 29.4477 26 30 26C30.5523 26 31 26.4477 31 27ZM28 31C28.5523 31 29 30.5523 29 30C29 29.4477 28.5523 29 28 29C27.4477 29 27 29.4477 27 30C27 30.5523 27.4477 31 28 31Z" fill="#333333"/>
</svg>
