<svg width="48" height="48" viewBox="0 0 48 48" fill="none" xmlns="http://www.w3.org/2000/svg">
<path fill-rule="evenodd" clip-rule="evenodd" d="M36.0013 37.4155C32.8166 40.2664 28.6107 42 24 42C14.0589 42 6 33.9411 6 24C6 19.3893 7.73359 15.1834 10.5845 11.9987L36.0013 37.4155ZM37.4155 36.0013L11.9987 10.5845C15.1834 7.73359 19.3893 6 24 6C33.9411 6 42 14.0589 42 24C42 28.6107 40.2664 32.8166 37.4155 36.0013ZM44 24C44 35.0457 35.0457 44 24 44C12.9543 44 4 35.0457 4 24C4 12.9543 12.9543 4 24 4C35.0457 4 44 12.9543 44 24Z" fill="#333333"/>
<path fill-rule="evenodd" clip-rule="evenodd" d="M28.372 14.7876C30.1313 13.0283 32.6985 12.743 34.106 14.1505C35.5134 15.5579 35.2282 18.1251 33.4689 19.8844C32.412 20.9412 31.0636 21.4661 29.8503 21.4117L30.1233 23.6999C30.2312 24.604 29.9527 25.3919 29.4574 25.9775L28.0222 24.5423C28.118 24.371 28.1646 24.165 28.1374 23.9369L27.7292 20.5157C26.3283 19.107 26.6151 16.5445 28.372 14.7876ZM19.6747 23.2658C19.255 23.8948 19.0683 24.6985 19.2728 25.5855L19.9549 28.5442C20.1642 29.4522 19.1274 30.1278 18.3814 29.5696L17.8924 29.2037C15.7086 27.5697 12.6539 29.4616 13.1439 32.1447L13.4034 33.5659L15.3709 33.2066L15.1114 31.7854C14.9481 30.891 15.9663 30.2604 16.6942 30.8051L17.1832 31.1709C19.4213 32.8456 22.5317 30.8188 21.9038 28.0949L21.2217 25.1363C21.1939 25.0158 21.1878 24.9 21.1997 24.7909L19.6747 23.2658Z" fill="#333333"/>
</svg>
