<svg width="48" height="48" viewBox="0 0 48 48" fill="none" xmlns="http://www.w3.org/2000/svg">
<path fill-rule="evenodd" clip-rule="evenodd" d="M19 10C16.7909 10 15 11.7909 15 14H13C13 10.6863 15.6863 8 19 8H29C29.5523 8 30 8.44772 30 9V10H31V8H34V14H31V12H30V13C30 13.5523 29.5523 14 29 14H27V21.5858L27.7071 22.2929L28 22.5858V23V39C28 40.6569 26.6569 42 25 42H24C22.3431 42 21 40.6569 21 39V23V22.5858L21.2929 22.2929L22 21.5858V14H21C19.8954 14 19 13.1046 19 12V10ZM24 14H25V22V22.4142L25.2929 22.7071L26 23.4142V39C26 39.5523 25.5523 40 25 40H24C23.4477 40 23 39.5523 23 39V23.4142L23.7071 22.7071L24 22.4142V22V14Z" fill="#333333"/>
</svg>
