<svg width="48" height="48" viewBox="0 0 48 48" fill="none" xmlns="http://www.w3.org/2000/svg">
<path fill-rule="evenodd" clip-rule="evenodd" d="M37.5 35C35.567 35 34 33.433 34 31.5C34 29.567 35.567 28 37.5 28C39.433 28 41 29.567 41 31.5C41 33.433 39.433 35 37.5 35ZM37.5 38C33.9101 38 31 35.0899 31 31.5C31 27.9101 33.9101 25 37.5 25C41.0899 25 44 27.9101 44 31.5C44 35.0899 41.0899 38 37.5 38Z" fill="#333333"/>
<path fill-rule="evenodd" clip-rule="evenodd" d="M28.9073 10.5795C28.7435 10.2261 28.3895 10 28 10H23V12H27.3613L36.5927 31.9205C36.8249 32.4216 37.4194 32.6395 37.9205 32.4073C38.4216 32.1751 38.6395 31.5806 38.4073 31.0795L28.9073 10.5795Z" fill="#333333"/>
<path fill-rule="evenodd" clip-rule="evenodd" d="M10.5 35C8.567 35 7 33.433 7 31.5C7 29.567 8.567 28 10.5 28C12.433 28 14 29.567 14 31.5C14 33.433 12.433 35 10.5 35ZM10.5 38C6.91015 38 4 35.0899 4 31.5C4 27.9101 6.91015 25 10.5 25C14.0899 25 17 27.9101 17 31.5C17 35.0899 14.0899 38 10.5 38Z" fill="#333333"/>
<path fill-rule="evenodd" clip-rule="evenodd" d="M21.5 31.5C21.5 32.0523 21.0523 32.5 20.5 32.5H10.5C9.94775 32.5 9.50004 32.0523 9.50004 31.5C9.50004 30.9477 9.94775 30.5 10.5 30.5H20.5C21.0523 30.5 21.5 30.9477 21.5 31.5Z" fill="#333333"/>
<path d="M28.0528 23.8944L29.0528 21.8944C29.3343 21.3314 29.3343 20.6686 29.0528 20.1056L28.0528 18.1056C27.714 17.428 27.0215 17 26.2639 17H22.9827C22.1112 17 21.2455 17.1424 20.4199 17.4216L17.275 18.4852C16.6399 18.6999 16.3919 19.4665 16.7808 20.0126L20.0342 24.5802C20.2218 24.8436 20.5253 25 20.8487 25H26.2639C27.0215 25 27.714 24.572 28.0528 23.8944Z" fill="#333333"/>
<path d="M5 19H13.0964C13.4037 19 13.694 19.1414 13.8836 19.3833L16.7663 23.0633C17.0394 23.4121 16.7577 23.9175 16.3174 23.8686L4.88957 22.5988C4.38314 22.5426 4 22.1145 4 21.605V20C4 19.4477 4.44771 19 5 19Z" fill="#333333"/>
<path d="M28 27H22C20.8954 27 20 27.8954 20 29V31C20 32.1046 20.8954 33 22 33H26C27.1046 33 28 32.1046 28 31V27Z" fill="#333333"/>
<path d="M33.309 15H37.2397C37.4028 15 37.5557 15.0796 37.6493 15.2133L40.4493 19.2133C40.6813 19.5447 40.4442 20 40.0397 20H35.309C35.1196 20 34.9465 19.893 34.8618 19.7236L32.8618 15.7236C32.6956 15.3912 32.9373 15 33.309 15Z" fill="#333333"/>
</svg>
