<svg width="48" height="48" viewBox="0 0 48 48" fill="none" xmlns="http://www.w3.org/2000/svg">
<path fill-rule="evenodd" clip-rule="evenodd" d="M10 8C10 5.79086 11.7909 4 14 4H34C36.2091 4 38 5.79086 38 8V29.5155C36.5699 28.5583 34.8501 28 33 28C28.0294 28 24 32.0294 24 37C24 38.8501 24.5583 40.5699 25.5155 42H14C11.7909 42 10 40.2091 10 38V8ZM14 12C14 11.4477 14.4477 11 15 11H33C33.5523 11 34 11.4477 34 12C34 12.5523 33.5523 13 33 13H15C14.4477 13 14 12.5523 14 12ZM15 15C14.4477 15 14 15.4477 14 16C14 16.5523 14.4477 17 15 17H33C33.5523 17 34 16.5523 34 16C34 15.4477 33.5523 15 33 15H15ZM14 24C14 23.4477 14.4477 23 15 23H33C33.5523 23 34 23.4477 34 24C34 24.5523 33.5523 25 33 25H15C14.4477 25 14 24.5523 14 24ZM15 19C14.4477 19 14 19.4477 14 20C14 20.5523 14.4477 21 15 21H33C33.5523 21 34 20.5523 34 20C34 19.4477 33.5523 19 33 19H15ZM14 28C14 27.4477 14.4477 27 15 27H24C24.5523 27 25 27.4477 25 28C25 28.5523 24.5523 29 24 29H15C14.4477 29 14 28.5523 14 28ZM40 37C40 40.866 36.866 44 33 44C29.134 44 26 40.866 26 37C26 33.134 29.134 30 33 30C36.866 30 40 33.134 40 37ZM35.567 33.0142C35.9575 32.6236 36.5907 32.6237 36.9812 33.0142C37.3717 33.4047 37.3717 34.0379 36.9812 34.4284L36.1902 35.2193L34.776 33.8051L35.567 33.0142ZM34.0689 34.5122L35.4831 35.9264L30.4143 40.9953H29.0001L29 39.581L34.0689 34.5122Z" fill="#333333"/>
</svg>
