<svg width="48" height="48" viewBox="0 0 48 48" fill="none" xmlns="http://www.w3.org/2000/svg">
<g clip-path="url(#clip0)">
<path fill-rule="evenodd" clip-rule="evenodd" d="M16.1895 24.3362C16.2921 24.343 16.4246 24.3478 16.5937 24.3476C17.4209 24.347 18.2209 24.5267 18.9156 24.9694C19.6174 25.4167 20.0532 26.0313 20.3141 26.6296C20.6014 27.2885 20.7006 28.0033 20.7346 28.5769C21.4537 28.6696 22.506 28.6743 23.9818 28.6731C25.4576 28.6719 26.5099 28.6654 27.2289 28.5716C27.2619 27.9979 27.36 27.2829 27.6462 26.6235C27.9061 26.0249 28.3409 25.4095 29.042 24.9611C29.736 24.5172 30.5356 24.3362 31.3629 24.3356C31.5319 24.3354 31.6644 24.3304 31.767 24.3234C31.8055 24.0199 31.8238 23.5842 31.8233 22.9318C31.8219 21.1781 32.5309 20.1116 32.9595 19.4669C33.0412 19.3441 33.1127 19.2366 33.1671 19.1426C33.4831 18.5968 33.9727 17.575 33.9703 14.5764C33.9681 11.9632 32.8148 10.0641 31.0319 8.75737C29.1908 7.40798 26.6292 6.67094 23.9638 6.67312C21.2984 6.67531 18.738 7.41654 16.8991 8.76894C15.1184 10.0786 13.9681 11.9796 13.9703 14.5928C13.9727 17.5913 14.464 18.6124 14.7809 19.1577C14.8355 19.2516 14.9072 19.359 14.989 19.4817C15.4187 20.1256 16.1295 21.1909 16.131 22.9447C16.1315 23.5971 16.1505 24.0327 16.1895 24.3362ZM14.131 22.9463C14.1333 25.7309 14.4414 26.3494 16.5953 26.3476C18.7491 26.3459 18.7507 28.2022 18.7517 29.4398C18.7527 30.6774 20.9066 30.6756 23.9834 30.6731C27.0603 30.6706 29.2142 30.6688 29.2132 29.4313C29.2122 28.1937 29.2107 26.3373 31.3645 26.3356C33.5184 26.3338 33.8255 25.7147 33.8233 22.9302C33.8224 21.8285 34.1591 21.3077 34.5661 20.6782C35.1878 19.7167 35.9735 18.5015 35.9703 14.5748C35.9595 1.35946 11.9594 1.37912 11.9703 14.5945C11.9735 18.5211 12.7612 19.735 13.3844 20.6956C13.7925 21.3244 14.13 21.8446 14.131 22.9463Z" fill="#333333"/>
<path d="M22.4774 20.4816C22.4785 21.8623 21.3601 22.9825 19.9794 22.9836C18.5987 22.9848 17.4785 21.8664 17.4774 20.4857C17.4763 19.105 18.5946 17.9848 19.9753 17.9836C21.3561 17.9825 22.4763 19.1009 22.4774 20.4816Z" fill="#333333"/>
<path d="M30.4774 20.475C30.4785 21.8557 29.3601 22.9759 27.9794 22.9771C26.5987 22.9782 25.4785 21.8598 25.4774 20.4791C25.4763 19.0984 26.5946 17.9782 27.9753 17.9771C29.3561 17.9759 30.4763 19.0943 30.4774 20.475Z" fill="#333333"/>
<path fill-rule="evenodd" clip-rule="evenodd" d="M20.415 37.224L9.37397 33.6851L9.98443 31.7805L23.682 36.1709L37.3724 31.7581L37.986 33.6616L26.9508 37.2187L37.9918 40.7576L37.3813 42.6621L23.6837 38.2717L9.99336 42.6846L9.37978 40.781L20.415 37.224Z" fill="#333333"/>
</g>
<defs>
<clipPath id="clip0">
<rect width="48" height="48" fill="white"/>
</clipPath>
</defs>
</svg>
