<svg width="48" height="48" viewBox="0 0 48 48" fill="none" xmlns="http://www.w3.org/2000/svg">
<path fill-rule="evenodd" clip-rule="evenodd" d="M8.05655 23.9707L6.86383 24.7066C5.64458 25.4588 5.58843 27.2114 6.75703 28.0401L22.8484 39.4514C23.5388 39.941 24.4626 39.943 25.1551 39.4565L41.3962 28.0455C42.5744 27.2177 42.5181 25.4536 41.2895 24.7026L39.8479 23.8214L38.0784 25.0838L40.2464 26.409L24.0054 37.82L7.91396 26.4087L9.84309 25.2185L8.05655 23.9707ZM33.4418 22.2497L24.0049 16.4814L14.4796 22.358L12.693 21.1102L22.9547 14.7793C23.596 14.3837 24.4051 14.382 25.0479 14.7749L35.2113 20.9873L33.4418 22.2497Z" fill="#333333"/>
<path fill-rule="evenodd" clip-rule="evenodd" d="M24.0048 9.48139L7.91391 19.4087L24.0053 30.82L40.2464 19.4091L24.0048 9.48139ZM6.86378 17.7066C5.64453 18.4588 5.58838 20.2114 6.75698 21.0401L22.8484 32.4514C23.5388 32.941 24.4626 32.943 25.1551 32.4565L41.3961 21.0455C42.5744 20.2177 42.518 18.4536 41.2894 17.7026L25.0479 7.77494C24.4051 7.38199 23.5959 7.38367 22.9547 7.77927L6.86378 17.7066Z" fill="#333333"/>
</svg>
