<svg width="48" height="48" viewBox="0 0 48 48" fill="none" xmlns="http://www.w3.org/2000/svg">
<path fill-rule="evenodd" clip-rule="evenodd" d="M12.9524 4.09151C11.2955 4.09286 9.95348 5.43711 9.95484 7.09396L9.97531 32.094C9.97667 33.7508 11.3209 35.0929 12.9778 35.0915L17.7278 35.0876C18.4181 35.087 18.9773 34.5269 18.9767 33.8366C18.9762 33.1462 19.5354 32.5861 20.2257 32.5856L27.7257 32.5794C28.4161 32.5789 28.9762 33.138 28.9767 33.8284C28.9773 34.5187 29.5374 35.0779 30.2278 35.0774L34.9778 35.0735C36.6346 35.0721 37.9767 33.7279 37.9753 32.071L37.9548 7.07103C37.9535 5.41418 36.6092 4.07213 34.9524 4.07349L12.9524 4.09151ZM32.9556 8.0751L14.9556 8.08984L14.9704 26.0898L32.9704 26.0751L32.9556 8.0751ZM15.9734 29.589C15.9729 29.0367 16.4203 28.5886 16.9726 28.5882L20.9724 28.5849C21.5247 28.5845 21.9728 29.0318 21.9732 29.5841C21.9737 30.1364 21.5264 30.5845 20.9741 30.5849L16.9742 30.5882C16.4219 30.5886 15.9738 30.1413 15.9734 29.589ZM26.9726 28.58C26.4203 28.5805 25.9729 29.0285 25.9734 29.5808C25.9738 30.1331 26.4219 30.5805 26.9742 30.58L30.9741 30.5767C31.5264 30.5763 31.9737 30.1282 31.9732 29.5759C31.9728 29.0236 31.5247 28.5763 30.9724 28.5767L26.9726 28.58Z" fill="#333333"/>
<path d="M27.9641 18.3342C27.9659 20.4676 26.2072 22.1452 23.9672 22.147C21.7272 22.1489 19.9659 20.4741 19.9641 18.3408C19.9624 16.2075 23.9585 11.4804 23.9585 11.4804C23.9585 11.4804 27.9625 16.3533 27.9641 18.3342Z" fill="#333333"/>
<path fill-rule="evenodd" clip-rule="evenodd" d="M27.9762 33.0792L19.9762 33.0858L19.9836 42.0858L27.9836 42.0792L27.9762 33.0792ZM17.9746 31.0874L17.9853 44.0874L29.9853 44.0776L29.9746 31.0776L17.9746 31.0874Z" fill="#333333"/>
<path d="M25.9804 38.0808C25.9813 39.1854 25.0866 40.0816 23.982 40.0825C22.8775 40.0834 21.9813 39.1887 21.9804 38.0841C21.9795 36.9795 22.8742 36.0834 23.9788 36.0825C25.0833 36.0816 25.9795 36.9763 25.9804 38.0808Z" fill="#333333"/>
</svg>
