<svg width="48" height="48" viewBox="0 0 48 48" fill="none" xmlns="http://www.w3.org/2000/svg">
<path d="M42.9822 28.942C42.9835 30.542 41.6646 31.8002 39.9846 31.8016C38.3046 31.803 36.9835 30.5469 36.9822 28.9469C36.9809 27.3469 39.978 23.8016 39.978 23.8016C39.978 23.8016 42.981 27.4563 42.9822 28.942Z" fill="#333333"/>
<path fill-rule="evenodd" clip-rule="evenodd" d="M24.1257 17.5979L41.8448 17.5833C43.0201 17.5824 43.9737 18.5344 43.9747 19.7097C43.9756 20.885 43.0236 21.8385 41.8483 21.8395L41.8432 21.8395C41.9291 21.672 41.9761 21.4901 41.976 21.3C41.9753 20.4716 41.0793 19.8007 39.9747 19.8016C38.8702 19.8025 37.9753 20.4748 37.976 21.3033C37.9761 21.4934 38.0234 21.6752 38.1096 21.8426L25.0875 21.8532L25.0884 22.9173L31.9773 22.9116C33.0818 22.9107 33.978 23.8054 33.9789 24.91L33.9791 25.1661C33.98 26.2707 33.0853 27.1669 31.9808 27.1678L25.0919 27.1734L25.0928 28.2375L30.8705 28.2327C31.9751 28.2318 32.8713 29.1265 32.8722 30.2311L32.8724 30.4873C32.8733 31.5918 31.9786 32.488 30.874 32.4889L22.874 32.4954L22.8749 33.5595L26.986 33.5561C28.0906 33.5552 28.9867 34.4499 28.9876 35.5545L28.9878 35.8106C28.9887 36.9152 28.094 37.8114 26.9895 37.8123L19.545 37.8184L15.4457 37.8217C9.1186 37.8269 3.98529 32.702 3.98011 26.3749C3.97629 21.7203 6.78906 17.5261 11.0968 15.763L23.9795 10.4902C24.9531 10.0917 26.073 10.402 26.7027 11.2448C27.583 12.423 27.1516 14.113 25.8142 14.725L23.7088 15.6885C22.7317 16.1357 23.0512 17.5987 24.1257 17.5979Z" fill="#333333"/>
</svg>
