<svg width="48" height="48" viewBox="0 0 48 48" fill="none" xmlns="http://www.w3.org/2000/svg">
<path d="M42.9822 28.942C42.9835 30.542 41.6646 31.8002 39.9846 31.8016C38.3046 31.803 36.9835 30.5469 36.9822 28.9469C36.9809 27.3469 39.978 23.8016 39.978 23.8016C39.978 23.8016 42.981 27.4563 42.9822 28.942Z" fill="#333333"/>
<path fill-rule="evenodd" clip-rule="evenodd" d="M24.1256 17.5978L41.8447 17.5833C43.02 17.5823 43.9736 18.5343 43.9745 19.7096C43.9755 20.8849 43.0235 21.8385 41.8482 21.8394L41.8431 21.8394C41.929 21.672 41.976 21.4901 41.9758 21.2999C41.9752 20.4715 41.0792 19.8007 39.9746 19.8016C38.87 19.8025 37.9752 20.4748 37.9758 21.3032C37.976 21.4933 38.0233 21.6752 38.1095 21.8425L25.0874 21.8532L25.0883 22.9172L31.9772 22.9116C33.0817 22.9107 33.9779 23.8054 33.9788 24.9099L33.979 25.1661C33.9799 26.2706 33.0852 27.1668 31.9806 27.1677L25.0918 27.1734L25.0926 28.2374L30.8704 28.2327C31.975 28.2318 32.8711 29.1265 32.872 30.231L32.8723 30.4872C32.8732 31.5918 31.9785 32.4879 30.8739 32.4888L22.8739 32.4954L22.8748 33.5594L26.9859 33.5561C28.0904 33.5551 28.9866 34.4498 28.9875 35.5544L28.9877 35.8106C28.9886 36.9151 28.0939 37.8113 26.9894 37.8122L19.5449 37.8183L15.4456 37.8217C9.11848 37.8268 3.98517 32.7019 3.97998 26.3748C3.97617 21.7203 6.78894 17.5261 11.0967 15.763L23.9794 10.4902C24.953 10.0917 26.0729 10.402 26.7026 11.2448C27.5829 12.4229 27.1514 14.1129 25.8141 14.7249L23.7087 15.6885C22.7316 16.1356 23.0511 17.5987 24.1256 17.5978Z" fill="#333333"/>
</svg>
