<svg width="48" height="48" viewBox="0 0 48 48" fill="none" xmlns="http://www.w3.org/2000/svg">
<path d="M31.0281 13.992C31.0281 13.992 32.5622 20.4539 32.8086 19.9746C33.8337 17.9804 34.2653 17.9181 33.8337 11.8108C33.358 5.08032 25.2552 4.76882 22.3418 4.14553C17.4956 3.10877 17.8098 7.94691 17.4321 8.07164C11.2815 13.0573 15.274 19.7253 15.274 19.7253C15.274 19.7253 16.8386 10.6268 20.0218 10.8137C26.0105 14.8022 31.0281 13.992 31.0281 13.992Z" fill="#333333"/>
<path fill-rule="evenodd" clip-rule="evenodd" d="M15.6354 29.6118C15.4505 30.2356 15.4381 30.9817 15.7149 31.8728C15.8088 31.8639 15.9039 31.8594 16 31.8594C17.6569 31.8594 19 33.2125 19 34.8816C19 36.5507 17.6569 37.9038 16 37.9038C14.3431 37.9038 13 36.5507 13 34.8816C13 34.04 13.3415 33.2787 13.8925 32.7308C13.4321 31.4151 13.3829 30.1739 13.7178 29.0435C13.7252 29.0186 13.7328 28.9937 13.7406 28.9689C9.54212 30.4709 6 32.864 6 36.1407V43H42V36.1407C42 32.8934 38.5212 30.5139 34.3723 29.0095C34.5763 29.5899 34.6923 30.2076 34.7142 30.8594H34.9412C35.1715 30.8594 35.3947 30.9389 35.5732 31.0844L37.632 32.7634C37.8649 32.9533 38 33.2379 38 33.5384V37.9038C38 38.4561 37.5523 38.9038 37 38.9038H34.9412V36.9038H36V34.0132L34.5851 32.8594H34.5045C34.4953 32.8988 34.4858 32.9383 34.476 32.9778L33.9986 32.8594H32.4149L31 34.0132V36.9038H32.0588V38.9038H30C29.4477 38.9038 29 38.4561 29 37.9038V33.5384C29 33.2379 29.1351 32.9533 29.368 32.7634L31.4268 31.0844C31.6053 30.9389 31.8285 30.8594 32.0588 30.8594H32.7126C32.6878 30.347 32.5803 29.8887 32.4114 29.4785C32.2091 28.9872 31.9073 28.537 31.5142 28.1301C31.3833 28.0963 31.2523 28.0633 31.1214 28.0312C30.6186 27.9076 30.1029 28.1604 29.8746 28.6282L25.8105 28.6282C24.9218 28.6284 24.4694 28.6284 24.0249 28.6284H24.0248H24.0248C23.5637 28.6283 23.1112 28.6283 22.1893 28.6285L18.1254 28.6282C17.8971 28.1604 17.3814 27.9076 16.8786 28.0312C16.7666 28.0587 16.6544 28.0869 16.5424 28.1156C16.0993 28.572 15.7951 29.073 15.6354 29.6118ZM17 34.8816C17 35.4601 16.5384 35.9038 16 35.9038C15.4616 35.9038 15 35.4601 15 34.8816C15 34.3031 15.4616 33.8594 16 33.8594C16.5384 33.8594 17 34.3031 17 34.8816Z" fill="#333333"/>
</svg>
