<svg width="48" height="48" viewBox="0 0 48 48" fill="none" xmlns="http://www.w3.org/2000/svg">
<path d="M40.7463 23.0423L41.8489 24.8573C42.1245 25.3141 42.012 25.9253 41.6014 26.2339C40.932 26.4422 39.9826 27.0323 39.4975 26.2284C38.2712 24.2097 37.5118 23.7029 36.6005 22.9498L38.8563 32.9749L36.6005 42H33.6003H31.5C31.5 39.6051 33.0076 40.2639 33.1759 40.182L33.1901 40.1667C33.6999 38.4297 36.6005 37 35.0343 32.9749C35.1472 31.8349 33.1901 32 32.6003 30.3099C32.0105 28.6197 29.055 31.667 27.8516 32C25.5 33.5 23.1579 33.7333 20.9714 31.3099C19.7476 32.3435 20.2919 36.2135 20.3999 39C20.4658 40.7022 19.9714 42 19.9714 42H16.7997H15C15 39.5 16.7997 40.1667 16.7997 40.1667L17.7997 35.4597L16.7997 28.7527L14 20.9167L11.6189 24.2214C11.2813 24.5918 10.8257 24.8017 10.3475 24.8017H8.60372C7.92307 24.8017 7.29867 24.3757 6.9949 23.709L6.19049 21.9434C5.88673 21.2767 5.94861 20.4741 6.35925 19.8753L10.5557 13.7451C10.6513 13.6031 10.7919 13.5167 10.9157 13.4118C10.6907 13.2759 10.4657 13.1525 10.28 12.9488C9.35751 11.9363 9.245 7.36826 9.93691 6.22001C10.0944 5.96073 10.4319 5.92369 10.6344 6.14593C13.083 8.8268 13 13.4118 15.8322 13.8624L20.3999 18.8752H33.6529C36.5105 18.8752 39.16 20.4309 40.7463 23.0423Z" fill="#333333"/>
</svg>
