<svg width="48" height="48" viewBox="0 0 48 48" fill="none" xmlns="http://www.w3.org/2000/svg">
<path d="M13 9.50049C13 11.4335 14.567 13.0005 16.5 13.0005C18.433 13.0005 20 11.4335 20 9.50049C20 7.56749 18.433 6.00049 16.5 6.00049C14.567 6.00049 13 7.56749 13 9.50049Z" fill="#333333"/>
<path fill-rule="evenodd" clip-rule="evenodd" d="M29.4489 16.0511C29.3046 16.018 29.1543 16.0005 29 16.0005H20V28.0005H13V16.0005H12C8.68629 16.0005 6 18.6868 6 22.0005C6 24.9735 8.16229 27.4415 11 27.9175V40.0005C11 41.1051 11.8954 42.0005 13 42.0005C14.1046 42.0005 15 41.1051 15 40.0005L15 31.0005H18L18 40.0005C18 41.1051 18.8954 42.0005 20 42.0005C21.1046 42.0005 22 41.1051 22 40.0005V20.0005H29C29.4766 20.0005 29.9143 19.8338 30.2579 19.5554L32.256 28.21C30.1035 28.707 28.7614 30.8548 29.2583 33.0073L30.3086 42.0016L33.1323 41.3497L32.1025 36.435L34.06 36.0249L35.0815 40.8997L42.001 39.3022L39.002 30.7578C38.5051 28.6053 36.3573 27.2632 34.2048 27.7601L30.3806 11.1958C30.2563 10.6577 29.7194 10.3222 29.1813 10.4464C28.6431 10.5706 28.3076 11.1076 28.4318 11.6457L29.4489 16.0511ZM9 22.0005C9 20.8959 9.89543 20.0005 11 20.0005V24.0005C9.89543 24.0005 9 23.1051 9 22.0005ZM34.6547 29.7089L32.7059 30.1588C31.6297 30.4072 30.9586 31.4812 31.2071 32.5574L37.0533 31.2077C36.8048 30.1314 35.7309 29.4604 34.6547 29.7089Z" fill="#333333"/>
<path d="M18 16.0005V19.0005H15V16.0005H18Z" fill="#333333"/>
</svg>
