<svg width="48" height="48" viewBox="0 0 48 48" fill="none" xmlns="http://www.w3.org/2000/svg">
<path fill-rule="evenodd" clip-rule="evenodd" d="M6 18.7241C6 12.6409 10.0359 7 15.5625 7C19.3976 7 22.2434 9.53088 24 13.1211C25.7565 9.53111 28.6022 7 32.4375 7C37.9647 7 42 12.6419 42 18.7241C42 31.7444 24 41 24 41C24 41 6 32.3045 6 18.7241ZM24.1012 27.0676C24.6161 27.2673 24.8717 27.8466 24.672 28.3615C24.631 28.4672 24.5931 28.5695 24.558 28.6686C24.8762 27.7708 25.4325 26.6005 26.3638 25.0039C26.6421 24.5268 26.481 23.9145 26.0039 23.6362C25.5269 23.3579 24.9146 23.5191 24.6363 23.9961C23.7926 25.4424 23.2008 26.6243 22.8094 27.6331C23.011 27.1218 23.588 26.8687 24.1012 27.0676ZM22.7432 27.8071C20.4287 28.7382 17 27.8912 17 24.9585C17 21.9204 19.3234 21.1928 22.5046 20.1966C25.039 19.4029 28.1178 18.4388 31 16V27.1982C31 31.2132 25.9605 30.7919 24.4334 29.045C24.1418 29.9971 24.1394 30.6236 24.2276 31.1585C24.2859 31.5116 24.3889 31.8562 24.5267 32.2823L24.5831 32.4556C24.7056 32.8315 24.8473 33.2664 24.9701 33.7575C25.104 34.2933 24.7783 34.8362 24.2425 34.9701C23.7067 35.1041 23.1637 34.7783 23.0298 34.2425C22.9253 33.8245 22.8067 33.4603 22.6838 33.0828L22.6237 32.8976C22.4836 32.4644 22.339 31.9968 22.2543 31.4841C22.0827 30.4439 22.1753 29.3316 22.7432 27.8071Z" fill="#333333"/>
</svg>
