<svg width="48" height="48" viewBox="0 0 48 48" fill="none" xmlns="http://www.w3.org/2000/svg">
<path fill-rule="evenodd" clip-rule="evenodd" d="M37.0705 9.00181C37.0705 11.2119 35.2796 13.0036 33.0704 13.0036C30.8612 13.0036 29.0703 11.2119 29.0703 9.00181C29.0703 6.79167 30.8612 5 33.0704 5C35.2796 5 37.0705 6.79167 37.0705 9.00181ZM28.775 11.5049H27.6751C26.7761 11.5049 24 13.1395 24 16.3153C24 20.5291 26.7761 22.2402 27.6751 22.2402V41.868C27.6751 42.767 28.4106 43.5026 29.3097 43.5026L29.3193 43.5025L29.3289 43.5026C30.2279 43.5026 30.9635 42.767 30.9635 41.868V30.216H35.2134V41.868C35.2134 42.767 35.9489 43.5026 36.848 43.5026L36.8576 43.5025L36.8672 43.5026C37.7662 43.5026 38.5018 42.767 38.5018 41.868V17.2311L40.687 23.4942C40.9599 24.2763 41.8152 24.6892 42.5974 24.4163C43.3796 24.1434 43.7925 23.288 43.5195 22.5058L40.2664 13.1823C39.9162 12.1784 38.9693 11.5059 37.906 11.5059H37.431C36.5656 12.9971 34.9516 14 33.1033 14C31.2546 14 29.6402 12.9967 28.775 11.5049ZM42.1033 25C40.4464 25 39.1033 26.3431 39.1033 28V28.6667C39.1033 29.219 39.551 29.6667 40.1033 29.6667C40.6556 29.6667 41.1033 29.219 41.1033 28.6667V28C41.1033 27.4477 41.551 27 42.1033 27C42.6556 27 43.1033 27.4477 43.1033 28V42C43.1033 42.5523 43.551 43 44.1033 43C44.6556 43 45.1033 42.5523 45.1033 42V28C45.1033 26.3431 43.7601 25 42.1033 25Z" fill="#333333"/>
<path fill-rule="evenodd" clip-rule="evenodd" d="M13.1033 5C13.1033 5.17833 13.0799 5.35121 13.0361 5.51575C14.2506 6.20267 15.0705 7.50646 15.0705 9.00181C15.0705 11.2119 13.2796 13.0036 11.0704 13.0036C8.86121 13.0036 7.07031 11.2119 7.07031 9.00181C7.07031 7.48296 7.9161 6.16174 9.16219 5.48383C9.1237 5.3289 9.10327 5.16683 9.10327 5C9.10327 3.89543 9.9987 3 11.1033 3C12.2078 3 13.1033 3.89543 13.1033 5ZM6.77501 11.5049H5.67508C4.77607 11.5049 2 13.1395 2 16.3153C2 20.5186 4.76231 22.2317 5.66836 22.2402L3.09644 33.215H5.67508V41.868C5.67508 42.767 6.41064 43.5026 7.30966 43.5026C8.20867 43.5026 8.94423 42.767 8.94423 41.868V33.216H13.2134V41.868C13.2134 42.767 13.9489 43.5026 14.848 43.5026C15.747 43.5026 16.4825 42.767 16.4825 41.868V33.215H19.1487L16.4825 21.8381V16.3704L19.7349 23.6144C20.0742 24.3701 20.9619 24.7077 21.7176 24.3684C22.4734 24.0291 22.811 23.1414 22.4717 22.3856L18.2497 12.9819C17.8464 12.0837 16.9536 11.5059 15.969 11.5059H15.431C14.5656 12.9971 12.9516 14 11.1033 14C9.25458 14 7.64023 12.9967 6.77501 11.5049ZM19.1033 28C19.1033 26.3431 20.4464 25 22.1033 25C23.7601 25 25.1033 26.3431 25.1033 28V42C25.1033 42.5523 24.6556 43 24.1033 43C23.551 43 23.1033 42.5523 23.1033 42V28C23.1033 27.4477 22.6556 27 22.1033 27C21.551 27 21.1033 27.4477 21.1033 28V28.6667C21.1033 29.219 20.6556 29.6667 20.1033 29.6667C19.551 29.6667 19.1033 29.219 19.1033 28.6667V28Z" fill="#333333"/>
</svg>
