<svg width="48" height="48" viewBox="0 0 48 48" fill="none" xmlns="http://www.w3.org/2000/svg">
<path fill-rule="evenodd" clip-rule="evenodd" d="M18.8792 13.054C19.2787 14.0246 19.5599 15.013 19.7318 15.9999H17.0001C15.8955 15.9999 15.0001 16.8953 15.0001 17.9999V21.4249H7.84894L7.92429 29.6888C9.59598 30.0371 11.1275 29.9688 12.4903 29.5918C12.19 28.7294 12.5078 27.7176 13.3593 27.2124L15.1821 26.1309C15.8764 25.719 16.7388 25.7692 17.3758 26.2309C17.5233 26.0409 17.6653 25.845 17.8016 25.6435C19.566 23.0348 20.3464 19.5267 19.7318 15.9999L21.7582 16C21.5709 14.7676 21.2361 13.5331 20.7419 12.325L23.6645 11.1811L22.9356 9.31871L21.5883 9.84601L20.0458 6.13182L15.1202 8.09074L16.5995 11.7985L15.2935 12.3097L16.0224 14.1721L18.8792 13.054ZM17.7198 9.20925L18.4532 11.0476L19.7134 10.5461L18.9543 8.71826L17.7198 9.20925Z" fill="currentColor"/>
<path d="M7.94288 31.7284L8.00006 37.9999H21.0189C22.6226 39.5444 25.84 41.9998 31.0001 41.9999C34.6684 41.9999 42.0001 38.551 42.0001 27.9999C42.0001 22.5769 41.165 20.3528 39.2041 18.2382C39.1214 18.149 39.0411 18.0615 38.9626 17.9761L38.9617 17.975L38.9592 17.9724C38.2611 17.2121 37.7056 16.6072 36.8737 16.2949C33.8342 15.154 29.5146 13.5756 26.7536 12.5708C25.4505 12.0966 24.0762 13.0628 24.0762 14.4494V15.9999L21.7582 16C22.3528 19.9134 21.4595 23.8053 19.4582 26.764C19.2378 27.09 19.0036 27.405 18.7561 27.7077C19.2423 28.6198 18.9549 29.8056 18.0093 30.3666L16.1865 31.448C15.4452 31.8879 14.5122 31.8008 13.8665 31.2484C13.7545 31.2896 13.6415 31.329 13.5275 31.3666C11.8421 31.9231 9.98049 32.0749 8.00006 31.7381V29.7045C7.3116 29.5659 6.59916 29.3565 5.86474 29.0689L5.13531 30.9311C6.09251 31.306 7.03023 31.5691 7.94288 31.7284Z" fill="currentColor"/>
</svg>
