<svg width="48" height="48" viewBox="0 0 48 48" fill="none" xmlns="http://www.w3.org/2000/svg">
<path fill-rule="evenodd" clip-rule="evenodd" d="M42.7408 31C43.5549 28.8213 44 26.4626 44 24C44 12.9543 35.0457 4 24 4C12.9543 4 4 12.9543 4 24C4 35.0457 12.9543 44 24 44C27.4059 44 30.6129 43.1487 33.4199 41.6472C33.5223 41.8635 33.6182 42.077 33.7045 42.2863C34.2027 43.4936 34.9069 44.8252 35.7191 45.848C36.2681 46.5393 37.0855 47 38 47C39.6569 47 41 45.6569 41 44C41 43.7503 40.9695 43.5077 40.912 43.2757C40.8606 43.0686 40.9732 42.8467 41.1697 42.7634C41.3445 42.6893 41.5498 42.7418 41.6694 42.8892C42.2195 43.5669 43.0592 44 44 44C45.6569 44 47 42.6569 47 41C47 39.8976 46.4054 38.9341 45.5194 38.4127C45.1545 38.1979 44.9146 37.7533 44.9641 37.3329C44.9993 37.0336 45.1901 36.7712 45.4535 36.625C46.3758 36.1132 47 35.1295 47 34C47 32.3431 45.6569 31 44 31H42.7408ZM13.4472 18.1056C12.9532 17.8586 12.3526 18.0588 12.1056 18.5528C11.8586 19.0468 12.0588 19.6474 12.5528 19.8944L14.7639 21L12.5528 22.1056C12.0588 22.3526 11.8586 22.9532 12.1056 23.4472C12.3526 23.9412 12.9532 24.1414 13.4472 23.8944L17.4472 21.8944C17.786 21.725 18 21.3788 18 21C18 20.6212 17.786 20.275 17.4472 20.1056L13.4472 18.1056ZM35.8944 18.5528C35.6474 18.0588 35.0468 17.8586 34.5528 18.1056L30.5528 20.1056C30.214 20.275 30 20.6212 30 21C30 21.3788 30.214 21.725 30.5528 21.8944L34.5528 23.8944C35.0468 24.1414 35.6474 23.9412 35.8944 23.4472C36.1414 22.9532 35.9412 22.3526 35.4472 22.1056L33.2361 21L35.4472 19.8944C35.9412 19.6474 36.1414 19.0468 35.8944 18.5528ZM24.5 35C26.433 35 28 33.2091 28 31C28 28.7909 26.433 27 24.5 27C22.567 27 21 28.7909 21 31C21 33.2091 22.567 35 24.5 35ZM16.3288 28.2588C16.7381 27.888 17.3705 27.9194 17.7412 28.3288C18.2271 28.8653 18.7857 29.792 18.9515 30.9167C19.1242 32.0887 18.8604 33.4354 17.7412 34.6712C17.3705 35.0806 16.7381 35.112 16.3288 34.7412C15.9194 34.3705 15.888 33.7381 16.2588 33.3288C16.9507 32.5646 17.0642 31.828 16.9728 31.2083C16.8745 30.5414 16.5275 29.9681 16.2588 29.6712C15.888 29.2619 15.9194 28.6295 16.3288 28.2588ZM32 34C32.5523 34 33 33.5523 33 33C33 32.4477 32.5523 32 32 32C31.4477 32 31 32.4477 31 33C31 33.5523 31.4477 34 32 34ZM45 34C45 34.5523 44.5523 35 44 35C43.4477 35 43 34.5523 43 34C43 33.4477 43.4477 33 44 33C44.5523 33 45 33.4477 45 34ZM43 37C43 37.5523 42.5523 38 42 38C41.4477 38 41 37.5523 41 37C41 36.4477 41.4477 36 42 36C42.5523 36 43 36.4477 43 37ZM40 41C40.5523 41 41 40.5523 41 40C41 39.4477 40.5523 39 40 39C39.4477 39 39 39.4477 39 40C39 40.5523 39.4477 41 40 41ZM38 45C38.5523 45 39 44.5523 39 44C39 43.4477 38.5523 43 38 43C37.4477 43 37 43.4477 37 44C37 44.5523 37.4477 45 38 45ZM44 42C44.5523 42 45 41.5523 45 41C45 40.4477 44.5523 40 44 40C43.4477 40 43 40.4477 43 41C43 41.5523 43.4477 42 44 42ZM35 37C35 37.5523 34.5523 38 34 38C33.4477 38 33 37.5523 33 37C33 36.4477 33.4477 36 34 36C34.5523 36 35 36.4477 35 37ZM36 34C36.5523 34 37 33.5523 37 33C37 32.4477 36.5523 32 36 32C35.4477 32 35 32.4477 35 33C35 33.5523 35.4477 34 36 34ZM41 34C41 34.5523 40.5523 35 40 35C39.4477 35 39 34.5523 39 34C39 33.4477 39.4477 33 40 33C40.5523 33 41 33.4477 41 34ZM38 38C38.5523 38 39 37.5523 39 37C39 36.4477 38.5523 36 38 36C37.4477 36 37 36.4477 37 37C37 37.5523 37.4477 38 38 38ZM37 41C37 41.5523 36.5523 42 36 42C35.4477 42 35 41.5523 35 41C35 40.4477 35.4477 40 36 40C36.5523 40 37 40.4477 37 41Z" fill="#333333"/>
</svg>
