<svg width="48" height="48" viewBox="0 0 48 48" fill="none" xmlns="http://www.w3.org/2000/svg">
<path fill-rule="evenodd" clip-rule="evenodd" d="M10.0846 6.97254C10.0378 6.42223 9.55384 6.01402 9.00354 6.06078L7.01072 6.23008C6.46042 6.27683 6.05221 6.76084 6.09896 7.31114L6.42762 11.1797C6.11132 11.4006 5.93858 11.7952 6.01965 12.1976C6.08461 12.52 6.29791 12.7747 6.57418 12.9049L6.9244 17.0273C6.97115 17.5776 7.45516 17.9858 8.00546 17.939L9.99828 17.7697C10.5486 17.723 10.9568 17.239 10.91 16.6887L10.5408 12.3427C11.0497 12.2518 11.5504 12.1655 12.0436 12.0838C12.1494 13.7323 12.4531 16.5319 13.0163 19.168C13.3753 20.848 13.8681 22.6022 14.5516 23.9818C14.8926 24.6698 15.3337 25.3744 15.9187 25.9303C16.4363 26.4222 17.1357 26.8571 18 26.971V31.3027C17.891 31.2638 17.7824 31.225 17.6744 31.1863L17.4514 31.1063L17.4513 31.1063C16.4464 30.7459 15.4252 30.3797 14.6455 30.1829C14.2667 30.0874 13.6938 29.9619 13.1323 30.0116C12.8467 30.0369 12.3113 30.1265 11.8175 30.5282C11.2299 31.0061 11 31.6749 11 32.2632C11 33.0863 11.281 35.2025 11.5195 36.8944C11.6456 37.7886 11.7716 38.6411 11.8659 39.2694C11.913 39.5837 11.9524 39.8424 11.98 40.0228L12.012 40.2319L12.0206 40.2871L12.0228 40.3014L12.0234 40.3052L12.0235 40.3062L12.0236 40.3065C12.0236 40.3065 12.0236 40.3066 14 40.0001L12.0236 40.3066C12.1796 41.3122 13.0657 42.0403 14.0825 41.9983C15.0992 41.9563 15.9224 41.1576 15.9949 40.1425L16.3646 34.966C17.4755 35.3638 18.7722 35.8234 20.0526 36.1833C21.3256 36.5411 22.7232 36.8422 24 36.8422C25.2767 36.8422 26.6743 36.541 27.9473 36.1833C29.217 35.8264 30.5029 35.3714 31.6076 34.9759L32.0058 40.1534C32.0837 41.166 32.9081 41.9594 33.9229 41.9986C34.9376 42.0377 35.8207 41.3101 35.9763 40.3066L34 40.0001C35.9763 40.3066 35.9763 40.3065 35.9763 40.3065L35.9764 40.3062L35.9765 40.3052L35.9771 40.3014L35.9793 40.2871L35.9879 40.2319L36.0199 40.0228C36.0475 39.8424 36.0869 39.5837 36.134 39.2694C36.2283 38.6411 36.3543 37.7887 36.4804 36.8944C36.7189 35.2025 37 33.0863 37 32.2632C37 31.6749 36.77 31.0061 36.1824 30.5282C35.6887 30.1265 35.1533 30.0369 34.8677 30.0116C34.3061 29.9619 33.7332 30.0874 33.3545 30.1829C32.5747 30.3797 31.5535 30.7459 30.5485 31.1063L30.3255 31.1863C30.2175 31.225 30.1089 31.2638 30 31.3027V26.9756C31.8891 26.765 33.0347 25.2333 33.6664 24.0137C34.3978 22.602 34.8753 20.8167 35.2001 19.1277C35.7075 16.4893 35.9085 13.7175 35.9735 12.096C36.4608 12.1761 36.9555 12.2606 37.4585 12.3496L37.0899 16.6887C37.0431 17.239 37.4513 17.723 38.0016 17.7697L39.9944 17.939C40.5447 17.9858 41.0288 17.5776 41.0755 17.0273L41.4257 12.9049C41.7027 12.7744 41.9163 12.5187 41.9807 12.1954C42.0607 11.7936 41.8879 11.4002 41.5723 11.1797L41.9009 7.31114C41.9477 6.76084 41.5395 6.27683 40.9892 6.23008L38.9964 6.06078C38.4461 6.01402 37.9621 6.42223 37.9153 6.97254L37.6285 10.3489C36.9907 10.237 36.3657 10.1322 35.7518 10.0344C35.4111 9.4177 34.7543 9.00005 34 9.00005C33.4502 9.00005 32.9522 9.22189 32.5906 9.58094C26.5139 8.81404 21.3693 8.81549 15.3984 9.57022C15.0378 9.21748 14.5442 9.00005 14 9.00005C13.2501 9.00005 12.5966 9.41273 12.2542 10.0234C11.6378 10.1223 11.0105 10.2284 10.3708 10.3417L10.0846 6.97254ZM16.928 18.3321C16.3553 15.6518 16.0826 12.8008 16.0163 11.5084C21.547 10.835 26.3613 10.8349 31.9912 11.5215C31.9535 12.8536 31.783 15.7155 31.272 18.3724C30.9718 19.9334 30.5813 21.2731 30.1147 22.1739C29.7972 22.7868 29.5793 22.9588 29.5069 23.0001H29.4871H29.4644H29.4416H29.4188H29.396H29.3732H29.3504H29.3276H29.3049H29.2821H29.2593H29.2365H29.2137H29.1909H29.1682H29.1454H29.1226H29.0998H29.077H29.0542H29.0315H29.0087H28.9859H28.9631H28.9404H28.9176H28.8948H28.872H28.8493H28.8265H28.8037H28.7809H28.7582H28.7354H28.7126H28.6898H28.6671H28.6443H28.6215H28.5988H28.576H28.5533H28.5305H28.5077H28.485H28.4622H28.4395H28.4167H28.3939H28.3712H28.3484H28.3257H28.3029H28.2802H28.2574H28.2347H28.212H28.1892H28.1665H28.1437H28.121H28.0983H28.0755H28.0528H28.0301H28.0073H27.9846H27.9619H27.9391H27.9164H27.8937H27.871H27.8483H27.8256H27.8028H27.7801H27.7574H27.7347H27.712H27.6893H27.6666H27.6439H27.6212H27.5985H27.5758H27.5531H27.5304H27.5077H27.4851H27.4624H27.4397H27.417H27.3943H27.3717H27.349H27.3263H27.3037H27.281H27.2583H27.2357H27.213H27.1904H27.1677H27.1451H27.1224H27.0998H27.0771H27.0545H27.0319H27.0092H26.9866H26.964H26.9414H26.9187H26.8961H26.8735H26.8509H26.8283H26.8057H26.7831H26.7605H26.7379H26.7153H26.6927H26.6701H26.6475H26.6249H26.6024H26.5798H26.5572H26.5346H26.5121H26.4895H26.467H26.4444H26.4219H26.3993H26.3768H26.3542H26.3317H26.3091H26.2866H26.2641H26.2416H26.219H26.1965H26.174H26.1515H26.129H26.1065H26.084H26.0615H26.039H26.0165H25.9941H25.9716H25.9491H25.9266H25.9042H25.8817H25.8592H25.8368H25.8143H25.7919H25.7694H25.747H25.7246H25.7021H25.6797H25.6573H25.6349H25.6125H25.5901H25.5677H25.5453H25.5229H25.5005H25.4781H25.4557H25.4333H25.411H25.3886H25.3662H25.3439H25.3215H25.2992H25.2768H25.2545H25.2321H25.2098H25.1875H25.1652H25.1428H25.1205H25.0982H25.0759H25.0536H25.0313H25.009H24.9868H24.9645H24.9422H24.9199H24.8977H24.8754H24.8532H24.8309H24.8087H24.7864H24.7642H24.742H24.7198H24.6976H24.6753H24.6531H24.6309H24.6087H24.5866H24.5644H24.5422H24.52H24.4979H24.4757H24.4535H24.4314H24.4093H24.3871H24.365H24.3429H24.3207H24.2986H24.2765H24.2544H24.2323H24.2102H24.1881H24.166H24.144H24.1219H24.0998H24.0778H24.0557H24.0337H24.0117H23.9896H23.9676H23.9456H23.9236H23.9016H23.8796H23.8576H23.8356H23.8136H23.7916H23.7696H23.7477H23.7257H23.7038H23.6818H23.6599H23.638H23.616H23.5941H23.5722H23.5503H23.5284H23.5065H23.4846H23.4628H23.4409H23.419H23.3972H23.3753H23.3535H23.3316H23.3098H23.288H23.2662H23.2444H23.2225H23.2008H23.179H23.1572H23.1354H23.1136H23.0919H23.0701H23.0484H23.0266H23.0049H22.9832H22.9615H22.9398H22.9181H22.8964H22.8747H22.853H22.8313H22.8097H22.788H22.7664H22.7447H22.7231H22.7015H22.6798H22.6582H22.6366H22.615H22.5934H22.5718H22.5503H22.5287H22.5071H22.4856H22.4641H22.4425H22.421H22.3995H22.378H22.3565H22.335H22.3135H22.292H22.2705H22.2491H22.2276H22.2062H22.1847H22.1633H22.1419H22.1205H22.0991H22.0777H22.0563H22.0349H22.0135H21.9922H21.9708H21.9495H21.9281H21.9068H21.8855H21.8641H21.8428H21.8215H21.8003H21.779H21.7577H21.7365H21.7152H21.694H21.6727H21.6515H21.6303H21.6091H21.5879H21.5667H21.5455H21.5243H21.5032H21.482H21.4609H21.4397H21.4186H21.3975H21.3764H21.3553H21.3342H21.3131H21.292H21.271H21.2499H21.2289H21.2078H21.1868H21.1658H21.1448H21.1238H21.1028H21.0818H21.0608H21.0399H21.0189H20.998H20.9771H20.9561H20.9352H20.9143H20.8934H20.8725H20.8517H20.8308H20.81H20.7891H20.7683H20.7475H20.7266H20.7058H20.685H20.6643H20.6435H20.6227H20.602H20.5812H20.5605H20.5398H20.519H20.4983H20.4776H20.457H20.4363H20.4156H20.395H20.3743H20.3537H20.3331H20.3125H20.2919H20.2713H20.2507H20.2301H20.2096H20.189H20.1685H20.1479H20.1274H20.1069H20.0864H20.0659H20.0455H20.025H20.0045H19.9841H19.9637H19.9433H19.9228H19.9024H19.8821H19.8617H19.8413H19.821H19.8006H19.7803H19.76H19.7397H19.7194H19.6991H19.6788H19.6585H19.6383H19.618H19.5978H19.5776H19.5574H19.5372H19.517H19.4968H19.4766H19.4565H19.4363H19.4162H19.3961H19.376H19.3559H19.3358H19.3157H19.2957H19.2756H19.2556H19.2356H19.2155H19.1955H19.1755H19.1556H19.1356H19.1156H19.0957H19.0758H19.0559H19.0359H19.016H18.9962H18.9763H18.9564H18.9366H18.9167H18.8969H18.8771H18.8573H18.8375H18.8178H18.798H18.7782H18.7585H18.7388H18.7191H18.6994H18.6797H18.66H18.6434C18.5273 22.8787 18.348 22.6342 18.1358 22.2058C17.6735 21.2729 17.2635 19.9021 16.928 18.3321ZM28.5 16.5001C28.5 18.9853 26.4852 21.0001 24 21.0001C21.5147 21.0001 19.5 18.9853 19.5 16.5001C19.5 14.0148 21.5147 12.0001 24 12.0001C26.4852 12.0001 28.5 14.0148 28.5 16.5001Z" fill="#333333"/>
</svg>
