<svg width="48" height="48" viewBox="0 0 48 48" fill="none" xmlns="http://www.w3.org/2000/svg">
<path fill-rule="evenodd" clip-rule="evenodd" d="M9 3.99976C7.34315 3.99976 6 5.3429 6 6.99976V14.9998C6 16.6566 7.34314 17.9998 9 17.9998H27C28.6569 17.9998 30 16.6566 30 14.9998V6.99976C30 5.3429 28.6569 3.99976 27 3.99976H9ZM13 8.99976C13 9.55204 12.5523 9.99976 12 9.99976C11.4477 9.99976 11 9.55204 11 8.99976C11 8.44747 11.4477 7.99976 12 7.99976C12.5523 7.99976 13 8.44747 13 8.99976ZM17 8.99976C17 9.55204 16.5523 9.99976 16 9.99976C15.4477 9.99976 15 9.55204 15 8.99976C15 8.44747 15.4477 7.99976 16 7.99976C16.5523 7.99976 17 8.44747 17 8.99976ZM16 13.9998C16.5523 13.9998 17 13.552 17 12.9998C17 12.4475 16.5523 11.9998 16 11.9998C15.4477 11.9998 15 12.4475 15 12.9998C15 13.552 15.4477 13.9998 16 13.9998ZM13 12.9998C13 13.552 12.5523 13.9998 12 13.9998C11.4477 13.9998 11 13.552 11 12.9998C11 12.4475 11.4477 11.9998 12 11.9998C12.5523 11.9998 13 12.4475 13 12.9998ZM20 9.99976C20.5523 9.99976 21 9.55204 21 8.99976C21 8.44747 20.5523 7.99976 20 7.99976C19.4477 7.99976 19 8.44747 19 8.99976C19 9.55204 19.4477 9.99976 20 9.99976ZM21 12.9998C21 13.552 20.5523 13.9998 20 13.9998C19.4477 13.9998 19 13.552 19 12.9998C19 12.4475 19.4477 11.9998 20 11.9998C20.5523 11.9998 21 12.4475 21 12.9998ZM24 9.99976C24.5523 9.99976 25 9.55204 25 8.99976C25 8.44747 24.5523 7.99976 24 7.99976C23.4477 7.99976 23 8.44747 23 8.99976C23 9.55204 23.4477 9.99976 24 9.99976ZM25 12.9998C25 13.552 24.5523 13.9998 24 13.9998C23.4477 13.9998 23 13.552 23 12.9998C23 12.4475 23.4477 11.9998 24 11.9998C24.5523 11.9998 25 12.4475 25 12.9998ZM33 16.9998C33 15.8952 33.8954 14.9998 35 14.9998C36.1046 14.9998 37 15.8952 37 16.9998V18.3412C39.3304 19.1648 41 21.3873 41 23.9998V41.9998H42C42.5523 41.9998 43 42.4475 43 42.9998C43 43.552 42.5523 43.9998 42 43.9998H41H29H28C27.4477 43.9998 27 43.552 27 42.9998C27 42.4475 27.4477 41.9998 28 41.9998H29V23.9998C29 21.3873 30.6696 19.1648 33 18.3412V16.9998ZM11.9793 22.2242C12.8888 21.9969 13.8341 22.4317 14.2533 23.2701L15 24.7635L15.7467 23.2701C16.1659 22.4317 17.1112 21.9969 18.0207 22.2242L25.2424 24.0297L24.7574 25.97L17.5356 24.1645L16.58 26.0757C17.4017 26.2966 18 26.975 18 27.7775V40.222C18 41.2038 17.1046 41.9998 16 41.9998V43.9998H14V41.9998C12.8954 41.9998 12 41.2038 12 40.222V27.7775C12 26.975 12.5983 26.2966 13.42 26.0757L12.4644 24.1645L5.24264 25.97L4.75757 24.0297L11.9793 22.2242Z" fill="#333333"/>
</svg>
