<svg width="48" height="48" viewBox="0 0 48 48" fill="none" xmlns="http://www.w3.org/2000/svg">
<path fill-rule="evenodd" clip-rule="evenodd" d="M43.1237 29.8732C40.6147 38.0528 33.0019 44 24 44C12.9543 44 4 35.0457 4 24C4 12.9543 12.9543 4 24 4C29.9778 4 35.343 6.62257 39.008 10.7799C39.7434 11.6141 40.4103 12.5101 41 13.4592V15H41.8654C42.1921 15.6473 42.4847 16.3147 42.7408 17H41V20.9996V21.9987L40.2012 22.5988C39.468 23.1495 39 24.0198 39 25C39 26.6569 40.3431 28 42 28C42.631 28 43.2165 27.8052 43.6996 27.4724C43.5564 28.2909 43.3633 29.0922 43.1237 29.8732ZM43.9603 22.7289C43.8516 20.996 43.5222 19.323 43 17.7377V20.9996V21.9987L43.7988 22.5988C43.8542 22.6403 43.908 22.6837 43.9603 22.7289ZM16.9251 34.3797C16.717 34.8869 16.1386 35.1325 15.6286 34.9285C15.1158 34.7234 14.8664 34.1414 15.0715 33.6286L16 34C15.0715 33.6286 15.0718 33.628 15.072 33.6273L15.0726 33.6259L15.0738 33.6229L15.0768 33.6156L15.0847 33.5968C15.0909 33.5823 15.0989 33.564 15.1087 33.5422C15.1285 33.4986 15.156 33.4408 15.192 33.3708C15.2639 33.2309 15.3703 33.0418 15.518 32.8203C15.8133 32.3773 16.2756 31.802 16.9598 31.2318C17.0855 31.127 17.2182 31.0229 17.3581 30.9201L12.2864 28.666C11.9701 28.9072 11.579 29.0567 11.1513 29.073C10.0475 29.1152 9.11857 28.2546 9.07638 27.1509C9.0342 26.0471 9.89478 25.1181 10.9985 25.076C12.0424 25.0361 12.93 25.8036 13.0589 26.8207L19.596 29.7261C20.776 29.2882 22.2276 29 24 29C27.4277 29 29.6558 30.0781 31.0402 31.2318C31.7244 31.802 32.1867 32.3773 32.482 32.8203C32.6297 33.0418 32.7361 33.2309 32.808 33.3708C32.844 33.4408 32.8715 33.4986 32.8913 33.5422C32.9011 33.564 32.9091 33.5823 32.9153 33.5968L32.9232 33.6156L32.9262 33.6229L32.9274 33.6259L32.928 33.6273C32.9282 33.628 32.9285 33.6286 32 34L32.9285 33.6286C33.1336 34.1414 32.8842 34.7234 32.3714 34.9285C31.8614 35.1325 31.283 34.8869 31.0749 34.3798L31.0697 34.368C31.0629 34.353 31.0497 34.3249 31.0295 34.2855C30.9889 34.2066 30.9203 34.0832 30.818 33.9297C30.6133 33.6227 30.2756 33.198 29.7598 32.7682C28.7442 31.9219 26.9723 31 24 31C22.0671 31 20.6419 31.3899 19.6021 31.8953L19.5939 31.9138L19.5783 31.9069C19.0303 32.1757 18.5903 32.4765 18.2402 32.7682C17.7244 33.198 17.3867 33.6227 17.1821 33.9297C17.0797 34.0832 17.0111 34.2066 16.9705 34.2855C16.9503 34.3249 16.9371 34.353 16.9303 34.368L16.9251 34.3797ZM18.5547 19.8321C19.0142 19.5257 19.1384 18.9048 18.8321 18.4453C18.5257 17.9858 17.9048 17.8616 17.4453 18.1679C16.0091 19.1254 15.0886 19.583 13.6838 20.0513C13.1598 20.226 12.8767 20.7923 13.0513 21.3162C13.226 21.8402 13.7923 22.1233 14.3162 21.9487C15.9114 21.417 16.9909 20.8746 18.5547 19.8321ZM29.1679 18.4453C28.8616 18.9048 28.9858 19.5257 29.4453 19.8321C31.0091 20.8746 32.0886 21.417 33.6838 21.9487C34.2077 22.1233 34.774 21.8402 34.9487 21.3162C35.1233 20.7923 34.8402 20.226 34.3162 20.0513C32.9114 19.583 31.9909 19.1254 30.5547 18.1679C30.0952 17.8616 29.4743 17.9858 29.1679 18.4453Z" fill="#333333"/>
<path fill-rule="evenodd" clip-rule="evenodd" d="M37.2929 5.29289C37.6834 4.90237 38.3166 4.90237 38.7071 5.29289L39.7071 6.29289C40.0976 6.68342 40.0976 7.31658 39.7071 7.70711C39.3166 8.09763 38.6834 8.09763 38.2929 7.70711L37.2929 6.70711C36.9024 6.31658 36.9024 5.68342 37.2929 5.29289Z" fill="#333333"/>
<path fill-rule="evenodd" clip-rule="evenodd" d="M42 3C42.5523 3 43 3.44772 43 4V6C43 6.55228 42.5523 7 42 7C41.4477 7 41 6.55228 41 6V4C41 3.44772 41.4477 3 42 3Z" fill="#333333"/>
<path fill-rule="evenodd" clip-rule="evenodd" d="M46.7071 5.29289C46.3166 4.90237 45.6834 4.90237 45.2929 5.29289L44.2929 6.29289C43.9024 6.68342 43.9024 7.31658 44.2929 7.70711C44.6834 8.09763 45.3166 8.09763 45.7071 7.70711L46.7071 6.70711C47.0976 6.31658 47.0976 5.68342 46.7071 5.29289Z" fill="#333333"/>
<path fill-rule="evenodd" clip-rule="evenodd" d="M40.2012 22.5988L41 21.9987V20.9996V17H43V20.9996V21.9987L43.7988 22.5988C44.532 23.1495 45 24.0198 45 25C45 26.6569 43.6569 28 42 28C40.3431 28 39 26.6569 39 25C39 24.0198 39.468 23.1495 40.2012 22.5988ZM43 15V11C43 10.4477 42.5523 10 42 10C41.4477 10 41 10.4477 41 11V15L43 15ZM42 8C40.3431 8 39 9.34315 39 11V20.9996C37.7856 21.9118 37 23.3642 37 25C37 27.7614 39.2386 30 42 30C44.7614 30 47 27.7614 47 25C47 23.3642 46.2144 21.9118 45 20.9996V11C45 9.34315 43.6569 8 42 8Z" fill="#333333"/>
</svg>
