<svg width="48" height="48" viewBox="0 0 48 48" fill="none" xmlns="http://www.w3.org/2000/svg">
<g clip-path="url(#clip0)">
<path fill-rule="evenodd" clip-rule="evenodd" d="M36.7279 36.727C29.6985 43.7565 18.3015 43.7565 11.2721 36.727C5.27491 30.7299 4.39423 21.5537 8.63003 14.6229L14.3683 12.7785C16.877 11.9721 18.7756 15.0814 16.9123 16.9447C14.0705 19.7865 16.0832 24.6456 20.1021 24.6456L21.0127 24.6456C22.3213 24.6456 23.4663 25.5253 23.8035 26.7896L24.2948 28.6321C23.8609 28.3809 23.3327 28.2916 22.8078 28.4228L17.151 29.837C16.0794 30.1049 15.4279 31.1908 15.6958 32.2624C15.9637 33.3339 17.0495 33.9855 18.1211 33.7176L21.8377 32.7884L22.7668 36.505C23.0096 37.4762 23.933 38.1182 24.928 38.0077C32.261 37.1929 35.5957 32.0074 36.4793 29.6511C36.7191 29.0114 36.6159 28.2936 36.2055 27.7474C35.7951 27.2013 35.1344 26.9024 34.4532 26.9548L31.541 27.1788L30.5365 23.1605C30.2686 22.0889 29.1827 21.4374 28.1111 21.7053C27.0395 21.9732 26.388 23.059 26.6559 24.1306L28.0701 29.7875C28.3067 30.7337 29.1913 31.3713 30.1638 31.2965L30.633 31.2604C29.8591 32 28.8586 32.7144 27.5943 33.2433L25.7359 26.2743C25.1653 24.1344 23.2274 22.6456 21.0127 22.6456L20.1021 22.6456C17.865 22.6456 16.7446 19.9408 18.3265 18.3589C21.6739 15.0115 18.2631 9.42577 13.7563 10.8744L10.7167 11.8514C10.8967 11.6549 11.0818 11.4615 11.2721 11.2712C18.3015 4.24176 29.6985 4.24176 36.7279 11.2712C43.7574 18.3006 43.7574 29.6976 36.7279 36.727ZM38.1421 38.1412C30.3317 45.9517 17.6683 45.9517 9.85786 38.1412C2.04738 30.3308 2.04738 17.6675 9.85786 9.85698C17.6684 2.04649 30.3316 2.04649 38.1421 9.85698C45.9526 17.6675 45.9526 30.3308 38.1421 38.1412ZM33.1924 24.7062C34.7545 26.2683 37.2871 26.2683 38.8492 24.7062C40.4113 23.1441 40.4113 20.6115 38.8492 19.0494C37.2871 17.4873 34.7545 17.4873 33.1924 19.0494C31.6303 20.6115 31.6303 23.1441 33.1924 24.7062Z" fill="#333333"/>
</g>
<defs>
<clipPath id="clip0">
<rect width="48" height="48" fill="white"/>
</clipPath>
</defs>
</svg>
