<svg width="48" height="48" viewBox="0 0 48 48" fill="none" xmlns="http://www.w3.org/2000/svg">
<path d="M24 18C24 24.6274 19.9706 30 15 30C10.0294 30 6 24.6274 6 18C6 11.3726 10.0294 6 15 6C19.9706 6 24 11.3726 24 18Z" fill="#333333"/>
<path fill-rule="evenodd" clip-rule="evenodd" d="M37.7839 18.8793C37.8658 18.5237 37.909 18.1533 37.909 17.7729C37.909 15.0616 35.7112 12.8638 33 12.8638C30.2887 12.8638 28.0909 15.0616 28.0909 17.7729C28.0909 18.1534 28.1342 18.5237 28.2161 18.8794C26.7048 19.4805 25.6364 20.9565 25.6364 22.6821C25.6364 23.0869 25.6952 23.4779 25.8047 23.8472C24.7344 24.3853 24 25.4934 24 26.773C24 28.5805 25.4653 30.0457 27.2727 30.0457H38.7273C40.5347 30.0457 42 28.5805 42 26.773C42 25.4934 41.2656 24.3853 40.1953 23.8472C40.3049 23.478 40.3637 23.0869 40.3637 22.6821C40.3637 20.9565 39.2953 19.4804 37.7839 18.8793Z" fill="#333333"/>
<path fill-rule="evenodd" clip-rule="evenodd" d="M14 38L14 25.5L16 25.5L16 38L14 38Z" fill="#333333"/>
<path fill-rule="evenodd" clip-rule="evenodd" d="M14 39L14 26L16 26L16 39L14 39Z" fill="#333333"/>
<path fill-rule="evenodd" clip-rule="evenodd" d="M32 39L32 27L34 27L34 39L32 39Z" fill="#333333"/>
<path d="M6 40.5C6 39.6716 6.67157 39 7.5 39H40.5C41.3284 39 42 39.6716 42 40.5C42 41.3284 41.3284 42 40.5 42H7.5C6.67157 42 6 41.3284 6 40.5Z" fill="#333333"/>
</svg>
