<svg width="48" height="48" viewBox="0 0 48 48" fill="none" xmlns="http://www.w3.org/2000/svg">
<path d="M15 21C15 20.4477 15.4477 20 16 20C16.5523 20 17 20.4477 17 21V39C17 39.5523 16.5523 40 16 40C15.4477 40 15 39.5523 15 39V21Z" fill="#333333"/>
<path d="M6 40.5C6 39.6716 6.67157 39 7.5 39H40.5C41.3284 39 42 39.6716 42 40.5C42 41.3284 41.3284 42 40.5 42H7.5C6.67157 42 6 41.3284 6 40.5Z" fill="#333333"/>
<path fill-rule="evenodd" clip-rule="evenodd" d="M21.4107 13.0021C21.5017 12.5882 21.5498 12.1571 21.5498 11.7143C21.5498 8.55837 19.1077 6 16.0952 6C13.0827 6 10.6407 8.55837 10.6407 11.7143C10.6407 12.1571 10.6887 12.5882 10.7797 13.0021C9.10046 13.7018 7.91338 15.4199 7.91338 17.4285C7.91338 17.9155 7.98316 18.3854 8.11281 18.8279C6.91221 19.469 6.09521 20.7343 6.09521 22.1905C6.09521 24.2944 7.8008 26 9.90474 26H22.2857C24.3896 26 26.0952 24.2944 26.0952 22.1905C26.0952 20.7343 25.2782 19.469 24.0776 18.8279C24.2072 18.3854 24.277 17.9155 24.277 17.4285C24.277 15.4199 23.09 13.7018 21.4107 13.0021Z" fill="#333333"/>
<path fill-rule="evenodd" clip-rule="evenodd" d="M33.6018 24.003C33.5554 24.0071 33.5352 24.014 33.5354 24.014C31.2944 24.8128 29.928 26.4839 28.9451 29.3268C28.7646 29.8487 28.1952 30.1256 27.6732 29.9451C27.1513 29.7646 26.8744 29.1952 27.0549 28.6732C28.1581 25.4825 29.8585 23.2012 32.8643 22.1299C33.5609 21.8819 34.3847 22.0266 34.9905 22.2506C35.591 22.4728 36.3384 22.9066 36.6928 23.6091C36.8968 24.0133 37.0746 24.3744 37.2369 24.7041C37.4534 25.1438 37.6425 25.5276 37.8293 25.8835C38.1492 26.493 38.4039 26.9021 38.6622 27.1949C38.9026 27.4675 39.1496 27.6427 39.4754 27.7647C39.8224 27.8947 40.3017 27.9803 41.0277 28.0004C41.5797 28.0157 42.0149 28.4756 41.9996 29.0277C41.9843 29.5797 41.5244 30.0149 40.9723 29.9996C40.1337 29.9764 39.4093 29.8757 38.7737 29.6376C38.1168 29.3915 37.6021 29.0165 37.1623 28.5179C36.7402 28.0394 36.396 27.4561 36.0584 26.813C35.8647 26.444 35.6532 26.015 35.4231 25.5482C35.2606 25.2184 35.0887 24.8697 34.9072 24.5099C34.9073 24.5101 34.9072 24.51 34.9072 24.5099C34.9045 24.5056 34.8686 24.4485 34.7521 24.3632C34.6359 24.2781 34.4782 24.1936 34.2966 24.1264C34.1155 24.0594 33.9355 24.0189 33.7831 24.0052C33.7079 23.9985 33.6472 23.999 33.6018 24.003Z" fill="#333333"/>
<path fill-rule="evenodd" clip-rule="evenodd" d="M32.5905 22.5041C33.1406 22.5541 33.5459 23.0405 33.4959 23.5905L33.04 28.6058L38.0702 33.3435C38.1738 33.441 38.2554 33.5595 38.3095 33.6911L39.9249 37.6197C40.1349 38.1305 39.8911 38.7148 39.3803 38.9249C38.8695 39.1349 38.2852 38.8911 38.0751 38.3803L36.5418 34.6514L31.3144 29.728C31.0907 29.5173 30.9763 29.2155 31.0041 28.9095L31.5041 23.4095C31.5541 22.8594 32.0405 22.4541 32.5905 22.5041Z" fill="#333333"/>
<path fill-rule="evenodd" clip-rule="evenodd" d="M34.9689 24.7473C35.1055 24.2122 34.7824 23.6677 34.2472 23.5311C33.7121 23.3945 33.1676 23.7176 33.031 24.2527L31.6872 29.5175C31.8689 29.552 32.0432 29.6372 32.1875 29.7738L33.3942 30.9163L34.9689 24.7473ZM32.819 33.1259L31.1657 31.5606L30.9649 32.3471L30.1354 35.0957L27.3902 37.2074C26.9525 37.5441 26.8706 38.172 27.2073 38.6097C27.544 39.0475 28.1719 39.1294 28.6096 38.7926L31.6096 36.4849C31.7753 36.3575 31.8969 36.1813 31.9573 35.9812L32.819 33.1259Z" fill="#333333"/>
<path d="M38 18.5C38 19.8807 36.8807 21 35.5 21C34.1193 21 33 19.8807 33 18.5C33 17.1193 34.1193 16 35.5 16C36.8807 16 38 17.1193 38 18.5Z" fill="#333333"/>
<path d="M36.5 26L34.9394 32L31.2273 29.0588L31.5303 24.1765L34.9394 24L36.5 26Z" fill="#333333"/>
</svg>
