<svg width="48" height="48" viewBox="0 0 48 48" fill="none" xmlns="http://www.w3.org/2000/svg">
<path fill-rule="evenodd" clip-rule="evenodd" d="M9.61437 16.6302C11.1701 15.0217 12.7258 14.4856 14.8001 15.5578C16.668 16.5234 17.6949 16.6195 18.6381 16.6291C19.6206 16.6195 20.6902 16.5234 22.6358 15.5578C24.7963 14.4856 26.4168 15.0217 28.0372 16.6302C29.9468 18.5257 30.5375 20.4992 30.738 21.9913C30.7615 22.1106 30.7823 22.2303 30.8006 22.3504C29.3444 22.7741 28.2803 24.1185 28.2803 25.7114C28.2803 26.9477 28.9213 28.0343 29.889 28.657C29.8631 28.7248 29.8368 28.7924 29.8101 28.8598C29.2376 28.4516 28.537 28.2114 27.7803 28.2114C25.8473 28.2114 24.2803 29.7784 24.2803 31.7114C24.2803 33.1116 25.1025 34.3198 26.2905 34.8794C26.195 34.997 26.1025 35.1078 26.0134 35.2114C25.178 36.0795 24.2284 36.6369 23.1983 36.4665C19.9574 35.9304 19.4173 35.9304 18.8771 35.9304L18.4086 35.9304C17.89 35.9304 17.3714 35.9304 14.26 36.4665C11.7709 36.8954 9.77089 32.7137 8.77784 30.5713C7.21877 27.2078 6.90668 23.7719 7.02147 21.9913C7.21392 20.4992 7.78102 18.5257 9.61437 16.6302Z" fill="#333333"/>
<path fill-rule="evenodd" clip-rule="evenodd" d="M37.8454 18.0897C38.9687 18.4929 39.8859 19.3258 40.3951 20.4052C40.9043 21.4846 40.9639 22.722 40.5607 23.8453C40.529 23.9338 40.486 24.0151 40.4341 24.0881C40.6778 24.2977 40.899 24.5333 41.0935 24.7913C41.4575 25.2743 41.7205 25.8257 41.8666 26.4126C42.0128 26.9995 42.0391 27.6099 41.9441 28.2072C41.849 28.8045 41.6346 29.3765 41.3134 29.8891C41.0327 30.3372 40.6755 30.7319 40.2586 31.0553C40.2729 31.2016 40.2803 31.3499 40.2803 31.5C40.2803 32.2747 40.0845 33.0036 39.7398 33.6401C40.1277 33.85 40.4838 34.1164 40.7959 34.4316C41.2699 34.9102 41.6303 35.489 41.8507 36.1255C42.0711 36.762 42.1458 37.4398 42.0693 38.109C41.9928 38.7782 41.7671 39.4216 41.4088 39.9919C41.0505 40.5623 40.5687 41.0449 39.999 41.4042C39.4293 41.7635 38.7862 41.9903 38.1172 42.068C37.4481 42.1456 36.7702 42.0721 36.1333 41.8528C35.5802 41.6623 35.0703 41.3661 34.6317 40.9815C33.8554 41.618 32.8625 42 31.7803 42C29.295 42 27.2803 39.9853 27.2803 37.5C27.2803 36.9717 27.3713 36.4646 27.5386 35.9936C25.1657 35.868 23.2803 33.9042 23.2803 31.5C23.2803 29.0958 25.1657 27.132 27.5386 27.0064C27.3713 26.5354 27.2803 26.0283 27.2803 25.5C27.2803 23.0147 29.295 21 31.7803 21C31.8675 21 31.9541 21.0025 32.04 21.0074C32.0493 20.9397 32.0658 20.8719 32.0898 20.805C32.493 19.6817 33.3258 18.7646 34.4052 18.2554C35.4846 17.7461 36.7221 17.6866 37.8454 18.0897ZM35.8622 39.3967C36.1246 39.65 36.4394 39.8429 36.7845 39.9617C37.1383 40.0836 37.5149 40.1244 37.8866 40.0813C38.2583 40.0382 38.6156 39.9121 38.9321 39.7125C39.2486 39.5129 39.5162 39.2448 39.7153 38.928C39.9144 38.6111 40.0398 38.2536 40.0823 37.8819C40.1248 37.5101 40.0833 37.1335 39.9608 36.7799C39.8384 36.4263 39.6381 36.1047 39.3748 35.8389C39.1115 35.573 38.7919 35.3696 38.4395 35.2437C38.4051 35.2314 38.3718 35.2174 38.3396 35.2018C37.6749 35.6622 36.8803 35.9482 36.022 35.9936C36.1892 36.4646 36.2803 36.9717 36.2803 37.5C36.2803 38.1777 36.1305 38.8203 35.8622 39.3967ZM36.022 27.0064C37.4751 27.0833 38.7454 27.8495 39.5118 28.9841C39.5493 28.9333 39.5849 28.881 39.6186 28.8273C39.797 28.5425 39.9161 28.2247 39.9689 27.8929C40.0217 27.561 40.0071 27.222 39.9259 26.8959C39.8447 26.5698 39.6986 26.2635 39.4964 25.9952C39.2941 25.7269 39.0398 25.5021 38.7487 25.3342C38.4577 25.1664 38.1357 25.0589 37.8022 25.0183C37.4686 24.9777 37.1303 25.0048 36.8074 25.0978C36.6221 25.1513 36.4441 25.2258 36.2767 25.3197C36.2791 25.3795 36.2803 25.4396 36.2803 25.5C36.2803 26.0283 36.1892 26.5354 36.022 27.0064ZM35.7392 23.3588C35.9064 23.2877 36.0781 23.2267 36.2534 23.1761C36.8345 23.0086 37.4435 22.9599 38.0439 23.033C38.26 23.0593 38.4734 23.1012 38.6824 23.1581C38.9018 22.5372 38.8674 21.8545 38.5863 21.2585C38.3034 20.6589 37.7938 20.1961 37.1698 19.9722C36.5457 19.7482 35.8582 19.7813 35.2586 20.0642C34.6589 20.3471 34.1962 20.8566 33.9722 21.4807C33.9634 21.5053 33.9537 21.5294 33.9431 21.5529C34.7015 21.9693 35.3268 22.5979 35.7392 23.3588ZM31.7803 23C30.3996 23 29.2803 24.1193 29.2803 25.5C29.2803 26.8807 30.3996 28 31.7803 28C33.161 28 34.2803 26.8807 34.2803 25.5C34.2803 24.1193 33.161 23 31.7803 23ZM27.7803 29C26.3996 29 25.2803 30.1193 25.2803 31.5C25.2803 32.8807 26.3996 34 27.7803 34C29.161 34 30.2803 32.8807 30.2803 31.5C30.2803 30.1193 29.161 29 27.7803 29ZM33.2803 31.5C33.2803 30.1193 34.3996 29 35.7803 29C37.161 29 38.2803 30.1193 38.2803 31.5C38.2803 32.8807 37.161 34 35.7803 34C34.3996 34 33.2803 32.8807 33.2803 31.5ZM31.7803 35C30.3996 35 29.2803 36.1193 29.2803 37.5C29.2803 38.8807 30.3996 40 31.7803 40C33.161 40 34.2803 38.8807 34.2803 37.5C34.2803 36.1193 33.161 35 31.7803 35Z" fill="#333333"/>
<path fill-rule="evenodd" clip-rule="evenodd" d="M7.56531 8.00098H8.69809C11.5374 8.00098 14.2122 9.2775 16.1641 10.9727C16.8031 11.5277 17.3863 12.1474 17.88 12.8049V10.566C17.88 10.0137 18.3277 9.56602 18.88 9.56602C19.4323 9.56602 19.88 10.0137 19.88 10.566V17.166C19.88 17.4841 19.7315 17.7675 19.5 17.9506V18.0002H19.4317C19.2736 18.105 19.0839 18.166 18.88 18.166C18.6751 18.166 18.4846 18.1044 18.326 17.9987C15.8862 17.9553 13.4339 17.0056 11.5042 15.4827C9.52751 13.9228 8.02798 11.7024 7.70581 9.12501L7.56531 8.00098ZM17.3111 15.9117C16.9573 14.8198 16.1149 13.579 14.8526 12.4827C13.4934 11.3022 11.7725 10.4043 9.96931 10.107C10.4524 11.5685 11.4417 12.8857 12.7432 13.9127C14.0757 14.9643 15.6895 15.6734 17.3111 15.9117Z" fill="#333333"/>
<path fill-rule="evenodd" clip-rule="evenodd" d="M37.9682 9.14425L38.1497 10.2624C38.6045 13.065 37.7729 15.9098 36.4122 18.108C35.0739 20.2702 33.0784 22.0286 30.997 22.3664L30.0099 22.5266L29.8497 21.5395C29.4497 19.0749 29.9916 16.4306 31.214 14.2308C32.4371 12.0297 34.3887 10.1939 36.8812 9.463L37.9682 9.14425ZM36.2745 11.8546C34.9093 12.5655 33.7675 13.7531 32.9622 15.2023C32.1377 16.686 31.6963 18.3925 31.7208 20.0313C32.7418 19.5072 33.8317 18.477 34.7116 17.0554C35.6592 15.5246 36.2698 13.6821 36.2745 11.8546Z" fill="#333333"/>
</svg>
