<svg width="48" height="48" viewBox="0 0 48 48" fill="none" xmlns="http://www.w3.org/2000/svg">
<path fill-rule="evenodd" clip-rule="evenodd" d="M6 9C6 7.34315 7.34315 6 9 6H39C40.6569 6 42 7.34315 42 9V39C42 40.6569 40.6569 42 39 42H9C7.34315 42 6 40.6569 6 39V9ZM17.6932 19.68C18.8539 17.8471 20.8662 16 23.8667 16C24.7819 16 25.5803 16.6212 25.8053 17.5083L26.9605 22.0633L29.3838 22.5372C30.4678 22.7491 31.1748 23.7998 30.9628 24.8838C30.7509 25.9678 29.7002 26.6748 28.6162 26.4628L24.9495 25.7459C24.1904 25.5974 23.5849 25.0245 23.3947 24.2747L23.1794 23.4259C22.5113 25.1921 22 27.3021 22 29.5V36C22 37.1046 21.1046 38 20 38C18.8954 38 18 37.1046 18 36V30.02L17.9317 29.8952C17.7369 29.5381 17.475 29.0472 17.2111 28.5194C16.9502 27.9976 16.6726 27.4104 16.4555 26.8678C16.3472 26.597 16.2429 26.3098 16.1629 26.0299C16.0916 25.7805 16 25.4045 16 25C16 23.5895 16.5583 21.4722 17.6932 19.68ZM26.1466 28.9963C26.1466 27.6159 27.2656 26.4968 28.6461 26.4968H28.731C30.1583 26.4968 31.3154 27.6539 31.3154 29.0812V37.0558C31.3154 37.6081 30.8677 38.0558 30.3154 38.0558C29.7631 38.0558 29.3154 37.6081 29.3154 37.0558V29.0812C29.3154 28.7585 29.0538 28.4968 28.731 28.4968H28.6461C28.3702 28.4968 28.1466 28.7204 28.1466 28.9963H26.1466ZM29.5 18C31.433 18 33 16.433 33 14.5C33 12.567 31.433 11 29.5 11C27.567 11 26 12.567 26 14.5C26 16.433 27.567 18 29.5 18Z" fill="#333333"/>
</svg>
