<svg width="48" height="48" viewBox="0 0 48 48" fill="none" xmlns="http://www.w3.org/2000/svg">
<path fill-rule="evenodd" clip-rule="evenodd" d="M28 6.40545C28 6.1078 27.6594 5.91179 27.3644 6.0399L24 7.49996L20.6356 6.0399C20.3406 5.91179 20 6.1078 20 6.40545V8.59447C20 8.89226 20.3406 9.08813 20.6356 8.96016L24 7.49996L27.3644 8.96016C27.6594 9.08813 28 8.89226 28 8.59447V6.40545ZM28.0001 13C28.0001 14.2256 27.4489 15.3224 26.5808 16.0562C27.9597 16.3267 29.0001 17.5418 29.0001 19V20.0988L32.1513 24.0379C32.2299 24.1318 32.2956 24.2338 32.348 24.3412C32.547 24.7474 32.5482 25.218 32.3664 25.6198C32.3177 25.7274 32.2558 25.8301 32.1811 25.9253L29.2001 29.9C29.0155 30.146 28.7699 30.3193 28.5001 30.4144V30.4287L30.5 35H28.5001V41C28.5001 41.8284 27.8285 42.5 27.0001 42.5C26.1717 42.5 25.5001 41.8284 25.5001 41V35H22.5001V41C22.5001 41.8284 21.8285 42.5 21.0001 42.5C20.1717 42.5 19.5001 41.8284 19.5001 41V35H17.5L19.5001 30.4285V30.4144C19.2302 30.3193 18.9846 30.1461 18.8001 29.9L15.8193 25.9256C15.7437 25.8294 15.6812 25.7254 15.6322 25.6164C15.4514 25.2143 15.4537 24.7437 15.6538 24.3379C15.7058 24.2318 15.7709 24.1311 15.8485 24.0383L19.0001 20.0988V19C19.0001 17.5418 20.0404 16.3267 21.4193 16.0562C20.5512 15.3224 20.0001 14.2256 20.0001 13C20.0001 10.7909 21.7909 9 24.0001 9C26.2092 9 28.0001 10.7909 28.0001 13ZM27.4825 27.1901L29.1028 25.0296L28.5001 24.2762V25.4648L27.4454 24.7617C27.1672 24.5762 27.0001 24.264 27.0001 23.9296V18H26.0001V16.4649C25.4117 16.8052 24.7286 17 24.0001 17C23.2715 17 22.5884 16.8052 22.0001 16.4649V18H21.0001V23.9296C21.0001 24.264 20.833 24.5762 20.5548 24.7617L19.5001 25.4648V24.2761L18.8973 25.0296L20.5177 27.1901L21.6642 26.4258C22.4988 25.8694 23.0001 24.9327 23.0001 23.9296L23.0001 18H25.0001V18.5L25.0001 23.9296C25.0001 24.9327 25.5014 25.8694 26.336 26.4258L27.4825 27.1901Z" fill="#333333"/>
</svg>
