<svg width="48" height="49" viewBox="0 0 48 49" fill="none" xmlns="http://www.w3.org/2000/svg">
<path fill-rule="evenodd" clip-rule="evenodd" d="M23.9999 17.5C25.9329 17.5 27.4999 15.933 27.4999 14C27.4999 12.067 25.9329 10.5 23.9999 10.5C22.0669 10.5 20.4999 12.067 20.4999 14C20.4999 15.933 22.0669 17.5 23.9999 17.5ZM34.5074 21.9221C35.5758 21.6419 36.2148 20.5485 35.9345 19.4801C35.6543 18.4117 34.561 17.7727 33.4926 18.053C29.6843 19.0519 26.8205 19.4987 24.0078 19.4873C21.189 19.476 18.3174 19.0043 14.4846 18.0471C13.4129 17.7795 12.3272 18.4313 12.0596 19.503C11.792 20.5746 12.4438 21.6603 13.5154 21.928C15.3644 22.3897 17.0502 22.7562 18.6541 23.0177C18.3389 25.1186 16.659 28.577 15.6904 30.4435C15.3659 31.0687 15.7555 31.8385 16.4543 31.927C22.3907 32.6792 26.1456 32.6987 31.6089 31.9387C32.2898 31.844 32.6697 31.1013 32.3628 30.4861C31.4192 28.5948 29.7228 25.015 29.3625 23.0431C30.9665 22.7825 32.6542 22.4082 34.5074 21.9221Z" fill="#333333"/>
<path fill-rule="evenodd" clip-rule="evenodd" d="M18.9999 33.5137V37C18.9999 37.7522 19.5571 38.3881 20.3027 38.487C21.0484 38.5859 21.752 38.1172 21.9481 37.391L22.8885 33.9077C21.6459 33.8484 20.3729 33.7177 18.9999 33.5137ZM26.1096 33.9009L27.0518 37.391C27.2478 38.1172 27.9514 38.5859 28.6971 38.487C29.4428 38.3881 29.9999 37.7522 29.9999 37V33.4999C28.6263 33.7027 27.3528 33.8369 26.1096 33.9009Z" fill="#333333"/>
</svg>
