<svg width="48" height="48" viewBox="0 0 48 48" fill="none" xmlns="http://www.w3.org/2000/svg">
<path fill-rule="evenodd" clip-rule="evenodd" d="M27.9999 10.4055C27.9999 10.1078 27.6593 9.91179 27.3644 10.0399L23.9999 11.5L20.6355 10.0399C20.3405 9.91179 19.9999 10.1078 19.9999 10.4055V12.5945C19.9999 12.8923 20.3405 13.0881 20.6355 12.9602L23.9999 11.5L27.3644 12.9602C27.6593 13.0881 27.9999 12.8923 27.9999 12.5945V10.4055ZM23.9999 20.25C25.9329 20.25 27.4999 18.683 27.4999 16.75C27.4999 14.817 25.9329 13.25 23.9999 13.25C22.0669 13.25 20.4999 14.817 20.4999 16.75C20.4999 18.683 22.0669 20.25 23.9999 20.25ZM21.4999 21.75C20.9984 21.75 20.53 22.0007 20.2518 22.4179L16.2518 28.4179C15.7923 29.1072 15.9786 30.0385 16.6679 30.4981C17.3572 30.9576 18.2885 30.7713 18.748 30.0821L19.9999 28.2042V30L17.9999 34H19.9999V37.25C19.9999 38.0784 20.6715 38.75 21.4999 38.75C22.3283 38.75 22.9999 38.0784 22.9999 37.25V34H24.9999V37.25C24.9999 38.0784 25.6715 38.75 26.4999 38.75C27.3283 38.75 27.9999 38.0784 27.9999 37.25V34H29.9999L27.9999 30V28.2042L29.2518 30.0821C29.7114 30.7713 30.6427 30.9576 31.332 30.4981C32.0213 30.0385 32.2075 29.1072 31.748 28.4179L27.748 22.4179C27.4698 22.0007 27.0014 21.75 26.4999 21.75H21.4999Z" fill="#333333"/>
</svg>
