<svg width="48" height="48" viewBox="0 0 48 48" fill="none" xmlns="http://www.w3.org/2000/svg">
<path fill-rule="evenodd" clip-rule="evenodd" d="M24 42C33.9411 42 42 33.9411 42 24C42 14.0589 33.9411 6 24 6C14.0589 6 6 14.0589 6 24C6 33.9411 14.0589 42 24 42ZM24 44C35.0457 44 44 35.0457 44 24C44 12.9543 35.0457 4 24 4C12.9543 4 4 12.9543 4 24C4 35.0457 12.9543 44 24 44Z" fill="#333333"/>
<path d="M12.8616 39L14.5877 29.313H16.433C16.8227 29.3132 17.2074 29.224 17.5578 29.0522C17.9082 28.8804 18.2151 28.6306 18.4553 28.3216C18.6954 28.0126 18.8624 27.6527 18.9437 27.269C19.0249 26.8854 19.0183 26.4882 18.9242 26.1075L17.6412 20.9466C17.5008 20.3892 17.1795 19.8949 16.7282 19.5422C16.2768 19.1896 15.7214 18.9987 15.15 19H6.50005C4.15331 25.3543 4.98543 29.2608 11.5001 38.5" fill="#333333"/>
<path fill-rule="evenodd" clip-rule="evenodd" d="M15.149 18C15.9444 17.9985 16.7169 18.2644 17.3439 18.7543C17.971 19.2443 18.4165 19.9302 18.6109 20.7024L18.6117 20.7053L19.895 25.8676C20.0253 26.3949 20.0345 26.9449 19.922 27.4762C19.8094 28.0076 19.578 28.5066 19.2448 28.9352C18.9117 29.364 18.4854 29.7112 17.998 29.9501C17.5108 30.189 16.9755 30.3132 16.433 30.313H15.4252L13.8461 39.1754C13.7942 39.4666 13.6161 39.7199 13.3596 39.8672C13.1031 40.0145 12.7945 40.0407 12.5169 39.9387L11.1554 39.4387C10.9647 39.3687 10.7999 39.2423 10.6828 39.0763C7.41692 34.4445 5.48385 31.0289 4.70671 27.9099C3.91314 24.7251 4.34615 21.9457 5.56197 18.6536C5.70702 18.2608 6.08137 18 6.50005 18H15.149ZM16.1125 20.3302C15.8371 20.1151 15.4991 19.9992 15.1522 20L7.20549 20C6.26547 22.7503 6.03095 24.9525 6.64738 27.4264C7.31252 30.0958 8.98862 33.1704 12.0942 37.6062L13.6032 29.1376C13.6882 28.6605 14.1031 28.313 14.5877 28.313H16.433C16.6698 28.3131 16.9042 28.2589 17.1176 28.1543C17.3311 28.0497 17.5186 27.8972 17.6657 27.708C17.8128 27.5187 17.9154 27.2978 17.9654 27.0618C18.0153 26.8261 18.0113 26.582 17.9536 26.3482L16.6715 21.1908L16.6712 21.1895C16.5847 20.8473 16.3876 20.5452 16.1125 20.3302Z" fill="#333333"/>
<path d="M35.2497 39L34.0547 32.2191H32.7772C32.5074 32.2192 32.2411 32.1568 31.9985 32.0365C31.7559 31.9163 31.5434 31.7414 31.3772 31.5251C31.2109 31.3088 31.0953 31.0569 31.0391 30.7883C30.9828 30.5198 30.9874 30.2417 31.0525 29.9753L31.9408 26.3626C32.0379 25.9724 32.2604 25.6264 32.5729 25.3796C32.8853 25.1327 33.2699 24.9991 33.6655 25H41.5C42.9042 30.2044 41.3662 33.2823 35.2497 39Z" fill="#333333"/>
<path fill-rule="evenodd" clip-rule="evenodd" d="M33.6664 24C33.0439 23.9989 32.4409 24.2094 31.9529 24.5949C31.465 24.9804 31.1205 25.5182 30.9704 26.1209L30.9697 26.1238L30.0811 29.7379C29.9805 30.1494 29.9734 30.5787 30.0603 30.9934C30.1472 31.4081 30.326 31.7984 30.5843 32.1345C30.8427 32.4707 31.1742 32.744 31.5544 32.9325C31.9345 33.1209 32.3528 33.2192 32.7772 33.2191H33.2156L34.2649 39.1736C34.3286 39.5349 34.585 39.8323 34.9329 39.9485C35.2809 40.0647 35.6646 39.9811 35.9326 39.7305C39.0002 36.8629 41.0435 34.55 42.105 32.2224C43.1995 29.8226 43.211 27.5025 42.4655 24.7395C42.3478 24.3032 41.952 24 41.5 24H33.6664ZM33.1928 26.1642C33.3294 26.0563 33.495 25.9996 33.6632 26L40.7162 26C41.1733 28.0797 41.0496 29.7166 40.2853 31.3926C39.5386 33.0299 38.1533 34.7688 35.9096 36.9824L35.0396 32.0456C34.9553 31.5676 34.5401 31.2191 34.0547 31.2191H32.7772C32.6622 31.2192 32.5475 31.1926 32.4426 31.1406C32.3376 31.0885 32.2441 31.0121 32.17 30.9157C32.0959 30.8193 32.0434 30.7057 32.0178 30.5833C31.9922 30.4611 31.9943 30.3344 32.0238 30.2133L32.9111 26.6043L32.9114 26.6031C32.9558 26.4259 33.0562 26.2722 33.1928 26.1642Z" fill="#333333"/>
<path d="M41 16.0267C37.5126 10.8642 34.9426 8.70682 28.9379 6.5L28.2216 8.8435H27.2925C27.0963 8.84341 26.9026 8.88801 26.7262 8.9739C26.5497 9.05979 26.3952 9.18472 26.2743 9.3392C26.1534 9.49369 26.0693 9.67367 26.0284 9.86548C25.9875 10.0573 25.9908 10.2559 26.0382 10.4462L28.6842 16.0267C28.7548 16.3054 28.9166 16.5526 29.1439 16.7289C29.3711 16.9052 29.6508 17.0006 29.9385 17H41" fill="#333333"/>
<path fill-rule="evenodd" clip-rule="evenodd" d="M29.9394 18C29.4295 18.0008 28.9338 17.8316 28.5308 17.5189C28.1569 17.2288 27.8828 16.8306 27.7448 16.3797L25.1346 10.8747C25.1062 10.8147 25.0838 10.7521 25.0678 10.6877C24.9837 10.3499 24.9778 9.99736 25.0504 9.65689C25.123 9.31643 25.2723 8.99701 25.4868 8.72289C25.7013 8.44876 25.9755 8.22714 26.2884 8.07479C26.6012 7.9225 26.9446 7.84341 27.2925 7.8435H27.4816L27.9815 6.20771C28.0619 5.94486 28.2469 5.72666 28.493 5.60439C28.7392 5.48212 29.0248 5.46657 29.2828 5.56138C32.3398 6.68485 34.5926 7.82092 36.5369 9.37355C38.4792 10.9245 40.0595 12.8481 41.8286 15.4669C41.9403 15.6323 42 15.8272 42 16.0267V17C42 17.5523 41.5523 18 41 18H29.9394ZM29.7569 15.9388C29.8081 15.9786 29.8713 16.0001 29.9363 16L39.7699 16C38.2231 13.7714 36.8695 12.1985 35.2889 10.9364C33.7739 9.72658 32.008 8.76873 29.5818 7.8143L29.1779 9.13578C29.0494 9.55628 28.6613 9.8435 28.2216 9.8435H27.2925C27.2481 9.84348 27.2038 9.85358 27.1639 9.87301C27.124 9.89244 27.0891 9.92067 27.0618 9.95551C27.0345 9.99036 27.0156 10.0309 27.0064 10.0741C27.0017 10.0961 26.9996 10.1184 27.0001 10.1408L29.5877 15.5983C29.6155 15.6569 29.6375 15.718 29.6535 15.7809C29.6693 15.8435 29.7057 15.8991 29.7569 15.9388Z" fill="#333333"/>
</svg>
