<svg width="48" height="48" viewBox="0 0 48 48" fill="none" xmlns="http://www.w3.org/2000/svg">
<path fill-rule="evenodd" clip-rule="evenodd" d="M28.2967 20.1175L23.5 24.9142V31.6288C26.2318 31.2642 28.5675 30.6974 31.5 29C33.6376 32.9189 35.4286 34.0455 36.3477 34.6236C36.7186 34.8569 36.9475 35.0009 37 35.203C37.1194 35.6627 37.2457 35.9999 37.3444 36.2632C37.6452 37.066 37.6893 37.1838 36.5 38H40V33.4771C40 31.5 37 26.2283 37 26.2283L41.5 32C41.905 32.2531 42.4521 31.7669 42 31C41.8112 30.496 41.605 29.8357 41.3715 29.0883C40.2574 25.5215 38.5241 19.9724 35.1188 19.9724C34.6262 19.9724 33.9173 19.9977 33.0828 20.0275C31.6957 20.077 29.9616 20.1389 28.2967 20.1175ZM21.5 31.864V25.5H13.5862C14.3933 27.2528 15.3593 28.5221 16.1083 29.5062C16.2471 29.6886 16.3785 29.8612 16.5 30.0253C17 30.7004 18.5 35.203 16 37.2741C19.107 37.2741 19.8304 38.3352 19.9806 38.2595C20.0479 38.2256 20 37.9631 20 37.2741V32.0253C20.3184 31.9905 20.629 31.9573 20.9328 31.9248C21.1245 31.9043 21.3135 31.8841 21.5 31.864ZM12.8215 23.5H22.0858L25.6027 19.9831C25.5683 19.9796 25.534 19.976 25.4999 19.9724C21.4237 19.5375 18.8074 17.9777 17 13.1115C15.3333 8.62416 9.99988 10.5 10 14.147C8.78698 14.5769 6 15.5278 6 15.5278C6 15.5278 6.50002 18.1752 7.5 19.5C8.04049 19.8939 9.83632 19.9724 11 19.9724C11.411 19.9724 11.7803 19.9643 12.1121 19.9472C12.2481 21.2819 12.4996 22.4582 12.8215 23.5Z" fill="#333333"/>
<path d="M15 38C15 37.4477 15.4477 37 16 37H19C19.5523 37 20 37.4477 20 38C20 38.5523 19.5523 39 19 39H16C15.4477 39 15 38.5523 15 38Z" fill="#333333"/>
<path d="M36 38C36 37.4477 36.4477 37 37 37H39C39.5523 37 40 37.4477 40 38C40 38.5523 39.5523 39 39 39H37C36.4477 39 36 38.5523 36 38Z" fill="#333333"/>
<path d="M17.9737 12.3112C19.1538 13.0353 19.4828 16.7133 19 17.5C18.5172 18.2867 17.4055 15.8842 16.2254 15.16C15.0454 14.4359 14.4801 13.2111 14.9629 12.4244C15.4457 11.6377 16.7937 11.587 17.9737 12.3112Z" fill="#333333"/>
<path fill-rule="evenodd" clip-rule="evenodd" d="M38.707 9.70711C39.0975 9.31658 39.0975 8.68342 38.707 8.29289C38.3165 7.90237 37.6833 7.90237 37.2928 8.29289L25.5857 20H28.4141L38.707 9.70711Z" fill="#333333"/>
</svg>
