<svg width="48" height="48" viewBox="0 0 48 48" fill="none" xmlns="http://www.w3.org/2000/svg">
<path fill-rule="evenodd" clip-rule="evenodd" d="M24 44C35.0457 44 44 35.0457 44 24C44 12.9543 35.0457 4 24 4C12.9543 4 4 12.9543 4 24C4 35.0457 12.9543 44 24 44ZM15.6512 29.4025C15.3323 28.7507 15.8209 28 16.5466 28H31.4534C32.1791 28 32.6677 28.7507 32.3488 29.4025C30.9839 32.1919 28.563 36 24 36C19.437 36 17.0161 32.1919 15.6512 29.4025ZM17.5547 19.5717C17.2188 19.3477 16.7812 19.3477 16.4453 19.5717L14.5547 20.8321C14.0952 21.1384 13.4743 21.0142 13.1679 20.5547C12.8616 20.0952 12.9858 19.4743 13.4453 19.1679L15.3359 17.9075C16.3436 17.2358 17.6564 17.2358 18.6641 17.9075L20.5547 19.1679C21.0142 19.4743 21.1384 20.0952 20.8321 20.5547C20.5257 21.0142 19.9048 21.1384 19.4453 20.8321L17.5547 19.5717ZM30.4453 19.5717C30.7812 19.3477 31.2188 19.3477 31.5547 19.5717L33.4453 20.8321C33.9048 21.1384 34.5257 21.0142 34.8321 20.5547C35.1384 20.0952 35.0142 19.4743 34.5547 19.1679L32.6641 17.9075C31.6564 17.2358 30.3436 17.2358 29.3359 17.9075L27.4453 19.1679C26.9858 19.4743 26.8616 20.0952 27.1679 20.5547C27.4743 21.0142 28.0952 21.1384 28.5547 20.8321L30.4453 19.5717Z" fill="#333333"/>
<path fill-rule="evenodd" clip-rule="evenodd" d="M24 42C33.9411 42 42 33.9411 42 24C42 14.0589 33.9411 6 24 6C14.0589 6 6 14.0589 6 24C6 33.9411 14.0589 42 24 42ZM13.1679 20.5547L11.5038 21.6641C10.5848 20.2855 10.9573 18.4229 12.3359 17.5038L14.2265 16.2434C15.906 15.1238 18.094 15.1238 19.7735 16.2434L21.6641 17.5038C23.0427 18.4229 23.4152 20.2855 22.4962 21.6641L20.8321 20.5547C21.1384 20.0952 21.0142 19.4743 20.5547 19.1679L18.6641 17.9075C17.6564 17.2358 16.3436 17.2358 15.3359 17.9075L13.4459 19.1675C13.4457 19.1677 13.4461 19.1674 13.4459 19.1675C12.9864 19.4739 12.8616 20.0952 13.1679 20.5547ZM14.5547 20.8321C14.0952 21.1384 13.4743 21.0142 13.1679 20.5547L11.5038 21.6641C12.4229 23.0427 14.2855 23.4152 15.6641 22.4962L17 21.6056L18.3359 22.4962C19.7145 23.4152 21.5771 23.0427 22.4962 21.6641L20.8321 20.5547C20.5257 21.0142 19.9048 21.1384 19.4453 20.8321L17.5547 19.5717C17.2188 19.3477 16.7812 19.3477 16.4453 19.5717L14.5547 20.8321ZM25.5038 21.6641C24.5848 20.2855 24.9573 18.4229 26.3359 17.5038L28.2265 16.2434C29.906 15.1238 32.094 15.1238 33.7735 16.2434L35.6641 17.5038C37.0427 18.4229 37.4152 20.2855 36.4962 21.6641C35.5771 23.0427 33.7145 23.4152 32.3359 22.4962L31 21.6056L29.6641 22.4962C28.2855 23.4152 26.4229 23.0427 25.5038 21.6641ZM27.4453 19.1679C26.9858 19.4743 26.8616 20.0952 27.1679 20.5547C27.4743 21.0142 28.0952 21.1384 28.5547 20.8321L30.4453 19.5717C30.7812 19.3477 31.2188 19.3477 31.5547 19.5717L33.4453 20.8321C33.9048 21.1384 34.5257 21.0142 34.8321 20.5547C35.1384 20.0952 35.0142 19.4743 34.5547 19.1679L32.6641 17.9075C31.6721 17.2463 30.3846 17.2359 29.3834 17.8766C29.3675 17.8867 29.3516 17.8971 29.3359 17.9075L27.4453 19.1679ZM13.8547 30.2815C12.8561 28.2405 14.4095 26 16.5466 26H31.4534C33.5905 26 35.1439 28.2405 34.1453 30.2815C32.7819 33.0678 29.872 38 24 38C18.128 38 15.2181 33.0678 13.8547 30.2815ZM44 24C44 35.0457 35.0457 44 24 44C12.9543 44 4 35.0457 4 24C4 12.9543 12.9543 4 24 4C35.0457 4 44 12.9543 44 24ZM16.5466 28C15.8209 28 15.3323 28.7507 15.6512 29.4025C17.0161 32.1919 19.437 36 24 36C28.563 36 30.9839 32.1919 32.3488 29.4025C32.6677 28.7507 32.1791 28 31.4534 28H16.5466Z" fill="#333333"/>
</svg>
