<svg width="48" height="48" viewBox="0 0 48 48" fill="none" xmlns="http://www.w3.org/2000/svg">
<path d="M24 25.1333C28.9725 25.1333 33 21.076 33 16.0667C33 11.0573 28.9725 7 24 7C19.0275 7 15 11.0573 15 16.0667C15 21.076 19.0275 25.1333 24 25.1333Z" fill="#333333"/>
<path fill-rule="evenodd" clip-rule="evenodd" d="M18.1254 28.9539C17.8971 28.4861 17.3814 28.2333 16.8786 28.3569C11.4745 29.6849 6 32.3928 6 36.4664V42.9997H42V36.4664C42 32.3928 36.5255 29.6849 31.1214 28.3569C30.6186 28.2333 30.1029 28.4861 29.8746 28.9539L25.8105 31.9539C24.9218 31.9541 24.4693 31.9541 24.0248 31.954C23.5637 31.954 23.1112 31.954 22.1893 31.9542L18.1254 28.9539ZM31 31H33V34H36V36H33V39H31V36H28V34H31V31Z" fill="#333333"/>
</svg>
