<svg width="48" height="48" viewBox="0 0 48 48" fill="none" xmlns="http://www.w3.org/2000/svg">
<path fill-rule="evenodd" clip-rule="evenodd" d="M17 7C17 5.34315 18.3431 4 20 4H28C29.6569 4 31 5.34315 31 7H34C36.2091 7 38 8.79086 38 11V39C38 41.2091 36.2091 43 34 43H14C11.7909 43 10 41.2091 10 39V11C10 8.79086 11.7909 7 14 7H17ZM20 6C19.4477 6 19 6.44772 19 7V9C19 9.55228 19.4477 10 20 10H28C28.5523 10 29 9.55228 29 9V7C29 6.44772 28.5523 6 28 6H20ZM16 20C15.4477 20 15 20.4477 15 21C15 21.5523 15.4477 22 16 22H23C23.5523 22 24 21.5523 24 21C24 20.4477 23.5523 20 23 20H16ZM15 16C15 15.4477 15.4477 15 16 15H31.5C32.0523 15 32.5 15.4477 32.5 16C32.5 16.5523 32.0523 17 31.5 17H16C15.4477 17 15 16.5523 15 16ZM26.0251 23.641C26.0251 22.7385 26.777 22 27.696 22C28.6151 22 29.367 22.7385 29.367 23.641C29.367 24.5436 28.6151 25.2821 27.696 25.2821C26.777 25.2821 26.0251 24.5436 26.0251 23.641ZM25.5898 27.6565H20.8355C20.376 27.6565 20 27.2873 20 26.836C20 26.3847 20.376 26.0155 20.8355 26.0155H34.1645C34.624 26.0155 35 26.3847 35 26.836C35 27.2873 34.624 27.6565 34.1645 27.6565H29.4102L32.2948 37.5027C32.2948 37.954 31.9188 38.3232 31.4593 38.3232C30.4518 38.3232 29.7004 35.9143 29.2279 34.3993C29.0936 33.9688 28.9818 33.6105 28.8931 33.4001H26.1069C26.0182 33.6105 25.9064 33.9688 25.7721 34.3993C25.2996 35.9143 24.5482 38.3232 23.5407 38.3232C23.0812 38.3232 22.7052 37.954 22.7052 37.5027L25.5898 27.6565ZM17 34V32H19V34H17ZM15 31C15 30.4477 15.4477 30 16 30H20C20.5523 30 21 30.4477 21 31V35C21 35.5523 20.5523 36 20 36H16C15.4477 36 15 35.5523 15 35V31Z" fill="#333333"/>
</svg>
