<svg width="48" height="48" viewBox="0 0 48 48" fill="none" xmlns="http://www.w3.org/2000/svg">
<path d="M12.2857 42V29.9025C10.5546 28.1181 7.14289 23.6639 7.14282 17.9222C7.14277 13.8404 10.1568 6 21.9823 6C28.0602 6 30.7599 7.4856 33.1299 9.66743C33.2314 9.76084 33.3308 9.85149 33.428 9.94007C34.2801 10.7169 34.9579 11.3349 35.3079 12.2605C36.6082 15.6996 38.9481 20.7122 40.4505 23.8477C41.0916 25.1856 40.1177 26.7437 38.634 26.7437H37.3239V31.5C37.3239 32.6046 36.4285 33.5 35.3239 33.5H32.1154C32.0704 33.4948 32.0246 33.4927 31.9782 33.4937C31.7879 33.4978 31.591 33.4999 31.3887 33.5C31.3812 33.5 31.3738 33.5 31.3663 33.5C30.0936 33.4995 28.6099 33.4198 27.216 33.2741C25.5685 33.1019 24.1404 32.8467 23.3377 32.5587C22.8178 32.3722 22.2452 32.6425 22.0587 33.1623C21.8722 33.6822 22.1425 34.2548 22.6623 34.4413C23.7058 34.8156 25.3373 35.0886 27.0081 35.2632C27.6609 35.3315 28.334 35.3861 29 35.4256V42H12.2857Z" fill="currentColor"/>
</svg>
