<svg width="48" height="48" viewBox="0 0 48 48" fill="none" xmlns="http://www.w3.org/2000/svg">
<path fill-rule="evenodd" clip-rule="evenodd" d="M6 9C6 7.34315 7.34315 6 9 6H39C40.6569 6 42 7.34315 42 9V39C42 40.6569 40.6569 42 39 42H22.0122V29H20.0122V42H9C7.34315 42 6 40.6569 6 39V9ZM11.5522 35C7.78588 35 8.7152 22.8214 10.9585 18.1071C13.2019 13.3929 16.2718 13 22.549 13C26.3943 13 27.3694 13.6161 28.1249 14.0934C28.6028 14.3954 28.9928 14.6418 29.9656 14.6418C30.9699 14.6418 32.3761 14.3266 33.7822 14.0113C35.8913 13.5385 38.0005 13.0657 38.7537 13.6567C40.0092 14.6418 36.2428 21.8657 32.4765 21.8657C30.5379 21.8657 29.3753 23.3259 28.247 24.7432C27.1833 26.0794 26.1499 27.3774 24.5253 27.3774C22.8513 27.3774 21.8051 27.9696 20.7589 28.5618C19.7127 29.1541 18.6665 29.7463 16.9925 29.7463C15.6197 29.7463 15.166 30.9001 14.6838 32.1262C14.137 33.5166 13.5536 35 11.5522 35Z" fill="#333333"/>
<path fill-rule="evenodd" clip-rule="evenodd" d="M22.0731 15.0271C22.6549 13.3685 23.8586 11.35 26.3148 10.0103L27.2725 11.766C25.3582 12.8102 24.4239 14.3677 23.9604 15.6891C23.7276 16.3526 23.6164 16.9507 23.5638 17.3796C23.5376 17.5933 23.5262 17.7627 23.5212 17.8745C23.5188 17.9303 23.518 17.9715 23.5177 17.9964L23.5176 18.0213C23.5176 18.0233 23.5176 18.0242 23.5176 18.024L23.5176 18.023L23.5176 18.0218L23.5176 18.021C23.5176 18.0206 23.5175 18.0202 22.5177 18.04C21.5179 18.0599 21.5179 18.0594 21.5179 18.0589L21.5179 18.0578L21.5179 18.0554L21.5178 18.0491L21.5176 18.0313C21.5175 18.0172 21.5176 17.9984 21.5178 17.9754C21.5183 17.9293 21.5197 17.8657 21.5232 17.7865C21.5302 17.6282 21.5455 17.4065 21.5787 17.136C21.6449 16.5964 21.7832 15.8535 22.0731 15.0271Z" fill="#333333"/>
<path d="M14.2717 25.2575C16.55 26.9281 21.1067 25.2575 21.1067 25.2575V22.7513C21.1067 22.7513 18.8284 24.84 16.1703 22.7513C13.5122 20.6627 11.9933 23.5869 14.2717 25.2575Z" fill="#333333"/>
<path fill-rule="evenodd" clip-rule="evenodd" d="M21.049 20.6285C21.5889 20.156 22.3113 19.8347 22.9988 19.8347V21.8347C22.8917 21.8347 22.6208 21.9107 22.366 22.1336C22.1302 22.34 22.0122 22.5801 22.0122 22.8214V28.9998L20.0122 28.9999V22.8214C20.0122 21.8706 20.4902 21.1174 21.049 20.6285Z" fill="#333333"/>
</svg>
