<svg width="48" height="48" viewBox="0 0 48 48" fill="none" xmlns="http://www.w3.org/2000/svg">
<path fill-rule="evenodd" clip-rule="evenodd" d="M16.0312 8C10.8117 8 7 13.3091 7 19.0345C7 20.5732 7.24637 22.0453 7.6798 23.4444H7.78253H17.4152L19.6284 19.5097L20.8032 17.4212L21.4615 19.7253L22.9203 24.8308L25.2106 21.8861L25.5109 21.5H26H31C31.5523 21.5 32 21.9477 32 22.5C32 23.0523 31.5523 23.5 31 23.5H26.4891L23.2894 27.6139L22.0797 29.1692L21.5385 27.2747L20.1968 22.5788L18.8716 24.9347L18.5848 25.4444H18H8.44308C12.5487 34.4872 24 40 24 40C24 40 41 31.2888 41 19.0345C41 13.31 37.1889 8 31.9688 8C28.3466 8 25.6589 10.3822 24 13.7611C22.341 10.382 19.6533 8 16.0312 8Z" fill="#333333"/>
<path fill-rule="evenodd" clip-rule="evenodd" d="M7.6798 23.4445H5C4.44772 23.4445 4 23.8922 4 24.4445C4 24.9967 4.44772 25.4445 5 25.4445H7.78253H8.44308C8.14854 24.7957 7.8918 24.1288 7.6798 23.4445Z" fill="#333333"/>
</svg>
