<svg width="48" height="48" viewBox="0 0 48 48" fill="none" xmlns="http://www.w3.org/2000/svg">
<path fill-rule="evenodd" clip-rule="evenodd" d="M28 7V4H30V7C30 7.55228 30.4477 8 31 8H39C39.5523 8 40 7.55228 40 7V4H42V7C42 8.65685 40.6569 10 39 10H36V26C36 26.5523 35.5523 27 35 27C34.4477 27 34 26.5523 34 26V10H31C29.3431 10 28 8.65685 28 7Z" fill="#333333"/>
<path d="M27 13C27 12.4477 27.4477 12 28 12H32C32.5523 12 33 12.4477 33 13V19C33 19.5523 32.5523 20 32 20H28C27.4477 20 27 19.5523 27 19V13Z" fill="#333333"/>
<path fill-rule="evenodd" clip-rule="evenodd" d="M29 12.5V9H31V12.5H29Z" fill="#333333"/>
<path d="M39.0662 25.0664H18.11C18.0285 25.0664 17.9502 25.0337 17.8925 24.9756L11.7867 18.8285C10.2342 17.2655 7.71958 17.2655 6.16703 18.8285C4.61099 20.3951 4.61099 22.9376 6.16703 24.5042L14.2752 32.6672C14.4867 32.8801 14.7733 32.9997 15.0722 32.9997H39.0662C41.2388 32.9997 43 31.2238 43 29.033C43 26.8423 41.2388 25.0664 39.0662 25.0664Z" fill="#333333"/>
<path d="M7 25L9 26.1818V38H7V25Z" fill="#333333"/>
<path d="M38 32.5234H40V38.1991H38V32.5234Z" fill="#333333"/>
<path fill-rule="evenodd" clip-rule="evenodd" d="M44 38H4V36H44V38Z" fill="#333333"/>
<path d="M12 40.5C12 42.433 10.433 44 8.5 44C6.567 44 5 42.433 5 40.5C5 38.567 6.567 37 8.5 37C10.433 37 12 38.567 12 40.5Z" fill="#333333"/>
<path d="M43 40.5C43 42.433 41.433 44 39.5 44C37.567 44 36 42.433 36 40.5C36 38.567 37.567 37 39.5 37C41.433 37 43 38.567 43 40.5Z" fill="#333333"/>
<path fill-rule="evenodd" clip-rule="evenodd" d="M10.7632 17.1034C12.2364 15.6315 14.624 15.6323 16.0961 17.1052L17.8964 18.9063L17.1891 19.6132L17.8964 18.9063C19.3686 20.3793 19.3678 22.7667 17.8945 24.2387L16.4245 25.7074L15.0109 24.2926L16.4809 22.8239C17.1727 22.1327 17.1731 21.0118 16.4818 20.3202L14.6816 18.5191C13.9902 17.8273 12.8687 17.8269 12.1768 18.5182L10.7068 19.9869L9.29321 18.5721L10.7632 17.1034Z" fill="#333333"/>
</svg>
