<svg width="48" height="48" viewBox="0 0 48 48" fill="none" xmlns="http://www.w3.org/2000/svg">
<path d="M18 24V20H14V24H18Z" fill="#333333"/>
<path d="M18 26V30H14V26H18Z" fill="#333333"/>
<path d="M26 24V20H22V24H26Z" fill="#333333"/>
<path d="M26 26V30H22V26H26Z" fill="#333333"/>
<path d="M34 24V20H30V24H34Z" fill="#333333"/>
<path d="M34 26V30H30V26H34Z" fill="#333333"/>
<path fill-rule="evenodd" clip-rule="evenodd" d="M20 4H28C29.6569 4 31 5.34315 31 7V14H36C37.6569 14 39 15.3431 39 17V42H43V44H5V42H9V17C9 15.3431 10.3431 14 12 14H17V7C17 5.34315 18.3431 4 20 4ZM11 42H20V36C20 33.7909 21.7909 32 24 32C26.2091 32 28 33.7909 28 36V42H37V17C37 16.4477 36.5523 16 36 16H30.8293C30.4175 17.1652 29.3062 18 28 18H20C18.6938 18 17.5825 17.1652 17.1707 16H12C11.4477 16 11 16.4477 11 17V42ZM25 8C25 7.44772 24.5523 7 24 7C23.4477 7 23 7.44772 23 8V10H21C20.4477 10 20 10.4477 20 11C20 11.5523 20.4477 12 21 12H23V14C23 14.5523 23.4477 15 24 15C24.5523 15 25 14.5523 25 14V12H27C27.5523 12 28 11.5523 28 11C28 10.4477 27.5523 10 27 10L25 10V8Z" fill="#333333"/>
</svg>
