<svg width="48" height="48" viewBox="0 0 48 48" fill="none" xmlns="http://www.w3.org/2000/svg">
<path fill-rule="evenodd" clip-rule="evenodd" d="M16.4906 12.133C16.9695 12.408 17.1348 13.0192 16.8597 13.4982C16.7595 13.6727 16.591 14.0287 16.4648 14.4531C16.3364 14.8848 16.2759 15.3076 16.3175 15.6469C16.3417 15.8434 16.3897 15.9478 16.4317 16.0171C16.4845 16.1042 16.5524 16.1799 16.7047 16.3382C16.7101 16.3439 16.7157 16.3497 16.7214 16.3556C16.8588 16.4983 17.0694 16.7171 17.2461 17.0085C17.441 17.33 17.5779 17.7066 17.6351 18.1718C17.7234 18.8912 17.5885 19.6119 17.4198 20.1794C17.2488 20.7543 17.0186 21.2531 16.8421 21.5604C16.5671 22.0393 15.9558 22.2046 15.4769 21.9295C14.998 21.6545 14.8327 21.0433 15.1078 20.5643C15.208 20.3898 15.3765 20.0337 15.5027 19.6094C15.6311 19.1777 15.6916 18.7549 15.65 18.4156C15.6258 18.2191 15.5778 18.1147 15.5358 18.0454C15.483 17.9583 15.4151 17.8826 15.2628 17.7243C15.2574 17.7186 15.2518 17.7128 15.2461 17.7069C15.1087 17.5642 14.8981 17.3454 14.7214 17.0539C14.5265 16.7325 14.3896 16.3559 14.3324 15.8907C14.2441 15.1713 14.379 14.4506 14.5477 13.8831C14.7187 13.3082 14.9489 12.8093 15.1254 12.5021C15.4004 12.0232 16.0117 11.8579 16.4906 12.133Z" fill="#333333"/>
<path fill-rule="evenodd" clip-rule="evenodd" d="M24.4906 12.1328C24.9695 12.4078 25.1348 13.019 24.8597 13.498C24.7595 13.6725 24.591 14.0285 24.4648 14.4529C24.3364 14.8846 24.2759 15.3074 24.3175 15.6467C24.3417 15.8432 24.3897 15.9476 24.4317 16.0169C24.4845 16.104 24.5524 16.1797 24.7047 16.338C24.7101 16.3437 24.7157 16.3495 24.7214 16.3554C24.8588 16.4981 25.0694 16.7169 25.2461 17.0083C25.441 17.3298 25.5779 17.7064 25.6351 18.1716C25.7234 18.891 25.5885 19.6117 25.4198 20.1792C25.2488 20.7541 25.0186 21.2529 24.8421 21.5602C24.5671 22.0391 23.9558 22.2044 23.4769 21.9293C22.998 21.6543 22.8327 21.043 23.1078 20.5641C23.208 20.3896 23.3765 20.0335 23.5027 19.6092C23.6311 19.1775 23.6916 18.7547 23.65 18.4154C23.6258 18.2189 23.5778 18.1145 23.5358 18.0452C23.483 17.9581 23.4151 17.8824 23.2628 17.7241C23.2574 17.7184 23.2518 17.7126 23.2461 17.7067C23.1087 17.564 22.8981 17.3452 22.7214 17.0537C22.5265 16.7323 22.3896 16.3557 22.3324 15.8905C22.2441 15.1711 22.379 14.4504 22.5477 13.8829C22.7187 13.308 22.9489 12.8091 23.1254 12.5019C23.4004 12.023 24.0117 11.8577 24.4906 12.1328Z" fill="#333333"/>
<path fill-rule="evenodd" clip-rule="evenodd" d="M32.4906 12.133C32.9695 12.408 33.1348 13.0192 32.8597 13.4982C32.7595 13.6727 32.591 14.0287 32.4648 14.4531C32.3364 14.8848 32.2759 15.3076 32.3175 15.6469C32.3417 15.8434 32.3897 15.9478 32.4317 16.0171C32.4845 16.1042 32.5524 16.1799 32.7047 16.3382C32.7101 16.3439 32.7157 16.3497 32.7214 16.3556C32.8588 16.4983 33.0694 16.7171 33.2461 17.0085C33.441 17.33 33.5779 17.7066 33.6351 18.1718C33.7234 18.8912 33.5885 19.6119 33.4198 20.1794C33.2488 20.7543 33.0186 21.2531 32.8421 21.5604C32.5671 22.0393 31.9558 22.2046 31.4769 21.9295C30.998 21.6545 30.8327 21.0433 31.1078 20.5643C31.208 20.3898 31.3765 20.0337 31.5027 19.6094C31.6311 19.1777 31.6916 18.7549 31.65 18.4156C31.6258 18.2191 31.5778 18.1147 31.5358 18.0454C31.483 17.9583 31.4151 17.8826 31.2628 17.7243C31.2574 17.7186 31.2518 17.7128 31.2461 17.7069C31.1087 17.5642 30.8981 17.3454 30.7214 17.0539C30.5265 16.7325 30.3896 16.3559 30.3324 15.8907C30.2441 15.1713 30.379 14.4506 30.5477 13.8831C30.7187 13.3082 30.9489 12.8093 31.1254 12.5021C31.4004 12.0232 32.0117 11.8579 32.4906 12.133Z" fill="#333333"/>
<path d="M5 26.0298C4.44772 26.0298 4 26.4775 4 27.0298C4 27.582 4.44772 28.0298 5 28.0298H8C8 32.448 11.5817 36.0298 16 36.0298H32C36.4183 36.0298 40 32.448 40 28.0298H43C43.5523 28.0298 44 27.582 44 27.0298C44 26.4775 43.5523 26.0298 43 26.0298H5Z" fill="#333333"/>
</svg>
