<svg width="48" height="48" viewBox="0 0 48 48" fill="none" xmlns="http://www.w3.org/2000/svg">
<path d="M20 33V40.9998C20 41.5521 19.5523 41.9998 19 41.9998H12C11.4477 41.9998 11 41.5521 11 40.9998V20.5L24 7.5L37 20.5V40.9998C37 41.5521 36.5523 41.9998 36 41.9998H29C28.4477 41.9998 28 41.5521 28 40.9998V33C28 31.8954 27.1046 31 26 31H22C20.8954 31 20 31.8954 20 33Z" fill="#333333"/>
<path fill-rule="evenodd" clip-rule="evenodd" d="M18 39.9998V33C18 30.7909 19.7909 29 22 29H26C28.2091 29 30 30.7909 30 33V39.9998H35V21.3284L24 10.3284L13 21.3284V39.9998H18ZM11 20.5V40.9998C11 41.5521 11.4477 41.9998 12 41.9998H19C19.5523 41.9998 20 41.5521 20 40.9998V33C20 31.8954 20.8954 31 22 31H26C27.1046 31 28 31.8954 28 33V40.9998C28 41.5521 28.4477 41.9998 29 41.9998H36C36.5523 41.9998 37 41.5521 37 40.9998V20.5L24 7.5L11 20.5Z" fill="#333333"/>
<path fill-rule="evenodd" clip-rule="evenodd" d="M24.0579 6.08575L41.7083 23.794C42.0981 24.1852 42.0971 24.8183 41.7059 25.2082C41.3148 25.5981 40.6816 25.5971 40.2917 25.2059L24.0533 8.91419L7.70595 25.2082C7.31479 25.5981 6.68163 25.5971 6.29174 25.2059C5.90185 24.8148 5.90289 24.1816 6.29405 23.7917L24.0579 6.08575Z" fill="#333333"/>
</svg>
