<svg width="48" height="48" viewBox="0 0 48 48" fill="none" xmlns="http://www.w3.org/2000/svg">
<path fill-rule="evenodd" clip-rule="evenodd" d="M14.8324 13.4192C17.0531 11.4936 19.8859 10.2554 22.9999 10.0356V12.0005C22.9999 12.5528 23.4476 13.0005 23.9999 13.0005C24.5522 13.0005 24.9999 12.5528 24.9999 12.0005V10.0356C28.1137 10.2554 30.9464 11.4935 33.167 13.4189L31.7781 14.8079C31.3875 15.1984 31.3875 15.8316 31.7781 16.2221C32.1686 16.6126 32.8017 16.6126 33.1923 16.2221L34.5812 14.8331C36.5068 17.0537 37.7449 19.8865 37.9647 23.0005H35.9999C35.4476 23.0005 34.9999 23.4482 34.9999 24.0005C34.9999 24.5528 35.4476 25.0005 35.9999 25.0005H37.9647C37.7449 28.1144 36.5068 30.9471 34.5814 33.1677L33.1923 31.7786C32.8017 31.3881 32.1686 31.3881 31.7781 31.7786C31.3875 32.1691 31.3875 32.8023 31.7781 33.1928L33.1672 34.5819C30.9466 36.5074 28.1138 37.7456 24.9999 37.9653V36.0005C24.9999 35.4482 24.5522 35.0005 23.9999 35.0005C23.4476 35.0005 22.9999 35.4482 22.9999 36.0005V37.9653C19.886 37.7456 17.0534 36.5075 14.8328 34.5821L16.2217 33.1932C16.6122 32.8027 16.6122 32.1695 16.2217 31.779C15.8312 31.3885 15.198 31.3885 14.8075 31.779L13.4186 33.1679C11.493 30.9473 10.2548 28.1145 10.035 25.0005H11.9999C12.5522 25.0005 12.9999 24.5528 12.9999 24.0005C12.9999 23.4482 12.5522 23.0005 11.9999 23.0005H10.035C10.2548 19.8866 11.4929 17.0539 13.4183 14.8334L14.8075 16.2226C15.198 16.6131 15.8312 16.6131 16.2217 16.2226C16.6122 15.8321 16.6122 15.1989 16.2217 14.8084L14.8324 13.4192ZM15.9999 21.0005C15.9999 20.4482 15.5522 20.0005 14.9999 20.0005C14.4476 20.0005 13.9999 20.4482 13.9999 21.0005V27.0005C13.9999 27.5528 14.4476 28.0005 14.9999 28.0005C15.5522 28.0005 15.9999 27.5528 15.9999 27.0005V25.0005H17.9999V27.0005C17.9999 27.5528 18.4476 28.0005 18.9999 28.0005C19.5522 28.0005 19.9999 27.5528 19.9999 27.0005V21.0005C19.9999 20.4482 19.5522 20.0005 18.9999 20.0005C18.4476 20.0005 17.9999 20.4482 17.9999 21.0005V23.0005H15.9999V21.0005ZM20.9999 21.0005C20.9999 20.4482 21.4476 20.0005 21.9999 20.0005H24.4999C25.8806 20.0005 26.9999 21.1198 26.9999 22.5005C26.9999 23.8812 25.8806 25.0005 24.4999 25.0005H22.9999V27.0005C22.9999 27.5528 22.5522 28.0005 21.9999 28.0005C21.4476 28.0005 20.9999 27.5528 20.9999 27.0005V21.0005ZM22.9999 23.0005H24.4999C24.776 23.0005 24.9999 22.7766 24.9999 22.5005C24.9999 22.2243 24.776 22.0005 24.4999 22.0005H22.9999V23.0005ZM31.923 27.3851C31.7677 27.7578 31.4036 28.0005 30.9999 28.0005C30.5962 28.0005 30.2321 27.7578 30.0768 27.3851L27.5768 21.3851C27.3644 20.8753 27.6055 20.2898 28.1153 20.0774C28.6251 19.865 29.2105 20.1061 29.423 20.6159L30.9999 24.4005L32.5768 20.6159C32.7892 20.1061 33.3747 19.865 33.8845 20.0774C34.3943 20.2898 34.6354 20.8753 34.423 21.3851L31.923 27.3851Z" fill="#333333"/>
<path fill-rule="evenodd" clip-rule="evenodd" d="M20.9999 5.00049C20.9999 4.4482 21.4476 4.00049 21.9999 4.00049H25.9999C26.5522 4.00049 26.9999 4.4482 26.9999 5.00049C26.9999 5.55277 26.5522 6.00049 25.9999 6.00049H24.9999V8.00049C24.9999 8.55277 24.5522 9.00049 23.9999 9.00049C23.4476 9.00049 22.9999 8.55277 22.9999 8.00049V6.00049H21.9999C21.4476 6.00049 20.9999 5.55277 20.9999 5.00049Z" fill="#333333"/>
<path fill-rule="evenodd" clip-rule="evenodd" d="M23.9999 39.0005C24.5522 39.0005 24.9999 39.4482 24.9999 40.0005V42.0005H25.9999C26.5522 42.0005 26.9999 42.4482 26.9999 43.0005C26.9999 43.5528 26.5522 44.0005 25.9999 44.0005H21.9999C21.4476 44.0005 20.9999 43.5528 20.9999 43.0005C20.9999 42.4482 21.4476 42.0005 21.9999 42.0005H22.9999V40.0005C22.9999 39.4482 23.4476 39.0005 23.9999 39.0005Z" fill="#333333"/>
<path fill-rule="evenodd" clip-rule="evenodd" d="M12.6862 39.5572C12.2956 39.9477 11.6625 39.9477 11.272 39.5572L8.44353 36.7288C8.05301 36.3383 8.05301 35.7051 8.44353 35.3146C8.83406 34.924 9.46722 34.924 9.85774 35.3146L10.5649 36.0217L11.9791 34.6075C12.3696 34.2169 13.0028 34.2169 13.3933 34.6075C13.7838 34.998 13.7838 35.6311 13.3933 36.0217L11.9791 37.4359L12.6862 38.143C13.0767 38.5335 13.0767 39.1667 12.6862 39.5572Z" fill="#333333"/>
<path fill-rule="evenodd" clip-rule="evenodd" d="M34.6065 13.3943C34.216 13.0037 34.216 12.3706 34.6065 11.98L36.0207 10.5658L35.3136 9.85872C34.9231 9.4682 34.9231 8.83503 35.3136 8.44451C35.7041 8.05398 36.3373 8.05398 36.7278 8.44451L39.5562 11.2729C39.9468 11.6635 39.9468 12.2966 39.5562 12.6871C39.1657 13.0777 38.5325 13.0777 38.142 12.6871L37.4349 11.98L36.0207 13.3943C35.6302 13.7848 34.997 13.7848 34.6065 13.3943Z" fill="#333333"/>
<path fill-rule="evenodd" clip-rule="evenodd" d="M4.99988 27.0005C4.44759 27.0005 3.99988 26.5528 3.99988 26.0005V22.0005C3.99988 21.4482 4.44759 21.0005 4.99988 21.0005C5.55216 21.0005 5.99988 21.4482 5.99988 22.0005V23.0005H7.99988C8.55216 23.0005 8.99988 23.4482 8.99988 24.0005C8.99988 24.5528 8.55216 25.0005 7.99988 25.0005H5.99988V26.0005C5.99988 26.5528 5.55216 27.0005 4.99988 27.0005Z" fill="#333333"/>
<path fill-rule="evenodd" clip-rule="evenodd" d="M38.9999 24.0005C38.9999 23.4482 39.4476 23.0005 39.9999 23.0005H41.9999V22.0005C41.9999 21.4482 42.4476 21.0005 42.9999 21.0005C43.5522 21.0005 43.9999 21.4482 43.9999 22.0005V26.0005C43.9999 26.5528 43.5522 27.0005 42.9999 27.0005C42.4476 27.0005 41.9999 26.5528 41.9999 26.0005V25.0005H39.9999C39.4476 25.0005 38.9999 24.5528 38.9999 24.0005Z" fill="#333333"/>
<path fill-rule="evenodd" clip-rule="evenodd" d="M8.44353 12.6871C8.053 12.2966 8.053 11.6634 8.44353 11.2729L11.272 8.44445C11.6625 8.05392 12.2956 8.05392 12.6862 8.44445C13.0767 8.83497 13.0767 9.46814 12.6862 9.85866L11.9791 10.5658L13.3933 11.98C13.7838 12.3705 13.7838 13.0037 13.3933 13.3942C13.0028 13.7847 12.3696 13.7847 11.9791 13.3942L10.5648 11.98L9.85774 12.6871C9.46722 13.0776 8.83405 13.0776 8.44353 12.6871Z" fill="#333333"/>
<path fill-rule="evenodd" clip-rule="evenodd" d="M34.6065 34.6074C34.997 34.2169 35.6302 34.2169 36.0207 34.6074L37.4349 36.0216L38.142 35.3145C38.5325 34.924 39.1657 34.924 39.5562 35.3145C39.9468 35.705 39.9468 36.3382 39.5562 36.7287L36.7278 39.5571C36.3373 39.9477 35.7041 39.9477 35.3136 39.5571C34.9231 39.1666 34.9231 38.5335 35.3136 38.1429L36.0207 37.4358L34.6065 36.0216C34.216 35.6311 34.216 34.9979 34.6065 34.6074Z" fill="#333333"/>
</svg>
