<svg width="48" height="48" viewBox="0 0 48 48" fill="none" xmlns="http://www.w3.org/2000/svg">
<path d="M30 34C30 35.1046 29.1046 36 28 36C26.8954 36 26 35.1046 26 34C26 32.8954 26.8954 32 28 32C29.1046 32 30 32.8954 30 34Z" fill="#333333"/>
<path fill-rule="evenodd" clip-rule="evenodd" d="M10 35C10 37.7614 12.2386 40 15 40H26V44L28 42.6667L30 44V40H33C35.7614 40 38 37.7614 38 35V9C38 6.23858 35.7614 4 33 4H15C12.2386 4 10 6.23858 10 9V35ZM30 40H26V37.4649C24.8044 36.7733 24 35.4806 24 34C24 31.7909 25.7909 30 28 30C30.2091 30 32 31.7909 32 34C32 35.4806 31.1956 36.7733 30 37.4649V40ZM18 11C18 10.4477 18.4477 10 19 10L29 10C29.5523 10 30 10.4477 30 11C30 11.5523 29.5523 12 29 12L19 12C18.4477 12 18 11.5523 18 11ZM15 16C14.4477 16 14 16.4477 14 17C14 17.5523 14.4477 18 15 18H33C33.5523 18 34 17.5523 34 17C34 16.4477 33.5523 16 33 16H15ZM14 21C14 20.4477 14.4477 20 15 20H33C33.5523 20 34 20.4477 34 21C34 21.5523 33.5523 22 33 22H15C14.4477 22 14 21.5523 14 21ZM15 24C14.4477 24 14 24.4477 14 25C14 25.5523 14.4477 26 15 26H33C33.5523 26 34 25.5523 34 25C34 24.4477 33.5523 24 33 24H15Z" fill="#333333"/>
</svg>
