<svg width="48" height="48" viewBox="0 0 48 48" fill="none" xmlns="http://www.w3.org/2000/svg">
<path d="M29 3.5C29 2.67157 28.3284 2 27.5 2C26.6716 2 26 2.67157 26 3.5V6.50082C26 7.32925 26.6716 8.00082 27.5 8.00082C28.3284 8.00082 29 7.32925 29 6.50082V3.5Z" fill="#333333"/>
<path fill-rule="evenodd" clip-rule="evenodd" d="M14 4.18945H12.0356C9.82644 4.18945 8.03558 5.98031 8.03558 8.18945V36.1895C8.03558 38.3986 9.82644 40.1895 12.0356 40.1895H32.0356C34.2447 40.1895 36.0356 38.3986 36.0356 36.1895V8.18945C36.0356 5.98031 34.2447 4.18945 32.0356 4.18945H30V6.5C30 7.88071 28.8807 9 27.5 9C26.1193 9 25 7.88071 25 6.5V4.18945H19V6.5C19 7.88071 17.8807 9 16.5 9C15.1193 9 14 7.88071 14 6.5V4.18945ZM14 15C14 14.4477 14.4477 14 15 14H29C29.5523 14 30 14.4477 30 15C30 15.5523 29.5523 16 29 16H15C14.4477 16 14 15.5523 14 15ZM15.0355 19.1895C14.4832 19.1895 14.0355 19.6372 14.0355 20.1895C14.0355 20.7417 14.4832 21.1895 15.0355 21.1895H29.0355C29.5878 21.1895 30.0355 20.7417 30.0355 20.1895C30.0355 19.6372 29.5878 19.1895 29.0355 19.1895H15.0355ZM14.0355 25.1895C14.0355 24.6372 14.4832 24.1895 15.0355 24.1895H29.0355C29.5878 24.1895 30.0355 24.6372 30.0355 25.1895C30.0355 25.7417 29.5878 26.1895 29.0355 26.1895H15.0355C14.4832 26.1895 14.0355 25.7417 14.0355 25.1895ZM15.0355 29.2441C14.4832 29.2441 14.0355 29.6919 14.0355 30.2441C14.0355 30.7964 14.4832 31.2441 15.0355 31.2441H23.0355C23.5878 31.2441 24.0355 30.7964 24.0355 30.2441C24.0355 29.6919 23.5878 29.2441 23.0355 29.2441H15.0355Z" fill="#333333"/>
<path d="M5.03553 8.95703C5.58781 8.95703 6.03553 9.40475 6.03553 9.95703L6.03552 36.9996C6.03552 39.761 8.2741 41.9996 11.0355 41.9996H30.1001C30.6524 41.9996 31.1001 42.4473 31.1001 42.9996C31.1001 43.5518 30.6524 43.9996 30.1001 43.9996H11.0355C7.16953 43.9996 4.03552 40.8655 4.03552 36.9996L4.03553 9.95703C4.03553 9.40475 4.48324 8.95703 5.03553 8.95703Z" fill="#333333"/>
<path d="M16.5086 2C17.337 2 18.0086 2.67157 18.0086 3.5V6.50082C18.0086 7.32925 17.337 8.00082 16.5086 8.00082C15.6802 8.00082 15.0086 7.32925 15.0086 6.50082V3.5C15.0086 2.67157 15.6802 2 16.5086 2Z" fill="#333333"/>
<path d="M42 10H40C38.8954 10 38 10.8954 38 12V16H44V12C44 10.8954 43.1046 10 42 10Z" fill="#333333"/>
<path d="M44 17H38V35L41 39L44 35V17Z" fill="#333333"/>
</svg>
