<svg width="48" height="48" viewBox="0 0 48 48" fill="none" xmlns="http://www.w3.org/2000/svg">
<path d="M22.25 25L20 19.6L17.75 25H22.25Z" fill="#333333"/>
<path fill-rule="evenodd" clip-rule="evenodd" d="M38 38C38 40.2091 36.2091 42 34 42H14C11.7909 42 10 40.2091 10 38V10C10 7.79086 11.7909 6 14 6H28L38 16V38ZM29 9.82843L34.1716 15H29V9.82843ZM20.9231 16.6154C20.7678 16.2427 20.4037 16 20 16C19.5963 16 19.2322 16.2427 19.0769 16.6154L14.0769 28.6154C13.8645 29.1252 14.1056 29.7107 14.6154 29.9231C15.1252 30.1355 15.7107 29.8944 15.9231 29.3846L16.9167 27H23.0833L24.0769 29.3846C24.2893 29.8944 24.8748 30.1355 25.3846 29.9231C25.8944 29.7107 26.1355 29.1252 25.9231 28.6154L20.9231 16.6154ZM15 32C14.4477 32 14 32.4477 14 33C14 33.5523 14.4477 34 15 34L33 34C33.5523 34 34 33.5523 34 33C34 32.4477 33.5523 32 33 32L15 32ZM14 37C14 36.4477 14.4477 36 15 36H27C27.5523 36 28 36.4477 28 37C28 37.5523 27.5523 38 27 38H15C14.4477 38 14 37.5523 14 37ZM30 22C30.5523 22 31 22.4477 31 23V25H33C33.5523 25 34 25.4477 34 26C34 26.5523 33.5523 27 33 27H31V29C31 29.5523 30.5523 30 30 30C29.4477 30 29 29.5523 29 29V27H27C26.4477 27 26 26.5523 26 26C26 25.4477 26.4477 25 27 25H29V23C29 22.4477 29.4477 22 30 22Z" fill="#333333"/>
</svg>
