<svg width="48" height="48" viewBox="0 0 48 48" fill="none" xmlns="http://www.w3.org/2000/svg">
<path fill-rule="evenodd" clip-rule="evenodd" d="M9 8C9.55228 8 10 8.44772 10 9V38C10 40.2091 11.7909 42 14 42H35C35.5523 42 36 42.4477 36 43C36 43.5523 35.5523 44 35 44H14C10.6863 44 8 41.3137 8 38V9C8 8.44772 8.44772 8 9 8Z" fill="#333333"/>
<path fill-rule="evenodd" clip-rule="evenodd" d="M40 36V14L30 4H16C13.7909 4 12 5.79086 12 8V36C12 38.2091 13.7909 40 16 40H36C38.2091 40 40 38.2091 40 36ZM36.1716 13L31 7.82843V13H36.1716ZM32.7071 22.7071C33.0976 22.3166 33.0976 21.6834 32.7071 21.2929C32.3166 20.9024 31.6834 20.9024 31.2929 21.2929L24 28.5858L20.7071 25.2929C20.3166 24.9024 19.6834 24.9024 19.2929 25.2929C18.9024 25.6834 18.9024 26.3166 19.2929 26.7071L24 31.4142L32.7071 22.7071Z" fill="#333333"/>
</svg>
