<svg width="48" height="48" viewBox="0 0 48 48" fill="none" xmlns="http://www.w3.org/2000/svg">
<path d="M18 18C18 20.7625 15.7625 23 13 23C10.2375 23 8 20.7625 8 18C8 15.2375 10.2375 13 13 13C15.7625 13 18 15.2375 18 18Z" fill="#333333"/>
<path d="M3 30.3333C3 26.7867 9.6625 25 13 25C16.3375 25 23 26.7867 23 30.3333V35H3V30.3333Z" fill="#333333"/>
<path d="M40 18C40 20.7625 37.7625 23 35 23C32.2375 23 30 20.7625 30 18C30 15.2375 32.2375 13 35 13C37.7625 13 40 15.2375 40 18Z" fill="#333333"/>
<path d="M28 17C28 19.21 26.21 21 24 21C21.79 21 20 19.21 20 17C20 14.79 21.79 13 24 13C26.21 13 28 14.79 28 17Z" fill="#333333"/>
<path d="M25 30.3333C25 26.7867 31.6625 25 35 25C38.3375 25 45 26.7867 45 30.3333V35H25V30.3333Z" fill="#333333"/>
<path fill-rule="evenodd" clip-rule="evenodd" d="M28.7508 24.185C28.4839 24.2831 28.2206 24.3873 27.9625 24.4975C26.7914 24.998 25.6088 25.6741 24.69 26.5785C24.444 26.8208 24.2105 27.0864 24 27.375C23.7895 27.0864 23.556 26.8208 23.3099 26.5785C22.3912 25.6741 21.2085 24.998 20.0374 24.4975C19.7794 24.3873 19.5161 24.2831 19.2491 24.185C20.7717 23.3961 22.7298 23 24 23C25.2701 23 27.2282 23.3961 28.7508 24.185Z" fill="#333333"/>
</svg>
