<svg width="48" height="48" viewBox="0 0 48 48" fill="none" xmlns="http://www.w3.org/2000/svg">
<path d="M10 29V26H13V29H10Z" fill="#333333"/>
<path fill-rule="evenodd" clip-rule="evenodd" d="M32 44H8C5.79086 44 4 42.2091 4 40V8C4 5.79086 5.79086 4 8 4H32C34.2091 4 36 5.79086 36 8V40C36 42.2091 34.2091 44 32 44ZM18 13C18 12.4477 18.4477 12 19 12H31C31.5523 12 32 12.4477 32 13C32 13.5523 31.5523 14 31 14H19C18.4477 14 18 13.5523 18 13ZM19 16C18.4477 16 18 16.4477 18 17C18 17.5523 18.4477 18 19 18H31C31.5523 18 32 17.5523 32 17C32 16.4477 31.5523 16 31 16H19ZM15.7071 12.2929C16.0976 12.6834 16.0976 13.3166 15.7071 13.7071L11 18.4142L8.29289 15.7071C7.90237 15.3166 7.90237 14.6834 8.29289 14.2929C8.68342 13.9024 9.31658 13.9024 9.70711 14.2929L11 15.5858L14.2929 12.2929C14.6834 11.9024 15.3166 11.9024 15.7071 12.2929ZM19 24C18.4477 24 18 24.4477 18 25C18 25.5523 18.4477 26 19 26H31C31.5523 26 32 25.5523 32 25C32 24.4477 31.5523 24 31 24H19ZM18 29C18 28.4477 18.4477 28 19 28H31C31.5523 28 32 28.4477 32 29C32 29.5523 31.5523 30 31 30H19C18.4477 30 18 29.5523 18 29ZM14 24H9C8.44772 24 8 24.4477 8 25V30C8 30.5523 8.44772 31 9 31H14C14.5523 31 15 30.5523 15 30V25C15 24.4477 14.5523 24 14 24Z" fill="#333333"/>
<path fill-rule="evenodd" clip-rule="evenodd" d="M44 40L41 44L38 40V22H44V40Z" fill="#333333"/>
<path fill-rule="evenodd" clip-rule="evenodd" d="M40 15H42C43.1046 15 44 15.8954 44 17V21H38V17C38 15.8954 38.8954 15 40 15Z" fill="#333333"/>
</svg>
