<svg width="48" height="48" viewBox="0 0 48 48" fill="none" xmlns="http://www.w3.org/2000/svg">
<path fill-rule="evenodd" clip-rule="evenodd" d="M5 4H4V5V30V31H5H30V29H6V6H35V10H37V5V4H36H5ZM36 17C37.6569 17 39 15.6569 39 14C39 12.3431 37.6569 11 36 11C34.3431 11 33 12.3431 33 14C33 15.6569 34.3431 17 36 17ZM33.9133 19.0088C33.8767 19.0088 33.8404 19.0094 33.8043 19.0107H32C31.5443 19.0107 31.1134 19.2179 30.8287 19.5737L27.2791 24.0107H22C21.1716 24.0107 20.5 24.6823 20.5 25.5107C20.5 26.3392 21.1716 27.0107 22 27.0107H28C28.4557 27.0107 28.8866 26.8036 29.1713 26.4478L31.0831 24.058V41.8928C31.0831 42.7918 31.8187 43.5274 32.7177 43.5274C33.6167 43.5274 34.3523 42.7918 34.3523 41.8928V33.72H37.6214V41.8928C37.6214 42.7918 38.357 43.5274 39.256 43.5274C40.155 43.5274 40.8906 42.7918 40.8906 41.8928V29.7442C41.7896 29.7442 44.5656 28.033 44.5656 23.8193C44.5656 20.6434 41.7896 19.0088 40.8906 19.0088H33.9133Z" fill="#333333"/>
</svg>
