<svg width="48" height="48" viewBox="0 0 48 48" fill="none" xmlns="http://www.w3.org/2000/svg">
<path fill-rule="evenodd" clip-rule="evenodd" d="M9 8C9.55228 8 10 8.44772 10 9V38C10 40.2091 11.7909 42 14 42H35C35.5523 42 36 42.4477 36 43C36 43.5523 35.5523 44 35 44H14C10.6863 44 8 41.3137 8 38V9C8 8.44772 8.44772 8 9 8Z" fill="#333333"/>
<path fill-rule="evenodd" clip-rule="evenodd" d="M36 40C38.2091 40 40 38.2091 40 36V14L30 4H16C13.7909 4 12 5.79086 12 8V36C12 38.2091 13.7909 40 16 40H36ZM36.1716 13L31 7.82843V13H36.1716ZM22.7071 20.2929C22.3166 19.9024 21.6834 19.9024 21.2929 20.2929C20.9024 20.6834 20.9024 21.3166 21.2929 21.7071L24.5858 25L21.2929 28.2929C20.9024 28.6834 20.9024 29.3166 21.2929 29.7071C21.6834 30.0976 22.3166 30.0976 22.7071 29.7071L26 26.4142L29.2929 29.7071C29.6834 30.0976 30.3166 30.0976 30.7071 29.7071C31.0976 29.3166 31.0976 28.6834 30.7071 28.2929L27.4142 25L30.7071 21.7071C31.0976 21.3166 31.0976 20.6834 30.7071 20.2929C30.3166 19.9024 29.6834 19.9024 29.2929 20.2929L26 23.5858L22.7071 20.2929Z" fill="#333333"/>
</svg>
