<svg width="48" height="48" viewBox="0 0 48 48" fill="none" xmlns="http://www.w3.org/2000/svg">
<path fill-rule="evenodd" clip-rule="evenodd" d="M24 43C34.4934 43 43 34.4934 43 24C43 13.5066 34.4934 5 24 5C13.5066 5 5 13.5066 5 24C5 34.4934 13.5066 43 24 43ZM24 45C35.598 45 45 35.598 45 24C45 12.402 35.598 3 24 3C12.402 3 3 12.402 3 24C3 35.598 12.402 45 24 45Z" fill="#333333"/>
<path fill-rule="evenodd" clip-rule="evenodd" d="M24 31C27.866 31 31 27.866 31 24C31 20.134 27.866 17 24 17C20.134 17 17 20.134 17 24C17 27.866 20.134 31 24 31ZM24 33C28.9706 33 33 28.9706 33 24C33 19.0294 28.9706 15 24 15C19.0294 15 15 19.0294 15 24C15 28.9706 19.0294 33 24 33Z" fill="#333333"/>
<path d="M19 13C19 14.6569 17.6569 16 16 16C14.3431 16 13 14.6569 13 13C13 11.3431 14.3431 10 16 10C17.6569 10 19 11.3431 19 13Z" fill="#333333"/>
<path d="M25 25C25 26.6569 23.6569 28 22 28C20.3431 28 19 26.6569 19 25C19 23.3431 20.3431 22 22 22C23.6569 22 25 23.3431 25 25Z" fill="#333333"/>
<path d="M38 32C38 33.6569 36.6569 35 35 35C33.3431 35 32 33.6569 32 32C32 30.3431 33.3431 29 35 29C36.6569 29 38 30.3431 38 32Z" fill="#333333"/>
<path fill-rule="evenodd" clip-rule="evenodd" d="M31 13C31.5523 13 32 12.5523 32 12C32 11.4477 31.5523 11 31 11C30.4477 11 30 11.4477 30 12C30 12.5523 30.4477 13 31 13ZM31 15C32.6569 15 34 13.6569 34 12C34 10.3431 32.6569 9 31 9C29.3431 9 28 10.3431 28 12C28 13.6569 29.3431 15 31 15Z" fill="#333333"/>
<path fill-rule="evenodd" clip-rule="evenodd" d="M13 33C13.5523 33 14 32.5523 14 32C14 31.4477 13.5523 31 13 31C12.4477 31 12 31.4477 12 32C12 32.5523 12.4477 33 13 33ZM13 35C14.6569 35 16 33.6569 16 32C16 30.3431 14.6569 29 13 29C11.3431 29 10 30.3431 10 32C10 33.6569 11.3431 35 13 35Z" fill="#333333"/>
</svg>
