<svg width="48" height="48" viewBox="0 0 48 48" fill="none" xmlns="http://www.w3.org/2000/svg">
<path fill-rule="evenodd" clip-rule="evenodd" d="M44 24C44 35.0457 35.0457 44 24 44C12.9543 44 4 35.0457 4 24C4 12.9543 12.9543 4 24 4C35.0457 4 44 12.9543 44 24ZM21 34C21 35.6569 22.3431 37 24 37C25.6569 37 27 35.6569 27 34V22C27 20.3431 25.6569 19 24 19C22.3431 19 21 20.3431 21 22V34ZM24 17C22.3431 17 21 15.6569 21 14C21 12.3431 22.3431 11 24 11C25.6569 11 27 12.3431 27 14C27 15.6569 25.6569 17 24 17Z" fill="#333333"/>
</svg>
