<svg width="48" height="48" viewBox="0 0 48 48" fill="none" xmlns="http://www.w3.org/2000/svg">
<path fill-rule="evenodd" clip-rule="evenodd" d="M31 5C29.8954 5 29 5.89543 29 7V11H30V14.3431C30 15.1388 29.6839 15.9019 29.1213 16.4645L27.4645 18.1213C26.5268 19.059 26 20.3308 26 21.6569V28.252C25.3608 28.0875 24.6906 28 24 28C22.5429 28 21.1767 28.3896 20 29.0703V15.7071C20 15.5196 20.0745 15.3397 20.2071 15.2071C20.7148 14.6994 21 14.0109 21 13.2929V12H22V6H6V12H7V13.2929C7 14.0109 7.28521 14.6994 7.79289 15.2071C7.9255 15.3397 8 15.5196 8 15.7071V31.2929C8 31.4804 7.9255 31.6603 7.79289 31.7929C7.28521 32.3006 7 32.9891 7 33.7071V35H6V41H7.14286H17.7546C19.2207 42.8289 21.4736 44 24 44C26.1455 44 28.0938 43.1554 29.5304 41.7805C29.9951 41.9232 30.4886 42 31 42H38C40.7614 42 43 39.7614 43 37V21.6569C43 20.3308 42.4732 19.059 41.5355 18.1213L39.8787 16.4645C39.3161 15.9019 39 15.1388 39 14.3431V11H40V7C40 5.89543 39.1046 5 38 5H31ZM30.9302 39.9992C30.9534 39.9997 30.9767 40 31 40H38C39.6569 40 41 38.6569 41 37V21.6569C41 20.8612 40.6839 20.0981 40.1213 19.5355L38.4645 17.8787C37.5268 16.941 37 15.6692 37 14.3431V11H32V14.3431C32 15.6692 31.4732 16.941 30.5355 17.8787L28.8787 19.5355C28.3161 20.0981 28 20.8612 28 21.6569V29.0703C28.8562 29.5656 29.6121 30.215 30.2298 30.9806L30.0149 30.1213C29.9637 29.9163 30.0468 29.7012 30.2227 29.584L31.1042 28.9963C29.1124 28.9156 28.8902 27.5502 29.0361 26.8571L32.5443 26.2514L31.6465 25.3536C31.5527 25.2598 31.5 25.1326 31.5 25V23.7071L30.1465 22.3536C29.9512 22.1583 29.9512 21.8417 30.1465 21.6464C30.3417 21.4512 30.6583 21.4512 30.8536 21.6464L32.3536 23.1464C32.4473 23.2402 32.5 23.3674 32.5 23.5V24.7929L33.3015 25.5944C33.4773 24.9726 33.7195 24.492 34 24.2276V21.5C34 21.2239 34.2239 21 34.5 21C34.7761 21 35 21.2239 35 21.5V24.2276C35.2805 24.492 35.5228 24.9726 35.6985 25.5944L36.5 24.7929V23.5C36.5 23.3674 36.5527 23.2402 36.6465 23.1464L38.1465 21.6464C38.3417 21.4512 38.6583 21.4512 38.8536 21.6464C39.0488 21.8417 39.0488 22.1583 38.8536 22.3536L37.5 23.7071V25C37.5 25.1326 37.4473 25.2598 37.3536 25.3536L36.4557 26.2514L39.9639 26.8571C40.1098 27.5502 39.8876 28.9157 37.8958 28.9963L38.7774 29.584C38.9532 29.7012 39.0363 29.9163 38.9851 30.1213L38.5705 31.7794L39.7774 32.584C40.0071 32.7372 40.0692 33.0476 39.916 33.2773C39.7629 33.5071 39.4524 33.5692 39.2227 33.416L37.7227 32.416C37.5468 32.2988 37.4637 32.0837 37.5149 31.8787L37.9295 30.2206L37.4952 29.9311C37.5057 30.006 37.4992 30.0836 37.4743 30.1581L36.5398 32.9616L37.9472 35.7764C38.0707 36.0234 37.9706 36.3237 37.7236 36.4472C37.4766 36.5707 37.1763 36.4706 37.0528 36.2236L35.5528 33.2236C35.4935 33.105 35.4837 32.9677 35.5257 32.8419L36.4279 30.135L35.8777 29.5848C35.6475 31.0056 35.1173 32 34.5 32C33.8827 32 33.3525 31.0056 33.1223 29.5848L32.5721 30.135L33.4743 32.8419C33.5163 32.9677 33.5065 33.105 33.4472 33.2236L31.9991 36.1198C31.9784 37.5317 31.5919 38.855 30.9302 39.9992ZM31.8105 34.261L32.4602 32.9616L31.5257 30.1581C31.5008 30.0836 31.4943 30.006 31.5048 29.9311L31.0705 30.2206L31.4851 31.8787C31.5363 32.0837 31.4532 32.2988 31.2774 32.416L31.1849 32.4777C31.4602 33.0383 31.6719 33.6359 31.8105 34.261ZM16.0619 35C16.2658 33.365 16.963 31.8832 18 30.7084V15.7071C18 14.9891 18.2852 14.3006 18.7929 13.7929C18.9255 13.6603 19 13.4804 19 13.2929V12H18V10C18 9.44772 17.5523 9 17 9C16.4477 9 16 9.44772 16 10V12H15V10C15 9.44772 14.5523 9 14 9C13.4477 9 13 9.44772 13 10V12H12V10C12 9.44772 11.5523 9 11 9C10.4477 9 10 9.44772 10 10V12H9V13.2929C9 13.4804 9.0745 13.6603 9.20711 13.7929C9.71479 14.3006 10 14.9891 10 15.7071V31.2929C10 32.0109 9.71479 32.6994 9.20711 33.2071C9.0745 33.3397 9 33.5196 9 33.7071V35H10V37C10 37.5523 10.4477 38 11 38C11.5523 38 12 37.5523 12 37V35H13V37C13 37.5523 13.4477 38 14 38C14.5523 38 15 37.5523 15 37V35H16.0619ZM22 38V40H20V38H22ZM25 40V35H23V40H25ZM28 40H26V32H28V40Z" fill="#333333"/>
</svg>
