<svg width="48" height="48" viewBox="0 0 48 48" fill="none" xmlns="http://www.w3.org/2000/svg">
<path fill-rule="evenodd" clip-rule="evenodd" d="M28.586 35H25V33H32V40H30V36.4144L24.4144 42H36V44H12V42H21.5858L14.293 34.7072L15.7072 33.293L23.0001 40.5859L28.586 35Z" fill="#333333"/>
<path fill-rule="evenodd" clip-rule="evenodd" d="M24 4C24.5523 4 25 4.44772 25 5V12.7715L27.2288 10.2559L28.0558 7.88565C28.2378 7.3642 28.808 7.08897 29.3295 7.27091C29.8509 7.45285 30.1261 8.02307 29.9442 8.54452L29.0522 11.1009C29.0094 11.2238 28.9429 11.3372 28.8566 11.4346L26.2485 14.3782C25.8823 14.7916 25.2502 14.8298 24.8369 14.4636C24.7247 14.3642 24.6402 14.2453 24.5839 14.1165C24.4196 14.2348 24.218 14.3045 24 14.3045C23.7821 14.3045 23.5805 14.2348 23.4162 14.1165C23.3598 14.2453 23.2753 14.3642 23.1632 14.4636C22.7498 14.8298 22.1178 14.7916 21.7515 14.3782L19.1435 11.4346C19.0572 11.3372 18.9907 11.2238 18.9478 11.1009L18.0558 8.54452C17.8739 8.02307 18.1491 7.45285 18.6706 7.27091C19.192 7.08897 19.7623 7.3642 19.9442 7.88565L20.7712 10.2559L23 12.7715V5C23 4.44772 23.4477 4 24 4ZM22.2136 18.7958C22.7213 18.5784 23.3091 18.8138 23.5264 19.3215C23.7438 19.8292 23.5084 20.417 23.0007 20.6344L22.7784 20.7296C22.9627 20.7614 23.1402 20.8453 23.2874 20.982C23.6922 21.3577 23.7158 21.9904 23.3401 22.3952L22.3388 23.474L22.7743 25.5581C22.8433 25.8884 22.7411 26.2312 22.5025 26.4698L20.9786 27.9937C20.5881 28.3842 19.9549 28.3842 19.5644 27.9937C19.1738 27.6032 19.1738 26.97 19.5644 26.5795L20.7059 25.4379L20.2753 23.3771C20.209 23.0597 20.3007 22.7299 20.5213 22.4922L21.7478 21.1708L20.8282 21.5645L19.3408 22.9664C19.2165 23.0835 19.0642 23.1669 18.8985 23.2085L16.6938 23.7624C16.1582 23.8969 15.6149 23.5718 15.4803 23.0361C15.3458 22.5005 15.6709 21.9572 16.2066 21.8226L18.1586 21.3323L19.5856 19.9874C19.671 19.9069 19.77 19.842 19.8779 19.7958L22.2136 18.7958ZM25.7511 18.7814C25.2355 18.5836 24.6571 18.8413 24.4593 19.357C24.2615 19.8726 24.5192 20.451 25.0348 20.6488L25.2385 20.7269C25.0076 20.7629 24.7882 20.8796 24.6263 21.0728C24.2717 21.4962 24.3275 22.1269 24.7509 22.4816L26.032 23.5545L25.6133 25.5581C25.5443 25.8884 25.6465 26.2311 25.8851 26.4697L27.409 27.9936C27.7995 28.3842 28.4327 28.3842 28.8232 27.9936C29.2137 27.6031 29.2137 26.97 28.8232 26.5794L27.6816 25.4379L28.1122 23.377C28.1877 23.016 28.0582 22.6427 27.7754 22.4059L26.2204 21.1035L27.4744 21.5845L29.0723 22.9896C29.1918 23.0947 29.3347 23.1697 29.489 23.2085L31.6937 23.7623C32.2294 23.8969 32.7727 23.5717 32.9072 23.0361C33.0418 22.5005 32.7166 21.9571 32.181 21.8226L30.2112 21.3278L28.6604 19.9641C28.5713 19.8858 28.4689 19.8239 28.3582 19.7814L25.7511 18.7814Z" fill="#333333"/>
<path d="M26 16.7151C26 19.7527 25.1046 22.2151 24 22.2151C22.8955 22.2151 22 19.7527 22 16.7151C22 13.6775 22.8955 11.2151 24 11.2151C25.1046 11.2151 26 13.6775 26 16.7151Z" fill="#333333"/>
<path fill-rule="evenodd" clip-rule="evenodd" d="M25.7859 14.1643L25.7859 15.286C25.7859 16.1405 26.1222 17.3276 27.0755 18.3055C28.0519 19.3072 29.5861 20.0004 31.8144 20.0004C33.9368 20.0004 35.3634 19.5394 36.213 18.7292C37.1019 17.8817 37.1987 16.8066 36.9584 16.0461L36.7632 15.428L25.7859 14.1643ZM34.8878 17.2253C34.8709 17.2441 34.8527 17.2629 34.8329 17.2818C34.5232 17.5771 33.7149 18.0004 31.8144 18.0004C30.0199 18.0004 29.0398 17.4555 28.5077 16.9095C28.3626 16.7607 28.2441 16.6051 28.1482 16.4494L34.8878 17.2253Z" fill="#333333"/>
<path fill-rule="evenodd" clip-rule="evenodd" d="M22.2142 14.1643L22.2142 15.286C22.2142 16.1405 21.8778 17.3276 20.9246 18.3055C19.9482 19.3072 18.414 20.0004 16.1857 20.0004C14.0633 20.0004 12.6367 19.5394 11.787 18.7292C10.8982 17.8817 10.8014 16.8066 11.0417 16.0461L11.2369 15.428L22.2142 14.1643ZM13.1123 17.2253C13.1291 17.2441 13.1474 17.2629 13.1672 17.2818C13.4769 17.5771 14.2852 18.0004 16.1857 18.0004C17.9802 18.0004 18.9602 17.4555 19.4924 16.9095C19.6374 16.7607 19.756 16.6051 19.8519 16.4494L13.1123 17.2253Z" fill="#333333"/>
</svg>
