<svg width="48" height="48" viewBox="0 0 48 48" fill="none" xmlns="http://www.w3.org/2000/svg">
<path fill-rule="evenodd" clip-rule="evenodd" d="M16.6038 5.55598C17.6204 3.52266 20.4411 3.31487 21.7448 5.17723L26.6188 12.1402C27.6621 12.4071 28.5594 13.0386 29.1669 13.891C29.7861 13.3369 30.6037 13 31.5 13C33.2632 13 34.7219 14.3039 34.9646 16H40V18H34.6632C34.1015 19.1825 32.8962 20 31.5 20C30.9994 20 30.5234 19.8949 30.0928 19.7056C30.1879 20.2624 30.3635 20.8582 30.6524 21.4248C31.2359 22.569 32.2902 23.6215 34.2043 24.021L33.7956 25.9788C31.2383 25.445 29.7051 23.9697 28.8707 22.3334C28.6876 21.9744 28.5387 21.6092 28.4192 21.2458C28.188 21.7876 28.0465 22.2825 28.0097 22.7637C27.9245 23.8786 28.3829 25.2636 30.6572 27.2462L29.343 28.7538C26.8374 26.5696 25.8618 24.6213 26.0156 22.6112C26.061 22.0166 26.204 21.4505 26.4015 20.9097C26.1103 20.9689 25.8088 21 25.5 21C25.0259 21 24.569 20.9267 24.1399 20.7908C24.0902 20.8484 24.0371 20.9047 23.9804 20.9597C22.9482 21.9608 21.506 22.3777 20.0162 22.5075C19.0815 22.5889 18.0747 22.5618 17.0443 22.467C15.7007 24.1681 13.5626 25.8666 10.316 26.9488L9.68359 25.0514C11.9434 24.2982 13.5482 23.2289 14.6679 22.126C14.5719 22.1002 14.4766 22.0713 14.3823 22.0391C13.2415 21.6497 12.3415 21.2542 11.6308 20.8637C10.4886 20.2362 9.97867 19.1203 10.2503 18.0038C10.5045 16.9591 11.3876 16.1368 12.532 15.8107C14.6581 15.2048 17.0006 14.9494 18.9757 14.8674L17.3911 14.2336C16.7624 13.9821 16.1914 13.6055 15.7126 13.1267L13.3743 10.7884C12.4243 9.83841 12.1887 8.38708 12.7896 7.18541C13.5156 5.73346 15.1628 5.14855 16.5724 5.6188L16.6038 5.55598ZM20.1063 6.32416L24.2106 12.1875C23.9872 12.2542 23.771 12.3378 23.5636 12.4368L23.7073 12.2931L18.2166 6.80237L18.3926 6.4504C18.7315 5.77264 19.6717 5.70337 20.1063 6.32416ZM22.1176 13.5318L16.3743 7.78841C15.8331 7.24722 14.9207 7.39527 14.5784 8.07984C14.3626 8.51153 14.4472 9.03292 14.7885 9.3742L17.1268 11.7125C17.4141 11.9998 17.7567 12.2257 18.1339 12.3766L21.8525 13.864C21.9357 13.7491 22.0242 13.6382 22.1176 13.5318ZM25 35H28.5859L23.0001 40.5859L15.7072 33.293L14.293 34.7072L21.5858 42H12V44H36V42H24.4144L30 36.4144V40H32V33H25V35Z" fill="#333333"/>
</svg>
