<svg width="48" height="48" viewBox="0 0 48 48" fill="none" xmlns="http://www.w3.org/2000/svg">
<path d="M23 8C23 7.44772 23.4477 7 24 7C24.5523 7 25 7.44772 25 8V36C25 36.5523 24.5523 37 24 37C23.4477 37 23 36.5523 23 36V8Z" fill="#333333"/>
<path d="M9.06667 7.9668C8.47756 7.9668 8 7.48923 8 6.90013C8 6.31103 8.47756 5.83346 9.06667 5.83346L22.9333 5.83346C23.5224 5.83346 24 6.31103 24 6.90013C24 7.48923 23.5224 7.9668 22.9333 7.9668L9.06667 7.9668Z" fill="#333333"/>
<path d="M25.0667 7.9668C24.4776 7.9668 24 7.48923 24 6.90013C24 6.31103 24.4776 5.83346 25.0667 5.83346L38.9333 5.83346C39.5224 5.83346 40 6.31103 40 6.90013C40 7.48923 39.5224 7.9668 38.9333 7.9668L25.0667 7.9668Z" fill="#333333"/>
<path fill-rule="evenodd" clip-rule="evenodd" d="M24 42C25.1046 42 26 41.1046 26 40C26 38.8954 25.1046 38 24 38C22.8954 38 22 38.8954 22 40C22 41.1046 22.8954 42 24 42ZM24 44C26.2091 44 28 42.2091 28 40C28 37.7909 26.2091 36 24 36C21.7909 36 20 37.7909 20 40C20 42.2091 21.7909 44 24 44Z" fill="#333333"/>
</svg>
