<svg width="48" height="48" viewBox="0 0 48 48" fill="none" xmlns="http://www.w3.org/2000/svg">
<path d="M11.5625 30.184C2.15175 23.8677 9.03419 10.06 16.619 9.03192C19.7654 8.60543 22.3778 12.5572 21.9564 14.6137C21.535 16.6701 18.7259 18.139 18.7259 20.783C18.7259 23.427 18.445 27.8336 16.619 29.5963C14.793 31.359 13.3026 31.3519 11.5625 30.184Z" fill="#333333"/>
<path fill-rule="evenodd" clip-rule="evenodd" d="M19.5656 23.8307C19.5661 23.8307 19.5666 23.8308 19.6489 22.8342C19.7313 21.8376 19.7318 21.8376 19.7324 21.8376L19.7335 21.8377L19.736 21.838L19.7418 21.8385L19.7562 21.8399C19.7671 21.841 19.7804 21.8424 19.7961 21.8443C19.8275 21.848 19.8684 21.8535 19.9175 21.8615C20.0153 21.8773 20.1474 21.9032 20.3027 21.9447C20.6098 22.027 21.0269 22.176 21.4511 22.4467C22.3477 23.0189 23.1774 24.0793 23.1774 25.8522V39.7571C23.1774 39.7572 23.1774 39.7577 22.1774 39.7577C21.1774 39.7577 21.1774 39.7576 21.1774 39.7575V25.8522C21.1774 24.8159 20.7429 24.3673 20.3753 24.1327C20.1674 24.0001 19.9523 23.9214 19.7854 23.8767C19.7036 23.8548 19.6381 23.8423 19.5977 23.8358C19.5776 23.8325 19.5642 23.8308 19.5585 23.8301C19.5566 23.8299 19.5556 23.8298 19.5556 23.8298C19.5556 23.8298 19.5552 23.8297 19.5556 23.8298L19.5597 23.8302L19.5627 23.8304L19.5656 23.8307Z" fill="#333333"/>
<path d="M36.615 30.184C46.0257 23.8677 39.1433 10.06 31.5585 9.03192C28.412 8.60543 25.7997 12.5572 26.2211 14.6137C26.6424 16.6701 29.4516 18.139 29.4516 20.783C29.4516 23.427 29.7325 27.8336 31.5585 29.5963C33.3845 31.359 34.8749 31.3519 36.615 30.184Z" fill="#333333"/>
<path fill-rule="evenodd" clip-rule="evenodd" d="M28.2529 23.8906C28.2523 23.8907 28.2517 23.8907 28.1831 22.8931C28.1145 21.8954 28.1139 21.8955 28.1132 21.8955L28.1119 21.8956L28.1091 21.8958L28.1028 21.8963L28.0877 21.8976C28.0765 21.8986 28.0631 21.8999 28.0476 21.9016C28.0167 21.9051 27.9773 21.9102 27.9306 21.9177C27.8376 21.9326 27.7139 21.9574 27.5695 21.9983C27.283 22.0794 26.899 22.2287 26.5114 22.5047C25.6875 23.0914 24.9999 24.1427 24.9999 25.8524V39.7573C24.9999 39.7574 24.9999 39.7578 25.9999 39.7578C26.9999 39.7578 26.9999 39.7578 26.9999 39.7577V25.8524C26.9999 24.7528 27.4039 24.3245 27.6716 24.1338C27.8298 24.0211 27.9916 23.9574 28.1145 23.9226C28.1747 23.9055 28.2215 23.8966 28.2479 23.8923C28.261 23.8902 28.2685 23.8894 28.2695 23.8893C28.2695 23.8893 28.2684 23.8894 28.266 23.8896L28.2602 23.8901L28.2563 23.8904L28.2541 23.8905L28.2529 23.8906Z" fill="#333333"/>
</svg>
