<svg width="48" height="48" viewBox="0 0 48 48" fill="none" xmlns="http://www.w3.org/2000/svg">
<path fill-rule="evenodd" clip-rule="evenodd" d="M27 8C27 8.57575 26.8378 9.11361 26.5566 9.5704C28.5917 10.5303 30 12.6007 30 15C30 18.3137 27.3137 21 24 21C20.6863 21 18 18.3137 18 15C18 12.6007 19.4083 10.5303 21.4434 9.5704C21.1622 9.11361 21 8.57574 21 8C21 6.34315 22.3431 5 24 5C25.6569 5 27 6.34315 27 8ZM29.589 21.5342C30.6716 21.3537 31.7453 21.9005 32.2361 22.8821L36.2361 30.8821C36.6502 31.7104 36.5726 32.6997 36.0343 33.4532L31.0343 40.4532C30.2318 41.5768 28.6704 41.837 27.5469 41.0345C26.4234 40.232 26.1632 38.6706 26.9657 37.547L28.9815 34.7249C28.9523 34.5148 28.889 34.3059 28.7889 34.1057C28.5875 33.703 28.2686 33.3978 27.8944 33.2111L23 30.7639V28.5C23 27.3954 22.1046 26.5 21 26.5C19.8954 26.5 19 27.3954 19 28.5V32C19 32.7575 19.428 33.4501 20.1056 33.7889L22.528 35.0001L20.1056 36.2113C19.7261 36.401 19.4333 36.6951 19.2446 37.0414L21.0343 39.547C21.8369 40.6706 21.5766 42.232 20.4531 43.0345C19.3296 43.837 17.7682 43.5768 16.9657 42.4532L11.9657 35.4532C11.4274 34.6997 11.3498 33.7104 11.7639 32.8821L15.5362 25.3376C16.037 24.336 16.9868 23.6345 18.0913 23.4504L29.589 21.5342ZM29.5 33C31.433 33 33 31.433 33 29.5C33 27.567 31.433 26 29.5 26C27.567 26 26 27.567 26 29.5C26 31.433 27.567 33 29.5 33Z" fill="#333333"/>
</svg>
