<svg width="48" height="48" viewBox="0 0 48 48" fill="none" xmlns="http://www.w3.org/2000/svg">
<path d="M39.6117 16.349C40.8077 18.8957 40.7434 22.2906 40.2393 25.2292C40.1163 23.9323 39.8846 22.7217 39.5121 21.5515C38.6288 18.7763 36.9858 16.3244 34.3314 13.5096L34.0353 13.1956H33.6038L32.2898 13.1956L31.701 12.6068C31.8894 12.1535 32.2556 11.59 32.757 11.07C33.0831 10.7318 33.4283 10.4532 33.7509 10.265C34.0841 10.0706 34.327 10.0109 34.468 10.0109C34.7964 10.0109 35.0463 10.0378 35.2944 10.1278C35.5397 10.2168 35.8467 10.3911 36.2356 10.7725C37.0447 11.5658 38.1122 13.1559 39.6117 16.349ZM30.5916 17.0059L28.3286 19.3065L25.5002 16.4781L27.7632 14.1775L30.5916 17.0059ZM20.5012 20.0744C21.6728 18.9028 23.5723 18.9028 24.7439 20.0744C25.9155 21.2459 25.9155 23.1454 24.7439 24.317L11.7377 37.3232C10.5661 38.4948 8.66659 38.4948 7.49501 37.3232C6.32344 36.1517 6.32344 34.2522 7.49501 33.0806L20.5012 20.0744Z" fill="currentColor" stroke="black" stroke-width="2"/>
</svg>
