<svg width="48" height="48" viewBox="0 0 48 48" fill="none" xmlns="http://www.w3.org/2000/svg">
<path fill-rule="evenodd" clip-rule="evenodd" d="M37 6H13C11.8954 6 11 6.89543 11 8V13.5858L14.2929 10.2929L15.7071 11.7071L11 16.4142V18.5858L14.2929 15.2929L15.7071 16.7071L11 21.4142V23.5858L14.2929 20.2929L15.7071 21.7071L11 26.4142V28.5858L14.2929 25.2929L15.7071 26.7071L11 31.4142V33.5858L14.2929 30.2929L15.7071 31.7071L11 36.4142V40C11 41.1046 11.8954 42 13 42H37C38.1046 42 39 41.1046 39 40V36.4142L34.2929 31.7071L35.7071 30.2929L39 33.5858V31.4142L34.2929 26.7071L35.7071 25.2929L39 28.5858V26.4142L34.2929 21.7071L35.7071 20.2929L39 23.5858V21.4142L34.2929 16.7071L35.7071 15.2929L39 18.5858V16.4142L34.2929 11.7071L35.7071 10.2929L39 13.5858V8C39 6.89543 38.1046 6 37 6ZM13 4C10.7909 4 9 5.79086 9 8V40C9 42.2091 10.7909 44 13 44H37C39.2091 44 41 42.2091 41 40V8C41 5.79086 39.2091 4 37 4H13ZM33 15V12C33 9.79086 31.2091 8 29 8H21C18.7909 8 17 9.79086 17 12V15V35C17 37.2091 18.7909 39 21 39H29C31.2091 39 33 37.2091 33 35V15ZM31 15C31 13.8954 30.1046 13 29 13H21C19.8954 13 19 13.8954 19 15V35C19 36.1046 19.8954 37 21 37H29C30.1046 37 31 36.1046 31 35V15ZM27 18C27 19.1046 26.1046 20 25 20C23.8954 20 23 19.1046 23 18C23 16.8954 23.8954 16 25 16C26.1046 16 27 16.8954 27 18Z" fill="#333333"/>
</svg>
