<svg width="48" height="48" viewBox="0 0 48 48" fill="none" xmlns="http://www.w3.org/2000/svg">
<path d="M16.4927 11.7426C22.3469 11.7378 21.8211 19.6994 21.8237 22.8839C21.8271 26.9482 22.8386 35.1497 19.7076 38.2772C16.5171 41.4643 10.1322 43.0617 6.93685 40.4106C3.74153 37.7595 9.04214 11.7487 16.4927 11.7426Z" fill="#333333"/>
<path d="M31.4433 11.7301C25.5891 11.7348 26.128 19.6956 26.1305 22.88C26.1338 26.9444 25.1358 35.1475 28.2719 38.2699C31.4676 41.4517 37.8552 43.0387 41.0461 40.3824C44.2371 37.7261 38.8939 11.724 31.4433 11.7301Z" fill="#333333"/>
<path fill-rule="evenodd" clip-rule="evenodd" d="M22.9631 5.73749C22.9631 5.73741 22.9631 5.73737 23.9631 5.73655C24.9631 5.73573 24.9631 5.73577 24.9631 5.73586L24.975 20.2357C24.9767 22.338 24.0417 23.5443 22.9821 24.1636C22.4849 24.4542 21.9964 24.5954 21.6382 24.6654C21.4572 24.7007 21.3036 24.719 21.1906 24.7285C21.1339 24.7333 21.0869 24.7359 21.0512 24.7373C21.0333 24.738 21.0182 24.7385 21.0061 24.7387L20.9901 24.7389L20.9838 24.739L20.9811 24.739L20.9798 24.739C20.9792 24.739 20.9786 24.739 20.9778 23.739C20.977 22.739 20.9765 22.739 20.9759 22.739L20.9749 22.739L20.973 22.739L20.9699 22.739L20.9668 22.7391C20.9668 22.7391 20.9684 22.739 20.9718 22.7389C20.9801 22.7386 20.9975 22.7377 21.0229 22.7356C21.0739 22.7313 21.1547 22.722 21.2549 22.7025C21.4591 22.6626 21.7204 22.5845 21.9729 22.4369C22.4125 22.18 22.9761 21.6351 22.975 20.2374L22.9631 5.73749Z" fill="#333333"/>
<path fill-rule="evenodd" clip-rule="evenodd" d="M24.9632 5.7359C24.9632 5.73582 24.9632 5.73578 23.9632 5.7366C22.9632 5.73742 22.9632 5.73746 22.9632 5.73754L22.9751 20.2374C22.9768 22.3397 23.9137 23.5445 24.9744 24.1621C25.4721 24.4518 25.9607 24.5922 26.3191 24.6616C26.5001 24.6967 26.6538 24.7147 26.7668 24.724C26.8235 24.7287 26.8705 24.7312 26.9062 24.7326C26.9241 24.7333 26.9392 24.7337 26.9513 24.7339L26.9673 24.7341L26.9736 24.7341L26.9763 24.7341L26.9776 24.7341C26.9782 24.7341 26.9787 24.7341 26.9779 23.7341C26.9771 22.7341 26.9777 22.7341 26.9782 22.7341L26.9793 22.7341L26.9812 22.7341L26.9842 22.7342L26.9873 22.7342C26.9873 22.7342 26.9857 22.7342 26.9823 22.734C26.9741 22.7337 26.9566 22.7329 26.9312 22.7308C26.8802 22.7266 26.7994 22.7175 26.6992 22.6981C26.4949 22.6585 26.2334 22.5808 25.9807 22.4337C25.5407 22.1775 24.9762 21.6335 24.9751 20.2358L24.9632 5.7359Z" fill="#333333"/>
</svg>
