<svg width="48" height="48" viewBox="0 0 48 48" fill="none" xmlns="http://www.w3.org/2000/svg">
<path fill-rule="evenodd" clip-rule="evenodd" d="M20.1604 12.6419C20.1604 12.6419 9 12.6419 9 16.8683C9 38 23.5161 38 23.5161 38H24.4839C24.4839 38 39 38 39 16.8683C39 12.6419 28.0144 12.6415 28.0144 12.6415L27.1138 11.0261C26.7607 10.3926 26.0922 10 25.367 10H22.8079C22.0826 10 21.4141 10.3927 21.061 11.0263L20.1604 12.6419ZM24.2425 18.5299L24 18.4692L23.7575 18.5299L17.7575 20.0299C17.2217 20.1638 16.8959 20.7067 17.0299 21.2425C17.1638 21.7783 17.7067 22.1041 18.2425 21.9701L24 20.5308L29.7575 21.9701C30.2933 22.1041 30.8362 21.7783 30.9701 21.2425C31.1041 20.7067 30.7783 20.1638 30.2425 20.0299L24.2425 18.5299Z" fill="#333333"/>
<path fill-rule="evenodd" clip-rule="evenodd" d="M10.4762 17.783C10.596 18.3222 10.2561 18.8563 9.71693 18.9762L7.80387 19.4013C6.81877 19.6202 6.15107 20.5387 6.24674 21.5433L6.82014 27.5639C6.89181 28.3165 7.38168 28.9643 8.08624 29.2383L15.3624 32.068C15.8772 32.2681 16.1322 32.8477 15.932 33.3624C15.7318 33.8771 15.1523 34.1321 14.6376 33.932L7.36135 31.1023C5.95223 30.5543 4.97249 29.2587 4.82915 27.7536L4.25575 21.7329C4.0644 19.7237 5.39981 17.8867 7.37001 17.4489L9.28307 17.0238C9.8222 16.904 10.3564 17.2439 10.4762 17.783Z" fill="#333333"/>
<path fill-rule="evenodd" clip-rule="evenodd" d="M37.765 17.7642C37.6348 18.3009 37.9643 18.8415 38.501 18.9718L40.259 19.3984C41.2195 19.6314 41.8657 20.5311 41.7798 21.5157L41.2227 27.903C41.1551 28.6783 40.644 29.3439 39.9125 29.6093L33.1589 32.06C32.6397 32.2483 32.3716 32.8219 32.56 33.3411C32.7484 33.8603 33.3219 34.1284 33.8411 33.94L40.5947 31.4894C42.0577 30.9585 43.0799 29.6273 43.2151 28.0768L43.7722 21.6895C43.944 19.7203 42.6516 17.9209 40.7306 17.4548L38.9726 17.0282C38.4359 16.898 37.8953 17.2275 37.765 17.7642Z" fill="#333333"/>
</svg>
