<svg width="48" height="48" viewBox="0 0 48 48" fill="none" xmlns="http://www.w3.org/2000/svg">
<path fill-rule="evenodd" clip-rule="evenodd" d="M44 24C44 35.0457 35.0457 44 24 44C12.9543 44 4 35.0457 4 24C4 12.9543 12.9543 4 24 4C35.0457 4 44 12.9543 44 24ZM18.4437 19.7757C15.372 22.1495 11.9252 22.8359 10.745 21.3088C9.5649 19.7817 11.0983 16.6194 14.1701 14.2456C17.2418 11.8718 20.6886 11.1854 21.8687 12.7125C23.0489 14.2396 21.5154 17.4019 18.4437 19.7757ZM36.6039 33.4018C37.5904 31.7679 35.7259 28.8346 32.4393 26.8501C29.1527 24.8657 25.6886 24.5815 24.702 26.2155C23.7155 27.8494 25.58 30.7827 28.8666 32.7671C32.1532 34.7516 35.6173 35.0357 36.6039 33.4018ZM33.4578 15.0033C35.1036 18.5216 35.0199 22.0371 33.2707 22.8553C31.5216 23.6735 28.7694 21.4847 27.1236 17.9664C25.4778 14.448 25.5615 10.9326 27.3107 10.1143C29.0598 9.29611 31.812 11.485 33.4578 15.0033ZM21.6556 37.9652C23.4201 37.0783 23.4041 33.4821 21.62 29.9331C19.8359 26.384 16.9592 24.2259 15.1948 25.1129C13.4304 25.9999 13.4463 29.596 15.2304 33.1451C17.0145 36.6942 19.8912 38.8522 21.6556 37.9652Z" fill="#333333"/>
</svg>
