<svg width="48" height="48" viewBox="0 0 48 48" fill="none" xmlns="http://www.w3.org/2000/svg">
<path fill-rule="evenodd" clip-rule="evenodd" d="M44.0522 24C44.0522 35.0457 35.0979 44 24.0522 44C13.0066 44 4.05225 35.0457 4.05225 24C4.05225 12.9543 13.0066 4 24.0522 4C35.0979 4 44.0522 12.9543 44.0522 24ZM17.4437 20.4611C14.372 22.8349 10.9252 23.5213 9.74501 21.9942C8.56487 20.4671 10.0983 17.3047 13.17 14.931C16.2417 12.5572 19.6886 11.8708 20.8687 13.3979C22.0488 14.925 20.5154 18.0873 17.4437 20.4611ZM35.6038 34.0872C36.5904 32.4532 34.7259 29.52 31.4393 27.5355C28.1527 25.5511 24.6886 25.2669 23.702 26.9009C22.7154 28.5348 24.58 31.4681 27.8666 33.4525C31.1532 35.437 34.6173 35.7211 35.6038 34.0872ZM32.4578 15.6887C34.1036 19.207 34.0198 22.7225 32.2707 23.5407C30.5215 24.3589 27.7694 22.1701 26.1235 18.6517C24.4777 15.1334 24.5615 11.6179 26.3106 10.7997C28.0598 9.9815 30.8119 12.1704 32.4578 15.6887ZM20.6556 38.6506C22.42 37.7637 22.4041 34.1675 20.62 30.6184C18.8359 27.0694 15.9592 24.9113 14.1948 25.7983C12.4303 26.6853 12.4463 30.2814 14.2304 33.8305C16.0145 37.3795 18.8912 39.5376 20.6556 38.6506ZM13 20.5C13 21.0523 12.5523 21.5 12 21.5C11.4477 21.5 11 21.0523 11 20.5C11 19.9477 11.4477 19.5 12 19.5C12.5523 19.5 13 19.9477 13 20.5ZM12.5 19C12.7761 19 13 18.7761 13 18.5C13 18.2239 12.7761 18 12.5 18C12.2239 18 12 18.2239 12 18.5C12 18.7761 12.2239 19 12.5 19ZM14.5678 19.5C14.5678 19.7761 14.344 20 14.0678 20C13.7917 20 13.5678 19.7761 13.5678 19.5C13.5678 19.2239 13.7917 19 14.0678 19C14.344 19 14.5678 19.2239 14.5678 19.5ZM33 33C33.5523 33 34 32.5523 34 32C34 31.4477 33.5523 31 33 31C32.4477 31 32 31.4477 32 32C32 32.5523 32.4477 33 33 33ZM30.9062 32.4531C30.9062 32.7034 30.7033 32.9062 30.4531 32.9062C30.2028 32.9062 30 32.7034 30 32.4531C30 32.2029 30.2028 32 30.4531 32C30.7033 32 30.9062 32.2029 30.9062 32.4531ZM29 20C29.5523 20 30 19.5523 30 19C30 18.4477 29.5523 18 29 18C28.4477 18 28 18.4477 28 19C28 19.5523 28.4477 20 29 20ZM32.4 20.7C32.4 21.0866 32.0866 21.4 31.7 21.4C31.3134 21.4 31 21.0866 31 20.7C31 20.3134 31.3134 20 31.7 20C32.0866 20 32.4 20.3134 32.4 20.7ZM18 36C18.5523 36 19 35.5523 19 35C19 34.4477 18.5523 34 18 34C17.4477 34 17 34.4477 17 35C17 35.5523 17.4477 36 18 36ZM19.9062 32.4531C19.9062 32.7034 19.7034 32.9062 19.4531 32.9062C19.2029 32.9062 19 32.7034 19 32.4531C19 32.2029 19.2029 32 19.4531 32C19.7034 32 19.9062 32.2029 19.9062 32.4531ZM19.7 37.4C20.0866 37.4 20.4 37.0866 20.4 36.7C20.4 36.3134 20.0866 36 19.7 36C19.3134 36 19 36.3134 19 36.7C19 37.0866 19.3134 37.4 19.7 37.4Z" fill="#333333"/>
</svg>
