<svg width="48" height="48" viewBox="0 0 48 48" fill="none" xmlns="http://www.w3.org/2000/svg">
<path fill-rule="evenodd" clip-rule="evenodd" d="M29.2045 31.5594C26.8468 33.1027 24.0282 34 21 34C12.7157 34 6 27.2843 6 19C6 10.7157 12.7157 4 21 4C29.2843 4 36 10.7157 36 19C36 23.1233 34.3363 26.858 31.6436 29.5695L33.114 29.4062L39 36.5L34.7322 40.1773L28.7988 33.0271L29.2045 31.5594ZM33 19C33 25.6274 27.6274 31 21 31C14.3726 31 9 25.6274 9 19C9 12.3726 14.3726 7 21 7C27.6274 7 33 12.3726 33 19Z" fill="#333333"/>
<path d="M36.1246 41.7577L40.3924 38.0804L41.7191 39.6614C42.4291 40.5076 42.3187 41.7691 41.4726 42.4791L40.2216 43.5288C39.3754 44.2388 38.1139 44.1284 37.4039 43.2823L36.1246 41.7577Z" fill="#333333"/>
<path fill-rule="evenodd" clip-rule="evenodd" d="M20.7382 11.5658C18.955 11.6352 17.3157 12.2705 16.4177 13.1687C16.1248 13.4616 15.6499 13.4617 15.357 13.1688C15.0641 12.8759 15.064 12.4011 15.3569 12.1081C16.5972 10.8676 18.6412 10.1463 20.6799 10.067C22.7288 9.98724 24.9392 10.5499 26.477 12.088C26.7699 12.3809 26.7699 12.8558 26.4769 13.1487C26.184 13.4415 25.7091 13.4415 25.4163 13.1486C24.2614 11.9935 22.5112 11.4968 20.7382 11.5658Z" fill="#333333"/>
</svg>
