<svg width="48" height="48" viewBox="0 0 48 48" fill="none" xmlns="http://www.w3.org/2000/svg">
<path fill-rule="evenodd" clip-rule="evenodd" d="M19.0977 18.4573L16.4082 26.4079C16.0985 27.3234 15.1052 27.8145 14.1897 27.5048C13.2742 27.1951 12.7831 26.2019 13.0928 25.2863L16.2785 15.8688C16.6564 14.7518 17.7043 14 18.8835 14H20.4019H22.9713H28.945C30.1081 14 31.1454 14.7317 31.5356 15.8274L34.8961 25.264C35.2203 26.1744 34.7451 27.1754 33.8346 27.4996C32.9241 27.8239 31.9231 27.3486 31.5989 26.4381L28.8994 18.8578V20.8066V30.6052V42.3515C28.8994 43.2578 28.1436 43.9993 27.2197 43.9993C26.2959 43.9993 25.5401 43.2578 25.5401 42.3515V30.6052H22.4571V42.3515C22.4571 43.2578 21.7012 43.9993 20.7774 43.9993C19.8536 43.9993 19.0977 43.2578 19.0977 42.3515V30.6052V20.8066V18.4573Z" fill="#333333"/>
<path d="M28.0002 8.00181C28.0002 10.2119 26.2093 12.0036 24.0001 12.0036C21.7909 12.0036 20 10.2119 20 8.00181C20 5.79167 21.7909 4 24.0001 4C26.2093 4 28.0002 5.79167 28.0002 8.00181Z" fill="#333333"/>
</svg>
