<svg width="48" height="48" viewBox="0 0 48 48" fill="none" xmlns="http://www.w3.org/2000/svg">
<path fill-rule="evenodd" clip-rule="evenodd" d="M24.0522 43.3145C35.0979 43.3145 44.0522 34.3601 44.0522 23.3145C44.0522 12.2688 35.0979 3.31445 24.0522 3.31445C13.0066 3.31445 4.05225 12.2688 4.05225 23.3145C4.05225 34.3601 13.0066 43.3145 24.0522 43.3145ZM9.74501 21.3086C10.9252 22.8358 14.372 22.1494 17.4437 19.7756C20.5154 17.4018 22.0488 14.2395 20.8687 12.7124C19.6886 11.1852 16.2417 11.8716 13.17 14.2454C10.0983 16.6192 8.56487 19.7815 9.74501 21.3086ZM31.4393 26.85C34.7259 28.8344 36.5904 31.7677 35.6038 33.4016C34.6173 35.0356 31.1532 34.7514 27.8666 32.767C24.58 30.7825 22.7154 27.8493 23.702 26.2153C24.6886 24.5814 28.1527 24.8655 31.4393 26.85ZM32.2707 22.8552C34.0198 22.0369 34.1036 18.5215 32.4578 15.0031C30.8119 11.4848 28.0598 9.29595 26.3106 10.1142C24.5615 10.9324 24.4777 14.4479 26.1235 17.9662C27.7694 21.4845 30.5215 23.6734 32.2707 22.8552ZM20.62 29.9329C22.4041 33.482 22.42 37.0781 20.6556 37.9651C18.8912 38.8521 16.0145 36.694 14.2304 33.1449C12.4463 29.5958 12.4303 25.9997 14.1948 25.1127C15.9592 24.2258 18.8359 26.3838 20.62 29.9329ZM13.6215 19.3906C14.1738 19.3906 14.6215 18.9429 14.6215 18.3906C14.6215 17.8383 14.1738 17.3906 13.6215 17.3906C13.0692 17.3906 12.6215 17.8383 12.6215 18.3906C12.6215 18.9429 13.0692 19.3906 13.6215 19.3906ZM16.4154 15.9844C16.4154 16.2605 16.1915 16.4844 15.9154 16.4844C15.6392 16.4844 15.4154 16.2605 15.4154 15.9844C15.4154 15.7082 15.6392 15.4844 15.9154 15.4844C16.1915 15.4844 16.4154 15.7082 16.4154 15.9844ZM15.6894 17.8906C15.9655 17.8906 16.1894 17.6668 16.1894 17.3906C16.1894 17.1145 15.9655 16.8906 15.6894 16.8906C15.4132 16.8906 15.1894 17.1145 15.1894 17.3906C15.1894 17.6668 15.4132 17.8906 15.6894 17.8906ZM18.4 15.077C18.4 15.4636 18.0866 15.777 17.7 15.777C17.3134 15.777 17 15.4636 17 15.077C17 14.6904 17.3134 14.377 17.7 14.377C18.0866 14.377 18.4 14.6904 18.4 15.077ZM31.4707 31.8984C32.023 31.8984 32.4707 31.4507 32.4707 30.8984C32.4707 30.3462 32.023 29.8984 31.4707 29.8984C30.9184 29.8984 30.4707 30.3462 30.4707 30.8984C30.4707 31.4507 30.9184 31.8984 31.4707 31.8984ZM30.4707 29.7129C30.4707 29.9631 30.2678 30.166 30.0176 30.166C29.7673 30.166 29.5645 29.9631 29.5645 29.7129C29.5645 29.4626 29.7673 29.2598 30.0176 29.2598C30.2678 29.2598 30.4707 29.4626 30.4707 29.7129ZM26.8791 28.4861C27.1261 28.4861 27.3263 28.2859 27.3263 28.039C27.3263 27.792 27.1261 27.5918 26.8791 27.5918C26.6322 27.5918 26.432 27.792 26.432 28.039C26.432 28.2859 26.6322 28.4861 26.8791 28.4861ZM29.1367 28.944C29.1367 29.3682 28.7928 29.7121 28.3685 29.7121C27.9443 29.7121 27.6003 29.3682 27.6003 28.944C27.6003 28.5197 27.9443 28.1758 28.3685 28.1758C28.7928 28.1758 29.1367 28.5197 29.1367 28.944ZM29.3529 17.0762C29.9052 17.0762 30.3529 16.6285 30.3529 16.0762C30.3529 15.5239 29.9052 15.0762 29.3529 15.0762C28.8007 15.0762 28.3529 15.5239 28.3529 16.0762C28.3529 16.6285 28.8007 17.0762 29.3529 17.0762ZM28.3529 14.0957C28.3529 14.3718 28.1291 14.5957 27.8529 14.5957C27.5768 14.5957 27.3529 14.3718 27.3529 14.0957C27.3529 13.8196 27.5768 13.5957 27.8529 13.5957C28.1291 13.5957 28.3529 13.8196 28.3529 14.0957ZM30.2291 19.2496C30.6157 19.2496 30.9291 18.9362 30.9291 18.5496C30.9291 18.163 30.6157 17.8496 30.2291 17.8496C29.8425 17.8496 29.5291 18.163 29.5291 18.5496C29.5291 18.9362 29.8425 19.2496 30.2291 19.2496ZM18.5097 32.0195C18.5097 32.5718 18.062 33.0195 17.5097 33.0195C16.9574 33.0195 16.5097 32.5718 16.5097 32.0195C16.5097 31.4672 16.9574 31.0195 17.5097 31.0195C18.062 31.0195 18.5097 31.4672 18.5097 32.0195ZM17.4252 30.123C17.6754 30.123 17.8783 29.9202 17.8783 29.6699C17.8783 29.4197 17.6754 29.2168 17.4252 29.2168C17.1749 29.2168 16.9721 29.4197 16.9721 29.6699C16.9721 29.9202 17.1749 30.123 17.4252 30.123ZM16.2198 28.627C16.2198 28.9031 15.9959 29.127 15.7198 29.127C15.4436 29.127 15.2198 28.9031 15.2198 28.627C15.2198 28.3508 15.4436 28.127 15.7198 28.127C15.9959 28.127 16.2198 28.3508 16.2198 28.627ZM18.9198 34.8355C19.3064 34.8355 19.6198 34.5221 19.6198 34.1355C19.6198 33.7489 19.3064 33.4355 18.9198 33.4355C18.5332 33.4355 18.2198 33.7489 18.2198 34.1355C18.2198 34.5221 18.5332 34.8355 18.9198 34.8355Z" fill="#333333"/>
</svg>
