<svg width="48" height="48" viewBox="0 0 48 48" fill="none" xmlns="http://www.w3.org/2000/svg">
<path fill-rule="evenodd" clip-rule="evenodd" d="M9.26322 6C8.88541 6 8.54782 6.26219 8.41801 6.65642L6.10958 13.6672C6.03709 13.8874 6 14.1199 6 14.3544V17.1429C6 18.7208 7.15127 20 8.57143 20C9.99159 20 11.1429 18.7208 11.1429 17.1429C11.1429 18.7208 12.2941 20 13.7143 20C15.1344 20 16.2857 18.7208 16.2857 17.1429C16.2857 18.7208 17.437 20 18.8571 20C20.2766 20 21.4274 18.7221 21.4286 17.1452C21.4297 18.7221 22.5805 20 24 20C25.4202 20 26.5714 18.7208 26.5714 17.1429C26.5714 18.7208 27.7227 20 29.1429 20C30.5623 20 31.7131 18.7221 31.7143 17.1452C31.7154 18.7221 32.8663 20 34.2857 20C35.7059 20 36.8571 18.7208 36.8571 17.1429C36.8571 18.7208 38.0084 20 39.4286 20C40.8487 20 42 18.7208 42 17.1429V14.3544C42 14.1199 41.9629 13.8874 41.8904 13.6672L39.582 6.65642C39.4522 6.26218 39.1146 6 38.7368 6H9.26322Z" fill="#333333"/>
<path fill-rule="evenodd" clip-rule="evenodd" d="M9 21.4771V28H7.5C7.22386 28 7 28.2239 7 28.5V29.5C7 29.7761 7.22386 30 7.5 30H40.5C40.7761 30 41 29.7761 41 29.5V28.5C41 28.2239 40.7761 28 40.5 28H39V21.4771C38.2366 21.3947 37.5582 21.0941 37 20.6466V28H11V20.6466C10.4418 21.0941 9.7634 21.3947 9 21.4771ZM37.4744 19C37.5716 19.1261 37.6785 19.2427 37.7938 19.3484C38.1337 19.6597 38.5467 19.876 39 19.9605V19H37.4744ZM9 19.9605V19H10.5256C10.4284 19.1261 10.3215 19.2427 10.2062 19.3484C9.86634 19.6597 9.45328 19.876 9 19.9605ZM8.5 31C8.22386 31 8 31.2239 8 31.5V41C8 41.5523 8.44772 42 9 42H39C39.5523 42 40 41.5523 40 41V31.5C40 31.2239 39.7761 31 39.5 31H8.5Z" fill="#333333"/>
<path d="M12 25.5C12 25.2239 12.2239 25 12.5 25H15.5C15.7761 25 16 25.2239 16 25.5V27.5C16 27.7761 15.7761 28 15.5 28H12.5C12.2239 28 12 27.7761 12 27.5V25.5Z" fill="#333333"/>
<path d="M14 26.5C14 26.2239 14.2239 26 14.5 26H17.5C17.7761 26 18 26.2239 18 26.5V27.5C18 27.7761 17.7761 28 17.5 28H14.5C14.2239 28 14 27.7761 14 27.5V26.5Z" fill="#333333"/>
<path d="M22 26.5C22 27.3284 21.3284 28 20.5 28C19.6716 28 19 27.3284 19 26.5C19 25.6716 19.6716 25 20.5 25C21.3284 25 22 25.6716 22 26.5Z" fill="#333333"/>
</svg>
