<svg width="48" height="48" viewBox="0 0 48 48" fill="none" xmlns="http://www.w3.org/2000/svg">
<path fill-rule="evenodd" clip-rule="evenodd" d="M31.7264 6C32.2786 6 32.7264 6.44772 32.7264 7V12.4229L32.7262 12.4381C32.7368 12.4324 32.7475 12.4269 32.7583 12.4215L34.8612 11.3766L35.5028 9.42871C35.6756 8.90416 36.241 8.619 36.7655 8.79179C37.2901 8.96459 37.5752 9.52991 37.4024 10.0545L36.6301 12.3991C36.5464 12.653 36.3647 12.8628 36.1253 12.9817L33.6483 14.2125C33.1537 14.4583 32.5535 14.2566 32.3078 13.762C32.2343 13.6141 32.2008 13.4567 32.2032 13.3021C32.0615 13.3792 31.899 13.4229 31.7264 13.4229C31.5537 13.4229 31.3912 13.3792 31.2495 13.3021C31.2519 13.4567 31.2185 13.6141 31.1449 13.762C30.8992 14.2566 30.299 14.4583 29.8044 14.2125L27.3274 12.9817C27.0881 12.8628 26.9063 12.653 26.8226 12.3991L26.0503 10.0545C25.8775 9.52991 26.1627 8.96459 26.6872 8.79179C27.2118 8.619 27.7771 8.90415 27.9499 9.42871L28.5915 11.3766L30.6944 12.4215C30.7052 12.4269 30.7159 12.4324 30.7265 12.4381L30.7264 12.4229V7C30.7264 6.44772 31.1741 6 31.7264 6ZM29.6331 19.4658C29.9895 19.0439 30.6204 18.9907 31.0423 19.3471C31.4643 19.7035 31.5174 20.3344 31.161 20.7563L30.6213 21.3953L30.952 22.9778C31.021 23.3081 30.9188 23.6509 30.6802 23.8895L29.4683 25.1014C29.0778 25.4919 28.4446 25.4919 28.0541 25.1014C27.6635 24.7109 27.6635 24.0777 28.0541 23.6872L28.8836 22.8576L28.5638 21.3271C28.5009 21.0259 28.5802 20.7124 28.7787 20.4773L29.6331 19.4658ZM33.8368 19.0436C33.492 18.6122 32.8627 18.542 32.4313 18.8868C31.9998 19.2316 31.9296 19.8609 32.2744 20.2923L33.143 21.379L32.8089 22.9778C32.7399 23.3081 32.8421 23.6509 33.0807 23.8895L34.2926 25.1014C34.6831 25.4919 35.3163 25.4919 35.7068 25.1014C36.0973 24.7109 36.0973 24.0777 35.7068 23.6872L34.8772 22.8576L35.197 21.3271C35.258 21.0352 35.1855 20.7312 34.9993 20.4982L33.8368 19.0436Z" fill="#333333"/>
<path d="M33.5 16.5C33.5 18.9853 32.6046 21 31.5 21C30.3955 21 29.5 18.9853 29.5 16.5C29.5 14.0147 30.3955 12 31.5 12C32.6046 12 33.5 14.0147 33.5 16.5Z" fill="#333333"/>
<path fill-rule="evenodd" clip-rule="evenodd" d="M33 13.8221L33 15C33 15.8162 33.2243 17.0262 33.9321 18.0636C34.6763 19.1542 35.9252 20 37.7906 20C39.5193 20 40.712 19.4471 41.3923 18.5203C42.0415 17.636 42.0763 16.6071 41.9259 15.927L41.7797 15.266L33 13.8221ZM39.9482 16.9916C39.913 17.1118 39.8585 17.23 39.7801 17.3368C39.5865 17.6005 39.0944 18 37.7906 18C36.6236 18 35.9772 17.5124 35.5842 16.9364C35.4296 16.7098 35.3106 16.4624 35.2216 16.2143L39.9482 16.9916Z" fill="#333333"/>
<path fill-rule="evenodd" clip-rule="evenodd" d="M30 13.8221L30 15C30 15.8162 29.7758 17.0262 29.0679 18.0636C28.3238 19.1542 27.0748 20 25.2094 20C23.4807 20 22.2881 19.4471 21.6078 18.5203C20.9586 17.636 20.9238 16.6071 21.0742 15.927L21.2203 15.266L30 13.8221ZM23.0519 16.9916C23.087 17.1118 23.1416 17.23 23.22 17.3368C23.4136 17.6005 23.9056 18 25.2094 18C26.3765 18 27.0228 17.5124 27.4159 16.9364C27.5705 16.7098 27.6895 16.4624 27.7785 16.2143L23.0519 16.9916Z" fill="#333333"/>
<path fill-rule="evenodd" clip-rule="evenodd" d="M19 17.7849C19.5523 17.7849 20 18.2326 20 18.7849V26.5564L22.2288 24.0408L23.0558 21.6706C23.2378 21.1491 23.808 20.8739 24.3295 21.0558C24.8509 21.2378 25.1261 21.808 24.9442 22.3294L24.0522 24.8858C24.0094 25.0087 23.9429 25.1221 23.8566 25.2195L21.2485 28.1632C20.8823 28.5765 20.2502 28.6147 19.8369 28.2485C19.7247 28.1491 19.6402 28.0302 19.5839 27.9014C19.4196 28.0197 19.218 28.0894 19 28.0894C18.7821 28.0894 18.5805 28.0197 18.4162 27.9014C18.3598 28.0302 18.2753 28.1491 18.1632 28.2485C17.7498 28.6147 17.1178 28.5765 16.7515 28.1632L14.1435 25.2195C14.0572 25.1221 13.9907 25.0087 13.9478 24.8858L13.0558 22.3294C12.8739 21.808 13.1491 21.2378 13.6706 21.0558C14.192 20.8739 14.7623 21.1491 14.9442 21.6706L15.7712 24.0408L18 26.5564V18.7849C18 18.2326 18.4477 17.7849 19 17.7849ZM17.2136 32.5807C17.7213 32.3634 18.3091 32.5987 18.5264 33.1064C18.7438 33.6141 18.5084 34.2019 18.0007 34.4193L17.7784 34.5145C17.9627 34.5463 18.1402 34.6302 18.2874 34.7669C18.6922 35.1426 18.7158 35.7753 18.3401 36.1801L17.3388 37.2589L17.7743 39.343C17.8433 39.6733 17.7411 40.0161 17.5025 40.2547L15.9786 41.7786C15.5881 42.1691 14.9549 42.1691 14.5644 41.7786C14.1738 41.3881 14.1738 40.7549 14.5644 40.3644L15.7059 39.2228L15.2753 37.162C15.209 36.8446 15.3007 36.5148 15.5213 36.2772L16.7478 34.9557L15.8282 35.3495L14.3408 36.7513C14.2165 36.8685 14.0642 36.9518 13.8985 36.9934L11.6938 37.5473C11.1582 37.6818 10.6149 37.3567 10.4803 36.821C10.3458 36.2854 10.6709 35.7421 11.2066 35.6075L13.1586 35.1172L14.5856 33.7723C14.671 33.6918 14.77 33.6269 14.8779 33.5807L17.2136 32.5807ZM20.7511 32.5663C20.2355 32.3685 19.6571 32.6262 19.4593 33.1419C19.2615 33.6575 19.5192 34.2359 20.0348 34.4337L20.2385 34.5118C20.0076 34.5478 19.7882 34.6645 19.6263 34.8577C19.2717 35.2812 19.3275 35.9119 19.7509 36.2665L21.032 37.3394L20.6133 39.343C20.5443 39.6733 20.6465 40.0161 20.8851 40.2546L22.409 41.7786C22.7995 42.1691 23.4327 42.1691 23.8232 41.7786C24.2137 41.388 24.2137 40.7549 23.8232 40.3643L22.6816 39.2228L23.1122 37.1619C23.1877 36.8009 23.0582 36.4276 22.7754 36.1908L21.2204 34.8885L22.4744 35.3694L24.0723 36.7745C24.1918 36.8796 24.3347 36.9546 24.489 36.9934L26.6937 37.5472C27.2294 37.6818 27.7727 37.3566 27.9072 36.821C28.0418 36.2854 27.7166 35.7421 27.181 35.6075L25.2112 35.1127L23.6604 33.749C23.5713 33.6707 23.4689 33.6088 23.3582 33.5663L20.7511 32.5663Z" fill="#333333"/>
<path d="M21 30.5C21 33.5376 20.1046 36 19 36C17.8955 36 17 33.5376 17 30.5C17 27.4624 17.8955 25 19 25C20.1046 25 21 27.4624 21 30.5Z" fill="#333333"/>
<path fill-rule="evenodd" clip-rule="evenodd" d="M20.7859 27.9492L20.7859 29.0709C20.7859 29.9255 21.1222 31.1125 22.0755 32.0904C23.0519 33.0922 24.5861 33.7853 26.8144 33.7853C28.9368 33.7853 30.3634 33.3243 31.213 32.5141C32.1019 31.6666 32.1987 30.5916 31.9584 29.831L31.7632 29.2129L20.7859 27.9492ZM29.8878 31.0102C29.8709 31.029 29.8527 31.0478 29.8329 31.0667C29.5232 31.362 28.7149 31.7853 26.8144 31.7853C25.0199 31.7853 24.0398 31.2404 23.5077 30.6944C23.3626 30.5456 23.2441 30.39 23.1482 30.2344L29.8878 31.0102Z" fill="#333333"/>
<path fill-rule="evenodd" clip-rule="evenodd" d="M17.2142 27.9492L17.2142 29.0709C17.2142 29.9255 16.8778 31.1125 15.9246 32.0904C14.9482 33.0922 13.414 33.7853 11.1857 33.7853C9.0633 33.7853 7.63672 33.3243 6.78704 32.5141C5.89819 31.6666 5.80142 30.5916 6.04167 29.831L6.23692 29.2129L17.2142 27.9492ZM8.11227 31.0102C8.12914 31.029 8.14742 31.0478 8.16722 31.0667C8.47689 31.362 9.28522 31.7853 11.1857 31.7853C12.9802 31.7853 13.9602 31.2404 14.4924 30.6944C14.6374 30.5456 14.756 30.39 14.8519 30.2344L8.11227 31.0102Z" fill="#333333"/>
</svg>
