<svg width="48" height="48" viewBox="0 0 48 48" fill="none" xmlns="http://www.w3.org/2000/svg">
<path fill-rule="evenodd" clip-rule="evenodd" d="M31.3693 25.9151L24.8741 29.6651L28.3741 35.7273L34.8693 31.9773C36.5433 31.0108 37.1169 28.8703 36.1504 27.1962C35.1839 25.5222 33.0433 24.9486 31.3693 25.9151ZM29.3741 37.4594L35.8693 33.7094C38.4999 32.1906 39.4012 28.8268 37.8824 26.1962C36.3636 23.5656 32.9999 22.6643 30.3693 24.1831L23.8741 27.9331C23.736 27.6939 23.4302 27.612 23.1911 27.7501L15.8299 32.0001C12.9601 33.6569 11.9769 37.3265 13.6337 40.1962C15.2906 43.066 18.9601 44.0492 21.8299 42.3924L29.1911 38.1424C29.4302 38.0043 29.5122 37.6985 29.3741 37.4594ZM19.9768 31.7207L16.2327 33.8602C14.7264 34.721 14.0574 36.4751 14.4725 38.0734C14.6114 38.6079 15.2376 38.7748 15.7171 38.5008C15.9569 38.3638 16.0339 38.0587 15.9524 37.7949C15.6457 36.8026 16.0506 35.6919 16.9769 35.1626L20.721 33.0231C21.0806 32.8176 21.2056 32.3595 21.0001 31.9998C20.7946 31.6402 20.3364 31.5152 19.9768 31.7207Z" fill="#333333"/>
<path fill-rule="evenodd" clip-rule="evenodd" d="M23.2581 28.8661L20.2077 30.6272C20.863 30.5746 21.5206 30.8952 21.8683 31.5037C22.3478 32.3428 22.0563 33.4118 21.2171 33.8913L17.473 36.0308C16.9699 36.3184 16.7337 36.9365 16.9078 37.4996C17.0873 38.0805 16.9675 38.938 16.2133 39.369C15.7397 39.6396 15.1743 39.7054 14.6643 39.5434C14.5544 39.5084 14.4471 39.4627 14.3447 39.4064C14.3929 39.504 14.4445 39.6006 14.4997 39.6962C15.8804 42.0877 18.9384 42.9071 21.3299 41.5264L28.2581 37.5264L23.2581 28.8661ZM24.8741 29.6651L31.3693 25.9151C33.0433 24.9486 35.1839 25.5222 36.1504 27.1962C37.1169 28.8703 36.5433 31.0108 34.8693 31.9773L28.3741 35.7273L24.8741 29.6651ZM29.3741 37.4594L35.8693 33.7094C38.4999 32.1906 39.4012 28.8268 37.8824 26.1962C36.3636 23.5656 32.9999 22.6643 30.3693 24.1831L23.8741 27.9331C23.8741 27.9332 23.874 27.933 23.8741 27.9331C23.736 27.6941 23.4302 27.612 23.1911 27.7501L15.8299 32.0001C12.9601 33.6569 11.9769 37.3265 13.6337 40.1962C15.2906 43.066 18.9601 44.0492 21.8299 42.3924L29.1911 38.1424C29.4302 38.0043 29.5122 37.6985 29.3741 37.4594ZM16.2327 33.8602L19.9768 31.7207C20.3364 31.5152 20.7946 31.6402 21.0001 31.9998C21.2056 32.3595 21.0806 32.8176 20.721 33.0231L16.9769 35.1626C16.0506 35.6919 15.6457 36.8026 15.9524 37.7949C16.0339 38.0587 15.9569 38.3638 15.7171 38.5008C15.2376 38.7748 14.6114 38.6079 14.4725 38.0734C14.0574 36.4751 14.7264 34.721 16.2327 33.8602Z" fill="#333333"/>
<path d="M39.4047 17.7141C39.6129 17.9223 39.9565 17.9068 40.1285 17.6678C42.38 14.5414 42.0994 10.1557 39.2869 7.34315C36.4743 4.53059 32.0886 4.25004 28.9622 6.50148C28.7232 6.67353 28.7077 7.01714 28.9159 7.22532L39.4047 17.7141Z" fill="#333333"/>
<path d="M27.8553 8.28599C27.6471 8.0778 27.3035 8.09331 27.1314 8.33224C24.88 11.4586 25.1606 15.8443 27.9732 18.6569C30.7857 21.4694 35.1714 21.75 38.2978 19.4986C38.5367 19.3265 38.5522 18.9829 38.344 18.7747L27.8553 8.28599Z" fill="#333333"/>
<path d="M13.2458 9.4613C14.0886 8.045 16.1865 8.19873 16.8139 9.72274L21.72 21.641C22.286 23.0158 21.2072 24.5056 19.7245 24.397L8.22741 23.5546C6.74462 23.4459 5.89455 21.8148 6.65485 20.5372L13.2458 9.4613Z" fill="#333333"/>
</svg>
