<svg width="48" height="48" viewBox="0 0 48 48" fill="none" xmlns="http://www.w3.org/2000/svg">
<path fill-rule="evenodd" clip-rule="evenodd" d="M37.2847 25.6154L37.1193 25.2621C36.4062 23.7381 36.1988 22.1238 36.1366 20.6919C36.1052 19.9703 36.11 19.257 36.1176 18.6014C36.1187 18.5113 36.1198 18.4225 36.1209 18.335C36.1279 17.7692 36.1342 17.2553 36.123 16.7604C36.0756 14.8106 35.4636 12.9118 34.355 11.2858C33.0921 9.71615 31.4415 8.48173 29.5544 7.70176L29.5216 7.6882L29.4893 7.67348C26.935 6.50995 24.1507 5.908 21.3318 5.91114L21.3296 5.91115C17.7824 5.91115 14.3879 7.29451 11.8909 9.74531C9.39511 12.1949 8 15.5091 8 18.9569C8 21.0012 8.59295 23.3328 9.62467 25.4904C10.6588 27.653 12.0607 29.4888 13.5372 30.6266L14.3164 31.2271V40.1425C14.6413 40.5448 15.2724 41.0416 16.219 41.4724C17.3773 41.9997 18.5419 42.2133 19.2158 42.1583L19.2971 42.1516H19.3786C21.3349 42.1516 22.2503 41.5988 22.6443 41.2626C22.7871 41.1407 22.8864 41.026 22.953 40.9356V35.4002L25.4499 36.0456L25.4511 36.0459L25.4521 36.0462L25.4534 36.0465L25.4656 36.0495C25.4811 36.0533 25.5077 36.0597 25.5448 36.0683C25.619 36.0855 25.7345 36.1111 25.8852 36.1414C26.1875 36.202 26.6274 36.2802 27.1577 36.3457C28.2343 36.4785 29.6077 36.5491 30.9339 36.3545C32.2715 36.1584 33.3862 35.7193 34.1529 34.9857C34.8668 34.3024 35.4954 33.1581 35.4954 31.0618V29.352L37.1767 29.0874L37.1781 29.0872L37.1862 29.0858C37.1922 29.0847 37.2007 29.0832 37.2118 29.0811C37.2228 29.0791 37.2362 29.0765 37.2518 29.0735C37.315 29.061 37.413 29.0403 37.5345 29.0101C37.7834 28.9483 38.1014 28.854 38.4114 28.7232C38.7332 28.5875 38.9648 28.4464 39.1013 28.3262C39.1288 28.3019 39.1481 28.2825 39.1614 28.268C39.1565 28.2144 39.1378 28.1044 39.068 27.9264C38.9588 27.6481 38.7721 27.3265 38.5331 26.9938C38.2994 26.6687 38.0509 26.3816 37.8573 26.1735C37.762 26.071 37.6837 25.9916 37.632 25.9404C37.6189 25.9274 37.6075 25.9163 37.5982 25.9072C37.5892 25.8984 37.582 25.8915 37.5767 25.8865L37.5685 25.8786L37.5674 25.8777L37.2847 25.6154ZM24.953 37.9829C24.953 37.9829 25.7548 38.1901 26.953 38.3355C30.4936 38.7652 37.4954 38.655 37.4954 31.0618C37.4954 31.0618 40.7982 30.5421 41.1327 28.6545C41.4671 26.767 38.9308 24.4144 38.9308 24.4144C38.0683 22.5713 38.0953 20.4009 38.1207 18.3634C38.1277 17.8001 38.1346 17.2469 38.1225 16.7137C38.0654 14.3491 37.3155 12.0508 35.9624 10.0936C34.4807 8.23043 32.5377 6.77069 30.3183 5.85341C27.5022 4.57059 24.4343 3.90769 21.3296 3.91115C17.2639 3.91115 13.3648 5.49632 10.4899 8.31794C7.61508 11.1396 6 14.9665 6 18.9569C6 23.7578 8.74879 29.4615 12.3164 32.2108V40.7048C13.3287 42.828 17.1475 44.3338 19.3786 44.1516C24.1168 44.1516 24.953 41.416 24.953 41.416V37.9829Z" fill="#333333"/>
<path d="M26.7229 20.1457C27.4959 20.1457 27.2508 19.9188 27.8892 19.4947C28.5374 19.918 29.3023 20.1399 30.0828 20.1311L32.5622 19.2531C33.2609 18.6926 33.7405 17.9155 33.9208 17.0521C34.1012 16.1886 33.9713 15.291 33.5529 14.5096C33.1345 13.7281 32.4529 13.1103 31.6224 12.7594C31.4328 11.9234 30.9551 11.1756 30.2686 10.6402L27.8484 9.81597H27.5759C27.0375 9.05158 26.2294 8.50633 25.3049 8.28388L21.116 8C20.2535 8.06974 19.4402 8.41984 18.807 8.99394C18.5078 8.92529 18.2016 8.88971 17.8941 8.88787C17.1498 8.88936 16.4218 9.10047 15.7981 9.49572C15.1743 9.89097 14.6815 10.4535 14.379 11.1153L12.4074 12.4744C11.9169 13.1213 11.6528 13.9044 11.6541 14.7084C11.6492 15.0445 11.6951 15.3796 11.7903 15.7028C11.273 16.3559 10.9949 17.1586 11.0001 17.9832C10.9988 18.9396 11.3743 19.8601 12.0492 20.5554C12.1036 21.2401 12.3495 21.8973 12.7601 22.4558C13.1708 23.0143 13.7306 23.4529 14.379 23.7242C15.1261 24.1799 15.7587 24.7929 16.2302 25.518C16.7018 26.243 16.8964 27.0617 17 27.9138H21.116V23.9363C21.1151 23.2301 21.3176 22.5377 21.7005 21.9378C22.0834 21.3378 22.2979 20.8543 22.9489 20.5421C23.5588 20.315 24.1084 19.9569 24.5566 19.4947C25.195 19.9188 25.95 20.1457 26.7229 20.1457Z" fill="#333333"/>
<path d="M34 23.5C34 24.3284 33.3284 25 32.5 25C31.6716 25 31 24.3284 31 23.5C31 22.6716 31.6716 22 32.5 22C33.3284 22 34 22.6716 34 23.5Z" fill="#333333"/>
<path fill-rule="evenodd" clip-rule="evenodd" d="M21 32H17V30H21V32Z" fill="#333333"/>
<path fill-rule="evenodd" clip-rule="evenodd" d="M21 36H17V34H21V36Z" fill="#333333"/>
<path fill-rule="evenodd" clip-rule="evenodd" d="M21 40H17V38H21V40Z" fill="#333333"/>
</svg>
