<svg width="48" height="48" viewBox="0 0 48 48" fill="none" xmlns="http://www.w3.org/2000/svg">
<rect width="14.9963" height="10.7506" rx="3" transform="matrix(0.502722 0.864448 -0.867588 0.497283 24.284 7.91064)" fill="#333333"/>
<rect x="-0.182433" y="0.680866" width="2.2135" height="5.45034" rx="1.10675" transform="matrix(0.502722 0.864448 -0.867588 0.497283 21.7535 7.94725)" fill="#333333" stroke="#333333"/>
<path d="M17.2385 6.83594L19.0013 9.99939" stroke="#333333" stroke-width="3"/>
<path d="M26.5 22.5L27.7118 24.8421" stroke="#333333" stroke-width="3"/>
<path d="M37.58 26.0527L25.5 32.8602" stroke="#333333" stroke-width="2"/>
<path fill-rule="evenodd" clip-rule="evenodd" d="M24.9975 31.9956C23.1728 29.5692 20.2697 28 17 28C11.4772 28 7 32.4772 7 38C7 39.4222 7.29689 40.7751 7.83209 42H26.1679C26.7031 40.7751 27 39.4222 27 38C27 36.4634 26.6534 35.0078 26.0342 33.707L19.4822 37.3993L18.4895 35.6632L24.9975 31.9956Z" fill="#333333"/>
<line x1="20" y1="41" x2="40" y2="41" stroke="#333333" stroke-width="2" stroke-linecap="round"/>
<path d="M18.1545 17.4082C12.231 20.6159 9.53848 24.8927 11.6925 31.308" stroke="#333333" stroke-width="2"/>
</svg>
