<svg width="48" height="48" viewBox="0 0 48 48" fill="none" xmlns="http://www.w3.org/2000/svg">
<path fill-rule="evenodd" clip-rule="evenodd" d="M25 5.00854C25 4.45626 24.5523 4.00854 24 4.00854C23.4477 4.00854 23 4.45626 23 5.00854V12.3308C22.077 12.9544 21.2829 14.4212 20.744 16.3996L20.294 16.4781L17.854 14.0137V10.3892C17.854 10.1257 17.75 9.87287 17.5646 9.68563L13.5687 5.64982C13.1801 5.25736 12.5469 5.25421 12.1545 5.64279C11.762 6.03137 11.7589 6.66453 12.1475 7.05699L15.854 10.8005V14.425C15.854 14.6885 15.958 14.9414 16.1434 15.1286L17.8939 16.8967L6.11628 18.9507C5.63196 21.2735 6.40687 25.9191 13.381 25.9191C13.5933 25.9191 13.8007 25.913 14.0034 25.9013L12.2996 27.0485C11.9812 27.2628 11.8137 27.6404 11.8682 28.0202L12.7464 34.1309L9.27111 36.4709C8.813 36.7794 8.69168 37.4008 9.00014 37.8589C9.3086 38.317 9.93003 38.4383 10.3882 38.1299L14.384 35.4393C14.7024 35.225 14.8699 34.8474 14.8154 34.4676L13.9372 28.3569L17.0432 26.2656L16.1434 27.1744C15.8789 27.4415 15.7865 27.8344 15.9044 28.1914L18.4447 35.8886L15.3611 42.5723C15.1297 43.0738 15.3487 43.6679 15.8502 43.8993C16.3517 44.1306 16.9458 43.9116 17.1772 43.4102L20.4259 36.3685C20.5321 36.1385 20.5469 35.8768 20.4675 35.6362L17.9956 28.1463L20.215 25.9047C20.7537 30.0326 22.2448 33 24 33C25.7586 33 27.2522 30.0208 27.7882 25.8801L30.0319 28.1462L27.56 35.6361C27.4806 35.8767 27.4954 36.1384 27.6015 36.3684L30.8499 43.41C31.0813 43.9115 31.6753 44.1305 32.1768 43.8992C32.6783 43.6679 32.8973 43.0738 32.666 42.5723L29.5827 35.8886L32.1231 28.1913C32.2409 27.8343 32.1486 27.4415 31.8841 27.1743L30.9843 26.2655L34.0903 28.3568L33.2117 34.4675C33.1571 34.8473 33.3247 35.2249 33.643 35.4393L37.6389 38.1298C38.0971 38.4383 38.7185 38.317 39.027 37.8588C39.3354 37.4007 39.2141 36.7793 38.756 36.4708L35.2807 34.1308L36.1592 28.0202C36.2138 27.6404 36.0463 27.2628 35.7279 27.0484L34.0243 25.9013C34.2268 25.9131 34.434 25.9191 34.6461 25.9191C41.6202 25.9191 42.3951 21.2735 41.9108 18.9507L30.1336 16.8967L31.8841 15.1287C32.0695 14.9415 32.1735 14.6886 32.1735 14.4251V10.8006L35.88 7.0571C36.2686 6.66464 36.2655 6.03148 35.873 5.6429C35.4805 5.25433 34.8474 5.25747 34.4588 5.64993L30.4629 9.68574C30.2775 9.87298 30.1735 10.1258 30.1735 10.3893V14.0138L27.7335 16.4782L27.2547 16.3947C26.7158 14.4187 25.9223 12.9539 25 12.3308V5.00854Z" fill="#333333"/>
</svg>
