<svg width="48" height="48" viewBox="0 0 48 48" fill="none" xmlns="http://www.w3.org/2000/svg">
<path fill-rule="evenodd" clip-rule="evenodd" d="M24.0391 6C19.5226 6 15.4068 7.49171 12.9723 8.71108C12.7529 8.82095 12.5472 8.92862 12.3561 9.03278C11.9779 9.2389 11.6568 9.43131 11.4001 9.6L14.1701 13.6776L15.4738 14.1967C20.5701 16.768 27.4044 16.768 32.5007 14.1967L33.9811 13.4286L36.6001 9.6C36.2163 9.34413 35.6856 9.03371 35.0324 8.70362C34.9926 8.68351 34.9524 8.66331 34.9117 8.64306C32.4877 7.43697 28.4719 6 24.0391 6ZM17.5968 10.6162C16.6 10.4322 15.6205 10.1786 14.6959 9.88754C16.9772 8.87454 20.377 7.8 24.0391 7.8C26.5764 7.8 28.9755 8.31593 30.9598 8.96919C28.6344 9.29746 26.1529 9.85159 23.789 10.5354C21.9289 11.0735 19.7548 11.0143 17.5968 10.6162ZM33.5567 15.68L33.3116 15.8037C27.7053 18.6324 20.2693 18.6324 14.6629 15.8037L14.4299 15.6861C6.00829 24.9274 -0.421944 41.9971 24.0391 41.9971C48.5001 41.9971 41.9131 24.6085 33.5567 15.68ZM23.0001 24C21.8956 24 21.0001 24.8954 21.0001 26C21.0001 27.1046 21.8956 28 23.0001 28V24ZM25.0001 22V21H23.0001V22C20.791 22 19.0001 23.7909 19.0001 26C19.0001 28.2091 20.791 30 23.0001 30V34C22.1309 34 21.3887 33.4449 21.1137 32.6668C20.9296 32.146 20.3583 31.8731 19.8376 32.0572C19.3169 32.2412 19.0439 32.8125 19.228 33.3332C19.7766 34.8855 21.2569 36 23.0001 36V37H25.0001V36C27.2093 36 29.0001 34.2091 29.0001 32C29.0001 29.7909 27.2093 28 25.0001 28V24C25.8694 24 26.6115 24.5551 26.8866 25.3332C27.0706 25.854 27.6419 26.1269 28.1627 25.9428C28.6834 25.7588 28.9563 25.1875 28.7723 24.6668C28.2236 23.1145 26.7433 22 25.0001 22ZM25.0001 30V34C26.1047 34 27.0001 33.1046 27.0001 32C27.0001 30.8954 26.1047 30 25.0001 30Z" fill="#333333"/>
</svg>
