<svg width="48" height="48" viewBox="0 0 48 48" fill="none" xmlns="http://www.w3.org/2000/svg">
<path fill-rule="evenodd" clip-rule="evenodd" d="M25 5.99854C25 5.44625 24.5523 4.99854 24 4.99854C23.4477 4.99854 23 5.44625 23 5.99854V10.5823C22.6771 10.9863 22.3935 11.5799 22.1692 12.31L21.0432 11.1743V9.19138C21.0432 8.92765 20.939 8.67459 20.7533 8.48731L18.3791 6.09268C17.9903 5.70049 17.3571 5.69778 16.9649 6.08663C16.5728 6.47547 16.57 7.10863 16.9589 7.50083L19.0432 9.60309V11.586C19.0432 11.8497 19.1474 12.1028 19.3331 12.2901L20.0853 13.0488L13.0691 14.2707C12.7813 15.649 13.2417 18.4054 17.3855 18.4054C17.4621 18.4054 17.5376 18.4041 17.6121 18.4015L17.111 18.7384C16.7923 18.9527 16.6245 19.3305 16.6792 19.7107L17.1646 23.0832L15.3117 24.3291C14.8533 24.6373 14.7316 25.2586 15.0398 25.717C15.348 26.1753 15.9693 26.297 16.4276 25.9888L18.8018 24.3924C19.1205 24.1781 19.2883 23.8002 19.2336 23.4201L18.7483 20.0476L19.0771 19.8265C19.0821 19.8451 19.0876 19.8636 19.0937 19.882L20.5526 24.2964L18.7879 28.1162C18.5563 28.6176 18.775 29.2118 19.2763 29.4434C19.7777 29.675 20.3719 29.4564 20.6035 28.955L22.5338 24.7769C22.6402 24.5466 22.6551 24.2845 22.5755 24.0437L21.1852 19.8368L21.862 19.1541C22.2462 21.2888 23.0593 22.761 24.0002 22.761C24.9411 22.761 25.7542 21.2889 26.1384 19.1543L26.8151 19.8368L25.4247 24.0437C25.3451 24.2845 25.36 24.5466 25.4664 24.7768L27.3965 28.955C27.6281 29.4563 28.2223 29.675 28.7236 29.4434C29.225 29.2118 29.4437 28.6176 29.2121 28.1162L27.4476 24.2965L28.9065 19.882C28.9126 19.8636 28.9181 19.8451 28.9231 19.8265L29.2519 20.0475L28.7664 23.42C28.7116 23.8002 28.8795 24.1781 29.1982 24.3924L31.5724 25.9888C32.0307 26.297 32.652 26.1753 32.9602 25.717C33.2684 25.2586 33.1467 24.6373 32.6884 24.3291L30.8355 23.0832L31.321 19.7107C31.3757 19.3306 31.2079 18.9527 30.8892 18.7384L30.3882 18.4015C30.4626 18.4041 30.538 18.4054 30.6145 18.4054C34.7583 18.4054 35.2187 15.649 34.9309 14.2707L27.9149 13.0488L28.6672 12.2901C28.8528 12.1028 28.957 11.8497 28.957 11.586V9.60309L31.0414 7.50083C31.4302 7.10863 31.4275 6.47547 31.0353 6.08663C30.6431 5.69778 30.0099 5.70049 29.6211 6.09268L27.2469 8.48731C27.0612 8.67459 26.957 8.92765 26.957 9.19138V11.1743L25.8312 12.3099C25.6067 11.5796 25.3231 10.9858 25 10.5817V5.99854Z" fill="#333333"/>
<path fill-rule="evenodd" clip-rule="evenodd" d="M24 28.0002C19.919 28.0002 16.2597 27.558 13.6511 26.8623C12.3394 26.5126 11.35 26.1134 10.7121 25.7112C10.0242 25.2775 10 25.0121 10 25.0002V25L10 25C9.99998 24.9929 9.99972 24.9045 10.1637 24.7249C10.3344 24.5378 10.6326 24.3116 11.0965 24.0694C12.0224 23.5861 13.4189 23.1364 15.1964 22.7804L14.8036 20.8193C12.9377 21.1931 11.3343 21.6892 10.171 22.2964C9.59029 22.5996 9.0716 22.9547 8.68664 23.3764C8.29653 23.8037 8.00005 24.3513 8 25V25.0002V29.667C8 30.4684 8.43861 31.1053 9 31.5945V39.3078C9 40.3634 9.79461 41.1094 10.5711 41.5936C11.4003 42.1106 12.5337 42.5396 13.8455 42.8855C16.4838 43.5813 20.0736 44 24 44C27.9264 44 31.5162 43.5813 34.1545 42.8855C35.4663 42.5396 36.5997 42.1106 37.4289 41.5936C38.2054 41.1094 39 40.3634 39 39.3078V31.5945C39.5614 31.1053 40 30.4684 40 29.667V25.0002C40 25.0001 40 25.0001 40 25C40 24.3513 39.7035 23.8037 39.3134 23.3764C38.9284 22.9547 38.4097 22.5996 37.829 22.2964C36.6657 21.6892 35.0623 21.1931 33.1964 20.8193L32.8036 22.7804C34.5811 23.1364 35.9776 23.5861 36.9035 24.0694C37.3674 24.3116 37.6656 24.5378 37.8363 24.7249C38.0003 24.9045 38 24.9929 38 25V25V25.0002C38 25.0121 37.9758 25.2775 37.2879 25.7112C36.65 26.1134 35.6606 26.5126 34.3489 26.8623C31.7403 27.558 28.081 28.0002 24 28.0002ZM38 27.612C37.1614 28.0752 36.0872 28.4687 34.8643 28.7948C32.044 29.5469 28.2033 30.0002 24 30.0002C19.7967 30.0002 15.956 29.5469 13.1357 28.7948C11.9128 28.4687 10.8386 28.0752 10 27.612V29.667C10 29.6789 10.0242 29.9444 10.7121 30.3781C11.35 30.7802 12.3394 31.1794 13.6511 31.5292C16.2597 32.2248 19.919 32.667 24 32.667C28.081 32.667 31.7403 32.2248 34.3489 31.5292C35.6606 31.1794 36.65 30.7802 37.2879 30.3781C37.9758 29.9444 38 29.6789 38 29.667V27.612ZM37 32.7549C36.3636 33.0183 35.6441 33.2537 34.8643 33.4617C32.044 34.2137 28.2033 34.667 24 34.667C19.7967 34.667 15.956 34.2137 13.1357 33.4617C12.3558 33.2537 11.6364 33.0183 11 32.7549V39.3044L11.0001 39.3041L11.0006 39.3059C11.0066 39.3279 11.065 39.5446 11.6293 39.8964C12.2169 40.2628 13.1338 40.6294 14.3555 40.9516C16.7842 41.5922 20.1944 42 24 42C27.8056 42 31.2158 41.5922 33.6445 40.9516C34.8662 40.6294 35.7831 40.2628 36.3707 39.8964C36.9349 39.5446 36.9934 39.3279 36.9994 39.3059L36.9999 39.3041L37 39.3044V32.7549Z" fill="#333333"/>
</svg>
