<svg width="48" height="48" viewBox="0 0 48 48" fill="none" xmlns="http://www.w3.org/2000/svg">
<path fill-rule="evenodd" clip-rule="evenodd" d="M35 12C37.2091 12 39 10.2091 39 8C39 5.79086 37.2091 4 35 4C32.7908 4 31 5.79086 31 8C31 10.2091 32.7908 12 35 12ZM15.5018 13.5088C15.5384 13.5088 15.5748 13.5094 15.611 13.5107H17.5657C18.0959 13.5107 18.5868 13.7907 18.8567 14.2471L25.3567 25.2364C25.7785 25.9494 25.5424 26.8693 24.8293 27.2911C24.1163 27.7128 23.1964 27.4767 22.7746 26.7636L18.4825 19.5072V42.3928C18.4825 43.2918 17.747 44.0274 16.848 44.0274C15.9489 44.0274 15.2134 43.2918 15.2134 42.3928V30.22H10.9442V42.3928C10.9442 43.2918 10.2087 44.0274 9.30966 44.0274C8.41064 44.0274 7.67508 43.2918 7.67508 42.3928V24.2442C6.77607 24.2442 4 22.533 4 18.3193C4 15.1434 6.77607 13.5088 7.67508 13.5088H15.5018ZM8.99999 8C8.99999 10.2091 10.7908 12 13 12C15.2091 12 17 10.2091 17 8C17 5.79086 15.2091 4 13 4C10.7908 4 8.99999 5.79086 8.99999 8ZM29.5831 19.5072L26.3474 24.9778C26.3092 24.8929 26.2659 24.8092 26.2174 24.7273L24.6137 22.016L29.2089 14.2471C29.4789 13.7907 29.9697 13.5107 30.5 13.5107H32.4546C32.4909 13.5094 32.5273 13.5088 32.5638 13.5088H40.3906C41.2896 13.5088 44.0657 15.1434 44.0657 18.3193C44.0657 22.533 41.2896 24.2442 40.3906 24.2442V42.3928C40.3906 43.2918 39.655 44.0274 38.756 44.0274C37.857 44.0274 37.1214 43.2918 37.1214 42.3928V30.22H32.8523V42.3928C32.8523 43.2918 32.1167 44.0274 31.2177 44.0274C30.3187 44.0274 29.5831 43.2918 29.5831 42.3928V19.5072Z" fill="#333333"/>
</svg>
