<svg width="48" height="48" viewBox="0 0 48 48" fill="none" xmlns="http://www.w3.org/2000/svg">
<path fill-rule="evenodd" clip-rule="evenodd" d="M28.0002 8.00181C28.0002 9.19532 27.4779 10.2668 26.6495 11C26.6477 10.1788 26.2417 9.37534 25.4991 8.89894C24.337 8.15341 22.7905 8.49113 22.045 9.65326L21.2439 10.902C20.4776 10.173 20 9.14321 20 8.00181C20 5.79167 21.7909 4 24.0001 4C26.2093 4 28.0002 5.79167 28.0002 8.00181ZM24.85 9.76386C24.1673 9.29453 23.2334 9.46747 22.7641 10.1501L20.7974 13.0107H19.5001C18.7973 13.0107 18.1888 13.4986 18.036 14.1846L17.036 18.6738C16.8799 19.3749 17.2427 20.0884 17.9013 20.3752C18.5598 20.662 19.3293 20.4416 19.7362 19.8497L25.2362 11.8497C25.7056 11.1671 25.5326 10.2332 24.85 9.76386ZM20.568 20.4158C20.099 21.098 19.3517 21.4747 18.5832 21.4985V43.3724C18.5832 44.2714 19.3188 45.0069 20.2178 45.0069C21.1168 45.0069 21.8524 44.2714 21.8524 43.3724V30.7204H26.1215V43.3724C26.1215 44.2714 26.8571 45.0069 27.7561 45.0069C28.6551 45.0069 29.3907 44.2714 29.3907 43.3724V24.4995H25.0001C23.6194 24.4995 22.5001 23.3802 22.5001 21.9995C22.5001 20.6188 23.6194 19.4995 25.0001 19.4995H29.0001V20.4995H25.0001C24.1717 20.4995 23.5001 21.1711 23.5001 21.9995C23.5001 22.8279 24.1717 23.4995 25.0001 23.4995H30.1845C31.355 22.8932 33.0658 21.1276 33.0658 17.8197C33.0658 14.6438 30.2897 13.0093 29.3907 13.0093H25.66L20.568 20.4158Z" fill="#333333"/>
</svg>
