<svg width="48" height="48" viewBox="0 0 48 48" fill="none" xmlns="http://www.w3.org/2000/svg">
<path d="M22.3838 16.8074C22.1589 16.6002 21.9785 16.3503 21.8534 16.0726C21.7282 15.7949 21.661 15.4952 21.6555 15.1913C21.6501 14.8873 21.7067 14.5854 21.8218 14.3035C21.9369 14.0217 22.1083 13.7656 22.3257 13.5507C22.5431 13.3357 22.802 13.1663 23.0871 13.0524C23.3721 12.9386 23.6774 12.8827 23.9848 12.888C24.2922 12.8934 24.5953 12.9599 24.8761 13.0837C25.1569 13.2074 25.4097 13.3858 25.6193 13.6082C26.0236 14.0373 26.2438 14.6048 26.2333 15.1913C26.2228 15.7777 25.9826 16.3372 25.5632 16.7519C25.1437 17.1667 24.5779 17.4042 23.9848 17.4146C23.3917 17.4249 22.8178 17.2073 22.3838 16.8074ZM13.7473 5.07129L15.9068 7.20664C13.7605 9.32916 12.5547 12.2078 12.5547 15.2093C12.5547 18.2108 13.7605 21.0894 15.9068 23.2119L13.7473 25.3473C12.4007 24.016 11.3326 22.4355 10.6038 20.696C9.87508 18.9565 9.5 17.0921 9.5 15.2093C9.5 13.3265 9.87508 11.4621 10.6038 9.72256C11.3326 7.98307 12.4007 6.40256 13.7473 5.07129ZM34.2527 5.07129C35.5993 6.40256 36.6674 7.98307 37.3962 9.72256C38.1249 11.4621 38.5 13.3265 38.5 15.2093C38.5 17.0921 38.1249 18.9565 37.3962 20.696C36.6674 22.4355 35.5993 24.016 34.2527 25.3473L32.0932 23.2119C34.2395 21.0894 35.4453 18.2108 35.4453 15.2093C35.4453 12.2078 34.2395 9.32916 32.0932 7.20664L34.2527 5.07129ZM18.0648 9.33897L20.2228 11.4728C19.7267 11.9633 19.3332 12.5456 19.0647 13.1864C18.7962 13.8273 18.6581 14.5141 18.6581 15.2078C18.6581 15.9014 18.7962 16.5883 19.0647 17.2292C19.3332 17.87 19.7267 18.4523 20.2228 18.9428L18.0648 21.0766C16.4907 19.5201 15.6064 17.409 15.6064 15.2078C15.6064 13.0066 16.4907 10.8955 18.0648 9.33897ZM29.9352 9.33897C31.5093 10.8955 32.3936 13.0066 32.3936 15.2078C32.3936 17.409 31.5093 19.5201 29.9352 21.0766L27.7772 18.9428C28.2733 18.4523 28.6668 17.87 28.9353 17.2292C29.2038 16.5883 29.3419 15.9014 29.3419 15.2078C29.3419 14.5141 29.2038 13.8273 28.9353 13.1864C28.6668 12.5456 28.2733 11.9633 27.7772 11.4728L29.9352 9.33897Z" fill="#333333"/>
<path fill-rule="evenodd" clip-rule="evenodd" d="M12 27.0713C10.3431 27.0713 9 28.4144 9 30.0713V40.0713C9 41.7281 10.3431 43.0713 12 43.0713H36C37.6569 43.0713 39 41.7281 39 40.0713V30.0713C39 28.4144 37.6569 27.0713 36 27.0713H12ZM30.4771 39.8457C31.1515 39.5996 31.6733 39.2555 32.0425 38.8135V34.8418H28.1255V36.3525H29.9917V38.0684C29.6636 38.3965 29.1144 38.5605 28.3442 38.5605C27.5786 38.5605 26.9976 38.2939 26.6011 37.7607C26.2046 37.2275 26.0063 36.4391 26.0063 35.3955V34.7598C26.0109 33.7253 26.1955 32.946 26.5601 32.4219C26.9246 31.8978 27.4556 31.6357 28.1528 31.6357C28.6997 31.6357 29.1281 31.7679 29.438 32.0322C29.7524 32.2965 29.9552 32.7135 30.0464 33.2832H32.0425C31.9194 32.2077 31.5252 31.3896 30.8599 30.8291C30.1945 30.264 29.2716 29.9814 28.0913 29.9814C27.2437 29.9814 26.5031 30.1751 25.8696 30.5625C25.2407 30.9453 24.7576 31.5013 24.4204 32.2305C24.0877 32.9551 23.9214 33.8141 23.9214 34.8076V35.4844C23.9305 36.4505 24.1105 37.2913 24.4614 38.0068C24.8169 38.7223 25.3182 39.2692 25.9653 39.6475C26.617 40.0212 27.3735 40.208 28.2349 40.208C29.0552 40.208 29.8026 40.0872 30.4771 39.8457ZM16.7847 30.1182L16.2104 35.1768L17.7827 35.5664L17.9741 35.3887C18.2658 35.1426 18.6463 35.0195 19.1157 35.0195C19.6261 35.0195 20.0203 35.1699 20.2983 35.4707C20.5763 35.7715 20.7153 36.2044 20.7153 36.7695C20.7153 37.3574 20.5946 37.8132 20.353 38.1367C20.1115 38.4557 19.7674 38.6152 19.3208 38.6152C18.9198 38.6152 18.5939 38.5013 18.3433 38.2734C18.0972 38.041 17.9536 37.7174 17.9126 37.3027H15.9575C15.9757 37.8678 16.133 38.3714 16.4292 38.8135C16.73 39.2555 17.1379 39.5996 17.6528 39.8457C18.1678 40.0872 18.7261 40.208 19.3276 40.208C20.0158 40.208 20.6128 40.069 21.1187 39.791C21.6245 39.5085 22.0119 39.1143 22.2808 38.6084C22.5542 38.098 22.6909 37.5215 22.6909 36.8789C22.6909 35.8216 22.422 34.999 21.8843 34.4111C21.3465 33.8232 20.6037 33.5293 19.6558 33.5293C19.1271 33.5293 18.6281 33.6546 18.1587 33.9053L18.4048 31.7656H22.3628V30.1182H16.7847Z" fill="#333333"/>
<path fill-rule="evenodd" clip-rule="evenodd" d="M33.5425 39.3574L33.1938 39.7749C32.6184 40.464 31.8532 40.9403 30.9912 41.2548L30.9828 41.2579C30.6026 41.394 30.2101 41.4978 29.8067 41.5713H36C36.8284 41.5713 37.5 40.8997 37.5 40.0713V30.0713C37.5 29.2429 36.8284 28.5713 36 28.5713H29.2869C30.2352 28.7218 31.1052 29.0703 31.8286 29.6839C32.8526 30.5477 33.3774 31.7552 33.5328 33.1127L33.7239 34.7832H33.5425V39.3574ZM31.6148 31.7832C31.8343 32.2101 31.9769 32.7101 32.0425 33.2832H30.0464C29.9552 32.7135 29.7524 32.2965 29.438 32.0322C29.1281 31.7679 28.6997 31.6357 28.1528 31.6357C27.4556 31.6357 26.9246 31.8978 26.5601 32.4219C26.1955 32.946 26.0109 33.7253 26.0063 34.7598V35.3955C26.0063 36.4391 26.2046 37.2275 26.6011 37.7607C26.6091 37.7716 26.6173 37.7823 26.6255 37.7929C26.6412 37.8132 26.6571 37.8331 26.6733 37.8525C27.0669 38.3245 27.6239 38.5605 28.3442 38.5605C29.1144 38.5605 29.6636 38.3965 29.9917 38.0684V36.3525H28.1255V34.8418H32.0425V38.8135C31.6733 39.2555 31.1515 39.5996 30.4771 39.8457C29.8026 40.0872 29.0552 40.208 28.2349 40.208C27.3735 40.208 26.617 40.0212 25.9653 39.6475C25.3182 39.2692 24.8169 38.7223 24.4614 38.0068C24.3492 37.7779 24.2544 37.5362 24.1771 37.2817C24.1374 37.1508 24.1023 37.0165 24.0718 36.8789C23.9762 36.4474 23.9261 35.9825 23.9214 35.4844V34.8076C23.9214 33.8141 24.0877 32.9551 24.4204 32.2305C24.7576 31.5013 25.2407 30.9453 25.8696 30.5625C26.5031 30.1751 27.2437 29.9814 28.0913 29.9814C29.2716 29.9814 30.1945 30.264 30.8599 30.8291C31.1707 31.0909 31.4223 31.409 31.6148 31.7832ZM25.0897 29.2812C25.6819 28.9196 26.3251 28.6877 27.0042 28.5713H12C11.1716 28.5713 10.5 29.2429 10.5 30.0713V40.0713C10.5 40.8997 11.1716 41.5713 12 41.5713H18.0855C17.7187 41.4879 17.3614 41.3658 17.0159 41.2037L17.0061 41.1991C16.2684 40.8467 15.6492 40.3335 15.189 39.6573L15.1831 39.6485C14.7206 38.9583 14.485 38.1786 14.4583 37.3511L14.4084 35.8027H14.6298L15.4453 28.6182H23.8628V30.33C24.2097 29.9207 24.6183 29.5681 25.0897 29.2812ZM18.4048 31.7656H22.3628V30.1182H16.7847L16.2104 35.1768L17.7827 35.5664L17.9741 35.3887C18.1898 35.2067 18.4541 35.092 18.7671 35.0446C18.8772 35.0279 18.9935 35.0195 19.1157 35.0195C19.2304 35.0195 19.3392 35.0271 19.4421 35.0423C19.7974 35.0947 20.0828 35.2375 20.2983 35.4707C20.5763 35.7715 20.7153 36.2044 20.7153 36.7695C20.7153 37.3574 20.5946 37.8132 20.353 38.1367C20.1115 38.4557 19.7674 38.6152 19.3208 38.6152C18.9198 38.6152 18.5939 38.5013 18.3433 38.2734C18.0972 38.041 17.9536 37.7174 17.9126 37.3027H15.9575C15.9756 37.8633 16.1304 38.3633 16.422 38.8027C16.4244 38.8063 16.4268 38.8099 16.4292 38.8135C16.73 39.2555 17.1379 39.5996 17.6528 39.8457C18.1678 40.0872 18.7261 40.208 19.3276 40.208C20.0158 40.208 20.6128 40.069 21.1187 39.791C21.6245 39.5085 22.0119 39.1143 22.2808 38.6084C22.476 38.244 22.6015 37.8459 22.6574 37.4141C22.6797 37.2411 22.6909 37.0627 22.6909 36.8789C22.6909 36.3626 22.6268 35.9022 22.4985 35.4978C22.4971 35.4933 22.4957 35.4888 22.4942 35.4844C22.4719 35.4148 22.4476 35.3469 22.4214 35.2807C22.2902 34.949 22.1112 34.6592 21.8843 34.4111C21.3572 33.8349 20.633 33.541 19.7118 33.5296C19.6932 33.5294 19.6745 33.5293 19.6558 33.5293C19.5906 33.5293 19.5259 33.5312 19.4616 33.535C19.3448 33.5419 19.2295 33.5551 19.1157 33.5746C18.7841 33.6315 18.4651 33.7417 18.1587 33.9053L18.4048 31.7656ZM23.5522 39.4094C23.1483 40.1272 22.5725 40.6971 21.8501 41.1006L21.8411 41.1056C21.4493 41.3209 21.0343 41.4735 20.6029 41.5713H26.8687C26.2889 41.4498 25.7362 41.2452 25.2192 40.9487L25.2084 40.9425C24.5393 40.5514 23.9871 40.0337 23.5522 39.4094ZM27.7524 33.3418H28.528C28.5023 33.2466 28.4771 33.1969 28.4643 33.176C28.4592 33.1739 28.4519 33.1712 28.4421 33.1682C28.3986 33.1548 28.3081 33.1357 28.1528 33.1357C27.9938 33.1357 27.9209 33.1648 27.8956 33.1774C27.8752 33.1874 27.8406 33.2078 27.7914 33.2785C27.779 33.2964 27.7659 33.3174 27.7524 33.3418ZM28.4745 33.1807C28.4744 33.1807 28.474 33.1805 28.4733 33.1801L28.4745 33.1807ZM9 30.0713C9 28.4144 10.3431 27.0713 12 27.0713H36C37.6569 27.0713 39 28.4144 39 30.0713V40.0713C39 41.7281 37.6569 43.0713 36 43.0713H12C10.3431 43.0713 9 41.7281 9 40.0713V30.0713Z" fill="#333333"/>
</svg>
