<svg width="48" height="48" viewBox="0 0 48 48" fill="none" xmlns="http://www.w3.org/2000/svg">
<path d="M22.3838 16.7361C22.1589 16.5289 21.9785 16.279 21.8534 16.0013C21.7282 15.7236 21.661 15.4239 21.6555 15.12C21.6501 14.816 21.7067 14.5141 21.8218 14.2323C21.9369 13.9504 22.1083 13.6944 22.3257 13.4794C22.5431 13.2645 22.802 13.095 23.0871 12.9812C23.3721 12.8673 23.6774 12.8114 23.9848 12.8168C24.2922 12.8221 24.5953 12.8886 24.8761 13.0124C25.1569 13.1361 25.4097 13.3145 25.6193 13.5369C26.0236 13.966 26.2438 14.5335 26.2333 15.12C26.2228 15.7064 25.9826 16.2659 25.5632 16.6807C25.1437 17.0954 24.5779 17.333 23.9848 17.3433C23.3917 17.3536 22.8178 17.136 22.3838 16.7361ZM13.7473 5L15.9068 7.13535C13.7605 9.25787 12.5547 12.1365 12.5547 15.138C12.5547 18.1395 13.7605 21.0181 15.9068 23.1407L13.7473 25.276C12.4007 23.9447 11.3326 22.3642 10.6038 20.6247C9.87508 18.8852 9.5 17.0208 9.5 15.138C9.5 13.2552 9.87508 11.3908 10.6038 9.65127C11.3326 7.91178 12.4007 6.33127 13.7473 5ZM34.2527 5C35.5993 6.33127 36.6674 7.91178 37.3962 9.65127C38.1249 11.3908 38.5 13.2552 38.5 15.138C38.5 17.0208 38.1249 18.8852 37.3962 20.6247C36.6674 22.3642 35.5993 23.9447 34.2527 25.276L32.0932 23.1407C34.2395 21.0181 35.4453 18.1395 35.4453 15.138C35.4453 12.1365 34.2395 9.25787 32.0932 7.13535L34.2527 5ZM18.0648 9.26768L20.2228 11.4015C19.7267 11.892 19.3332 12.4743 19.0647 13.1151C18.7962 13.756 18.6581 14.4428 18.6581 15.1365C18.6581 15.8302 18.7962 16.517 19.0647 17.1579C19.3332 17.7987 19.7267 18.381 20.2228 18.8715L18.0648 21.0053C16.4907 19.4488 15.6064 17.3377 15.6064 15.1365C15.6064 12.9353 16.4907 10.8242 18.0648 9.26768ZM29.9352 9.26768C31.5093 10.8242 32.3936 12.9353 32.3936 15.1365C32.3936 17.3377 31.5093 19.4488 29.9352 21.0053L27.7772 18.8715C28.2733 18.381 28.6668 17.7987 28.9353 17.1579C29.2038 16.517 29.3419 15.8302 29.3419 15.1365C29.3419 14.4428 29.2038 13.756 28.9353 13.1151C28.6668 12.4743 28.2733 11.892 27.7772 11.4015L29.9352 9.26768Z" fill="#333333"/>
<path fill-rule="evenodd" clip-rule="evenodd" d="M12 27C10.3431 27 9 28.3431 9 30V40C9 41.6569 10.3431 43 12 43H36C37.6569 43 39 41.6569 39 40V30C39 28.3431 37.6569 27 36 27H12ZM30.578 39.7744C31.2525 39.5283 31.7743 39.1842 32.1434 38.7422V34.7705H28.2264V36.2812H30.0927V37.9971C29.7645 38.3252 29.2154 38.4893 28.4452 38.4893C27.6796 38.4893 27.0985 38.2227 26.702 37.6895C26.3055 37.1562 26.1073 36.3678 26.1073 35.3242V34.6885C26.1119 33.654 26.2964 32.8747 26.661 32.3506C27.0256 31.8265 27.5565 31.5645 28.2538 31.5645C28.8007 31.5645 29.229 31.6966 29.5389 31.9609C29.8534 32.2253 30.0562 32.6423 30.1473 33.2119H32.1434C32.0204 32.1364 31.6262 31.3184 30.9608 30.7578C30.2955 30.1927 29.3726 29.9102 28.1923 29.9102C27.3446 29.9102 26.604 30.1038 25.9706 30.4912C25.3417 30.874 24.8586 31.43 24.5214 32.1592C24.1887 32.8838 24.0223 33.7428 24.0223 34.7363V35.4131C24.0315 36.3792 24.2115 37.2201 24.5624 37.9355C24.9178 38.651 25.4191 39.1979 26.0663 39.5762C26.718 39.9499 27.4745 40.1367 28.3358 40.1367C29.1561 40.1367 29.9035 40.016 30.578 39.7744ZM22.9901 36.2539H21.8622V30.0469H19.8661L15.7167 36.6025L15.8055 37.8467H19.8866V40H21.8622V37.8467H22.9901V36.2539ZM19.8866 36.2539H17.6854L19.7567 32.9658L19.8866 32.7402V36.2539Z" fill="#333333"/>
<path fill-rule="evenodd" clip-rule="evenodd" d="M33.6434 39.2861L33.2948 39.7036C32.7194 40.3927 31.9542 40.869 31.0921 41.1835L31.0837 41.1866C30.7036 41.3227 30.3111 41.4266 29.9077 41.5H36C36.8284 41.5 37.5 40.8284 37.5 40V30C37.5 29.1716 36.8284 28.5 36 28.5H29.3878C30.3361 28.6505 31.2061 28.999 31.9296 29.6126C32.9536 30.4764 33.4784 31.6839 33.6337 33.0414L33.8248 34.7119H33.6434V39.2861ZM31.7157 31.7119C31.9353 32.1388 32.0779 32.6388 32.1434 33.2119H30.1473C30.0562 32.6423 29.8534 32.2253 29.5389 31.9609C29.229 31.6966 28.8007 31.5645 28.2538 31.5645C27.5565 31.5645 27.0256 31.8265 26.661 32.3506C26.2964 32.8747 26.1119 33.654 26.1073 34.6885V35.3242C26.1073 36.3678 26.3055 37.1562 26.702 37.6895C26.7101 37.7003 26.7182 37.711 26.7264 37.7216C26.7421 37.7419 26.7581 37.7618 26.7743 37.7812C27.1679 38.2533 27.7248 38.4893 28.4452 38.4893C29.2154 38.4893 29.7645 38.3252 30.0927 37.9971V36.2812H28.2264V34.7705H32.1434V38.7422C31.7743 39.1842 31.2525 39.5283 30.578 39.7744C29.9035 40.016 29.1561 40.1367 28.3358 40.1367C27.4745 40.1367 26.718 39.9499 26.0663 39.5762C25.4191 39.1979 24.9178 38.651 24.5624 37.9355C24.5374 37.8847 24.5133 37.8332 24.4901 37.781C24.2853 37.3212 24.1477 36.8122 24.0773 36.2539C24.0434 35.9851 24.0251 35.7048 24.0223 35.4131V34.7363C24.0223 33.7428 24.1887 32.8838 24.5214 32.1592C24.8586 31.43 25.3417 30.874 25.9706 30.4912C26.604 30.1038 27.3446 29.9102 28.1923 29.9102C29.3726 29.9102 30.2955 30.1927 30.9608 30.7578C31.2716 31.0197 31.5233 31.3377 31.7157 31.7119ZM25.1907 29.2099C25.7828 28.8483 26.4261 28.6164 27.1052 28.5H21.3866V28.5469H23.3622V31.1314C23.8035 30.3383 24.4113 29.6843 25.1907 29.2099ZM21.8622 36.2539V30.0469H19.8661L15.7167 36.6025L15.8055 37.8467H19.8866V40H21.8622V37.8467H22.9901V36.2539H21.8622ZM19.8866 36.2539V32.7402L19.7567 32.9658L17.6854 36.2539H19.8866ZM23.3622 39.3467V41.5H26.9696C26.3899 41.3785 25.8371 41.1739 25.3201 40.8774L25.3093 40.8712C24.6433 40.4819 24.0931 39.9671 23.6592 39.3467H23.3622ZM18.3866 39.3467V41.5H12C11.1716 41.5 10.5 40.8284 10.5 40V30C10.5 29.1716 11.1716 28.5 12 28.5H20.5971L20.5701 28.5469H19.0403L14.1853 36.2172L14.4089 39.3467H18.3866ZM27.8534 33.2705H28.6289C28.6032 33.1753 28.578 33.1256 28.5653 33.1047C28.5601 33.1026 28.5529 33.0999 28.543 33.0969C28.4995 33.0835 28.409 33.0645 28.2538 33.0645C28.0947 33.0645 28.0219 33.0936 27.9965 33.1061C27.9761 33.1161 27.9415 33.1365 27.8924 33.2072C27.8799 33.2251 27.8668 33.2461 27.8534 33.2705ZM28.5754 33.1095C28.5754 33.1095 28.575 33.1093 28.5743 33.1088L28.5754 33.1095ZM9 30C9 28.3431 10.3431 27 12 27H36C37.6569 27 39 28.3431 39 30V40C39 41.6569 37.6569 43 36 43H12C10.3431 43 9 41.6569 9 40V30Z" fill="#333333"/>
</svg>
