<svg width="48" height="48" viewBox="0 0 48 48" fill="none" xmlns="http://www.w3.org/2000/svg">
<path fill-rule="evenodd" clip-rule="evenodd" d="M8.05734 16.1283C7.85577 15.9741 7.67437 15.8113 7.51812 15.6413C5.92088 13.9033 5.48774 11.5536 6.55066 10.3932C7.0776 9.81791 7.87329 9.6429 8.73637 9.82443C9.2995 9.94287 9.89133 10.2131 10.4559 10.623C10.7023 9.98522 11.0566 9.4413 11.4845 9.0393C11.9891 8.56531 12.5961 8.28864 13.2493 8.2881C13.9678 8.28751 14.631 8.6211 15.1638 9.1841C15.4846 9.52317 15.7583 9.94545 15.9682 10.4281C16.4344 10.1305 16.9128 9.92717 17.373 9.82476C18.249 9.62981 19.0591 9.80044 19.594 10.3825C20.6588 11.5412 20.2295 13.8915 18.6351 15.6322C18.4793 15.8023 18.2976 15.9653 18.096 16.1197C19.164 16.66 19.829 17.8485 19.609 19.1174L18.5444 25.2579C18.4649 25.2365 18.3813 25.2251 18.295 25.2252L13.5582 25.229C13.035 25.2295 12.6111 25.6512 12.6116 26.171C12.612 26.6908 13.0365 27.1118 13.5597 27.1114L18.2237 27.1076L16.4214 37.5033C16.1426 39.1114 14.7393 40.2869 13.0968 40.2882C11.4543 40.2896 10.0492 39.1164 9.76773 37.5088L8.77179 31.8196C8.78996 31.8206 8.80828 31.8212 8.82671 31.8211L10.7215 31.8196C11.2447 31.8192 11.6685 31.3974 11.6681 30.8776C11.6676 30.3578 11.2431 29.9368 10.7199 29.9372L8.82517 29.9388C8.69403 29.9389 8.56913 29.9655 8.45559 30.0134L7.28941 23.3518L11.6619 23.3482C12.1851 23.3478 12.6089 22.9261 12.6085 22.4063C12.6081 21.8865 12.1836 21.4655 11.6603 21.4659L6.95993 21.4697L6.55 19.1281C6.32799 17.8599 6.99066 16.6705 8.05734 16.1283ZM14.2291 11.175L15.1147 13.2103L16.9924 12.0117C17.444 11.7235 17.8118 11.6351 18.0259 11.6302C18.1268 11.6279 18.1765 11.6439 18.1892 11.6488L18.1945 11.651C18.1969 11.6536 18.2347 11.6951 18.2614 11.8243C18.2894 11.9602 18.299 12.1711 18.2475 12.453C18.143 13.0248 17.8141 13.7317 17.2338 14.3653C16.9303 14.6966 16.2844 15.1044 15.4207 15.4184C14.6639 15.6936 13.9716 15.8129 13.5329 15.8173L13.4873 15.8173C13.4458 15.817 13.4068 15.8155 13.3706 15.813L13.2487 15.8044L13.1269 15.8115C13.0595 15.8155 12.9896 15.8175 12.9176 15.8178L12.8954 15.8178C12.2773 15.8167 11.5003 15.6822 10.7375 15.4155C9.85638 15.1074 9.22147 14.703 8.9174 14.3721C8.33604 13.7395 8.00596 13.0332 7.90057 12.4615C7.84862 12.1797 7.85788 11.9687 7.88566 11.8328C7.91208 11.7035 7.94958 11.6627 7.95197 11.6601C7.95197 11.6601 7.95389 11.6585 7.96097 11.656C7.97952 11.6494 8.04268 11.6321 8.16508 11.6403C8.423 11.6578 8.8462 11.7858 9.33798 12.1428L11.3375 13.5944L12.2249 11.2974C12.4007 10.8422 12.6326 10.536 12.8358 10.3627C13.0296 10.1973 13.1691 10.1705 13.2509 10.1705C13.3685 10.1704 13.8425 10.2866 14.2291 11.175Z" fill="#333333"/>
<path fill-rule="evenodd" clip-rule="evenodd" d="M21.7356 22.7346C22.8635 21.3316 24.5721 20.5141 26.3794 20.5126C27.4577 20.5117 28.5159 20.802 29.4409 21.3524L30.5907 22.0364L31.014 22.2463L31.9888 21.5995C34.0207 20.2513 36.6527 20.187 38.7489 21.4341C40.125 22.2529 41.1365 23.5606 41.5784 25.0925L41.695 25.4966C41.8843 26.1528 41.9806 26.8319 41.9811 27.5145L41.9815 27.957C41.9832 30.031 41.3669 32.0591 40.2103 33.7857L39.7576 34.4615C38.5312 36.2923 36.7556 37.7024 34.6919 38.4929C32.3893 39.3749 29.8393 39.4386 27.4955 38.6646C25.7789 38.0977 24.2361 37.1055 23.0126 35.7818L22.4755 35.2005C20.3983 32.9531 19.4782 29.8809 19.9806 26.8709L19.9995 26.7574C20.1498 25.8574 20.4346 24.9847 20.8447 24.1684L20.991 23.877C21.1834 23.4939 21.416 23.1322 21.6849 22.7976L21.7356 22.7346ZM26.3809 22.395C25.1492 22.396 23.9848 22.9531 23.2161 23.9093L23.1654 23.9723C22.9798 24.2032 22.8192 24.453 22.6864 24.7174L22.5401 25.0088C22.2144 25.6573 21.9881 26.3504 21.8688 27.0654L21.8498 27.1788C21.4428 29.6175 22.1883 32.1066 23.8711 33.9274L24.4083 34.5087C25.414 35.5968 26.6822 36.4123 28.0932 36.8783C30.018 37.514 32.1158 37.4622 34.0103 36.7366C35.71 36.0855 37.172 34.9238 38.1803 33.4186L38.6329 32.7429C39.5823 31.3256 40.0881 29.6609 40.0868 27.9585L40.0864 27.5161C40.086 27.0084 40.0143 26.5033 39.8736 26.0152L39.757 25.6111C39.4475 24.5383 38.7391 23.6224 37.7754 23.049C36.3074 22.1756 34.4641 22.2207 33.0411 23.1649L31.8898 23.9287C31.4335 24.2314 30.8489 24.2681 30.3579 24.0247L29.6796 23.6885L28.4674 22.9673C27.837 22.5922 27.1158 22.3944 26.3809 22.395Z" fill="#333333"/>
<path fill-rule="evenodd" clip-rule="evenodd" d="M32.6163 16.066C33.0246 15.7409 33.0903 15.1486 32.7631 14.743C32.436 14.3373 31.8397 14.272 31.4314 14.5971C30.1869 15.5878 29.6687 17.2274 29.5428 18.8111C29.4403 20.1004 29.585 21.4795 29.9102 22.7287L28.9541 22.1598C28.1763 21.6971 27.2866 21.453 26.38 21.4538C24.8606 21.455 23.4241 22.1424 22.4759 23.3219L22.4252 23.385C22.1979 23.6677 22.0013 23.9735 21.8387 24.2972L21.6923 24.5886C21.3244 25.321 21.0688 26.1039 20.9341 26.9114L20.9151 27.0249C20.4604 29.7492 21.2932 32.5299 23.1732 34.564L23.7104 35.1452C24.8249 36.3512 26.2304 37.255 27.7942 37.7714C29.9285 38.4763 32.2524 38.4186 34.351 37.6147C36.2327 36.894 37.8515 35.608 38.9688 33.9401L39.4215 33.2643C40.4745 31.6924 41.0356 29.846 41.034 27.9578L41.0337 27.5153C41.0332 26.9202 40.9493 26.328 40.7843 25.7559L40.6677 25.3518C40.292 24.0494 39.432 22.9377 38.2621 22.2416C36.4799 21.1813 34.2423 21.236 32.5148 22.3822L31.8994 22.7905C31.5173 21.6039 31.332 20.2125 31.4317 18.9593C31.5402 17.5942 31.9673 16.5826 32.6163 16.066ZM36.98 27.0995C37.4991 27.0344 37.973 27.3997 38.0385 27.9154C38.14 28.7152 38.029 29.9124 37.4015 31.0481C36.7551 32.2182 35.5859 33.2733 33.6798 33.7565C33.1729 33.885 32.657 33.5809 32.5276 33.0773C32.3983 32.5736 32.7044 32.0611 33.2114 31.9326C34.6099 31.5781 35.3469 30.8549 35.7406 30.1424C36.1532 29.3956 36.2164 28.606 36.1586 28.151C36.0931 27.6353 36.4609 27.1645 36.98 27.0995Z" fill="#333333"/>
<path d="M32.5009 19.5664C32.4988 16.9674 34.6178 14.8588 37.2339 14.8567C37.236 17.4556 35.117 19.5643 32.5009 19.5664Z" fill="#333333"/>
</svg>
