<svg width="48" height="48" viewBox="0 0 48 48" fill="none" xmlns="http://www.w3.org/2000/svg">
<path fill-rule="evenodd" clip-rule="evenodd" d="M7.06462 17.3875C5.94291 16.3609 5.17698 14.6951 5.02686 12.004C4.9961 11.4526 5.45167 10.9984 6.00387 11.0081C7.679 11.0374 8.96183 11.152 9.94146 11.4409C10.3613 10.3524 11.1987 9.32451 12.4535 8.3855C12.7768 8.14364 13.2229 8.14364 13.5461 8.3855C14.8113 9.3322 15.6521 10.3692 16.0685 11.4676C17.0772 11.1285 18.3703 11.0296 19.9985 11.0062C20.5507 10.9983 21.0036 11.4526 20.9729 12.004C20.8228 14.6951 20.0568 16.3609 18.9352 17.3875C19.4829 17.7954 19.8004 18.4801 19.6838 19.2204C19.4067 20.98 18.9284 23.6894 18.1759 26.9999H11.9998V28.9999H17.7044C16.9536 32.0755 15.9839 35.5553 14.7471 39.209C14.1641 40.9314 11.8357 40.9314 11.2527 39.209C10.7671 37.7745 10.3227 36.3669 9.91658 34.9999H11.9998V32.9999H9.34072C8.39501 29.6086 7.69106 26.5303 7.1797 23.9999H10.9998V21.9999H6.79279C6.5925 20.9153 6.43552 19.9795 6.31599 19.2204C6.19941 18.4801 6.51693 17.7954 7.06462 17.3875ZM14.1983 12.1766L14.8808 13.9768L16.7057 13.3634C17.209 13.1942 17.8897 13.0933 18.8596 13.0424C18.5628 14.9745 17.8474 15.7906 17.1953 16.2123C16.2638 16.8147 14.9065 16.998 13.0298 16.9999H12.9699C11.0932 16.998 9.73598 16.8147 8.80446 16.2123C8.15298 15.791 7.43834 14.9761 7.14103 13.0479C8.14177 13.1027 8.85407 13.2053 9.37572 13.3592L11.144 13.8807L11.8075 12.1606C11.9981 11.6663 12.3664 11.1114 12.9999 10.5265C13.6401 11.1177 14.0094 11.6781 14.1983 12.1766Z" fill="currentColor"/>
<path fill-rule="evenodd" clip-rule="evenodd" d="M33.7068 13.707C31.7339 15.68 31.5417 18.4345 32.6506 21.0273C37.5053 17.849 42.9998 21.7798 42.9998 27.9999C42.9998 33.5228 38.0749 37.9999 31.9998 37.9999C25.9246 37.9999 20.9998 33.5228 20.9998 27.9999C20.9998 22.2076 25.7643 18.4006 30.34 20.4708C29.5588 17.6702 29.9633 14.6222 32.2926 12.2928L33.7068 13.707ZM39.9699 30.2424C40.1038 29.7066 39.7781 29.1637 39.2423 29.0298C38.7065 28.8958 38.1636 29.2216 38.0296 29.7574C37.6192 31.3991 36.3989 32.6193 34.7572 33.0298C34.2214 33.1637 33.8957 33.7066 34.0296 34.2424C34.1636 34.7782 34.7065 35.104 35.2423 34.9701C37.6006 34.3805 39.3803 32.6007 39.9699 30.2424Z" fill="currentColor"/>
<path d="M33.9998 17.9999C36.9998 17.9999 38.9998 15.9999 38.9998 12.9999C35.9998 12.9999 33.9998 14.9999 33.9998 17.9999Z" fill="currentColor"/>
</svg>
