<svg width="48" height="48" viewBox="0 0 48 48" fill="none" xmlns="http://www.w3.org/2000/svg">
<path fill-rule="evenodd" clip-rule="evenodd" d="M32.3421 29.1912C32.0843 29.069 31.7948 29 31.4859 29H27.6667L15.0483 33.5426L15.4477 35.2732L32.3421 29.1912ZM16.2999 38.9664L33.0954 32.92L33.4347 31.4497C33.4771 31.2659 33.4928 31.0833 33.4847 30.9055L15.9006 37.2358L16.2999 38.9664ZM32.5604 35.2383L17.0131 40.8353C17.4996 41.4638 18.2259 41.8858 19.0398 41.98L32.0887 37.2824L32.5604 35.2383ZM28.6135 42H24.8889L31.5537 39.6007L31.5366 39.6746C31.2225 41.0358 30.0104 42 28.6135 42ZM16.5141 29H21.7621L14.5954 31.58L14.5653 31.4497C14.2761 30.1965 15.2279 29 16.5141 29Z" fill="#333333"/>
<path fill-rule="evenodd" clip-rule="evenodd" d="M25.4382 8.02853C28.5979 6.45873 34.9685 4.2778 39.5776 9.13373C43.6985 13.4753 41.7176 18.0109 39.8111 22.3761C38.7746 24.7492 37.7601 27.072 37.7601 29.2857C36.5 31.5 10 31 9.22545 29.2857C9.22545 26.7224 8.36961 24.0539 7.53963 21.466C6.17245 17.2031 4.87545 13.159 7.5897 10.1647C11.9517 5.35267 17.3205 4.32394 23.5 9.13368C23.5 9.13368 23.5102 9.12665 23.5301 9.11327L30.3469 14.076C30.7933 14.4011 31.4188 14.3026 31.7439 13.8561C32.0689 13.4096 31.9705 12.7842 31.524 12.4591L25.4382 8.02853Z" fill="#333333"/>
</svg>
