<svg width="48" height="48" viewBox="0 0 48 48" fill="none" xmlns="http://www.w3.org/2000/svg">
<path fill-rule="evenodd" clip-rule="evenodd" d="M26.9672 9.00181C26.9672 11.2119 25.1763 13.0036 22.9671 13.0036C20.7579 13.0036 18.967 11.2119 18.967 9.00181C18.967 6.79167 20.7579 5 22.9671 5C25.1763 5 26.9672 6.79167 26.9672 9.00181ZM18.6717 11.5049H17.5718C16.6728 11.5049 13.8967 13.1395 13.8967 16.3153C13.8967 20.5291 16.6728 22.2402 17.5718 22.2402V41.868C17.5718 42.767 18.3074 43.5026 19.2064 43.5026L19.216 43.5025L19.2256 43.5026C20.1246 43.5026 20.8602 42.767 20.8602 41.868V30.216H25.1101V41.868C25.1101 42.767 25.8457 43.5026 26.7447 43.5026L26.7543 43.5025L26.7639 43.5026C27.6629 43.5026 28.3985 42.767 28.3985 41.868V17.2311L30.5837 23.4942C30.8566 24.2763 31.712 24.6892 32.4942 24.4163C33.2763 24.1434 33.6892 23.288 33.4163 22.5058L30.1632 13.1823C29.8129 12.1784 28.866 11.5059 27.8027 11.5059H27.3277C26.4623 12.9971 24.8483 14 23 14C21.1513 14 19.537 12.9967 18.6717 11.5049ZM32 25C30.3431 25 29 26.3431 29 28V28.6667C29 29.219 29.4477 29.6667 30 29.6667C30.5523 29.6667 31 29.219 31 28.6667V28C31 27.4477 31.4477 27 32 27C32.5523 27 33 27.4477 33 28V42C33 42.5523 33.4477 43 34 43C34.5523 43 35 42.5523 35 42V28C35 26.3431 33.6569 25 32 25Z" fill="#333333"/>
</svg>
