<svg width="48" height="48" viewBox="0 0 48 48" fill="none" xmlns="http://www.w3.org/2000/svg">
<path fill-rule="evenodd" clip-rule="evenodd" d="M17.5718 12.5049H18.6717C19.537 13.9967 21.1513 15 23 15C24.8483 15 26.4623 13.9971 27.3277 12.5059H27.8657C28.8503 12.5059 29.7432 13.0837 30.1464 13.9819L34.3684 23.3856C34.7077 24.1414 34.3701 25.0291 33.6144 25.3684C32.8586 25.7077 31.9709 25.3701 31.6316 24.6144L28.3793 17.3704V22.8381L31.0454 34.215H28.3793V42.868C28.3793 43.767 27.6437 44.5026 26.7447 44.5026C25.8457 44.5026 25.1101 43.767 25.1101 42.868V34.216H20.841V42.868C20.841 43.767 20.1054 44.5026 19.2064 44.5026C18.3074 44.5026 17.5718 43.767 17.5718 42.868V34.215H14.9932L17.5651 23.2402C16.659 23.2317 13.8967 21.5186 13.8967 17.3153C13.8967 14.1395 16.6728 12.5049 17.5718 12.5049ZM34 26C32.3431 26 31 27.3431 31 29V29.6667C31 30.219 31.4477 30.6667 32 30.6667C32.5523 30.6667 33 30.219 33 29.6667V29C33 28.4477 33.4477 28 34 28C34.5523 28 35 28.4477 35 29V43C35 43.5523 35.4477 44 36 44C36.5523 44 37 43.5523 37 43V29C37 27.3431 35.6569 26 34 26Z" fill="#333333"/>
<path fill-rule="evenodd" clip-rule="evenodd" d="M24.9329 6.51575C24.9767 6.35121 25 6.17833 25 6C25 4.89543 24.1046 4 23 4C21.8954 4 21 4.89543 21 6C21 6.16683 21.0204 6.3289 21.0589 6.48383C19.8128 7.16174 18.967 8.48296 18.967 10.0018C18.967 12.2119 20.7579 14.0036 22.9671 14.0036C25.1763 14.0036 26.9672 12.2119 26.9672 10.0018C26.9672 8.50646 26.1474 7.20267 24.9329 6.51575Z" fill="#333333"/>
</svg>
