<svg width="48" height="48" viewBox="0 0 48 48" fill="none" xmlns="http://www.w3.org/2000/svg">
<path fill-rule="evenodd" clip-rule="evenodd" d="M2.93325 31.4247C1.76167 30.2532 1.76167 28.3537 2.93324 27.1821L27.682 2.43337C28.8536 1.26179 30.753 1.26179 31.9246 2.43337L46.0668 16.5755C47.2383 17.7471 47.2383 19.6466 46.0668 20.8181L21.318 45.5669C20.1464 46.7385 18.247 46.7385 17.0754 45.5669L2.93325 31.4247ZM8.94366 29.6572C9.13892 29.4619 9.13892 29.1454 8.94366 28.9501C8.7484 28.7548 8.43181 28.7548 8.23655 28.9501C8.04129 29.1454 8.04129 29.4619 8.23655 29.6572C8.43181 29.8525 8.7484 29.8525 8.94366 29.6572ZM9.65077 30.3643C10.2366 29.7785 10.2366 28.8288 9.65077 28.243C9.06498 27.6572 8.11523 27.6572 7.52945 28.243C6.94366 28.8288 6.94366 29.7785 7.52945 30.3643C8.11523 30.9501 9.06498 30.9501 9.65077 30.3643ZM12.4792 25.4149C12.6744 25.6102 12.6744 25.9268 12.4792 26.122C12.2839 26.3173 11.9673 26.3173 11.7721 26.122C11.5768 25.9268 11.5768 25.6102 11.7721 25.4149C11.9673 25.2197 12.2839 25.2197 12.4792 25.4149ZM13.1863 24.7078C13.7721 25.2936 13.7721 26.2434 13.1863 26.8292C12.6005 27.4149 11.6508 27.4149 11.065 26.8292C10.4792 26.2434 10.4792 25.2936 11.065 24.7078C11.6508 24.122 12.6005 24.122 13.1863 24.7078ZM16.0147 22.5869C16.21 22.3916 16.21 22.075 16.0147 21.8798C15.8195 21.6845 15.5029 21.6845 15.3076 21.8798C15.1124 22.075 15.1124 22.3916 15.3076 22.5869C15.5029 22.7822 15.8195 22.7822 16.0147 22.5869ZM16.7218 23.294C17.3076 22.7082 17.3076 21.7585 16.7218 21.1727C16.1361 20.5869 15.1863 20.5869 14.6005 21.1727C14.0147 21.7585 14.0147 22.7082 14.6005 23.294C15.1863 23.8798 16.1361 23.8798 16.7218 23.294ZM19.5503 18.3446C19.7455 18.5399 19.7455 18.8565 19.5503 19.0517C19.355 19.247 19.0384 19.247 18.8431 19.0517C18.6479 18.8565 18.6479 18.5399 18.8431 18.3446C19.0384 18.1494 19.355 18.1494 19.5503 18.3446ZM20.2574 17.6375C20.8431 18.2233 20.8431 19.1731 20.2574 19.7588C19.6716 20.3446 18.7218 20.3446 18.136 19.7588C17.5503 19.1731 17.5503 18.2233 18.136 17.6375C18.7218 17.0517 19.6716 17.0517 20.2574 17.6375ZM23.0858 15.5166C23.281 15.3213 23.281 15.0047 23.0858 14.8095C22.8905 14.6142 22.5739 14.6142 22.3787 14.8095C22.1834 15.0047 22.1834 15.3213 22.3787 15.5166C22.5739 15.7118 22.8905 15.7118 23.0858 15.5166ZM23.7929 16.2237C24.3787 15.6379 24.3787 14.6882 23.7929 14.1024C23.2071 13.5166 22.2574 13.5166 21.6716 14.1024C21.0858 14.6882 21.0858 15.6379 21.6716 16.2237C22.2574 16.8095 23.2071 16.8095 23.7929 16.2237ZM26.6214 11.2724C26.8166 11.4676 26.8166 11.7842 26.6214 11.9795C26.4261 12.1747 26.1095 12.1747 25.9143 11.9795C25.719 11.7842 25.719 11.4676 25.9143 11.2724C26.1095 11.0771 26.4261 11.0771 26.6214 11.2724ZM27.3285 10.5653C27.9143 11.151 27.9143 12.1008 27.3285 12.6866C26.7427 13.2724 25.7929 13.2724 25.2071 12.6866C24.6214 12.1008 24.6214 11.151 25.2071 10.5653C25.7929 9.97947 26.7427 9.97947 27.3285 10.5653ZM30.1569 8.44431C30.3521 8.24905 30.3521 7.93247 30.1569 7.73721C29.9616 7.54194 29.645 7.54194 29.4498 7.73721C29.2545 7.93247 29.2545 8.24905 29.4498 8.44431C29.645 8.63958 29.9616 8.63958 30.1569 8.44431ZM30.864 9.15142C31.4498 8.56563 31.4498 7.61589 30.864 7.0301C30.2782 6.44431 29.3285 6.44431 28.7427 7.0301C28.1569 7.61589 28.1569 8.56563 28.7427 9.15142C29.3285 9.73721 30.2782 9.73721 30.864 9.15142ZM12.4792 32.4853C12.6744 32.6805 12.6744 32.9971 12.4792 33.1924C12.2839 33.3876 11.9673 33.3876 11.7721 33.1924C11.5768 32.9971 11.5768 32.6805 11.7721 32.4853C11.9673 32.29 12.2839 32.29 12.4792 32.4853ZM13.1863 31.7781C13.7721 32.3639 13.7721 33.3137 13.1863 33.8995C12.6005 34.4853 11.6508 34.4853 11.065 33.8995C10.4792 33.3137 10.4792 32.3639 11.065 31.7781C11.6508 31.1924 12.6005 31.1924 13.1863 31.7781ZM16.0147 29.6572C16.21 29.4619 16.21 29.1454 16.0147 28.9501C15.8195 28.7548 15.5029 28.7548 15.3076 28.9501C15.1124 29.1454 15.1124 29.4619 15.3076 29.6572C15.5029 29.8525 15.8195 29.8525 16.0147 29.6572ZM16.7218 30.3643C17.3076 29.7785 17.3076 28.8288 16.7218 28.243C16.1361 27.6572 15.1863 27.6572 14.6005 28.243C14.0147 28.8288 14.0147 29.7785 14.6005 30.3643C15.1863 30.9501 16.1361 30.9501 16.7218 30.3643ZM19.5503 25.4149C19.7455 25.6102 19.7455 25.9268 19.5503 26.122C19.355 26.3173 19.0384 26.3173 18.8431 26.122C18.6479 25.9268 18.6479 25.6102 18.8431 25.4149C19.0384 25.2197 19.355 25.2197 19.5503 25.4149ZM20.2574 24.7078C20.8431 25.2936 20.8431 26.2434 20.2574 26.8292C19.6716 27.4149 18.7218 27.4149 18.136 26.8292C17.5503 26.2434 17.5503 25.2936 18.136 24.7078C18.7218 24.122 19.6716 24.122 20.2574 24.7078ZM23.0858 22.5869C23.281 22.3916 23.281 22.075 23.0858 21.8798C22.8905 21.6845 22.5739 21.6845 22.3787 21.8798C22.1834 22.075 22.1834 22.3916 22.3787 22.5869C22.5739 22.7822 22.8905 22.7822 23.0858 22.5869ZM23.7929 23.294C24.3787 22.7082 24.3787 21.7585 23.7929 21.1727C23.2071 20.5869 22.2574 20.5869 21.6716 21.1727C21.0858 21.7585 21.0858 22.7082 21.6716 23.294C22.2574 23.8798 23.2071 23.8798 23.7929 23.294ZM26.6214 18.3446C26.8166 18.5399 26.8166 18.8565 26.6214 19.0517C26.4261 19.247 26.1095 19.247 25.9143 19.0517C25.719 18.8565 25.719 18.5399 25.9143 18.3446C26.1095 18.1494 26.4261 18.1494 26.6214 18.3446ZM27.3285 17.6375C27.9143 18.2233 27.9143 19.1731 27.3285 19.7588C26.7427 20.3446 25.7929 20.3446 25.2071 19.7588C24.6214 19.1731 24.6214 18.2233 25.2071 17.6375C25.7929 17.0517 26.7427 17.0517 27.3285 17.6375ZM30.1569 15.5166C30.3521 15.3213 30.3521 15.0047 30.1569 14.8095C29.9616 14.6142 29.645 14.6142 29.4498 14.8095C29.2545 15.0047 29.2545 15.3213 29.4498 15.5166C29.645 15.7118 29.9616 15.7118 30.1569 15.5166ZM30.864 16.2237C31.4498 15.6379 31.4498 14.6882 30.864 14.1024C30.2782 13.5166 29.3285 13.5166 28.7427 14.1024C28.1569 14.6882 28.1569 15.6379 28.7427 16.2237C29.3285 16.8095 30.2782 16.8095 30.864 16.2237ZM33.6924 11.2724C33.8877 11.4676 33.8877 11.7842 33.6924 11.9795C33.4971 12.1747 33.1806 12.1747 32.9853 11.9795C32.79 11.7842 32.79 11.4676 32.9853 11.2724C33.1806 11.0771 33.4971 11.0771 33.6924 11.2724ZM34.3995 10.5653C34.9853 11.151 34.9853 12.1008 34.3995 12.6866C33.8137 13.2724 32.864 13.2724 32.2782 12.6866C31.6924 12.1008 31.6924 11.151 32.2782 10.5653C32.864 9.97947 33.8137 9.97947 34.3995 10.5653ZM16.0147 36.7295C16.21 36.5342 16.21 36.2176 16.0147 36.0224C15.8195 35.8271 15.5029 35.8271 15.3076 36.0224C15.1124 36.2176 15.1124 36.5342 15.3076 36.7295C15.5029 36.9247 15.8195 36.9247 16.0147 36.7295ZM16.7218 37.4366C17.3076 36.8508 17.3076 35.901 16.7218 35.3153C16.1361 34.7295 15.1863 34.7295 14.6005 35.3153C14.0147 35.901 14.0147 36.8508 14.6005 37.4366C15.1863 38.0224 16.1361 38.0224 16.7218 37.4366ZM19.5503 32.4853C19.7455 32.6805 19.7455 32.9971 19.5503 33.1924C19.355 33.3876 19.0384 33.3876 18.8431 33.1924C18.6479 32.9971 18.6479 32.6805 18.8431 32.4853C19.0384 32.29 19.355 32.29 19.5503 32.4853ZM20.2574 31.7781C20.8431 32.3639 20.8431 33.3137 20.2574 33.8995C19.6716 34.4853 18.7218 34.4853 18.136 33.8995C17.5503 33.3137 17.5503 32.3639 18.136 31.7781C18.7218 31.1924 19.6716 31.1924 20.2574 31.7781ZM23.0858 29.6572C23.281 29.4619 23.281 29.1454 23.0858 28.9501C22.8905 28.7548 22.5739 28.7548 22.3787 28.9501C22.1834 29.1454 22.1834 29.4619 22.3787 29.6572C22.5739 29.8525 22.8905 29.8525 23.0858 29.6572ZM23.7929 30.3643C24.3787 29.7785 24.3787 28.8288 23.7929 28.243C23.2071 27.6572 22.2574 27.6572 21.6716 28.243C21.0858 28.8288 21.0858 29.7785 21.6716 30.3643C22.2574 30.9501 23.2071 30.9501 23.7929 30.3643ZM26.6214 25.4149C26.8166 25.6102 26.8166 25.9268 26.6214 26.122C26.4261 26.3173 26.1095 26.3173 25.9143 26.122C25.719 25.9268 25.719 25.6102 25.9143 25.4149C26.1095 25.2197 26.4261 25.2197 26.6214 25.4149ZM27.3285 24.7078C27.9143 25.2936 27.9143 26.2434 27.3285 26.8292C26.7427 27.4149 25.7929 27.4149 25.2071 26.8292C24.6214 26.2434 24.6214 25.2936 25.2071 24.7078C25.7929 24.122 26.7427 24.122 27.3285 24.7078ZM30.1569 22.5869C30.3521 22.3916 30.3521 22.075 30.1569 21.8798C29.9616 21.6845 29.645 21.6845 29.4498 21.8798C29.2545 22.075 29.2545 22.3916 29.4498 22.5869C29.645 22.7822 29.9616 22.7822 30.1569 22.5869ZM30.864 23.294C31.4498 22.7082 31.4498 21.7585 30.864 21.1727C30.2782 20.5869 29.3285 20.5869 28.7427 21.1727C28.1569 21.7585 28.1569 22.7082 28.7427 23.294C29.3285 23.8798 30.2782 23.8798 30.864 23.294ZM33.6924 18.3446C33.8877 18.5399 33.8877 18.8565 33.6924 19.0517C33.4971 19.247 33.1806 19.247 32.9853 19.0517C32.79 18.8565 32.79 18.5399 32.9853 18.3446C33.1806 18.1494 33.4971 18.1494 33.6924 18.3446ZM34.3995 17.6375C34.9853 18.2233 34.9853 19.1731 34.3995 19.7588C33.8137 20.3446 32.864 20.3446 32.2782 19.7588C31.6924 19.1731 31.6924 18.2233 32.2782 17.6375C32.864 17.0517 33.8137 17.0517 34.3995 17.6375ZM37.2279 15.5166C37.4232 15.3213 37.4232 15.0047 37.2279 14.8095C37.0327 14.6142 36.7161 14.6142 36.5208 14.8095C36.3256 15.0047 36.3256 15.3213 36.5208 15.5166C36.7161 15.7118 37.0327 15.7118 37.2279 15.5166ZM37.935 16.2237C38.5208 15.6379 38.5208 14.6882 37.935 14.1024C37.3493 13.5166 36.3995 13.5166 35.8137 14.1024C35.2279 14.6882 35.2279 15.6379 35.8137 16.2237C36.3995 16.8095 37.3493 16.8095 37.935 16.2237ZM20.2574 40.971C20.8431 40.3853 20.8431 39.4355 20.2574 38.8497C19.6716 38.2639 18.7218 38.2639 18.136 38.8497C17.5503 39.4355 17.5503 40.3853 18.136 40.971C18.7218 41.5568 19.6716 41.5568 20.2574 40.971ZM23.7929 35.3146C24.3787 35.9004 24.3787 36.8501 23.7929 37.4359C23.2071 38.0217 22.2573 38.0217 21.6716 37.4359C21.0858 36.8501 21.0858 35.9004 21.6716 35.3146C22.2573 34.7288 23.2071 34.7288 23.7929 35.3146ZM27.3285 33.8988C27.9143 33.313 27.9143 32.3632 27.3285 31.7775C26.7427 31.1917 25.7929 31.1917 25.2071 31.7775C24.6214 32.3632 24.6214 33.313 25.2071 33.8988C25.7929 34.4846 26.7427 34.4846 27.3285 33.8988ZM30.864 28.2423C31.4498 28.8281 31.4498 29.7778 30.864 30.3636C30.2782 30.9494 29.3285 30.9494 28.7427 30.3636C28.1569 29.7778 28.1569 28.8281 28.7427 28.2423C29.3285 27.6565 30.2782 27.6565 30.864 28.2423ZM34.3995 26.8285C34.9853 26.2427 34.9853 25.2929 34.3995 24.7071C33.8137 24.1214 32.864 24.1214 32.2782 24.7071C31.6924 25.2929 31.6924 26.2427 32.2782 26.8285C32.864 27.4143 33.8137 27.4143 34.3995 26.8285ZM37.935 21.172C38.5208 21.7578 38.5208 22.7075 37.935 23.2933C37.3492 23.8791 36.3995 23.8791 35.8137 23.2933C35.2279 22.7075 35.2279 21.7578 35.8137 21.172C36.3995 20.5862 37.3492 20.5862 37.935 21.172ZM41.4706 19.7582C42.0563 19.1724 42.0563 18.2226 41.4706 17.6368C40.8848 17.051 39.935 17.051 39.3492 17.6368C38.7634 18.2226 38.7634 19.1724 39.3492 19.7582C39.935 20.3439 40.8848 20.3439 41.4706 19.7582Z" fill="#333333"/>
</svg>
