<svg width="48" height="48" viewBox="0 0 48 48" fill="none" xmlns="http://www.w3.org/2000/svg">
<path fill-rule="evenodd" clip-rule="evenodd" d="M15.874 9C15.4299 10.7252 13.8638 12 12 12C10.1362 12 8.57006 10.7252 8.12602 9H7.10002C7.56329 11.2822 9.58104 13 12 13C14.419 13 16.4367 11.2822 16.9 9H15.874ZM15.874 7C15.4299 5.27477 13.8638 4 12 4C10.1362 4 8.57006 5.27477 8.12602 7H6H5V8C5 11.866 8.13401 15 12 15C15.866 15 19 11.866 19 8V7H18H15.874ZM37 18C39.2091 18 41 16.2091 41 14C41 11.7909 39.2091 10 37 10C34.7909 10 33 11.7909 33 14C33 16.2091 34.7909 18 37 18ZM22 33H21V34V43H23V35H35V43H37V34V33H36H22ZM32.2932 16.5216C32.9606 16.6205 33.5332 17.0493 33.8159 17.6619L36.2797 23H43C44.1046 23 45 23.8954 45 25C45 26.1046 44.1046 27 43 27H35C34.2199 27 33.511 26.5464 33.1841 25.8381L31.7183 22.6622C31.0444 24.0417 30.3882 25.8525 30.123 28H39C39.841 28 40.5922 28.5261 40.8796 29.3165L44.8796 40.3165C45.2571 41.3546 44.7216 42.5021 43.6835 42.8796C42.6454 43.2571 41.4979 42.7216 41.1204 41.6835L37.5991 32H28C27.4696 32 26.9609 31.7893 26.5858 31.4142C26.2107 31.0391 26 30.5304 26 30C26 27.9921 26.2965 26.1719 26.7351 24.5776C25.2816 26.0718 23.2492 27 21.0001 27H17.6245V41.2807C17.6245 42.2264 16.8507 43.0001 15.905 43.0001C14.9593 43.0001 14.1855 42.2264 14.1855 41.2807V29.5274H9.6946V41.2807C9.6946 42.2264 8.92083 43.0001 7.97511 43.0001C7.0294 43.0001 6.25563 42.2264 6.25563 41.2807V24.2932C5.30992 24.2932 2.38965 22.4931 2.38965 18.0605C2.38965 15.136 4.62738 13.4539 5.81951 13.0801C7.08716 14.6206 8.91954 15.6788 11 15.9383V20.3965C11 24.0435 13.9565 27 17.6035 27V25C15.061 25 13 22.939 13 20.3965V15.9382C14.8637 15.7058 16.5283 14.8324 17.7662 13.5455L22.3811 17.2765L25.5325 17.2766C26.254 17.2766 26.8565 17.7861 27 18.4649V17H29V19H29.0001L29 19.0301V19.296C29.2695 18.849 29.5226 18.4686 29.7411 18.1591C29.9533 17.8584 30.1339 17.6233 30.2664 17.4576C30.3327 17.3748 30.387 17.3092 30.4275 17.2613C30.4477 17.2374 30.4645 17.2179 30.4775 17.2029L30.4942 17.1837L30.5004 17.1766L30.503 17.1737L30.5041 17.1725C30.5047 17.1719 30.5052 17.1713 32 18.5L30.5052 17.1713C30.9534 16.667 31.6257 16.4227 32.2932 16.5216ZM26.9994 19.0913C26.9506 22.3629 24.2833 25 21.0001 25H17.6245V17.2887L20.9076 19.943C21.1745 20.1588 21.5074 20.2765 21.8506 20.2765L25.5324 20.2766C26.2529 20.2766 26.8548 19.7686 26.9994 19.0913ZM33.4996 19.8234C33.5006 19.8222 33.5008 19.822 33.5 19.8229L33.4996 19.8234Z" fill="#333333"/>
</svg>
