<svg width="49" height="49" viewBox="0 0 49 49" fill="none" xmlns="http://www.w3.org/2000/svg">
<path fill-rule="evenodd" clip-rule="evenodd" d="M24.5898 20.6692C18.4804 20.6742 13.4736 12.3463 22.6186 7.62144C23.0272 7.41034 23.2328 6.92243 23.0097 6.48207C22.7866 6.04172 22.2252 5.97656 21.8332 6.10341C14.7774 8.38671 13.8848 14.096 15.5695 17.8782C15.6774 18.1206 15.794 18.3572 15.9186 18.5877C15.4737 18.5771 15.0244 18.595 14.5729 18.6431C10.4529 19.0823 5.95742 22.7199 7.52096 29.9748C7.60782 30.3779 7.94594 30.8313 8.43917 30.8035C8.93239 30.7757 9.25225 30.3528 9.22943 29.8932C8.67478 18.722 18.9172 20.9242 21.4303 24.9128L21.7634 25.4887C24.8225 30.777 20.1137 39.277 11.4493 33.7196C11.0622 33.4713 10.5369 33.5372 10.2671 33.9506C9.99727 34.364 10.2215 34.8827 10.5274 35.1588C16.0327 40.1277 21.4234 38.046 23.8566 34.6959C24.1263 34.3245 24.3682 33.9395 24.5825 33.544C24.7974 33.9392 25.0399 34.3238 25.3103 34.6947C27.7489 38.0408 33.143 40.1137 38.6402 35.1358C38.9456 34.8592 39.169 34.3401 38.8985 33.9271C38.628 33.5142 38.1026 33.4491 37.7159 33.6981C29.0606 39.2697 24.3379 30.7774 27.3883 25.4841L27.7204 24.9076C30.2271 20.9149 40.4659 18.6959 39.9295 29.868C39.9074 30.3277 40.228 30.7501 40.7213 30.777C41.2145 30.804 41.5519 30.3501 41.6381 29.9469C43.1898 22.6894 38.6884 19.0592 34.5676 18.6267C34.2995 18.5986 34.0321 18.5811 33.766 18.574C33.89 18.3435 34.006 18.107 34.1134 17.8648C35.7931 14.0771 34.8906 8.36512 27.8259 6.09173C27.4334 5.96544 26.8717 6.03156 26.6491 6.4726C26.4266 6.91364 26.6329 7.40208 27.0424 7.61214C36.9942 12.7174 29.9659 20.4865 25.255 20.6686L24.5898 20.6692ZM24.8451 22.037C25.9497 22.0361 26.8459 22.9308 26.8468 24.0354C26.8477 25.14 25.953 26.0361 24.8484 26.037C23.7438 26.0379 22.8477 25.1432 22.8468 24.0387C22.8459 22.9341 23.7406 22.0379 24.8451 22.037Z" fill="#333333"/>
<path fill-rule="evenodd" clip-rule="evenodd" d="M24.9715 16.0116C23.241 16.013 21.6141 16.4812 20.5973 17.2961L19.3466 15.7353C20.8282 14.5481 22.9504 14.0133 24.9699 14.0116C26.9894 14.0099 29.1125 14.5413 30.596 15.7261L29.3479 17.2889C28.3298 16.4757 26.7021 16.0102 24.9715 16.0116Z" fill="#333333"/>
<path fill-rule="evenodd" clip-rule="evenodd" d="M31.8306 27.9468C32.6946 26.4475 33.1026 24.8044 32.9054 23.5164L34.8823 23.2136C35.1697 25.0903 34.5718 27.1957 33.5635 28.9454C32.5552 30.6952 31.0334 32.2682 29.2656 32.9605L28.5363 31.0982C29.7495 30.6231 30.9666 29.4462 31.8306 27.9468Z" fill="#333333"/>
<path fill-rule="evenodd" clip-rule="evenodd" d="M17.9473 27.9582C17.0809 26.4602 16.6702 24.8178 16.8653 23.5295L14.8879 23.23C14.6036 25.1072 15.2049 27.2115 16.2161 28.9596C17.2273 30.7077 18.7516 32.2782 20.5206 32.9677L21.2468 31.1042C20.0328 30.631 18.8138 29.4562 17.9473 27.9582Z" fill="#333333"/>
</svg>
