<svg width="48" height="48" viewBox="0 0 48 48" fill="none" xmlns="http://www.w3.org/2000/svg">
<path d="M16.4718 19.4086L11.8618 23.1989C11.1153 23.8127 10.0125 23.7051 9.39865 22.9585C8.78484 22.212 8.89245 21.1091 9.639 20.4953L16.7779 14.6258C17.27 14.2212 17.8873 14 18.5244 14H29.2985C29.9247 14 30.5322 14.2137 31.0204 14.6058L38.3432 20.4866C39.0968 21.0917 39.2171 22.1932 38.6119 22.9468C38.0067 23.7004 36.9052 23.8207 36.1517 23.2155L31.7771 19.7024C32.5861 21.5496 33.1996 24.1064 33 27.5C32.7833 31.1834 30.8994 32.6052 30.8994 32.6052C30.8994 32.6052 28.8994 40.57 28.8994 42.3515C28.8994 43.2578 28.1435 43.9993 27.2197 43.9993C26.2959 43.9993 25.54 43.2578 25.54 42.3515L24.9999 32.6052H22.9999L22.4571 42.3515C22.4571 43.2578 21.7012 43.9993 20.7774 43.9993C19.8535 43.9993 19.0977 43.2578 19.0977 42.3515L17.0977 32.6052C17.0977 32.6052 14.7688 31.2671 14.5 27.5C14.5 24.1067 15.4411 21.3787 16.4718 19.4086Z" fill="#333333"/>
<path d="M28.0001 8.00181C28.0001 10.2119 26.2092 12.0036 24 12.0036C21.7908 12.0036 19.9999 10.2119 19.9999 8.00181C19.9999 5.79167 21.7908 4 24 4C26.2092 4 28.0001 5.79167 28.0001 8.00181Z" fill="#333333"/>
</svg>
