<svg width="48" height="48" viewBox="0 0 48 48" fill="none" xmlns="http://www.w3.org/2000/svg">
<path fill-rule="evenodd" clip-rule="evenodd" d="M6.05557 40.0011C5.99423 41.104 6.89546 42.0001 8.00003 42.0001H22C23.1046 42.0002 23.9885 41.102 24.111 40.0042C24.2983 38.3257 24.7213 36.6784 25.3702 35.1118C26.2748 32.928 27.6007 30.9437 29.2721 29.2722C30.9436 27.6008 32.9279 26.2749 35.1117 25.3703C36.6783 24.7214 38.3256 24.2984 40.0041 24.1111C41.1019 23.9887 42 23.1047 42 22.0002L42.0001 8.00015C42.0001 6.89558 41.1039 5.99436 40.0011 6.05569C35.9568 6.2806 31.9745 7.18675 28.2234 8.74048C23.8557 10.5496 19.8871 13.2014 16.5442 16.5443C13.2013 19.8872 10.5495 23.8558 8.74037 28.2235C7.18664 31.9746 6.28048 35.9569 6.05557 40.0011ZM37.0126 15.638C37.7422 15.4765 38.4804 15.3448 39.2255 15.2439L39.1584 14.7484L39.0242 13.7575L38.957 13.262C38.1568 13.3704 37.3639 13.5118 36.5802 13.6853L36.6883 14.1734L36.9045 15.1498L37.0126 15.638ZM28.7141 18.9953C29.9919 18.2102 31.333 17.5328 32.7232 16.9703L32.5357 16.5068L32.1607 15.5798L31.9731 15.1163C30.4799 15.7204 29.0395 16.448 27.6671 17.2913L27.9288 17.7173L28.4523 18.5693L28.7141 18.9953ZM23.4656 23.204C23.989 22.6642 24.5331 22.1482 25.0961 21.6568L24.7674 21.2801L24.1098 20.5267L23.7811 20.15C23.1763 20.6777 22.592 21.232 22.0298 21.8117C21.4676 22.3915 20.9316 22.9927 20.4228 23.6133L20.8094 23.9303L21.5827 24.5644L21.9694 24.8814C22.4432 24.3035 22.9422 23.7438 23.4656 23.204ZM17.52 32.6492C18.0394 31.2423 18.6751 29.881 19.4205 28.5796L18.9867 28.3311L18.1189 27.834L17.6851 27.5855C16.8844 28.9833 16.2016 30.4454 15.6438 31.9566L16.1128 32.1297L17.0509 32.476L17.52 32.6492ZM15.9946 39.2015C16.0725 38.4537 16.1814 37.7117 16.3204 36.9775L15.8291 36.8845L14.8465 36.6985L14.3553 36.6056C14.206 37.3942 14.0891 38.191 14.0054 38.9943L14.5027 39.0461L15.4973 39.1497L15.9946 39.2015Z" fill="#333333"/>
</svg>
