<svg width="49" height="49" viewBox="0 0 49 49" fill="none" xmlns="http://www.w3.org/2000/svg">
<path fill-rule="evenodd" clip-rule="evenodd" d="M15.0196 6.98037C13.915 6.98037 13.0196 7.8758 13.0196 8.98037L13.0196 40.9804C13.0196 42.0849 13.915 42.9804 15.0196 42.9804L33.0196 42.9804C34.1242 42.9804 35.0196 42.0849 35.0196 40.9804L35.0196 8.98037C35.0196 7.8758 34.1242 6.98037 33.0196 6.98037L15.0196 6.98037ZM23.0196 11.9804C23.0196 11.4281 23.4673 10.9804 24.0196 10.9804C24.5719 10.9804 25.0196 11.4281 25.0196 11.9804L25.0196 15.9804C25.0196 16.5327 24.5719 16.9804 24.0196 16.9804C23.4673 16.9804 23.0196 16.5327 23.0196 15.9804L23.0196 11.9804ZM23.0196 22.9804C23.0196 22.4281 23.4673 21.9804 24.0196 21.9804C24.5719 21.9804 25.0196 22.4281 25.0196 22.9804L25.0196 26.9804C25.0196 27.5327 24.5719 27.9804 24.0196 27.9804C23.4673 27.9804 23.0196 27.5327 23.0196 26.9804L23.0196 22.9804ZM24.0196 32.9804C23.4673 32.9804 23.0196 33.4281 23.0196 33.9804L23.0196 37.9804C23.0196 38.5327 23.4673 38.9804 24.0196 38.9804C24.5719 38.9804 25.0196 38.5327 25.0196 37.9804L25.0196 33.9804C25.0196 33.4281 24.5719 32.9804 24.0196 32.9804Z" fill="#333333"/>
</svg>
