<svg width="48" height="48" viewBox="0 0 48 48" fill="none" xmlns="http://www.w3.org/2000/svg">
<path d="M3 29.4C3 25.144 11.6613 23 16 23C20.3387 23 29 25.144 29 29.4V35H3V29.4Z" fill="#333333"/>
<path d="M23 14C23 17.8675 19.8675 21 16 21C12.1325 21 9 17.8675 9 14C9 10.1325 12.1325 7 16 7C19.8675 7 23 10.1325 23 14Z" fill="#333333"/>
<path d="M40 18C40 20.7625 37.7625 23 35 23C32.2375 23 30 20.7625 30 18C30 15.2375 32.2375 13 35 13C37.7625 13 40 15.2375 40 18Z" fill="#333333"/>
<path fill-rule="evenodd" clip-rule="evenodd" d="M31 35V29.4C31 28.0363 30.4684 26.8885 29.7194 25.9627C31.5696 25.3216 33.584 25 35 25C38.3375 25 45 26.7867 45 30.3333V35H31Z" fill="#333333"/>
</svg>
