<svg width="48" height="48" viewBox="0 0 48 48" fill="none" xmlns="http://www.w3.org/2000/svg">
<path fill-rule="evenodd" clip-rule="evenodd" d="M24 6C14.0589 6 6 14.0589 6 24C6 33.9411 14.0589 42 24 42C33.9411 42 42 33.9411 42 24C42 14.0589 33.9411 6 24 6ZM4 24C4 12.9543 12.9543 4 24 4C35.0457 4 44 12.9543 44 24C44 35.0457 35.0457 44 24 44C12.9543 44 4 35.0457 4 24Z" fill="#333333"/>
<path fill-rule="evenodd" clip-rule="evenodd" d="M23 42V6H25V42H23Z" fill="#333333"/>
<path fill-rule="evenodd" clip-rule="evenodd" d="M23.293 23.2928L24.7072 24.7071L11.7072 37.7071L10.293 36.2928L23.293 23.2928Z" fill="#333333"/>
<path fill-rule="evenodd" clip-rule="evenodd" d="M37.435 36.0208L24.707 23.2928L23.2928 24.7071L36.0207 37.435L37.435 36.0208Z" fill="#333333"/>
</svg>
