<svg width="48" height="48" viewBox="0 0 48 48" fill="none" xmlns="http://www.w3.org/2000/svg">
<path fill-rule="evenodd" clip-rule="evenodd" d="M26.5317 6.27506C25.5822 6.00762 24.319 6.00001 23.0577 6.00001C21.4733 6.00001 20.4871 6.41074 19.8472 6.95999C19.1968 7.51832 18.7897 8.31804 18.554 9.30088C18.3172 10.2885 18.2701 11.3928 18.2904 12.4752C18.2938 12.6524 18.2989 12.8274 18.305 13H37C37.5523 13 38.0059 13.4497 37.9431 13.9984C37.301 19.6057 31.3036 24 24 24C16.6963 24 10.6989 19.6057 10.0569 13.9984C9.99403 13.4497 10.4477 13 11 13H16.3038C16.2984 12.8403 16.2939 12.6776 16.2908 12.5128C16.2693 11.3701 16.3135 10.0674 16.6091 8.83453C16.9059 7.59693 17.4723 6.36281 18.5446 5.4424C19.6274 4.51291 21.1131 4.00001 23.0577 4.00001L23.13 4.00001C24.3017 3.99985 25.8302 3.99966 27.0739 4.34997C27.7215 4.53237 28.3861 4.83339 28.8948 5.35979C29.4288 5.91243 29.7165 6.63679 29.7165 7.50001C29.7165 8.0523 29.2687 8.50001 28.7165 8.50001C28.1642 8.50001 27.7165 8.0523 27.7165 7.50001C27.7165 7.11324 27.602 6.90009 27.4566 6.74961C27.2858 6.57289 26.9935 6.40515 26.5317 6.27506ZM15.9999 42V44H31.9999V42H15.9999Z" fill="#333333"/>
<path fill-rule="evenodd" clip-rule="evenodd" d="M30.0357 19.3595C31.4541 20.336 31.9999 21.7537 31.9999 23.3027C31.9999 24.8476 31.4578 26.2858 30.0492 27.2901C29.0618 27.9942 27.7192 28.4324 25.9999 28.6149V26.6019C27.3756 26.4328 28.294 26.0853 28.8881 25.6617C29.667 25.1063 29.9999 24.3393 29.9999 23.3027C29.9999 22.27 29.6707 21.5364 28.9016 21.0069C28.0561 20.4248 26.5511 20 23.9999 20V18C26.6988 18 28.6938 18.4357 30.0357 19.3595ZM21.9999 26.7361V28.7384C21.0325 28.7754 20.1818 28.8661 19.4941 29.0876C18.9553 29.2612 18.6026 29.491 18.3805 29.767C18.1678 30.0313 17.9999 30.4307 17.9999 31.0957C17.9999 31.7643 18.1683 32.1663 18.3816 32.4322C18.604 32.7095 18.9568 32.94 19.495 33.114C20.6151 33.476 22.1679 33.4895 23.9538 33.4897L23.973 33.4882C24.018 33.4846 24.0798 33.4805 24.156 33.4772C24.3079 33.4706 24.5194 33.4673 24.7711 33.479C25.2683 33.5022 25.9546 33.5854 26.6585 33.8396C27.3662 34.0951 28.1259 34.5367 28.7068 35.2946C29.2948 36.0617 29.6378 37.0728 29.6378 38.3528C29.6378 39.6315 29.2951 40.6359 28.6931 41.3861C28.0985 42.1274 27.3227 42.5311 26.6087 42.7473C26.4027 42.8097 26.1983 42.8576 25.9999 42.8941V40.8418C26.0096 40.839 26.0193 40.8361 26.029 40.8332C26.4745 40.6982 26.8582 40.4773 27.1331 40.1346C27.4008 39.8009 27.6378 39.2622 27.6378 38.3528C27.6378 37.4446 27.4011 36.8788 27.1195 36.5112C26.8307 36.1346 26.4311 35.8839 25.9792 35.7207C25.5237 35.5562 25.0505 35.4942 24.678 35.4768C24.495 35.4683 24.3441 35.4709 24.2424 35.4753C24.1918 35.4775 24.1539 35.4801 24.131 35.4819L24.1083 35.4838L24.1071 35.484L24.106 35.4841L24.0551 35.4897L23.893 35.4897C22.2245 35.49 20.3438 35.4902 18.8798 35.017C18.1056 34.7667 17.3646 34.3608 16.8214 33.6835C16.2691 32.9949 15.9999 32.1241 15.9999 31.0957C15.9999 30.0693 16.2695 29.2002 16.8224 28.5131C17.3659 27.8377 18.107 27.4333 18.8808 27.184C19.8067 26.8857 20.8995 26.7762 21.9999 26.7361Z" fill="#333333"/>
<path fill-rule="evenodd" clip-rule="evenodd" d="M23.1147 36V42.5H25.1147V36H23.1147ZM23.1147 32H25.1147V20.1467H23.1147V32Z" fill="#333333"/>
</svg>
