<svg width="48" height="48" viewBox="0 0 48 48" fill="none" xmlns="http://www.w3.org/2000/svg">
<path d="M14.4356 21.8489C16.9956 26.88 21.12 30.9867 26.1511 33.5644L30.0622 29.6533C30.5422 29.1733 31.2533 29.0133 31.8756 29.2267C33.8667 29.8844 36.0178 30.24 38.2222 30.24C39.2 30.24 40 31.04 40 32.0178V38.2222C40 39.2 39.2 40 38.2222 40C21.5289 40 8 26.4711 8 9.77778C8 8.8 8.8 8 9.77778 8H16C16.9778 8 17.7778 8.8 17.7778 9.77778C17.7778 12 18.1333 14.1333 18.7911 16.1244C18.9867 16.7467 18.8444 17.44 18.3467 17.9378L14.4356 21.8489Z" fill="#333333"/>
</svg>
