<svg width="48" height="48" viewBox="0 0 48 48" fill="none" xmlns="http://www.w3.org/2000/svg">
<path d="M24 40.0001C21.159 39.9971 18.3697 39.2393 15.9177 37.8043C13.4657 36.3693 11.4391 34.3086 10.0451 31.8331L38.574 17.3851C39.5193 19.4619 40.0057 21.7182 40 24.0001C39.9952 28.2421 38.308 32.309 35.3085 35.3085C32.3089 38.3081 28.242 39.9953 24 40.0001ZM8.71302 28.7391C8.23879 27.2042 7.99841 25.6066 8.00001 24.0001C8.00504 19.7582 9.69241 15.6914 12.6919 12.6919C15.6914 9.69243 19.7581 8.00511 24 8.00008C26.5338 7.99218 29.0325 8.59267 31.286 9.75108C33.4628 10.8708 35.3565 12.4708 36.824 14.4301L24.4091 20.7801L8.71497 28.7381L8.71302 28.7391Z" fill="#333333"/>
</svg>
