<svg width="48" height="48" viewBox="0 0 48 48" fill="none" xmlns="http://www.w3.org/2000/svg">
<path d="M13.5 44C10.9813 43.9971 8.56661 42.9953 6.78565 41.2143C5.00468 39.4333 4.00292 37.0187 4 34.5C3.99821 32.6324 4.54761 30.8059 5.57935 29.2492C6.61109 27.6925 8.07935 26.4749 9.80005 25.749L16.267 43.592C15.3698 43.8638 14.4374 44.0013 13.5 44ZM17.4 43.166L17.981 42.882C17.783 42.985 17.588 43.08 17.4 43.166ZM18.1 42.817L15.2629 34.975L11.71 25.168C12.3 25.056 12.8994 24.9998 13.5 25C16.0187 25.0029 18.4334 26.0047 20.2144 27.7857C21.9953 29.5667 22.9971 31.9813 23 34.5C22.9991 36.1978 22.5437 37.8643 21.6812 39.3267C20.8186 40.789 19.5804 41.9938 18.095 42.816L18.1 42.817Z" fill="#333333"/>
<path d="M34.5 44C32.8131 43.9983 31.157 43.5484 29.7011 42.6964C28.2451 41.8444 27.0418 40.6209 26.214 39.151L43.153 30.573C43.7142 31.806 44.0032 33.1454 44 34.5C43.9971 37.0187 42.9953 39.4334 41.2144 41.2143C39.4334 42.9953 37.0187 43.9971 34.5 44ZM25.423 37.314C25.1415 36.4026 24.9989 35.454 25 34.5C25.0029 31.9814 26.0047 29.5667 27.7857 27.7857C29.5666 26.0048 31.9813 25.003 34.5 25C36.0045 24.9955 37.4881 25.3522 38.8261 26.04C40.1184 26.7049 41.2427 27.6548 42.114 28.818L34.743 32.588L25.424 37.313L25.423 37.314Z" fill="#333333"/>
<path d="M23.152 22.925C20.7878 22.7143 18.5881 21.6262 16.9859 19.8749C15.3838 18.1237 14.4952 15.8361 14.4952 13.4625C14.4952 11.0889 15.3838 8.80133 16.9859 7.05005C18.5881 5.29877 20.7878 4.21069 23.152 4V22.924V22.925ZM25.152 22.893V4.032C27.4567 4.31131 29.5795 5.42492 31.1192 7.16251C32.6589 8.9001 33.5091 11.1414 33.5091 13.463C33.5091 15.7846 32.6589 18.0259 31.1192 19.7635C29.5795 21.5011 27.4567 22.6147 25.152 22.894V22.893Z" fill="#333333"/>
</svg>
