<svg width="48" height="48" viewBox="0 0 48 48" fill="none" xmlns="http://www.w3.org/2000/svg">
<path fill-rule="evenodd" clip-rule="evenodd" d="M19.5 11.9111C21.7091 11.9111 23.5 10.1203 23.5 7.91113C23.5 5.70199 21.7091 3.91113 19.5 3.91113C17.2909 3.91113 15.5 5.70199 15.5 7.91113C15.5 10.1203 17.2909 11.9111 19.5 11.9111ZM17.0638 13.4199C17.0272 13.4199 16.9908 13.4205 16.9546 13.4218H14.9999H9.14288V8.91159H7.42859V13.4218H5.5C4.67157 13.4218 4 14.0934 4 14.9218C4 15.7502 4.67157 16.4218 5.5 16.4218H7.42859V34.746C6.4607 34.9439 5.59086 35.4699 4.96613 36.2352C4.3414 37.0005 4.00012 37.9581 4 38.946V44.0889H5.71429V38.0888H7.42859V44.0889H9.14288V38.0888H10.8572V44.0889H12.5715V38.946C12.5713 37.9581 12.2301 37.0005 11.6053 36.2352C10.9806 35.4699 10.1108 34.9439 9.14288 34.746V16.4218H14.0831V42.3039C14.0831 43.2029 14.8186 43.9385 15.7177 43.9385C16.6167 43.9385 17.3522 43.2029 17.3522 42.3039V30.131H21.6214V42.3039C21.6214 43.2029 22.3569 43.9385 23.256 43.9385C24.155 43.9385 24.8905 43.2029 24.8905 42.3039V24.1552C25.7895 24.1552 28.5656 22.444 28.5656 18.2303C28.5656 15.0544 25.7895 13.4199 24.8905 13.4199H17.0638ZM36.3769 14.2179C36.3771 14.2177 36.3772 14.2176 37 15C37.6228 14.2176 37.6229 14.2177 37.6231 14.2179L37.6235 14.2182L37.6245 14.2189L37.6269 14.2209L37.6339 14.2265L37.6563 14.2447C37.6748 14.2599 37.7003 14.2811 37.7319 14.3078C37.795 14.3612 37.8827 14.4372 37.9869 14.5324C38.1938 14.7214 38.4724 14.9918 38.754 15.3151C39.0331 15.6355 39.3331 16.028 39.5674 16.4621C39.7978 16.8887 40 17.4201 40 18C40 18.5799 39.7978 19.1113 39.5674 19.5379C39.3331 19.972 39.0331 20.3645 38.754 20.6849C38.4783 21.0014 38.2055 21.2673 38 21.4556V23.517C38.2532 23.1124 38.6073 22.6849 39.0981 22.4016C39.6003 22.1116 40.1616 22.021 40.6462 22.0072C41.1393 21.9932 41.6293 22.0567 42.0462 22.1382C42.467 22.2204 42.8406 22.3264 43.1077 22.4111C43.2422 22.4538 43.3518 22.4917 43.4296 22.5197C43.4541 22.5285 43.4755 22.5363 43.4936 22.543C43.5043 22.547 43.5138 22.5505 43.5221 22.5536L43.549 22.5639L43.5574 22.5672L43.5603 22.5683L43.5615 22.5687L43.5619 22.5689C43.5621 22.569 43.5624 22.5691 43.1962 23.4996C44.1851 23.6478 44.1851 23.648 44.1851 23.6482L44.185 23.6487L44.1848 23.6499L44.1843 23.653L44.183 23.6619L44.1784 23.6904C44.1745 23.714 44.1689 23.7467 44.1616 23.7874C44.1469 23.8688 44.1249 23.9827 44.0946 24.1205C44.0344 24.3942 43.9394 24.7707 43.8003 25.1762C43.6624 25.578 43.4724 26.0341 43.2136 26.4541C42.9594 26.867 42.6003 27.3077 42.0981 27.5977C41.5959 27.8877 41.0346 27.9782 40.5499 27.992C40.0568 28.0061 39.5669 27.9426 39.1499 27.8611C38.7291 27.7788 38.3556 27.6728 38.0885 27.5881C38.0697 27.5822 38.0515 27.5763 38.0338 27.5706C38.0223 27.5669 38.0111 27.5632 38 27.5596V30.517C38.2532 30.1124 38.6073 29.6849 39.0981 29.4016C39.6003 29.1116 40.1616 29.021 40.6462 29.0072C41.1393 28.9932 41.6293 29.0567 42.0462 29.1382C42.467 29.2204 42.8406 29.3264 43.1077 29.4111C43.2422 29.4538 43.3518 29.4917 43.4296 29.5197C43.4686 29.5337 43.4997 29.5452 43.5221 29.5536L43.549 29.5639L43.5574 29.5672L43.5603 29.5683L43.5615 29.5687L43.5619 29.5689C43.5621 29.569 43.5624 29.5691 43.1962 30.4996C44.1851 30.6478 44.1851 30.648 44.1851 30.6482L44.185 30.6487L44.1848 30.6499L44.1843 30.653L44.183 30.6619L44.1784 30.6904C44.1745 30.714 44.1689 30.7467 44.1616 30.7874C44.1469 30.8688 44.1249 30.9827 44.0946 31.1205C44.0344 31.3942 43.9394 31.7707 43.8003 32.1762C43.6624 32.578 43.4724 33.0341 43.2136 33.4541C42.9594 33.867 42.6003 34.3077 42.0981 34.5977C41.5959 34.8877 41.0346 34.9782 40.5499 34.992C40.0568 35.0061 39.5669 34.9426 39.1499 34.8611C38.7291 34.7788 38.3556 34.6728 38.0885 34.5881C38.0576 34.5783 38.0281 34.5688 38 34.5596V37.517C38.2532 37.1124 38.6073 36.6849 39.0981 36.4016C39.6003 36.1116 40.1616 36.021 40.6462 36.0072C41.1393 35.9932 41.6293 36.0567 42.0462 36.1382C42.467 36.2204 42.8406 36.3264 43.1077 36.4111C43.2422 36.4538 43.3518 36.4917 43.4296 36.5197C43.4686 36.5337 43.4997 36.5452 43.5221 36.5536L43.549 36.5639L43.5574 36.5672L43.5603 36.5683L43.5615 36.5687L43.5619 36.5689C43.5621 36.569 43.5624 36.5691 43.1962 37.4996C44.1851 37.6478 44.1851 37.648 44.1851 37.6482L44.185 37.6487L44.1848 37.6499L44.1843 37.653L44.183 37.6619L44.1784 37.6904C44.1765 37.7015 44.1743 37.7147 44.1717 37.7298C44.1688 37.7466 44.1655 37.7659 44.1616 37.7874C44.1469 37.8688 44.1249 37.9827 44.0946 38.1205C44.0344 38.3942 43.9394 38.7707 43.8003 39.1762C43.6624 39.578 43.4724 40.0341 43.2136 40.4541C42.9594 40.867 42.6003 41.3077 42.0981 41.5977C41.5959 41.8877 41.0346 41.9782 40.5499 41.992C40.0568 42.0061 39.5669 41.9426 39.1499 41.8611C38.7291 41.7788 38.3556 41.6728 38.0885 41.5881C38.0708 41.5825 38.0536 41.577 38.0368 41.5716C38.0243 41.5675 38.012 41.5635 38 41.5596V43.9999C38 44.5522 37.5523 44.9999 37 44.9999C36.4477 44.9999 36 44.5522 36 43.9999V41.6216C35.7442 41.6996 35.4132 41.7894 35.0462 41.8611C34.6293 41.9426 34.1393 42.0061 33.6462 41.992C33.1616 41.9782 32.6003 41.8877 32.0981 41.5977C31.5959 41.3077 31.2368 40.867 30.9825 40.4541C30.7238 40.0341 30.5338 39.578 30.3959 39.1762C30.2567 38.7707 30.1618 38.3942 30.1016 38.1205C30.0713 37.9827 30.0493 37.8688 30.0346 37.7874C30.0272 37.7467 30.0217 37.714 30.0178 37.6904L30.0132 37.6619L30.0118 37.653L30.0114 37.6499L30.0112 37.6487L30.0111 37.6482C30.0111 37.648 30.011 37.6478 31 37.4996C30.6338 36.5691 30.634 36.569 30.6342 36.5689L30.6347 36.5687L30.6358 36.5683L30.6387 36.5672L30.6471 36.5639L30.6741 36.5536C30.6965 36.5452 30.7276 36.5337 30.7665 36.5197C30.8443 36.4917 30.954 36.4538 31.0885 36.4111C31.3556 36.3264 31.7291 36.2204 32.1499 36.1382C32.5669 36.0567 33.0568 35.9932 33.5499 36.0072C34.0346 36.021 34.5959 36.1116 35.0981 36.4016C35.4733 36.6182 35.7686 36.919 36 37.2295V34.6216C35.7442 34.6996 35.4132 34.7894 35.0462 34.8611C34.6293 34.9426 34.1393 35.0061 33.6462 34.992C33.1616 34.9782 32.6003 34.8877 32.0981 34.5977C31.5959 34.3077 31.2368 33.867 30.9825 33.4541C30.7238 33.0341 30.5338 32.578 30.3959 32.1762C30.2567 31.7707 30.1618 31.3942 30.1016 31.1205C30.0713 30.9827 30.0493 30.8688 30.0346 30.7874C30.0272 30.7467 30.0217 30.714 30.0178 30.6904L30.0132 30.6619L30.0118 30.653L30.0114 30.6499L30.0112 30.6487L30.0111 30.6482C30.0111 30.648 30.011 30.6478 31 30.4996C30.6338 29.5691 30.634 29.569 30.6342 29.5689L30.6347 29.5687L30.6358 29.5683L30.6387 29.5672L30.6471 29.5639L30.6741 29.5536C30.6965 29.5452 30.7276 29.5337 30.7665 29.5197C30.8443 29.4917 30.954 29.4538 31.0885 29.4111C31.3556 29.3264 31.7291 29.2204 32.1499 29.1382C32.5669 29.0567 33.0568 28.9932 33.5499 29.0072C34.0346 29.021 34.5959 29.1116 35.0981 29.4016C35.4733 29.6182 35.7686 29.919 36 30.2295V27.6216C35.7442 27.6996 35.4132 27.7894 35.0462 27.8611C34.6293 27.9426 34.1393 28.0061 33.6462 27.992C33.1616 27.9782 32.6003 27.8877 32.0981 27.5977C31.5959 27.3077 31.2368 26.867 30.9825 26.4541C30.7238 26.0341 30.5338 25.578 30.3959 25.1762C30.2567 24.7707 30.1618 24.3942 30.1016 24.1205C30.0713 23.9827 30.0493 23.8688 30.0346 23.7874C30.0308 23.7666 30.0275 23.7479 30.0247 23.7315C30.022 23.7157 30.0197 23.7019 30.0178 23.6904L30.0132 23.6619L30.0118 23.653L30.0114 23.6499L30.0112 23.6487L30.0111 23.6482C30.0111 23.648 30.011 23.6478 31 23.4996C30.6338 22.5691 30.634 22.569 30.6342 22.5689L30.6347 22.5687L30.6358 22.5683L30.6387 22.5672L30.6471 22.5639L30.6741 22.5536C30.6965 22.5452 30.7276 22.5337 30.7665 22.5197C30.8443 22.4917 30.954 22.4538 31.0885 22.4111C31.3556 22.3264 31.7291 22.2204 32.1499 22.1382C32.5669 22.0567 33.0568 21.9932 33.5499 22.0072C34.0346 22.021 34.5959 22.1116 35.0981 22.4016C35.4733 22.6182 35.7686 22.919 36 23.2295V21.4556C35.7945 21.2673 35.5217 21.0014 35.246 20.6849C34.9669 20.3645 34.667 19.972 34.4326 19.5379C34.2022 19.1113 34 18.5799 34 18C34 17.4201 34.2022 16.8887 34.4326 16.4621C34.667 16.028 34.9669 15.6355 35.246 15.3151C35.5276 14.9918 35.8062 14.7214 36.0131 14.5324C36.1173 14.4372 36.205 14.3612 36.2681 14.3078C36.2997 14.2811 36.3252 14.2599 36.3437 14.2447L36.3661 14.2265L36.3731 14.2209L36.3755 14.2189L36.3765 14.2182L36.3769 14.2179ZM31 23.4996L30.011 23.6478C29.942 23.187 30.2003 22.7397 30.6338 22.5691L31 23.4996ZM31 30.4996L30.011 30.6478C29.942 30.187 30.2003 29.7397 30.6338 29.5691L31 30.4996ZM31 37.4996L30.011 37.6478C29.942 37.187 30.2003 36.7397 30.6338 36.5691L31 37.4996ZM43.1962 37.4996L43.5624 36.5691C43.9959 36.7397 44.2541 37.187 44.1851 37.6478L43.1962 37.4996ZM43.1962 30.4996L43.5624 29.5691C43.9959 29.7397 44.2541 30.187 44.1851 30.6478L43.1962 30.4996ZM43.1962 23.4996L43.5624 22.5691C43.9959 22.7397 44.2541 23.187 44.1851 23.6478L43.1962 23.4996ZM37 15L36.3772 14.2176C36.7417 13.9275 37.2583 13.9275 37.6228 14.2176L37 15Z" fill="#333333"/>
</svg>
