<svg width="48" height="48" viewBox="0 0 48 48" fill="none" xmlns="http://www.w3.org/2000/svg">
<path fill-rule="evenodd" clip-rule="evenodd" d="M21.8287 22.0907C21.8636 18.562 21.9316 11.6903 16.4927 11.6947C9.04214 11.7009 3.74153 37.7117 6.93685 40.3628C10.1322 43.0139 16.5171 41.4164 19.7076 38.2293C22.2835 35.6563 22.0555 29.6487 21.8919 25.3363L21.8919 25.3363C21.8566 24.4071 21.8243 23.5565 21.8237 22.836C21.8236 22.6101 21.826 22.3601 21.8287 22.0907ZM15.9738 18.6952C14.8692 18.6961 13.973 17.8014 13.9721 16.6968C13.9712 15.5922 14.8659 14.6961 15.9705 14.6952C17.0751 14.6943 17.9712 15.589 17.9721 16.6935C17.973 17.7981 17.0783 18.6943 15.9738 18.6952ZM8.98851 36.7009C8.98941 37.8055 9.88557 38.7002 10.9901 38.6993C12.0947 38.6984 12.9894 37.8022 12.9885 36.6976C12.9876 35.5931 12.0914 34.6984 10.9869 34.6993C9.8823 34.7002 8.9876 35.5963 8.98851 36.7009ZM16.986 33.6944C15.8815 33.6953 14.9853 32.8006 14.9844 31.696C14.9835 30.5914 15.8782 29.6953 16.9828 29.6944C18.0873 29.6935 18.9835 30.5881 18.9844 31.6927C18.9853 32.7973 18.0906 33.6934 16.986 33.6944ZM9.98113 27.7001C9.98204 28.8047 10.8782 29.6994 11.9828 29.6984C13.0873 29.6975 13.982 28.8014 13.9811 27.6968C13.9802 26.5922 13.0841 25.6975 11.9795 25.6985C10.8749 25.6994 9.98023 26.5955 9.98113 27.7001ZM16.9787 24.6944C15.8741 24.6953 14.9779 23.8006 14.977 22.696C14.9761 21.5914 15.8708 20.6953 16.9754 20.6944C18.08 20.6935 18.9761 21.5881 18.977 22.6927C18.9779 23.7973 18.0832 24.6935 16.9787 24.6944Z" fill="#333333"/>
<path fill-rule="evenodd" clip-rule="evenodd" d="M26.1244 22.0872C26.0837 18.5586 26.0044 11.687 31.4433 11.6825C38.8939 11.6764 44.2371 37.6785 41.0461 40.3349C37.8552 42.9912 31.4676 41.4042 28.2719 38.2224C25.6918 35.6535 25.9099 29.6456 26.0665 25.3329C26.1003 24.4036 26.1311 23.553 26.1306 22.8325C26.1304 22.6066 26.1275 22.3566 26.1244 22.0872ZM31.9737 18.6821C33.0783 18.6812 33.973 17.785 33.9721 16.6805C33.9712 15.5759 33.075 14.6812 31.9705 14.6821C30.8659 14.683 29.9712 15.5792 29.9721 16.6837C29.973 17.7883 30.8692 18.683 31.9737 18.6821ZM38.9885 36.6764C38.9894 37.7809 38.0947 38.6771 36.9901 38.678C35.8856 38.6789 34.9894 37.7842 34.9885 36.6796C34.9876 35.5751 35.8823 34.6789 36.9868 34.678C38.0914 34.6771 38.9876 35.5718 38.9885 36.6764ZM30.986 33.6829C32.0906 33.682 32.9853 32.7858 32.9844 31.6813C32.9835 30.5767 32.0873 29.682 30.9828 29.6829C29.8782 29.6838 28.9835 30.58 28.9844 31.6845C28.9853 32.7891 29.8815 33.6838 30.986 33.6829ZM37.9811 27.6772C37.982 28.7817 37.0873 29.6779 35.9828 29.6788C34.8782 29.6797 33.982 28.785 33.9811 27.6805C33.9802 26.5759 34.8749 25.6797 35.9795 25.6788C37.084 25.6779 37.9802 26.5726 37.9811 27.6772ZM30.9787 24.6829C32.0832 24.682 32.9779 23.7858 32.977 22.6813C32.9761 21.5767 32.08 20.682 30.9754 20.6829C29.8708 20.6838 28.9761 21.58 28.977 22.6846C28.9779 23.7891 29.8741 24.6838 30.9787 24.6829Z" fill="#333333"/>
<path fill-rule="evenodd" clip-rule="evenodd" d="M22.9631 5.68964C22.9631 5.68956 22.9631 5.68952 23.9631 5.6887C24.9631 5.68788 24.9631 5.68792 24.9631 5.688L24.975 20.1879C24.9767 22.2901 24.0417 23.4965 22.9821 24.1158C22.4849 24.4064 21.9964 24.5476 21.6382 24.6175C21.4572 24.6529 21.3036 24.6712 21.1906 24.6807C21.1339 24.6855 21.0869 24.6881 21.0512 24.6895C21.0333 24.6902 21.0182 24.6906 21.0061 24.6908L20.9901 24.6911L20.9838 24.6911L20.9811 24.6911L20.9798 24.6911C20.9792 24.6911 20.9786 24.6911 20.9778 23.6911C20.977 22.6911 20.9765 22.6911 20.9759 22.6911L20.9749 22.6912L20.973 22.6912L20.9699 22.6912L20.9668 22.6912C20.9668 22.6912 20.9684 22.6912 20.9718 22.6911C20.9801 22.6907 20.9975 22.6899 21.0229 22.6877C21.0739 22.6834 21.1547 22.6742 21.2549 22.6546C21.4591 22.6147 21.7204 22.5366 21.9729 22.3891C22.4125 22.1321 22.9761 21.5873 22.975 20.1895L22.9631 5.68964Z" fill="#333333"/>
<path fill-rule="evenodd" clip-rule="evenodd" d="M24.9632 5.68805C24.9632 5.68797 24.9632 5.68793 23.9632 5.68874C22.9632 5.68956 22.9632 5.68961 22.9632 5.68969L22.9751 20.1896C22.9768 22.2918 23.9137 23.4966 24.9744 24.1142C25.4721 24.404 25.9607 24.5444 26.3191 24.6137C26.5001 24.6488 26.6538 24.6668 26.7668 24.6762C26.8235 24.6808 26.8705 24.6834 26.9062 24.6847C26.9241 24.6854 26.9392 24.6858 26.9513 24.686L26.9673 24.6862L26.9736 24.6863L26.9763 24.6863L26.9776 24.6863C26.9782 24.6863 26.9787 24.6863 26.9779 23.6863C26.9771 22.6863 26.9777 22.6863 26.9782 22.6863L26.9793 22.6863L26.9812 22.6863L26.9842 22.6863L26.9873 22.6863C26.9873 22.6863 26.9857 22.6863 26.9823 22.6862C26.9741 22.6859 26.9566 22.685 26.9312 22.6829C26.8802 22.6787 26.7994 22.6696 26.6992 22.6502C26.4949 22.6107 26.2334 22.533 25.9807 22.3858C25.5407 22.1296 24.9762 21.5857 24.9751 20.1879L24.9632 5.68805Z" fill="#333333"/>
</svg>
