<svg width="48" height="48" viewBox="0 0 48 48" fill="none" xmlns="http://www.w3.org/2000/svg">
<path d="M18 38C18 40.2091 16.2091 42 14 42C11.7909 42 10 40.2091 10 38C10 35.7909 11.7909 34 14 34C16.2091 34 18 35.7909 18 38Z" fill="#333333"/>
<path fill-rule="evenodd" clip-rule="evenodd" d="M14 40C15.1046 40 16 39.1046 16 38C16 36.8954 15.1046 36 14 36C12.8954 36 12 36.8954 12 38C12 39.1046 12.8954 40 14 40ZM14 42C16.2091 42 18 40.2091 18 38C18 35.7909 16.2091 34 14 34C11.7909 34 10 35.7909 10 38C10 40.2091 11.7909 42 14 42Z" fill="#333333"/>
<path d="M14 20C14 22.2091 12.2091 24 10 24C7.79086 24 6 22.2091 6 20C6 17.7909 7.79086 16 10 16C12.2091 16 14 17.7909 14 20Z" fill="#333333"/>
<path fill-rule="evenodd" clip-rule="evenodd" d="M10 22C11.1046 22 12 21.1046 12 20C12 18.8954 11.1046 18 10 18C8.89543 18 8 18.8954 8 20C8 21.1046 8.89543 22 10 22ZM10 24C12.2091 24 14 22.2091 14 20C14 17.7909 12.2091 16 10 16C7.79086 16 6 17.7909 6 20C6 22.2091 7.79086 24 10 24Z" fill="#333333"/>
<path d="M42 20C42 22.2091 40.2091 24 38 24C35.7909 24 34 22.2091 34 20C34 17.7909 35.7909 16 38 16C40.2091 16 42 17.7909 42 20Z" fill="#333333"/>
<path fill-rule="evenodd" clip-rule="evenodd" d="M38 22C39.1046 22 40 21.1046 40 20C40 18.8954 39.1046 18 38 18C36.8954 18 36 18.8954 36 20C36 21.1046 36.8954 22 38 22ZM38 24C40.2091 24 42 22.2091 42 20C42 17.7909 40.2091 16 38 16C35.7909 16 34 17.7909 34 20C34 22.2091 35.7909 24 38 24Z" fill="#333333"/>
<path d="M38 38C38 40.2091 36.2091 42 34 42C31.7909 42 30 40.2091 30 38C30 35.7909 31.7909 34 34 34C36.2091 34 38 35.7909 38 38Z" fill="#333333"/>
<path fill-rule="evenodd" clip-rule="evenodd" d="M34 40C35.1046 40 36 39.1046 36 38C36 36.8954 35.1046 36 34 36C32.8954 36 32 36.8954 32 38C32 39.1046 32.8954 40 34 40ZM34 42C36.2091 42 38 40.2091 38 38C38 35.7909 36.2091 34 34 34C31.7909 34 30 35.7909 30 38C30 40.2091 31.7909 42 34 42Z" fill="#333333"/>
<path d="M28 10C28 12.2091 26.2091 14 24 14C21.7909 14 20 12.2091 20 10C20 7.79086 21.7909 6 24 6C26.2091 6 28 7.79086 28 10Z" fill="#333333"/>
<path fill-rule="evenodd" clip-rule="evenodd" d="M24 12C25.1046 12 26 11.1046 26 10C26 8.89543 25.1046 8 24 8C22.8954 8 22 8.89543 22 10C22 11.1046 22.8954 12 24 12ZM24 14C26.2091 14 28 12.2091 28 10C28 7.79086 26.2091 6 24 6C21.7909 6 20 7.79086 20 10C20 12.2091 21.7909 14 24 14Z" fill="#333333"/>
<path fill-rule="evenodd" clip-rule="evenodd" d="M34.9187 19.028L25.9187 12.5994L27.0812 10.9719L36.0812 17.4005L34.9187 19.028ZM21.7844 12.8114L13.0812 19.028L11.9187 17.4005L20.6219 11.1839L21.7844 12.8114ZM11.6428 22.783L14.3095 34.783L12.3571 35.2169L9.69043 23.2169L11.6428 22.783ZM33.6904 34.783L36.246 23.283L38.1984 23.7169L35.6428 35.2169L33.6904 34.783ZM17 36.9999H31V38.9999H17V36.9999Z" fill="#333333"/>
</svg>
