<svg width="48" height="48" viewBox="0 0 48 48" fill="none" xmlns="http://www.w3.org/2000/svg">
<path fill-rule="evenodd" clip-rule="evenodd" d="M37.638 27.8114C37.3954 27.9413 37.1238 28.0089 36.848 28.008H34.9132L34.7585 36H33.4634C30.9635 36 28.5596 34.9767 26.7824 33.1448C25.0042 31.3119 24 28.8197 24 26.2149V14H33.6746C33.7612 14.3357 33.8232 14.6752 33.8218 14.9069L34.0152 18.0739C34.0152 18.0739 36.7427 22.1093 38.3623 25.7041C38.4745 25.9538 38.5218 26.2275 38.5 26.5C38.4782 26.7725 38.3878 27.0353 38.2373 27.2644C38.0867 27.4935 37.8807 27.6815 37.638 27.8114ZM32.7998 12H35.0209C36.8818 12 38.6602 12.7623 39.9665 14.1088C41.2718 15.4542 42 17.2728 42 19.1629V38H34.7198L34.7585 36H40V19.1629C40 17.784 39.4683 16.4675 38.531 15.5014C37.5948 14.5364 36.3315 14 35.0209 14H33.6746C33.5859 13.6564 33.4714 13.3167 33.3728 13.1006C33.1935 12.7153 33.0027 12.3487 32.7998 12ZM32.7998 12H22V12.1007H8.59562C11.8123 7.50879 17.6312 5.07418 23.9439 6.32729C28.1479 7.16283 30.9666 8.84925 32.7998 12ZM7.42784 14.1007L22 14.1007V19.3256H6.03728C6.19093 17.4312 6.67449 15.6751 7.42784 14.1007ZM5.99994 21.3256H22V26.2149C22 29.3309 23.2006 32.3251 25.3469 34.5374C26.6587 35.8895 28.2584 36.8818 30.0001 37.4494V38H27.5359V42H10.9585V31.6572C9.37752 30.2587 8.11598 28.5416 7.25825 26.6209C6.5104 24.9462 6.08455 23.1504 5.99994 21.3256Z" fill="#333333"/>
</svg>
