<svg width="48" height="48" viewBox="0 0 48 48" fill="none" xmlns="http://www.w3.org/2000/svg">
<path fill-rule="evenodd" clip-rule="evenodd" d="M9.00001 16.8683C9.00001 12.6419 20.1604 12.6419 20.1604 12.6419L21.061 11.0263C21.4141 10.3927 22.0826 10 22.8079 10H25.367C26.0923 10 26.7607 10.3926 27.1138 11.0261L28.0144 12.6415C28.0144 12.6415 39 12.6419 39 16.8683C39 16.9239 38.9999 16.9794 38.9997 17.0348L40.7306 17.4548C42.6516 17.9209 43.944 19.7203 43.7722 21.6895L43.2151 28.0768C43.0799 29.6273 42.0577 30.9585 40.5947 31.4894L33.8411 33.94C33.6801 33.9984 33.5139 34.013 33.3556 33.9897C29.2777 38 24.4839 38 24.4839 38H23.5161C23.5161 38 18.6505 38 14.5532 33.8992L7.36135 31.1024C5.95223 30.5544 4.9725 29.2587 4.82916 27.7536L4.25576 21.7329C4.06441 19.7237 5.39982 17.8868 7.37002 17.4489L9.00053 17.0866C9.00018 17.0141 9.00001 16.9413 9.00001 16.8683ZM35.6098 31.1706C37.3449 28.4082 38.6635 24.5285 38.9444 19.0794L40.259 19.3984C41.2195 19.6314 41.8657 20.5311 41.7798 21.5158L41.2227 27.9031C41.1551 28.6783 40.644 29.3439 39.9125 29.6093L35.6098 31.1706ZM9.05786 19.1226L7.80388 19.4013C6.81878 19.6202 6.15108 20.5387 6.24675 21.5433L6.82015 27.564C6.89182 28.3165 7.38169 28.9644 8.08625 29.2384L12.1826 30.8314C10.555 28.1007 9.33201 24.3299 9.05786 19.1226ZM24 18.4692L30.2425 20.0299C30.7783 20.1638 31.1041 20.7067 30.9701 21.2425C30.8362 21.7783 30.2933 22.1041 29.7575 21.9701L24 20.5308L18.2425 21.9701C17.7067 22.1041 17.1638 21.7783 17.0299 21.2425C16.8959 20.7067 17.2217 20.1638 17.7575 20.0299L24 18.4692Z" fill="#333333"/>
</svg>
