<svg width="48" height="48" viewBox="0 0 48 48" fill="none" xmlns="http://www.w3.org/2000/svg">
<path fill-rule="evenodd" clip-rule="evenodd" d="M3 6C3 4.89543 3.89543 4 5 4H24C24.1649 4 24.3252 4.01996 24.4785 4.0576C30.0914 3.63194 35.8496 5.56536 40.1421 9.85786C47.9526 17.6684 47.9526 30.3316 40.1421 38.1421C32.3316 45.9526 19.6684 45.9526 11.8579 38.1421C5.31423 31.5985 4.25286 21.6486 8.67376 14H5C3.89543 14 3 13.1046 3 12V6ZM23.9977 14C25.6679 15.6986 25.8302 18.7195 23.5915 20.4649L22.1931 21.5552C20.7379 22.6897 21.698 25.0201 23.53 24.8003C25.4201 24.5736 27.1889 25.7725 27.6783 27.6121L29.2165 33.3936C30.6611 32.8545 31.7835 32.073 32.633 31.2613L32.1638 31.2974C31.1913 31.3722 30.3067 30.7346 30.0701 29.7884L28.6559 24.1315C28.388 23.0599 29.0395 21.9741 30.1111 21.7062C31.1827 21.4383 32.2686 22.0898 32.5365 23.1614L33.541 27.1797L36.4532 26.9556C37.1344 26.9032 37.7951 27.2022 38.2055 27.7483C38.6159 28.2945 38.7191 29.0123 38.4793 29.652C37.5957 32.0083 34.261 37.1938 26.928 38.0086C25.933 38.1191 25.0096 37.4771 24.7668 36.5059L23.8377 32.7893L20.1211 33.7185C19.0495 33.9864 17.9637 33.3348 17.6958 32.2632C17.4279 31.1917 18.0794 30.1058 19.151 29.8379L24.8078 28.4237C25.1559 28.3367 25.5055 28.3466 25.8281 28.4365L25.7455 28.1264C25.5122 27.2495 24.6692 26.678 23.7682 26.7861C19.9247 27.2472 17.9105 22.3581 20.9633 19.9779L22.3618 18.8876C24.0991 17.5331 23.1413 14.7468 20.9384 14.7468L10.5555 14.7469C6.40482 21.663 7.31036 30.7662 13.2721 36.7279C20.3015 43.7574 31.6985 43.7574 38.7279 36.7279C45.7574 29.6985 45.7574 18.3015 38.7279 11.2721C35.2132 7.75736 30.6066 6 26 6V12C26 13.1046 25.1046 14 24 14H23.9977ZM7.86081 12.096C9.10881 12.096 9.87681 11.32 9.87681 10.264V10.248C9.87681 9.208 9.13281 8.808 8.37281 8.68L9.46881 7.632C9.69281 7.416 9.83681 7.248 9.83681 6.944C9.83681 6.608 9.57281 6.4 9.21281 6.4H6.48481C6.19681 6.4 5.95681 6.64 5.95681 6.928C5.95681 7.216 6.19681 7.456 6.48481 7.456H8.20481L7.11681 8.552C6.92481 8.744 6.85281 8.888 6.85281 9.056C6.85281 9.344 7.09281 9.584 7.38081 9.584H7.57281C8.26081 9.584 8.66881 9.84 8.66881 10.296V10.312C8.66881 10.728 8.34081 10.992 7.87681 10.992C7.43681 10.992 7.10081 10.848 6.78081 10.576C6.68481 10.496 6.56481 10.424 6.38881 10.424C6.06881 10.424 5.79681 10.696 5.79681 11.016C5.79681 11.192 5.89281 11.36 6.00481 11.456C6.46081 11.848 7.06081 12.096 7.86081 12.096ZM10.4456 11.416C10.4456 11.784 10.7256 12 11.1096 12H14.1496C14.4456 12 14.6856 11.768 14.6856 11.472C14.6856 11.176 14.4456 10.936 14.1496 10.936H12.1976L13.1096 10.232C14.1016 9.464 14.5816 9 14.5816 8.064V8.048C14.5816 7 13.8136 6.32 12.6536 6.32C11.8056 6.32 11.2776 6.624 10.8296 7.144C10.7416 7.248 10.6856 7.392 10.6856 7.528C10.6856 7.84 10.9336 8.088 11.2456 8.088C11.4376 8.088 11.5816 8 11.6616 7.912C11.9736 7.576 12.2216 7.424 12.5736 7.424C13.0136 7.424 13.3256 7.68 13.3256 8.152C13.3256 8.616 13.0536 8.928 12.3576 9.496L10.7656 10.8C10.5576 10.968 10.4456 11.176 10.4456 11.416ZM16.7339 11.584C16.8459 11.896 17.0779 12.088 17.3739 12.088H17.5019C17.7979 12.088 18.0219 11.904 18.1339 11.584L19.2379 8.376L20.3419 11.584C20.4539 11.904 20.6779 12.088 20.9739 12.088H21.1019C21.3979 12.088 21.6299 11.896 21.7419 11.584L23.3099 7.184C23.3339 7.112 23.3579 7.016 23.3579 6.944C23.3579 6.608 23.0859 6.352 22.7499 6.352C22.4459 6.352 22.2379 6.552 22.1579 6.792L21.0459 10.224L19.9259 6.824C19.8299 6.528 19.6139 6.336 19.3019 6.336H19.2059C18.8939 6.336 18.6779 6.536 18.5819 6.824L17.4619 10.224L16.3499 6.792C16.2699 6.536 16.0379 6.352 15.7499 6.352C15.4059 6.352 15.1179 6.608 15.1179 6.952C15.1179 7.024 15.1419 7.112 15.1659 7.184L16.7339 11.584ZM35.1924 24.7071C36.7545 26.2692 39.2871 26.2692 40.8492 24.7071C42.4113 23.145 42.4113 20.6123 40.8492 19.0503C39.2871 17.4882 36.7545 17.4882 35.1924 19.0503C33.6303 20.6123 33.6303 23.145 35.1924 24.7071Z" fill="#333333"/>
</svg>
