<svg width="48" height="48" viewBox="0 0 48 48" fill="none" xmlns="http://www.w3.org/2000/svg">
<path d="M32.0366 21.8021C31.1317 19.9604 30.0378 18.2216 28.773 16.6149C27.7845 14.9827 26.5154 13.5455 25.0265 12.372C24.0912 11.809 22.9858 11.615 21.9196 11.8267C20.4053 12.1592 19.5045 14.0612 18.7082 15.2316L16.0973 18.8494C15.9105 19.1225 15.8309 19.4571 15.8744 19.7871C15.9179 20.1171 16.0813 20.4185 16.3323 20.6317L21.0319 24.542C21.2473 24.7153 21.5108 24.815 21.785 24.8269C22.0592 24.8389 22.3301 24.7624 22.5592 24.6085C22.2459 25.8721 17.7944 38.7205 17.7422 38.8934H22.8464L23.0292 42.6707C23.0292 43.0235 23.1667 43.3618 23.4115 43.6112C23.6563 43.8607 23.9884 44.0008 24.3346 44.0008C24.6808 44.0008 25.0129 43.8607 25.2577 43.6112C25.5025 43.3618 25.64 43.0235 25.64 42.6707L25.8358 38.9732H30.457C30.457 38.6407 30.0001 32.0968 30.0393 31.3386C30.0785 30.5805 30.8878 30.1283 31.3447 29.6761C31.8757 29.1263 32.3165 28.4931 32.6502 27.8007C32.9226 27.1743 33.0818 26.5029 33.1201 25.8189C33.1006 24.4078 32.7276 23.0252 32.0366 21.8021ZM18.9823 19.5011L21.7237 16.309C21.9065 17.1868 22.1154 18.0647 22.3112 18.9691C22.6376 20.192 22.8087 21.4526 22.8203 22.7199C22.7721 22.6502 22.7198 22.5836 22.6636 22.5204L18.9823 19.5011Z" fill="#333333"/>
<path d="M26.4935 11C27.4276 10.9901 28.3197 10.6247 28.9754 9.98365C29.631 9.34255 29.997 8.4777 29.9935 7.57768C30.0226 7.11839 29.9538 6.65821 29.7914 6.22549C29.629 5.79276 29.3764 5.39663 29.0492 5.06149C28.7219 4.72634 28.3269 4.45928 27.8885 4.27673C27.4501 4.09417 26.9776 4 26.5 4C26.0224 4 25.5499 4.09417 25.1115 4.27673C24.6731 4.45928 24.2781 4.72634 23.9508 5.06149C23.6236 5.39663 23.371 5.79276 23.2086 6.22549C23.0462 6.65821 22.9774 7.11839 23.0065 7.57768C22.9996 8.47654 23.3626 9.34142 24.0162 9.98287C24.6698 10.6243 25.5606 10.9901 26.4935 11Z" fill="#333333"/>
</svg>
