<svg width="48" height="48" viewBox="0 0 48 48" fill="none" xmlns="http://www.w3.org/2000/svg">
<path fill-rule="evenodd" clip-rule="evenodd" d="M3 6C3 4.89543 3.89543 4 5 4H38C39.1046 4 40 4.89543 40 6V9.71711C40.0476 9.76375 40.0949 9.81066 40.1421 9.85786C47.9526 17.6684 47.9526 30.3316 40.1421 38.1421C32.3316 45.9526 19.6684 45.9526 11.8579 38.1421C5.31423 31.5985 4.25286 21.6486 8.67376 14H5C3.89543 14 3 13.1046 3 12V6ZM23.9977 14C25.6679 15.6986 25.8302 18.7195 23.5915 20.4649L22.1931 21.5552C20.7379 22.6897 21.698 25.0201 23.53 24.8003C25.4201 24.5736 27.1889 25.7725 27.6783 27.6121L29.2165 33.3936C30.6611 32.8545 31.7835 32.073 32.633 31.2613L32.1638 31.2974C31.1913 31.3722 30.3067 30.7346 30.0701 29.7884L28.6559 24.1315C28.388 23.0599 29.0395 21.9741 30.1111 21.7062C31.1827 21.4383 32.2686 22.0898 32.5365 23.1614L33.541 27.1797L36.4532 26.9556C37.1344 26.9032 37.7951 27.2022 38.2055 27.7483C38.6159 28.2945 38.7191 29.0123 38.4793 29.652C37.5957 32.0083 34.261 37.1938 26.928 38.0086C25.933 38.1191 25.0096 37.4771 24.7668 36.5059L23.8377 32.7893L20.1211 33.7185C19.0495 33.9864 17.9637 33.3348 17.6958 32.2632C17.4279 31.1917 18.0794 30.1058 19.151 29.8379L24.8078 28.4237C25.1559 28.3367 25.5055 28.3466 25.8281 28.4365L25.7455 28.1264C25.5122 27.2495 24.6692 26.678 23.7682 26.7861C19.9247 27.2472 17.9105 22.3581 20.9633 19.9779L22.3618 18.8876C24.0991 17.5331 23.1413 14.7468 20.9384 14.7468L10.5555 14.7469C6.40482 21.663 7.31036 30.7662 13.2721 36.7279C20.3015 43.7574 31.6985 43.7574 38.7279 36.7279C45.3366 30.1193 45.7322 19.6504 39.9147 12.5795C39.6663 13.4015 38.903 14 38 14H23.9977ZM5.344 11.416C5.344 11.784 5.624 12 6.008 12H9.048C9.344 12 9.584 11.768 9.584 11.472C9.584 11.176 9.344 10.936 9.048 10.936H7.096L8.008 10.232C9 9.464 9.48 9 9.48 8.064V8.048C9.48 7 8.712 6.32 7.552 6.32C6.704 6.32 6.176 6.624 5.728 7.144C5.64 7.248 5.584 7.392 5.584 7.528C5.584 7.84 5.832 8.088 6.144 8.088C6.336 8.088 6.48 8 6.56 7.912C6.872 7.576 7.12 7.424 7.472 7.424C7.912 7.424 8.224 7.68 8.224 8.152C8.224 8.616 7.952 8.928 7.256 9.496L5.664 10.8C5.456 10.968 5.344 11.176 5.344 11.416ZM12.8112 11.464C12.8112 11.792 13.0672 12.048 13.3952 12.048C13.7232 12.048 13.9872 11.792 13.9872 11.464V10.792H14.2832C14.5632 10.792 14.7872 10.576 14.7872 10.296C14.7872 10.016 14.5632 9.792 14.2832 9.792H13.9872V6.896C13.9872 6.568 13.7232 6.312 13.3952 6.312C13.0352 6.312 12.8592 6.456 12.6272 6.728L10.1952 9.552C10.0112 9.768 9.90719 9.968 9.90719 10.224C9.90719 10.552 10.1792 10.792 10.5072 10.792H12.8112V11.464ZM11.3232 9.792L12.8112 8.048V9.792H11.3232ZM15.8228 10.088H18.2068C18.5188 10.088 18.7748 9.832 18.7748 9.52C18.7748 9.208 18.5188 8.952 18.2068 8.952H15.8228C15.5108 8.952 15.2548 9.208 15.2548 9.52C15.2548 9.832 15.5108 10.088 15.8228 10.088ZM19.2334 11.416C19.2334 11.784 19.5134 12 19.8974 12H22.9374C23.2334 12 23.4734 11.768 23.4734 11.472C23.4734 11.176 23.2334 10.936 22.9374 10.936H20.9854L21.8974 10.232C22.8894 9.464 23.3694 9 23.3694 8.064V8.048C23.3694 7 22.6014 6.32 21.4414 6.32C20.5934 6.32 20.0654 6.624 19.6174 7.144C19.5294 7.248 19.4734 7.392 19.4734 7.528C19.4734 7.84 19.7214 8.088 20.0334 8.088C20.2254 8.088 20.3694 8 20.4494 7.912C20.7614 7.576 21.0094 7.424 21.3614 7.424C21.8014 7.424 22.1134 7.68 22.1134 8.152C22.1134 8.616 21.8414 8.928 21.1454 9.496L19.5534 10.8C19.3454 10.968 19.2334 11.176 19.2334 11.416ZM26.3458 12.096C27.5618 12.096 28.4818 11.304 28.4818 10.16V10.144C28.4818 8.976 27.6258 8.36 26.5138 8.36C25.9618 8.36 25.6338 8.536 25.3538 8.72C25.4338 7.984 25.7858 7.424 26.4818 7.424C26.8178 7.424 27.0498 7.504 27.3058 7.648C27.3938 7.696 27.5058 7.736 27.6098 7.736C27.9298 7.736 28.1938 7.488 28.1938 7.168C28.1938 6.92 28.0658 6.752 27.8738 6.64C27.5378 6.44 27.0818 6.304 26.5218 6.304C24.8498 6.304 24.0658 7.632 24.0658 9.36V9.376C24.0658 10.488 24.3218 11.088 24.7298 11.496C25.1218 11.888 25.6178 12.096 26.3458 12.096ZM26.2978 11.04C25.6898 11.04 25.3218 10.68 25.3218 10.208V10.192C25.3218 9.72 25.6738 9.384 26.2818 9.384C26.8898 9.384 27.2578 9.728 27.2578 10.2V10.216C27.2578 10.696 26.9058 11.04 26.2978 11.04ZM30.5786 11.584C30.6906 11.896 30.9226 12.088 31.2186 12.088H31.3466C31.6426 12.088 31.8666 11.904 31.9786 11.584L33.0826 8.376L34.1866 11.584C34.2986 11.904 34.5226 12.088 34.8186 12.088H34.9466C35.2426 12.088 35.4746 11.896 35.5866 11.584L37.1546 7.184C37.1786 7.112 37.2026 7.016 37.2026 6.944C37.2026 6.608 36.9306 6.352 36.5946 6.352C36.2906 6.352 36.0826 6.552 36.0026 6.792L34.8906 10.224L33.7706 6.824C33.6746 6.528 33.4586 6.336 33.1466 6.336H33.0506C32.7386 6.336 32.5226 6.536 32.4266 6.824L31.3066 10.224L30.1946 6.792C30.1146 6.536 29.8826 6.352 29.5946 6.352C29.2506 6.352 28.9626 6.608 28.9626 6.952C28.9626 7.024 28.9866 7.112 29.0106 7.184L30.5786 11.584ZM35.1924 24.7071C36.7545 26.2692 39.2871 26.2692 40.8492 24.7071C42.4113 23.145 42.4113 20.6123 40.8492 19.0503C39.2871 17.4882 36.7545 17.4882 35.1924 19.0503C33.6303 20.6123 33.6303 23.145 35.1924 24.7071Z" fill="#333333"/>
</svg>
