<svg width="48" height="48" viewBox="0 0 48 48" fill="none" xmlns="http://www.w3.org/2000/svg">
<path d="M29 8C29 10.2091 27.2091 12 25 12C22.7909 12 21 10.2091 21 8C21 5.79086 22.7909 4 25 4C27.2091 4 29 5.79086 29 8Z" fill="#333333"/>
<path fill-rule="evenodd" clip-rule="evenodd" d="M21.6513 27.4698C21.3612 27.4187 21.0779 27.3024 20.8236 27.1175L15.3236 23.1175C14.4692 22.4961 14.2454 21.3175 14.8126 20.4262L16.4999 21.5C14.8126 20.4262 14.8127 20.4261 14.8128 20.4259L14.8132 20.4254L14.8141 20.424L14.8168 20.4197L14.826 20.4052L14.8592 20.3536C14.8877 20.3095 14.9287 20.2464 14.9808 20.1668C15.0851 20.0079 15.2343 19.783 15.4178 19.514C15.7829 18.9784 16.2914 18.2562 16.8548 17.5271C17.4093 16.8096 18.0581 16.0313 18.7034 15.4141C19.0242 15.1072 19.393 14.7926 19.7901 14.5431C20.1452 14.3198 20.7523 14 21.4999 14H21.5087H21.5175H21.5262H21.5349H21.5436H21.5522H21.5609H21.5695H21.5781H21.5867H21.5952H21.6037H21.6123H21.6207H21.6292H21.6376H21.646H21.6544H21.6628H21.6712H21.6795H21.6878H21.6961H21.7043H21.7126H21.7208H21.729H21.7371H21.7453H21.7534H21.7615H21.7696H21.7776H21.7857H21.7937H21.8017H21.8096H21.8176H21.8255H21.8334H21.8413H21.8491H21.857H21.8648H21.8726H21.8804H21.8881H21.8958H21.9035H21.9112H21.9189H21.9265H21.9341H21.9417H21.9493H21.9569H21.9644H21.9719H21.9794H21.9869H21.9943H22.0017H22.0091H22.0165H22.0239H22.0312H22.0385H22.0458H22.0531H22.0604H22.0676H22.0748H22.082H22.0892H22.0963H22.1034H22.1105H22.1176H22.1247H22.1317H22.1387H22.1457H22.1527H22.1597H22.1666H22.1735H22.1804H22.1873H22.1941H22.201H22.2078H22.2146H22.2213H22.2281H22.2348H22.2415H22.2482H22.2548H22.2615H22.2681H22.2747H22.2813H22.2879H22.2944H22.3009H22.3074H22.3139H22.3203H22.3268H22.3332H22.3396H22.346H22.3523H22.3587H22.365H22.3713H22.3775H22.3838H22.39H22.3962H22.4024H22.4086H22.4148H22.4209H22.427H22.4331H22.4392H22.4452H22.4513H22.4573H22.4633H22.4692H22.4752H22.4811H22.487H22.4929H22.4988H22.5047H22.5105H22.5163H22.5221H22.5279H22.5336H22.5394H22.5451H22.5508H22.5564H22.5621H22.5677H22.5734H22.579H22.5845H22.5901H22.5956H22.6012H22.6067H22.6121H22.6176H22.623H22.6285H22.6339H22.6392H22.6446H22.65H22.6553H22.6606H22.6659H22.6711H22.6764H22.6816H22.6868H22.692H22.6972H22.7024H22.7075H22.7126H22.7177H22.7228H22.7278H22.7329H22.7379H22.7429H22.7479H22.7529H22.7578H22.7627H22.7676H22.7725H22.7774H22.7823H22.7871H22.7919H22.7967H22.8015H22.8062H22.811H22.8157H22.8204H22.8251H22.8298H22.8344H22.8391H22.8437H22.8483H22.8528H22.8574H22.8619H22.8665H22.871H22.8754H22.8799H22.8844H22.8888H22.8932H22.8976H22.902H22.9063H22.9107H22.915H22.9193H22.9236H22.9278H22.9321H22.9363H22.9405H22.9447H22.9489H22.9531H22.9572H22.9613H22.9654H22.9695H22.9736H22.9777H22.9817H22.9857H22.9897H22.9937H22.9977H23.0016H23.0055H23.0095H23.0134H23.0172H23.0211H23.0249H23.0288H23.0326H23.0364H23.0401H23.0439H23.0476H23.0514H23.0551H23.0587H23.0624H23.0661H23.0697H23.0733H23.0769H23.0805H23.0841H23.0876H23.0912H23.0947H23.0982H23.1017H23.1051H23.1086H23.112H23.1154H23.1188H23.1222H23.1256H23.1289H23.1323H23.1356H23.1389H23.1422H23.1454H23.1487H23.1519H23.1551H23.1583H23.1615H23.1647H23.1678H23.1709H23.1741H23.1772H23.1802H23.1833H23.1864H23.1894H23.1924H23.1954H23.1984H23.2014H23.2043H23.2073H23.2102H23.2131H23.216H23.2188H23.2217H23.2245H23.2274H23.2302H23.233H23.2357H23.2385H23.2412H23.244H23.2467H23.2494H23.2521H23.2547H23.2574H23.26H23.2626H23.2652H23.2678H23.2704H23.2729H23.2755H23.278H23.2805H23.283H23.2855H23.2879H23.2904H23.2928H23.2952H23.2976H23.3H23.3024H23.3047H23.3071H23.3094H23.3117H23.314H23.3162H23.3185H23.3208H23.323H23.3252H23.3274H23.3296H23.3318H23.3339H23.3361H23.3382H23.3403H23.3424H23.3445H23.3465H23.3486H23.3506H23.3526H23.3546H23.3566H23.3586H23.3606H23.3625H23.3644H23.3664H23.3683H23.3701H23.372H23.3739H23.3757H23.3775H23.3794H23.3812H23.3829H23.3847H23.3865H23.3882H23.3899H23.3917H23.3933H23.395H23.3967H23.3984H23.4H23.4016H23.4032H23.4048H23.4064H23.408H23.4095H23.4111H23.4126H23.4141H23.4156H23.4171H23.4186H23.42H23.4215H23.4229H23.4243H23.4257H23.4271H23.4285H23.4298H23.4312H23.4325H23.4338H23.4351H23.4364H23.4377H23.439H23.4402H23.4415H23.4427H23.4439H23.4451H23.4463H23.4474H23.4486H23.4497H23.4509H23.452H23.4531H23.4542H23.4552H23.4563H23.4573H23.4584H23.4594H23.4604H23.4614H23.4624H23.4633H23.4643H23.4652H23.4662H23.4671H23.468H23.4689H23.4697H23.4706H23.4715H23.4723H23.4731H23.4739H23.4747H23.4755H23.4763H23.477H23.4778H23.4785H23.4792H23.4799H23.4806H23.4813H23.482H23.4826H23.4833H23.4839H23.4845H23.4851H23.4857H23.4863H23.4869H23.4874H23.488H23.4885H23.489H23.4895H23.49H23.4905H23.491H23.4915H23.4919H23.4923H23.4928H23.4932H23.4936H23.4939H23.4943H23.4947H23.495H23.4954H23.4957H23.496H23.4963H23.4966H23.4968H23.4971H23.4974H23.4976H23.4978H23.498H23.4982H23.4984H23.4986H23.4988H23.4989H23.4991H23.4992H23.4993H23.4995H23.4996H23.4996H23.4997H23.4998H23.4998H23.4999H23.4999H23.4999C23.9226 14 24.3344 14.1339 24.6763 14.3825L23.4999 16C24.6763 14.3825 24.6766 14.3828 24.677 14.3831L24.6778 14.3837L24.6799 14.3852L24.6856 14.3894L24.703 14.4021L24.7606 14.445C24.8091 14.4812 24.8771 14.5327 24.9625 14.5986C25.1332 14.7304 25.3739 14.9206 25.6666 15.1631C26.2508 15.6471 27.0487 16.3454 27.9141 17.2108C29.6142 18.9108 31.7092 21.3881 32.8569 24.2572C33.5216 25.9191 33.5381 27.4778 33.0046 28.8499C32.4916 30.1688 31.5525 31.1052 30.6763 31.7425C29.7955 32.383 28.8686 32.8021 28.1921 33.0581C27.9103 33.1647 27.6612 33.247 27.4621 33.3079L25.9999 41V42C25.9999 43.1046 25.1045 44 23.9999 44C22.8953 44 21.9999 43.1046 21.9999 42V41C21.9999 35.1449 21.9969 31.3427 21.6513 27.4698ZM20.993 22.2947C20.8446 21.3793 20.6742 20.4199 20.4787 19.3964C20.3272 19.5808 20.1736 19.7741 20.02 19.9729C19.7444 20.3296 19.4806 20.6884 19.2427 21.0217L20.993 22.2947Z" fill="#333333"/>
</svg>
