<svg width="48" height="48" viewBox="0 0 48 48" fill="none" xmlns="http://www.w3.org/2000/svg">
<path fill-rule="evenodd" clip-rule="evenodd" d="M3 6C3 4.89543 3.89543 4 5 4H37C38.1046 4 39 4.89543 39 6V8.80002C39.3909 9.13509 39.772 9.48771 40.1421 9.85786C47.9526 17.6684 47.9526 30.3316 40.1421 38.1421C32.3316 45.9526 19.6684 45.9526 11.8579 38.1421C5.31423 31.5985 4.25286 21.6486 8.67376 14H5C3.89543 14 3 13.1046 3 12V6ZM23.9977 14C25.6679 15.6986 25.8302 18.7195 23.5915 20.4649L22.1931 21.5552C20.7379 22.6897 21.698 25.0201 23.53 24.8003C25.4201 24.5736 27.1889 25.7725 27.6783 27.6121L29.2165 33.3936C30.6611 32.8545 31.7835 32.073 32.633 31.2613L32.1638 31.2974C31.1913 31.3722 30.3067 30.7346 30.0701 29.7884L28.6559 24.1315C28.388 23.0599 29.0395 21.9741 30.1111 21.7062C31.1827 21.4383 32.2686 22.0898 32.5365 23.1614L33.541 27.1797L36.4532 26.9556C37.1344 26.9032 37.7951 27.2022 38.2055 27.7483C38.6159 28.2945 38.7191 29.0123 38.4793 29.652C37.5957 32.0083 34.261 37.1938 26.928 38.0086C25.933 38.1191 25.0096 37.4771 24.7668 36.5059L23.8377 32.7893L20.1211 33.7185C19.0495 33.9864 17.9637 33.3348 17.6958 32.2632C17.4279 31.1917 18.0794 30.1058 19.151 29.8379L24.8078 28.4237C25.1559 28.3367 25.5055 28.3466 25.8281 28.4365L25.7455 28.1264C25.5122 27.2495 24.6692 26.678 23.7682 26.7861C19.9247 27.2472 17.9105 22.3581 20.9633 19.9779L22.3618 18.8876C24.0991 17.5331 23.1413 14.7468 20.9384 14.7468L10.5555 14.7469C6.40482 21.663 7.31036 30.7662 13.2721 36.7279C20.3015 43.7574 31.6985 43.7574 38.7279 36.7279C45.6655 29.7904 45.7562 18.5988 39 11.55V12C39 13.1046 38.1046 14 37 14H23.9977ZM7.488 12.096C8.736 12.096 9.504 11.32 9.504 10.264V10.248C9.504 9.208 8.76 8.808 8 8.68L9.096 7.632C9.32 7.416 9.464 7.248 9.464 6.944C9.464 6.608 9.2 6.4 8.84 6.4H6.112C5.824 6.4 5.584 6.64 5.584 6.928C5.584 7.216 5.824 7.456 6.112 7.456H7.832L6.744 8.552C6.552 8.744 6.48 8.888 6.48 9.056C6.48 9.344 6.72 9.584 7.008 9.584H7.2C7.888 9.584 8.296 9.84 8.296 10.296V10.312C8.296 10.728 7.968 10.992 7.504 10.992C7.064 10.992 6.728 10.848 6.408 10.576C6.312 10.496 6.192 10.424 6.016 10.424C5.696 10.424 5.424 10.696 5.424 11.016C5.424 11.192 5.52 11.36 5.632 11.456C6.088 11.848 6.688 12.096 7.488 12.096ZM12.4408 12.096C13.6568 12.096 14.5767 11.304 14.5767 10.16V10.144C14.5767 8.976 13.7208 8.36 12.6088 8.36C12.0568 8.36 11.7288 8.536 11.4488 8.72C11.5288 7.984 11.8808 7.424 12.5767 7.424C12.9128 7.424 13.1448 7.504 13.4008 7.648C13.4888 7.696 13.6007 7.736 13.7048 7.736C14.0247 7.736 14.2888 7.488 14.2888 7.168C14.2888 6.92 14.1608 6.752 13.9688 6.64C13.6328 6.44 13.1768 6.304 12.6168 6.304C10.9448 6.304 10.1608 7.632 10.1608 9.36V9.376C10.1608 10.488 10.4168 11.088 10.8248 11.496C11.2168 11.888 11.7128 12.096 12.4408 12.096ZM12.3927 11.04C11.7847 11.04 11.4167 10.68 11.4167 10.208V10.192C11.4167 9.72 11.7688 9.384 12.3768 9.384C12.9848 9.384 13.3528 9.728 13.3528 10.2V10.216C13.3528 10.696 13.0008 11.04 12.3927 11.04ZM15.7056 10.088H18.0896C18.4016 10.088 18.6576 9.832 18.6576 9.52C18.6576 9.208 18.4016 8.952 18.0896 8.952H15.7056C15.3936 8.952 15.1376 9.208 15.1376 9.52C15.1376 9.832 15.3936 10.088 15.7056 10.088ZM21.1821 12.096C22.4301 12.096 23.1981 11.32 23.1981 10.264V10.248C23.1981 9.208 22.4541 8.808 21.6941 8.68L22.7901 7.632C23.0141 7.416 23.1581 7.248 23.1581 6.944C23.1581 6.608 22.8941 6.4 22.5341 6.4H19.8061C19.5181 6.4 19.2781 6.64 19.2781 6.928C19.2781 7.216 19.5181 7.456 19.8061 7.456H21.5261L20.4381 8.552C20.2461 8.744 20.1741 8.888 20.1741 9.056C20.1741 9.344 20.4141 9.584 20.7021 9.584H20.8941C21.5821 9.584 21.9901 9.84 21.9901 10.296V10.312C21.9901 10.728 21.6621 10.992 21.1981 10.992C20.7581 10.992 20.4221 10.848 20.1021 10.576C20.0061 10.496 19.8861 10.424 19.7101 10.424C19.3901 10.424 19.1181 10.696 19.1181 11.016C19.1181 11.192 19.2141 11.36 19.3261 11.456C19.7821 11.848 20.3821 12.096 21.1821 12.096ZM25.9428 12.08C27.1828 12.08 28.1028 11.472 28.1028 10.432V10.416C28.1028 9.752 27.7668 9.392 27.1988 9.096C27.6308 8.832 27.9108 8.472 27.9108 7.872V7.856C27.9108 6.992 27.1268 6.32 25.9428 6.32C24.7588 6.32 23.9748 7 23.9748 7.856V7.872C23.9748 8.472 24.2548 8.832 24.6868 9.096C24.0948 9.368 23.7828 9.768 23.7828 10.448V10.464C23.7828 11.44 24.7028 12.08 25.9428 12.08ZM25.9428 8.688C25.4548 8.688 25.1428 8.392 25.1428 8V7.984C25.1428 7.64 25.4388 7.336 25.9428 7.336C26.4468 7.336 26.7428 7.648 26.7428 7.992V8.008C26.7428 8.4 26.4308 8.688 25.9428 8.688ZM25.9428 11.064C25.3348 11.064 24.9748 10.752 24.9748 10.368V10.352C24.9748 9.92 25.3828 9.664 25.9428 9.664C26.5028 9.664 26.9108 9.92 26.9108 10.352V10.368C26.9108 10.76 26.5508 11.064 25.9428 11.064ZM30.1099 11.584C30.2219 11.896 30.4539 12.088 30.7499 12.088H30.8779C31.1739 12.088 31.3979 11.904 31.5099 11.584L32.6139 8.376L33.7179 11.584C33.8299 11.904 34.0539 12.088 34.3499 12.088H34.4779C34.7739 12.088 35.0059 11.896 35.1179 11.584L36.6859 7.184C36.7099 7.112 36.7339 7.016 36.7339 6.944C36.7339 6.608 36.4619 6.352 36.1259 6.352C35.8219 6.352 35.6139 6.552 35.5339 6.792L34.4219 10.224L33.3019 6.824C33.2059 6.528 32.9899 6.336 32.6779 6.336H32.5819C32.2699 6.336 32.0539 6.536 31.9579 6.824L30.8379 10.224L29.7259 6.792C29.6459 6.536 29.4139 6.352 29.1259 6.352C28.7819 6.352 28.4939 6.608 28.4939 6.952C28.4939 7.024 28.5179 7.112 28.5419 7.184L30.1099 11.584ZM35.1924 24.7071C36.7545 26.2692 39.2871 26.2692 40.8492 24.7071C42.4113 23.145 42.4113 20.6123 40.8492 19.0503C39.2871 17.4882 36.7545 17.4882 35.1924 19.0503C33.6303 20.6123 33.6303 23.145 35.1924 24.7071Z" fill="#333333"/>
</svg>
