<svg width="48" height="48" viewBox="0 0 48 48" fill="none" xmlns="http://www.w3.org/2000/svg">
<path fill-rule="evenodd" clip-rule="evenodd" d="M3 6C3 4.89543 3.89543 4 5 4H31C31.8195 4 32.5239 4.49286 32.8329 5.19834C35.5003 6.16576 38.0032 7.71893 40.1421 9.85786C47.9526 17.6684 47.9526 30.3316 40.1421 38.1421C32.3316 45.9526 19.6684 45.9526 11.8579 38.1421C5.31423 31.5985 4.25286 21.6486 8.67376 14H5C3.89543 14 3 13.1046 3 12V6ZM23.9977 14C25.6679 15.6986 25.8302 18.7195 23.5915 20.4649L22.1931 21.5552C20.7379 22.6897 21.698 25.0201 23.53 24.8003C25.4201 24.5736 27.1889 25.7725 27.6783 27.6121L29.2165 33.3936C30.6611 32.8545 31.7835 32.073 32.633 31.2613L32.1638 31.2974C31.1913 31.3722 30.3067 30.7346 30.0701 29.7884L28.6559 24.1315C28.388 23.0599 29.0395 21.9741 30.1111 21.7062C31.1827 21.4383 32.2686 22.0898 32.5365 23.1614L33.541 27.1797L36.4532 26.9556C37.1344 26.9032 37.7951 27.2022 38.2055 27.7483C38.6159 28.2945 38.7191 29.0123 38.4793 29.652C37.5957 32.0083 34.261 37.1938 26.928 38.0086C25.933 38.1191 25.0096 37.4771 24.7668 36.5059L23.8377 32.7893L20.1211 33.7185C19.0495 33.9864 17.9637 33.3348 17.6958 32.2632C17.4279 31.1917 18.0794 30.1058 19.151 29.8379L24.8078 28.4237C25.1559 28.3367 25.5055 28.3466 25.8281 28.4365L25.7455 28.1264C25.5122 27.2495 24.6692 26.678 23.7682 26.7861C19.9247 27.2472 17.9105 22.3581 20.9633 19.9779L22.3618 18.8876C24.0991 17.5331 23.1413 14.7468 20.9384 14.7468L10.5555 14.7469C6.40482 21.663 7.31036 30.7662 13.2721 36.7279C20.3015 43.7574 31.6985 43.7574 38.7279 36.7279C45.7574 29.6985 45.7574 18.3015 38.7279 11.2721C37.032 9.57611 35.0818 8.28932 33 7.41172V12C33 13.1046 32.1046 14 31 14H23.9977ZM29.6056 6.3628C29.7677 6.39579 29.9295 6.43102 30.0908 6.46851C30.2378 6.57488 30.3328 6.74547 30.3328 6.944C30.3328 7.016 30.3088 7.112 30.2848 7.184L28.7168 11.584C28.6048 11.896 28.3728 12.088 28.0768 12.088H27.9488C27.6528 12.088 27.4288 11.904 27.3168 11.584L26.2128 8.376L25.1088 11.584C24.9968 11.904 24.7728 12.088 24.4768 12.088H24.3488C24.0528 12.088 23.8208 11.896 23.7088 11.584L22.1408 7.184C22.1168 7.112 22.0928 7.024 22.0928 6.952C22.0928 6.608 22.3808 6.352 22.7248 6.352C23.0128 6.352 23.2448 6.536 23.3248 6.792L24.4368 10.224L25.5568 6.824C25.6528 6.536 25.8688 6.336 26.1808 6.336H26.2768C26.5888 6.336 26.8048 6.528 26.9008 6.824L28.0208 10.224L29.1328 6.792C29.2018 6.5848 29.3663 6.40742 29.6056 6.3628ZM7.91797 12.08C9.15797 12.08 10.078 11.472 10.078 10.432V10.416C10.078 9.752 9.74197 9.392 9.17397 9.096C9.60597 8.832 9.88597 8.472 9.88597 7.872V7.856C9.88597 6.992 9.10197 6.32 7.91797 6.32C6.73397 6.32 5.94997 7 5.94997 7.856V7.872C5.94997 8.472 6.22997 8.832 6.66197 9.096C6.06997 9.368 5.75797 9.768 5.75797 10.448V10.464C5.75797 11.44 6.67797 12.08 7.91797 12.08ZM7.91797 8.688C7.42997 8.688 7.11797 8.392 7.11797 8V7.984C7.11797 7.64 7.41397 7.336 7.91797 7.336C8.42197 7.336 8.71797 7.648 8.71797 7.992V8.008C8.71797 8.4 8.40597 8.688 7.91797 8.688ZM7.91797 11.064C7.30997 11.064 6.94997 10.752 6.94997 10.368V10.352C6.94997 9.92 7.35797 9.664 7.91797 9.664C8.47797 9.664 8.88597 9.92 8.88597 10.352V10.368C8.88597 10.76 8.52597 11.064 7.91797 11.064ZM11.117 10.088H13.501C13.813 10.088 14.069 9.832 14.069 9.52C14.069 9.208 13.813 8.952 13.501 8.952H11.117C10.805 8.952 10.549 9.208 10.549 9.52C10.549 9.832 10.805 10.088 11.117 10.088ZM15.3654 11.44C15.3654 11.776 15.6374 12.048 15.9734 12.048C16.3094 12.048 16.5814 11.776 16.5814 11.44V6.928C16.5814 6.592 16.3094 6.32 15.9734 6.32H15.9574C15.7894 6.32 15.6134 6.36 15.3814 6.424L14.5894 6.656C14.3414 6.728 14.1814 6.936 14.1814 7.184C14.1814 7.472 14.4294 7.712 14.7174 7.712C14.7814 7.712 14.8694 7.696 14.9334 7.68L15.3654 7.568V11.44ZM17.4204 11.416C17.4204 11.784 17.7004 12 18.0844 12H21.1244C21.4204 12 21.6604 11.768 21.6604 11.472C21.6604 11.176 21.4204 10.936 21.1244 10.936H19.1724L20.0844 10.232C21.0764 9.464 21.5564 9 21.5564 8.064V8.048C21.5564 7 20.7884 6.32 19.6284 6.32C18.7804 6.32 18.2524 6.624 17.8044 7.144C17.7164 7.248 17.6604 7.392 17.6604 7.528C17.6604 7.84 17.9084 8.088 18.2204 8.088C18.4124 8.088 18.5564 8 18.6364 7.912C18.9484 7.576 19.1964 7.424 19.5484 7.424C19.9884 7.424 20.3004 7.68 20.3004 8.152C20.3004 8.616 20.0284 8.928 19.3324 9.496L17.7404 10.8C17.5324 10.968 17.4204 11.176 17.4204 11.416ZM35.1924 24.7071C36.7545 26.2692 39.2871 26.2692 40.8492 24.7071C42.4113 23.145 42.4113 20.6123 40.8492 19.0503C39.2871 17.4882 36.7545 17.4882 35.1924 19.0503C33.6303 20.6123 33.6303 23.145 35.1924 24.7071Z" fill="#333333"/>
</svg>
