<svg width="48" height="48" viewBox="0 0 48 48" fill="none" xmlns="http://www.w3.org/2000/svg">
<path fill-rule="evenodd" clip-rule="evenodd" d="M34 14.4143L35.2929 15.7072L36.7071 14.293L32.7071 10.293L31.2929 11.7072L32.5858 13.0001L29.5 16.0859L28.7071 15.293L28 14.5859L26.7071 13.293L25.2929 14.7072L26.5858 16.0001L20.7071 21.8788C19.7517 22.8342 19.5754 24.2737 20.1783 25.4077L17.4695 28.1164L15.4098 25.5814L9.3843 31.9613L12.3034 34.5155C13.3971 35.4726 14.8011 36.0001 16.2544 36.0001H31C31 37.1046 31.8954 38.0001 33 38.0001H35.5C35.5 38.0001 34 37.0001 34 35.0001V30.0001H35H37V31.0001C37 31.5524 37.4477 32.0001 38 32.0001H39V29.0001C39 27.8955 38.1046 27.0001 37 27.0001H34L31 30.0001H19.9519C19.9118 30.0001 19.8719 29.9989 19.8321 29.9965L17.8284 32.0002H16.4142L21.5925 26.8219C22.7265 27.4246 24.166 27.2483 25.1213 26.293L31 20.4143L32.2929 21.7072L33.7071 20.293L32.4142 19.0001L31.7071 18.293L30.9142 17.5001L34 14.4143ZM29.5858 19.0001L28 17.4143L25.9142 19.5001L27.5 21.0859L29.5858 19.0001ZM40 28.0001V33.0001H38C36.4 33.0001 36 31.6667 36 31.0001H35V33.0001V35.0001C35 36.5001 36.5 38.0001 38 38.0001H41.0001C42.1047 38.0001 43 37.1046 43 36.0001V30.0001C43 28.8955 42.1046 28.0001 41 28.0001H40ZM14.1376 24.0156L7.87806 30.6434L6 29.0001V14.0001L14.1376 24.0156Z" fill="#333333"/>
</svg>
