<svg width="48" height="48" viewBox="0 0 48 48" fill="none" xmlns="http://www.w3.org/2000/svg">
<path fill-rule="evenodd" clip-rule="evenodd" d="M23.1053 5.53741C23.4737 4.79971 24.5263 4.7997 24.8947 5.5374L43.8767 43.5533C44.2087 44.2182 43.7252 45 42.982 45H5.01801C4.27487 45 3.79136 44.2182 4.12334 43.5533L23.1053 5.53741ZM22 39C22 37.8954 22.8954 37 24 37C25.1046 37 26 37.8954 26 39C26 40.1046 25.1046 41 24 41C22.8954 41 22 40.1046 22 39ZM32 26.6315C32 24.4165 30.9921 22.7005 29.4793 21.5871C28.0367 20.5254 26.2235 20.064 24.5176 20.0063C22.8019 19.9483 21.0022 20.2903 19.4872 21.0474C17.9814 21.7999 16.5556 23.0778 16.0641 24.9727C15.7867 26.0419 16.4286 27.1334 17.4978 27.4108C18.567 27.6881 19.6586 27.0462 19.9359 25.977C20.0444 25.5589 20.4186 25.0537 21.2753 24.6255C22.1228 24.202 23.2481 23.9657 24.3824 24.004C25.5265 24.0427 26.4883 24.3523 27.1082 24.8086C27.6579 25.2132 28 25.7623 28 26.6315C28 27.4396 27.5792 28.0977 26.7097 28.6631C25.8021 29.2533 24.6457 29.5575 23.8797 29.6036C22.8238 29.6672 22 30.5421 22 31.6V34C22 35.1046 22.8954 36 24 36C25.1046 36 26 35.1046 26 34V33.2811C26.9587 33.0253 27.9737 32.6125 28.8903 32.0165C30.4875 30.9779 32 29.2161 32 26.6315Z" fill="#333333"/>
</svg>
