<svg width="48" height="48" viewBox="0 0 48 48" fill="none" xmlns="http://www.w3.org/2000/svg">
<path d="M20.2973 4.69719C19.9068 4.30667 19.2736 4.30667 18.8831 4.69719C18.4926 5.08771 18.4926 5.72088 18.8831 6.1114L22.4737 9.702L18.9836 13.1921C18.5931 13.5826 18.5931 14.2158 18.9836 14.6063C19.3741 14.9968 20.0073 14.9968 20.3978 14.6063L23.8879 11.1162L27.3684 14.5967C27.7589 14.9872 28.3921 14.9872 28.7826 14.5967C29.1731 14.2062 29.1731 13.573 28.7826 13.1825L25.3021 9.702L28.8831 6.12102C29.2736 5.73049 29.2736 5.09733 28.8831 4.7068C28.4926 4.31628 27.8594 4.31628 27.4689 4.7068L23.8879 8.28778L20.2973 4.69719Z" fill="#333333"/>
<path fill-rule="evenodd" clip-rule="evenodd" d="M24.4922 15.0513C24.287 14.9829 24.0651 14.9829 23.8599 15.0513L9.04454 19.9889C8.81542 20.0652 8.62814 20.2191 8.50787 20.4154L4.57676 25.4612C4.37721 25.7173 4.31444 26.0544 4.40841 26.3652C4.46793 26.5621 4.58565 26.7329 4.74224 26.8577L20.1859 32.0093L23.3862 27.8871C23.5754 27.6434 23.8666 27.5007 24.1752 27.5004C24.4838 27.5001 24.7752 27.6424 24.9649 27.8858L28.1826 32.0159L43.582 26.887C43.7578 26.7602 43.8901 26.5779 43.9544 26.3652C44.0483 26.0544 43.9856 25.7173 43.786 25.4612L39.7829 20.323C39.6498 20.1521 39.469 20.0336 39.2704 19.9765L24.4922 15.0513ZM24.1801 24.8197L35.8286 20.9376L24.176 17.0541L12.5275 20.9362L24.1801 24.8197Z" fill="#333333"/>
<path d="M29.7469 37.6771C29.4722 37.7801 29.2303 38.0469 29.2066 38.2729C29.1829 38.4989 29.3863 38.5986 29.661 38.4956C29.9357 38.3926 30.1776 38.1258 30.2013 37.8998C30.225 37.6738 30.0216 37.5741 29.7469 37.6771Z" fill="#333333"/>
<path d="M30.4474 37.8313C30.4592 37.7183 30.5802 37.5849 30.7175 37.5334C30.8549 37.4819 30.9566 37.5318 30.9447 37.6448C30.9329 37.7578 30.8119 37.8912 30.6746 37.9427C30.5372 37.9942 30.4355 37.9443 30.4474 37.8313Z" fill="#333333"/>
<path fill-rule="evenodd" clip-rule="evenodd" d="M36.5617 35.4855C36.5143 35.9376 36.1308 36.4334 35.7052 36.5931L31.9919 38.0144C31.5664 38.174 31.2599 37.937 31.3073 37.485C31.3548 37.0329 31.7382 36.5371 32.1638 36.3774L35.8771 34.9561C36.3026 34.7965 36.6092 35.0335 36.5617 35.4855ZM32.103 36.9561L35.8163 35.5348C35.941 35.488 36.0308 35.5574 36.0169 35.6899C36.003 35.8223 35.8907 35.9676 35.766 36.0144L32.0527 37.4357C31.928 37.4825 31.8382 37.4131 31.8521 37.2806C31.866 37.1482 31.9784 37.0029 32.103 36.9561Z" fill="#333333"/>
<path fill-rule="evenodd" clip-rule="evenodd" d="M28.1441 34.1368L39.9909 30.1911L39.9904 36.7628C39.9903 38.054 39.1641 39.2003 37.9391 39.6086L25.1761 43.863V31.4111L27.0392 33.8026C27.2995 34.1368 27.7422 34.2706 28.1441 34.1368ZM37.4327 35.1585C37.5276 34.2544 36.9146 33.7803 36.0634 34.0995L30.0487 36.3842C29.1975 36.7034 28.4306 37.6951 28.3357 38.5992C28.2408 39.5033 28.8539 39.9774 29.705 39.6581L35.7198 37.3735C36.5709 37.0542 37.3378 36.0625 37.4327 35.1585Z" fill="#333333"/>
<path d="M23.1761 43.863V31.4191L21.3313 33.7953C21.0711 34.1305 20.6276 34.2649 20.225 34.1306L8.36119 30.1732L8.36162 36.7628C8.36171 38.054 9.18798 39.2003 10.4129 39.6086L23.1761 43.863Z" fill="#333333"/>
</svg>
