<svg width="48" height="48" viewBox="0 0 48 48" fill="none" xmlns="http://www.w3.org/2000/svg">
<path fill-rule="evenodd" clip-rule="evenodd" d="M4.49756 16.1519C3.39299 16.1519 2.49756 17.0473 2.49756 18.1519V30.1519C2.49756 31.2564 3.39299 32.1519 4.49756 32.1519H43.5024C44.607 32.1519 45.5024 31.2564 45.5024 30.1519V18.1519C45.5024 17.0473 44.607 16.1519 43.5024 16.1519H4.49756ZM42 24.1538C42 23.0492 41.1045 22.1538 40 22.1538C38.8954 22.1538 38 23.0492 38 24.1538C38 25.2584 38.8954 26.1538 40 26.1538C41.1045 26.1538 42 25.2584 42 24.1538ZM36 23.2749C36.5523 23.2749 37 23.7226 37 24.2749C37 24.8272 36.5523 25.2749 36 25.2749C35.4477 25.2749 35 24.8272 35 24.2749C35 23.7226 35.4477 23.2749 36 23.2749ZM13.0296 22.1538L18.8036 22.1538V26.1538L13.0296 26.1538V22.1538ZM11.0296 22.1538L9.99997 22.1538C8.8954 22.1538 7.99997 23.0492 7.99997 24.1538C7.99997 25.2584 8.8954 26.1538 9.99997 26.1538L11.0296 26.1538V22.1538ZM29.5523 26.1538L20.8036 26.1538V22.1538L29.5523 22.1538C30.6569 22.1538 31.5523 23.0492 31.5523 24.1538C31.5523 25.2584 30.6569 26.1538 29.5523 26.1538ZM9.99997 28.1538C7.79083 28.1538 5.99997 26.3629 5.99997 24.1538C5.99997 21.9447 7.79083 20.1538 9.99997 20.1538L29.5523 20.1538C31.7615 20.1538 33.5523 21.9447 33.5523 24.1538C33.5523 26.3629 31.7615 28.1538 29.5523 28.1538L9.99997 28.1538Z" fill="#333333"/>
<path d="M9.88682 14.9063C10.9508 14.9063 11.6538 14.5928 12.2523 14.0703C12.3853 13.9563 12.4993 13.7758 12.4993 13.5478C12.4993 13.1773 12.1858 12.8733 11.8153 12.8733C11.6443 12.8733 11.4923 12.9398 11.3783 13.0348C10.9603 13.3673 10.5518 13.5573 9.93432 13.5573C8.79432 13.5573 8.00582 12.6073 8.00582 11.4673V11.4483C8.00582 10.3083 8.81332 9.37732 9.93432 9.37732C10.4568 9.37732 10.8843 9.54832 11.2928 9.85232C11.3973 9.91882 11.5303 9.99482 11.7298 9.99482C12.1288 9.99482 12.4518 9.68132 12.4518 9.28232C12.4518 9.02582 12.3188 8.81682 12.1668 8.70282C11.6158 8.29432 10.9413 8.02832 9.94382 8.02832C7.90132 8.02832 6.47632 9.57682 6.47632 11.4673V11.4863C6.47632 13.3958 7.92982 14.9063 9.88682 14.9063Z" fill="#333333"/>
<path d="M27.337 14.1151C27.337 14.5236 27.66 14.8466 28.0685 14.8466C28.477 14.8466 28.8 14.5236 28.8 14.1151V12.7946H29.9115C31.403 12.7946 32.6 11.9966 32.6 10.4576V10.4386C32.6 9.08009 31.6405 8.13959 30.054 8.13959H28.0685C27.66 8.13959 27.337 8.46259 27.337 8.87109V14.1151ZM28.8 11.4931V9.46009H29.9305C30.662 9.46009 31.118 9.81159 31.118 10.4671V10.4861C31.118 11.0561 30.6905 11.4931 29.959 11.4931H28.8Z" fill="#333333"/>
<path d="M33.6319 14.1246C33.6319 14.5236 33.9549 14.8466 34.3539 14.8466C34.7529 14.8466 35.0759 14.5236 35.0759 14.1246V10.9326H35.6839C36.0164 10.9326 36.2824 10.6761 36.2824 10.3436C36.2824 10.0111 36.0164 9.75459 35.6839 9.75459H35.0569V9.55509C35.0569 9.17509 35.2469 9.00409 35.5794 9.00409H35.7029C36.0259 9.00409 36.2919 8.72859 36.2919 8.40559C36.2919 8.08259 36.0449 7.86409 35.7979 7.82609C35.6364 7.79759 35.4369 7.78809 35.2089 7.78809C34.6959 7.78809 34.3064 7.92109 34.0404 8.18709C33.7744 8.45309 33.6319 8.86159 33.6319 9.42209V9.74509H33.5749C33.2424 9.74509 32.9764 10.0111 32.9764 10.3436C32.9764 10.6761 33.2424 10.9326 33.5749 10.9326H33.6319V14.1246Z" fill="#333333"/>
<path d="M14.3868 39.4316C14.3868 39.8401 14.7098 40.1631 15.1183 40.1631C15.5268 40.1631 15.8498 39.8401 15.8498 39.4316V38.1111H16.9613C18.4528 38.1111 19.6498 37.3131 19.6498 35.7741V35.7551C19.6498 34.3966 18.6903 33.4561 17.1038 33.4561H15.1183C14.7098 33.4561 14.3868 33.7791 14.3868 34.1876V39.4316ZM15.8498 36.8096V34.7766H16.9803C17.7118 34.7766 18.1678 35.1281 18.1678 35.7836V35.8026C18.1678 36.3726 17.7403 36.8096 17.0088 36.8096H15.8498Z" fill="#333333"/>
<path d="M23.3903 39.5836L24.9483 35.9831C24.9768 35.9166 25.0243 35.7646 25.0243 35.6411C25.0243 35.2516 24.7108 34.9571 24.3308 34.9571C23.9508 34.9571 23.7513 35.2041 23.6563 35.4511L22.5448 38.4246L21.4523 35.4701C21.3478 35.1756 21.1388 34.9571 20.7493 34.9571C20.3598 34.9571 20.0463 35.2896 20.0463 35.6316C20.0463 35.7646 20.0843 35.8881 20.1223 35.9831L21.6803 39.5836C21.8418 39.9636 22.1078 40.2106 22.4973 40.2106H22.5733C22.9628 40.2106 23.2288 39.9541 23.3903 39.5836Z" fill="#333333"/>
</svg>
