<svg width="48" height="48" viewBox="0 0 48 48" fill="none" xmlns="http://www.w3.org/2000/svg">
<path d="M29 11V24.9454C29 25.9118 30.2349 26.3161 30.8064 25.5367L33.1497 22.3414C33.8981 21.3207 35.3282 21.0915 36.3581 21.8272C37.2988 22.4991 37.5986 23.7626 37.0602 24.7855L31.156 36.0036C29.2151 39.6912 25.391 42 21.2238 42C15.0251 42 10 36.9749 10 30.7762V28V16C10 14.8954 10.8954 14 12 14C13.1046 14 14 14.8954 14 16V25H15V11C15 9.89543 15.8954 9 17 9C18.1046 9 19 9.89543 19 11V23H20V8C20 6.89543 20.8954 6 22 6C23.1046 6 24 6.89543 24 8V23H25V11C25 9.89543 25.8954 9 27 9C28.1046 9 29 9.89543 29 11Z" fill="#333333"/>
</svg>
