<svg width="48" height="48" viewBox="0 0 48 48" fill="none" xmlns="http://www.w3.org/2000/svg">
<path fill-rule="evenodd" clip-rule="evenodd" d="M33.1394 13.6802C35.2603 13.6802 36.9795 11.9609 36.9795 9.84009C36.9795 7.71927 35.2603 6 33.1394 6C31.0186 6 29.2994 7.71927 29.2994 9.84009C29.2994 11.9609 31.0186 13.6802 33.1394 13.6802ZM36.781 14.6125C37.3484 14.5179 37.9199 14.7561 38.2521 15.2257L41.7245 20.1339C42.1158 20.6871 42.0878 21.4339 41.656 21.9561L38.1836 26.1559C37.6557 26.7943 36.7102 26.884 36.0718 26.3561C35.4333 25.8282 35.3436 24.8827 35.8715 24.2443L37.0446 22.8255C37.0104 22.6558 36.9534 22.4878 36.8722 22.3255C36.7963 22.1736 36.7036 22.0356 36.5975 21.9125C37.5686 21.8042 38.3236 20.9806 38.3236 19.9806C38.3236 18.907 37.4532 18.0366 36.3795 18.0366C35.3059 18.0366 34.4355 18.907 34.4355 19.9806C34.4355 20.3704 34.5502 20.7333 34.7477 21.0376L32.9534 20.4336L32.9533 19.232C32.9532 18.6797 32.5054 18.2321 31.9531 18.2322C31.4009 18.2322 30.9532 18.68 30.9533 19.2323L30.9535 21.1523C30.9536 21.5816 31.2276 21.963 31.6345 22.1L32.3617 22.3447L30.3009 23.3751C30.0336 23.5088 29.8093 23.6942 29.634 23.9132L31.4355 26.1891C31.9497 26.8387 31.8399 27.7821 31.1904 28.2963C30.5408 28.8104 29.5974 28.7006 29.0833 28.0511L25.4833 23.5031C25.1219 23.0466 25.0574 22.4221 25.3178 21.9013L27.6821 17.1727C28.0398 16.4573 28.7182 15.9563 29.5072 15.8248L36.781 14.6125Z" fill="#333333"/>
<path fill-rule="evenodd" clip-rule="evenodd" d="M28.0869 29.1341C28.4688 29.9509 29.2979 30.5168 30.2592 30.5168C31.5829 30.5168 32.6559 29.4438 32.656 28.1202L32.6594 28.1202C33.4986 28.1202 34.282 27.8809 34.9449 27.4668C35.3681 28.145 36.121 28.5963 36.9794 28.5963C37.5835 28.5963 38.1355 28.3727 38.557 28.0038C39.3201 31.0767 40.0693 33.3176 40.5327 34.5865C40.7574 35.2018 40.3672 35.8884 39.7168 35.9666C35.7403 36.4448 31.1382 36.456 27.1727 35.9579C26.5581 35.8807 26.1794 35.2565 26.3719 34.6677C26.7926 33.3812 27.4959 31.1869 28.0869 29.1341Z" fill="#333333"/>
<path fill-rule="evenodd" clip-rule="evenodd" d="M28 38.0138V40.4998C28 41.252 28.5571 41.8879 29.3028 41.9868C30.0485 42.0856 30.7521 41.6169 30.9482 40.8907L31.6222 38.394C30.4639 38.3295 29.2751 38.2032 28 38.0138ZM35.3757 38.3862L36.0518 40.8907C36.2479 41.6169 36.9515 42.0856 37.6972 41.9868C38.4429 41.8879 39 41.252 39 40.4998V38C37.7242 38.1883 36.5347 38.3175 35.3757 38.3862Z" fill="#333333"/>
<path fill-rule="evenodd" clip-rule="evenodd" d="M22.8527 29.1489C23.6579 28.9541 24.1528 28.1435 23.958 27.3383C23.7633 26.5331 22.9527 26.0382 22.1474 26.2329C19.2868 26.9248 17.1288 27.236 15.0055 27.2281C12.8781 27.2202 10.7146 26.8919 7.8367 26.2292C7.0294 26.0433 6.22425 26.547 6.03834 27.3543C5.85244 28.1616 6.35618 28.9667 7.16348 29.1526C8.86872 29.5453 10.3864 29.8378 11.8307 30.0178V34.3521C11.8217 34.3938 11.8145 34.4363 11.8091 34.4794L11.0758 40.3129C10.9747 41.1171 11.5307 41.8561 12.3314 41.9818C13.1321 42.1075 13.8879 41.5744 14.0381 40.7779L15.1307 34.9836L16.2233 40.7779C16.3735 41.5744 17.1293 42.1075 17.93 41.9818C18.7307 41.8561 19.2867 41.1171 19.1856 40.3129L18.4523 34.4794C18.4469 34.4362 18.4396 34.3936 18.4307 34.3517V30.0027C19.7999 29.8236 21.2419 29.5385 22.8527 29.1489Z" fill="#333333"/>
<path d="M18 23C18 24.6569 16.6569 26 15 26C13.3431 26 12 24.6569 12 23C12 21.3431 13.3431 20 15 20C16.6569 20 18 21.3431 18 23Z" fill="#333333"/>
</svg>
