<svg width="48" height="48" viewBox="0 0 48 48" fill="none" xmlns="http://www.w3.org/2000/svg">
<path fill-rule="evenodd" clip-rule="evenodd" d="M39 8H27V13L5 13L5 15L27 15V16H8H6V18V37H4V39H6H8H29H37H40H42H44V37H42V18V16H40H39V15L43 15V13L39 13V8ZM27 18V20H39V18H40V37H37V23H29V37H8V18H27ZM26 23H11V31H10V33H11H26L27 33V31H26V23ZM32 13V11H34V13H36V15H34V17H32V15H30V13H32Z" fill="#333333"/>
<path fill-rule="evenodd" clip-rule="evenodd" d="M6 18V13H8V18H6Z" fill="#333333"/>
<path fill-rule="evenodd" clip-rule="evenodd" d="M40 18V13H42V18H40Z" fill="#333333"/>
</svg>
