<svg width="48" height="48" viewBox="0 0 48 48" fill="none" xmlns="http://www.w3.org/2000/svg">
<path fill-rule="evenodd" clip-rule="evenodd" d="M7.99986 25.8982C8.79232 26.4449 9.75636 26.7684 10.8085 26.7674C12.499 26.7659 13.9908 25.9171 14.8828 24.6231C15.8675 26.0832 17.5367 27.0433 19.4302 27.0433C21.3356 27.0433 23.0139 26.0711 23.9961 24.5956C24.9778 26.0738 26.6578 27.0482 28.5653 27.0482C30.4511 27.0482 32.1144 26.0958 33.1006 24.6458C33.9974 25.9162 35.4775 26.7452 37.1508 26.7437C38.2215 26.7428 39.2005 26.406 39.9999 25.8403V42.0001H19.9999V29.0002H11.9999V42.0001H7.99986V25.8982ZM35.9999 31.048H25.9999V37.048H35.9999V31.048ZM23.9999 29.048V39.048H37.9999V29.048H23.9999Z" fill="#333333"/>
<path fill-rule="evenodd" clip-rule="evenodd" d="M11.9999 29.0002H19.9999V42.0001H39.9999V25.8403C39.4172 26.2526 38.7392 26.5433 37.9999 26.671C37.7248 26.7185 37.4412 26.7435 37.1508 26.7437C36.2072 26.7446 35.3251 26.4813 34.5744 26.0238C33.9938 25.6699 33.4917 25.1998 33.1006 24.6458C32.7186 25.2075 32.2349 25.6946 31.6761 26.0805C30.8035 26.6831 29.7476 27.0392 28.6089 27.048C28.5944 27.0482 28.5798 27.0482 28.5653 27.0482C28.5507 27.0482 28.5361 27.0482 28.5216 27.048C27.3654 27.039 26.2945 26.672 25.4142 26.0525C24.8559 25.6595 24.3742 25.1649 23.9961 24.5956C23.6174 25.1645 23.1352 25.6586 22.5764 26.051C21.864 26.5513 21.027 26.8862 20.1212 27.0002C20.0809 27.0053 20.0405 27.0099 19.9999 27.0141C19.8126 27.0334 19.6226 27.0433 19.4302 27.0433C19.1962 27.0433 18.9656 27.0287 18.7392 27.0002C17.8423 26.8874 17.0128 26.5578 16.3049 26.0656C15.7463 25.6772 15.2634 25.1875 14.8828 24.6231C14.4971 25.1827 13.9992 25.659 13.4216 26.0195C12.6635 26.4928 11.768 26.7666 10.8085 26.7674C10.5324 26.7677 10.2623 26.7456 9.99986 26.703C9.26218 26.5832 8.58434 26.3014 7.99986 25.8982V42.0001H11.9999V29.0002ZM37.9999 29.048H23.9999V39.048H37.9999M33.9999 33.048H27.9999V35.048H33.9999V33.048ZM35.9999 31.048V37.048H25.9999V31.048H35.9999ZM28.5653 29.048H37.9999H28.5653Z" fill="#333333"/>
<path fill-rule="evenodd" clip-rule="evenodd" d="M17.6032 15.0481H8.76435C8.05658 15.0481 7.44284 15.5375 7.28526 16.2275L6.17198 21.1022C5.4767 24.1467 7.79018 27.0481 10.913 27.0481C12.6331 27.0481 14.1445 26.1551 15.0091 24.8075C16.0067 26.1661 17.6154 27.0481 19.4302 27.0481C21.3366 27.0481 23.0157 26.0747 23.9977 24.5979C24.9796 26.0747 26.6588 27.0482 28.5653 27.0482C30.38 27.0482 31.9887 26.1661 32.9862 24.8075C33.8508 26.1551 35.3623 27.0481 37.0823 27.0481C40.2052 27.0481 42.5187 24.1467 41.8234 21.1022L40.7101 16.2275C40.5525 15.5375 39.9388 15.0481 39.231 15.0481H30.3923V16.0481C30.3923 16.3934 30.3485 16.7285 30.2663 17.0481H32.0462V21.5671C32.0462 23.4896 30.4877 25.0481 28.5652 25.0481C26.6427 25.0481 25.0842 23.4896 25.0842 21.5671V20.0481H22.9112V21.5671C22.9112 23.4896 21.3527 25.0481 19.4302 25.0481C17.5076 25.0481 15.9491 23.4896 15.9491 21.5671V17.0481H17.7293C17.647 16.7285 17.6032 16.3934 17.6032 16.0481V15.0481ZM9.14935 17.0481L8.12178 21.5475C7.71244 23.3399 9.07448 25.0481 10.913 25.0481C12.4943 25.0481 13.7761 23.7662 13.7761 22.185V17.0481H9.14935ZM38.846 17.0481H34.2192V22.185C34.2192 23.7662 35.5011 25.0481 37.0823 25.0481C38.9209 25.0481 40.2829 23.3399 39.8736 21.5475L38.846 17.0481Z" fill="#333333"/>
<path fill-rule="evenodd" clip-rule="evenodd" d="M20.9999 6.0481C18.7908 6.0481 16.9999 7.83896 16.9999 10.0481V16.0481C16.9999 18.2572 18.7908 20.0481 20.9999 20.0481H26.9999C29.209 20.0481 30.9999 18.2572 30.9999 16.0481V10.0481C30.9999 7.83896 29.209 6.0481 26.9999 6.0481H20.9999ZM24.9999 9.5481C24.9999 8.99581 24.5522 8.5481 23.9999 8.5481C23.4476 8.5481 22.9999 8.99581 22.9999 9.5481V12.0481H20.4999C19.9476 12.0481 19.4999 12.4958 19.4999 13.0481C19.4999 13.6004 19.9476 14.0481 20.4999 14.0481H22.9999V16.5481C22.9999 17.1004 23.4476 17.5481 23.9999 17.5481C24.5522 17.5481 24.9999 17.1004 24.9999 16.5481V14.0481H27.4999C28.0522 14.0481 28.4999 13.6004 28.4999 13.0481C28.4999 12.4958 28.0522 12.0481 27.4999 12.0481H24.9999V9.5481Z" fill="#333333"/>
<path fill-rule="evenodd" clip-rule="evenodd" d="M20.9999 8.0481C19.8953 8.0481 18.9999 8.94353 18.9999 10.0481V10.4494C19.4412 10.1942 19.9535 10.0481 20.4999 10.0481H20.9999V9.5481C20.9999 9.00166 21.146 8.48936 21.4013 8.0481H20.9999ZM26.5986 8.0481C26.8538 8.48936 26.9999 9.00166 26.9999 9.5481V10.0481H27.4999C28.0463 10.0481 28.5586 10.1942 28.9999 10.4494V10.0481C28.9999 8.94353 28.1045 8.0481 26.9999 8.0481H26.5986ZM28.9999 15.6467C28.5586 15.902 28.0463 16.0481 27.4999 16.0481H26.9999V16.5481C26.9999 17.0945 26.8538 17.6068 26.5986 18.0481H26.9999C28.1045 18.0481 28.9999 17.1527 28.9999 16.0481V15.6467ZM21.4013 18.0481C21.146 17.6068 20.9999 17.0945 20.9999 16.5481V16.0481H20.4999C19.9535 16.0481 19.4412 15.902 18.9999 15.6467V16.0481C18.9999 17.1527 19.8953 18.0481 20.9999 18.0481H21.4013ZM16.9999 10.0481C16.9999 7.83896 18.7908 6.0481 20.9999 6.0481H26.9999C29.209 6.0481 30.9999 7.83896 30.9999 10.0481V16.0481C30.9999 18.2572 29.209 20.0481 26.9999 20.0481H20.9999C18.7908 20.0481 16.9999 18.2572 16.9999 16.0481V10.0481ZM23.9999 8.5481C24.5522 8.5481 24.9999 8.99581 24.9999 9.5481V12.0481H27.4999C28.0522 12.0481 28.4999 12.4958 28.4999 13.0481C28.4999 13.6004 28.0522 14.0481 27.4999 14.0481H24.9999V16.5481C24.9999 17.1004 24.5522 17.5481 23.9999 17.5481C23.4476 17.5481 22.9999 17.1004 22.9999 16.5481V14.0481H20.4999C19.9476 14.0481 19.4999 13.6004 19.4999 13.0481C19.4999 12.4958 19.9476 12.0481 20.4999 12.0481H22.9999V9.5481C22.9999 8.99581 23.4476 8.5481 23.9999 8.5481Z" fill="#333333"/>
</svg>
