<svg width="48" height="48" viewBox="0 0 48 48" fill="none" xmlns="http://www.w3.org/2000/svg">
<path fill-rule="evenodd" clip-rule="evenodd" d="M24 44C35.0457 44 44 35.0457 44 24C44 12.9543 35.0457 4 24 4C12.9543 4 4 12.9543 4 24C4 35.0457 12.9543 44 24 44ZM15.6286 34.9285C16.1386 35.1325 16.717 34.8869 16.9251 34.3797L16.9303 34.368C16.9371 34.353 16.9503 34.3249 16.9705 34.2855C17.0111 34.2066 17.0797 34.0832 17.1821 33.9297C17.3867 33.6227 17.7244 33.198 18.2402 32.7682C19.2558 31.9219 21.0277 31 24 31C26.9723 31 28.7442 31.9219 29.7598 32.7682C30.2756 33.198 30.6133 33.6227 30.818 33.9297C30.9203 34.0832 30.9889 34.2066 31.0295 34.2855C31.0497 34.3249 31.0629 34.353 31.0697 34.368L31.0749 34.3798C31.283 34.8869 31.8614 35.1325 32.3714 34.9285C32.8842 34.7234 33.1336 34.1414 32.9285 33.6286L32 34C32.9285 33.6286 32.9282 33.628 32.928 33.6273L32.9274 33.6259L32.9262 33.6229L32.9232 33.6156L32.9153 33.5968C32.9091 33.5823 32.9011 33.564 32.8913 33.5422C32.8715 33.4986 32.844 33.4408 32.808 33.3708C32.7361 33.2309 32.6297 33.0418 32.482 32.8203C32.1867 32.3773 31.7244 31.802 31.0402 31.2318C29.6558 30.0781 27.4277 29 24 29C20.5723 29 18.3442 30.0781 16.9598 31.2318C16.2756 31.802 15.8133 32.3773 15.518 32.8203C15.3703 33.0418 15.2639 33.2309 15.192 33.3708C15.156 33.4408 15.1285 33.4986 15.1087 33.5422C15.0989 33.564 15.0909 33.5823 15.0847 33.5968L15.0768 33.6156L15.0738 33.6229L15.0726 33.6259L15.072 33.6273C15.0718 33.628 15.0715 33.6286 16 34L15.0715 33.6286C14.8664 34.1414 15.1158 34.7234 15.6286 34.9285ZM18.8321 19.4453C19.1384 19.9048 19.0142 20.5257 18.5547 20.8321C16.9909 21.8746 15.9114 22.417 14.3162 22.9487C13.7923 23.1233 13.226 22.8402 13.0513 22.3162C12.8767 21.7923 13.1598 21.226 13.6838 21.0513C15.0886 20.583 16.0091 20.1254 17.4453 19.1679C17.9048 18.8616 18.5257 18.9858 18.8321 19.4453ZM29.4453 20.8321C28.9858 20.5257 28.8616 19.9048 29.1679 19.4453C29.4743 18.9858 30.0952 18.8616 30.5547 19.1679C31.9909 20.1254 32.9114 20.583 34.3162 21.0513C34.8402 21.226 35.1233 21.7923 34.9487 22.3162C34.774 22.8402 34.2077 23.1233 33.6838 22.9487C32.0886 22.417 31.0091 21.8746 29.4453 20.8321Z" fill="#333333"/>
</svg>
