<svg width="48" height="48" viewBox="0 0 48 48" fill="none" xmlns="http://www.w3.org/2000/svg">
<path fill-rule="evenodd" clip-rule="evenodd" d="M23 6L25 4V11H23V6ZM23 19H19V17H20V12C20 11.4477 20.4477 11 21 11H23V19ZM25 19H29V17H28V12C28 11.4477 27.5523 11 27 11H25V19Z" fill="#333333"/>
<path fill-rule="evenodd" clip-rule="evenodd" d="M18 19C15.7909 19 14 20.7909 14 23V40C14 42.2091 15.7909 44 18 44H30C32.2091 44 34 42.2091 34 40V23C34 20.7909 32.2091 19 30 19H26V21C26 21.5523 25.5523 22 25 22V24H23V22C22.4477 22 22 21.5523 22 21V19H18ZM24 33C26.2091 33 28 31.2091 28 29C28 26.7909 26.2091 25 24 25C21.7909 25 20 26.7909 20 29C20 31.2091 21.7909 33 24 33ZM23 34V36H25V34H23ZM18 21H21V23H18V34H21V36H18H16V34V23C16 21.8954 16.8954 21 18 21ZM30 23H27V21H30C31.1046 21 32 21.8954 32 23V34V36H30H27V34H30V23Z" fill="#333333"/>
</svg>
