<svg width="48" height="48" viewBox="0 0 48 48" fill="none" xmlns="http://www.w3.org/2000/svg">
<path fill-rule="evenodd" clip-rule="evenodd" d="M13.9275 9.04805C13.2238 9.69614 12.6599 10.4858 12.3682 10.9961L10.6318 10.0039C11.0068 9.3475 11.6928 8.38719 12.5725 7.57695C13.4297 6.78748 14.624 6 16 6H33V8H16C15.376 8 14.6537 8.37919 13.9275 9.04805Z" fill="#333333"/>
<path fill-rule="evenodd" clip-rule="evenodd" d="M23 16V7.5H25V16H23Z" fill="#333333"/>
<path fill-rule="evenodd" clip-rule="evenodd" d="M11 24C11 21.2386 13.2386 19 16 19H32C34.7614 19 37 21.2386 37 24V41C37 42.1046 36.1046 43 35 43H13C11.8954 43 11 42.1046 11 41V24ZM18 30H19H23V26V25H25V26V30H29H30V32H29H25V36V37H23V36V32H19H18V30Z" fill="#333333"/>
<path d="M18 16C18 15.4477 18.4477 15 19 15H29C29.5523 15 30 15.4477 30 16V19H18V16Z" fill="#333333"/>
<path fill-rule="evenodd" clip-rule="evenodd" d="M17 16C17 14.8954 17.8954 14 19 14H29C30.1046 14 31 14.8954 31 16V20H17V16ZM29 16H19V18H29V16Z" fill="#333333"/>
</svg>
