<svg width="48" height="48" viewBox="0 0 48 48" fill="none" xmlns="http://www.w3.org/2000/svg">
<path fill-rule="evenodd" clip-rule="evenodd" d="M17.5459 15.4793C16.1101 14.9187 14.5294 14.8477 13.0491 15.2773C11.5688 15.7068 10.2716 16.613 9.35899 17.8551C8.44632 19.0973 7.96916 20.6059 8.00155 22.147C8.03393 23.688 8.57405 25.1753 9.53809 26.378C10.5021 27.5807 11.8362 28.4315 13.3332 28.7986C14.8303 29.1656 16.4066 29.0282 17.8176 28.4078C19.2286 27.7874 20.3954 26.7185 21.1369 25.3672C21.8783 24.0159 22.1531 22.4576 21.9184 20.9342C21.8343 20.3884 22.2087 19.8777 22.7545 19.7936C23.3004 19.7096 23.811 20.0839 23.8951 20.6297C24.1968 22.5884 23.8436 24.5919 22.8903 26.3293C21.9369 28.0667 20.4368 29.4409 18.6227 30.2386C16.8085 31.0363 14.7818 31.2129 12.857 30.741C10.9322 30.2692 9.21703 29.1752 7.97755 27.6289C6.73807 26.0825 6.04363 24.1703 6.00199 22.189C5.96035 20.2077 6.57384 18.268 7.74727 16.6709C8.92069 15.0739 10.5884 13.9088 12.4917 13.3565C14.3949 12.8042 16.4273 12.8955 18.2733 13.6163C18.7878 13.8171 19.042 14.397 18.8411 14.9115C18.6403 15.4259 18.0604 15.6802 17.5459 15.4793Z" fill="#333333"/>
<path fill-rule="evenodd" clip-rule="evenodd" d="M14 38.9999L14 30.9999C14 30.4476 14.4477 29.9999 15 29.9999C15.5523 29.9999 16 30.4476 16 30.9999L16 38.9999C16 39.5522 15.5523 39.9999 15 39.9999C14.4477 39.9999 14 39.5522 14 38.9999Z" fill="#333333"/>
<path fill-rule="evenodd" clip-rule="evenodd" d="M11 33.9999C11 33.4476 11.4477 32.9999 12 32.9999H18C18.5523 32.9999 19 33.4476 19 33.9999C19 34.5522 18.5523 34.9999 18 34.9999H12C11.4477 34.9999 11 34.5522 11 33.9999Z" fill="#333333"/>
<path fill-rule="evenodd" clip-rule="evenodd" d="M28.9016 15.2631C27.4182 14.8444 25.838 14.927 24.4064 15.4981C22.9747 16.0692 21.7716 17.0969 20.9836 18.4217C20.1957 19.7465 19.8671 21.2943 20.0488 22.8249C20.1139 23.3734 19.7221 23.8707 19.1736 23.9358C18.6252 24.0009 18.1278 23.6091 18.0627 23.0607C17.8292 21.0927 18.2517 19.1027 19.2647 17.3994C20.2777 15.6961 21.8246 14.3748 23.6653 13.6405C25.5061 12.9062 27.5377 12.8 29.4449 13.3384C31.3522 13.8767 33.0284 15.0295 34.2135 16.6179C35.3986 18.2063 36.0263 20.1415 35.9992 22.1231C35.972 24.1046 35.2916 26.0219 34.0635 27.5772C32.8354 29.1326 31.1282 30.2391 29.207 30.7251C27.2857 31.2111 25.2578 31.0493 23.4378 30.2649C22.9306 30.0463 22.6967 29.458 22.9153 28.9508C23.1339 28.4436 23.7222 28.2097 24.2294 28.4283C25.6449 29.0383 27.2222 29.1641 28.7165 28.7862C30.2109 28.4082 31.5386 27.5476 32.4938 26.3378C33.449 25.1281 33.9783 23.6369 33.9993 22.0957C34.0204 20.5545 33.5322 19.0493 32.6105 17.8139C31.6888 16.5785 30.385 15.6819 28.9016 15.2631Z" fill="#333333"/>
<path fill-rule="evenodd" clip-rule="evenodd" d="M32.7929 17.207C32.4024 16.8165 32.4024 16.1833 32.7929 15.7928L40.2929 8.29279C40.6834 7.90227 41.3166 7.90227 41.7071 8.29279C42.0976 8.68331 42.0976 9.31648 41.7071 9.707L34.2071 17.207C33.8166 17.5975 33.1834 17.5975 32.7929 17.207Z" fill="#333333"/>
<path fill-rule="evenodd" clip-rule="evenodd" d="M40.9244 14.9998C40.3721 14.9929 39.9301 14.5395 39.9371 13.9873L39.9872 10.0127L36.0126 10.0628C35.4604 10.0697 35.007 9.62771 35.0001 9.07547C34.9931 8.52323 35.4352 8.06991 35.9874 8.06295L42.0128 7.98706L41.9369 14.0125C41.9299 14.5647 41.4766 15.0068 40.9244 14.9998Z" fill="#333333"/>
</svg>
