<svg width="48" height="48" viewBox="0 0 48 48" fill="none" xmlns="http://www.w3.org/2000/svg">
<path fill-rule="evenodd" clip-rule="evenodd" d="M9 6.5C7.34315 6.5 6 7.84315 6 9.5V39.5C6 41.1569 7.34315 42.5 9 42.5H39C40.6569 42.5 42 41.1569 42 39.5V9.5C42 7.84315 40.6569 6.5 39 6.5H9ZM11 11.5H13C13.5523 11.5 14 11.0523 14 10.5C14 9.94771 13.5523 9.5 13 9.5H10.5C9.67157 9.5 9 10.1716 9 11V13.5C9 14.0523 9.44772 14.5 10 14.5C10.5523 14.5 11 14.0523 11 13.5V11.5ZM37 13.5V11.5H35C34.4477 11.5 34 11.0523 34 10.5C34 9.94771 34.4477 9.5 35 9.5H37.5C38.3284 9.5 39 10.1716 39 11V13.5C39 14.0523 38.5523 14.5 38 14.5C37.4477 14.5 37 14.0523 37 13.5ZM11.5189 31.498C10.4407 31.1737 9.89853 29.9921 10.3022 28.941L15.7888 14.6541C16.1603 13.6866 17.208 13.1712 18.2212 13.3888C20.0856 13.7891 22.0186 14 24 14C25.9814 14 27.9145 13.7891 29.7788 13.3888C30.7921 13.1712 31.8398 13.6866 32.2113 14.654L37.6979 28.941C38.1015 29.9921 37.5594 31.1737 36.4811 31.498C32.5181 32.6898 28.3304 33.3319 24 33.3319C19.6695 33.3319 15.482 32.6898 11.5189 31.498ZM27.2697 18.9282C28.4092 18.4328 29.7132 18.293 30.7837 18.8095C32.0922 19.4408 32.9863 20.7507 32.9863 22.2593C32.9863 24.379 31.2183 26.1089 29.0227 26.1089C28.8556 26.1089 28.691 26.0989 28.5296 26.0795L28.3854 26.0621L27.0017 27.9262C26.1624 29.0568 25.1723 30.2703 23.3721 30.5049L23.3686 30.5054C21.2052 30.8181 19.193 29.4849 18.1753 27.497C18.0426 27.2378 17.9137 26.9878 17.7929 26.7559L17.6844 26.5475L17.4697 26.643C17.2924 26.7218 17.1027 26.807 16.915 26.8912C16.428 27.11 15.9627 27.3188 15.7451 27.4034C14.9074 27.7291 13.9633 27.3299 13.6329 26.5257C13.3041 25.7251 13.7018 24.81 14.5363 24.4855C14.6796 24.4298 14.9763 24.2964 15.3509 24.1279L15.3645 24.1217C15.6246 24.0047 15.9257 23.8693 16.2486 23.7267C16.6142 23.5651 16.9921 23.4019 17.2983 23.2817C17.447 23.2233 17.6115 23.1621 17.7631 23.1162C17.8348 23.0945 17.9461 23.063 18.0727 23.0412C18.1355 23.0304 18.2389 23.0154 18.3646 23.0132C18.4622 23.0115 18.7269 23.0124 19.0311 23.1329C19.2838 23.2329 19.4482 23.3707 19.5051 23.4198C19.5807 23.485 19.636 23.5447 19.6678 23.5805C19.7318 23.6526 19.78 23.719 19.8066 23.7566C19.8636 23.8372 19.9168 23.923 19.9591 23.9935C20.0478 24.1414 20.1541 24.3319 20.2667 24.5396C20.4008 24.7867 20.8048 25.5936 21.0023 25.9895C21.133 26.2513 21.4851 26.3011 21.6834 26.0864C21.784 25.9774 21.8193 25.8233 21.7762 25.6814L21.1778 23.7124C21.0183 23.1808 20.8575 22.6462 20.7254 22.2182L20.7247 22.2159L20.4936 21.4915L20.4894 21.4816C20.1565 20.6825 20.5496 19.7656 21.3825 19.4372C22.2143 19.1091 23.1551 19.4983 23.494 20.2929L24.3959 23.3558C24.4526 23.5483 24.6416 23.6692 24.8394 23.6416C25.0783 23.6083 25.221 23.3758 25.1668 23.1549C25.0964 22.8677 25.059 22.5679 25.059 22.2593C25.059 21.4448 25.2399 20.7796 25.5973 20.2389C25.9549 19.6981 26.5024 19.2618 27.2697 18.9282ZM37 35.5V37.5H35C34.4477 37.5 34 37.9477 34 38.5C34 39.0523 34.4477 39.5 35 39.5H37.5C38.3284 39.5 39 38.8284 39 38V35.5C39 34.9477 38.5523 34.5 38 34.5C37.4477 34.5 37 34.9477 37 35.5ZM11 37.5H13C13.5523 37.5 14 37.9477 14 38.5C14 39.0523 13.5523 39.5 13 39.5H10.5C9.67157 39.5 9 38.8284 9 38V35.5C9 34.9477 9.44772 34.5 10 34.5C10.5523 34.5 11 34.9477 11 35.5V37.5Z" fill="#333333"/>
</svg>
