<svg width="48" height="48" viewBox="0 0 48 48" fill="none" xmlns="http://www.w3.org/2000/svg">
<path fill-rule="evenodd" clip-rule="evenodd" d="M23 10H22H19.7639C20.3132 9.38625 21.1115 9 22 9C22.8885 9 23.6868 9.38625 24.2361 10H23ZM22 7C24.0503 7 25.8124 8.2341 26.584 10H27H28L29 10V12H28V17V18H27H25C24.087 18 23.2692 17.5921 22.719 16.9487C22.4842 16.9825 22.2442 17 22 17C19.2386 17 17 14.7614 17 12C17 9.23858 19.2386 7 22 7ZM24 12H26V16H25C24.4477 16 24 15.5523 24 15V12ZM5 22C5 19.7909 6.79086 18 9 18H8C7.44772 18 7 17.5523 7 17C7 16.4477 7.44772 16 8 16H12C12.5523 16 13 16.4477 13 17C13 17.5523 12.5523 18 12 18H11C12.0465 18 12.9991 18.4018 13.7119 19.0596C14.2622 18.4114 15.0831 18 16 18H18H22C24.2091 18 26 19.7909 26 22V28.5585L28.7433 29.4729L34.6046 27.0451L34.9659 27.9173L36.4801 26.3988L40.3659 22.5019L41.7821 23.9141L39.5976 26.1049H42.6882V28.1049H37.1882H35.0436L35.3699 28.8928L31.3755 30.5474C31.9217 31.0653 32.1511 31.8712 31.8974 32.6325C31.5691 33.6172 30.549 34.1767 29.5576 33.9506C28.2987 38.0332 24.4958 41 20 41C14.8147 41 10.5511 37.0533 10.0494 32H9C6.79086 32 5 30.2091 5 28V22ZM25.9295 32.7514L27.6563 33.327C26.6597 36.6103 23.6089 39 20 39C15.8729 39 12.4757 35.8748 12.0459 31.8619C13.7478 31.4021 15 29.8473 15 28V24V22V21C15 20.4477 15.4477 20 16 20V32C16 34.2091 17.7909 36 20 36H22C23.9523 36 25.5779 34.6013 25.9295 32.7514ZM18 20V32C18 33.1046 18.8954 34 20 34H22C23.0686 34 23.9414 33.1619 23.9972 32.1072L20.3675 30.8974C19.5509 30.6251 19 29.8609 19 29V23C19 21.8954 19.8954 21 21 21C22.1046 21 23 21.8954 23 23V27.5585L24 27.8918V22C24 20.8954 23.1046 20 22 20H18ZM10 22.5858L11.2929 21.2929L12.7071 22.7071L11.4142 24L12.7071 25.2929L11.2929 26.7071L10 25.4142L8.70711 26.7071L7.29289 25.2929L8.58579 24L7.29289 22.7071L8.70711 21.2929L10 22.5858Z" fill="#333333"/>
</svg>
