<svg width="48" height="48" viewBox="0 0 48 48" fill="none" xmlns="http://www.w3.org/2000/svg">
<path fill-rule="evenodd" clip-rule="evenodd" d="M29.587 16.4644C29.8919 16.1585 29.956 15.6941 29.8216 15.2837C29.1175 13.1352 29.8596 10.381 31.9015 8.33916C34.5892 5.6515 38.511 5.21575 40.6611 7.36587C42.8112 9.516 42.3755 13.4378 39.6878 16.1255C37.6703 18.143 34.9573 18.8916 32.8203 18.2299C32.4137 18.1041 31.9577 18.1726 31.6572 18.4741L31.4172 18.715C30.7093 19.4757 29.713 19.8938 28.6981 19.8559L25.4739 19.7355C23.0102 19.6435 21.1662 22.1255 21.9831 24.4339L22.257 25.2077C23.5477 28.8548 20.6127 32.7695 16.7232 32.5889L14.7589 32.4976C13.7906 32.4526 13.0114 33.3498 13.1929 34.3008L13.5037 35.9292C13.9901 38.4778 12.1632 40.9752 9.56934 41.3075L8.10892 41.4946C7.2834 41.6004 6.53525 40.9992 6.46085 40.1702C6.39034 39.3846 6.95354 38.6837 7.73597 38.5835L9.30677 38.3823C10.1714 38.2715 10.7804 37.439 10.6182 36.5895L10.3074 34.961C9.76291 32.108 12.1003 29.4166 15.0054 29.5516L16.9697 29.6428C18.7377 29.7249 20.0718 27.9455 19.4851 26.2877L19.2112 25.5139C17.694 21.2269 21.1186 16.6175 25.6939 16.7883L28.9182 16.9087C29.0632 16.9141 29.2055 16.8544 29.3066 16.7457L29.587 16.4644Z" fill="#333333"/>
</svg>
