<svg width="48" height="48" viewBox="0 0 48 48" fill="none" xmlns="http://www.w3.org/2000/svg">
<path d="M23.1033 9.81695C23.4701 9.07371 24.5299 9.07371 24.8967 9.81696L28.4696 17.0564C28.6153 17.3515 28.8968 17.5561 29.2225 17.6034L37.2117 18.7643C38.032 18.8835 38.3595 19.8915 37.766 20.47L31.9849 26.1051C31.7492 26.3349 31.6417 26.6659 31.6973 26.9903L33.062 34.9472C33.2022 35.7641 32.3447 36.387 31.6111 36.0014L24.4653 32.2446C24.174 32.0915 23.826 32.0915 23.5347 32.2446L16.3889 36.0014C15.6553 36.3871 14.7978 35.7641 14.938 34.9472L16.3027 26.9903C16.3583 26.6659 16.2508 26.3349 16.0151 26.1051L10.234 20.47C9.64053 19.8915 9.96804 18.8835 10.7883 18.7643L18.7775 17.6034C19.1032 17.5561 19.3847 17.3515 19.5304 17.0564L23.1033 9.81695Z" fill="#333333"/>
</svg>
