<svg width="48" height="48" viewBox="0 0 48 48" fill="none" xmlns="http://www.w3.org/2000/svg">
<path d="M23.1033 13.817C23.4701 13.0737 24.5299 13.0737 24.8967 13.817L27.294 18.6744C27.4397 18.9696 27.7213 19.1741 28.047 19.2215L33.4075 20.0004C34.2277 20.1196 34.5553 21.1276 33.9617 21.7061L30.0828 25.4871C29.8471 25.7168 29.7396 26.0478 29.7952 26.3722L30.7109 31.7111C30.851 32.528 29.9936 33.151 29.26 32.7653L24.4653 30.2446C24.174 30.0915 23.826 30.0915 23.5347 30.2446L18.7401 32.7653C18.0064 33.151 17.149 32.528 17.2891 31.7111L18.2048 26.3722C18.2604 26.0478 18.1529 25.7168 17.9172 25.4871L14.0383 21.7061C13.4448 21.1276 13.7723 20.1196 14.5925 20.0004L19.953 19.2215C20.2787 19.1741 20.5603 18.9696 20.706 18.6744L23.1033 13.817Z" fill="#333333"/>
</svg>
