<svg width="48" height="48" viewBox="0 0 48 48" fill="none" xmlns="http://www.w3.org/2000/svg">
<path d="M23.1032 5.81696C23.47 5.07371 24.5299 5.07371 24.8967 5.81696L29.6452 15.4384C29.7908 15.7335 30.0724 15.9381 30.3981 15.9854L41.0159 17.5283C41.8362 17.6474 42.1637 18.6554 41.5701 19.234L33.887 26.7232C33.6513 26.9529 33.5438 27.2839 33.5994 27.6083L35.4132 38.1833C35.5533 39.0002 34.6958 39.6231 33.9622 39.2374L24.4653 34.2446C24.174 34.0915 23.826 34.0915 23.5346 34.2446L14.0377 39.2374C13.3041 39.6231 12.4467 39.0002 12.5868 38.1833L14.4005 27.6083C14.4562 27.2839 14.3486 26.9529 14.1129 26.7232L6.42979 19.234C5.83627 18.6554 6.16378 17.6474 6.984 17.5283L17.6019 15.9854C17.9276 15.9381 18.2091 15.7335 18.3548 15.4384L23.1032 5.81696Z" fill="#333333"/>
</svg>
