<svg width="48" height="48" viewBox="0 0 48 48" fill="none" xmlns="http://www.w3.org/2000/svg">
<path d="M27 19C27.5523 19 28.0047 19.4487 27.9546 19.9987C27.7221 22.5498 26.6044 24.952 24.7782 26.7782C22.7153 28.8411 19.9174 30 17 30C14.0826 30 11.2848 28.8411 9.22185 26.7782C7.39568 24.952 6.27792 22.5499 6.04543 19.9987C5.9953 19.4487 6.44774 19 7.00003 19L8.79058 19C9.34286 19 9.78344 19.4499 9.8598 19.9969C10.0753 21.5406 10.7873 22.983 11.9022 24.0979C13.2542 25.4499 15.088 26.2095 17 26.2095C18.9121 26.2095 20.7458 25.4499 22.0979 24.0979C23.2127 22.983 23.9248 21.5406 24.1403 19.9969C24.2166 19.4499 24.6572 19 25.2095 19H27Z" fill="#333333"/>
<path fill-rule="evenodd" clip-rule="evenodd" d="M27.9546 19.9987C28.0047 19.4487 27.5523 19 27 19H25.2095C24.6572 19 24.2166 19.4499 24.1403 19.9969C23.9248 21.5406 23.2127 22.983 22.0979 24.0979C20.7458 25.4499 18.9121 26.2095 17 26.2095C15.088 26.2095 13.2542 25.4499 11.9022 24.0979C10.7873 22.983 10.0753 21.5406 9.8598 19.9969C9.78344 19.4499 9.34286 19 8.79058 19L7.00003 19C6.44774 19 5.9953 19.4487 6.04543 19.9987C6.27792 22.5499 7.39568 24.952 9.22185 26.7782C11.2848 28.8411 14.0826 30 17 30C19.9174 30 22.7153 28.8411 24.7782 26.7782C26.6044 24.952 27.7221 22.5498 27.9546 19.9987Z" fill="#333333"/>
<path d="M14 28H20V32C20 33.6569 18.6569 35 17 35C15.3431 35 14 33.6569 14 32V28Z" fill="#333333"/>
<path fill-rule="evenodd" clip-rule="evenodd" d="M19 29H15V32C15 33.1046 15.8954 34 17 34C18.1046 34 19 33.1046 19 32V29ZM14 28V32C14 33.6569 15.3431 35 17 35C18.6569 35 20 33.6569 20 32V28H14Z" fill="#333333"/>
<path fill-rule="evenodd" clip-rule="evenodd" d="M34.25 27C32.1789 27 30.5 28.6789 30.5 30.75V34.75C30.5 38.7541 27.2541 42 23.25 42C19.2459 42 16 38.7541 16 34.75V34H18V34.75C18 37.6495 20.3505 40 23.25 40C26.1495 40 28.5 37.6495 28.5 34.75V30.75C28.5 27.5744 31.0744 25 34.25 25C37.4256 25 40 27.5744 40 30.75V35H38V30.75C38 28.6789 36.3211 27 34.25 27Z" fill="#333333"/>
<path d="M42 36C42 37.6569 40.6569 39 39 39C37.3431 39 36 37.6569 36 36C36 34.3431 37.3431 33 39 33C40.6569 33 42 34.3431 42 36Z" fill="#333333"/>
<path fill-rule="evenodd" clip-rule="evenodd" d="M39 37C39.5523 37 40 36.5523 40 36C40 35.4477 39.5523 35 39 35C38.4477 35 38 35.4477 38 36C38 36.5523 38.4477 37 39 37ZM39 39C40.6569 39 42 37.6569 42 36C42 34.3431 40.6569 33 39 33C37.3431 33 36 34.3431 36 36C36 37.6569 37.3431 39 39 39Z" fill="#333333"/>
<path fill-rule="evenodd" clip-rule="evenodd" d="M10 9C9.44772 9 9 9.44772 9 10V19H7V10C7 8.34315 8.34315 7 10 7H12V9H10Z" fill="#333333"/>
<path d="M14 8C14 9.10457 13.1046 10 12 10C10.8954 10 10 9.10457 10 8C10 6.89543 10.8954 6 12 6C13.1046 6 14 6.89543 14 8Z" fill="#333333"/>
<path fill-rule="evenodd" clip-rule="evenodd" d="M12 10C13.1046 10 14 9.10457 14 8C14 6.89543 13.1046 6 12 6C10.8954 6 10 6.89543 10 8C10 9.10457 10.8954 10 12 10Z" fill="#333333"/>
<path fill-rule="evenodd" clip-rule="evenodd" d="M24 9C24.5523 9 25 9.44772 25 10V19H27V10C27 8.34315 25.6569 7 24 7H22V9H24Z" fill="#333333"/>
<path d="M20 8C20 9.10457 20.8954 10 22 10C23.1046 10 24 9.10457 24 8C24 6.89543 23.1046 6 22 6C20.8954 6 20 6.89543 20 8Z" fill="#333333"/>
<path fill-rule="evenodd" clip-rule="evenodd" d="M22 10C20.8954 10 20 9.10457 20 8C20 6.89543 20.8954 6 22 6C23.1046 6 24 6.89543 24 8C24 9.10457 23.1046 10 22 10Z" fill="#333333"/>
</svg>
