<svg width="48" height="48" viewBox="0 0 48 48" fill="none" xmlns="http://www.w3.org/2000/svg">
<path d="M18.8832 4.69719C19.2737 4.30667 19.9069 4.30667 20.2974 4.69719L23.888 8.28778L27.469 4.7068C27.8595 4.31628 28.4927 4.31628 28.8832 4.7068C29.2737 5.09733 29.2737 5.73049 28.8832 6.12102L25.3022 9.702L28.7827 13.1825C29.1732 13.573 29.1732 14.2062 28.7827 14.5967C28.3922 14.9872 27.759 14.9872 27.3685 14.5967L23.888 11.1162L20.3979 14.6063C20.0074 14.9968 19.3743 14.9968 18.9837 14.6063C18.5932 14.2158 18.5932 13.5826 18.9837 13.1921L22.4738 9.702L18.8832 6.1114C18.4927 5.72088 18.4927 5.08771 18.8832 4.69719Z" fill="#333333"/>
<path fill-rule="evenodd" clip-rule="evenodd" d="M23.86 15.0513C24.0652 14.9829 24.2871 14.9829 24.4923 15.0513L39.2705 19.9765C39.4691 20.0336 39.6499 20.1521 39.783 20.323L43.7861 25.4612C43.9857 25.7173 44.0485 26.0544 43.9545 26.3652C43.8902 26.5779 43.7579 26.7602 43.5821 26.887L28.1827 32.0159L24.965 27.8858C24.7754 27.6424 24.4839 27.5001 24.1753 27.5004C23.8667 27.5007 23.5755 27.6434 23.3863 27.8871L20.186 32.0093L4.74236 26.8577C4.58577 26.7329 4.46805 26.5621 4.40853 26.3652C4.31456 26.0544 4.37733 25.7173 4.57688 25.4612L8.50799 20.4154C8.62826 20.2191 8.81554 20.0652 9.04466 19.9889L23.86 15.0513ZM35.8287 20.9376L24.1802 24.8197L12.5277 20.9362L24.1762 17.0541L35.8287 20.9376Z" fill="#333333"/>
<path d="M28.1442 34.1368L39.991 30.1911L39.9905 36.7628C39.9905 38.054 39.1642 39.2003 37.9392 39.6086L25.1762 43.863V31.4111L27.0393 33.8026C27.2997 34.1368 27.7423 34.2706 28.1442 34.1368Z" fill="#333333"/>
<path d="M23.1762 31.4191V43.863L10.4131 39.6086C9.18811 39.2003 8.36183 38.054 8.36175 36.7628L8.36132 30.1732L20.2251 34.1306C20.6277 34.2649 21.0712 34.1305 21.3314 33.7953L23.1762 31.4191Z" fill="#333333"/>
</svg>
