<svg width="48" height="48" viewBox="0 0 48 48" fill="none" xmlns="http://www.w3.org/2000/svg">
<path d="M30.4799 10.1333H28.8423C28.1289 10.1333 27.4452 10.411 26.9441 10.9042C25.8321 11.9989 23.9889 11.9169 22.9845 10.7282L22.608 10.2826C22.1412 9.73016 21.8845 9.0384 21.8812 8.32372L21.875 7H17.0909V9.00169C17.0909 10.6663 17.5426 12.3014 18.4005 13.7424L18.4538 13.8318C18.9954 14.7416 19.6989 15.5508 20.5315 16.2221L22.89 18.1235C24.7668 19.6366 25.3295 22.2031 24.2503 24.3277C23.5983 25.6114 22.4227 26.5712 21.0088 26.9744L20.4728 27.1272C19.6799 27.3533 18.8439 27.4308 18.0211 27.3569C15.059 27.0907 12.2452 28.7495 11.1461 31.4348L10.6115 32.7408C10.2075 33.7278 10 34.7802 10 35.8423V41H14.7727V35.5733C14.7727 34.7134 15.1102 33.8859 15.7165 33.2593C16.7737 32.1665 18.446 31.8814 19.8231 32.5592L21.842 33.5529C22.7527 34.0011 23.7593 34.2347 24.7802 34.2347H28.1961C29.598 34.2347 30.9871 33.9754 32.2892 33.4707C34.5482 32.5952 36.4465 31.0197 37.6896 28.9889L38.3088 27.9773C39.4157 26.1688 40 24.1038 40 21.9998C40 20.0399 39.493 18.1114 38.5256 16.3915L37.5421 14.6431C36.9156 13.5294 36.045 12.563 34.9917 11.8122L34.3749 11.3726C33.2454 10.5674 31.8809 10.1333 30.4799 10.1333Z" fill="currentColor"/>
<path fill-rule="evenodd" clip-rule="evenodd" d="M16.0757 6H22.9092C22.9145 7.13643 22.6059 8.69965 23.4029 9.64336C25.1513 11.7135 28.0586 9.12802 30.4682 9.12802C34.7986 9.12802 37.4738 12.4809 39.397 15.9016C41.5916 19.8049 41.499 24.6855 39.1616 28.506C37.5612 31.1218 35.5853 33.2743 32.6479 34.4134C28.2951 36.1013 23.4348 35.4651 19.3769 33.4669C17.8285 32.7045 15.827 33.785 15.827 35.5539V42H9V35.8224C9 34.6285 9.23317 33.446 9.68655 32.3378C11.8303 27.0982 15.3228 27.5239 20.1984 26.1331C23.3756 25.2268 25.2665 21.3699 22.2451 18.9329C20.5059 17.53 18.6909 16.2402 17.5268 14.2842C15.9834 11.6906 16.0757 8.89733 16.0757 6Z" fill="currentColor"/>
</svg>
