<svg width="48" height="48" viewBox="0 0 48 48" fill="none" xmlns="http://www.w3.org/2000/svg">
<path fill-rule="evenodd" clip-rule="evenodd" d="M20.991 3.92428C21.604 3.36702 22.5527 3.4122 23.1099 4.02518C23.6672 4.63817 23.622 5.58684 23.009 6.1441L18.6053 10.1475L21.1747 13.045H22.4546C22.4909 13.0437 22.5273 13.043 22.5639 13.043H30.3906C31.2896 13.043 34.0657 14.6776 34.0657 17.8535C34.0657 22.0672 31.2896 23.7784 30.3906 23.7784V41.9271C30.3906 42.8261 29.655 43.5616 28.756 43.5616C27.857 43.5616 27.1215 42.8261 27.1215 41.9271V29.7542H22.8523V41.9271C22.8523 42.8261 22.1167 43.5616 21.2177 43.5616C20.3187 43.5616 19.5832 42.8261 19.5832 41.9271V16.043C19.5832 15.9419 19.5881 15.8419 19.5977 15.7433C19.5184 15.6836 19.4447 15.6157 19.3777 15.5402L15.3777 11.0294C14.8329 10.415 14.8834 9.47666 15.491 8.92426L20.991 3.92428ZM28.5758 9.79485C27.6526 9.36717 27 8.31777 27 7.09103C27 6.33837 27.2186 5.58571 27.5265 4.89885C26.8377 4.33703 25.9582 4.00013 25.0001 4.00013C24.759 4.00013 24.523 4.02144 24.2937 4.06229C24.6944 5.01214 24.4775 6.15119 23.6713 6.88405L21.1702 9.15784C21.6666 10.8025 23.1935 12.0001 25.0001 12.0001C26.5639 12.0001 27.9181 11.1027 28.5758 9.79485ZM29.5001 9C30.3285 9 31.0001 8.18597 31.0001 7.18182C31.0001 5.59091 29.5001 4 29.5001 4C29.5001 4 28.0001 5.59091 28.0001 7.18182C28.0001 8.18597 28.6716 9 29.5001 9Z" fill="#333333"/>
</svg>
