<svg width="48" height="48" viewBox="0 0 48 48" fill="none" xmlns="http://www.w3.org/2000/svg">
<path fill-rule="evenodd" clip-rule="evenodd" d="M6.81818 12.8638C6.36631 13.3157 6.36631 14.0483 6.81818 14.5002C7.27005 14.9521 8.00267 14.9521 8.45454 14.5002L9.27324 13.6815L13.3636 17.7719L10.0909 21.0447C9.63902 21.4966 9.63902 22.2293 10.0909 22.6811C10.5428 23.133 11.2754 23.133 11.7272 22.6811L13.3632 21.0451L16.3181 24H8.37441C7.74469 24 7.14076 24.2528 6.69547 24.7029C6.25019 25.1529 6.00003 25.7633 6.00003 26.3997V29.9984C5.99395 32.7932 6.93225 35.5063 8.65965 37.6888C10.3871 39.8713 12.8 41.3922 15.4992 42C18.1987 41.3926 20.612 39.8717 22.3397 37.6892C23.5568 36.1518 24.3822 34.3511 24.7617 32.4438L27.2727 34.955C28.9502 36.6325 31.4016 37.0645 33.4777 36.251L34.6362 37.4095C35.242 38.0154 36.1002 38.2151 36.8724 38.0086L39.5455 40.6818C39.9974 41.1337 40.73 41.1337 41.1818 40.6818C41.6337 40.23 41.6337 39.4973 41.1818 39.0454L38.5083 36.3718C38.7142 35.5999 38.5144 34.7423 37.9089 34.1367L36.7504 32.9782C36.9538 32.4592 37.0794 31.9167 37.1271 31.3686C37.163 30.9555 37.1548 30.5392 37.1022 30.1276C36.9457 28.901 36.3965 27.7149 35.4545 26.7729L21.545 12.8631L23.1818 11.2264C23.6336 10.7745 23.6336 10.0418 23.1818 9.58995C22.7299 9.13807 21.9973 9.13808 21.5454 9.58995L18.2727 12.8627L14.1823 8.77229L15 7.95462C15.4518 7.50274 15.4518 6.7701 15 6.31822C14.5481 5.86634 13.8155 5.86634 13.3636 6.31822L6.81818 12.8638ZM26.5467 31.4004L31.9 26.0469L20.1308 14.2774L14.7774 19.6309L19.1465 24H22.6256C23.2553 24 23.8592 24.2528 24.3045 24.7029C24.7498 25.1529 25 25.7633 25 26.3997V29.8536L26.5467 31.4004ZM16.8585 14.277L12.7681 10.1865L10.6874 12.2673L14.7778 16.3577L16.8585 14.277ZM35.6707 34.7269C35.6011 34.8044 35.529 34.8805 35.4545 34.955C35.3799 35.0295 35.3039 35.1016 35.2264 35.1713L36.0504 35.9953C36.1731 36.118 36.372 36.118 36.4947 35.9953C36.6174 35.8726 36.6174 35.6737 36.4947 35.551L35.6707 34.7269ZM33.5364 27.6833L34.0403 28.1872C34.6458 28.7928 35.0033 29.5524 35.1128 30.3399C35.1522 30.6234 35.1595 30.9106 35.1346 31.1954C35.1032 31.5541 35.0209 31.9092 34.8876 32.2489L32.7486 34.388C31.3898 34.9212 29.785 34.6388 28.6869 33.5406L28.183 33.0368L33.5364 27.6833ZM17 29C17 28.4477 16.5523 28 16 28C15.4477 28 15 28.4477 15 29V31H13C12.4477 31 12 31.4477 12 32C12 32.5523 12.4477 33 13 33H15V35C15 35.5523 15.4477 36 16 36C16.5523 36 17 35.5523 17 35V33H19C19.5523 33 20 32.5523 20 32C20 31.4477 19.5523 31 19 31H17V29Z" fill="#333333"/>
</svg>
