<svg width="48" height="48" viewBox="0 0 48 48" fill="none" xmlns="http://www.w3.org/2000/svg">
<path fill-rule="evenodd" clip-rule="evenodd" d="M18.0502 15.8077L13.8076 20.0503L18.7853 25.0281L23.028 20.7854L18.0502 15.8077ZM10.9791 20.0503L18.7853 27.8565L25.8564 20.7854L18.0502 12.9792L10.9791 20.0503Z" fill="#333333"/>
<path fill-rule="evenodd" clip-rule="evenodd" d="M23.2733 18.2019L16.2023 25.2729L24.5355 33.6062C26.4211 35.4918 29.4782 35.4918 31.3637 33.6062L31.6066 33.3633C33.4922 31.4778 33.4922 28.4207 31.6066 26.5352L23.2733 18.2019ZM21.7822 28.1763C21.3917 27.7858 21.3917 27.1527 21.7822 26.7621L22.7864 25.7579C23.177 25.3674 23.8101 25.3674 24.2006 25.7579C24.5912 26.1484 24.5912 26.7816 24.2006 27.1721L23.1964 28.1763C22.8059 28.5669 22.1727 28.5669 21.7822 28.1763ZM24.6838 30.9312C24.2933 30.5407 24.2933 29.9075 24.6838 29.517L25.5292 28.6716C25.9197 28.2811 26.5529 28.2811 26.9434 28.6716C27.3339 29.0622 27.3339 29.6953 26.9434 30.0858L26.098 30.9312C25.7075 31.3218 25.0743 31.3218 24.6838 30.9312Z" fill="#333333"/>
<path fill-rule="evenodd" clip-rule="evenodd" d="M23.2733 21.0303L19.0307 25.2729L19.8323 26.0745C19.9696 25.8131 20.1482 25.5677 20.368 25.3479L21.3722 24.3437C22.5438 23.1721 24.4433 23.1721 25.6149 24.3437C26.1815 24.9103 26.4741 25.6472 26.4926 26.3896C27.1728 26.4476 27.8371 26.7369 28.3576 27.2574C29.5292 28.429 29.5292 30.3285 28.3576 31.5001L27.5122 32.3454C27.3244 32.5333 27.1178 32.691 26.8986 32.8186C27.9172 33.2257 29.1247 33.0168 29.9495 32.192L30.1924 31.9491C31.2969 30.8446 31.2969 29.0539 30.1924 27.9494L23.2733 21.0303ZM16.2023 25.2729L23.2733 18.2019L31.6066 26.5352C33.4922 28.4207 33.4922 31.4778 31.6066 33.3633L31.3637 33.6062C29.4782 35.4918 26.4211 35.4918 24.5355 33.6062L16.2023 25.2729ZM24.6254 30.8677C24.6438 30.8895 24.6632 30.9107 24.6838 30.9312C24.7043 30.9518 24.7255 30.9712 24.7474 30.9896C25.1403 31.3207 25.728 31.3012 26.098 30.9312L26.9434 30.0858C27.3339 29.6953 27.3339 29.0622 26.9434 28.6716C26.5583 28.2865 25.9372 28.2812 25.5455 28.6557C25.54 28.6609 25.5346 28.6662 25.5292 28.6716L24.6838 29.517C24.6784 29.5224 24.6731 29.5279 24.6678 29.5333C24.3133 29.9041 24.2992 30.4805 24.6254 30.8677ZM24.2006 27.1721C24.5912 26.7816 24.5912 26.1484 24.2006 25.7579C23.8101 25.3674 23.177 25.3674 22.7864 25.7579L21.7822 26.7621C21.5065 27.0378 21.4254 27.4344 21.539 27.7812C21.5863 27.9257 21.6673 28.0615 21.7822 28.1763C21.897 28.2912 22.0328 28.3723 22.1773 28.4196C22.5241 28.5331 22.9207 28.452 23.1964 28.1763L24.2006 27.1721Z" fill="#333333"/>
<path fill-rule="evenodd" clip-rule="evenodd" d="M11.6862 12.2719L10.272 13.6862L13.8076 17.2217L15.2218 15.8075L11.6862 12.2719ZM7.4436 13.6862L13.8076 20.0501L18.0502 15.8075L11.6862 9.44352L7.4436 13.6862Z" fill="#333333"/>
<path d="M6.73653 15.8074C6.346 15.4169 6.346 14.7838 6.73653 14.3932L12.3934 8.73638C12.7839 8.34586 13.4171 8.34586 13.8076 8.73638C14.1981 9.12691 14.1981 9.76007 13.8076 10.1506L8.15074 15.8074C7.76022 16.198 7.12705 16.198 6.73653 15.8074Z" fill="#333333"/>
<path fill-rule="evenodd" clip-rule="evenodd" d="M6.73653 14.3932C6.346 14.7838 6.346 15.4169 6.73653 15.8074C7.12705 16.198 7.76022 16.198 8.15074 15.8074L13.8076 10.1506C14.1981 9.76007 14.1981 9.12691 13.8076 8.73638C13.4171 8.34586 12.7839 8.34586 12.3934 8.73638L6.73653 14.3932Z" fill="#333333"/>
<path d="M32.1923 35.6064C31.8018 35.2159 31.8018 34.5827 32.1923 34.1922C32.5829 33.8017 33.216 33.8017 33.6065 34.1922L36.435 37.0206C36.8255 37.4111 36.8255 38.0443 36.435 38.4348C36.0445 38.8254 35.4113 38.8254 35.0208 38.4348L32.1923 35.6064Z" fill="#333333"/>
<path fill-rule="evenodd" clip-rule="evenodd" d="M33.6065 34.1922L36.435 37.0206C36.8255 37.4111 36.8255 38.0443 36.435 38.4348C36.0445 38.8254 35.4113 38.8254 35.0208 38.4348L32.1923 35.6064C31.8018 35.2159 31.8018 34.5827 32.1923 34.1922C32.5829 33.8017 33.216 33.8017 33.6065 34.1922Z" fill="#333333"/>
<path d="M28.6569 33.4851L31.4853 30.6567L33.6066 32.778C34.3877 33.559 34.3877 34.8254 33.6066 35.6064C32.8256 36.3875 31.5592 36.3875 30.7782 35.6064L28.6569 33.4851Z" fill="#333333"/>
<path d="M9.56489 22.8785C9.17437 22.488 9.17437 21.8548 9.56489 21.4643L19.4644 11.5648C19.8549 11.1743 20.4881 11.1743 20.8786 11.5648C21.2691 11.9553 21.2691 12.5885 20.8786 12.979L10.9791 22.8785C10.5886 23.269 9.95542 23.269 9.56489 22.8785Z" fill="#333333"/>
<path fill-rule="evenodd" clip-rule="evenodd" d="M9.56489 21.4643C9.17437 21.8548 9.17437 22.488 9.56489 22.8785C9.95542 23.269 10.5886 23.269 10.9791 22.8785L20.8786 12.979C21.2691 12.5885 21.2691 11.9553 20.8786 11.5648C20.4881 11.1743 19.8549 11.1743 19.4644 11.5648L9.56489 21.4643Z" fill="#333333"/>
</svg>
