<svg width="48" height="48" viewBox="0 0 48 48" fill="none" xmlns="http://www.w3.org/2000/svg">
<path d="M5 19.6765H9.6C14.0183 19.6765 17.6 23.2582 17.6 27.6765V30.4765H5V19.6765Z" fill="#333333"/>
<path fill-rule="evenodd" clip-rule="evenodd" d="M9.6 21.6765H7V28.4765H15.6V27.6765C15.6 24.3628 12.9137 21.6765 9.6 21.6765ZM5 19.6765V30.4765H17.6V27.6765C17.6 23.2582 14.0183 19.6765 9.6 19.6765H5Z" fill="#333333"/>
<path d="M32 23.7266C32 27.4545 28.9779 30.4766 25.25 30.4766C21.5221 30.4766 18.5 27.4545 18.5 23.7266C18.5 19.9986 21.5221 16.9766 25.25 16.9766C28.9779 16.9766 32 19.9986 32 23.7266Z" fill="#333333"/>
<path fill-rule="evenodd" clip-rule="evenodd" d="M25.25 28.4766C27.8734 28.4766 30 26.3499 30 23.7266C30 21.1032 27.8734 18.9766 25.25 18.9766C22.6266 18.9766 20.5 21.1032 20.5 23.7266C20.5 26.3499 22.6266 28.4766 25.25 28.4766ZM25.25 30.4766C28.9779 30.4766 32 27.4545 32 23.7266C32 19.9986 28.9779 16.9766 25.25 16.9766C21.5221 16.9766 18.5 19.9986 18.5 23.7266C18.5 27.4545 21.5221 30.4766 25.25 30.4766Z" fill="#333333"/>
<path d="M4 33.1758C4 32.6235 4.44772 32.1758 5 32.1758H38.2L34.6 34.1758H5C4.44772 34.1758 4 33.7281 4 33.1758Z" fill="#333333"/>
<path fill-rule="evenodd" clip-rule="evenodd" d="M43.2584 24.1836C43.2584 34.1247 35.1995 42.1836 25.2584 42.1836C20.2231 42.1836 15.6707 40.116 12.4038 36.7836H18.2815C20.3484 37.9305 22.7271 38.5836 25.2584 38.5836C33.2113 38.5836 39.6584 32.1365 39.6584 24.1836C39.6584 16.2307 33.2113 9.78359 25.2584 9.78359C21.6064 9.78359 18.2719 11.1431 15.7334 13.3836H10.8571C14.141 9.01159 19.3694 6.18359 25.2584 6.18359C35.1995 6.18359 43.2584 14.2425 43.2584 24.1836Z" fill="#333333"/>
<path fill-rule="evenodd" clip-rule="evenodd" d="M10.0575 12.783C13.5222 8.17037 19.0416 5.18359 25.2584 5.18359C35.7518 5.18359 44.2584 13.6902 44.2584 24.1836C44.2584 34.677 35.7518 43.1836 25.2584 43.1836C19.9435 43.1836 15.1369 41 11.6897 37.4836L10.0231 35.7836H18.5404L18.7667 35.9092C20.6889 36.9758 22.9012 37.5836 25.2583 37.5836C32.659 37.5836 38.6583 31.5842 38.6583 24.1836C38.6583 16.783 32.659 10.7836 25.2583 10.7836C21.8593 10.7836 18.7579 12.0479 16.3951 14.1333L16.1116 14.3836H8.85522L10.0575 12.783ZM13.0206 12.3836H15.3624C18.0382 10.1374 21.4913 8.78359 25.2583 8.78359C33.7635 8.78359 40.6583 15.6784 40.6583 24.1836C40.6583 32.6888 33.7635 39.5836 25.2583 39.5836C22.6467 39.5836 20.1843 38.9327 18.0273 37.7836H15.0565C17.8984 39.9191 21.4301 41.1836 25.2584 41.1836C34.6472 41.1836 42.2584 33.5724 42.2584 24.1836C42.2584 14.7948 34.6472 7.18359 25.2584 7.18359C20.4531 7.18359 16.1135 9.1765 13.0206 12.3836Z" fill="#333333"/>
</svg>
