<svg width="48" height="48" viewBox="0 0 48 48" fill="none" xmlns="http://www.w3.org/2000/svg">
<path d="M16.5247 12C22.3789 12 21.8466 19.9612 21.8466 23.1456C21.8466 27.2099 22.8514 35.4123 19.7179 38.5372C16.5247 41.7217 10.1385 43.3139 6.94536 40.6602C3.75222 38.0065 9.07413 12 16.5247 12Z" fill="#333333"/>
<path fill-rule="evenodd" clip-rule="evenodd" d="M31.4753 12C26.0364 12 26.11 18.8716 26.1478 22.4003C26.1507 22.6698 26.1534 22.9197 26.1534 23.1456C26.1534 23.8661 26.1218 24.7167 26.0873 25.646C25.9272 29.9586 25.7041 35.9662 28.2821 38.5372C31.4753 41.7217 37.8615 43.3139 41.0547 40.6602C44.2478 38.0065 38.9259 12 31.4753 12ZM34 17C34 18.1046 33.1046 19 32 19C30.8954 19 30 18.1046 30 17C30 15.8954 30.8954 15 32 15C33.1046 15 34 15.8954 34 17ZM32 32C33.1046 32 34 31.1046 34 30C34 28.8954 33.1046 28 32 28C30.8954 28 30 28.8954 30 30C30 31.1046 30.8954 32 32 32ZM39 27C39 28.1046 38.1046 29 37 29C35.8954 29 35 28.1046 35 27C35 25.8954 35.8954 25 37 25C38.1046 25 39 25.8954 39 27ZM31 26C32.6569 26 34 24.6569 34 23C34 21.3431 32.6569 20 31 20C29.3431 20 28 21.3431 28 23C28 24.6569 29.3431 26 31 26Z" fill="#333333"/>
<path fill-rule="evenodd" clip-rule="evenodd" d="M23 6.00013C23 6.00004 23 6 24 6C25 6 25 6.00004 25 6.00013V20.5C25 22.6023 24.064 23.8079 23.0038 24.4263C22.5064 24.7164 22.0178 24.8573 21.6596 24.9269C21.4785 24.9621 21.3249 24.9803 21.2119 24.9897C21.1552 24.9944 21.1082 24.997 21.0725 24.9984C21.0546 24.9991 21.0395 24.9995 21.0274 24.9997L21.0114 24.9999L21.0051 25L21.0024 25L21.0011 25C21.0005 25 21 25 21 24C21 23 20.9994 23 20.9988 23L20.9978 23L20.9959 23L20.9929 23L20.9897 23.0001C20.9897 23.0001 20.9913 23 20.9948 22.9999C21.003 22.9996 21.0205 22.9987 21.0458 22.9966C21.0969 22.9924 21.1776 22.9832 21.2778 22.9637C21.4821 22.924 21.7435 22.8461 21.9961 22.6987C22.4359 22.4421 23 21.8977 23 20.5V6.00013Z" fill="#333333"/>
<path fill-rule="evenodd" clip-rule="evenodd" d="M25 6.00013C25 6.00004 25 6 24 6C23 6 23 6.00004 23 6.00013V20.5C23 22.6023 23.936 23.8079 24.9962 24.4263C25.4936 24.7164 25.9822 24.8573 26.3404 24.9269C26.5215 24.9621 26.6751 24.9803 26.7881 24.9897C26.8448 24.9944 26.8918 24.997 26.9275 24.9984C26.9454 24.9991 26.9605 24.9995 26.9726 24.9997L26.9886 24.9999L26.9949 25L26.9976 25L26.9989 25C26.9995 25 27 25 27 24C27 23 27.0006 23 27.0012 23L27.0022 23L27.0041 23L27.0071 23L27.0103 23.0001C27.0103 23.0001 27.0087 23 27.0052 22.9999C26.997 22.9996 26.9795 22.9987 26.9542 22.9966C26.9031 22.9924 26.8224 22.9832 26.7222 22.9637C26.5179 22.924 26.2565 22.8461 26.0039 22.6987C25.5641 22.4421 25 21.8977 25 20.5V6.00013Z" fill="#333333"/>
</svg>
