<svg width="48" height="49" viewBox="0 0 48 49" fill="none" xmlns="http://www.w3.org/2000/svg">
<path fill-rule="evenodd" clip-rule="evenodd" d="M18.9829 30.239L18.9814 28.4604L18.9763 22.2487L18.9662 9.8415C18.9638 6.88283 21.2004 4.48253 23.9618 4.48026C26.7232 4.478 28.9638 6.87464 28.9662 9.83331L28.9763 22.2405L28.9814 28.4527L28.9829 30.2308C30.813 31.6954 31.9859 33.9473 31.988 36.4737C31.9916 40.892 28.4128 44.4766 23.9945 44.4803C19.5763 44.4839 15.9916 40.9051 15.988 36.4868C15.9859 33.9604 17.1552 31.7066 18.9829 30.239ZM22.9584 21.9023C24.1541 22.2114 25.5195 22.5644 26.9766 22.5388L26.9749 20.4538L24.9749 20.4554C24.4226 20.4558 23.9745 20.0085 23.9741 19.4562C23.9736 18.9039 24.421 18.4558 24.9732 18.4554L26.9732 18.4538L26.9716 16.4538L24.9716 16.4554C24.4193 16.4558 23.9712 16.0085 23.9708 15.4562C23.9703 14.9039 24.4177 14.4558 24.97 14.4554L26.97 14.4538L26.9683 12.4538L24.9683 12.4554C24.416 12.4558 23.968 12.0085 23.9675 11.4562C23.9671 10.9039 24.4144 10.4558 24.9667 10.4554L26.9667 10.4538L26.9662 9.83495C26.9647 8.05975 25.6204 6.62176 23.9635 6.62312C22.3067 6.62448 20.9647 8.06466 20.9662 9.83986L20.9757 21.4813C21.5615 21.5412 22.2283 21.7136 22.9584 21.9023Z" fill="#333333"/>
</svg>
