<svg width="48" height="48" viewBox="0 0 48 48" fill="none" xmlns="http://www.w3.org/2000/svg">
<path d="M31.7112 8C29.9132 8 28.442 9.47112 28.442 11.2691C28.442 13.0672 29.9132 14.5383 31.7112 14.5383C33.5092 14.5383 34.9803 13.0672 34.9803 11.2691C34.9803 9.47112 33.5092 8 31.7112 8Z" fill="#333333"/>
<path d="M18.6346 19.443H26.8075V39.0579C26.8075 39.9569 27.5431 40.6924 28.4421 40.6924C29.3411 40.6924 30.0767 39.9569 30.0767 39.0579V30.885H33.3458V39.0579C33.3458 39.9569 34.0814 40.6924 34.9804 40.6924C35.8794 40.6924 36.615 39.9569 36.615 39.0579V19.443V26.9092C37.514 26.9092 40.29 25.198 40.29 20.9843C40.29 17.8084 37.514 16.1738 36.615 16.1738H18.6346C17.7356 16.1738 17.0001 16.9094 17.0001 17.8084C17.0001 18.7074 17.7356 19.443 18.6346 19.443Z" fill="#333333"/>
<path fill-rule="evenodd" clip-rule="evenodd" d="M8 32C8 30.8954 8.89543 30 10 30H21C22.1046 30 23 30.8954 23 32V38C23 39.1046 22.1046 40 21 40H10C8.89543 40 8 39.1046 8 38V32ZM12 32C12.5523 32 13 32.4477 13 33V37C13 37.5523 12.5523 38 12 38C11.4477 38 11 37.5523 11 37V33C11 32.4477 11.4477 32 12 32ZM20 33C20 32.4477 19.5523 32 19 32C18.4477 32 18 32.4477 18 33V37C18 37.5523 18.4477 38 19 38C19.5523 38 20 37.5523 20 37V33Z" fill="#333333"/>
<path fill-rule="evenodd" clip-rule="evenodd" d="M12 28C12 26.8954 12.8954 26 14 26H17C18.1046 26 19 26.8954 19 28V30.5H17V28H14V30.5H12V28Z" fill="#333333"/>
</svg>
