<svg width="48" height="48" viewBox="0 0 48 48" fill="none" xmlns="http://www.w3.org/2000/svg">
<path fill-rule="evenodd" clip-rule="evenodd" d="M33 6H35V4H5V6H7L7 8H6V10V19C6 21.3266 7.35331 23.6533 8.4856 25.1928C9.29997 26.3 10 27 10 27C9.21329 27 8.47963 27.2271 7.86101 27.6194C6.74247 28.3286 6 29.5776 6 31V32V38C6 39.4806 6.8044 40.7733 8 41.4649L8 44H10V42H30V44H32V41.4649C33.1956 40.7733 34 39.4806 34 38V34H36C36.5523 34 37 34.4477 37 35V37H39H40H42V35C42 31.6863 39.3137 29 36 29H40V27H35V29H34H33.4649C33.1407 28.4397 32.6846 27.9653 32.139 27.6194C31.5204 27.2271 30.7867 27 30 27C30 27 30.7 26.3 31.5144 25.1928C32.6467 23.6533 34 21.3266 34 19V10V8H33V6ZM32 32V33.3466C29.5556 34.5439 27.1111 34.096 24.6667 32C24.1111 32.4762 23.5556 32.8673 23 33.1735V29H25V23H27V27.1716L25.1716 29H30C31.1046 29 32 29.8954 32 31V32ZM21 29V23H23V29H21ZM19 29H21V33.9082C20.3333 34.0306 19.6667 34.0306 19 33.9082V29ZM17 29V23H19V29H17ZM17 29H15V23H13V27.1716L14.8284 29H10C8.89543 29 8 29.8954 8 31V33.3469C10.4444 34.5442 12.8889 34.0952 15.3333 32C15.8889 32.4762 16.4444 32.8673 17 33.1735V29ZM34 32V31H36C38.2091 31 40 32.7909 40 35H39C39 33.3431 37.6569 32 36 32H34ZM31 6H9V8H31V6ZM9.41228 23H11V25.1339C10.9661 25.0951 10.9305 25.0541 10.8935 25.0109C10.5572 24.6186 10.1092 24.0583 9.6641 23.3906C9.57831 23.2619 9.49423 23.1316 9.41228 23ZM29.1065 25.0109C29.0695 25.0541 29.0339 25.0951 29 25.1339V23H30.5877C30.5058 23.1316 30.4217 23.2619 30.3359 23.3906C29.8908 24.0583 29.4428 24.6186 29.1065 25.0109ZM32 16H8V10H32V16ZM39.5 43C40.3284 43 41 42.186 41 41.1818C41 39.5909 39.5 38 39.5 38C39.5 38 38 39.5909 38 41.1818C38 42.186 38.6716 43 39.5 43Z" fill="#333333"/>
</svg>
