<svg width="48" height="48" viewBox="0 0 48 48" fill="none" xmlns="http://www.w3.org/2000/svg">
<path fill-rule="evenodd" clip-rule="evenodd" d="M24 29.9301C24.5522 29.9301 25 30.3778 25 30.9301V41C25 41.5523 24.5522 42 24 42C23.4477 42 23 41.5523 23 41V30.9301C23 30.3778 23.4477 29.9301 24 29.9301Z" fill="#333333"/>
<path fill-rule="evenodd" clip-rule="evenodd" d="M20 37.9301C20 37.3778 20.4477 36.9301 21 36.9301H27C27.5522 36.9301 28 37.3778 28 37.9301C28 38.4824 27.5522 38.9301 27 38.9301H21C20.4477 38.9301 20 38.4824 20 37.9301Z" fill="#333333"/>
<path fill-rule="evenodd" clip-rule="evenodd" d="M24 13C19.5817 13 16 16.5818 16 21C16 25.4183 19.5817 29 24 29C28.4182 29 32 25.4183 32 21C32 16.5818 28.4182 13 24 13ZM24 11C18.4771 11 14 15.4772 14 21C14 26.5229 18.4771 31 24 31C29.5228 31 34 26.5229 34 21C34 15.4772 29.5228 11 24 11Z" fill="#333333"/>
<path fill-rule="evenodd" clip-rule="evenodd" d="M31.2906 16.7049C30.9013 16.3132 30.9033 15.68 31.2951 15.2907L38.8783 7.75507C39.2701 7.36578 39.9032 7.36777 40.2925 7.75953C40.6818 8.15128 40.6798 8.78444 40.2881 9.17373L32.7048 16.7094C32.3131 17.0987 31.6799 17.0967 31.2906 16.7049Z" fill="#333333"/>
<path fill-rule="evenodd" clip-rule="evenodd" d="M37.8751 15.8273C37.4846 16.2178 36.8514 16.2178 36.4609 15.8273L32.2183 11.5846C31.8277 11.1941 31.8277 10.5609 32.2183 10.1704C32.6088 9.77989 33.242 9.77989 33.6325 10.1704L37.8751 14.4131C38.2656 14.8036 38.2656 15.4367 37.8751 15.8273Z" fill="#333333"/>
<path fill-rule="evenodd" clip-rule="evenodd" d="M40 13.0001C39.4477 13.0001 39 12.5524 39 12.0001V9.00008H36C35.4477 9.00008 35 8.55237 35 8.00008C35 7.4478 35.4477 7.00008 36 7.00008H40C40.5523 7.00008 41 7.4478 41 8.00008V12.0001C41 12.5524 40.5523 13.0001 40 13.0001Z" fill="#333333"/>
<path fill-rule="evenodd" clip-rule="evenodd" d="M9.17131 7.75717L16.167 14.7529C16.5576 15.1434 16.5576 15.7766 16.167 16.1671C15.7765 16.5576 15.1433 16.5576 14.7528 16.1671L7.75709 9.17139C7.36657 8.78086 7.36657 8.1477 7.75709 7.75717C8.14762 7.36665 8.78078 7.36665 9.17131 7.75717Z" fill="#333333"/>
<path fill-rule="evenodd" clip-rule="evenodd" d="M13 8C13 8.55228 12.5523 9 12 9H9V12C9 12.5523 8.55228 13 8 13C7.44772 13 7 12.5523 7 12V8C7 7.44772 7.44772 7 8 7H12C12.5523 7 13 7.44772 13 8Z" fill="#333333"/>
</svg>
