<svg width="48" height="48" viewBox="0 0 48 48" fill="none" xmlns="http://www.w3.org/2000/svg">
<path d="M21 22H33V20H21V22Z" fill="#333333"/>
<path fill-rule="evenodd" clip-rule="evenodd" d="M42 21C42 29.2843 35.2843 36 27 36C23.2615 36 19.8424 34.6323 17.2158 32.37L15.8702 33.7156L15.7122 35.1163L8.82843 42.0001L6 39.1716L12.9266 32.245L14.6317 32.1257L15.7902 30.9672C13.4324 28.3174 12 24.826 12 21C12 12.7157 18.7157 6 27 6C35.2843 6 42 12.7157 42 21ZM40 21C40 28.1797 34.1797 34 27 34C19.8203 34 14 28.1797 14 21C14 13.8203 19.8203 8 27 8C34.1797 8 40 13.8203 40 21Z" fill="#333333"/>
</svg>
