<svg width="48" height="48" viewBox="0 0 48 48" fill="none" xmlns="http://www.w3.org/2000/svg">
<path d="M32 20C32 24.4183 28.4183 28 24 28C19.5817 28 16 24.4183 16 20C16 15.5817 19.5817 12 24 12C28.4183 12 32 15.5817 32 20Z" fill="#333333"/>
<path fill-rule="evenodd" clip-rule="evenodd" d="M23.1839 43.9837C12.5166 43.5555 4 34.7723 4 24C4 12.9543 12.9543 4 24 4C35.0457 4 44 12.9543 44 24C44 35.0457 35.0457 44 24 44C23.9539 44 23.9078 43.9998 23.8617 43.9995C23.8165 44 23.7712 44.0001 23.726 43.9999C23.5448 43.9993 23.3641 43.9938 23.1839 43.9837ZM11.1662 36.6211C11.0569 36.3046 11 35.9699 11 35.6309C11 34.0943 12.1487 32.787 13.6894 32.6164C21.4852 31.7531 26.5628 31.8315 34.3209 32.6341C35.8495 32.7922 37 34.0838 37 35.6116C37 35.9636 36.9377 36.3105 36.8188 36.6364C40.0227 33.3866 42 28.9242 42 24C42 14.0589 33.9411 6 24 6C14.0589 6 6 14.0589 6 24C6 28.9165 7.9711 33.3726 11.1662 36.6211Z" fill="#333333"/>
</svg>
