<svg width="48" height="48" viewBox="0 0 48 48" fill="none" xmlns="http://www.w3.org/2000/svg">
<path fill-rule="evenodd" clip-rule="evenodd" d="M24.0001 4C24.5523 4 25.0001 4.44772 25.0001 5V6.01628C34.1571 6.51704 41.4939 13.8538 41.9947 23.0108C42.0107 23.3038 41.6556 23.354 41.4375 23.1577C40.1603 22.0075 38.4696 21.3075 36.6155 21.3075C34.4479 21.3075 32.5037 22.2643 31.1822 23.7786C31.0563 23.9228 30.8765 24.0108 30.6851 24.0108C30.5156 24.0108 30.3541 23.9418 30.2319 23.8243C28.8413 22.4863 27.0218 21.5907 25.0001 21.3641V39.5C25.0001 40.8807 26.1194 42 27.5001 42C28.8808 42 30.0001 40.8807 30.0001 39.5V38C30.0001 37.4477 30.4478 37 31.0001 37C31.5523 37 32.0001 37.4477 32.0001 38V39.5C32.0001 41.9853 29.9853 44 27.5001 44C25.0148 44 23.0001 41.9853 23.0001 39.5V21.3608C20.9614 21.5824 19.1269 22.4841 17.7281 23.8342C17.6126 23.9456 17.4597 24.0108 17.2992 24.0108C17.1181 24.0108 16.9478 23.9275 16.829 23.7908C15.5073 22.2694 13.5585 21.3075 11.385 21.3075C9.5309 21.3075 7.84026 22.0075 6.56298 23.1577C6.34485 23.3541 5.98962 23.3039 6.00565 23.0108C6.50643 13.8539 13.8431 6.51714 23.0001 6.01629V5C23.0001 4.44772 23.4478 4 24.0001 4Z" fill="#333333"/>
</svg>
