<svg width="48" height="48" viewBox="0 0 48 48" fill="none" xmlns="http://www.w3.org/2000/svg">
<path d="M42 7.5C42 8.32843 41.3284 9 40.5 9C39.6716 9 39 8.32843 39 7.5C39 6.67157 39.6716 6 40.5 6C41.3284 6 42 6.67157 42 7.5Z" fill="#333333"/>
<path d="M42 12.5C42 13.3284 41.3284 14 40.5 14C39.6716 14 39 13.3284 39 12.5C39 11.6716 39.6716 11 40.5 11C41.3284 11 42 11.6716 42 12.5Z" fill="#333333"/>
<path d="M42 17.5C42 18.3284 41.3284 19 40.5 19C39.6716 19 39 18.3284 39 17.5C39 16.6716 39.6716 16 40.5 16C41.3284 16 42 16.6716 42 17.5Z" fill="#333333"/>
<path d="M41.5 21.3496C41.5 21.9019 41.0523 22.3496 40.5 22.3496C39.9477 22.3496 39.5 21.9019 39.5 21.3496C39.5 20.7973 39.9477 20.3496 40.5 20.3496C41.0523 20.3496 41.5 20.7973 41.5 21.3496Z" fill="#333333"/>
<path d="M36.6868 7.92226C36.8029 8.74251 36.2321 9.5016 35.4119 9.61774C34.5916 9.73389 33.8325 9.1631 33.7164 8.34285C33.6003 7.52261 34.171 6.76351 34.9913 6.64737C35.8115 6.53123 36.5706 7.10202 36.6868 7.92226Z" fill="#333333"/>
<path d="M37.3879 12.8727C37.5041 13.6929 36.9333 14.452 36.113 14.5682C35.2928 14.6843 34.5337 14.1135 34.4176 13.2933C34.3014 12.473 34.8722 11.714 35.6925 11.5978C36.5127 11.4817 37.2718 12.0525 37.3879 12.8727Z" fill="#333333"/>
<path d="M38.0889 17.8234C38.205 18.6436 37.6342 19.4027 36.814 19.5189C35.9937 19.635 35.2346 19.0642 35.1185 18.244C35.0024 17.4237 35.5731 16.6646 36.3934 16.5485C37.2136 16.4324 37.9727 17.0031 38.0889 17.8234Z" fill="#333333"/>
<path d="M38.79 22.7741C38.9062 23.5943 38.3354 24.3534 37.5151 24.4695C36.6949 24.5857 35.9358 24.0149 35.8197 23.1947C35.7035 22.3744 36.2743 21.6153 37.0946 21.4992C37.9148 21.383 38.6739 21.9538 38.79 22.7741Z" fill="#333333"/>
<path d="M30.0448 9.63063C30.3844 10.3863 30.0472 11.2741 29.2915 11.6137C28.5359 11.9533 27.6481 11.616 27.3085 10.8604C26.9689 10.1047 27.3062 9.2169 28.0618 8.87731C28.8174 8.53773 29.7053 8.875 30.0448 9.63063Z" fill="#333333"/>
<path d="M32.0947 14.1912C32.4342 14.9468 32.097 15.8346 31.3413 16.1742C30.5857 16.5138 29.6979 16.1765 29.3583 15.4209C29.0187 14.6653 29.356 13.7774 30.1116 13.4379C30.8672 13.0983 31.7551 13.4355 32.0947 14.1912Z" fill="#333333"/>
<path d="M34.1442 18.7517C34.4838 19.5073 34.1465 20.3952 33.3909 20.7348C32.6353 21.0744 31.7474 20.7371 31.4078 19.9815C31.0683 19.2258 31.4055 18.338 32.1612 17.9984C32.9168 17.6588 33.8046 17.9961 34.1442 18.7517Z" fill="#333333"/>
<path d="M35.0767 22.2661C35.3031 22.7699 35.0782 23.3618 34.5745 23.5882C34.0707 23.8146 33.4788 23.5897 33.2524 23.086C33.0261 22.5822 33.2509 21.9903 33.7547 21.7639C34.2584 21.5375 34.8503 21.7624 35.0767 22.2661Z" fill="#333333"/>
<path d="M23.0252 12.9107C23.5636 13.5404 23.4896 14.4872 22.8599 15.0256C22.2303 15.564 21.2834 15.4899 20.7451 14.8603C20.2067 14.2306 20.2807 13.2838 20.9103 12.7454C21.54 12.2071 22.4869 12.2811 23.0252 12.9107Z" fill="#333333"/>
<path d="M26.6485 16.6817C27.1869 17.3114 27.1129 18.2582 26.4832 18.7966C25.8536 19.335 24.9067 19.2609 24.3683 18.6313C23.83 18.0016 23.904 17.0548 24.5336 16.5164C25.1633 15.9781 26.1101 16.0521 26.6485 16.6817Z" fill="#333333"/>
<path d="M29.8978 20.482C30.4361 21.1117 30.3621 22.0585 29.7325 22.5969C29.1028 23.1352 28.156 23.0612 27.6176 22.4316C27.0792 21.8019 27.1533 20.8551 27.7829 20.3167C28.4126 19.7784 29.3594 19.8524 29.8978 20.482Z" fill="#333333"/>
<path d="M33.147 24.2823C33.6854 24.912 33.6114 25.8588 32.9817 26.3972C32.3521 26.9355 31.4052 26.8615 30.8669 26.2319C30.3285 25.6022 30.4025 24.6554 31.0322 24.117C31.6618 23.5786 32.6087 23.6527 33.147 24.2823Z" fill="#333333"/>
<path d="M27.5616 13.6911C27.5616 14.1705 27.1729 14.5591 26.6935 14.5591C26.2141 14.5591 25.8254 14.1705 25.8254 13.6911C25.8254 13.2116 26.2141 12.823 26.6935 12.823C27.1729 12.823 27.5616 13.2116 27.5616 13.6911Z" fill="#333333"/>
<path d="M30.1546 18.0338C30.1546 18.5133 29.766 18.9019 29.2865 18.9019C28.8071 18.9019 28.4185 18.5133 28.4185 18.0338C28.4185 17.5544 28.8071 17.1658 29.2865 17.1658C29.766 17.1658 30.1546 17.5544 30.1546 18.0338Z" fill="#333333"/>
<path d="M34.5787 15.9211C34.5787 16.4005 34.19 16.7891 33.7106 16.7891C33.2312 16.7891 32.8425 16.4005 32.8425 15.9211C32.8425 15.4416 33.2312 15.053 33.7106 15.053C34.19 15.053 34.5787 15.4416 34.5787 15.9211Z" fill="#333333"/>
<path d="M39.3343 15.1322C39.3343 15.6117 38.9456 16.0003 38.4662 16.0003C37.9868 16.0003 37.5981 15.6117 37.5981 15.1322C37.5981 14.6528 37.9868 14.2642 38.4662 14.2642C38.9456 14.2642 39.3343 14.6528 39.3343 15.1322Z" fill="#333333"/>
<path d="M33.5777 11.3605C33.5777 11.8399 33.189 12.2286 32.7096 12.2286C32.2302 12.2286 31.8416 11.8399 31.8416 11.3605C31.8416 10.8811 32.2302 10.4924 32.7096 10.4924C33.189 10.4924 33.5777 10.8811 33.5777 11.3605Z" fill="#333333"/>
<path d="M39.0001 10.1317C39.0001 10.6112 38.6114 10.9998 38.132 10.9998C37.6526 10.9998 37.2639 10.6112 37.2639 10.1317C37.2639 9.65232 37.6526 9.26367 38.132 9.26367C38.6114 9.26367 39.0001 9.65232 39.0001 10.1317Z" fill="#333333"/>
<path fill-rule="evenodd" clip-rule="evenodd" d="M20.7263 12.9585C19.2462 14.0427 17.8477 15.241 16.5443 16.5444C13.2014 19.8873 10.5497 23.8559 8.74049 28.2236C7.18676 31.9747 6.2806 35.957 6.05569 40.0012C5.99436 41.1041 6.89558 42.0003 8.00015 42.0003H22.0001C23.1047 42.0003 23.9887 41.1021 24.1111 40.0044C24.2984 38.3258 24.7214 36.6785 25.3703 35.1119C26.2749 32.9281 27.6008 30.9438 29.2722 29.2723C30.2826 28.262 31.4072 27.378 32.6211 26.6369C28.805 22.1903 24.0012 16.635 20.7263 12.9585ZM25.0958 21.7402L24.3725 22.4307C23.8312 22.9474 23.3106 23.4883 22.8119 24.0515L22.1489 24.8002L20.6516 23.4742L21.3146 22.7256C21.8499 22.1211 22.4092 21.5399 22.9914 20.9841L23.7147 20.2935L25.0958 21.7402ZM20.6433 26.8088L20.1083 27.6537C19.3093 28.9156 18.6019 30.2489 17.9939 31.6399L17.5934 32.5562L15.7608 31.7551L16.1613 30.8388C16.8094 29.3561 17.5644 27.9327 18.4186 26.5837L18.9535 25.7389L20.6433 26.8088ZM16.7568 34.9368L16.4948 35.9019C16.2981 36.6264 16.1267 37.3613 15.9816 38.1047L15.79 39.0862L13.827 38.7029L14.0186 37.7215C14.173 36.9307 14.3553 36.149 14.5646 35.3779L14.8266 34.4129L16.7568 34.9368Z" fill="#333333"/>
</svg>
