<svg width="48" height="48" viewBox="0 0 48 48" fill="none" xmlns="http://www.w3.org/2000/svg">
<path d="M27.5551 18.4573L30.1541 26.4381C30.4783 27.3486 31.4792 27.8239 32.3897 27.4996C33.3002 27.1754 33.7755 26.1744 33.4512 25.264L30.0908 15.8274C29.7006 14.7317 28.6632 14 27.5001 14H20.3836C19.2044 14 18.1564 14.7518 17.7786 15.8688L14.5928 25.2863C14.2831 26.2019 14.2742 27.1951 15.1897 27.5048C16.1053 27.8145 17.5986 27.3234 17.9083 26.4079L20.5001 18.4573L22 26L19.5001 29V42.3515C19.5001 43.2578 20.256 43.9993 21.1798 43.9993C22.1037 43.9993 22.8595 43.2578 22.8595 42.3515V30.6052H25.1407V42.3515C25.1407 43.2578 25.796 43.9993 26.7199 43.9993C27.6437 43.9993 28.5001 43.2578 28.5001 42.3515V29L26 26L27.5551 18.4573Z" fill="#333333"/>
<path d="M28.0003 8.00181C28.0003 10.2119 26.2094 12.0036 24.0002 12.0036C21.791 12.0036 20.0001 10.2119 20.0001 8.00181C20.0001 5.79167 21.791 4 24.0002 4C26.2094 4 28.0003 5.79167 28.0003 8.00181Z" fill="#333333"/>
</svg>
