<svg width="48" height="48" viewBox="0 0 48 48" fill="none" xmlns="http://www.w3.org/2000/svg">
<path fill-rule="evenodd" clip-rule="evenodd" d="M14.5 35C15.8807 35 17 33.8807 17 32.5C17 31.1193 15.8807 30 14.5 30C13.1193 30 12 31.1193 12 32.5C12 33.8807 13.1193 35 14.5 35ZM14.5 38C17.5376 38 20 35.5376 20 32.5C20 29.4624 17.5376 27 14.5 27C11.4624 27 9 29.4624 9 32.5C9 35.5376 11.4624 38 14.5 38Z" fill="#333333"/>
<path fill-rule="evenodd" clip-rule="evenodd" d="M38 35C39.3807 35 40.5 33.8807 40.5 32.5C40.5 31.1193 39.3807 30 38 30C36.6193 30 35.5 31.1193 35.5 32.5C35.5 33.8807 36.6193 35 38 35ZM38 38C41.0375 38 43.5 35.5376 43.5 32.5C43.5 29.4624 41.0375 27 38 27C34.9624 27 32.5 29.4624 32.5 32.5C32.5 35.5376 34.9624 38 38 38Z" fill="#333333"/>
<path d="M33.3583 33.28C32.8144 33.3759 32.286 33.0107 32.29 32.4584C32.2981 31.3512 32.6406 30.2636 33.2846 29.3439C34.1212 28.149 35.3983 27.3354 36.8348 27.0821C38.2714 26.8288 39.7497 27.1566 40.9446 27.9932C41.8643 28.6372 42.5581 29.5421 42.9444 30.5798C43.1371 31.0974 42.7654 31.6212 42.2215 31.7171L33.3583 33.28Z" fill="#333333"/>
<path fill-rule="evenodd" clip-rule="evenodd" d="M40.371 28.8124C39.3934 28.1278 38.1838 27.8597 37.0085 28.0669C35.8331 28.2742 34.7883 28.9398 34.1037 29.9175C33.6138 30.6172 33.3371 31.4358 33.2954 32.2756L41.9371 30.7519C41.6107 29.9769 41.0707 29.3023 40.371 28.8124ZM42.0493 30.732C42.0499 30.7319 42.0493 30.732 42.0493 30.732V30.732ZM36.6612 26.0973C38.3589 25.798 40.106 26.1853 41.5182 27.1741C42.6051 27.9352 43.425 29.0046 43.8816 30.2309C44.3365 31.453 43.4226 32.5208 42.3952 32.7019L33.5319 34.2648C32.5045 34.4459 31.2805 33.7551 31.2901 32.4511C31.2996 31.1426 31.7043 29.8573 32.4654 28.7703C33.4542 27.3582 34.9635 26.3967 36.6612 26.0973Z" fill="#333333"/>
<path d="M9 21C9 19.3431 10.3431 18 12 18H21C22.6569 18 24 19.3431 24 21V22H9V21Z" fill="#333333"/>
<path fill-rule="evenodd" clip-rule="evenodd" d="M23.8293 20C23.9398 20.3128 24 20.6494 24 21V22H9V21C9 20.6494 9.06015 20.3128 9.17071 20C9.58254 18.8348 10.6938 18 12 18H21C22.3062 18 23.4175 18.8348 23.8293 20Z" fill="#333333"/>
<path d="M4 32.6C4 27.8503 8.51584 24 14.0864 24H22.1556C22.6219 24 23 24.3224 23 24.72V31.2C23 32.1941 22.0548 33 20.8889 33H4.46914C4.21004 33 4 32.8209 4 32.6Z" fill="#333333"/>
<path fill-rule="evenodd" clip-rule="evenodd" d="M21 26H14.0864C10.0787 26 7.10383 28.2821 6.24973 31H20.8889C20.9327 31 20.9699 30.9946 21 30.9869V26ZM14.0864 24C8.51584 24 4 27.8503 4 32.6C4 32.8209 4.21004 33 4.46914 33H20.8889C22.0548 33 23 32.1941 23 31.2V24.72C23 24.3224 22.6219 24 22.1556 24H14.0864Z" fill="#333333"/>
<path fill-rule="evenodd" clip-rule="evenodd" d="M30.8047 18.5627L29 33H32.5L35 28.6712V19H32.5C31.8849 19 31.3069 18.8413 30.8047 18.5627Z" fill="#333333"/>
<path d="M29 13.5C29 11.567 30.567 10 32.5 10H36.3846C36.7245 10 37 10.2755 37 10.6154V16.3846C37 16.7245 36.7245 17 36.3846 17H32.5C30.567 17 29 15.433 29 13.5Z" fill="#333333"/>
<path fill-rule="evenodd" clip-rule="evenodd" d="M35 12H32.5C31.6716 12 31 12.6716 31 13.5C31 14.3284 31.6716 15 32.5 15H35V12ZM32.5 10C30.567 10 29 11.567 29 13.5C29 15.433 30.567 17 32.5 17H36.3846C36.7245 17 37 16.7245 37 16.3846V10.6154C37 10.2755 36.7245 10 36.3846 10H32.5Z" fill="#333333"/>
<path d="M25.3462 11L30.2707 11.8655L29.9245 13.8353L25 12.9698L25.3462 11Z" fill="#333333"/>
<path d="M21 26H31L29.2353 33H21V26Z" fill="#333333"/>
</svg>
