<svg width="48" height="48" viewBox="0 0 48 48" fill="none" xmlns="http://www.w3.org/2000/svg">
<path fill-rule="evenodd" clip-rule="evenodd" d="M6.81815 14.5002C6.36628 14.0483 6.36628 13.3157 6.81815 12.8638L13.3636 6.31822C13.8155 5.86634 14.5481 5.86634 14.9999 6.31822C15.4518 6.7701 15.4518 7.50274 14.9999 7.95462L14.1823 8.77229L18.2726 12.8627L21.5454 9.58995C21.9972 9.13808 22.7299 9.13807 23.1817 9.58995C23.6336 10.0418 23.6336 10.7745 23.1817 11.2264L21.5449 12.8632L35.4545 26.7731C37.132 28.4507 37.564 30.9021 36.7504 32.9783L37.9089 34.1367C38.5144 34.7423 38.7142 35.5999 38.5083 36.3718L41.1818 39.0454C41.6337 39.4973 41.6337 40.23 41.1818 40.6818C40.7299 41.1337 39.9973 41.1337 39.5455 40.6818L36.8723 38.0086C36.1001 38.2151 35.242 38.0154 34.6361 37.4095L33.4777 36.2511C31.4016 37.0647 28.9502 36.6327 27.2727 34.9551L26.8788 34.5612C26.9586 34.0525 27 33.5311 27 33C27 32.3584 26.9396 31.731 26.8241 31.123L31.9 26.047L20.1307 14.2774L14.7773 19.631L18.22 23.0737C17.8201 23.0251 17.413 23 17 23C16.469 23 15.9476 23.0414 15.439 23.1211L13.3631 21.0452L11.7272 22.6811C11.2753 23.133 10.5427 23.133 10.0909 22.6811C9.63899 22.2293 9.63899 21.4966 10.0909 21.0447L13.3636 17.7719L9.27321 13.6815L8.45451 14.5002C8.00264 14.9521 7.27002 14.9521 6.81815 14.5002ZM35.4545 34.9551C35.3799 35.0296 35.3039 35.1017 35.2264 35.1713L36.0503 35.9953C36.173 36.118 36.372 36.118 36.4947 35.9953C36.6174 35.8726 36.6174 35.6737 36.4947 35.551L35.6707 34.727C35.6011 34.8045 35.529 34.8805 35.4545 34.9551ZM34.0403 28.1873C35.1382 29.2853 35.4207 30.8901 34.8877 32.2488L32.7482 34.3883C31.3895 34.9214 29.7848 34.6389 28.6869 33.5409L28.1829 33.0369L33.5363 27.6834L34.0403 28.1873ZM16.8585 14.277L14.7778 16.3577L10.6874 12.2673L12.7681 10.1865L16.8585 14.277ZM19.7574 37.1717C19.2326 37.5193 18.6384 37.7705 18 37.9V39.0001C18.5523 39.0001 19 39.4478 19 40.0001C19 40.5523 18.5523 41.0001 18 41.0001H16C15.4477 41.0001 15 40.5523 15 40.0001C15 39.4478 15.4477 39.0001 16 39.0001V37.9C15.3616 37.7705 14.7674 37.5193 14.2426 37.1717L13.4142 38.0001C13.8047 38.3907 13.8047 39.0238 13.4142 39.4143C13.0236 39.8049 12.3905 39.8049 12 39.4143L10.5857 38.0001C10.1952 37.6096 10.1952 36.9764 10.5857 36.5859C10.9763 36.1954 11.6094 36.1954 12 36.5859L12.8284 35.7575C12.4808 35.2326 12.2296 34.6384 12.1 34.0001H11C11 34.5523 10.5523 35.0001 10 35.0001C9.44772 35.0001 9 34.5523 9 34.0001V32.0001C9 31.4478 9.44772 31.0001 10 31.0001C10.5523 31.0001 11 31.4478 11 32.0001H12.1C12.2296 31.3617 12.4808 30.7675 12.8284 30.2427L12 29.4144C11.6095 29.8049 10.9764 29.8049 10.5858 29.4144C10.1953 29.0238 10.1953 28.3907 10.5858 28.0001L11.2835 27.3024C11.2866 27.2993 11.2898 27.2961 11.2929 27.293C11.296 27.2898 11.2992 27.2867 11.3024 27.2836L12 26.5859C12.3906 26.1954 13.0237 26.1954 13.4143 26.5859C13.8048 26.9764 13.8048 27.6096 13.4143 28.0001L14.2426 28.8285C14.7674 28.4809 15.3616 28.2297 16 28.1001V27.0001C15.4477 27.0001 15 26.5523 15 26.0001C15 25.4478 15.4477 25.0001 16 25.0001H18C18.5523 25.0001 19 25.4478 19 26.0001C19 26.5523 18.5523 27.0001 18 27.0001V28.1001C18.6384 28.2297 19.2326 28.4809 19.7574 28.8285L20.5858 28C20.1953 27.6095 20.1953 26.9763 20.5858 26.5858C20.9764 26.1952 21.6095 26.1952 22 26.5858L23.4143 28C23.8048 28.3905 23.8048 29.0237 23.4143 29.4142C23.0237 29.8047 22.3906 29.8047 22 29.4142L21.1716 30.2427C21.5192 30.7675 21.7704 31.3617 21.9 32.0001H23C23 31.4478 23.4477 31.0001 24 31.0001C24.5523 31.0001 25 31.4478 25 32.0001V34.0001C25 34.5523 24.5523 35.0001 24 35.0001C23.4477 35.0001 23 34.5523 23 34.0001H21.9C21.7704 34.6384 21.5192 35.2326 21.1716 35.7575L22 36.5859C22.3906 36.1954 23.0237 36.1954 23.4143 36.5859C23.8048 36.9764 23.8048 37.6096 23.4143 38.0001L22 39.4143C21.6095 39.8049 20.9764 39.8049 20.5858 39.4143C20.1953 39.0238 20.1953 38.3907 20.5858 38.0001L19.7574 37.1717Z" fill="#333333"/>
</svg>
