<svg width="48" height="48" viewBox="0 0 48 48" fill="none" xmlns="http://www.w3.org/2000/svg">
<path d="M26.6569 8.44385L32.435 10.6628L31.3255 13.5519L29.8802 12.9963L28.7258 16.0061C29.9312 16.721 30.9603 17.6989 31.7355 18.8626L34.6803 17.5519L34.0505 16.1376L36.8776 14.8795L39.3952 20.5338L36.5681 21.7918L35.9383 20.3791L32.9951 21.6897C33.1839 22.4278 33.2845 23.2031 33.2845 24C33.2845 24.6283 33.2226 25.2426 33.1034 25.8368L36.1116 26.9912L36.6656 25.5474L39.5562 26.6569L37.3372 32.435L34.4481 31.3255L35.0021 29.8817L31.9939 28.7258C31.279 29.9312 30.3011 30.9603 29.1374 31.7355L30.4481 34.6803L31.8624 34.0505L33.1205 36.8776L27.4662 39.3952L26.2082 36.5681L27.621 35.9383L26.3103 32.9951C25.5722 33.1839 24.7969 33.2845 24 33.2845C23.3702 33.2845 22.7559 33.2226 22.1617 33.1019L21.0073 36.1116L22.4526 36.6656L21.3431 39.5562L15.565 37.3372L16.6745 34.4481L18.1167 35.0021L19.2742 31.9939C18.0688 31.279 17.0397 30.3011 16.2629 29.1374L13.3182 30.4481L13.948 31.8624L11.1209 33.1205L8.60323 27.4662L11.4304 26.2082L12.0586 27.6225L15.0033 26.3103C14.8161 25.5722 14.7155 24.7969 14.7155 24C14.7155 23.3718 14.7774 22.7574 14.8966 22.1632L11.8868 21.0089L11.3344 22.4526L8.44385 21.3431L10.6628 15.5666L13.5519 16.6761L12.9963 18.1198L16.0061 19.2757C16.721 18.0688 17.6989 17.0397 18.8626 16.2629L17.5519 13.3182L16.1376 13.948L14.8795 11.1209L20.5338 8.60478L21.7918 11.4319L20.3791 12.0617L21.6897 15.0049C22.4278 14.8161 23.2031 14.7155 24 14.7155C24.6283 14.7155 25.2426 14.7774 25.8368 14.8966L26.9896 11.8868L25.5474 11.3344L26.6569 8.44385ZM21.1125 25.9064C20.6854 26.6461 20.9392 27.5931 21.6789 28.0202C22.4185 28.4473 23.3656 28.1935 23.7927 27.4538C24.2197 26.7142 23.966 25.7672 23.2263 25.3401C22.4866 24.913 21.5396 25.1668 21.1125 25.9064ZM27.0948 22.4526C26.2407 22.4526 25.5474 23.1458 25.5474 24C25.5474 24.8542 26.2407 25.5474 27.0948 25.5474C27.949 25.5474 28.6422 24.8542 28.6422 24C28.6422 23.1458 27.949 22.4526 27.0948 22.4526ZM21.6789 19.9798C20.9392 20.4069 20.6854 21.3539 21.1125 22.0936C21.5396 22.8333 22.4866 23.087 23.2263 22.6599C23.966 22.2329 24.2197 21.2858 23.7927 20.5462C23.3656 19.8065 22.4185 19.5527 21.6789 19.9798Z" fill="#333333"/>
</svg>
