<svg width="48" height="48" viewBox="0 0 48 48" fill="none" xmlns="http://www.w3.org/2000/svg">
<path fill-rule="evenodd" clip-rule="evenodd" d="M24.842 13.3755C25.2645 14.1054 25.8952 14.694 26.6542 15.0667C27.1551 15.3147 27.7003 15.4621 28.2584 15.5005C28.8166 15.5389 29.3769 15.4674 29.9073 15.2902C30.4377 15.113 30.9278 14.8336 31.3497 14.4678C31.7715 14.1021 32.1168 13.6572 32.3659 13.1587C32.7452 12.4057 32.8912 11.5576 32.7856 10.7219C32.6799 9.88624 32.3273 9.10059 31.7723 8.4646C31.2174 7.82861 30.4852 7.37091 29.6686 7.14953C28.852 6.92815 27.9876 6.95306 27.1853 7.22111C26.3829 7.48916 25.6785 7.98826 25.1615 8.65515C24.6445 9.32204 24.3382 10.1267 24.2813 10.967C24.2244 11.8074 24.4196 12.6457 24.842 13.3755ZM7.85468 16.8405C7.23314 17.5422 6.71897 18.3351 6.32988 19.1918C6.04906 19.8907 6.03763 20.669 6.29789 21.3692C6.55816 22.0695 7.07071 22.6395 7.73201 22.9643L18.4765 28.3672L17.0655 38.1861C16.973 38.895 17.1562 39.6091 17.5758 40.1754C17.9953 40.7418 18.6179 41.1152 19.31 41.2159C19.6432 41.2476 19.98 41.2104 20.3004 41.1064C20.6208 41.0024 20.9182 40.8339 21.1746 40.6109C21.4311 40.3878 21.6414 40.1149 21.7929 39.8084C21.9445 39.5019 22.0342 39.1681 22.0567 38.8271L23.5385 27.6325C23.701 27.0835 23.6966 26.4993 23.5259 25.9572C23.3552 25.4151 23.0264 24.9408 22.5829 24.597L16.0701 19.9399C17.1455 18.9288 18.1614 17.8537 19.1121 16.7203L19.0189 18.5498C18.9995 18.8887 19.0655 19.2259 19.2105 19.5294C19.3556 19.8328 19.5748 20.0925 19.8475 20.2835L26.4025 24.951C26.5979 25.0887 26.8165 25.189 27.0479 25.2469C27.4928 25.3542 27.9624 25.2991 28.3755 25.0912C28.7886 24.8833 29.1193 24.5356 29.3103 24.1083C29.5012 23.681 29.5405 23.201 29.4213 22.7513C29.302 22.3016 29.0318 21.9105 28.6573 21.6457L22.9832 17.6533C22.9832 17.6533 23.2026 11.9909 23.2026 11.0174C23.2026 10.1568 23.118 10.0528 22.9093 9.79619C22.882 9.76255 22.8525 9.72628 22.8208 9.68534C22.5561 9.3437 22.1871 9.10213 21.771 8.99812C20.232 8.43603 18.5306 8.51383 17.0316 9.21485C12.9491 10.71 7.85468 16.8405 7.85468 16.8405Z" fill="#333333"/>
<path d="M42 38.5C42 39.8807 38.4183 41 34 41C29.5817 41 26 39.8807 26 38.5C26 37.1193 29.5817 36 34 36C38.4183 36 42 37.1193 42 38.5Z" fill="#333333"/>
<path d="M31.738 18.7932C31.738 19.3749 31.2641 19.8466 30.6795 19.8466C30.0948 19.8466 29.6209 19.3749 29.6209 18.7932C29.6209 18.2114 30.0948 17.7397 30.6795 17.7397C31.2641 17.7397 31.738 18.2114 31.738 18.7932Z" fill="#333333"/>
<path d="M33.8552 25.6402C33.8552 26.5128 33.1443 27.2203 32.2673 27.2203C31.3904 27.2203 30.6795 26.5128 30.6795 25.6402C30.6795 24.7675 31.3904 24.0601 32.2673 24.0601C33.1443 24.0601 33.8552 24.7675 33.8552 25.6402Z" fill="#333333"/>
<path d="M37.0309 28.2739C37.0309 28.8556 36.5569 29.3273 35.9723 29.3273C35.3877 29.3273 34.9137 28.8556 34.9137 28.2739C34.9137 27.6921 35.3877 27.2205 35.9723 27.2205C36.5569 27.2205 37.0309 27.6921 37.0309 28.2739Z" fill="#333333"/>
<path d="M32.7966 32.4875C32.7966 33.0693 32.3227 33.5409 31.738 33.5409C31.1534 33.5409 30.6795 33.0693 30.6795 32.4875C30.6795 31.9057 31.1534 31.4341 31.738 31.4341C32.3227 31.4341 32.7966 31.9057 32.7966 32.4875Z" fill="#333333"/>
<path d="M39.148 35.1743C39.148 36.047 38.4371 36.7545 37.5601 36.7545C36.6832 36.7545 35.9723 36.047 35.9723 35.1743C35.9723 34.3017 36.6832 33.5942 37.5601 33.5942C38.4371 33.5942 39.148 34.3017 39.148 35.1743Z" fill="#333333"/>
</svg>
