<svg width="48" height="48" viewBox="0 0 48 48" fill="none" xmlns="http://www.w3.org/2000/svg">
<path fill-rule="evenodd" clip-rule="evenodd" d="M8 28C6.89543 28 6 28.8954 6 30V39.5C6 40.6046 6.89543 41.5 8 41.5H10C11.1046 41.5 12 40.6046 12 39.5V39.1604C12.9708 39.127 13.9816 39.1008 14.4118 39.1178C16.4692 39.1991 18.0055 39.6783 19.5589 40.1628C21.0081 40.6148 22.4722 41.0715 24.3879 41.2139C24.8694 41.2497 25.338 41.2959 25.7923 41.3407C27.4327 41.5025 28.8866 41.6459 30.0886 41.2139C31.6234 40.6623 40.3936 36.4701 41.4899 35.3669C42.5862 34.2637 42.038 31.2851 38.6396 31.8367C36.9626 32.1089 35.0188 32.8914 33.2559 33.6011C31.446 34.3297 29.8268 34.9815 28.8827 34.9256C27.019 34.8153 22.0857 33.9328 22.0857 33.9328L27.75 34C27.75 34 28.5502 34.0417 29.6501 33.2709C30.75 32.5 31.733 30.2922 30.0886 30.2922C28.4442 30.2922 26.6901 29.7406 26.6901 29.7406L19.6739 28.1961C19.6739 28.1961 17.2621 27.7548 16.2755 28.1961C15.6477 28.4769 13.4807 29.2489 11.9873 29.7734C11.8748 28.7755 11.028 28 10 28H8Z" fill="#333333"/>
<path d="M27 20.5C27 21.9 25.9 23 24.5 23C23.1 23 22 21.9 22 20.5C22 19.1 24.5 16 24.5 16C24.5 16 27 19.2 27 20.5Z" fill="#333333"/>
<path fill-rule="evenodd" clip-rule="evenodd" d="M24.894 15.6922L24.5 16L24.1108 15.6861L24.5062 15.1958L24.894 15.6922ZM24.4947 16.8259C24.2661 17.1312 23.9665 17.5457 23.6677 17.9998C23.3613 18.4655 23.0621 18.9635 22.8413 19.4229C22.612 19.8997 22.5 20.2695 22.5 20.5C22.5 21.6239 23.3761 22.5 24.5 22.5C25.6239 22.5 26.5 21.6239 26.5 20.5C26.5 20.2984 26.3914 19.9444 26.1596 19.4668C25.9379 19.0102 25.6377 18.5077 25.3307 18.0348C25.028 17.5688 24.7246 17.1404 24.4947 16.8259ZM24.5 16C24.1108 15.6861 24.1108 15.6861 24.1108 15.6861L24.1084 15.6891L24.1025 15.6964L24.0804 15.7241C24.0613 15.7482 24.0336 15.7832 23.9986 15.8281C23.9285 15.9179 23.8288 16.047 23.7094 16.2063C23.4709 16.5242 23.1521 16.9641 22.8323 17.4502C22.5137 17.9345 22.1879 18.474 21.94 18.9896C21.7005 19.4878 21.5 20.0305 21.5 20.5C21.5 22.1761 22.8239 23.5 24.5 23.5C26.1761 23.5 27.5 22.1761 27.5 20.5C27.5 20.0516 27.2961 19.5181 27.0592 19.0301C26.8121 18.521 26.4873 17.9798 26.1693 17.4902C25.8503 16.9988 25.5321 16.5503 25.2941 16.2251C25.175 16.0622 25.0756 15.9298 25.0057 15.8377C24.9707 15.7916 24.9431 15.7557 24.9241 15.731L24.9022 15.7026L24.8963 15.6951L24.8947 15.6931C24.8947 15.693 24.894 15.6922 24.5 16Z" fill="#333333"/>
<path d="M39 17.5C39 20 37 22 34.5 22C32 22 30 20 30 17.5C30 15 34.5 9 34.5 9C34.5 9 39 15 39 17.5Z" fill="#333333"/>
<path fill-rule="evenodd" clip-rule="evenodd" d="M34.9 8.70008L34.5 9.00008L34.1 8.70008L34.5 8.16675L34.9 8.70008ZM34.5 9.84914C34.413 9.97056 34.3143 10.1096 34.2062 10.2637C33.7879 10.8603 33.2309 11.6803 32.6748 12.5763C32.1176 13.4739 31.5669 14.4389 31.1571 15.3268C30.7386 16.2336 30.5 16.992 30.5 17.5001C30.5 19.7239 32.2761 21.5001 34.5 21.5001C36.7239 21.5001 38.5 19.7239 38.5 17.5001C38.5 16.992 38.2614 16.2336 37.8429 15.3268C37.4331 14.4389 36.8824 13.4739 36.3252 12.5763C35.7691 11.6803 35.2121 10.8603 34.7938 10.2637C34.6857 10.1096 34.5869 9.97056 34.5 9.84914ZM34.5 9.00008C34.1 8.70008 34.1001 8.7 34.1 8.70008L34.0963 8.70507L34.0861 8.71866L34.0475 8.77072C34.0138 8.81621 33.9648 8.88288 33.9025 8.96841C33.7779 9.13945 33.6004 9.38603 33.3875 9.68956C32.9621 10.2961 32.3941 11.1324 31.8252 12.0489C31.2574 12.9637 30.6831 13.9675 30.2491 14.9077C29.8239 15.829 29.5 16.7582 29.5 17.5001C29.5 20.2762 31.7239 22.5001 34.5 22.5001C37.2761 22.5001 39.5 20.2762 39.5 17.5001C39.5 16.7582 39.1761 15.829 38.7509 14.9077C38.3169 13.9675 37.7426 12.9637 37.1748 12.0489C36.6059 11.1324 36.0379 10.2961 35.6125 9.68956C35.3996 9.38603 35.2221 9.13945 35.0975 8.96841C35.0352 8.88288 34.9862 8.81621 34.9525 8.77072L34.9139 8.71866L34.9037 8.70507L34.9 8.70008C34.8999 8.7 34.9 8.70008 34.5 9.00008Z" fill="#333333"/>
</svg>
