<svg width="48" height="48" viewBox="0 0 48 48" fill="none" xmlns="http://www.w3.org/2000/svg">
<path d="M42 6H24C22.8954 6 22 6.89543 22 8V12H42V6Z" fill="#333333"/>
<path d="M22 15C22 14.4477 22.4477 14 23 14H29C29.5523 14 30 14.4477 30 15C30 15.5523 29.5523 16 29 16H23C22.4477 16 22 15.5523 22 15Z" fill="#333333"/>
<path fill-rule="evenodd" clip-rule="evenodd" d="M26 18.1719C26.5523 18.1719 27 18.6196 27 19.1719L27 21.1719C27 21.7242 26.5523 22.1719 26 22.1719C25.4477 22.1719 25 21.7242 25 21.1719L25 19.1719C25 18.6196 25.4477 18.1719 26 18.1719Z" fill="#333333"/>
<path fill-rule="evenodd" clip-rule="evenodd" d="M28.7071 18.2928C29.0976 17.9023 29.7308 17.9023 30.1213 18.2928L31.5355 19.707C31.9261 20.0975 31.9261 20.7307 31.5355 21.1212C31.145 21.5118 30.5118 21.5118 30.1213 21.1212L28.7071 19.707C28.3166 19.3165 28.3166 18.6833 28.7071 18.2928Z" fill="#333333"/>
<path fill-rule="evenodd" clip-rule="evenodd" d="M20.2929 21.2928C19.9024 20.9023 19.9024 20.2691 20.2929 19.8786L21.7071 18.4644C22.0976 18.0738 22.7308 18.0738 23.1213 18.4644C23.5118 18.8549 23.5118 19.4881 23.1213 19.8786L21.7071 21.2928C21.3166 21.6833 20.6834 21.6833 20.2929 21.2928Z" fill="#333333"/>
<path fill-rule="evenodd" clip-rule="evenodd" d="M26 23.1719C26.5523 23.1719 27 23.6196 27 24.1719L27 26.1719C27 26.7242 26.5523 27.1719 26 27.1719C25.4477 27.1719 25 26.7242 25 26.1719L25 24.1719C25 23.6196 25.4477 23.1719 26 23.1719Z" fill="#333333"/>
<path fill-rule="evenodd" clip-rule="evenodd" d="M32.2071 21.7928C32.5976 21.4023 33.2308 21.4023 33.6213 21.7928L35.0355 23.207C35.4261 23.5975 35.4261 24.2307 35.0355 24.6212C34.645 25.0118 34.0118 25.0118 33.6213 24.6212L32.2071 23.207C31.8166 22.8165 31.8166 22.1833 32.2071 21.7928Z" fill="#333333"/>
<path fill-rule="evenodd" clip-rule="evenodd" d="M16.7929 24.5428C16.4024 24.1523 16.4024 23.5191 16.7929 23.1286L18.2071 21.7144C18.5976 21.3238 19.2308 21.3238 19.6213 21.7144C20.0118 22.1049 20.0118 22.7381 19.6213 23.1286L18.2071 24.5428C17.8166 24.9333 17.1834 24.9333 16.7929 24.5428Z" fill="#333333"/>
<path fill-rule="evenodd" clip-rule="evenodd" d="M8 28.5C6.89543 28.5 6 29.3954 6 30.5V40C6 41.1046 6.89543 42 8 42H10C11.1046 42 12 41.1046 12 40V39.6604C12.9708 39.627 13.9816 39.6008 14.4118 39.6178C16.4692 39.6991 18.0055 40.1783 19.5589 40.6628C21.0081 41.1148 22.4722 41.5715 24.3879 41.7139C24.8694 41.7497 25.338 41.7959 25.7923 41.8407C27.4327 42.0025 28.8866 42.1459 30.0886 41.7139C31.6234 41.1623 40.3936 36.9701 41.4899 35.8669C42.5862 34.7637 42.038 31.7851 38.6396 32.3367C36.9626 32.6089 35.0188 33.3914 33.2559 34.1011C31.446 34.8297 29.8268 35.4815 28.8827 35.4256C27.019 35.3153 22.0857 34.4328 22.0857 34.4328L27.75 34.5C27.75 34.5 28.5502 34.5417 29.6501 33.7709C30.75 33 31.733 30.7922 30.0886 30.7922C28.4442 30.7922 26.6901 30.2406 26.6901 30.2406L19.6739 28.6961C19.6739 28.6961 17.2621 28.2548 16.2755 28.6961C15.6477 28.9769 13.4807 29.7489 11.9873 30.2734C11.8748 29.2755 11.028 28.5 10 28.5H8Z" fill="#333333"/>
</svg>
