<svg width="48" height="49" viewBox="0 0 48 49" fill="none" xmlns="http://www.w3.org/2000/svg">
<path fill-rule="evenodd" clip-rule="evenodd" d="M33 16.5C35.2091 16.5 37 14.7091 37 12.5C37 10.2909 35.2091 8.5 33 8.5C30.7909 8.5 29 10.2909 29 12.5C29 14.7091 30.7909 16.5 33 16.5ZM38.307 29.7709C38.8866 31.6591 39.6151 33.6434 40.0692 34.8392C40.2906 35.4219 39.9372 36.0675 39.3241 36.1802C34.786 37.0147 31.6606 36.9934 26.7302 36.1673C26.0989 36.0615 25.7332 35.3923 25.9689 34.7972C26.4402 33.6071 27.1768 31.6642 27.749 29.7772C25.9332 29.5975 24.5 27.4829 24.5 24.9007C24.5 22.2006 26.067 20.0118 28 20.0118L28.0126 20.0117C28.0043 19.9518 28 19.8905 28 19.8283C28 19.0947 28.5947 18.5 29.3283 18.5H36.6717C37.4053 18.5 38 19.0947 38 19.8283C38 19.8905 37.9957 19.9518 37.9874 20.0117H38C39.933 20.0117 41.5 22.2005 41.5 24.9006C41.5 27.4562 40.0962 29.5537 38.307 29.7709ZM29.9625 24.0086C30.3666 23.1074 30.5 21.7493 30.5 20.0001H32.5C32.5 21.7508 32.3834 23.4979 31.7875 24.8269C31.4785 25.5159 31.0248 26.1312 30.3626 26.5674C29.6992 27.0045 28.9042 27.2105 28 27.2105V25.2105C28.5958 25.2105 28.9883 25.0778 29.2624 24.8972C29.5377 24.7158 29.7715 24.4347 29.9625 24.0086ZM35.5 20C35.5 21.7492 35.6334 23.1074 36.0375 24.0086C36.2285 24.4347 36.4623 24.7158 36.7376 24.8972C37.0117 25.0777 37.4042 25.2105 38 25.2105V27.2105C37.0958 27.2105 36.3008 27.0044 35.6374 26.5673C34.9752 26.1311 34.5215 25.5159 34.2125 24.8269C33.6166 23.4979 33.5 21.7508 33.5 20H35.5Z" fill="#333333"/>
<path fill-rule="evenodd" clip-rule="evenodd" d="M28.5 37.6515V38.9999C28.5 39.7521 29.0571 40.3879 29.8028 40.4868C30.5485 40.5857 31.2521 40.117 31.4482 39.3908L31.8435 37.9263C30.7614 37.8897 29.6624 37.7985 28.5 37.6515ZM35.1411 37.8695L35.5518 39.3908C35.7479 40.117 36.4515 40.5857 37.1972 40.4868C37.9429 40.3879 38.5 39.7521 38.5 38.9999V37.5C37.3214 37.6739 36.2165 37.7975 35.1411 37.8695Z" fill="#333333"/>
<path fill-rule="evenodd" clip-rule="evenodd" d="M14.445 16.5C16.6542 16.5 18.445 14.7091 18.445 12.5C18.445 10.2909 16.6542 8.5 14.445 8.5C12.2359 8.5 10.445 10.2909 10.445 12.5C10.445 14.7091 12.2359 16.5 14.445 16.5ZM18.1243 40.4961C19.1785 40.4305 20 39.5563 20 38.5V29.7986C21.9738 29.4982 23.5012 27.4405 23.5012 24.9467C23.5012 22.3777 21.8801 20.2714 19.82 20.0725C19.9335 19.9103 20 19.7129 20 19.5C20 18.9477 19.5523 18.5 19 18.5H11C10.4477 18.5 10 18.9477 10 19.5C10 19.713 10.0666 19.9104 10.1801 20.0726C8.12046 20.2722 6.5 22.3781 6.5 24.9467C6.5 27.44 8.0268 29.4974 10 29.7984V38.5C10 39.5547 10.8191 40.4282 11.8717 40.4959C12.9243 40.5636 13.8485 39.8022 13.9835 38.7561L14.7913 32.5H15.2345L16.0154 38.7481C16.1465 39.7962 17.07 40.5618 18.1243 40.4961ZM11.5285 24.1689C11.9413 23.3165 12.1059 21.9677 12.1059 20.0571H14.1059C14.1059 21.9761 13.959 23.7388 13.3286 25.0406C13.0001 25.719 12.5281 26.2998 11.863 26.7021C11.2019 27.1019 10.4245 27.2802 9.55611 27.2802V25.2802C10.1511 25.2802 10.5491 25.1594 10.828 24.9907C11.1029 24.8245 11.3355 24.5676 11.5285 24.1689ZM17.6745 20.0571C17.6745 21.9677 17.8391 23.3165 18.2519 24.1689C18.445 24.5676 18.6776 24.8245 18.9524 24.9907C19.2313 25.1594 19.6293 25.2802 20.2243 25.2802V27.2802C19.3559 27.2802 18.5785 27.1019 17.9174 26.7021C17.2523 26.2998 16.7803 25.719 16.4518 25.0406C15.8214 23.7388 15.6745 21.9761 15.6745 20.0571H17.6745Z" fill="#333333"/>
</svg>
