<svg width="48" height="48" viewBox="0 0 48 48" fill="none" xmlns="http://www.w3.org/2000/svg">
<path fill-rule="evenodd" clip-rule="evenodd" d="M37.5 6.40545C37.5 6.1078 37.1594 5.91179 36.8644 6.0399L33.5 7.49996L30.1356 6.0399C29.8406 5.91179 29.5 6.1078 29.5 6.40545V8.59447C29.5 8.89226 29.8406 9.08813 30.1356 8.96016L33.5 7.49996L36.8644 8.96016C37.1594 9.08813 37.5 8.89226 37.5 8.59447V6.40545ZM37.5001 13C37.5001 14.2256 36.9489 15.3224 36.0808 16.0562C37.4597 16.3267 38.5001 17.5418 38.5001 19V20.0988L41.6513 24.0379C41.7299 24.1318 41.7956 24.2338 41.848 24.3412C42.047 24.7474 42.0482 25.218 41.8664 25.6198C41.8177 25.7274 41.7558 25.8301 41.6811 25.9253L38.7001 29.9C38.5155 30.146 38.2699 30.3193 38.0001 30.4144V30.4287L40 35H38.0001V41C38.0001 41.8284 37.3285 42.5 36.5001 42.5C35.6717 42.5 35.0001 41.8284 35.0001 41V35H32.0001V41C32.0001 41.8284 31.3285 42.5 30.5001 42.5C29.6717 42.5 29.0001 41.8284 29.0001 41V35H27L29.0001 30.4285V30.4144C28.7302 30.3193 28.4846 30.1461 28.3001 29.9L25.3193 25.9256C25.2437 25.8294 25.1812 25.7254 25.1322 25.6164C24.9514 25.2143 24.9537 24.7437 25.1538 24.3379C25.2058 24.2318 25.2709 24.1311 25.3485 24.0383L28.5001 20.0988V19C28.5001 17.5418 29.5404 16.3267 30.9193 16.0562C30.0512 15.3224 29.5001 14.2256 29.5001 13C29.5001 10.7909 31.2909 9 33.5001 9C35.7092 9 37.5001 10.7909 37.5001 13ZM36.9825 27.1901L38.6028 25.0296L38.0001 24.2762V25.4648L36.9454 24.7617C36.6672 24.5762 36.5001 24.264 36.5001 23.9296V18H35.5001V16.4649C34.9117 16.8052 34.2286 17 33.5001 17C32.7715 17 32.0884 16.8052 31.5001 16.4649V18H30.5001V23.9296C30.5001 24.264 30.333 24.5762 30.0548 24.7617L29.0001 25.4648V24.2761L28.3973 25.0296L30.0177 27.1901L31.1642 26.4258C31.9988 25.8694 32.5001 24.9327 32.5001 23.9296L32.5001 18H34.5001V18.5L34.5001 23.9296C34.5001 24.9327 35.0014 25.8694 35.836 26.4258L36.9825 27.1901Z" fill="#333333"/>
<path fill-rule="evenodd" clip-rule="evenodd" d="M18.5001 13C18.5001 14.2256 17.9489 15.3224 17.0808 16.0562C18.4597 16.3267 19.5001 17.5418 19.5001 19V20.0988L22.6513 24.0379C22.7299 24.1318 22.7956 24.2338 22.848 24.3412C23.047 24.7474 23.0482 25.218 22.8664 25.6198C22.8177 25.7274 22.7558 25.8301 22.6811 25.9253L19.7001 29.9C19.5155 30.146 19.2699 30.3193 19.0001 30.4144V41C19.0001 41.8284 18.3285 42.5 17.5001 42.5C16.6717 42.5 16.0001 41.8284 16.0001 41V33H13.0001V41C13.0001 41.8284 12.3285 42.5 11.5001 42.5C10.6717 42.5 10.0001 41.8284 10.0001 41V30.4144C9.73024 30.3193 9.48461 30.1461 9.30006 29.9L6.31929 25.9256C6.24368 25.8294 6.18122 25.7254 6.13221 25.6164C5.9514 25.2143 5.95365 24.7437 6.15375 24.3379C6.20581 24.2318 6.27086 24.1311 6.34851 24.0383L9.50006 20.0988V19C9.50006 17.5418 10.5404 16.3267 11.9193 16.0562C11.0512 15.3224 10.5001 14.2256 10.5001 13C10.5001 10.7909 12.2909 9 14.5001 9C16.7092 9 18.5001 10.7909 18.5001 13ZM17.9825 27.1901L19.6028 25.0296L19.0001 24.2762V25.4648L17.9454 24.7617C17.6672 24.5762 17.5001 24.264 17.5001 23.9296V18H16.5001V16.4649C15.9117 16.8052 15.2286 17 14.5001 17C13.7715 17 13.0884 16.8052 12.5001 16.4649V18H11.5001V23.9296C11.5001 24.264 11.333 24.5762 11.0548 24.7617L10.0001 25.4648V24.2761L9.39729 25.0296L11.0177 27.1901L12.1642 26.4258C12.9988 25.8694 13.5001 24.9327 13.5001 23.9296L13.5001 18H15.5001V18.5L15.5001 23.9296C15.5001 24.9327 16.0014 25.8694 16.836 26.4258L17.9825 27.1901Z" fill="#333333"/>
</svg>
