<svg width="48" height="48" viewBox="0 0 48 48" fill="none" xmlns="http://www.w3.org/2000/svg">
<g clip-path="url(#clip0_7208_23393)">
<path fill-rule="evenodd" clip-rule="evenodd" d="M48 0H0V48H48V0ZM18.5 4C19.0523 4 19.5 4.44772 19.5 5V17.1987C19.5 17.3916 19.5766 17.5766 19.713 17.713C22.4579 20.4579 24 24.1808 24 28.0627V41.6435C24 42.945 22.945 44 21.6435 44H12.2082C10.9886 44 10 43.0114 10 41.7918V28.4084C10 24.3293 11.7313 20.4418 14.7633 17.713C14.914 17.5774 15 17.3843 15 17.1816V5C15 4.44772 15.4477 4 16 4H18.5ZM22 29H12V37H22V29ZM28.9988 18L28.3613 24H35.6387L35.0012 18H28.9988ZM36.8 16H27.2L26.1868 25.5364C25.8559 28.6504 28.0243 31.4038 31 31.9151V42H28C27.4477 42 27 42.4477 27 43C27 43.5523 27.4477 44 28 44H36C36.5523 44 37 43.5523 37 43C37 42.4477 36.5523 42 36 42H33V31.9151C35.9756 31.4038 38.1441 28.6504 37.8132 25.5364L36.8 16Z" fill="#333333"/>
</g>
<defs>
<clipPath id="clip0_7208_23393">
<rect width="48" height="48" fill="white"/>
</clipPath>
</defs>
</svg>
