<svg width="48" height="48" viewBox="0 0 48 48" fill="none" xmlns="http://www.w3.org/2000/svg">
<g clip-path="url(#clip0_8230_1352)">
<path fill-rule="evenodd" clip-rule="evenodd" d="M0 0H48V48H0V0ZM24 42C28.6107 42 32.8166 40.2664 36.0013 37.4155L29 30.4142V36.3504C29 37.2615 28.2464 38 27.3168 38H20.5773C19.7061 38 19 37.308 19 36.4543V27.0859C19 24.2305 20.2366 21.5093 22.4024 19.5991C22.51 19.5042 22.5714 19.369 22.5714 19.2271V10.7C22.5714 10.3134 22.8912 10 23.2857 10H25.0714C25.4659 10 25.7857 10.3134 25.7857 10.7V19.2391C25.7857 19.3741 25.8404 19.5036 25.9379 19.5991C27.8985 21.5205 29 24.1266 29 26.8439V27.5858L37.4155 36.0013C40.2664 32.8166 42 28.6107 42 24C42 14.0589 33.9411 6 24 6C19.5166 6 15.4161 7.63912 12.265 10.3508L19.7071 17.7929C20.0976 18.1834 20.0976 18.8166 19.7071 19.2071C19.3166 19.5976 18.6834 19.5976 18.2929 19.2071L10.8231 11.7373C7.83061 14.9515 6 19.262 6 24C6 33.9411 14.0589 42 24 42ZM27 26H21V31H27V26ZM24 44C35.0457 44 44 35.0457 44 24C44 12.9543 35.0457 4 24 4C12.9543 4 4 12.9543 4 24C4 35.0457 12.9543 44 24 44Z" fill="currentColor"/>
</g>
<defs>
<clipPath id="clip0_8230_1352">
<rect width="48" height="48" fill="none"/>
</clipPath>
</defs>
</svg>
