<svg width="48" height="48" viewBox="0 0 48 48" fill="none" xmlns="http://www.w3.org/2000/svg">
<g clip-path="url(#clip0_8230_1337)">
<path fill-rule="evenodd" clip-rule="evenodd" d="M48 0H0V48H48V0ZM20.9939 12.8896C20.9329 12.3407 20.4385 11.9451 19.8896 12.0061C19.3407 12.0671 18.9451 12.5615 19.0061 13.1104L19.6475 18.8831C15.4018 18.1073 13.5336 16.8065 13.3878 11C6.85714 11 4 17.5 4 27C11.3328 25.1247 15.5 29.5 15.5 33.4H21L24 39L27 33.4H32.5C32.5 29.5 36.6672 25.1247 44 27C44 17.5 41.1429 11 34.6122 11C34.4664 16.8065 32.5982 18.1073 28.3525 18.8831L28.9939 13.1104C29.0549 12.5615 28.6593 12.0671 28.1104 12.0061C27.5615 11.9451 27.0671 12.3407 27.0061 12.8896L26.8293 14.4805C25.8454 14.1619 24.9306 13.9952 23.9941 14.0001C23.0609 14.005 22.1497 14.1803 21.1722 14.4941L20.9939 12.8896Z" fill="currentColor"/>
</g>
<defs>
<clipPath id="clip0_8230_1337">
<rect width="48" height="48" fill="none"/>
</clipPath>
</defs>
</svg>
