<svg width="48" height="48" viewBox="0 0 48 48" fill="none" xmlns="http://www.w3.org/2000/svg">
<g clip-path="url(#clip0_8230_1348)">
<path fill-rule="evenodd" clip-rule="evenodd" d="M0 0H48V48H0V0ZM20.2082 13C15.5623 13 13.0159 13.935 11.4008 15.2745C10.0489 14.8482 8.84977 14.9275 7 15.4487C8.25212 16.3561 8.93612 17.002 9.40231 17.7372C9.16927 18.1365 8.9541 18.5429 8.7394 18.9483C7.73798 20.8395 6.74675 22.7114 4 23.7622V27.0815C5.9798 29.0415 9.97194 30.3936 13.1076 29.9522C13.6817 31.3008 14.718 32.0918 16 32.5284V36C15.4477 36 15 36.4477 15 37V38H19V32.9947C20.7203 33.0379 22.5601 32.8109 24.2069 32.6078C24.4687 32.5755 24.7265 32.5437 24.9773 32.5138C24.2881 31.5656 23.9372 30.3654 24.0093 28.9491C24.0374 28.3976 24.5073 27.9732 25.0589 28.0013C25.6105 28.0294 26.0348 28.4993 26.0068 29.0509C25.9355 30.4507 26.4316 31.3742 27.2334 31.9839C27.9931 32.5616 29.1132 32.9189 30.4991 32.9878C30.6672 32.9795 30.8342 32.9671 31 32.9506V36C30.4477 36 30 36.4477 30 37V38H34V32.1679C37.5318 30.6248 40 27.1006 40 23C40 21.0609 39.4481 19.2507 38.4927 17.7179C38.8297 17.5102 39.2193 17.2506 39.6118 16.9471C39.9554 16.6813 40.314 16.3722 40.6452 16.0243C40.8168 16.0245 40.9862 16.022 41.1514 16.0182C41.4175 16.0121 41.6636 16.0031 41.8977 15.9946C42.2458 15.9819 42.5676 15.9702 42.8885 15.9702C43.4408 15.9702 43.8885 15.5225 43.8885 14.9702C43.8885 14.418 43.4408 13.9702 42.8885 13.9702C42.5778 13.9702 42.2264 13.9816 41.88 13.9938C41.956 13.7185 42 13.4283 42 13.1248C42 12.266 41.6744 11.5451 41.1258 11.0463C40.5939 10.5627 39.909 10.3384 39.2525 10.3367C38.596 10.335 37.9089 10.5561 37.3749 11.0407C36.824 11.5406 36.5 12.2639 36.5 13.125C36.5 13.9762 36.8005 14.6848 37.3878 15.1846C37.5954 15.3612 37.824 15.4989 38.0617 15.6067C37.7762 15.8093 37.4997 15.984 37.2619 16.125C35.6464 14.4192 33.4364 13.2823 30.9636 13.0458L30.9635 13H20.2082ZM13 21C13.5523 21 14 20.5523 14 20C14 19.4477 13.5523 19 13 19C12.4477 19 12 19.4477 12 20C12 20.5523 12.4477 21 13 21ZM40 13.1248C40 13.3757 39.9133 13.6613 39.7184 13.9811C39.6531 13.9739 39.5893 13.9657 39.5273 13.9563C39.0675 13.8869 38.813 13.7712 38.684 13.6614C38.601 13.5908 38.5 13.4704 38.5 13.125C38.5 12.7894 38.6135 12.6174 38.7189 12.5218C38.8411 12.4109 39.029 12.3361 39.2475 12.3367C39.466 12.3372 39.6561 12.4131 39.7804 12.5262C39.8881 12.624 40 12.796 40 13.1248Z" fill="currentColor"/>
</g>
<defs>
<clipPath id="clip0_8230_1348">
<rect width="48" height="48" fill="none"/>
</clipPath>
</defs>
</svg>
