<svg width="48" height="48" viewBox="0 0 48 48" fill="none" xmlns="http://www.w3.org/2000/svg">
<g clip-path="url(#clip0_3540_2263)">
<path d="M29 29H31.8108C32.8335 29.9963 33.9422 30.844 35.3719 31.414C34.7471 31.7706 33.9514 32 33 32C30.434 32 29 30.3309 29 29Z" fill="#333333"/>
<path fill-rule="evenodd" clip-rule="evenodd" d="M0 0H48V48H0V0ZM27 29H22V38H19C18.4477 38 18 37.5523 18 37C18 36.5041 18.361 36.0925 18.8345 36.0137L18.4895 31.8736C16.6384 30.2908 14.9863 27.1444 13.419 23.1058C13.3501 23.067 13.2824 23.0235 13.2161 22.9753L11.026 21.3826C10.6842 21.1339 10.2723 21 9.84965 21H6.48808C5.60486 21 4.82622 20.4207 4.57243 19.5747L4.27243 18.5747C3.88746 17.2915 4.84835 16 6.18808 16H6.40002L9.98391 11.5202C9.76775 11.3559 9.5226 11.184 9.23722 11H7.5C7.22386 11 7 10.7761 7 10.5C7 10.2239 7.22386 10 7.5 10C10.754 9.83879 12.6165 10.3041 14.0147 11.3452C14.2777 11.0577 14.5994 10.768 14.9664 10.4978C15.8669 9.83455 16.1676 9.82413 16.8464 9.80061C17.1245 9.79097 17.4662 9.77913 17.9386 9.71926C19.564 9.51331 18.8261 11.3917 17.5565 12.3267C17.0719 12.6836 16.3972 12.9551 15.7274 13.1262C15.7781 13.1937 15.8287 13.2623 15.8792 13.3319C17.105 13.7124 18.5657 14 20.5 14L35.2222 14C35.3154 14 35.408 14.0023 35.5 14.0068V14C35.5563 14 37.6373 14.0005 37.7133 14.0018C39.73 14.0358 41.3691 14.4404 42.4859 15.5133C43.6172 16.6004 44 18.1657 44 20L43.6129 25.4195C43.8484 25.7854 44 26.3573 44 27C44 28.1046 43.5523 29 43 29C42.4477 29 42 28.1046 42 27C42 26.3573 42.1516 25.7854 42.3871 25.4195L42 20C42 18.3922 41.6574 17.4909 41.1002 16.9555C40.7917 16.6591 40.3549 16.4138 39.7297 16.246C40.5245 17.2738 41 18.5792 41 20V23L41 23.014V38H38C37.4477 38 37 37.5523 37 37C37 36.5041 37.361 36.0925 37.8345 36.0137L37.5237 32.2847C36.8946 32.886 36.0956 33.3606 35.1892 33.6567L35.2076 33.752C35.3125 34.2943 34.958 34.8189 34.4157 34.9237C33.8735 35.0286 33.3489 34.6741 33.244 34.1319L33.2179 33.9968C33.1456 33.9989 33.0729 34 33 34C32.3709 34 31.7643 33.9193 31.1945 33.7697L31.1114 33.9243C30.8499 34.4108 30.2436 34.5932 29.7572 34.3317C29.2707 34.0702 29.0918 33.4573 29.3533 32.9708C28.8824 32.6701 28.4666 32.3125 28.1206 31.9103L28.0092 31.9558C27.498 32.165 26.9141 31.9201 26.705 31.4089L26.6664 31.3146C26.4786 30.8555 26.6985 30.3311 27.1576 30.1433C27.0545 29.7762 27 29.3934 27 29Z" fill="#333333"/>
</g>
<defs>
<clipPath id="clip0_3540_2263">
<rect width="48" height="48" fill="white"/>
</clipPath>
</defs>
</svg>
