<svg width="48" height="48" viewBox="0 0 48 48" fill="none" xmlns="http://www.w3.org/2000/svg">
<g clip-path="url(#clip0_8230_1372)">
<path fill-rule="evenodd" clip-rule="evenodd" d="M48 0H0V48H48V0ZM14.7512 17.0877C13.8919 17.947 12.9355 19.6639 12.5 21.3021L12.4203 21.3203C7.49313 22.4495 4 26.8337 4 31.8886C4 32.0882 4.16181 32.25 4.36141 32.25H44V29.4961C44 27.8646 43.7051 26.3021 43.1656 24.8589C43.7033 23.5916 44 22.2021 44 20.7465C44 14.7873 39.0508 10 33 10C32.4477 10 32 10.4477 32 11C32 11.5523 32.4477 12 33 12C37.9949 12 42 15.94 42 20.7465C42 21.2693 41.9529 21.7811 41.8626 22.2783C41.3926 21.5563 40.854 20.883 40.2563 20.2676L37.4707 20.2787C35.4692 20.5019 34.0209 22.011 32.9719 23.713C32.4591 24.545 32.0757 25.3688 31.7903 26.0081C31.7552 26.0868 31.7205 26.1652 31.6866 26.2417L31.6862 26.2426C31.5891 26.462 31.4987 26.666 31.4243 26.8194C31.3753 26.9204 31.3115 27.0457 31.238 27.156C31.2031 27.2083 31.1381 27.3003 31.0424 27.3896C30.9733 27.4541 30.7215 27.6782 30.3226 27.6782H25.3871C23.8726 27.6782 22.5476 28.7439 22.1336 30.2496V32.2496H20V31.2496C20 28.2118 22.3735 25.6782 25.3871 25.6782H29.7484C29.7767 25.615 29.8076 25.5452 29.8413 25.4692L29.8426 25.4663C29.8792 25.3835 29.9196 25.2925 29.964 25.193C30.2589 24.5322 30.6854 23.6111 31.2693 22.6637C32.381 20.8599 34.1985 18.7437 37 18.3235L37.861 18.3161C35.8075 17.0079 33.3692 16.25 30.7539 16.25C27.4661 16.25 24.2143 16.862 21.1628 18.0471C20.9795 17.7022 20.7426 17.3783 20.452 17.0877C18.8777 15.5135 16.3254 15.5135 14.7512 17.0877ZM13 26.25C13 26.8023 12.5523 27.25 12 27.25C11.4477 27.25 11 26.8023 11 26.25C11 25.6977 11.4477 25.25 12 25.25C12.5523 25.25 13 25.6977 13 26.25ZM16.05 23.0119C17.3364 22.6063 18.5344 21.8777 19.0378 21.3743C19.8309 20.5811 19.8309 19.2951 19.0378 18.5019C18.2446 17.7087 16.9586 17.7087 16.1654 18.5019C15.662 19.0053 14.9334 20.2033 14.5278 21.4897C14.3309 22.1141 14.2512 22.635 14.2615 23.0022C14.2648 23.1197 14.2761 23.2003 14.2872 23.2525C14.3394 23.2636 14.42 23.2749 14.5374 23.2782C14.9047 23.2885 15.4256 23.2088 16.05 23.0119Z" fill="currentColor"/>
</g>
<defs>
<clipPath id="clip0_8230_1372">
<rect width="48" height="48" fill="none"/>
</clipPath>
</defs>
</svg>
