<svg width="48" height="48" viewBox="0 0 48 48" fill="none" xmlns="http://www.w3.org/2000/svg">
<g clip-path="url(#clip0_8311_2368)">
<path d="M8.84668 9.77766L10.0086 14.111L15.5494 11.5922L14.6464 8.22475L8.84668 9.77766Z" fill="currentColor"/>
<path fill-rule="evenodd" clip-rule="evenodd" d="M48 0H0V48H48V0ZM16.3206 6.74118C16.252 6.485 16.0842 6.26659 15.8544 6.13398C15.6245 6.00137 15.3514 5.96543 15.095 6.03408L7.36205 8.10463C7.10569 8.17327 6.88711 8.34087 6.75441 8.57055C6.6217 8.80024 6.58574 9.07319 6.65444 9.32937L8.16173 14.9506L7.08647 15.4395C6.63922 15.6428 6.40585 16.1405 6.53574 16.614L12.2155 37.3217C12.8113 39.494 14.7871 41 17.0411 41H29.9993C30.2647 41 30.5192 40.8946 30.7069 40.7071C30.8946 40.5196 31 40.2652 31 40L31 28C31 27.4477 30.552 27 29.9993 27H23.8249L19.5489 11.0532C19.4728 10.7693 19.2755 10.5332 19.0095 10.4077C18.7435 10.2822 18.4357 10.2801 18.1679 10.4018L17.3963 10.7526L16.3206 6.74118ZM35 29H33V39H35V29ZM39 32C39 32.5523 38.5523 33 38 33C37.4477 33 37 32.5523 37 32C37 31.4477 37.4477 31 38 31C38.5523 31 39 31.4477 39 32ZM38 37C38.5523 37 39 36.5523 39 36C39 35.4477 38.5523 35 38 35C37.4477 35 37 35.4477 37 36C37 36.5523 37.4477 37 38 37ZM43 34C43 34.5523 42.5523 35 42 35C41.4477 35 41 34.5523 41 34C41 33.4477 41.4477 33 42 33C42.5523 33 43 33.4477 43 34ZM42 31C42.5523 31 43 30.5523 43 30C43 29.4477 42.5523 29 42 29C41.4477 29 41 29.4477 41 30C41 30.5523 41.4477 31 42 31ZM43 38C43 38.5523 42.5523 39 42 39C41.4477 39 41 38.5523 41 38C41 37.4477 41.4477 37 42 37C42.5523 37 43 37.4477 43 38Z" fill="currentColor"/>
</g>
<defs>
<clipPath id="clip0_8311_2368">
<rect width="48" height="48" fill="none"/>
</clipPath>
</defs>
</svg>
