<svg width="48" height="48" viewBox="0 0 48 48" fill="none" xmlns="http://www.w3.org/2000/svg">
<g clip-path="url(#clip0_3308_12983)">
<path fill-rule="evenodd" clip-rule="evenodd" d="M48 0H0V48H48V0ZM18.8481 31.0343C19.9716 29.4614 19.6073 27.2755 18.0343 26.1519C16.4614 25.0284 14.2755 25.3927 13.1519 26.9657L11.6988 29H9.5C7.567 29 6 30.567 6 32.5C6 34.433 7.567 36 9.5 36H13.5C14.6303 36 15.6911 35.4541 16.3481 34.5343L18.8481 31.0343ZM39.474 30.3934H36.2699L35.7002 30.1313C35.2718 29.6552 34.7654 29.0151 34.2137 28.3175C32.8856 26.6386 31.2946 24.6273 29.895 23.7719C29.0572 23.2597 28.1152 22.994 27.1587 23.0001H27.154H21.5L22.0859 36H26.8148H26.8159C27.5967 35.9986 28.3694 35.8231 29.0878 35.4836C29.8066 35.1442 30.4566 34.6477 30.999 34.0237L31.5685 33.3686C31.7926 33.6176 32.0114 33.967 32.2386 34.33C32.7407 35.1318 33.2843 36 34.0189 36H39.6078C40.2779 36 40.7864 35.7047 41.2603 35.179C41.7339 34.6532 42.0001 33.9401 42.0001 33.1967C42.0001 32.4533 41.7339 31.7402 41.2603 31.2146C40.7864 30.6887 40.144 30.3934 39.474 30.3934ZM33.5 22C37.0899 22 40 19.0899 40 15.5C40 11.9101 37.0899 9 33.5 9C29.9101 9 27 11.9101 27 15.5C27 19.0899 29.9101 22 33.5 22Z" fill="#333333"/>
</g>
<defs>
<clipPath id="clip0_3308_12983">
<rect width="48" height="48" fill="white"/>
</clipPath>
</defs>
</svg>
