<svg width="48" height="48" viewBox="0 0 48 48" fill="none" xmlns="http://www.w3.org/2000/svg">
<path fill-rule="evenodd" clip-rule="evenodd" d="M0 0H48V48H0V0ZM35 22.5357C36.7024 22.2895 38.4956 21.92 40.4803 21.429C41.5525 21.1638 42.2067 20.0795 41.9415 19.0073C41.6762 17.935 40.592 17.2808 39.5197 17.5461C35.7072 18.4892 32.8335 18.9127 30.0074 18.902C27.1756 18.8912 24.2945 18.4442 20.4585 17.5408C19.3833 17.2876 18.3065 17.9539 18.0533 19.0291C17.8 20.1042 18.4664 21.1811 19.5415 21.4343C21.5157 21.8992 23.3021 22.2613 25 22.5095V25H35V22.5357ZM25 27V28.9404C25 29.5736 25.5704 31.2002 27.3206 31.9796C27.5208 32.0688 27.7459 32.1805 27.9482 32.281L27.9483 32.2811L28.0674 32.3401C28.316 32.463 28.5567 32.5792 28.8 32.6823C29.3075 32.8973 29.7033 33 30 33C30.2966 33 30.6925 32.8973 31.2 32.6823C31.4433 32.5792 31.6839 32.463 31.9326 32.3401L32.0516 32.2811C32.2539 32.1806 32.4791 32.0688 32.6794 31.9796C34.4296 31.2002 35 29.5736 35 28.9404V27H25ZM26.4348 33.8564C25.2526 33.3191 24.4586 32.507 23.9809 31.6995C22.4293 33.0501 21.5748 34.7484 21.5748 36.9895C21.5748 37.8834 21.7661 39.2247 22.263 40.3117C22.7719 41.4249 23.4552 42 24.3187 42C25.2453 42 26.0296 41.2909 26.0296 40.3783C26.0296 39.9723 25.8577 39.5884 25.5859 39.0177L25.5679 38.98C25.3217 38.4636 24.9966 37.7819 24.9966 36.9895C24.9966 36.1227 25.4264 35.2027 25.9267 34.4579C26.0873 34.2188 26.2573 34.0242 26.4348 33.8564ZM33.5652 33.8562C34.7473 33.319 35.5414 32.5069 36.0191 31.6994C37.5707 33.0499 38.4253 34.7483 38.4253 36.9895C38.4253 37.8834 38.234 39.2247 37.7371 40.3117C37.2282 41.4249 36.5449 42 35.6814 42C34.7549 42 33.9706 41.2909 33.9706 40.3783C33.9706 39.9723 34.1424 39.5884 34.4142 39.0177L34.4322 38.98C34.6785 38.4636 35.0035 37.7819 35.0035 36.9895C35.0035 36.1227 34.5737 35.2027 34.0735 34.4579C33.9128 34.2187 33.7428 34.0241 33.5652 33.8562ZM30 17C33.0376 17 35.5 14.5376 35.5 11.5C35.5 8.46243 33.0376 6 30 6C26.9624 6 24.5 8.46243 24.5 11.5C24.5 14.5376 26.9624 17 30 17ZM14 15C14 16.6569 12.6569 18 11 18C9.34315 18 8 16.6569 8 15C8 13.3431 9.34315 12 11 12C12.6569 12 14 13.3431 14 15ZM16 15C16 17.7614 13.7614 20 11 20C8.23858 20 6 17.7614 6 15C6 12.2386 8.23858 10 11 10C12.1697 10 13.2455 10.4016 14.0972 11.0745L17.1718 8H15C14.4477 8 14 7.55228 14 7C14 6.44772 14.4477 6 15 6H19.5C20.0523 6 20.5 6.44772 20.5 7V12C20.5 12.5523 20.0523 13 19.5 13C18.9477 13 18.5 12.5523 18.5 12V9.50025L15.3919 12.6082C15.7796 13.3187 16 14.1336 16 15Z" fill="#333333"/>
</svg>
