<svg width="48" height="48" viewBox="0 0 48 48" fill="none" xmlns="http://www.w3.org/2000/svg">
<path fill-rule="evenodd" clip-rule="evenodd" d="M0 0H48V48H0V0ZM30 17C33.0376 17 35.5 14.5376 35.5 11.5C35.5 8.46243 33.0376 6 30 6C26.9624 6 24.5 8.46243 24.5 11.5C24.5 14.5376 26.9624 17 30 17ZM25 28V26H35V28H25ZM35 24H25V22.5095C23.3021 22.2613 21.5157 21.8992 19.5415 21.4343C18.4664 21.1811 17.8 20.1042 18.0533 19.0291C18.3065 17.9539 19.3833 17.2876 20.4585 17.5408C24.2945 18.4442 27.1756 18.8912 30.0074 18.902C32.8335 18.9127 35.7072 18.4892 39.5197 17.5461C40.592 17.2808 41.6762 17.935 41.9415 19.0073C42.2067 20.0795 41.5525 21.1638 40.4803 21.429C38.4956 21.92 36.7024 22.2895 35 22.5357V24ZM25.2844 30C25.6089 30.694 26.2398 31.4983 27.3206 31.9796C27.5208 32.0688 27.7459 32.1805 27.9482 32.281L27.9483 32.2811L28.0674 32.3401C28.316 32.463 28.5567 32.5792 28.8 32.6823C29.3075 32.8973 29.7033 33 30 33C30.2966 33 30.6925 32.8973 31.2 32.6823C31.4433 32.5792 31.6839 32.463 31.9326 32.3401L32.0516 32.2811C32.2539 32.1806 32.4791 32.0688 32.6794 31.9796C33.7602 31.4983 34.391 30.694 34.7155 30H25.2844ZM23.9809 31.6995C24.4586 32.507 25.2527 33.3191 26.4348 33.8563C26.2573 34.0241 26.0873 34.2187 25.9267 34.4579C25.4264 35.2027 24.9966 36.1227 24.9966 36.9895C24.9966 37.7819 25.3217 38.4636 25.5679 38.98L25.5859 39.0177C25.8577 39.5884 26.0296 39.9723 26.0296 40.3783C26.0296 41.2909 25.2453 42 24.3187 42C23.4552 42 22.7719 41.4249 22.263 40.3117C21.7661 39.2247 21.5748 37.8834 21.5748 36.9895C21.5748 34.7484 22.4293 33.05 23.9809 31.6995ZM36.0191 31.6995C35.5415 32.5069 34.7474 33.319 33.5652 33.8563C33.7428 34.0241 33.9128 34.2187 34.0735 34.4579C34.5737 35.2027 35.0035 36.1227 35.0035 36.9895C35.0035 37.7819 34.6785 38.4636 34.4322 38.98L34.4142 39.0177C34.1424 39.5884 33.9706 39.9723 33.9706 40.3783C33.9706 41.2909 34.7549 42 35.6814 42C36.5449 42 37.2282 41.4249 37.7371 40.3117C38.234 39.2247 38.4253 37.8834 38.4253 36.9895C38.4253 34.7483 37.5707 33.05 36.0191 31.6995ZM14 11C14 12.6569 12.6569 14 11 14C9.34315 14 8 12.6569 8 11C8 9.34315 9.34315 8 11 8C12.6569 8 14 9.34315 14 11ZM16 11C16 13.419 14.2822 15.4367 12 15.9V18H14C14.5523 18 15 18.4477 15 19C15 19.5523 14.5523 20 14 20H12V23C12 23.5523 11.5523 24 11 24C10.4477 24 10 23.5523 10 23V20H8C7.44772 20 7 19.5523 7 19C7 18.4477 7.44771 18 8 18H10V15.9C7.71776 15.4367 6 13.419 6 11C6 8.23858 8.23858 6 11 6C13.7614 6 16 8.23858 16 11Z" fill="#333333"/>
</svg>
