<svg width="48" height="48" viewBox="0 0 48 48" fill="none" xmlns="http://www.w3.org/2000/svg">
<g clip-path="url(#clip0_3308_13181)">
<path fill-rule="evenodd" clip-rule="evenodd" d="M0 0H48V48H0V0ZM23.9999 18C27.3138 18 30 15.3138 30 12.0001C30 8.68635 27.3138 6 23.9999 6C20.6862 6 18 8.68635 18 12.0001C18 15.3138 20.6862 18 23.9999 18ZM15 34.0411V16.4468C15.9892 16.854 17.0121 17.3464 18.0469 17.9127C18.2384 18.0224 18.4277 18.1283 18.615 18.2304C20.7695 19.4608 22.9581 21.0011 24.9861 22.7524C28.5648 25.843 31.556 29.5155 33 33.1864V34.0411C33 38.0205 30.1875 41.9998 24 41.9998C17.8125 41.9998 15 37.452 15 34.0411ZM26.2933 21.2387C25.8794 20.8813 25.4587 20.5318 25.0324 20.1911C27.49 20.1857 29.9579 19.178 33 16.9998V28.8306C31.2616 26.078 28.893 23.4838 26.2933 21.2387Z" fill="#333333"/>
</g>
<defs>
<clipPath id="clip0_3308_13181">
<rect width="48" height="48" fill="white"/>
</clipPath>
</defs>
</svg>
