<svg width="48" height="48" viewBox="0 0 48 48" fill="none" xmlns="http://www.w3.org/2000/svg">
<g clip-path="url(#clip0_7208_23402)">
<path fill-rule="evenodd" clip-rule="evenodd" d="M48 0H0V48H48V0ZM17.9996 6H27.9996V19.4295L30.143 18.3481L31.523 12.0822L33.4762 12.5124L32.4333 17.2479L40.0094 13.651L42.2777 18.9437L36.2978 22.192L41.736 23.5148L41.2632 25.4582L33.67 23.6112L28.519 26.2841C28.1896 26.455 27.9996 26.7783 27.9996 27.1135V42H17.9996V34.2095C17.9996 33.9105 17.8607 33.6313 17.6283 33.4537L17.6221 33.4489L11.2735 28.4371L5.72665 29.8346L5.23806 27.8952L9.29292 26.8736L4.87305 23.3844L6.37998 17.3567L12.9968 21.9255L12.2125 14.8123L14.2005 14.5931L15.166 23.3499L15.0743 23.36L17.9996 25.3798V6ZM22.9046 10.2266C23.3738 9.93522 23.5179 9.31868 23.2265 8.84951C22.9352 8.38034 22.3186 8.23621 21.8494 8.52759C21.3803 8.81896 21.2361 9.4355 21.5275 9.90467C21.8189 10.3738 22.4354 10.518 22.9046 10.2266ZM25.2265 12.8495C25.5179 13.3187 25.3738 13.9352 24.9046 14.2266C24.4354 14.518 23.8189 14.3738 23.5275 13.9047C23.2361 13.4355 23.3803 12.819 23.8494 12.5276C24.3186 12.2362 24.9352 12.3803 25.2265 12.8495ZM23.2265 21.8495C23.5179 22.3187 23.3738 22.9352 22.9046 23.2266C22.4354 23.518 21.8189 23.3738 21.5275 22.9047C21.2361 22.4355 21.3803 21.819 21.8494 21.5276C22.3186 21.2362 22.9352 21.3803 23.2265 21.8495ZM23.9046 30.2266C24.3738 29.9352 24.5179 29.3187 24.2265 28.8495C23.9352 28.3803 23.3186 28.2362 22.8494 28.5276C22.3803 28.819 22.2361 29.4355 22.5275 29.9047C22.8189 30.3738 23.4354 30.518 23.9046 30.2266ZM23.2265 37.8495C23.5179 38.3187 23.3738 38.9352 22.9046 39.2266C22.4354 39.518 21.8189 39.3738 21.5275 38.9047C21.2361 38.4355 21.3803 37.819 21.8494 37.5276C22.3186 37.2362 22.9352 37.3803 23.2265 37.8495Z" fill="#333333"/>
</g>
<defs>
<clipPath id="clip0_7208_23402">
<rect width="48" height="48" fill="white"/>
</clipPath>
</defs>
</svg>
