<svg width="48" height="48" viewBox="0 0 48 48" fill="none" xmlns="http://www.w3.org/2000/svg">
<g clip-path="url(#clip0_8080_4109)">
<path d="M0 0H48V48H0V0Z" fill="currentColor"/>
<path d="M42.999 26.499C42.999 25.6706 42.3274 24.999 41.499 24.999H25.999V22.999H38.499C39.3274 22.999 39.999 22.3274 39.999 21.499C39.999 20.6706 39.3274 19.999 38.499 19.999L22.9136 19.999C21.0092 19.999 20.1825 17.5895 21.6857 16.4203L25.7826 13.2338C26.5728 12.6192 26.5623 11.4215 25.7614 10.8208C25.2653 10.4487 24.5926 10.4158 24.0625 10.7377L12.6717 17.6283L11.5 16L23.0243 9.02828C24.2528 8.28222 25.8116 8.35846 26.9614 9.22084C28.8173 10.6127 28.8416 13.3883 27.0105 14.8125L22.9136 17.999L38.499 17.999C40.432 17.999 41.999 19.566 41.999 21.499C41.999 22.0373 41.8775 22.5471 41.6605 23.0027C43.5185 23.087 44.999 24.6201 44.999 26.499C44.999 28.3779 43.5185 29.911 41.6605 29.9954C41.8775 30.4509 41.999 30.9608 41.999 31.499C41.999 33.432 40.432 34.999 38.499 34.999H35.6622C35.8782 35.4537 35.999 35.9622 35.999 36.499C35.999 38.432 34.432 39.999 32.499 39.999H12.8131L15.5 38L32.499 37.999C33.3274 37.999 33.999 37.3274 33.999 36.499C33.999 35.6706 33.3274 34.999 32.499 34.999H23.8814V32.999H38.499C39.3274 32.999 39.999 32.3274 39.999 31.499C39.999 30.6706 39.3274 29.999 38.499 29.999H25.999V27.999H41.499C42.3274 27.999 42.999 27.3274 42.999 26.499Z" fill="none"/>
<path fill-rule="evenodd" clip-rule="evenodd" d="M8.56666 17C8.56666 17.8229 8.48631 18.6002 8.34183 19.3466C7.81354 22.0755 6.42785 24.3889 4.97806 26.9896C3.30135 29.9974 3.98402 32.7103 5.49472 35.2434C6.05639 36.1852 6.73253 37.1021 7.44442 38C7.44442 37.7946 7.44412 37.5972 7.44384 37.4073C7.44218 36.3179 7.4409 35.4752 7.49882 34.7654C7.666 32.7164 8.32637 31.7736 10.8944 29.194C12.0657 31.291 11.7726 33.4624 11.3416 35.668C11.2988 35.8872 11.2546 36.1067 11.2104 36.3266C11.0984 36.8827 10.9861 37.4407 10.8944 38C11.3631 37.7737 11.8269 37.563 12.2818 37.3563C12.5534 37.2329 12.8219 37.1109 13.0864 36.9878C15.1803 36.0139 17.022 34.9759 18.1915 32.6499C19.5715 29.9054 18.9626 27.7367 18.0142 25.113C17.6929 24.2242 17.3326 23.2832 16.9975 22.25C16.5903 23.75 15.8314 25.1136 15.3385 26.0682C14.3567 22.2664 11.557 19.4814 8.56666 17Z" fill="none"/>
</g>
<defs>
<clipPath id="clip0_8080_4109">
<rect width="48" height="48" fill="none"/>
</clipPath>
</defs>
</svg>
