<svg width="48" height="48" viewBox="0 0 48 48" fill="none" xmlns="http://www.w3.org/2000/svg">
<g clip-path="url(#clip0_8230_1380)">
<path fill-rule="evenodd" clip-rule="evenodd" d="M48 0H0V48H48V0ZM10.5573 22.4562C11.2727 21.0041 11.9115 19.7076 11.9115 18C13.1632 19.1816 14.335 20.5078 14.746 22.3182C14.7686 22.2683 14.7926 22.2161 14.8176 22.1616C15.0203 21.7203 15.2887 21.1359 15.4404 20.5C16.3245 23.6012 16.4866 26.3336 13.4532 28C13.6846 26.3932 13.6182 25.2983 12.8858 23.8067C11.695 25.1674 11.4417 26.1895 11.4417 28C10.3423 26.4224 9.44662 24.7217 10.4094 22.757C10.4589 22.6558 10.5083 22.5556 10.5573 22.4562ZM7.82857 25.6108C6.66036 27.2235 6 29.1894 6 31.2522V32.391C6 37.6979 10.2981 42 15.6 42H29.2C30.0837 42 30.8 41.283 30.8 40.3985C30.8 39.514 30.0837 38.797 29.2 38.797H21.1111V37.1955H34C34.8837 37.1955 35.6 36.4785 35.6 35.594C35.6 34.7095 34.8837 33.9925 34 33.9925H22.8V32.391H36.4C37.2837 32.391 38 31.674 38 30.7895C38 29.905 37.2837 29.188 36.4 29.188H22.8V27.5865H34C34.8837 27.5865 35.6 26.8695 35.6 25.985C35.6 25.1005 34.8837 24.3835 34 24.3835H20.6151C19.8259 24.3835 19.5134 23.361 20.1675 22.9191L23.3963 20.7376C24.3397 20.1002 24.5802 18.8138 23.931 17.8781C23.3377 17.0229 22.1969 16.751 21.2821 17.2466L18.8 18.5916V26.8214C18.8 29.7801 16.344 32.1786 13.3143 32.1786C10.2846 32.1786 7.82857 29.7801 7.82857 26.8214V25.6108ZM19 12.8L28.5 9H19V12.8ZM17 13.6V8H16V14L17 13.6ZM19 7C19 6.44771 18.5523 6 18 6H15C14.4477 6 14 6.44772 14 7V15C14 15.5523 14.4477 16 15 16H18C18.5523 16 19 15.5523 19 15L38 15C40.2091 15 42 13.2091 42 11C42 8.79086 40.2091 7 38 7L19 7Z" fill="currentColor"/>
</g>
<defs>
<clipPath id="clip0_8230_1380">
<rect width="48" height="48" fill="none"/>
</clipPath>
</defs>
</svg>
