<svg width="48" height="48" viewBox="0 0 48 48" fill="none" xmlns="http://www.w3.org/2000/svg">
<g clip-path="url(#clip0_8311_2369)">
<rect width="48" height="48" fill="none"/>
<path fill-rule="evenodd" clip-rule="evenodd" d="M48 0H0V48H48V0ZM32 4H16V8C16 9.10451 16.8953 9.9999 17.9998 10C17.9998 10.0084 17.9999 10.0169 18.0001 10.0254L18.0002 10.0291L18.0005 10.037L18.0013 10.0653C18.0021 10.0898 18.0033 10.1258 18.0052 10.1739C18.0089 10.2702 18.015 10.4152 18.0249 10.6141C18.0447 11.0121 18.0796 11.6264 18.1403 12.5006C18.2615 14.2487 18.4856 17.0374 18.8976 21.2137C19.0457 22.7147 19.9272 24.0565 20.6236 25.1164L20.7022 25.236C21.0811 25.8138 21.409 26.3193 21.6478 26.8096C21.8845 27.2956 21.9967 27.6956 21.9967 28.0471C21.9967 28.301 21.9975 29.0399 21.9983 29.7146L21.9998 31.0008C22.0005 31.5528 22.4483 32.0001 23.0001 32L23.0001 39.0017C23.0001 39.553 23.447 40 23.9983 40C24.5489 40 24.9954 39.5543 24.9966 39.004H25.0001V32C25.5522 31.9999 25.9998 31.5522 25.9998 31V28.0053C25.9998 27.6593 26.1123 27.2672 26.3516 26.7892C26.5934 26.306 26.9248 25.8099 27.3087 25.2387L27.3735 25.1424C28.0793 24.0937 28.9839 22.7495 29.1047 21.2191C29.4275 17.1307 29.6505 14.3462 29.7927 12.584C29.8638 11.7029 29.9148 11.0773 29.9479 10.6722L30.0197 9.99991C31.1152 9.98934 32 9.098 32 8V4ZM27.9964 10H20.0003L20.0003 10.0012C20.0009 10.0215 20.002 10.0533 20.0037 10.0974C20.0071 10.1856 20.0129 10.3229 20.0224 10.5147C20.0415 10.8983 20.0757 11.4996 20.1355 12.3622C20.1679 12.8294 20.2078 13.373 20.2569 14.0001L27.6723 14.0001C27.7202 13.4029 27.7624 12.8788 27.7992 12.423C27.8704 11.5413 27.9214 10.915 27.9546 10.5091L27.9964 10ZM24.1336 27.004C24.2368 26.6098 24.3906 26.2386 24.5631 25.894C24.8682 25.2844 25.2689 24.6883 25.6326 24.1471L25.6488 24.123C26.4389 22.9476 27.0354 22.0177 27.1109 21.0616C27.2675 19.0786 27.4006 17.4021 27.5124 16.0001H20.4218C20.5409 17.3843 20.6933 19.0444 20.8879 21.0174C20.9839 21.9902 21.5919 22.9457 22.3745 24.1392C22.7404 24.697 23.1416 25.3093 23.4459 25.9339C23.6087 26.2682 23.7541 26.6261 23.8545 27.004H24.1336ZM22.3025 41.9577C22.4361 41.3263 23.3409 40.9857 23.9862 40.9857C24.644 40.9857 25.5537 41.3251 25.6927 41.9679L25.8429 42.6619C25.9362 43.0932 25.7359 43.5372 25.3249 43.6977C24.9364 43.8494 24.4372 44 23.9863 44C23.5637 44 23.0706 43.849 22.6814 43.697C22.2681 43.5356 22.0631 43.0901 22.1549 42.6559L22.3025 41.9577Z" fill="currentColor"/>
</g>
<defs>
<clipPath id="clip0_8311_2369">
<rect width="48" height="48" fill="none"/>
</clipPath>
</defs>
</svg>
