<svg width="48" height="48" viewBox="0 0 48 48" fill="none" xmlns="http://www.w3.org/2000/svg">
<g clip-path="url(#clip0_8230_1328)">
<path fill-rule="evenodd" clip-rule="evenodd" d="M48 0H0V48H48V0ZM23 6H6V18H23V6ZM42 6H25V18H42V6ZM6 32V20H23V24.083C20.1623 24.559 18 27.027 18 30C18 30.7013 18.1203 31.3744 18.3414 32H6ZM30 30C30 30.7013 29.8797 31.3744 29.6586 32H42V20H25V24.083C27.8377 24.559 30 27.027 30 30ZM14.5 16C15.0523 16 15.5 15.5523 15.5 15C15.5 14.4477 15.0523 14 14.5 14C13.9477 14 13.5 14.4477 13.5 15C13.5 15.5523 13.9477 16 14.5 16ZM13.5 9C13.5 8.44772 13.9477 8 14.5 8C15.0523 8 15.5 8.44772 15.5 9V12C15.5 12.5523 15.0523 13 14.5 13C13.9477 13 13.5 12.5523 13.5 12V9ZM32 25H39C39.5523 25 40 24.5523 40 24C40 23.4477 39.5523 23 39 23H32C31.4477 23 31 23.4477 31 24C31 24.5523 31.4477 25 32 25ZM9 25V23H11V25H9ZM9 27V29H11V27H9ZM13 25V23H15V25H13ZM13 27V29H15V27H13ZM17 25V23H19V25H17ZM32 28C32 28.5523 32.4477 29 33 29H39C39.5523 29 40 28.5523 40 28C40 27.4477 39.5523 27 39 27H33C32.4477 27 32 27.4477 32 28ZM40.2071 9.20711L34.5 14.9142L32 12.4142L29.7071 14.7071L28.2929 13.2929L32 9.58579L34.5 12.0858L38.7929 7.79289L40.2071 9.20711ZM24 36C21.6637 36 17 36.7106 17 38.1212V41H31V38.1212C31 36.7106 26.3363 36 24 36ZM24 34C26.2091 34 28 32.2091 28 30C28 27.7909 26.2091 26 24 26C21.7909 26 20 27.7909 20 30C20 32.2091 21.7909 34 24 34Z" fill="currentColor"/>
</g>
<defs>
<clipPath id="clip0_8230_1328">
<rect width="48" height="48" fill="none"/>
</clipPath>
</defs>
</svg>
