<svg width="48" height="48" viewBox="0 0 48 48" fill="none" xmlns="http://www.w3.org/2000/svg">
<g clip-path="url(#clip0_2213_3151)">
<path fill-rule="evenodd" clip-rule="evenodd" d="M13 13C12.4477 13 12 13.4477 12 14V29.9592C12 30.5115 12.4477 30.9592 13 30.9592H23V33.102H18.4615V35.102H29.5385V33.102H25V30.9592H35C35.5523 30.9592 36 30.5115 36 29.9592V14C36 13.4477 35.5523 13 35 13H13ZM22.9071 15.694L19.504 21.679H13.8462V23.6663H20.6789L22.298 20.8188L24.1894 27.3674L28.6184 21.7342H33.1494C33.7042 21.7342 34.1539 21.2893 34.1539 20.7406C34.1539 20.1918 33.7042 19.7469 33.1494 19.7469H27.6358L25.0336 23.0566L22.9071 15.694Z" fill="#333333"/>
<path fill-rule="evenodd" clip-rule="evenodd" d="M48 0H0V48H48V0ZM9 6C7.34315 6 6 7.34314 6 9V39C6 40.6569 7.34314 42 9 42H39C40.6569 42 42 40.6569 42 39V9C42 7.34315 40.6569 6 39 6H9Z" fill="#333333"/>
</g>
<defs>
<clipPath id="clip0_2213_3151">
<rect width="48" height="48" fill="white"/>
</clipPath>
</defs>
</svg>
