<svg width="48" height="48" viewBox="0 0 48 48" fill="none" xmlns="http://www.w3.org/2000/svg">
<g clip-path="url(#clip0_8230_1330)">
<path fill-rule="evenodd" clip-rule="evenodd" d="M0 0H48V48H0V0ZM26.2928 11.4643C26.4907 11.2004 26.7097 10.9472 26.9498 10.7071C27.1898 10.467 27.443 10.248 27.707 10.0501L31.8995 14.2426L32.8493 13.2929C33.2399 12.9024 33.873 12.9024 34.2635 13.2929C34.654 13.6835 34.654 14.3166 34.2635 14.7071L33.3137 15.6568L37.5062 19.8494C37.3083 20.1133 37.0893 20.3665 36.8493 20.6066C36.6092 20.8467 36.356 21.0657 36.092 21.2636C34.0222 22.8154 31.2885 23.0709 29 22.0302V24H42V26H40V40H41C41.5523 40 42 40.4477 42 41C42 41.5523 41.5523 42 41 42H7C6.44772 42 6 41.5523 6 41C6 40.4477 6.44772 40 7 40H8V26H6V24H15V21H11V19H15V18H13C11.3431 18 10 16.6569 10 15C10 13.3431 11.3431 12 13 12H15V11C15 10.4477 15.4477 10 16 10C16.5523 10 17 10.4477 17 11V12H19C20.6569 12 22 13.3431 22 15C22 16.6569 20.6569 18 19 18H17V19H21V21H17V24H21.5858L26.0625 19.5232C24.4385 17.0772 24.5153 13.8352 26.2928 11.4643ZM27 21.4142L24.4142 24H27V21.4142ZM34.6572 19.8288C32.7158 21.115 30.0744 20.9028 28.364 19.1924C26.6535 17.4819 26.4414 14.8405 27.7276 12.8992L34.6572 19.8288ZM31 40H36V32H31V40ZM19 16H17V14H19C19.5523 14 20 14.4477 20 15C20 15.5523 19.5523 16 19 16ZM13 16H15V14H13C12.4477 14 12 14.4477 12 15C12 15.5523 12.4477 16 13 16ZM19 32H24V36H19V32ZM17 32H12V36H17V32Z" fill="currentColor"/>
</g>
<defs>
<clipPath id="clip0_8230_1330">
<rect width="48" height="48" fill="none"/>
</clipPath>
</defs>
</svg>
