<svg width="48" height="48" viewBox="0 0 48 48" fill="none" xmlns="http://www.w3.org/2000/svg">
<g clip-path="url(#clip0_6470_4698)">
<path fill-rule="evenodd" clip-rule="evenodd" d="M0 0H48V48H0V0ZM37.2154 36.9538C40.0617 35.4422 42 32.4474 42 29C42 24.2675 38.3473 20.3882 33.7074 20.0274L30.7771 12.0738L34.3647 10.6687C34.6317 10.5642 34.8409 10.35 34.9393 10.0807L35.9393 7.34311C36.1288 6.82435 35.8619 6.2502 35.3431 6.0607C34.8244 5.87121 34.2502 6.13813 34.0607 6.65689L33.2154 8.97091L29.1353 10.5689C28.6284 10.7674 28.3735 11.3349 28.5617 11.8457L31.6055 20.1074C29.0698 20.5018 26.8845 21.9548 25.5154 24.0002L32.5766 24.0001C35.5718 24 38 26.4281 38 29.4234C38 31.8678 36.3647 34.0101 34.0068 34.6547L27.8049 36.3501C29.2724 37.3893 31.0649 38 33 38C33.7882 38 34.5527 37.8987 35.2813 37.7084L36.9999 39.9998H36C35.4477 39.9998 35 40.4475 35 40.9998C35 41.5521 35.4477 41.9998 36 41.9998H41C41.5523 41.9998 42 41.5521 42 40.9998C42 40.4475 41.5523 39.9998 41 39.9998H39.5L37.2154 36.9538ZM36 29.4202V29.4234C36 30.9664 34.9678 32.3186 33.4794 32.7255L33.048 32.8434L15.6733 37.8076C14.9343 38.0188 14.1959 38.0827 13.4852 38.0198L12 40H13C13.5523 40 14 40.4477 14 41C14 41.5523 13.5523 42 13 42H8C7.44772 42 7 41.5523 7 41C7 40.4477 7.44772 40 8 40H9.5L11.4143 37.4477C9.42726 36.4891 8 34.4617 8 32.0196C8 29.3202 9.7769 27.0357 12.2249 26.2721L10.2648 20H8.85037C7.27616 20 6 18.7238 6 17.1496C6 15.4633 7.45602 14.1456 9.134 14.3134L13.6365 14.7636C14.9782 14.8978 16 16.0269 16 17.3753C16 18.8249 14.8249 20 13.3753 20H12.3602L14.2352 26H32.5798C34.4687 26 36 27.5313 36 29.4202ZM15.7324 33C15.3866 33.5978 14.7403 34 14 34C12.8954 34 12 33.1046 12 32C12 30.8954 12.8954 30 14 30C14.7403 30 15.3866 30.4022 15.7324 31H19C19.5523 31 20 31.4477 20 32C20 32.5523 19.5523 33 19 33H15.7324Z" fill="#333333"/>
</g>
<defs>
<clipPath id="clip0_6470_4698">
<rect width="48" height="48" fill="white"/>
</clipPath>
</defs>
</svg>
