<svg width="48" height="48" viewBox="0 0 48 48" fill="none" xmlns="http://www.w3.org/2000/svg">
<g clip-path="url(#clip0_6470_4755)">
<g clip-path="url(#clip1_6470_4755)">
<path fill-rule="evenodd" clip-rule="evenodd" d="M48 0H0V48H48V0ZM22.2761 41.9121C19.7237 37.6552 19.0305 32.0027 24.6502 26.3611C31.4056 19.5794 27.5 10.5 25 6C25 6.3913 25.0255 6.79111 25.0521 7.2083C25.2297 9.9896 25.4565 13.5435 18.5 20.5C11 29.5 16.4124 39.4121 22.2761 41.9121ZM23.4963 42C22.2997 39.4068 21.0522 33.1354 24.6754 29.5003C31.2042 22.7706 30.156 16.8728 30.0108 16.517C30.2787 16.9411 35.3998 25.2461 31.6314 34.5C33.8055 33.2442 34.7301 31.5286 35 31C33.8743 40.1244 28.1182 41.6255 23.4963 42ZM30 16.5L30.0108 16.517C30.0062 16.5057 30.0025 16.5 30 16.5ZM11.3182 28C11.7182 22 18.5 17.3333 21.5 15.5C18.8333 17.6667 13.3182 23.7 13.3182 28.5C13.3182 33.3 15.3182 37 16.3182 38.5C16.1079 38.2897 15.882 38.0738 15.6468 37.8489C13.6451 35.9354 10.9603 33.369 11.3182 28Z" fill="#333333"/>
</g>
</g>
<defs>
<clipPath id="clip0_6470_4755">
<rect width="48" height="48" fill="white"/>
</clipPath>
<clipPath id="clip1_6470_4755">
<rect width="48" height="48" fill="white"/>
</clipPath>
</defs>
</svg>
