<svg width="48" height="48" viewBox="0 0 48 48" fill="none" xmlns="http://www.w3.org/2000/svg">
<g clip-path="url(#clip0_7208_23399)">
<path fill-rule="evenodd" clip-rule="evenodd" d="M48 0H0V48H48V0ZM8.89576 7C8.86114 7 8.82692 7.00176 8.79321 7.00519C8.72168 6.99843 8.64831 6.99932 8.57406 7.0086C8.02604 7.0771 7.63731 7.57689 7.70581 8.12491C8.03904 10.7907 9.40936 12.7344 11.0514 14.1473C10.2557 14.4888 9.54798 15.0491 8.89557 15.7236C6.87438 17.8134 6.24172 20.008 6.02968 21.6521L6.02559 21.6838L6.02354 21.7157C5.89931 23.6426 6.23319 27.248 7.87057 30.7805C8.3636 31.8441 9.15027 33.5147 10.155 34.8679C10.6578 35.5451 11.2532 36.1959 11.9419 36.6507C12.643 37.1137 13.49 37.4026 14.4298 37.2406C17.4605 36.7184 17.9577 36.7187 18.3797 36.719L18.8723 36.719L18.8771 36.719L18.9552 36.719C19.3943 36.7195 19.9885 36.7378 23.0351 37.2418C24.478 37.4804 25.6883 36.7284 26.5887 35.8406C26.8936 35.9241 27.2115 35.9763 27.5386 35.9936C27.3713 36.4646 27.2803 36.9717 27.2803 37.5C27.2803 39.9853 29.295 42 31.7803 42C32.8625 42 33.8554 41.618 34.6317 40.9815C35.0703 41.3661 35.5802 41.6623 36.1333 41.8528C36.7702 42.0721 37.4481 42.1456 38.1172 42.068C38.7862 41.9903 39.4293 41.7635 39.999 41.4042C40.5687 41.0449 41.0505 40.5623 41.4088 39.992C41.7671 39.4216 41.9928 38.7782 42.0693 38.109C42.1458 37.4398 42.0711 36.762 41.8507 36.1255C41.6303 35.489 41.2699 34.9102 40.7959 34.4316C40.4838 34.1164 40.1277 33.85 39.7398 33.6401C40.0845 33.0036 40.2803 32.2747 40.2803 31.5C40.2803 31.3499 40.2729 31.2016 40.2586 31.0553C40.6755 30.7319 41.0327 30.3372 41.3134 29.8891C41.6346 29.3765 41.849 28.8045 41.9441 28.2072C42.0391 27.6099 42.0128 26.9995 41.8666 26.4126C41.7205 25.8257 41.4575 25.2743 41.0935 24.7913C40.899 24.5333 40.6778 24.2977 40.4341 24.0881C40.486 24.0151 40.529 23.9338 40.5607 23.8453C40.9639 22.722 40.9043 21.4846 40.3951 20.4052C39.8859 19.3258 38.9687 18.4929 37.8454 18.0897C37.5003 17.9659 37.1445 17.8857 36.7857 17.8488C37.9182 15.9143 38.5473 13.5073 38.131 10.9915C38.0816 10.693 37.9046 10.4473 37.6652 10.3011C37.4248 10.1458 37.1198 10.0942 36.8251 10.1859C34.106 11.0314 32.0933 12.9809 30.9006 15.1327C30.5302 15.8009 30.2312 16.5031 30.0143 17.2129C29.663 16.7113 29.2434 16.2071 28.7417 15.7091C27.861 14.8349 26.8917 14.1613 25.7623 13.9026C24.6103 13.6387 23.428 13.837 22.1912 14.4507C21.1713 14.9569 20.4455 15.1907 19.8755 15.3038L19.8705 15.3048C19.8768 15.2595 19.88 15.2131 19.88 15.166V8.56603C19.88 8.01375 19.4323 7.56603 18.88 7.56603C18.3277 7.56603 17.88 8.01375 17.88 8.56603V12.3146C17.3929 11.4707 16.7592 10.6697 16.022 9.9645C14.2441 8.26392 11.7433 7 8.89576 7ZM14.6723 14.1869C12.6647 13.1238 10.6914 11.5186 9.94449 9.07289C11.7675 9.32687 13.3982 10.2225 14.6395 11.4098C15.8618 12.5789 16.6271 13.9511 16.8664 15.1469C16.4304 15.0079 15.9077 14.7934 15.2593 14.4582C15.0625 14.3564 14.8669 14.2659 14.6723 14.1869ZM15.681 16.8494C15.116 16.6234 14.489 16.3466 13.8415 16.0086C13.2038 15.7634 12.6908 15.7437 12.2448 15.8501C11.6614 15.9893 11.0437 16.3794 10.3332 17.1141C8.70067 18.8019 8.19412 20.5399 8.01741 21.8761C7.91782 23.5205 8.21387 26.7654 9.68511 29.9394C10.1851 31.0181 10.895 32.5096 11.7608 33.6756C12.1932 34.258 12.6267 34.7062 13.044 34.9818C13.449 35.2492 13.7854 35.3222 14.0902 35.2697C17.2129 34.7316 17.8008 34.719 18.4086 34.719H19.4457V34.7325C20.038 34.7654 21.0056 34.8788 23.3615 35.2686C23.7616 35.3348 24.2158 35.2057 24.7337 34.8119C23.8401 33.9895 23.2803 32.8101 23.2803 31.5C23.2803 29.0958 25.1657 27.132 27.5386 27.0064C27.3713 26.5354 27.2803 26.0283 27.2803 25.5C27.2803 23.7713 28.255 22.2703 29.6849 21.5166C29.4567 20.2442 28.8832 18.6676 27.3327 17.1286C26.593 16.3943 25.9419 15.9956 25.3158 15.8521C24.7124 15.7139 24.0041 15.7838 23.0803 16.2422C21.9399 16.8082 21.0454 17.1106 20.2651 17.2655C19.7703 17.3638 19.337 17.3991 18.9482 17.4117V17.4188L18.9289 17.4188C18.8348 17.4188 18.7378 17.4188 18.6376 17.4179C18.5333 17.4188 18.4322 17.4188 18.334 17.4188L18.3151 17.4188C18.2533 17.4188 18.1929 17.4133 18.1343 17.4026C17.8112 17.3843 17.4561 17.3458 17.0605 17.264C16.6608 17.1813 16.2311 17.0573 15.753 16.875C15.7289 16.8675 15.7048 16.8589 15.681 16.8494ZM36.2803 37.5C36.2803 36.9717 36.1892 36.4646 36.0219 35.9936C36.8803 35.9482 37.6749 35.6622 38.3396 35.2018C38.3718 35.2174 38.4051 35.2314 38.4395 35.2437C38.7919 35.3696 39.1115 35.573 39.3748 35.8389C39.6381 36.1047 39.8384 36.4263 39.9608 36.7799C40.0833 37.1335 40.1248 37.5101 40.0823 37.8819C40.0398 38.2536 39.9144 38.6111 39.7153 38.928C39.5162 39.2448 39.2486 39.5129 38.9321 39.7125C38.6156 39.9121 38.2583 40.0382 37.8866 40.0813C37.5149 40.1244 37.1383 40.0836 36.7845 39.9617C36.4394 39.8429 36.1246 39.65 35.8622 39.3967C36.1305 38.8203 36.2803 38.1777 36.2803 37.5ZM39.5118 28.9841C38.7453 27.8495 37.4751 27.0833 36.022 27.0064C36.1892 26.5354 36.2803 26.0283 36.2803 25.5C36.2803 25.4396 36.2791 25.3795 36.2767 25.3197C36.4441 25.2258 36.6221 25.1513 36.8074 25.0978C37.1303 25.0048 37.4686 24.9777 37.8022 25.0183C38.1357 25.0589 38.4577 25.1664 38.7487 25.3342C39.0398 25.5021 39.2941 25.7269 39.4964 25.9952C39.6986 26.2635 39.8447 26.5698 39.9259 26.8959C40.0071 27.222 40.0217 27.561 39.9689 27.8929C39.9161 28.2247 39.797 28.5425 39.6186 28.8273C39.5849 28.881 39.5493 28.9333 39.5118 28.9841ZM36.2534 23.1761C36.0781 23.2267 35.9064 23.2877 35.7392 23.3588C35.3268 22.5979 34.7015 21.9693 33.9431 21.5529C33.9537 21.5294 33.9634 21.5053 33.9722 21.4807C34.1092 21.099 34.3355 20.7601 34.6278 20.4898C34.6498 20.4703 34.6717 20.4508 34.6936 20.4311C34.863 20.2851 35.0527 20.1613 35.2586 20.0642C35.8582 19.7813 36.5457 19.7482 37.1698 19.9722C37.7938 20.1961 38.3034 20.6589 38.5863 21.2585C38.8674 21.8545 38.9018 22.5372 38.6824 23.1581C38.4734 23.1012 38.26 23.0593 38.0439 23.033C37.4435 22.9599 36.8345 23.0086 36.2534 23.1761ZM33.271 19.0204C33.3098 18.9845 33.3493 18.9493 33.3894 18.9148C33.8631 18.4836 34.3151 17.9682 34.718 17.3782C35.6517 16.011 36.259 14.3312 36.2596 12.564C34.6808 13.3578 33.4524 14.6544 32.6498 16.1023C31.8822 17.4872 31.5498 18.9231 31.6144 20.0958C32.165 19.8562 32.7304 19.493 33.271 19.0204ZM29.2803 25.5C29.2803 24.1193 30.3996 23 31.7803 23C33.161 23 34.2803 24.1193 34.2803 25.5C34.2803 26.8807 33.161 28 31.7803 28C30.3996 28 29.2803 26.8807 29.2803 25.5ZM25.2803 31.5C25.2803 30.1193 26.3996 29 27.7803 29C29.161 29 30.2803 30.1193 30.2803 31.5C30.2803 32.8807 29.161 34 27.7803 34C26.3996 34 25.2803 32.8807 25.2803 31.5ZM33.2803 31.5C33.2803 30.1193 34.3996 29 35.7803 29C37.161 29 38.2803 30.1193 38.2803 31.5C38.2803 32.8807 37.161 34 35.7803 34C34.3996 34 33.2803 32.8807 33.2803 31.5ZM29.2803 37.5C29.2803 36.1193 30.3996 35 31.7803 35C33.161 35 34.2803 36.1193 34.2803 37.5C34.2803 38.8807 33.161 40 31.7803 40C30.3996 40 29.2803 38.8807 29.2803 37.5Z" fill="#333333"/>
</g>
<defs>
<clipPath id="clip0_7208_23399">
<rect width="48" height="48" fill="white"/>
</clipPath>
</defs>
</svg>
