<svg width="48" height="48" viewBox="0 0 48 48" fill="none" xmlns="http://www.w3.org/2000/svg">
<g clip-path="url(#clip0_8230_1333)">
<path fill-rule="evenodd" clip-rule="evenodd" d="M48 0H0V48H48V0ZM24 42C28.6107 42 32.8166 40.2664 36.0013 37.4155L30.6529 32.0671C29.9614 33.014 29.0301 33.7907 27.9211 34.2999L25 35.6412V38H23V35.6412L20.0789 34.2999C17.5932 33.1585 16 30.6738 16 27.9385V26C16 25.6593 16.1734 25.3421 16.4602 25.1582C16.543 25.1051 16.6319 25.0653 16.724 25.0388C16.2564 24.0927 16 23.0358 16 21.9385V20C16 19.6593 16.1734 19.3421 16.4602 19.1582C16.747 18.9743 17.1077 18.9491 17.4173 19.0912L17.4764 19.1184C17.1671 18.3241 17 17.4658 17 16.5794V15C17 14.6711 17.1617 14.3632 17.4325 14.1766C17.7034 13.99 18.0486 13.9484 18.356 14.0655L20.492 14.8792C20.5759 14.9112 20.659 14.9447 20.7412 14.9796C20.7781 13.2042 21.4236 11.4692 22.6097 10.0855L23.2407 9.34921C23.4307 9.12756 23.7081 9 24 9C24.2919 9 24.5693 9.12756 24.7593 9.34921L25.3903 10.0855C26.5764 11.4692 27.2219 13.2042 27.2588 14.9796C27.341 14.9447 27.4241 14.9112 27.508 14.8792L29.644 14.0655C29.9514 13.9484 30.2966 13.99 30.5675 14.1766C30.8383 14.3632 31 14.6711 31 15V16.5794C31 17.4658 30.8329 18.3241 30.5236 19.1184L30.5827 19.0912C30.8923 18.9491 31.253 18.9743 31.5398 19.1582C31.8266 19.3421 32 19.6593 32 20V21.9385C32 23.0358 31.7436 24.0927 31.276 25.0388C31.3681 25.0653 31.457 25.1051 31.5398 25.1582C31.8266 25.3421 32 25.6593 32 26V27.9385C32 28.7243 31.8685 29.4894 31.6221 30.2079L37.4155 36.0013C40.2664 32.8166 42 28.6107 42 24C42 14.0589 33.9411 6 24 6C19.5166 6 15.4161 7.63912 12.265 10.3508L15.2071 13.2929C15.5976 13.6834 15.5976 14.3166 15.2071 14.7071C14.8166 15.0976 14.1834 15.0976 13.7929 14.7071L10.8231 11.7373C7.83061 14.9515 6 19.262 6 24C6 33.9411 14.0589 42 24 42ZM24 44C35.0457 44 44 35.0457 44 24C44 12.9543 35.0457 4 24 4C12.9543 4 4 12.9543 4 24C4 35.0457 12.9543 44 24 44ZM25.1211 16.4007C25.5026 14.6977 25.092 12.9094 24 11.542C22.908 12.9094 22.4974 14.6977 22.8789 16.4007C23.3127 16.8226 23.6894 17.2983 24 17.815C24.3106 17.2983 24.6873 16.8226 25.1211 16.4007ZM23 21.4206V21.5489L22.22 21.2518C20.2812 20.5132 19 18.6541 19 16.5794V16.4511L19.78 16.7482C21.7188 17.4868 23 19.3459 23 21.4206ZM25.78 21.2518L25 21.5489V21.4206C25 19.3459 26.2812 17.4868 28.22 16.7482L29 16.4511V16.5794C29 18.6541 27.7188 20.5132 25.78 21.2518ZM25 26.1071V27.4404L27.0865 26.4824C28.862 25.6671 30 23.8923 30 21.9385V21.5596L27.0462 22.9159C25.7992 23.4885 25 24.735 25 26.1071ZM23 27.0615C23 25.1077 21.862 23.3329 20.0865 22.5176L18 21.5596V21.9385C18 23.8923 19.138 25.6671 20.9135 26.4824L23 27.4404V27.0615ZM23 33.0615V33.4404L20.9135 32.4824C19.138 31.6671 18 29.8923 18 27.9385V27.5596L20.0865 28.5176C21.862 29.3329 23 31.1077 23 33.0615ZM27.0865 32.4824L25 33.4404V32.1071C25 30.735 25.7992 29.4885 27.0462 28.9159L30 27.5596V27.9385C30 29.8923 28.862 31.6671 27.0865 32.4824Z" fill="currentColor"/>
</g>
<defs>
<clipPath id="clip0_8230_1333">
<rect width="48" height="48" fill="none"/>
</clipPath>
</defs>
</svg>
