<svg width="48" height="48" viewBox="0 0 48 48" fill="none" xmlns="http://www.w3.org/2000/svg">
<g clip-path="url(#clip0_8230_1335)">
<path fill-rule="evenodd" clip-rule="evenodd" d="M48 0H0V48H48V0ZM25 4H23V8.63008L22.6097 9.08547C21.4236 10.4692 20.7781 12.2042 20.7412 13.9796C20.659 13.9447 20.5759 13.9112 20.492 13.8792L19 13.3108V6H17V15.5794C17 16.4658 17.1671 17.3241 17.4764 18.1184L17.4173 18.0912C17.1077 17.9491 16.747 17.9743 16.4602 18.1582C16.1734 18.3421 16 18.6593 16 19V20.9385C16 22.0358 16.2564 23.0927 16.724 24.0388C16.6319 24.0653 16.543 24.1051 16.4602 24.1582C16.1734 24.3421 16 24.6593 16 25V26.9385C16 28.0358 16.2564 29.0927 16.724 30.0388C16.6319 30.0653 16.543 30.1051 16.4602 30.1582C16.1734 30.3421 16 30.6593 16 31V32.9385C16 35.6738 17.5932 38.1585 20.0789 39.2999L23 40.6412V44H25V40.6412L27.9211 39.2999C30.4068 38.1585 32 35.6738 32 32.9385V31C32 30.6593 31.8266 30.3421 31.5398 30.1582C31.457 30.1051 31.3681 30.0653 31.276 30.0388C31.7436 29.0927 32 28.0358 32 26.9385V25C32 24.6593 31.8266 24.3421 31.5398 24.1582C31.457 24.1051 31.3681 24.0653 31.276 24.0388C31.7436 23.0927 32 22.0358 32 20.9385V19C32 18.6593 31.8266 18.3421 31.5398 18.1582C31.253 17.9743 30.8923 17.9491 30.5827 18.0912L30.5236 18.1184C30.7837 17.4505 30.9433 16.7372 30.9874 16H31V6H29V13.3108L27.508 13.8792C27.4241 13.9112 27.341 13.9447 27.2588 13.9796C27.2219 12.2042 26.5764 10.4692 25.3903 9.08547L25 8.63008V4ZM24 16.815C23.6894 16.2983 23.3127 15.8226 22.8789 15.4007C22.4974 13.6977 22.908 11.9094 24 10.542C25.092 11.9094 25.5026 13.6977 25.1211 15.4007C24.6873 15.8226 24.3106 16.2983 24 16.815ZM25 32.4404L27.0865 31.4824C28.862 30.6671 30 28.8923 30 26.9385V26.5596L27.0462 27.9159C25.7992 28.4885 25 29.735 25 31.1071V32.4404ZM29 15.5794V15.4511L28.22 15.7482C26.2812 16.4868 25 18.3459 25 20.4206V20.5489L25.78 20.2518C27.7188 19.5132 29 17.6541 29 15.5794ZM23 20.4206C23 18.3459 21.7188 16.4868 19.78 15.7482L19 15.4511V15.5794C19 17.6541 20.2812 19.5132 22.22 20.2518L23 20.5489V20.4206ZM25 25.1071V26.4404L27.0865 25.4824C28.862 24.6671 30 22.8923 30 20.9385V20.5596L27.0462 21.9159C25.7992 22.4885 25 23.735 25 25.1071ZM20.0865 21.5176C21.862 22.3329 23 24.1077 23 26.0615V26.4404L20.9135 25.4824C19.138 24.6671 18 22.8923 18 20.9385V20.5596L20.0865 21.5176ZM23 32.0615C23 30.1077 21.862 28.3329 20.0865 27.5176L18 26.5596V26.9385C18 28.8923 19.138 30.6671 20.9135 31.4824L23 32.4404V32.0615ZM20.9135 37.4824L23 38.4404V38.0615C23 36.1077 21.862 34.3329 20.0865 33.5176L18 32.5596V32.9385C18 34.8923 19.138 36.6671 20.9135 37.4824ZM27.0865 37.4824L25 38.4404V38.0615C25 36.1077 26.138 34.3329 27.9135 33.5176L30 32.5596V32.9385C30 34.8923 28.862 36.6671 27.0865 37.4824Z" fill="currentColor"/>
</g>
<defs>
<clipPath id="clip0_8230_1335">
<rect width="48" height="48" fill="none"/>
</clipPath>
</defs>
</svg>
