<svg width="48" height="48" viewBox="0 0 48 48" fill="none" xmlns="http://www.w3.org/2000/svg">
<g clip-path="url(#clip0_8311_2370)">
<path d="M22.5665 24.1296C21.5199 23.5507 20.6374 22.7116 20.0061 21.6995L16.8313 25.7814L18.4113 27.3613L22.5665 24.1296Z" fill="currentColor"/>
<path fill-rule="evenodd" clip-rule="evenodd" d="M48 0H0V48H48V0ZM26 7C19.9249 7 15 11.9249 15 18H13C13 10.8203 18.8203 5 26 5C33.1797 5 39 10.8203 39 18C39 22.5012 36.7115 26.4674 33.2393 28.7993C30.8696 30.3908 29 32.5075 29 34.9113V35C29 39.4183 25.4183 43 21 43C16.5817 43 13 39.4183 13 35V34.1421C13 31.613 13.871 29.1737 15.4468 27.2252L14.7929 26.5714C14.4363 26.2147 14.401 25.6484 14.7107 25.2503L19.127 19.5722C19.011 19.0668 18.9497 18.5406 18.9497 18C18.9497 14.134 22.0837 11 25.9497 11C29.8157 11 32.9497 14.134 32.9497 18C32.9497 21.866 29.8157 25 25.9497 25C25.5656 25 25.1886 24.9691 24.8213 24.9095L18.9424 29.482C18.5443 29.7917 17.9779 29.7564 17.6213 29.3998L16.8707 28.6491C15.6643 30.2147 15 32.1442 15 34.1421V35C15 38.3137 17.6863 41 21 41C24.3137 41 27 38.3137 27 35V34.9113C27 31.4539 29.6282 28.8153 32.1242 27.139C35.067 25.1627 37 21.8069 37 18C37 11.9249 32.0751 7 26 7Z" fill="currentColor"/>
</g>
<defs>
<clipPath id="clip0_8311_2370">
<rect width="48" height="48" fill="none"/>
</clipPath>
</defs>
</svg>
