<svg width="48" height="48" viewBox="0 0 48 48" fill="none" xmlns="http://www.w3.org/2000/svg">
<g clip-path="url(#clip0_6345_3863)">
<path fill-rule="evenodd" clip-rule="evenodd" d="M48 0H0V48H48V0ZM23.0579 6.08594L40.7083 23.7942C41.0981 24.1854 41.0971 24.8185 40.7059 25.2084C40.3148 25.5983 39.6816 25.5973 39.2917 25.2061L37 22.9068V41C37 41.5523 36.5523 42 36 42H10C9.44772 42 9 41.5523 9 41V22.9218L6.70595 25.2084C6.31479 25.5983 5.68163 25.5973 5.29174 25.2061C4.90185 24.8149 4.90289 24.1818 5.29405 23.7919L23.0579 6.08594ZM35 20.9003L23.0533 8.91437L11 20.9284V40H35V20.9003ZM19.25 20.0001C16.7938 20.0001 15 22.6546 15 25.5173C15 26.2866 15.116 27.0227 15.3199 27.7223C15.4197 28.0644 15.5405 28.3979 15.6791 28.7223C17.6112 33.2437 23 36.0001 23 36.0001C23 36.0001 31 31.6445 31 25.5173C31 22.6551 29.2065 20.0001 26.75 20.0001C25.0454 20.0001 23.7807 21.1912 23 22.8806C22.2193 21.1911 20.9545 20.0001 19.25 20.0001Z" fill="#333333"/>
</g>
<defs>
<clipPath id="clip0_6345_3863">
<rect width="48" height="48" fill="white"/>
</clipPath>
</defs>
</svg>
