<svg width="48" height="48" viewBox="0 0 48 48" fill="none" xmlns="http://www.w3.org/2000/svg">
<g clip-path="url(#clip0_2238_3508)">
<path d="M34 25V36H28V25H34Z" fill="#333333"/>
<path d="M25 25H14V31H25V25Z" fill="#333333"/>
<path fill-rule="evenodd" clip-rule="evenodd" d="M48 0H0V48H48V0ZM5 36C4.44772 36 4 36.4477 4 37C4 37.5523 4.44772 38 5 38H41C41.5523 38 42 37.5523 42 37C42 36.4477 41.5523 36 41 36H38V22L24 14L10 22V36H5ZM36 16.8986V11H31V13.9575L24.507 10.1381C24.1941 9.95398 23.8059 9.95398 23.493 10.1381L5.63105 20.6451L6.64509 22.369L24 12.1602L41.3549 22.369L42.369 20.6451L36 16.8986Z" fill="#333333"/>
</g>
<defs>
<clipPath id="clip0_2238_3508">
<rect width="48" height="48" fill="white"/>
</clipPath>
</defs>
</svg>
