<svg width="48" height="48" viewBox="0 0 48 48" fill="none" xmlns="http://www.w3.org/2000/svg">
<g clip-path="url(#clip0_7208_23396)">
<path fill-rule="evenodd" clip-rule="evenodd" d="M48 0H0V48H48V0ZM29.2 7C29.2 5.34315 27.8569 4 26.2 4C24.5431 4 23.2 5.34315 23.2 7V9.726C23.0253 9.7279 22.8378 9.72923 22.6357 9.73061C21.9877 9.73505 21.221 9.7403 20.4419 9.78141C18.9742 9.85886 16.9904 10.075 15.3102 10.9942C14.4151 11.4838 13.5465 12.2038 12.9161 13.2434C12.2828 14.2876 12 15.4732 12 16.7179C12 18.4449 12.7503 19.8745 13.9659 20.8637C15.042 21.7394 16.3536 22.1705 17.4756 22.4193C19.4789 22.8634 22.0041 22.941 24.2022 23.0085C24.4395 23.0158 24.673 23.0229 24.9016 23.0304C27.4898 23.1154 29.5764 23.2407 31.0049 23.6736C31.6729 23.8761 31.9264 24.0716 31.9911 24.1351C31.9921 24.1407 31.9932 24.1475 31.9942 24.1556C31.9624 24.1703 31.9247 24.1865 31.8804 24.2038C31.6864 24.2794 31.4096 24.3586 31.0308 24.4268C29.3764 24.7247 27.0156 24.6307 24.1392 24.4971L23.9305 24.4874C21.3485 24.3671 18.3073 24.2254 15.8982 24.6656C14.6457 24.8945 13.1974 25.3374 12.0214 26.3204C10.7056 27.4201 10 28.9705 10 30.759C10 32.1874 10.3429 33.5363 11.1227 34.6929C11.8965 35.8407 12.9513 36.578 14.0101 37.0441C15.9976 37.9189 18.3596 37.9882 20.1731 37.944C21.0862 37.9217 21.9917 37.8636 22.7825 37.8128L22.8989 37.8054C23.3863 37.7741 23.8169 37.7474 24.2 37.73V41C24.2 42.6569 25.5431 44 27.2 44C28.8569 44 30.2 42.6569 30.2 41V35.6C30.2 34.7318 29.9031 33.8661 29.2823 33.168C28.7205 32.5362 28.0523 32.2196 27.5724 32.0533C26.6714 31.741 25.6783 31.7074 24.9757 31.7087C24.1994 31.7102 23.3257 31.7657 22.5152 31.8176L22.4349 31.8228C21.6166 31.8753 20.8178 31.9265 20.0269 31.9458C18.2904 31.9881 17.1024 31.8497 16.4274 31.5525C16.1605 31.4351 16.1027 31.3466 16.0979 31.3392C16.0916 31.3299 16.0712 31.2982 16.05 31.222C16.0307 31.1524 16.0073 31.0329 16.0014 30.8484C16.036 30.8318 16.0783 30.8131 16.1294 30.793C16.3228 30.7168 16.5988 30.6369 16.9768 30.5678C18.6275 30.2662 20.9864 30.3572 23.8608 30.4907L24.1036 30.502C26.6763 30.622 29.6993 30.7631 32.0942 30.3318C33.3442 30.1067 34.7921 29.6696 35.9694 28.6936C37.289 27.5996 38 26.0512 38 24.2615C38 22.5752 37.4045 21.0894 36.2859 19.9451C35.2493 18.8848 33.9361 18.2925 32.7451 17.9315C30.4236 17.2279 27.5102 17.1128 25.0984 17.0337L24.5214 17.015C22.1332 16.9383 20.1924 16.8759 18.7744 16.5615C18.4631 16.4925 18.2255 16.4205 18.0494 16.3529C18.066 16.3367 18.1063 16.3037 18.1898 16.258C18.6096 16.0283 19.4258 15.8434 20.7581 15.7731C21.379 15.7403 22.0123 15.735 22.6768 15.7305L22.7505 15.73C23.36 15.7259 24.0379 15.7213 24.6429 15.6823C25.2071 15.6459 26.064 15.565 26.8522 15.2434C27.2732 15.0716 27.8644 14.7568 28.3634 14.1676C28.9144 13.5172 29.2 12.7103 29.2 11.8769V7Z" fill="#333333"/>
</g>
<defs>
<clipPath id="clip0_7208_23396">
<rect width="48" height="48" fill="white"/>
</clipPath>
</defs>
</svg>
