<svg width="48" height="48" viewBox="0 0 48 48" fill="none" xmlns="http://www.w3.org/2000/svg">
<g clip-path="url(#clip0_8290_26094)">
<path fill-rule="evenodd" clip-rule="evenodd" d="M48 0H0V48H48V0ZM33.9937 8.23481C34.8612 6.892 36.6292 6.46529 38.0137 7.2646L38.1825 7.3621C39.567 8.16141 40.0815 9.90593 39.3523 11.3286L35.9328 18H27.6854L33.9937 8.23481ZM41 22H43V20H40H34.9077H26.3934H8H5V22H7V25C7 30.7841 10.7775 35.6859 16 37.373V41C16 41.5523 16.4477 42 17 42H31C31.5523 42 32 41.5523 32 41V37.373C37.2225 35.6859 41 30.7841 41 25V22ZM20 38H28H30V40H18V38H20Z" fill="currentColor"/>
</g>
<defs>
<clipPath id="clip0_8290_26094">
<rect width="48" height="48" fill="none"/>
</clipPath>
</defs>
</svg>
