<svg width="48" height="48" viewBox="0 0 48 48" fill="none" xmlns="http://www.w3.org/2000/svg">
<g clip-path="url(#clip0_8311_2372)">
<path d="M16 16H12C11.4477 16 11 15.5523 11 15V7C11 6.44772 11.4477 6 12 6H16V16Z" fill="currentColor"/>
<path d="M23 16H18V6H23V16Z" fill="currentColor"/>
<path d="M30 16H25V6H30V16Z" fill="currentColor"/>
<path d="M32 16V6H36C36.5523 6 37 6.44772 37 7V15C37 15.5523 36.5523 16 36 16H32Z" fill="currentColor"/>
<path d="M23 35V30H18V28H23V23H25V28H30V30H25V35H23Z" fill="currentColor"/>
<path fill-rule="evenodd" clip-rule="evenodd" d="M48 0H0V48H48V0ZM12 4C10.3431 4 9 5.34315 9 7V15C9 16.6569 10.3431 18 12 18L12 41C12 42.6569 13.3431 44 15 44H33C34.6569 44 36 42.6569 36 41V18C37.6569 18 39 16.6569 39 15V7C39 5.34315 37.6569 4 36 4H12Z" fill="currentColor"/>
</g>
<defs>
<clipPath id="clip0_8311_2372">
<rect width="48" height="48" fill="none"/>
</clipPath>
</defs>
</svg>
