<svg width="48" height="48" viewBox="0 0 48 48" fill="none" xmlns="http://www.w3.org/2000/svg">
<g clip-path="url(#clip0_3307_2057)">
<path fill-rule="evenodd" clip-rule="evenodd" d="M48 0H0V48H48V0ZM24 40C32.8366 40 40 32.8366 40 24C40 15.1634 32.8366 8 24 8C15.1634 8 8 15.1634 8 24C8 32.8366 15.1634 40 24 40ZM24 42C33.9411 42 42 33.9411 42 24C42 14.0589 33.9411 6 24 6C14.0589 6 6 14.0589 6 24C6 33.9411 14.0589 42 24 42ZM14 31.5C14 29.0147 16.0147 27 18.5 27H29.5C31.9853 27 34 29.0147 34 31.5C34 33.9853 31.9853 36 29.5 36H18.5C16.0147 36 14 33.9853 14 31.5ZM17 33C17 32.4477 17.4477 32 18 32H30C30.5523 32 31 32.4477 31 33C31 33.5523 30.5523 34 30 34H18C17.4477 34 17 33.5523 17 33ZM18 29C17.4477 29 17 29.4477 17 30C17 30.5523 17.4477 31 18 31H30C30.5523 31 31 30.5523 31 30C31 29.4477 30.5523 29 30 29H18ZM20 21C20 23.2091 18.8807 25 17.5 25C16.1193 25 15 23.2091 15 21C15 18.7909 16.1193 17 17.5 17C18.8807 17 20 18.7909 20 21ZM33 21C33 23.2091 31.8807 25 30.5 25C29.1193 25 28 23.2091 28 21C28 18.7909 29.1193 17 30.5 17C31.8807 17 33 18.7909 33 21Z" fill="#333333"/>
</g>
<defs>
<clipPath id="clip0_3307_2057">
<rect width="48" height="48" fill="white"/>
</clipPath>
</defs>
</svg>
