<svg width="48" height="48" viewBox="0 0 48 48" fill="none" xmlns="http://www.w3.org/2000/svg">
<g clip-path="url(#clip0_2038_5219)">
<path fill-rule="evenodd" clip-rule="evenodd" d="M48 0.0393122L5.54323e-06 0L-0.0393066 48L47.9607 48.0393L48 0.0393122ZM12.9935 7.97085C12.9944 6.86628 13.8905 5.97158 14.9951 5.97249L32.9951 5.98723C34.0997 5.98814 34.9944 6.8843 34.9935 7.98887L34.9673 39.9889C34.9664 41.0934 34.0702 41.9881 32.9656 41.9872L14.9656 41.9725C13.8611 41.9716 12.9664 41.0754 12.9673 39.9708L12.9935 7.97085ZM24.0116 10C23.4593 9.99955 23.0112 10.4469 23.0108 10.9992L23.0075 14.9992C23.007 15.5515 23.4544 15.9995 24.0067 16C24.5589 16.0004 25.007 15.5531 25.0075 15.0008L25.0108 11.0008C25.0112 10.4485 24.5639 10.0005 24.0116 10ZM24.0026 21C23.4503 20.9995 23.0022 21.4469 23.0017 21.9992L22.9985 25.9992C22.998 26.5515 23.4454 26.9995 23.9977 27C24.5499 27.0004 24.998 26.5531 24.9985 26.0008L25.0017 22.0008C25.0022 21.4485 24.5549 21.0004 24.0026 21ZM22.9927 32.9992C22.9932 32.4469 23.4413 31.9995 23.9936 32C24.5458 32.0004 24.9932 32.4485 24.9927 33.0008L24.9895 37.0008C24.989 37.5531 24.5409 38.0004 23.9886 38C23.4364 37.9995 22.989 37.5515 22.9895 36.9992L22.9927 32.9992Z" fill="#333333"/>
</g>
<defs>
<clipPath id="clip0_2038_5219">
<rect width="48" height="48" fill="white"/>
</clipPath>
</defs>
</svg>
