<svg width="48" height="48" viewBox="0 0 48 48" fill="none" xmlns="http://www.w3.org/2000/svg">
<g clip-path="url(#clip0_7208_23405)">
<path fill-rule="evenodd" clip-rule="evenodd" d="M48 0H0V48H48V0ZM17 7C15.3431 7 14 8.34315 14 10V18C12.8954 18 12 18.8954 12 20H6V22H12V30H6V32H12C12 32.7571 12.4207 33.4159 13.041 33.7555C13.5255 34.0207 14 34.4477 14 35C14 35.5523 14.4477 36 15 36H19C19.5523 36 20 35.5523 20 35C20 34.4477 20.4745 34.0207 20.959 33.7555C21.2268 33.6089 21.4575 33.4027 21.6331 33.1549L25.8617 35.4845C29.8088 37.659 35.1378 37.3726 38.6678 34.4662C39.1682 34.0542 39.6832 33.5789 40.2218 33H40.5C41.8807 33 43 31.8807 43 30.5V29.5C43 29.1874 42.9426 28.8882 42.8378 28.6123C43.5364 28.169 44 27.3886 44 26.5V25.5C44 24.6114 43.5364 23.831 42.8378 23.3877C42.9426 23.1118 43 22.8126 43 22.5V21.5C43 20.2905 42.1411 19.2816 41 19.05V18.2394C41 16.6728 39.7946 15.3699 38.2326 15.2484L35.0388 15H34.3859C29.6569 15 24.9936 16.0769 20.7484 18.1447C20.5172 18.0514 20.2646 18 20 18V10C20 8.34315 18.6569 7 17 7ZM15.5 31C15.2239 31 15 30.7761 15 30.5V21.5C15 21.2239 15.2239 21 15.5 21H18.5C18.7761 21 19 21.2239 19 21.5V30.5C19 30.7761 18.7761 31 18.5 31H15.5ZM26.8268 33.7328L22 31.0736V20C22 19.9219 21.9955 19.8449 21.9868 19.7692C25.8616 17.9475 30.0949 17 34.3859 17H34.9612L38.0775 17.2424C38.5982 17.2829 39 17.7172 39 18.2394V19H37V21H40.5C40.7761 21 41 21.2239 41 21.5V22.5C41 22.7761 40.7761 23 40.5 23H37V25H41.5C41.7761 25 42 25.2239 42 25.5V26.5C42 26.7761 41.7761 27 41.5 27H37V29H40.5C40.7761 29 41 29.2239 41 29.5V30.5C41 30.7761 40.7761 31 40.5 31H32.0526V33H37.3005C34.4504 35.2724 30.0783 35.5241 26.8268 33.7328ZM17 11.5554C17.5523 11.5554 18 11.1077 18 10.5554C18 10.0031 17.5523 9.55542 17 9.55542C16.4477 9.55542 16 10.0031 16 10.5554C16 11.1077 16.4477 11.5554 17 11.5554ZM18 14C18 14.5523 17.5523 15 17 15C16.4477 15 16 14.5523 16 14C16 13.4477 16.4477 13 17 13C17.5523 13 18 13.4477 18 14Z" fill="#333333"/>
</g>
<defs>
<clipPath id="clip0_7208_23405">
<rect width="48" height="48" fill="white"/>
</clipPath>
</defs>
</svg>
