<svg width="48" height="48" viewBox="0 0 48 48" fill="none" xmlns="http://www.w3.org/2000/svg">
<g clip-path="url(#clip0_7208_23408)">
<path fill-rule="evenodd" clip-rule="evenodd" d="M48 0H0V48H48V0ZM7.99994 14.7873C7.99994 15.1887 8.15939 15.5736 8.44321 15.8574L17.2322 24.6464C18.0988 25.5131 19.2743 25.9999 20.4999 25.9999C21.1952 25.9999 21.8619 26.2761 22.3535 26.7677L37.7928 42.2071C39.0118 43.426 40.9881 43.426 42.2071 42.2071C43.426 40.9881 43.426 39.0118 42.2071 37.7928L26.7677 22.3535C26.2761 21.8619 25.9999 21.1952 25.9999 20.4999C25.9999 19.2743 25.5131 18.0988 24.6464 17.2322L15.8574 8.44321C15.5736 8.15939 15.1887 7.99994 14.7873 7.99994H13.2426C12.7122 7.99994 12.2034 7.78923 11.8284 7.41416L10.1213 5.70705C8.94969 4.53548 7.05019 4.53548 5.87862 5.70705L5.70705 5.87862C4.53548 7.05019 4.53547 8.94969 5.70705 10.1213L7.41416 11.8284C7.78923 12.2034 7.99994 12.7121 7.99994 13.2426V14.7873ZM9 8C9 8.55229 8.55229 9 8 9C7.44772 9 7 8.55229 7 8C7 7.44772 7.44772 7 8 7C8.55229 7 9 7.44772 9 8ZM27 26C27 26.5523 26.5523 27 26 27C25.4477 27 25 26.5523 25 26C25 25.4477 25.4477 25 26 25C26.5523 25 27 25.4477 27 26ZM29 30C29.5523 30 30 29.5523 30 29C30 28.4477 29.5523 28 29 28C28.4477 28 28 28.4477 28 29C28 29.5523 28.4477 30 29 30ZM33 32C33 32.5523 32.5523 33 32 33C31.4477 33 31 32.5523 31 32C31 31.4477 31.4477 31 32 31C32.5523 31 33 31.4477 33 32ZM35 36C35.5523 36 36 35.5523 36 35C36 34.4477 35.5523 34 35 34C34.4477 34 34 34.4477 34 35C34 35.5523 34.4477 36 35 36ZM39 38C39 38.5523 38.5523 39 38 39C37.4477 39 37 38.5523 37 38C37 37.4477 37.4477 37 38 37C38.5523 37 39 37.4477 39 38ZM11.7071 13.2929L13.2929 11.7071C13.6834 11.3166 14.3166 11.3166 14.7071 11.7071L22.2929 19.2929C22.6834 19.6834 22.6834 20.3166 22.2929 20.7071L20.7071 22.2929C20.3166 22.6834 19.6834 22.6834 19.2929 22.2929L11.7071 14.7071C11.3166 14.3166 11.3166 13.6834 11.7071 13.2929Z" fill="#333333"/>
</g>
<defs>
<clipPath id="clip0_7208_23408">
<rect width="48" height="48" fill="white"/>
</clipPath>
</defs>
</svg>
