<svg width="48" height="48" viewBox="0 0 48 48" fill="none" xmlns="http://www.w3.org/2000/svg">
<g clip-path="url(#clip0_8230_1340)">
<path fill-rule="evenodd" clip-rule="evenodd" d="M48 0H0V48H48V0ZM8.999 6C8.999 6 5.9007 22.06 6.00245 25.0693C6.14682 29.3389 9.99957 42 9.99957 42H38.0004C38.0004 42 41.8532 29.3389 41.9975 25.0693C42.0993 22.06 39.001 6 39.001 6H8.999Z" fill="currentColor"/>
<path fill-rule="evenodd" clip-rule="evenodd" d="M23 23V33C23 33.5523 23.4477 34 24 34C24.5523 34 25 33.5523 25 33V23H27V33C27 34.6569 25.6569 36 24 36C22.3431 36 21 34.6569 21 33V23H23Z" fill="currentColor"/>
<path fill-rule="evenodd" clip-rule="evenodd" d="M20 25V26C20 26.5523 20.4477 27 21 27V29C19.3431 29 18 27.6569 18 26V25H20Z" fill="currentColor"/>
<path fill-rule="evenodd" clip-rule="evenodd" d="M28 26V25H30V26C30 27.6569 28.6569 29 27 29V27C27.5523 27 28 26.5523 28 26Z" fill="currentColor"/>
<path fill-rule="evenodd" clip-rule="evenodd" d="M23 42V35H25V42H23Z" fill="currentColor"/>
</g>
<defs>
<clipPath id="clip0_8230_1340">
<rect width="48" height="48" fill="none"/>
</clipPath>
</defs>
</svg>
