<svg width="48" height="48" viewBox="0 0 48 48" fill="none" xmlns="http://www.w3.org/2000/svg">
<g clip-path="url(#clip0_8230_1379)">
<path fill-rule="evenodd" clip-rule="evenodd" d="M0 0H48V48H0V0ZM26.4468 21.0661H32.9573C32.8725 21.3846 32.7663 21.8133 32.6575 22.3284H29.0892C27.6949 22.3284 26.5647 23.4587 26.5647 24.8529C26.5647 26.2471 27.6949 27.3774 29.0892 27.3774H32.0873C32.0839 27.7918 32.0924 28.2136 32.1154 28.6395H30.3515C28.9572 28.6395 27.827 29.7698 27.827 31.164C27.827 32.5583 28.9572 33.6885 30.3515 33.6885H33.2376C33.429 34.121 33.6488 34.5431 33.9002 34.9508H32.8762C31.482 34.9508 30.3517 36.081 30.3517 37.4753C30.3517 38.8695 31.482 39.9998 32.8762 39.9998H44L44.0131 12.6556L35.583 9.1894C34.5164 8.75083 33.2882 9.09283 32.6017 10.0195C31.6055 11.3644 32.174 13.2889 33.7411 13.8765L38.6119 15.7031C38.7954 15.7719 38.9408 15.8825 39.0471 16.0172H26.7743C26.9219 16.653 27 17.3162 27 18C27 19.0826 26.8042 20.1138 26.4468 21.0661ZM24.379 20.8204C23.24 23.2818 20.6557 25 17.65 25H5.575C4.70515 25 4 24.3284 4 23.5V21.4263C4 20.9876 4.14423 20.5611 4.41046 20.2125L4.63954 19.9125C4.90577 19.5639 5.05 19.1374 5.05 18.6987V17.3013C5.05 16.8626 4.90577 16.4361 4.63954 16.0875L4.41046 15.7875C4.14423 15.4389 4 15.0124 4 14.5737V12.5C4 11.6716 4.70515 11 5.575 11H17.65C21.0275 11 23.8729 13.1696 24.7335 16.1253C24.9072 16.722 25 17.3507 25 18C25 19.0034 24.7783 19.9576 24.379 20.8204ZM20 20C21.1046 20 22 19.1046 22 18C22 16.8954 21.1046 16 20 16C18.8954 16 18 16.8954 18 18C18 19.1046 18.8954 20 20 20ZM14 16H10V20H14V16ZM8 14V22H16V14H8Z" fill="currentColor"/>
</g>
<defs>
<clipPath id="clip0_8230_1379">
<rect width="48" height="48" fill="none"/>
</clipPath>
</defs>
</svg>
