<svg width="48" height="48" viewBox="0 0 48 48" fill="none" xmlns="http://www.w3.org/2000/svg">
<g clip-path="url(#clip0_8230_1374)">
<path fill-rule="evenodd" clip-rule="evenodd" d="M48 0H0V48H48V0ZM4 13C4 11.3431 5.34315 10 7 10H30C37.732 10 44 16.268 44 24C44 31.732 37.732 38 30 38H7C5.34315 38 4 36.6569 4 35V30.1504C4 29.7277 4.13392 29.3159 4.38253 28.974L5.61747 27.276C5.86608 26.9341 6 26.5223 6 26.0996V21.9004C6 21.4777 5.86608 21.0659 5.61747 20.724L4.38253 19.026C4.13392 18.6841 4 18.2723 4 17.8496V13ZM30 16H12C11.4477 16 11 16.4477 11 17V31C11 31.5523 11.4477 32 12 32H30C34.4183 32 38 28.4183 38 24C38 19.5817 34.4183 16 30 16ZM12 14C10.3431 14 9 15.3431 9 17V31C9 32.6569 10.3431 34 12 34H30C35.5228 34 40 29.5228 40 24C40 18.4772 35.5228 14 30 14H12ZM33 27C34.6569 27 36 25.6569 36 24C36 22.3431 34.6569 21 33 21C31.3431 21 30 22.3431 30 24C30 25.6569 31.3431 27 33 27ZM13 20C13 18.8954 13.8954 18 15 18H26C27.1046 18 28 18.8954 28 20V28C28 29.1046 27.1046 30 26 30H15C13.8954 30 13 29.1046 13 28V20ZM14 23C14 20.7909 15.7909 19 18 19C20.2091 19 22 20.7909 22 23C22 25.2091 20.2091 27 18 27C15.7909 27 14 25.2091 14 23ZM18 21C16.8954 21 16 21.8954 16 23C16 24.1046 16.8954 25 18 25C19.1046 25 20 24.1046 20 23C20 21.8954 19.1046 21 18 21ZM25.25 25C25.25 24.9617 25.2342 24.9085 25.1722 24.8535C25.1089 24.7971 25.006 24.75 24.875 24.75H24.125C23.9088 24.75 23.7899 24.8708 23.7609 24.9438C23.6079 25.3287 23.1718 25.5166 22.7869 25.3636C22.402 25.2105 22.214 24.7744 22.3671 24.3895C22.647 23.6857 23.3615 23.25 24.125 23.25H24.875C25.825 23.25 26.75 23.9529 26.75 25C26.75 25.5462 26.4841 26.0147 26.1044 26.3223L25.0243 27.25H26C26.4142 27.25 26.75 27.5858 26.75 28C26.75 28.4142 26.4142 28.75 26 28.75H23C22.6863 28.75 22.4057 28.5547 22.2967 28.2606C22.1877 27.9664 22.2733 27.6355 22.5113 27.4311L25.1363 25.1764C25.1435 25.1703 25.1507 25.1643 25.1581 25.1585C25.232 25.0996 25.25 25.0402 25.25 25Z" fill="currentColor"/>
</g>
<defs>
<clipPath id="clip0_8230_1374">
<rect width="48" height="48" fill="none"/>
</clipPath>
</defs>
</svg>
