<svg width="48" height="48" viewBox="0 0 48 48" fill="none" xmlns="http://www.w3.org/2000/svg">
<g clip-path="url(#clip0_2038_6438)">
<path fill-rule="evenodd" clip-rule="evenodd" d="M48 5.54416e-06L0 -0.0393066L-0.0393122 47.9607L47.9607 48L48 5.54416e-06ZM23.9918 9.98035C25.0964 9.98125 25.9911 10.8774 25.9902 11.982L25.9836 19.982L25.9803 23.982L21.9803 23.9787L21.9836 19.9787L21.9902 11.9787C21.9911 10.8741 22.8872 9.97944 23.9918 9.98035ZM27.9902 11.9836L27.9836 19.9836L33.9836 19.9885L33.9844 18.9885L31.9844 18.9869L29.9844 18.9853L29.9861 16.9853L29.9885 13.9853C29.9894 12.8807 30.8856 11.986 31.9902 11.9869L38.9902 11.9926C40.0947 11.9935 40.9894 12.8897 40.9885 13.9943L40.9861 16.9943L40.9844 18.9943L38.9844 18.9926L36.9844 18.991L36.9836 19.991L40.9836 19.9943C42.0882 19.9952 42.9829 20.8913 42.982 21.9959L42.9795 24.9959L43.9795 24.9967L43.9779 26.9967L42.9779 26.9959L28.9779 26.9844L28.9771 27.9844L28.9754 29.9844L26.9754 29.9828L20.9754 29.9779L18.9754 29.9762L18.9771 27.9762L18.9779 26.9762L4.97789 26.9648L3.97789 26.964L3.97952 24.964L4.97952 24.9648L4.98198 21.9648C4.98288 20.8602 5.87905 19.9655 6.98362 19.9664L10.9836 19.9697L10.9844 18.9697L8.98444 18.9681L6.98444 18.9664L6.98607 16.9664L6.98853 13.9664C6.98944 12.8619 7.8856 11.9672 8.99017 11.9681L15.9902 11.9738C17.0947 11.9747 17.9894 12.8709 17.9885 13.9754L17.9861 16.9754L17.9844 18.9754L15.9844 18.9738L13.9844 18.9722L13.9836 19.9722L19.9836 19.9771L19.9902 11.9771C19.992 9.76793 21.7843 7.97854 23.9934 7.98035C26.2026 7.98216 27.992 9.77448 27.9902 11.9836ZM26.9787 25.9828L26.9779 26.9828L26.9771 27.9828L20.9771 27.9779L20.9779 26.9779L20.9787 25.9779L21.9787 25.9787L25.9787 25.982L26.9787 25.9828ZM23.9656 41.9803C26.1747 41.9821 27.9671 40.1928 27.9689 37.9836C27.9717 34.4836 23.9746 30.9803 23.9746 30.9803C23.9746 30.9803 19.9717 34.4771 19.9689 37.9771C19.9671 40.1862 21.7565 41.9785 23.9656 41.9803ZM11.9861 16.9705L12.9861 16.9713L12.9877 14.9713L14.9877 14.973L14.9861 16.973L15.9861 16.9738L15.9885 13.9738L8.98853 13.9681L8.98607 16.9681L9.98607 16.9689L9.98771 14.9689L11.9877 14.9705L11.9861 16.9705ZM35.9861 16.9902L34.9861 16.9894L34.9877 14.9894L32.9877 14.9877L32.9861 16.9877L31.9861 16.9869L31.9885 13.9869L38.9885 13.9926L38.9861 16.9926L37.9861 16.9918L37.9877 14.9918L35.9877 14.9902L35.9861 16.9902Z" fill="#333333"/>
</g>
<defs>
<clipPath id="clip0_2038_6438">
<rect width="48" height="48" fill="white"/>
</clipPath>
</defs>
</svg>
