<svg width="48" height="48" viewBox="0 0 48 48" fill="none" xmlns="http://www.w3.org/2000/svg">
<g clip-path="url(#clip0_7208_23411)">
<path fill-rule="evenodd" clip-rule="evenodd" d="M48 0H0V48H48V0ZM6 9.5C6 7.84315 7.34315 6.5 9 6.5H39C40.6569 6.5 42 7.84315 42 9.5V39.5C42 41.1569 40.6569 42.5 39 42.5H9C7.34315 42.5 6 41.1569 6 39.5V9.5ZM13 11.5H11V13.5C11 14.0523 10.5523 14.5 10 14.5C9.44772 14.5 9 14.0523 9 13.5V11C9 10.1716 9.67157 9.5 10.5 9.5H13C13.5523 9.5 14 9.94771 14 10.5C14 11.0523 13.5523 11.5 13 11.5ZM37 11.5V13.5C37 14.0523 37.4477 14.5 38 14.5C38.5523 14.5 39 14.0523 39 13.5V11C39 10.1716 38.3284 9.5 37.5 9.5H35C34.4477 9.5 34 9.94771 34 10.5C34 11.0523 34.4477 11.5 35 11.5H37ZM10.3022 28.941C9.89853 29.9921 10.4407 31.1737 11.5189 31.498C15.482 32.6898 19.6695 33.3319 24 33.3319C28.3304 33.3319 32.5181 32.6898 36.4811 31.498C37.5594 31.1737 38.1015 29.9921 37.6979 28.941L32.2113 14.654C31.8398 13.6866 30.7921 13.1712 29.7788 13.3888C27.9145 13.7891 25.9814 14 24 14C22.0186 14 20.0856 13.7891 18.2212 13.3888C17.208 13.1712 16.1603 13.6866 15.7888 14.6541L10.3022 28.941ZM30.7837 18.8095C29.7132 18.293 28.4092 18.4328 27.2697 18.9282C26.5024 19.2618 25.9549 19.6981 25.5973 20.2389C25.2399 20.7796 25.059 21.4448 25.059 22.2593C25.059 22.5679 25.0964 22.8677 25.1668 23.1549C25.221 23.3758 25.0783 23.6083 24.8394 23.6416C24.6416 23.6692 24.4526 23.5483 24.3959 23.3558L23.494 20.2929C23.1551 19.4983 22.2143 19.1091 21.3825 19.4372C20.5496 19.7656 20.1565 20.6825 20.4894 21.4816L20.4936 21.4915L20.7254 22.2182C20.8575 22.6462 21.0182 23.1804 21.1777 23.712L21.7762 25.6814C21.8193 25.8233 21.784 25.9774 21.6834 26.0864C21.4851 26.3011 21.133 26.2513 21.0023 25.9895C20.8048 25.5936 20.4008 24.7867 20.2667 24.5396C20.1541 24.3319 20.0478 24.1414 19.9591 23.9935C19.9168 23.923 19.8636 23.8372 19.8066 23.7566C19.78 23.719 19.7318 23.6526 19.6678 23.5805C19.636 23.5447 19.5807 23.485 19.5051 23.4198C19.4482 23.3707 19.2838 23.2329 19.0311 23.1329C18.7269 23.0124 18.4622 23.0115 18.3646 23.0132C18.2389 23.0154 18.1355 23.0304 18.0727 23.0412C17.9461 23.063 17.8348 23.0945 17.7631 23.1162C17.6115 23.1621 17.447 23.2233 17.2983 23.2817C16.9921 23.4019 16.6142 23.5651 16.2486 23.7267C15.9257 23.8693 15.6246 24.0047 15.3645 24.1217L15.3509 24.1278C14.9763 24.2963 14.6796 24.4298 14.5363 24.4855C13.7018 24.81 13.3041 25.7251 13.6329 26.5257C13.9633 27.3299 14.9074 27.7291 15.7451 27.4034C15.9627 27.3188 16.428 27.11 16.915 26.8912C17.1027 26.807 17.2924 26.7218 17.4697 26.643L17.6844 26.5475L17.7929 26.7559C17.9137 26.9878 18.0426 27.2378 18.1753 27.497C19.193 29.4849 21.2052 30.8181 23.3686 30.5054L23.3721 30.5049C25.1723 30.2703 26.1624 29.0568 27.0017 27.9262L28.3854 26.0621L28.5296 26.0795C28.691 26.0989 28.8556 26.1089 29.0227 26.1089C31.2183 26.1089 32.9863 24.379 32.9863 22.2593C32.9863 20.7507 32.0922 19.4408 30.7837 18.8095ZM37 37.5V35.5C37 34.9477 37.4477 34.5 38 34.5C38.5523 34.5 39 34.9477 39 35.5V38C39 38.8284 38.3284 39.5 37.5 39.5H35C34.4477 39.5 34 39.0523 34 38.5C34 37.9477 34.4477 37.5 35 37.5H37ZM13 37.5H11V35.5C11 34.9477 10.5523 34.5 10 34.5C9.44772 34.5 9 34.9477 9 35.5V38C9 38.8284 9.67157 39.5 10.5 39.5H13C13.5523 39.5 14 39.0523 14 38.5C14 37.9477 13.5523 37.5 13 37.5Z" fill="#333333"/>
</g>
<defs>
<clipPath id="clip0_7208_23411">
<rect width="48" height="48" fill="white"/>
</clipPath>
</defs>
</svg>
