<svg width="48" height="48" viewBox="0 0 48 48" fill="none" xmlns="http://www.w3.org/2000/svg">
<g clip-path="url(#clip0_8230_1364)">
<path fill-rule="evenodd" clip-rule="evenodd" d="M0 0H48V48H0V0ZM43.9931 17.8832C44.0577 18.4317 43.6653 18.9286 43.1168 18.9932C34.6047 19.9946 28.2063 20.9673 22.8836 27.6245C21.4833 29.3759 20.4191 30.6576 19.5377 31.5833C18.6581 32.507 17.9056 33.1363 17.1164 33.5249C16.3019 33.9259 15.529 34.0311 14.6928 34.0477C14.2857 34.0558 13.8457 34.0429 13.3802 34.0292L13.3774 34.0292L13.3663 34.0288C12.8959 34.015 12.3827 34 11.7949 34C8.89805 34 6.93756 32.2066 5.76148 30.5878C5.16675 29.7691 4.74228 28.9569 4.46668 28.3523C4.32825 28.0486 4.22576 27.7937 4.1569 27.6118C4.12244 27.5208 4.0963 27.4477 4.07822 27.3957C4.06917 27.3697 4.06213 27.3489 4.05706 27.3337L4.05093 27.3151L4.04896 27.3091L4.04825 27.3069C4.04812 27.3065 4.04772 27.3052 5 27L4.04772 27.3052C3.95023 27.0011 4.0039 26.6686 4.19216 26.4106C4.38041 26.1526 4.6806 26 5 26H21.6274C27.4528 18.9832 34.5419 17.9882 42.8832 17.0068C43.4317 16.9423 43.9286 17.3347 43.9931 17.8832ZM5 22H7V24H5V22ZM15 22H13V24H15V22ZM10 21.5859L11.4142 23.0002L10 24.4144L8.58579 23.0002L10 21.5859ZM19.4142 23.0002L18 21.5859L16.5858 23.0002L18 24.4144L19.4142 23.0002ZM11 18H13V20H11V18ZM9.41421 19.0002L8 17.5859L6.58579 19.0002L8 20.4144L9.41421 19.0002ZM12 13.5859L13.4142 15.0002L12 16.4144L10.5858 15.0002L12 13.5859ZM17.4142 19.0002L16 17.5859L14.5858 19.0002L16 20.4144L17.4142 19.0002Z" fill="currentColor"/>
</g>
<defs>
<clipPath id="clip0_8230_1364">
<rect width="48" height="48" fill="none"/>
</clipPath>
</defs>
</svg>
