<svg width="48" height="48" viewBox="0 0 48 48" fill="none" xmlns="http://www.w3.org/2000/svg">
<g clip-path="url(#clip0_8230_1373)">
<path fill-rule="evenodd" clip-rule="evenodd" d="M0 0H48V48H0V0ZM34.4585 10.048C34.7968 9.93924 35.1674 10.0181 35.432 10.2552L43.6673 17.6336C43.9355 17.8739 44.0538 18.2398 43.977 18.5916L41.6241 29.3753C41.5443 29.7408 41.2673 30.0312 40.9059 30.1281L30.3177 32.9659C30.2237 32.9911 30.1279 33.0021 30.0332 32.9997C29.9494 33.0024 29.8639 32.9946 29.7784 32.9751C29.4886 32.9093 29.257 32.7237 29.124 32.4824L24.7975 28.2117C24.4044 27.8237 24.4003 27.1906 24.7883 26.7975C25.1763 26.4044 25.8094 26.4003 26.2025 26.7883L29.434 29.9781L31.3365 21.6072L24.7103 15.9893L23.9504 18.3111C23.7786 18.8359 23.2138 19.1222 22.6889 18.9504C22.1641 18.7786 21.8778 18.2138 22.0496 17.6889L23.2261 14.0944C23.3257 13.7898 23.5653 13.5515 23.8703 13.4534L34.4585 10.048ZM31.3388 30.6217L33.3642 21.7099L39.7631 19.9648C40.2959 19.8195 40.6101 19.2697 40.4648 18.7369C40.3195 18.2041 39.7697 17.8899 39.2369 18.0352L32.4116 19.8966L26.3495 14.757L34.5247 12.1276L41.8988 18.7344L39.7999 28.3539L31.3388 30.6217ZM11.707 15.0384C11.3658 14.941 10.9987 15.0317 10.742 15.2766L4.30959 21.4155C4.04453 21.6684 3.93904 22.0461 4.03464 22.3998L4.05131 22.4615C4.04599 22.4775 4.04104 22.4937 4.03648 22.5101C3.93038 22.8921 4.06096 23.2839 4.3399 23.5293L6.33193 30.8998C6.42343 31.2383 6.68557 31.5042 7.02277 31.6005L14.2524 33.6645C14.4919 33.9334 14.869 34.0635 15.2425 33.9701C15.2564 33.9667 15.2701 33.9629 15.2837 33.9589L15.293 33.9616C15.6205 34.0551 15.9731 33.9755 16.2286 33.7504L22.661 28.0837C22.9431 27.8352 23.062 27.4495 22.9687 27.0853L20.6715 18.1131C20.5833 17.7688 20.319 17.4971 19.9772 17.3995L11.707 15.0384ZM15.6741 31.5734L20.8793 26.9879L18.8763 19.1651L11.7086 17.1188L6.44569 22.1415L12.7055 23.8803L16.2929 20.2929C16.6834 19.9024 17.3166 19.9024 17.7071 20.2929C18.0976 20.6834 18.0976 21.3166 17.7071 21.7071L14.1075 25.3067L15.6741 31.5734ZM13.5664 31.3887L12.1711 25.8076L6.60992 24.2628L8.11522 29.8324L13.5664 31.3887Z" fill="currentColor"/>
</g>
<defs>
<clipPath id="clip0_8230_1373">
<rect width="48" height="48" fill="none"/>
</clipPath>
</defs>
</svg>
