<svg width="48" height="48" viewBox="0 0 48 48" fill="none" xmlns="http://www.w3.org/2000/svg">
<g clip-path="url(#clip0_8230_1375)">
<path fill-rule="evenodd" clip-rule="evenodd" d="M48 0H0V48H48V0ZM41.9999 25.8515C42.0078 20.1062 40.4209 13.8479 37.2949 6H10.705C7.57899 13.8479 5.99214 20.1062 6.00003 25.8515C6.00774 31.4661 7.53757 36.5114 10.5044 42.0001H37.4956C40.4623 36.5114 41.9922 31.4661 41.9999 25.8515Z" fill="currentColor"/>
<path d="M23.1433 31.5464V42.0001H24.8575V31.5462L31.8795 24.1732L30.6673 22.9004L24.0003 29.9007L17.3333 22.9004L16.1211 24.1732L23.1433 31.5464Z" fill="currentColor"/>
<path d="M23 26V29C23 29.5523 23.4477 30 24 30C24.5523 30 25 29.5523 25 29V26C25 25.4477 24.5522 25 23.9999 25C23.4477 25 23 25.4477 23 26Z" fill="currentColor"/>
</g>
<defs>
<clipPath id="clip0_8230_1375">
<rect width="48" height="48" fill="none"/>
</clipPath>
</defs>
</svg>
