<svg width="48" height="48" viewBox="0 0 48 48" fill="none" xmlns="http://www.w3.org/2000/svg">
<g clip-path="url(#clip0_7208_23390)">
<path fill-rule="evenodd" clip-rule="evenodd" d="M48 0H0V48H48V0ZM20.931 4H31.5403C31.6178 4.15853 31.6991 4.3668 31.7835 4.58303C31.8824 4.83646 31.9857 5.10102 32.0921 5.30896C33.9519 8.9465 36.7682 14.4547 34.4601 22.6628C32.9826 27.9175 31.7814 33.9627 31.9417 34.8209C34.1339 36.3661 34.5994 39.8169 33.9886 40.6949C33.9112 40.8062 33.8313 40.9332 33.7453 41.0698C33.1527 42.0111 32.2576 43.4332 29.699 43.6793C28.673 43.7779 28.0635 43.5431 27.3763 43.2784C26.1006 42.7869 24.5569 42.1922 19.5834 43.4356C15.7643 44.3904 12.6882 44.1737 11.0009 42.4788C9.31357 40.7838 10.072 39.6092 11.0011 38.6525C11.6074 38.0283 12.4288 38.2187 13.3251 38.4264C13.8025 38.5371 14.3012 38.6526 14.7999 38.6526C16.2348 38.6526 23.888 35.3044 23.888 35.3044L19.9812 10.5414L20.931 4ZM25.9142 8.93993C25.5461 8.56099 24.9405 8.55222 24.5615 8.92034C24.1826 9.28847 24.1738 9.89409 24.5419 10.273C24.9786 10.7226 25.1173 11.0436 25.1635 11.2617C25.2106 11.4841 25.187 11.7135 25.0961 12.0451C25.0933 12.0554 25.0901 12.0665 25.0866 12.0783C25.0742 12.1202 25.0578 12.1714 25.039 12.23L25.0386 12.2311C24.9242 12.5878 24.7177 13.2315 24.731 13.9087C24.7491 14.8296 25.129 15.7985 26.118 16.7921C26.4907 17.1666 27.0964 17.168 27.4709 16.7953C27.8453 16.4225 27.8467 15.8169 27.474 15.4424C26.7759 14.7411 26.6508 14.2242 26.6439 13.8712C26.6374 13.5433 26.7133 13.3004 26.8156 12.9727C26.8426 12.8862 26.8714 12.7938 26.9011 12.6924C27.2138 12.2403 28.0822 11.4709 29.3767 11.6588C29.8995 11.7348 30.3849 11.3725 30.4608 10.8496C30.5367 10.3268 30.1744 9.84142 29.6516 9.7655C28.5192 9.60107 27.5752 9.85662 26.841 10.2624C26.6467 9.8162 26.3407 9.37897 25.9142 8.93993ZM30.264 19.9678C29.757 19.8192 29.2255 20.1096 29.0768 20.6166C28.9943 20.8977 28.8575 21.0352 28.7337 21.1209C28.6095 21.2068 28.4889 21.2504 28.3422 21.2988C28.2921 21.2811 28.2124 21.2438 28.1085 21.175C27.8646 21.0134 27.5989 20.7527 27.4048 20.4687C27.1067 20.0325 26.5114 19.9206 26.0753 20.2187C25.6391 20.5168 25.5272 21.1121 25.8253 21.5483C26.0184 21.8308 26.2522 22.1012 26.5074 22.3384C25.9851 22.8923 25.6025 23.6816 25.6399 24.7116C25.6591 25.2396 26.1026 25.6521 26.6306 25.6329C27.1585 25.6138 27.571 25.1702 27.5518 24.6423C27.5335 24.1352 27.721 23.8169 27.9556 23.5946C28.1824 23.3797 28.4619 23.2514 28.6565 23.1956C28.7206 23.1836 28.7855 23.1672 28.8507 23.1456L28.8781 23.1368L28.9013 23.1294C29.273 23.0112 30.4809 22.6273 30.9127 21.155C31.0614 20.648 30.7709 20.1165 30.264 19.9678Z" fill="#333333"/>
</g>
<defs>
<clipPath id="clip0_7208_23390">
<rect width="48" height="48" fill="white"/>
</clipPath>
</defs>
</svg>
