<svg width="48" height="48" viewBox="0 0 48 48" fill="none" xmlns="http://www.w3.org/2000/svg">
<path fill-rule="evenodd" clip-rule="evenodd" d="M0 0H48V48H0V0ZM37.8935 32.6212C37.326 33.2231 36.7628 33.8204 36.2332 34.5811V36H28.8V34.5811C28.9335 33.4771 29.1674 31.4876 29.1878 30.9347C29.2164 30.1569 30.2605 28.7393 30.2605 28.7393L33.4651 24.6982C33.4651 24.6982 34.3723 23.7406 34.8914 22.6783C35.4105 21.616 36.5152 22.9535 36.662 23.9093C36.8088 24.8652 36.5295 25.3688 36.5295 25.3688L34.6984 29.0066C34.6984 29.0066 36.8213 26.1005 37.4803 24.9316C37.8141 24.3395 37.9075 23.0861 38.0118 21.685C38.1135 20.3204 38.2256 18.8157 38.5805 17.6458C39.2998 15.2748 41.3818 15.8685 41.7427 16.9277C42.1037 17.9869 42.022 24.9864 41.891 26.1534C41.7884 27.0673 41.2376 27.961 40.6161 28.9692C40.4441 29.2482 40.2663 29.5366 40.0915 29.8361C39.3955 31.0283 38.6407 31.8288 37.8935 32.6212ZM26 41C26 41.5523 26.4477 42 27 42H35C35.5523 42 36 41.5523 36 41V39C36 38.4477 35.5523 38 35 38H27C26.4477 38 26 38.4477 26 39V41ZM10.1087 32.6212C10.6762 33.2231 11.2394 33.8204 11.769 34.5811V36H19.2022V34.5811C19.0687 33.4771 18.8348 31.4876 18.8144 30.9347C18.7858 30.1569 17.7417 28.7393 17.7417 28.7393L14.5371 24.6982C14.5371 24.6982 13.6299 23.7406 13.1108 22.6783C12.5917 21.616 11.487 22.9535 11.3402 23.9093C11.1934 24.8652 11.4727 25.3688 11.4727 25.3688L13.3038 29.0066C13.3038 29.0066 11.1809 26.1005 10.5219 24.9316C10.1881 24.3395 10.0947 23.0861 9.99035 21.685C9.88869 20.3204 9.7766 18.8157 9.4217 17.6458C8.70243 15.2748 6.62043 15.8685 6.25946 16.9277C5.8985 17.9869 5.98024 24.9864 6.1112 26.1534C6.21376 27.0673 6.76461 27.961 7.38611 28.9692C7.55815 29.2483 7.73584 29.5366 7.91069 29.8361C8.6067 31.0283 9.3615 31.8288 10.1087 32.6212ZM22.0022 41C22.0022 41.5523 21.5545 42 21.0022 42H13.0022C12.4499 42 12.0022 41.5523 12.0022 41V39C12.0022 38.4477 12.4499 38 13.0022 38H21.0022C21.5545 38 22.0022 38.4477 22.0022 39V41ZM31.9701 17H29.9704C29.916 17.9136 29.7878 18.791 29.5959 19.6154H31.1704C31.578 18.8122 31.854 17.9309 31.9701 17ZM29.73 21.6154H28.9654C28.8176 21.9778 28.6558 22.3233 28.4814 22.6495C28.9321 22.3473 29.3504 22.0005 29.73 21.6154ZM26.7656 21.6154C26.6888 21.7635 26.6094 21.9058 26.5277 22.0421C26.0288 22.8735 25.5105 23.3868 25.032 23.6781V21.6154H26.7656ZM27.5333 19.6154H25.032V17H27.9664C27.9028 17.9389 27.7514 18.818 27.5333 19.6154ZM23.032 19.6154V17H20.0336C20.0972 17.9389 20.2486 18.818 20.4667 19.6154H23.032ZM23.032 21.6154H21.2344C21.3112 21.7635 21.3906 21.9058 21.4723 22.0421C21.9935 22.9107 22.5359 23.4321 23.032 23.7159V21.6154ZM18.4041 19.6154C18.2122 18.791 18.084 17.9136 18.0296 17H16.0939C16.21 17.9309 16.486 18.8122 16.8936 19.6154H18.4041ZM18.334 21.6154H19.0346C19.1722 21.9527 19.3218 22.2752 19.4825 22.5813C19.0698 22.2955 18.6853 21.9718 18.334 21.6154ZM27.9664 15H25.032V12.3846H27.5333C27.7514 13.182 27.9028 14.0611 27.9664 15ZM23.032 15V12.3846H20.4667C20.2486 13.182 20.0972 14.0611 20.0336 15H23.032ZM21.2344 10.3846H23.032V8.28413C22.5359 8.56788 21.9935 9.08932 21.4723 9.95792C21.3906 10.0942 21.3112 10.2365 21.2344 10.3846ZM25.032 8.32189V10.3846H26.7656C26.6888 10.2365 26.6094 10.0942 26.5277 9.95792C26.0288 9.1265 25.5105 8.61316 25.032 8.32189ZM31.1704 12.3846H29.5959C29.7878 13.209 29.916 14.0864 29.9704 15H31.9701C31.854 14.0691 31.578 13.1878 31.1704 12.3846ZM28.4814 9.35049C28.6558 9.67674 28.8176 10.0222 28.9654 10.3846H29.73C29.3504 9.9995 28.9321 9.65269 28.4814 9.35049ZM19.4825 9.4187C19.3218 9.72477 19.1722 10.0473 19.0346 10.3846H18.334C18.6853 10.0282 19.0698 9.70452 19.4825 9.4187ZM16.0939 15C16.21 14.0691 16.486 13.1878 16.8936 12.3846H18.4041C18.2122 13.209 18.084 14.0864 18.0296 15H16.0939ZM24.032 26C29.5548 26 34.032 21.5228 34.032 16C34.032 10.4772 29.5548 6 24.032 6L24.012 6.00002L24 6C23.984 6 23.968 6.0001 23.952 6.00031C18.466 6.04328 14.032 10.5038 14.032 16C14.032 21.4962 18.466 25.9567 23.952 25.9997L23.973 25.9999L24 26L24.012 26L24.032 26Z" fill="#333333"/>
</svg>
