<svg width="48" height="48" viewBox="0 0 48 48" fill="none" xmlns="http://www.w3.org/2000/svg">
<g clip-path="url(#clip0_3308_13076)">
<path fill-rule="evenodd" clip-rule="evenodd" d="M48 0H0V48H48V0ZM37 12C37 14.2091 35.2091 16 33 16C30.7909 16 29 14.2091 29 12C29 9.79086 30.7909 8 33 8C35.2091 8 37 9.79086 37 12ZM40.0692 34.3392C39.6151 33.1434 38.8865 31.1591 38.307 29.2709C40.0962 29.0537 41.5 26.9562 41.5 24.4006C41.5 21.7005 39.933 19.5117 38 19.5117H37.9874C37.9957 19.4518 38 19.3905 38 19.3283C38 18.5947 37.4053 18 36.6717 18H29.3283C28.5947 18 28 18.5947 28 19.3283C28 19.3905 28.0043 19.4518 28.0126 19.5117H28V19.5118C26.067 19.5118 24.5 21.7006 24.5 24.4007C24.5 26.9829 25.9332 29.0975 27.749 29.2772C27.1768 31.1642 26.4402 33.1071 25.9689 34.2972C25.7332 34.8923 26.0989 35.5615 26.7302 35.6673C31.6606 36.4934 34.786 36.5147 39.3241 35.6802C39.9372 35.5675 40.2906 34.9219 40.0692 34.3392ZM30.5 19.5001C30.5 21.2493 30.3666 22.6074 29.9625 23.5086C29.7715 23.9347 29.5377 24.2158 29.2624 24.3972C28.9883 24.5778 28.5958 24.7105 28 24.7105V26.7105C28.9042 26.7105 29.6992 26.5045 30.3626 26.0674C31.0247 25.6312 31.4785 25.0159 31.7875 24.3269C32.3834 22.9979 32.5 21.2508 32.5 19.5001H30.5ZM36.0375 23.5086C35.6334 22.6074 35.5 21.2492 35.5 19.5H33.5C33.5 21.2508 33.6166 22.9979 34.2125 24.3269C34.5215 25.0159 34.9752 25.6311 35.6374 26.0673C36.3008 26.5044 37.0958 26.7105 38 26.7105V24.7105C37.4042 24.7105 37.0117 24.5777 36.7376 24.3972C36.4623 24.2158 36.2285 23.9347 36.0375 23.5086ZM28.5 37.1515V38.4999C28.5 39.2521 29.0571 39.8879 29.8028 39.9868C30.5485 40.0857 31.2521 39.617 31.4482 38.8908L31.8435 37.4263C30.7614 37.3897 29.6624 37.2985 28.5 37.1515ZM35.1411 37.3695L35.5518 38.8908C35.7479 39.617 36.4515 40.0857 37.1972 39.9868C37.9429 39.8879 38.5 39.2521 38.5 38.4999V37C37.3214 37.1739 36.2165 37.2975 35.1411 37.3695ZM18.445 12C18.445 14.2091 16.6542 16 14.445 16C12.2359 16 10.445 14.2091 10.445 12C10.445 9.79086 12.2359 8 14.445 8C16.6542 8 18.445 9.79086 18.445 12ZM20 38C20 39.0563 19.1785 39.9305 18.1243 39.9961C17.07 40.0618 16.1465 39.2962 16.0154 38.2481L15.2345 32H14.7913L13.9835 38.2561C13.8485 39.3022 12.9243 40.0636 11.8717 39.9959C10.8191 39.9282 10 39.0547 10 38V32V31.1149V29.2984C8.0268 28.9974 6.5 26.94 6.5 24.4467C6.5 21.8782 8.12046 19.7722 10.1801 19.5726C10.0666 19.4104 10 19.213 10 19C10 18.4477 10.4477 18 11 18H19C19.5523 18 20 18.4477 20 19C20 19.2129 19.9335 19.4103 19.82 19.5725C21.8801 19.7714 23.5012 21.8777 23.5012 24.4467C23.5012 26.9405 21.9738 28.9982 20 29.2986V29.9998V32V38ZM12.1059 19.5571C12.1059 21.4677 11.9413 22.8165 11.5285 23.6689C11.3355 24.0676 11.1029 24.3245 10.828 24.4907C10.5491 24.6594 10.1511 24.7802 9.55611 24.7802V26.7802C10.4245 26.7802 11.2019 26.6019 11.863 26.2021C12.5281 25.7998 13.0001 25.219 13.3286 24.5406C13.959 23.2388 14.1059 21.4761 14.1059 19.5571H12.1059ZM18.2519 23.6689C17.8391 22.8165 17.6745 21.4677 17.6745 19.5571H15.6745C15.6745 21.4761 15.8214 23.2388 16.4518 24.5406C16.7803 25.219 17.2523 25.7998 17.9174 26.2021C18.5785 26.6019 19.3559 26.7802 20.2243 26.7802V24.7802C19.6293 24.7802 19.2313 24.6594 18.9524 24.4907C18.6776 24.3245 18.445 24.0676 18.2519 23.6689Z" fill="#333333"/>
</g>
<defs>
<clipPath id="clip0_3308_13076">
<rect width="48" height="48" fill="white"/>
</clipPath>
</defs>
</svg>
