<svg width="48" height="48" viewBox="0 0 48 48" fill="none" xmlns="http://www.w3.org/2000/svg">
<path d="M21.8838 15.7361C21.6589 15.5289 21.4785 15.279 21.3534 15.0013C21.2282 14.7236 21.161 14.4239 21.1555 14.12C21.1501 13.816 21.2067 13.5141 21.3218 13.2323C21.4369 12.9504 21.6083 12.6944 21.8257 12.4794C22.0431 12.2645 22.302 12.095 22.5871 11.9812C22.8721 11.8673 23.1774 11.8114 23.4848 11.8168C23.7922 11.8221 24.0953 11.8886 24.3761 12.0124C24.6569 12.1361 24.9097 12.3145 25.1193 12.5369C25.5236 12.966 25.7438 13.5335 25.7333 14.12C25.7228 14.7064 25.4826 15.2659 25.0632 15.6807C24.6437 16.0954 24.0779 16.333 23.4848 16.3433C22.8917 16.3536 22.3178 16.136 21.8838 15.7361ZM13.2473 4L15.4068 6.13535C13.2605 8.25787 12.0547 11.1365 12.0547 14.138C12.0547 17.1395 13.2605 20.0181 15.4068 22.1407L13.2473 24.276C11.9007 22.9447 10.8326 21.3642 10.1038 19.6247C9.37508 17.8852 9 16.0208 9 14.138C9 12.2552 9.37508 10.3908 10.1038 8.65127C10.8326 6.91178 11.9007 5.33127 13.2473 4ZM33.7527 4C35.0993 5.33127 36.1674 6.91178 36.8962 8.65127C37.6249 10.3908 38 12.2552 38 14.138C38 16.0208 37.6249 17.8852 36.8962 19.6247C36.1674 21.3642 35.0993 22.9447 33.7527 24.276L31.5932 22.1407C33.7395 20.0181 34.9453 17.1395 34.9453 14.138C34.9453 11.1365 33.7395 8.25787 31.5932 6.13535L33.7527 4ZM17.5648 8.26768L19.7228 10.4015C19.2267 10.892 18.8332 11.4743 18.5647 12.1151C18.2962 12.756 18.1581 13.4428 18.1581 14.1365C18.1581 14.8302 18.2962 15.517 18.5647 16.1579C18.8332 16.7987 19.2267 17.381 19.7228 17.8715L17.5648 20.0053C15.9907 18.4488 15.1064 16.3377 15.1064 14.1365C15.1064 11.9353 15.9907 9.82421 17.5648 8.26768ZM29.4352 8.26768C31.0093 9.82421 31.8936 11.9353 31.8936 14.1365C31.8936 16.3377 31.0093 18.4488 29.4352 20.0053L27.2772 17.8715C27.7733 17.381 28.1668 16.7987 28.4353 16.1579C28.7038 15.517 28.8419 14.8302 28.8419 14.1365C28.8419 13.4428 28.7038 12.756 28.4353 12.1151C28.1668 11.4743 27.7733 10.892 27.2772 10.4015L29.4352 8.26768Z" fill="#333333"/>
<path fill-rule="evenodd" clip-rule="evenodd" d="M35 27.5H13C12.1716 27.5 11.5 28.1716 11.5 29V41C11.5 41.8284 12.1716 42.5 13 42.5H35C35.8284 42.5 36.5 41.8284 36.5 41V29C36.5 28.1716 35.8284 27.5 35 27.5ZM13 26C11.3431 26 10 27.3431 10 29V41C10 42.6569 11.3431 44 13 44H35C36.6569 44 38 42.6569 38 41V29C38 27.3431 36.6569 26 35 26H13Z" fill="#333333"/>
<path d="M23.0205 40.0898H16.1982V38.7363L19.418 35.3047C19.86 34.8216 20.1859 34.4001 20.3955 34.04C20.6097 33.68 20.7168 33.3382 20.7168 33.0146C20.7168 32.5726 20.6051 32.2262 20.3818 31.9756C20.1585 31.7204 19.8395 31.5928 19.4248 31.5928C18.9782 31.5928 18.625 31.7477 18.3652 32.0576C18.11 32.363 17.9824 32.7663 17.9824 33.2676H16C16 32.6615 16.1436 32.1077 16.4307 31.6064C16.7223 31.1051 17.1325 30.7132 17.6611 30.4307C18.1898 30.1436 18.7891 30 19.459 30C20.4844 30 21.2796 30.2461 21.8447 30.7383C22.4144 31.2305 22.6992 31.9255 22.6992 32.8232C22.6992 33.3154 22.5716 33.8167 22.3164 34.3271C22.0612 34.8376 21.6237 35.4323 21.0039 36.1113L18.7412 38.4971H23.0205V40.0898Z" fill="#333333"/>
<path d="M32.3242 38.832C31.9551 39.2741 31.4333 39.6182 30.7588 39.8643C30.0843 40.1058 29.3369 40.2266 28.5166 40.2266C27.6553 40.2266 26.8988 40.0397 26.2471 39.666C25.5999 39.2878 25.0986 38.7409 24.7432 38.0254C24.3923 37.3099 24.2122 36.4691 24.2031 35.5029V34.8262C24.2031 33.8327 24.3695 32.9736 24.7021 32.249C25.0394 31.5199 25.5225 30.9639 26.1514 30.5811C26.7848 30.1937 27.5254 30 28.373 30C29.5534 30 30.4762 30.2826 31.1416 30.8477C31.807 31.4082 32.2012 32.2262 32.3242 33.3018H30.3281C30.237 32.7321 30.0342 32.3151 29.7197 32.0508C29.4098 31.7865 28.9814 31.6543 28.4346 31.6543C27.7373 31.6543 27.2064 31.9163 26.8418 32.4404C26.4772 32.9645 26.2926 33.7438 26.2881 34.7783V35.4141C26.2881 36.4577 26.4863 37.2461 26.8828 37.7793C27.2793 38.3125 27.8604 38.5791 28.626 38.5791C29.3962 38.5791 29.9453 38.415 30.2734 38.0869V36.3711H28.4072V34.8604H32.3242V38.832Z" fill="#333333"/>
</svg>
