<svg width="48" height="48" viewBox="0 0 48 48" fill="none" xmlns="http://www.w3.org/2000/svg">
<path fill-rule="evenodd" clip-rule="evenodd" d="M7.46447 35.4645C8.40215 34.5268 9.67392 34 11 34C12.3261 34 13.5979 34.5268 14.5355 35.4645C15.4732 36.4021 16 37.6739 16 39V40C16 40.5523 15.5523 41 15 41C14.4477 41 14 40.5523 14 40V39C14 38.2044 13.6839 37.4413 13.1213 36.8787C12.5587 36.3161 11.7957 36 11 36C10.2044 36 9.44129 36.3161 8.87868 36.8787C8.31607 37.4413 8 38.2043 8 39V41C8 41.5523 7.55228 42 7 42C6.44772 42 6 41.5523 6 41V39C6 37.6739 6.52678 36.4021 7.46447 35.4645Z" fill="#333333"/>
<path fill-rule="evenodd" clip-rule="evenodd" d="M15.1716 37.1716C15.9217 36.4214 16.9391 36 18 36C19.0609 36 20.0783 36.4214 20.8284 37.1716C21.5786 37.9217 22 38.9391 22 40C22 40.5523 21.5523 41 21 41C20.4477 41 20 40.5523 20 40C20 39.4696 19.7893 38.9609 19.4142 38.5858C19.0391 38.2107 18.5304 38 18 38C17.4696 38 16.9609 38.2107 16.5858 38.5858C16.2107 38.9609 16 39.4696 16 40C16 40.5523 15.5523 41 15 41C14.4477 41 14 40.5523 14 40C14 38.9391 14.4214 37.9217 15.1716 37.1716Z" fill="#333333"/>
<path fill-rule="evenodd" clip-rule="evenodd" d="M20.8787 37.8787C21.4413 37.3161 22.2044 37 23 37C23.7956 37 24.5587 37.3161 25.1213 37.8787C25.6839 38.4413 26 39.2044 26 40V41C26 41.5523 25.5523 42 25 42C24.4477 42 24 41.5523 24 41V40C24 39.7348 23.8946 39.4804 23.7071 39.2929C23.5196 39.1054 23.2652 39 23 39C22.7348 39 22.4804 39.1054 22.2929 39.2929C22.1054 39.4804 22 39.7348 22 40C22 40.5523 21.5523 41 21 41C20.4477 41 20 40.5523 20 40C20 39.2043 20.3161 38.4413 20.8787 37.8787Z" fill="#333333"/>
<path fill-rule="evenodd" clip-rule="evenodd" d="M24.5 41C24.5 40.4477 24.9477 40 25.5 40H34.5C35.0523 40 35.5 40.4477 35.5 41C35.5 41.5523 35.0523 42 34.5 42H25.5C24.9477 42 24.5 41.5523 24.5 41Z" fill="#333333"/>
<path fill-rule="evenodd" clip-rule="evenodd" d="M16.4672 8.57893C16.896 6.97853 18.541 6.02878 20.1414 6.45761L36.5622 10.8575C38.1626 11.2864 39.1123 12.9314 38.6835 14.5318L36.6129 22.2592L14.3966 16.3063L16.4672 8.57893ZM19.6238 8.38946C19.0903 8.24652 18.542 8.5631 18.399 9.09657L16.8461 14.8921L35.1987 19.8097L36.7516 14.0141C36.8946 13.4807 36.578 12.9323 36.0445 12.7894L19.6238 8.38946Z" fill="#333333"/>
<path fill-rule="evenodd" clip-rule="evenodd" d="M14.965 15.5197C15.6946 14.9987 16.6189 14.8313 17.4849 15.0634L34.9559 19.7447C35.9304 20.0058 36.7085 20.7393 37.0265 21.6968L37.7436 23.8555C37.9285 24.4122 37.9462 25.011 37.7943 25.5777L36.4742 30.5043C36.0454 32.1047 34.4004 33.0545 32.8 32.6256L12.5156 27.1904C10.9152 26.7616 9.96541 25.1166 10.3942 23.5162L11.6838 18.7034C11.8639 18.0314 12.272 17.4428 12.8382 17.0385L14.965 15.5197ZM16.9673 16.9952C16.6786 16.9179 16.3705 16.9737 16.1273 17.1473L14.0004 18.6661C13.8117 18.8009 13.6757 18.9971 13.6157 19.2211L12.3261 24.0338C12.1831 24.5673 12.4997 25.1156 13.0332 25.2586L33.3176 30.6938C33.8511 30.8367 34.3994 30.5201 34.5424 29.9867L35.8625 25.06C35.9131 24.8711 35.9072 24.6715 35.8456 24.486L35.1285 22.3273C35.0225 22.0081 34.7631 21.7636 34.4383 21.6766L16.9673 16.9952Z" fill="#333333"/>
<path d="M11.9526 26.0044L17.7482 27.5573L16.6164 31.7813C16.4734 32.3148 15.9251 32.6314 15.3916 32.4885L11.5279 31.4532C10.9944 31.3102 10.6779 30.7619 10.8208 30.2284L11.9526 26.0044Z" fill="#333333"/>
<path d="M28.5605 30.4546L34.356 32.0075L33.2242 36.2315C33.0813 36.765 32.5329 37.0816 31.9995 36.9387L28.1358 35.9034C27.6023 35.7604 27.2857 35.2121 27.4287 34.6786L28.5605 30.4546Z" fill="#333333"/>
<path d="M16.8368 22.6545C16.6224 23.4547 15.7999 23.9296 14.9997 23.7152C14.1995 23.5008 13.7246 22.6783 13.939 21.8781C14.1535 21.0779 14.976 20.603 15.7762 20.8174C16.5764 21.0318 17.0512 21.8543 16.8368 22.6545Z" fill="#333333"/>
<path d="M34.2235 27.3132C34.0091 28.1134 33.1866 28.5883 32.3864 28.3739C31.5862 28.1595 31.1113 27.337 31.3258 26.5368C31.5402 25.7366 32.3627 25.2617 33.1629 25.4761C33.9631 25.6905 34.438 26.513 34.2235 27.3132Z" fill="#333333"/>
<path fill-rule="evenodd" clip-rule="evenodd" d="M12.6982 9.12228C12.9841 8.05535 14.0808 7.42218 15.1477 7.70807L18.5285 8.61393L18.0108 10.5458L14.6301 9.63992L13.7242 13.0207L17.105 13.9265L16.5873 15.8584L13.2066 14.9525C12.1397 14.6666 11.5065 13.57 11.7924 12.503L12.6982 9.12228Z" fill="#333333"/>
<path fill-rule="evenodd" clip-rule="evenodd" d="M39.7441 16.369L36.3634 15.4631L36.881 13.5312L40.2618 14.4371C41.3287 14.723 41.9619 15.8197 41.676 16.8866L40.7701 20.2673C40.4842 21.3343 39.3876 21.9674 38.3206 21.6816L34.9399 20.7757L35.4575 18.8438L38.8383 19.7497L39.7441 16.369Z" fill="#333333"/>
<path fill-rule="evenodd" clip-rule="evenodd" d="M22.8085 29.3457C22.2751 29.2028 21.9585 28.6545 22.1014 28.121L22.8779 25.2232C23.0208 24.6897 23.5691 24.3732 24.1026 24.5161C24.6361 24.659 24.9527 25.2074 24.8097 25.7408L24.0333 28.6386C23.8903 29.1721 23.342 29.4887 22.8085 29.3457Z" fill="#333333"/>
<path fill-rule="evenodd" clip-rule="evenodd" d="M19.157 21.7233C19.2999 21.1898 19.8482 20.8732 20.3817 21.0161L29.075 23.3455C29.6085 23.4885 29.9251 24.0368 29.7821 24.5703L28.2292 30.3658C28.0863 30.8993 27.5379 31.2159 27.0045 31.0729L18.3111 28.7435C17.7777 28.6006 17.4611 28.0523 17.604 27.5188L19.157 21.7233ZM20.83 23.2068L19.7947 27.0705L26.5562 28.8823L27.5915 25.0185L20.83 23.2068Z" fill="#333333"/>
</svg>
