<svg width="48" height="48" viewBox="0 0 48 48" fill="none" xmlns="http://www.w3.org/2000/svg">
<path fill-rule="evenodd" clip-rule="evenodd" d="M21.2306 10.8462C21.6964 9.72821 22.7887 9 23.9998 9C25.2109 9 26.3032 9.72821 26.769 10.8462L34.2479 28.7953C34.2628 28.8294 34.2771 28.8638 34.2908 28.8985L36.769 34.8462C37.4063 36.3756 36.6831 38.132 35.1537 38.7692C33.6243 39.4065 31.8678 38.6833 31.2306 37.1538L29.4998 33H18.4998L16.769 37.1538C16.1318 38.6833 14.3754 39.4065 12.846 38.7692C11.3166 38.132 10.5933 36.3756 11.2306 34.8462L13.7088 28.8985C13.7225 28.8638 13.7368 28.8294 13.7517 28.7954L21.2306 10.8462ZM23.9998 11C23.5961 11 23.232 11.2427 23.0767 11.6154L15.5939 29.5741L15.5849 29.5951C15.5788 29.6089 15.573 29.6228 15.5675 29.6369L15.5589 29.6582L13.0767 35.6154C12.8643 36.1252 13.1054 36.7107 13.6152 36.9231C14.125 37.1355 14.7105 36.8944 14.9229 36.3846L16.9101 31.6154C17.0653 31.2427 17.4294 31 17.8331 31H30.1665C30.5702 31 30.9343 31.2427 31.0896 31.6154L33.0767 36.3846C33.2891 36.8944 33.8746 37.1355 34.3844 36.9231C34.8942 36.7107 35.1353 36.1252 34.9229 35.6154L32.4407 29.6582L32.4322 29.6369C32.4291 29.6291 32.426 29.6214 32.4227 29.6137C32.4201 29.6075 32.4175 29.6013 32.4147 29.5951L32.4057 29.5741L24.9229 11.6154C24.7676 11.2427 24.4035 11 23.9998 11ZM23.9998 16.2C24.4035 16.2 24.7676 16.4427 24.9229 16.8154L29.4229 27.6154C29.5515 27.924 29.5173 28.2765 29.3319 28.5547C29.1464 28.8329 28.8342 29 28.4998 29H19.4998C19.1655 29 18.8532 28.8329 18.6678 28.5547C18.4823 28.2765 18.4481 27.924 18.5767 27.6154L23.0767 16.8154C23.232 16.4427 23.5961 16.2 23.9998 16.2ZM20.9998 27H26.9998L23.9998 19.8L20.9998 27Z" fill="#333333"/>
</svg>
