<svg width="48" height="48" viewBox="0 0 48 48" fill="none" xmlns="http://www.w3.org/2000/svg">
<path fill-rule="evenodd" clip-rule="evenodd" d="M24 4C24.3788 4 24.725 4.214 24.8944 4.55279L43.8944 42.5528C44.0494 42.8628 44.0329 43.2309 43.8507 43.5257C43.6684 43.8205 43.3466 44 43 44H5C4.65342 44 4.33156 43.8205 4.14935 43.5257C3.96714 43.2309 3.95058 42.8628 4.10557 42.5528L23.1056 4.55279C23.275 4.214 23.6212 4 24 4ZM6.61803 42H41.382L24 7.23607L6.61803 42Z" fill="#333333"/>
<path fill-rule="evenodd" clip-rule="evenodd" d="M25 19V29C25 29.5523 24.5523 30 24 30C23.4477 30 23 29.5523 23 29V19C23 18.4477 23.4477 18 24 18C24.5523 18 25 18.4477 25 19ZM21 19C21 17.3431 22.3431 16 24 16C25.6569 16 27 17.3431 27 19V29C27 30.6569 25.6569 32 24 32C22.3431 32 21 30.6569 21 29V19ZM24 38C23.4477 38 23 37.5523 23 37C23 36.4477 23.4477 36 24 36C24.5523 36 25 36.4477 25 37C25 37.5523 24.5523 38 24 38ZM21 37C21 35.3431 22.3431 34 24 34C25.6569 34 27 35.3431 27 37C27 38.6569 25.6569 40 24 40C22.3431 40 21 38.6569 21 37Z" fill="#333333"/>
</svg>
