<svg width="48" height="48" viewBox="0 0 48 48" fill="none" xmlns="http://www.w3.org/2000/svg">
<path fill-rule="evenodd" clip-rule="evenodd" d="M24 42C33.9411 42 42 33.9411 42 24C42 14.0589 33.9411 6 24 6C14.0589 6 6 14.0589 6 24C6 33.9411 14.0589 42 24 42ZM24 44C35.0457 44 44 35.0457 44 24C44 12.9543 35.0457 4 24 4C12.9543 4 4 12.9543 4 24C4 35.0457 12.9543 44 24 44ZM25 28V12C25 11.4477 24.5523 11 24 11C23.4477 11 23 11.4477 23 12V28C23 28.5523 23.4477 29 24 29C24.5523 29 25 28.5523 25 28ZM24 9C22.3431 9 21 10.3431 21 12V28C21 29.6569 22.3431 31 24 31C25.6569 31 27 29.6569 27 28V12C27 10.3431 25.6569 9 24 9ZM24 37C23.4477 37 23 36.5523 23 36C23 35.4477 23.4477 35 24 35C24.5523 35 25 35.4477 25 36C25 36.5523 24.5523 37 24 37ZM21 36C21 34.3431 22.3431 33 24 33C25.6569 33 27 34.3431 27 36C27 37.6569 25.6569 39 24 39C22.3431 39 21 37.6569 21 36Z" fill="#333333"/>
</svg>
