<svg width="48" height="48" viewBox="0 0 48 48" fill="none" xmlns="http://www.w3.org/2000/svg">
<path fill-rule="evenodd" clip-rule="evenodd" d="M18.9828 26.9827C18.9832 27.535 18.5359 27.9831 17.9836 27.9835C17.4313 27.984 16.9832 27.5366 16.9828 26.9844C16.9823 26.4321 17.4296 25.984 17.9819 25.9835C18.5342 25.9831 18.9823 26.4304 18.9828 26.9827ZM23.9836 27.9786C23.984 28.5309 23.5367 28.979 22.9844 28.9794C22.4321 28.9799 21.984 28.5325 21.9836 27.9803C21.9831 27.428 22.4305 26.9799 22.9827 26.9794C23.535 26.979 23.9831 27.4263 23.9836 27.9786ZM19.9877 32.9819C20.5399 32.9814 20.9873 32.5334 20.9868 31.9811C20.9864 31.4288 20.5383 30.9814 19.986 30.9819C19.4337 30.9824 18.9864 31.4304 18.9868 31.9827C18.9873 32.535 19.4354 32.9824 19.9877 32.9819ZM25.986 30.977C25.9865 31.5293 25.5391 31.9774 24.9868 31.9778C24.4346 31.9783 23.9865 31.5309 23.986 30.9786C23.9856 30.4263 24.4329 29.9783 24.9852 29.9778C25.5375 29.9774 25.9856 30.4247 25.986 30.977ZM26.9901 35.9762C27.5424 35.9757 27.9898 35.5276 27.9893 34.9753C27.9888 34.4231 27.5408 33.9757 26.9885 33.9762C26.4362 33.9766 25.9888 34.4247 25.9893 34.977C25.9898 35.5293 26.4378 35.9766 26.9901 35.9762ZM29.986 30.9737C29.9865 31.526 29.5391 31.9741 28.9868 31.9745C28.4346 31.975 27.9865 31.5276 27.986 30.9753C27.9856 30.4231 28.4329 29.975 28.9852 29.9745C29.5375 29.9741 29.9856 30.4214 29.986 30.9737ZM21.9909 36.9803C22.5432 36.9798 22.9906 36.5317 22.9901 35.9794C22.9897 35.4272 22.5416 34.9798 21.9893 34.9803C21.437 34.9807 20.9897 35.4288 20.9901 35.9811C20.9906 36.5334 21.4387 36.9807 21.9909 36.9803ZM17.9893 34.9835C17.9898 35.5358 17.5424 35.9839 16.9901 35.9844C16.4378 35.9848 15.9898 35.5375 15.9893 34.9852C15.9889 34.4329 16.4362 33.9848 16.9885 33.9844C17.5408 33.9839 17.9889 34.4313 17.9893 34.9835ZM14.9868 31.986C15.5391 31.9855 15.9865 31.5375 15.986 30.9852C15.9856 30.4329 15.5375 29.9855 14.9852 29.986C14.4329 29.9864 13.9856 30.4345 13.986 30.9868C13.9865 31.5391 14.4346 31.9864 14.9868 31.986Z" fill="#333333"/>
<path fill-rule="evenodd" clip-rule="evenodd" d="M22.5 6C23.3284 6 24 6.67157 24 7.5V23H26V10.5C26 9.67157 26.6716 9 27.5 9C28.3284 9 29 9.67157 29 10.5V26.0855C29 27.9898 31.4096 28.8165 32.5787 27.3133L35.7652 23.2164C36.3798 22.4262 37.5775 22.4367 38.1782 23.2376C38.5503 23.7338 38.5832 24.4064 38.2613 24.9366L31.0573 36.7992C29.0962 40.0283 25.5921 42 21.8141 42C15.8416 42 11 37.1584 11 31.1859V16.5C11 15.6716 11.6716 15 12.5 15C13.3284 15 14 15.6716 14 16.5V25.1176H16V10.5C16 9.67157 16.6716 9 17.5 9C18.3284 9 19 9.67157 19 10.5V23H21V7.5C21 6.67157 21.6716 6 22.5 6ZM19.0037 7.33856C19.088 5.4805 20.6211 4 22.5 4C24.3789 4 25.912 5.4805 25.9963 7.33856C26.4519 7.1215 26.9618 7 27.5 7C29.433 7 31 8.567 31 10.5V26.0855L34.1865 21.9885C35.6107 20.1574 38.3863 20.1817 39.7782 22.0376C40.6406 23.1874 40.7168 24.7462 39.9707 25.9747L32.7667 37.8373C30.443 41.6637 26.2908 44 21.8141 44C14.7371 44 9 38.2629 9 31.1859V16.5C9 14.567 10.567 13 12.5 13C13.0368 13 13.5454 13.1208 14 13.3368V10.5C14 8.567 15.567 7 17.5 7C18.0382 7 18.5481 7.1215 19.0037 7.33856Z" fill="#333333"/>
</svg>
