<svg width="48" height="48" viewBox="0 0 48 48" fill="none" xmlns="http://www.w3.org/2000/svg">
<path fill-rule="evenodd" clip-rule="evenodd" d="M19.5719 10.283C19.176 9.89802 18.5429 9.90694 18.1579 10.3029L15.1579 13.3886C14.8108 13.7457 14.7792 14.3037 15.0839 14.6975C15.8281 15.6597 16.5468 16.372 17.4578 16.8728C18.0041 17.1731 18.5898 17.3808 19.2433 17.5344C18.8738 18.0086 18.5253 18.5257 18.2013 19.0737L15.3516 17.9897L14.1688 15.2342C13.9509 14.7267 13.3629 14.4918 12.8554 14.7097C12.3479 14.9275 12.1131 15.5155 12.3309 16.023L13.6809 19.1681C13.7878 19.4171 13.9911 19.612 14.2443 19.7083L17.2768 20.8618C17.2285 20.969 17.1811 21.0768 17.1346 21.1851C16.903 21.7242 16.6911 22.2831 16.5021 22.855L13.7541 21.8097L11.8315 18.9304C11.5248 18.471 10.9039 18.3473 10.4446 18.654C9.98525 18.9607 9.86153 19.5817 10.1682 20.041L12.2682 23.186C12.3836 23.3589 12.5501 23.4915 12.7443 23.5654L15.9641 24.7901C15.9087 25.0345 15.8579 25.2798 15.8119 25.5257C15.7839 25.5367 15.7499 25.5503 15.7106 25.5664C15.5967 25.6129 15.4369 25.6806 15.2464 25.7681C14.8681 25.942 14.3561 26.1995 13.8372 26.5304C13.3247 26.8572 12.7657 27.2806 12.3249 27.7974C11.8857 28.3124 11.4999 28.9977 11.4999 29.8228C11.4999 31.0274 11.938 32.3529 12.323 33.3033C12.5219 33.7942 12.7202 34.2174 12.869 34.5185C12.9436 34.6694 13.0063 34.7905 13.0509 34.8752C13.0733 34.9176 13.0912 34.9509 13.1039 34.9743L13.119 35.002L13.1234 35.01L13.1248 35.0126L13.1253 35.0135C13.3935 35.4963 14.0027 35.6709 14.4855 35.4027C14.9681 35.1346 15.1421 34.5261 14.8743 34.0434L14.8722 34.0395L14.8621 34.0211C14.8529 34.004 14.8385 33.9774 14.8199 33.942C14.7825 33.8712 14.728 33.7657 14.6619 33.6322C14.5295 33.3643 14.3528 32.9871 14.1767 32.5524C13.8117 31.6513 13.4999 30.6239 13.4999 29.8228C13.4999 29.6451 13.5827 29.4047 13.8467 29.0952C14.1091 28.7875 14.4875 28.4877 14.9125 28.2167C15.1193 28.0848 15.3277 27.9657 15.5248 27.8609C15.5083 28.1565 15.4999 28.4508 15.4999 28.7429C15.4999 35.1562 19.6214 39 23.9999 39C28.3783 39 32.4999 35.1562 32.4999 28.7429C32.4999 28.4508 32.4914 28.1565 32.4749 27.8609C32.6721 27.9657 32.8804 28.0848 33.0872 28.2167C33.5122 28.4877 33.8907 28.7875 34.153 29.0952C34.417 29.4047 34.4999 29.6451 34.4999 29.8228C34.4999 30.6239 34.188 31.6513 33.823 32.5524C33.6469 32.9871 33.4702 33.3643 33.3378 33.6322C33.2718 33.7657 33.2172 33.8712 33.1799 33.942C33.1775 33.9464 33.1753 33.9507 33.1731 33.9548C33.1577 33.9839 33.1457 34.0062 33.1376 34.0211L33.1276 34.0395L33.1254 34.0434C32.8576 34.5261 33.0316 35.1346 33.5142 35.4027C33.997 35.6709 34.6062 35.4963 34.8744 35.0135L34.8749 35.0126L34.8763 35.01L34.8808 35.002L34.8958 34.9743C34.9085 34.9509 34.9264 34.9176 34.9488 34.8752C34.9935 34.7905 35.0561 34.6694 35.1307 34.5185C35.2795 34.2174 35.4778 33.7942 35.6767 33.3033C36.0617 32.3529 36.4999 31.0274 36.4999 29.8228C36.4999 28.9977 36.114 28.3124 35.6748 27.7974C35.2341 27.2806 34.675 26.8572 34.1625 26.5304C33.6436 26.1995 33.1316 25.942 32.7533 25.7681C32.5628 25.6806 32.4031 25.6129 32.2892 25.5664C32.2498 25.5503 32.2158 25.5367 32.1879 25.5257C32.1418 25.2798 32.091 25.0345 32.0356 24.7901L35.2554 23.5654C35.4497 23.4915 35.6161 23.3589 35.7315 23.186L37.8315 20.041C38.1382 19.5817 38.0145 18.9607 37.5552 18.654C37.0959 18.3473 36.4749 18.471 36.1682 18.9304L34.2457 21.8097L31.4976 22.855C31.3086 22.2831 31.0967 21.7242 30.8652 21.1851C30.8187 21.0768 30.7712 20.969 30.7229 20.8618L33.7554 19.7083C34.0086 19.612 34.2119 19.4171 34.3188 19.1681L35.6688 16.023C35.8866 15.5155 35.6518 14.9275 35.1443 14.7097C34.6368 14.4918 34.0488 14.7267 33.8309 15.2342L32.6481 17.9897L29.7985 19.0737C29.4744 18.5257 29.1259 18.0086 28.7564 17.5344C29.4099 17.3808 29.9956 17.1731 30.5419 16.8728C31.4529 16.372 32.1717 15.6597 32.9159 14.6975C33.2205 14.3037 33.189 13.7457 32.8419 13.3886L29.8419 10.3029C29.4569 9.90694 28.8238 9.89802 28.4278 10.283C28.0318 10.668 28.0229 11.3011 28.4079 11.6971L30.7803 14.1373C30.363 14.5933 29.9847 14.8968 29.5785 15.1201C29.0096 15.4328 28.3074 15.6316 27.2134 15.7816C27.1173 14.9738 26.8343 14.226 26.3989 13.6288C25.8548 12.8826 25.0188 12.3142 23.9999 12.3142C22.9809 12.3142 22.145 12.8826 21.6009 13.6288C21.1655 14.226 20.8824 14.9738 20.7863 15.7816C19.6923 15.6316 18.9901 15.4328 18.4212 15.1201C18.015 14.8968 17.6367 14.5933 17.2194 14.1373L19.5919 11.6971C19.9768 11.3011 19.9679 10.668 19.5719 10.283ZM33.9999 34.5285C34.874 35.0142 34.8744 35.0135 34.8744 35.0135L33.9999 34.5285ZM13.9999 34.5285L13.1253 35.0135C13.1253 35.0135 13.1257 35.0142 13.9999 34.5285ZM23.2169 14.8072C22.9473 15.1769 22.7499 15.7368 22.7499 16.3999L22.7501 16.4361L22.7557 16.9573L22.3317 17.2604C21.11 18.134 19.8906 19.8359 18.9723 21.9742C18.0621 24.0937 17.4999 26.5228 17.4999 28.7429C17.4999 34.259 20.9225 37 23.9999 37C27.0772 37 30.4999 34.259 30.4999 28.7429C30.4999 26.5228 29.9376 24.0937 29.0274 21.9742C28.1092 19.8359 26.8897 18.134 25.668 17.2604L25.244 16.9573L25.2497 16.4361L25.2499 16.3999C25.2499 15.7368 25.0525 15.1769 24.7828 14.8072C24.5126 14.4366 24.2236 14.3142 23.9999 14.3142C23.7762 14.3142 23.4871 14.4366 23.2169 14.8072Z" fill="#333333"/>
</svg>
