<svg width="48" height="48" viewBox="0 0 48 48" fill="none" xmlns="http://www.w3.org/2000/svg">
<path fill-rule="evenodd" clip-rule="evenodd" d="M21.6009 13.6288C22.145 12.8826 22.9809 12.3142 23.9999 12.3142C25.0188 12.3142 25.8548 12.8826 26.3989 13.6288C26.8625 14.2648 27.1535 15.0716 27.2298 15.9398C28.6953 17.1451 29.9542 19.0638 30.8652 21.1851C31.8658 23.5152 32.4999 26.2124 32.4999 28.7429C32.4999 35.1562 28.3783 39 23.9999 39C19.6214 39 15.4999 35.1562 15.4999 28.7429C15.4999 26.2124 16.134 23.5152 17.1346 21.1851C18.0455 19.0638 19.3045 17.1451 20.77 15.9398C20.8463 15.0716 21.1372 14.2648 21.6009 13.6288ZM23.2169 14.8072C22.9473 15.1769 22.7499 15.7368 22.7499 16.3999L22.7501 16.4361L22.7557 16.9573L22.3317 17.2604C21.11 18.134 19.8906 19.8359 18.9723 21.9742C18.0621 24.0937 17.4999 26.5228 17.4999 28.7429C17.4999 34.259 20.9225 37 23.9999 37C27.0772 37 30.4999 34.259 30.4999 28.7429C30.4999 26.5228 29.9376 24.0937 29.0274 21.9742C28.1092 19.8359 26.8897 18.134 25.668 17.2604L25.244 16.9573L25.2497 16.4361L25.2499 16.3999C25.2499 15.7368 25.0525 15.1769 24.7828 14.8072C24.5126 14.4366 24.2236 14.3142 23.9999 14.3142C23.7762 14.3142 23.4871 14.4366 23.2169 14.8072Z" fill="#333333"/>
<path fill-rule="evenodd" clip-rule="evenodd" d="M28.4278 10.283C28.8238 9.89802 29.4569 9.90694 29.8419 10.3029L32.8419 13.3886C33.189 13.7457 33.2205 14.3037 32.9159 14.6975C32.1717 15.6597 31.4529 16.372 30.5419 16.8728C29.6386 17.3693 28.6277 17.6126 27.3807 17.7771C26.8331 17.8494 26.3307 17.4641 26.2585 16.9165C26.1862 16.369 26.5715 15.8665 27.1191 15.7943C28.2674 15.6428 28.9934 15.4417 29.5785 15.1201C29.9847 14.8968 30.363 14.5933 30.7803 14.1373L28.4079 11.6971C28.0229 11.3011 28.0318 10.668 28.4278 10.283Z" fill="#333333"/>
<path fill-rule="evenodd" clip-rule="evenodd" d="M35.1443 14.7097C35.6518 14.9275 35.8866 15.5155 35.6688 16.023L34.3188 19.1681C34.2119 19.4171 34.0086 19.612 33.7554 19.7083L29.8554 21.1918C29.3392 21.3882 28.7616 21.1289 28.5652 20.6127C28.3688 20.0965 28.6281 19.5189 29.1443 19.3225L32.6481 17.9897L33.8309 15.2342C34.0488 14.7267 34.6368 14.4918 35.1443 14.7097Z" fill="#333333"/>
<path fill-rule="evenodd" clip-rule="evenodd" d="M37.5552 18.654C38.0145 18.9607 38.1382 19.5817 37.8315 20.041L35.7315 23.186C35.6161 23.3589 35.4497 23.4915 35.2554 23.5654L31.3554 25.0489C30.8392 25.2452 30.2616 24.986 30.0652 24.4698C29.8688 23.9536 30.1281 23.3759 30.6443 23.1796L34.2457 21.8097L36.1682 18.9304C36.4749 18.471 37.0959 18.3473 37.5552 18.654Z" fill="#333333"/>
<path fill-rule="evenodd" clip-rule="evenodd" d="M30.8121 26.0813C31.0039 25.5634 31.5792 25.299 32.0971 25.4908L31.7499 26.4285C32.0971 25.4908 32.0971 25.4908 32.0971 25.4908L32.0995 25.4917L32.1033 25.4931L32.1149 25.4975L32.1538 25.5124C32.1864 25.525 32.2321 25.5431 32.2892 25.5664C32.4031 25.6129 32.5628 25.6806 32.7533 25.7681C33.1316 25.942 33.6436 26.1995 34.1625 26.5304C34.675 26.8572 35.2341 27.2806 35.6748 27.7974C36.114 28.3124 36.4999 28.9977 36.4999 29.8228C36.4999 31.0274 36.0617 32.3529 35.6767 33.3033C35.4778 33.7942 35.2795 34.2174 35.1307 34.5185C35.0561 34.6694 34.9935 34.7905 34.9488 34.8752C34.9264 34.9176 34.9085 34.9509 34.8958 34.9743L34.8808 35.002L34.8763 35.01L34.8749 35.0126L34.8744 35.0135C34.8744 35.0135 34.874 35.0142 33.9999 34.5285L34.8744 35.0135C34.6062 35.4963 33.997 35.6709 33.5142 35.4027C33.0316 35.1346 32.8576 34.5261 33.1254 34.0434L33.1276 34.0395L33.1376 34.0211C33.1469 34.004 33.1612 33.9774 33.1799 33.942C33.2172 33.8712 33.2718 33.7657 33.3378 33.6322C33.4702 33.3643 33.6469 32.9871 33.823 32.5524C34.188 31.6513 34.4999 30.6239 34.4999 29.8228C34.4999 29.6451 34.417 29.4047 34.153 29.0952C33.8907 28.7875 33.5122 28.4877 33.0872 28.2167C32.6686 27.9497 32.2431 27.7347 31.9183 27.5855C31.7572 27.5115 31.624 27.4551 31.5328 27.4179C31.4873 27.3993 31.4525 27.3855 31.4302 27.3769L31.4063 27.3677L31.4026 27.3663C30.885 27.1744 30.6204 26.5991 30.8121 26.0813Z" fill="#333333"/>
<path fill-rule="evenodd" clip-rule="evenodd" d="M19.5719 10.283C19.176 9.89802 18.5429 9.90694 18.1579 10.3029L15.1579 13.3886C14.8108 13.7457 14.7792 14.3037 15.0839 14.6975C15.8281 15.6597 16.5468 16.372 17.4578 16.8728C18.3611 17.3693 19.3721 17.6126 20.6191 17.7771C21.1666 17.8494 21.669 17.4641 21.7413 16.9165C21.8135 16.369 21.4282 15.8665 20.8807 15.7943C19.7323 15.6428 19.0063 15.4417 18.4212 15.1201C18.015 14.8968 17.6367 14.5933 17.2194 14.1373L19.5919 11.6971C19.9768 11.3011 19.9679 10.668 19.5719 10.283Z" fill="#333333"/>
<path fill-rule="evenodd" clip-rule="evenodd" d="M12.8554 14.7097C12.3479 14.9275 12.1131 15.5155 12.3309 16.023L13.6809 19.1681C13.7878 19.4171 13.9911 19.612 14.2443 19.7083L18.1443 21.1918C18.6605 21.3882 19.2382 21.1289 19.4345 20.6127C19.6309 20.0965 19.3716 19.5189 18.8554 19.3225L15.3516 17.9897L14.1688 15.2342C13.9509 14.7267 13.3629 14.4918 12.8554 14.7097Z" fill="#333333"/>
<path fill-rule="evenodd" clip-rule="evenodd" d="M10.4446 18.654C9.98525 18.9607 9.86153 19.5817 10.1682 20.041L12.2682 23.186C12.3836 23.3589 12.5501 23.4915 12.7443 23.5654L16.6443 25.0489C17.1605 25.2452 17.7382 24.986 17.9345 24.4698C18.1309 23.9536 17.8716 23.3759 17.3554 23.1796L13.7541 21.8097L11.8315 18.9304C11.5248 18.471 10.9039 18.3473 10.4446 18.654Z" fill="#333333"/>
<path fill-rule="evenodd" clip-rule="evenodd" d="M17.1876 26.0813C16.9959 25.5634 16.4205 25.299 15.9026 25.4908L16.2499 26.4285C15.9026 25.4908 15.9026 25.4908 15.9026 25.4908L15.9002 25.4917L15.8964 25.4931L15.8848 25.4975L15.8459 25.5124C15.8133 25.525 15.7676 25.5431 15.7106 25.5664C15.5967 25.6129 15.4369 25.6806 15.2464 25.7681C14.8681 25.942 14.3561 26.1995 13.8372 26.5304C13.3247 26.8572 12.7657 27.2806 12.3249 27.7974C11.8857 28.3124 11.4999 28.9977 11.4999 29.8228C11.4999 31.0274 11.938 32.3529 12.323 33.3033C12.5219 33.7942 12.7202 34.2174 12.869 34.5185C12.9436 34.6694 13.0063 34.7905 13.0509 34.8752C13.0733 34.9176 13.0912 34.9509 13.1039 34.9743L13.119 35.002L13.1234 35.01L13.1248 35.0126L13.1253 35.0135C13.1253 35.0135 13.1257 35.0142 13.9999 34.5285L13.1253 35.0135C13.3935 35.4963 14.0027 35.6709 14.4855 35.4027C14.9681 35.1346 15.1421 34.5261 14.8743 34.0434L14.8722 34.0395L14.8621 34.0211C14.8529 34.004 14.8385 33.9774 14.8199 33.942C14.7825 33.8712 14.728 33.7657 14.6619 33.6322C14.5295 33.3643 14.3528 32.9871 14.1767 32.5524C13.8117 31.6513 13.4999 30.6239 13.4999 29.8228C13.4999 29.6451 13.5827 29.4047 13.8467 29.0952C14.1091 28.7875 14.4875 28.4877 14.9125 28.2167C15.3311 27.9497 15.7566 27.7347 16.0814 27.5855C16.2425 27.5115 16.3757 27.4551 16.4669 27.4179C16.5124 27.3993 16.5472 27.3855 16.5696 27.3769L16.5934 27.3677L16.5971 27.3663C17.1148 27.1744 17.3794 26.5991 17.1876 26.0813Z" fill="#333333"/>
</svg>
