<svg width="48" height="48" viewBox="0 0 48 48" fill="none" xmlns="http://www.w3.org/2000/svg">
<path fill-rule="evenodd" clip-rule="evenodd" d="M19 42H28.5V44H19V42Z" fill="#333333"/>
<path fill-rule="evenodd" clip-rule="evenodd" d="M25 38C25.5522 38 26 38.4477 26 39V43C26 43.5522 25.5522 44 25 44C24.4477 44 24 43.5522 24 43V39C24 38.4477 24.4477 38 25 38Z" fill="#333333"/>
<path fill-rule="evenodd" clip-rule="evenodd" d="M17 23C17.5522 23 18 23.4477 18 24C18 30.1357 22.6539 35 28.2637 35C31.3781 35 34.1831 33.5122 36.0763 31.1333C36.4203 30.7011 37.0494 30.6296 37.4815 30.9735C37.9136 31.3174 37.9852 31.9466 37.6413 32.3787C35.4022 35.1921 32.0395 37 28.2637 37C21.4319 37 16 31.1191 16 24C16 23.4477 16.4477 23 17 23Z" fill="#333333"/>
<path fill-rule="evenodd" clip-rule="evenodd" d="M13.9759 11C12.226 11 10.997 12.7237 11.5675 14.3781L12.1395 16.0369C12.7301 17.7498 12.7899 19.601 12.311 21.3484L11.8162 23.1536C10.9136 26.447 10.7473 29.781 12.5129 32.2191C15.0399 35.7087 19.2373 38 23.9999 38C30.8336 38 36.4914 33.2871 37.7415 27.096C38.0831 25.4042 38.59 23.5778 39.6721 22.0212L27.524 23.9784C25.0881 24.3709 22.6602 23.232 21.4046 21.108L16.1691 12.2512C15.7107 11.4757 14.8768 11 13.9759 11ZM9.67671 15.0301C8.65838 12.077 10.8522 8.99995 13.9759 8.99995C15.584 8.99995 17.0725 9.84917 17.8908 11.2334L23.1263 20.0903C23.9634 21.5063 25.582 22.2655 27.2059 22.0039L39.7851 19.9772C41.4167 19.7144 42.5267 21.5857 41.5136 22.8914C40.5433 24.1421 40.0554 25.7414 39.702 27.4918C38.2579 34.6433 31.7575 40 23.9999 40C18.5861 40 13.7903 37.3931 10.893 33.3922C8.56856 30.1823 8.94669 26.057 9.88733 22.625L10.3821 20.8198C10.7545 19.4608 10.7081 18.021 10.2487 16.6889L9.67671 15.0301Z" fill="#333333"/>
<path fill-rule="evenodd" clip-rule="evenodd" d="M15.0857 5.99995C16.3457 4.74002 18.5 5.63235 18.5 7.41417V8.99995H20.0857C21.8675 8.99995 22.7599 11.1542 21.5 12.4142L19.7071 14.2071C19.3165 14.5976 18.6834 14.5976 18.2928 14.2071C17.9023 13.8165 17.9023 13.1834 18.2928 12.7928L20.0857 11H18.5C17.3954 11 16.5 10.1045 16.5 8.99995L16.5 7.41417L7.91417 16H10.5C11.0522 16 11.5 16.4477 11.5 17C11.5 17.5522 11.0522 18 10.5 18H7.91417C6.13236 18 5.24002 15.8457 6.49995 14.5857L15.0857 5.99995Z" fill="#333333"/>
<path d="M15 13C15 13.5522 14.5522 14 14 14C13.4477 14 13 13.5522 13 13C13 12.4477 13.4477 12 14 12C14.5522 12 15 12.4477 15 13Z" fill="#333333"/>
</svg>
