<svg width="48" height="48" viewBox="0 0 48 48" fill="none" xmlns="http://www.w3.org/2000/svg">
<path d="M31.5 41H33.6003H36.6005L38.8563 33.9749L36.6005 23.9498C37.5118 24.7029 38.2712 25.2097 39.4975 27.2284C39.9826 28.0323 40.932 27.4422 41.6014 27.2339C42.012 26.9253 42.1245 26.3141 41.8489 25.8573L40.7463 24.0423C39.16 21.4309 36.5105 19.8752 33.6529 19.8752H20.3999L15.8322 14.8624C13 14.4118 13.083 9.8268 10.6344 7.14593C10.4319 6.92369 10.0944 6.96073 9.93691 7.22001C9.245 8.36826 9.35751 12.9363 10.28 13.9488C10.4657 14.1525 10.6907 14.2759 10.9157 14.4118C10.7919 14.5167 10.6513 14.6031 10.5557 14.7451L6.35925 20.8753C5.94861 21.4741 5.88673 22.2767 6.19049 22.9434L6.9949 24.709C7.29867 25.3757 7.92307 25.8017 8.60372 25.8017H10.3475C10.8257 25.8017 11.2813 25.5918 11.6189 25.2214L14 21.9167L16.7997 29.7527L17.7997 36.4597L16.7997 39.1667C16.7997 39.1667 15 38.5 15 41H16.7997H19.9714C19.9714 41 20.4658 39.7022 20.3999 38C20.2919 35.2135 19.7476 33.3435 20.9714 32.3099C23.1579 34.7333 25.5 34.5 27.8516 33C29.055 32.667 32.0105 29.6197 32.6003 31.3099C33.1901 33 35.1472 32.8349 35.0343 33.9749C36.6005 38 33.6999 37.4297 33.1901 39.1667M31.5 41C31.5 38.6051 33.0076 39.2639 33.1759 39.182M31.5 41L33.1759 39.182M33.1901 39.1667C33.1881 39.1734 33.1833 39.1785 33.1759 39.182M33.1901 39.1667L33.1759 39.182" stroke="#333333" stroke-width="2" stroke-linecap="round" stroke-linejoin="round"/>
</svg>
