<svg width="48" height="48" viewBox="0 0 48 48" fill="none" xmlns="http://www.w3.org/2000/svg">
<path fill-rule="evenodd" clip-rule="evenodd" d="M32.8039 6.01961C33.3454 5.9113 33.8723 6.26252 33.9806 6.80408L35.4806 14.3041C35.537 14.5863 35.4692 14.8791 35.2944 15.1076L28.7944 23.6076C28.4589 24.0464 27.8313 24.13 27.3926 23.7945C26.9538 23.4591 26.8702 22.8315 27.2056 22.3927L33.4306 14.2524L32.0194 7.19631C31.9111 6.65475 32.2623 6.12792 32.8039 6.01961Z" fill="#333333"/>
<path fill-rule="evenodd" clip-rule="evenodd" d="M15.1961 6.01961C14.6546 5.9113 14.1277 6.26252 14.0194 6.80408L12.5194 14.3041C12.463 14.5863 12.5308 14.8791 12.7056 15.1076L19.2056 23.6076C19.5411 24.0464 20.1687 24.13 20.6075 23.7945C21.0462 23.4591 21.1298 22.8315 20.7944 22.3927L14.5694 14.2524L15.9806 7.19631C16.0889 6.65475 15.7377 6.12792 15.1961 6.01961Z" fill="#333333"/>
<path fill-rule="evenodd" clip-rule="evenodd" d="M41.6991 17.2852C42.094 17.6713 42.1011 18.3044 41.715 18.6993L37.315 23.1993C37.2133 23.3033 37.0902 23.3838 36.9542 23.4354L30.3542 25.9354C29.8378 26.131 29.2605 25.8709 29.0648 25.3544C28.8692 24.8379 29.1293 24.2607 29.6458 24.065L36.0393 21.6432L40.285 17.3011C40.6711 16.9062 41.3042 16.8991 41.6991 17.2852Z" fill="#333333"/>
<path fill-rule="evenodd" clip-rule="evenodd" d="M37.8511 41.9365C38.3682 41.7426 38.6302 41.1662 38.4363 40.6491L35.4363 32.6491C35.353 32.4267 35.1932 32.2413 34.9856 32.126L30.4856 29.626C30.0029 29.3578 29.3941 29.5318 29.1258 30.0145C28.8576 30.4973 29.0316 31.1061 29.5144 31.3743L33.6928 33.6957L36.5637 41.3513C36.7576 41.8684 37.334 42.1304 37.8511 41.9365Z" fill="#333333"/>
<path fill-rule="evenodd" clip-rule="evenodd" d="M39.6028 32.7981C40.0435 32.4651 40.1308 31.838 39.7979 31.3974L36.3979 26.8974C36.1899 26.6221 35.8547 26.4735 35.5111 26.5042L29.9111 27.0042C29.361 27.0533 28.9548 27.539 29.004 28.0891C29.0531 28.6392 29.5388 29.0453 30.0889 28.9962L35.1365 28.5456L38.2021 32.603C38.5351 33.0437 39.1622 33.131 39.6028 32.7981Z" fill="#333333"/>
<path fill-rule="evenodd" clip-rule="evenodd" d="M6.30088 17.2852C5.906 17.6713 5.89888 18.3044 6.28499 18.6993L10.685 23.1993C10.7867 23.3033 10.9098 23.3838 11.0458 23.4354L17.6458 25.9354C18.1622 26.131 18.7395 25.8709 18.9352 25.3544C19.1308 24.8379 18.8707 24.2607 18.3542 24.065L11.9607 21.6432L7.71501 17.3011C7.3289 16.9062 6.69577 16.8991 6.30088 17.2852Z" fill="#333333"/>
<path fill-rule="evenodd" clip-rule="evenodd" d="M10.1489 41.9365C9.63176 41.7426 9.36975 41.1662 9.56367 40.6491L12.5637 32.6491C12.647 32.4267 12.8068 32.2413 13.0144 32.126L17.5144 29.626C17.9971 29.3578 18.6059 29.5318 18.8742 30.0145C19.1424 30.4973 18.9684 31.1061 18.4856 31.3743L14.3072 33.6957L11.4363 41.3513C11.2424 41.8684 10.666 42.1304 10.1489 41.9365Z" fill="#333333"/>
<path fill-rule="evenodd" clip-rule="evenodd" d="M8.39717 32.7981C7.95652 32.4651 7.8692 31.838 8.20213 31.3974L11.6021 26.8974C11.8101 26.6221 12.1453 26.4735 12.4889 26.5042L18.0889 27.0042C18.639 27.0533 19.0452 27.539 18.996 28.0891C18.9469 28.6392 18.4612 29.0453 17.9111 28.9962L12.8635 28.5456L9.79787 32.603C9.46493 33.0437 8.83782 33.131 8.39717 32.7981Z" fill="#333333"/>
<path fill-rule="evenodd" clip-rule="evenodd" d="M23 20.1879L22.3881 20.7778C21.1053 22.0146 20 24.6496 20 28.0002C20 30.4615 20.6027 32.5929 21.4723 34.0423C22.3659 35.5315 23.3217 36.0002 24 36.0002C24.6783 36.0002 25.6341 35.5315 26.5277 34.0423C27.3973 32.5929 28 30.4615 28 28.0002C28 24.6496 26.8947 22.0146 25.6119 20.7778L25 20.1879V18.0002H23V20.1879ZM27 19.338C28.7934 21.0671 30 24.2988 30 28.0002C30 33.523 27.3137 38.0002 24 38.0002C20.6863 38.0002 18 33.523 18 28.0002C18 24.2988 19.2066 21.0671 21 19.338V15.5002C21 14.9479 21.4477 14.5002 22 14.5002C22.5523 14.5002 23 14.9479 23 15.5002V16.0002H25V15.5002C25 14.9479 25.4477 14.5002 26 14.5002C26.5523 14.5002 27 14.9479 27 15.5002V19.338Z" fill="#333333"/>
</svg>
