<svg width="48" height="48" viewBox="0 0 48 48" fill="none" xmlns="http://www.w3.org/2000/svg">
<path fill-rule="evenodd" clip-rule="evenodd" d="M11.8236 12.979C13.1016 12.7479 14.4299 12.9582 15.5609 13.5784C15.5963 13.5978 15.6305 13.6193 15.6633 13.6429C17.2165 14.7578 18.547 16.1235 19.59 17.6779C20.8663 19.1614 21.9733 20.7657 22.8924 22.465C23.6603 23.7131 24.0779 25.1276 24.0999 26.5758C24.1003 26.6013 24.0997 26.6269 24.0982 26.6524C24.0522 27.3996 23.8613 28.1308 23.5368 28.8104C23.5309 28.8228 23.5247 28.8351 23.5183 28.8472C23.1352 29.5712 22.6309 30.23 22.0269 30.7996L22.0104 30.8148C21.871 30.9405 21.7126 31.0611 21.5887 31.1555C21.5788 31.163 21.569 31.1704 21.5596 31.1777C21.4172 31.2862 21.3065 31.3722 21.2122 31.4581C21.0947 31.5651 21.0561 31.625 21.0453 31.6454C21.0452 31.6496 21.0451 31.6547 21.045 31.6607C21.0449 31.6819 21.0449 31.7097 21.0455 31.7447C21.0465 31.815 21.0491 31.9052 21.0532 32.0147C21.0616 32.2334 21.0757 32.5144 21.094 32.8392C21.1307 33.4879 21.1833 34.2951 21.2374 35.0941C21.2743 35.6387 21.3117 36.1769 21.3451 36.6571C21.3607 36.8815 21.3754 37.0931 21.3887 37.2869C21.4282 37.8598 21.4612 38.3422 21.4612 38.4627C21.4612 39.015 21.0135 39.4627 20.4612 39.4627H16.8257L16.6879 41.8333C16.6784 42.4293 16.4188 42.9831 15.9895 43.3815C15.5546 43.7851 14.9798 44.0001 14.3946 44.0001C13.8094 44.0001 13.2346 43.7851 12.7997 43.3815C12.3697 42.9825 12.1099 42.4275 12.1013 41.8304L11.9717 39.3907H7.86227C7.5411 39.3907 7.23948 39.2364 7.05149 38.976C6.86349 38.7156 6.812 38.3808 6.91308 38.0759C7.27226 36.9927 8.31748 34.2428 9.26031 31.7946C9.73436 30.5637 10.1864 29.3991 10.52 28.5422C10.6571 28.19 10.7741 27.8898 10.8645 27.6583C10.8611 27.6539 10.8577 27.6496 10.8542 27.6452C10.7622 27.5278 10.6701 27.414 10.5926 27.3243C10.5285 27.2502 10.5001 27.2229 10.5006 27.2223C10.5007 27.2223 10.5003 27.2221 10.5006 27.2223C10.474 27.2013 10.4491 27.1792 10.4247 27.1555L5.80273 22.6601C5.38649 22.3187 5.10076 21.8358 5.02183 21.2906C4.93956 20.7222 5.09226 20.1538 5.4329 19.7004C5.43806 19.6935 5.4433 19.6867 5.44864 19.68L8.02658 16.4265C8.15418 16.255 8.28138 16.0699 8.42613 15.8591C8.48632 15.7715 8.54953 15.6795 8.61708 15.5822C8.83973 15.2614 9.09467 14.9058 9.38207 14.568C9.94503 13.9062 10.727 13.1982 11.8054 12.9825L11.8236 12.979ZM12 27.5L12.9311 27.8647L12.7824 28.2452C12.6871 28.4891 12.5502 28.84 12.3838 29.2677C12.0508 30.1231 11.5996 31.2854 11.1267 32.5134C10.4594 34.2461 9.75641 36.0899 9.27869 37.3907H12.92C13.4516 37.3907 13.8904 37.8067 13.9186 38.3376L14.0997 41.7467C14.1006 41.7643 14.1011 41.782 14.1011 41.7997C14.1011 41.8277 14.1124 41.8712 14.1601 41.9155C14.2104 41.9622 14.2936 42.0001 14.3946 42.0001C14.4956 42.0001 14.5787 41.9622 14.629 41.9155C14.6768 41.8712 14.6881 41.8277 14.6881 41.7997C14.6881 41.7804 14.6887 41.761 14.6898 41.7417L14.8838 38.4046C14.9146 37.8758 15.3524 37.4627 15.8821 37.4627H19.3961C19.3952 37.45 19.3944 37.4373 19.3935 37.4245C19.3802 37.2327 19.3656 37.0221 19.3501 36.7985C19.3167 36.3173 19.279 35.7757 19.242 35.2292C19.1878 34.4287 19.1345 33.6124 19.0972 32.952C19.0619 32.3278 19.0352 31.7583 19.0489 31.5159C19.091 30.7732 19.5462 30.2703 19.8655 29.9795C20.0332 29.8267 20.2103 29.6914 20.3468 29.5873C20.4932 29.4757 20.5889 29.4027 20.6636 29.3362C21.1027 28.9204 21.4655 28.4455 21.7407 27.9303C21.9452 27.4962 22.066 27.0351 22.0994 26.5671C22.076 25.4919 21.7608 24.4347 21.1766 23.493C21.166 23.4758 21.1559 23.4584 21.1463 23.4406C20.2847 21.8435 19.2423 20.3341 18.036 18.9383C18.0085 18.9065 17.9831 18.8731 17.9599 18.8381C17.0604 17.4854 15.906 16.2883 14.5485 15.3047C13.8395 14.9311 13.0018 14.8007 12.1894 14.9453C11.7701 15.032 11.3581 15.3318 10.9054 15.8639C10.6835 16.1248 10.4735 16.4151 10.26 16.7227C10.207 16.799 10.1525 16.8784 10.097 16.9592C9.94037 17.1872 9.77653 17.4258 9.62064 17.6345C9.61495 17.6421 9.60916 17.6496 9.60326 17.6571L7.02752 20.9078C7.00172 20.9449 6.99746 20.9782 7.0012 21.0041C7.00534 21.0326 7.02336 21.077 7.07714 21.1186C7.10696 21.1417 7.13545 21.1664 7.16247 21.1927L11.7866 25.6901C11.9175 25.8005 12.0362 25.9361 12.1058 26.0166C12.213 26.1406 12.3271 26.2823 12.4278 26.4107C12.5297 26.5406 12.6238 26.6643 12.692 26.7551C12.7263 26.8007 12.7544 26.8384 12.7741 26.8649L12.7971 26.896L12.8034 26.9046L12.8052 26.907L12.8059 26.9079L12 27.5ZM12 27.5L12.8059 26.9079C13.0088 27.1842 13.0561 27.5455 12.9311 27.8647L12 27.5ZM21.0415 31.6535C21.0414 31.6535 21.0416 31.653 21.042 31.6521L21.0415 31.6535ZM11.9632 17.0205C12.3669 17.0841 12.6913 17.3871 12.7824 17.7855C12.8868 18.2422 12.9949 18.6789 13.1065 19.1293C13.188 19.4584 13.2713 19.7949 13.3564 20.152C13.4205 20.3689 13.4822 20.5548 13.5395 20.7276C13.7378 21.3248 13.8838 21.7645 13.894 22.7841C13.8978 23.1567 13.694 23.5005 13.3653 23.6761C13.0367 23.8517 12.6376 23.83 12.33 23.6198C11.6601 23.1621 11.2203 22.8596 10.8956 22.6362C10.2946 22.2228 10.0876 22.0804 9.54528 21.7271C9.09558 21.4342 8.95733 20.8385 9.23203 20.3774L10.9484 17.4965C11.1576 17.1454 11.5595 16.9569 11.9632 17.0205Z" fill="#333333"/>
<path fill-rule="evenodd" clip-rule="evenodd" d="M16.5 11C17.8807 11 19 9.88071 19 8.5C19 7.11929 17.8807 6 16.5 6C15.1193 6 14 7.11929 14 8.5C14 9.88071 15.1193 11 16.5 11ZM16.5 13C18.9853 13 21 10.9853 21 8.5C21 6.01472 18.9853 4 16.5 4C14.0147 4 12 6.01472 12 8.5C12 10.9853 14.0147 13 16.5 13Z" fill="#333333"/>
<path d="M29.9375 5.5625C29.9375 5.25184 30.1893 5 30.5 5C30.8107 5 31.0625 5.25184 31.0625 5.5625V8.9375C31.0625 9.24816 30.8107 9.5 30.5 9.5C30.1893 9.5 29.9375 9.24816 29.9375 8.9375V5.5625Z" fill="#333333"/>
<path d="M38.9375 5.5625C38.9375 5.25184 39.1893 5 39.5 5C39.8107 5 40.0625 5.25184 40.0625 5.5625V8.9375C40.0625 9.24816 39.8107 9.5 39.5 9.5C39.1893 9.5 38.9375 9.24816 38.9375 8.9375V5.5625Z" fill="#333333"/>
<path fill-rule="evenodd" clip-rule="evenodd" d="M30.5387 16.25C30.5261 16.2632 30.5132 16.2761 30.5 16.2887C30.4868 16.2761 30.4739 16.2632 30.4613 16.25C30.4739 16.2368 30.4868 16.2239 30.5 16.2113C30.5132 16.2239 30.5261 16.2368 30.5387 16.25ZM29.8125 14.5625C29.2602 14.5625 28.8125 15.0102 28.8125 15.5625V16.9375C28.8125 17.4898 29.2602 17.9375 29.8125 17.9375H31.1875C31.7398 17.9375 32.1875 17.4898 32.1875 16.9375V15.5625C32.1875 15.0102 31.7398 14.5625 31.1875 14.5625H29.8125Z" fill="#333333"/>
<path fill-rule="evenodd" clip-rule="evenodd" d="M35.0387 16.25C35.0261 16.2632 35.0132 16.2761 35 16.2887C34.9868 16.2761 34.9739 16.2632 34.9613 16.25C34.9739 16.2368 34.9868 16.2239 35 16.2113C35.0132 16.2239 35.0261 16.2368 35.0387 16.25ZM34.3125 14.5625C33.7602 14.5625 33.3125 15.0102 33.3125 15.5625V16.9375C33.3125 17.4898 33.7602 17.9375 34.3125 17.9375H35.6875C36.2398 17.9375 36.6875 17.4898 36.6875 16.9375V15.5625C36.6875 15.0102 36.2398 14.5625 35.6875 14.5625H34.3125Z" fill="#333333"/>
<path fill-rule="evenodd" clip-rule="evenodd" d="M39.5387 16.25C39.5261 16.2632 39.5132 16.2761 39.5 16.2887C39.4868 16.2761 39.4739 16.2632 39.4613 16.25C39.4739 16.2368 39.4868 16.2239 39.5 16.2113C39.5132 16.2239 39.5261 16.2368 39.5387 16.25ZM38.8125 14.5625C38.2602 14.5625 37.8125 15.0102 37.8125 15.5625V16.9375C37.8125 17.4898 38.2602 17.9375 38.8125 17.9375H40.1875C40.7398 17.9375 41.1875 17.4898 41.1875 16.9375V15.5625C41.1875 15.0102 40.7398 14.5625 40.1875 14.5625H38.8125Z" fill="#333333"/>
<path fill-rule="evenodd" clip-rule="evenodd" d="M30.5387 20.75C30.5261 20.7632 30.5132 20.7761 30.5 20.7887C30.4868 20.7761 30.4739 20.7632 30.4613 20.75C30.4739 20.7368 30.4868 20.7239 30.5 20.7113C30.5132 20.7239 30.5261 20.7368 30.5387 20.75ZM29.8125 19.0625C29.2602 19.0625 28.8125 19.5102 28.8125 20.0625V21.4375C28.8125 21.9898 29.2602 22.4375 29.8125 22.4375H31.1875C31.7398 22.4375 32.1875 21.9898 32.1875 21.4375V20.0625C32.1875 19.5102 31.7398 19.0625 31.1875 19.0625H29.8125Z" fill="#333333"/>
<path fill-rule="evenodd" clip-rule="evenodd" d="M35.0387 20.75C35.0261 20.7632 35.0132 20.7761 35 20.7887C34.9868 20.7761 34.9739 20.7632 34.9613 20.75C34.9739 20.7368 34.9868 20.7239 35 20.7113C35.0132 20.7239 35.0261 20.7368 35.0387 20.75ZM34.3125 19.0625C33.7602 19.0625 33.3125 19.5102 33.3125 20.0625V21.4375C33.3125 21.9898 33.7602 22.4375 34.3125 22.4375H35.6875C36.2398 22.4375 36.6875 21.9898 36.6875 21.4375V20.0625C36.6875 19.5102 36.2398 19.0625 35.6875 19.0625H34.3125Z" fill="#333333"/>
<path fill-rule="evenodd" clip-rule="evenodd" d="M39.5387 20.75C39.5261 20.7632 39.5132 20.7761 39.5 20.7887C39.4868 20.7761 39.4739 20.7632 39.4613 20.75C39.4739 20.7368 39.4868 20.7239 39.5 20.7113C39.5132 20.7239 39.5261 20.7368 39.5387 20.75ZM38.8125 19.0625C38.2602 19.0625 37.8125 19.5102 37.8125 20.0625V21.4375C37.8125 21.9898 38.2602 22.4375 38.8125 22.4375H40.1875C40.7398 22.4375 41.1875 21.9898 41.1875 21.4375V20.0625C41.1875 19.5102 40.7398 19.0625 40.1875 19.0625H38.8125Z" fill="#333333"/>
<path fill-rule="evenodd" clip-rule="evenodd" d="M42 9.25H28L28 23.25H42V9.25ZM28 7.25C26.8954 7.25 26 8.14543 26 9.25V23.25C26 24.3546 26.8954 25.25 28 25.25H42C43.1046 25.25 44 24.3546 44 23.25V9.25C44 8.14543 43.1046 7.25 42 7.25H28Z" fill="#333333"/>
<path d="M26 9.25C26 8.14543 26.8954 7.25 28 7.25H42C43.1046 7.25 44 8.14543 44 9.25V11.4375C44 12.5421 43.1046 13.4375 42 13.4375H28C26.8954 13.4375 26 12.5421 26 11.4375V9.25Z" fill="#333333"/>
<path fill-rule="evenodd" clip-rule="evenodd" d="M42 9.25H28L28 11.4375H42V9.25ZM28 7.25C26.8954 7.25 26 8.14543 26 9.25V11.4375C26 12.5421 26.8954 13.4375 28 13.4375H42C43.1046 13.4375 44 12.5421 44 11.4375V9.25C44 8.14543 43.1046 7.25 42 7.25H28Z" fill="#333333"/>
<path fill-rule="evenodd" clip-rule="evenodd" d="M43.4375 13.4375H26.5625V11.4375H43.4375V13.4375Z" fill="#333333"/>
</svg>
