<svg width="48" height="48" viewBox="0 0 48 48" fill="none" xmlns="http://www.w3.org/2000/svg">
<path fill-rule="evenodd" clip-rule="evenodd" d="M23.9989 6C16.8192 6 10.9989 11.8203 10.9989 19C10.9989 24.4045 14.2969 29.0388 18.9901 31H19V31.0041C20.5389 31.6457 22.2275 32 23.9989 32C25.7711 32 27.4605 31.6454 29 31.0032V31H29.0077C33.7009 29.0388 36.9989 24.4045 36.9989 19C36.9989 11.8203 31.1786 6 23.9989 6ZM31 32.2693C35.7572 29.7542 38.9989 24.7556 38.9989 19C38.9989 10.7157 32.2832 4 23.9989 4C15.7146 4 8.9989 10.7157 8.9989 19C8.9989 24.7565 12.2416 29.7557 17 32.2705V43C17 43.3688 17.203 43.7077 17.5281 43.8817C17.8533 44.0557 18.2478 44.0366 18.5547 43.8321L24 40.2019L29.4453 43.8321C29.7522 44.0366 30.1467 44.0557 30.4719 43.8817C30.797 43.7077 31 43.3688 31 43V32.2693ZM29 33.1461C27.4358 33.6991 25.7525 34 23.9989 34C22.2461 34 20.5636 33.6994 19 33.1469V41.1315L23.4453 38.1679C23.7812 37.944 24.2188 37.944 24.5547 38.1679L29 41.1315V33.1461ZM24 12C20.134 12 17 15.134 17 19C17 22.866 20.134 26 24 26C27.866 26 31 22.866 31 19C31 15.134 27.866 12 24 12ZM15 19C15 14.0294 19.0294 10 24 10C28.9706 10 33 14.0294 33 19C33 23.9706 28.9706 28 24 28C19.0294 28 15 23.9706 15 19Z" fill="#333333"/>
</svg>
