<svg width="48" height="48" viewBox="0 0 48 48" fill="none" xmlns="http://www.w3.org/2000/svg">
<path fill-rule="evenodd" clip-rule="evenodd" d="M19.8092 30.7931C18.1061 32.1014 17 34.1878 17 36.5458C17 37.3618 17.1613 38.5863 17.5728 39.5684C17.9979 40.5831 18.5227 41.0001 19.1111 41.0001C19.7651 41.0001 20.3333 40.4516 20.3333 39.7275C20.3333 39.4073 20.2103 39.0948 19.9724 38.5501C19.966 38.5353 19.9594 38.5203 19.9528 38.5051C19.7427 38.0248 19.4444 37.3429 19.4444 36.5458C19.4444 35.6643 19.8416 34.7531 20.2819 34.0379C20.7313 33.3078 21.3273 32.618 21.9104 32.1923L23.0896 33.8078C22.7693 34.0415 22.3375 34.5138 21.985 35.0864C21.6234 35.6738 21.4444 36.2058 21.4444 36.5458C21.4444 36.8871 21.5714 37.2141 21.8053 37.7498C21.8144 37.7705 21.8236 37.7915 21.833 37.8131C22.0394 38.284 22.3333 38.9548 22.3333 39.7275C22.3333 41.5136 20.9117 43.0001 19.1111 43.0001C17.286 43.0001 16.2551 41.599 15.7281 40.3412C15.1874 39.0507 15 37.5481 15 36.5458C15 33.5505 16.4077 30.884 18.5908 29.207L19.8092 30.7931ZM31 36.5458C31 34.1878 29.8939 32.1014 28.1908 30.7931L29.4092 29.207C31.5923 30.884 33 33.5505 33 36.5458C33 37.4722 32.7902 38.97 32.2468 40.2705C31.7286 41.5104 30.7076 43.0001 28.8889 43.0001C27.0883 43.0001 25.6667 41.5136 25.6667 39.7275C25.6667 38.9711 25.9589 38.2968 26.1635 37.8247C26.1735 37.8015 26.1834 37.7788 26.193 37.7565C26.4281 37.2118 26.5556 36.8784 26.5556 36.5458C26.5556 36.2058 26.3766 35.6738 26.015 35.0864C25.6625 34.5138 25.2307 34.0415 24.9104 33.8078L26.0896 32.1923C26.6727 32.618 27.2687 33.3078 27.7181 34.0379C28.1584 34.7531 28.5556 35.6643 28.5556 36.5458C28.5556 37.3317 28.258 38.02 28.0491 38.5032C28.0424 38.5187 28.0358 38.534 28.0292 38.5491C27.7894 39.1048 27.6667 39.4204 27.6667 39.7275C27.6667 40.4516 28.2349 41.0001 28.8889 41.0001C29.4159 41.0001 29.9504 40.5785 30.4014 39.4993C30.8271 38.4806 31 37.2513 31 36.5458Z" fill="#333333"/>
<path fill-rule="evenodd" clip-rule="evenodd" d="M24 15C26.2091 15 28 13.2091 28 11C28 8.79086 26.2091 7 24 7C21.7909 7 20 8.79086 20 11C20 13.2091 21.7909 15 24 15ZM24 17C27.3137 17 30 14.3137 30 11C30 7.68629 27.3137 5 24 5C20.6863 5 18 7.68629 18 11C18 14.3137 20.6863 17 24 17Z" fill="#333333"/>
<path fill-rule="evenodd" clip-rule="evenodd" d="M14.3009 17.1247L14.3123 17.1492C15.6255 19.9632 17.1206 21.4372 18.7971 22.1657L19.9999 22.6885V29C19.9999 29.1189 20.0679 29.5184 20.3735 29.9917C20.6578 30.4318 21.1082 30.8718 21.7847 31.1604C21.9753 31.2417 22.1896 31.3437 22.3712 31.4301C22.4071 31.4472 22.4417 31.4636 22.4746 31.4792C22.6968 31.5844 22.9028 31.6795 23.108 31.7628C23.5434 31.9395 23.8288 32 23.9999 32C24.1711 32 24.4565 31.9395 24.8919 31.7628C25.0971 31.6795 25.3031 31.5844 25.5253 31.4792C25.5582 31.4636 25.5928 31.4472 25.6286 31.4301C25.8103 31.3437 26.0246 31.2417 26.2152 31.1604C26.8917 30.8718 27.3421 30.4318 27.6263 29.9917C27.932 29.5184 27.9999 29.1189 27.9999 29V22.6885L29.2028 22.1657C30.8792 21.4372 32.3744 19.9632 33.6876 17.1492L33.699 17.1247L33.7111 17.1005C33.7465 17.0298 33.8329 16.7778 33.8256 16.4969C33.8195 16.2629 33.7555 16.079 33.5857 15.9092C33.4356 15.7591 33.32 15.6896 33.2472 15.6559C33.176 15.623 33.1143 15.6094 33.0523 15.6056C32.9146 15.5972 32.695 15.6351 32.3871 15.7875C32.3967 15.7828 32.4021 15.7801 32.4026 15.7809C32.4059 15.7853 32.2593 15.8987 31.8611 16.3739C31.7839 16.4661 31.6981 16.5706 31.6047 16.6842C31.2575 17.1069 30.8064 17.6559 30.309 18.1676C28.9748 19.5399 26.9906 20.995 23.9999 20.995C21.0093 20.995 19.0251 19.5399 17.6909 18.1676C17.1935 17.6559 16.7424 17.1069 16.3951 16.6842C16.3018 16.5706 16.216 16.4661 16.1387 16.3739C15.7406 15.8987 15.594 15.7853 15.5972 15.7809C15.5977 15.7802 15.601 15.7817 15.607 15.7847C15.3022 15.6347 15.0845 15.5972 14.9476 15.6056C14.8856 15.6094 14.8239 15.623 14.7527 15.6559C14.6799 15.6896 14.5643 15.7591 14.4141 15.9092C14.2443 16.079 14.1803 16.2629 14.1743 16.4969C14.167 16.7778 14.2534 17.0298 14.2888 17.1005L14.3009 17.1247ZM35.4999 17.995C35.8333 17.3283 36.1999 15.695 34.9999 14.495C33.7999 13.295 32.4999 13.5001 31.4999 13.995C31.0383 14.2235 30.5766 14.785 30.0275 15.4528C28.7925 16.9549 27.115 18.995 23.9999 18.995C20.8849 18.995 19.2074 16.9549 17.9724 15.4528C17.4232 14.785 16.9616 14.2235 16.4999 13.995C15.4999 13.5001 14.1999 13.295 12.9999 14.495C11.7999 15.695 12.1666 17.3283 12.4999 17.995C13.9489 21.0998 15.7431 23.0192 17.9999 24V29C17.9999 30.1218 18.8492 32.0826 20.9999 33C21.1491 33.0636 21.317 33.1434 21.4991 33.23C22.2023 33.5643 23.1188 34 23.9999 34C24.881 34 25.7976 33.5643 26.5007 33.23C26.6829 33.1434 26.8507 33.0636 26.9999 33C29.1507 32.0826 29.9999 30.1218 29.9999 29V24C32.2568 23.0192 34.051 21.0998 35.4999 17.995Z" fill="#333333"/>
<path fill-rule="evenodd" clip-rule="evenodd" d="M29.5 28H18.5V26H29.5V28Z" fill="#333333"/>
</svg>
