<svg width="48" height="49" viewBox="0 0 48 49" fill="none" xmlns="http://www.w3.org/2000/svg">
<path fill-rule="evenodd" clip-rule="evenodd" d="M24.0005 17.75C27.0381 17.75 29.5005 15.2876 29.5005 12.25C29.5005 9.21243 27.0381 6.75 24.0005 6.75C20.9629 6.75 18.5005 9.21243 18.5005 12.25C18.5005 15.2876 20.9629 17.75 24.0005 17.75ZM24.0005 15.75C25.9335 15.75 27.5005 14.183 27.5005 12.25C27.5005 10.317 25.9335 8.75 24.0005 8.75C22.0675 8.75 20.5005 10.317 20.5005 12.25C20.5005 14.183 22.0675 15.75 24.0005 15.75ZM18.0005 29.6904C18.0005 29.8121 18.0115 29.9439 18.0334 30.0831C16.18 31.6737 15.0005 34.0026 15.0005 36.6071C15.0005 37.5638 15.1898 38.9959 15.7371 40.2275C16.2784 41.4459 17.319 42.75 19.1116 42.75C20.8566 42.75 22.3338 41.3768 22.3338 39.6071C22.3338 38.8542 22.0312 38.2036 21.8262 37.7627L21.7968 37.6994C21.5607 37.1897 21.4449 36.9013 21.4449 36.6071C21.4449 36.3181 21.6108 35.8355 21.9713 35.2833C22.1808 34.9624 22.4191 34.6746 22.6453 34.4483C23.114 34.6293 23.5741 34.75 24.0005 34.75C24.427 34.75 24.8871 34.6294 25.3557 34.4484C25.5819 34.6746 25.8202 34.9625 26.0297 35.2833C26.3902 35.8355 26.556 36.3181 26.556 36.6071C26.556 36.8932 26.4397 37.1876 26.2023 37.7062L26.1712 37.774C25.968 38.2156 25.6672 38.8698 25.6672 39.6071C25.6672 41.3768 27.1444 42.75 28.8894 42.75C30.676 42.75 31.7067 41.3615 32.2388 40.1608C32.7881 38.9212 33.0005 37.4942 33.0005 36.6071C33.0005 34.0027 31.821 31.6738 29.9677 30.0832C29.9896 29.944 30.0005 29.8121 30.0005 29.6904V24.5511C30.3967 24.4732 30.7985 24.3879 31.2066 24.2955C32.0387 24.1073 32.8983 23.8894 33.7956 23.6427C35.3932 23.2036 36.3323 21.5526 35.8932 19.9549C35.4541 18.3573 33.803 17.4182 32.2054 17.8573C28.8414 18.7819 26.3867 19.1745 24.013 19.1644C21.6295 19.1544 19.1624 18.7381 15.76 17.8477C14.1571 17.4283 12.5177 18.3877 12.0982 19.9906C11.6788 21.5934 12.6381 23.2329 14.241 23.6523C15.5641 23.9985 16.8064 24.2916 18.0005 24.5248V29.6904ZM33.0281 21.7791C33.1069 21.7577 33.186 21.7361 33.2655 21.7143C33.798 21.5679 34.1111 21.0175 33.9647 20.485C33.8184 19.9525 33.268 19.6394 32.7355 19.7858C29.2708 20.738 26.6242 21.1755 24.0045 21.1644C21.3816 21.1533 18.7309 20.6925 15.2536 19.7826C14.7193 19.6428 14.1729 19.9626 14.0331 20.4969C13.8932 21.0312 14.213 21.5776 14.7473 21.7174C16.3448 22.1355 17.7967 22.4677 19.1726 22.708C19.6513 22.7916 20.0005 23.2071 20.0005 23.6931V26.75H28.0005V23.7197C28.0005 23.2335 28.3502 22.8178 28.8291 22.7345C30.1381 22.5067 31.5178 22.1885 33.0281 21.7791ZM17.0005 36.6071C17.0005 34.8412 17.7115 33.2276 18.8857 32.023C19.2868 32.5651 19.8461 33.0934 20.5984 33.4898C20.6485 33.5162 20.6995 33.5421 20.7514 33.5673C20.5891 33.7669 20.436 33.9765 20.2966 34.1899C19.8552 34.866 19.4449 35.7443 19.4449 36.6071C19.4449 37.3827 19.7516 38.0434 19.9603 38.4931L19.9819 38.5398C20.2224 39.059 20.3338 39.3331 20.3338 39.6071C20.3338 40.2044 19.8212 40.75 19.1116 40.75C18.4906 40.75 17.9756 40.3399 17.5648 39.4154C17.1599 38.5042 17.0005 37.3648 17.0005 36.6071ZM27.7044 34.1899C27.565 33.9765 27.4119 33.7669 27.2496 33.5673C28.0796 33.1639 28.6875 32.6013 29.1153 32.0231C30.2895 33.2277 31.0005 34.8412 31.0005 36.6071C31.0005 37.2587 30.8301 38.4031 30.4103 39.3504C29.9734 40.3364 29.4484 40.75 28.8894 40.75C28.1798 40.75 27.6672 40.2044 27.6672 39.6071C27.6672 39.3455 27.7783 39.0686 28.0209 38.5385L28.0428 38.4908C28.2503 38.0385 28.556 37.3719 28.556 36.6071C28.556 35.7443 28.1458 34.866 27.7044 34.1899ZM26.1435 32.1027C27.5437 31.5701 28 30.4586 28 30.0259V28.7H20V30.0259C20 30.4586 20.4563 31.5701 21.8565 32.1027C22.0167 32.1636 22.1968 32.24 22.3586 32.3087L22.4539 32.349C22.6528 32.433 22.8453 32.5124 23.04 32.5829C23.446 32.7298 23.7627 32.8 24 32.8C24.2373 32.8 24.554 32.7298 24.96 32.5829C25.1547 32.5124 25.3472 32.433 25.5461 32.349L25.6413 32.3087M26.1435 32.1027C25.9833 32.1636 25.8032 32.24 25.6413 32.3087L26.1435 32.1027Z" fill="#333333"/>
</svg>
