<svg width="48" height="48" viewBox="0 0 48 48" fill="none" xmlns="http://www.w3.org/2000/svg">
<path fill-rule="evenodd" clip-rule="evenodd" d="M38.5 36.5C35.4624 36.5 33 34.0376 33 31C33 27.9624 35.4624 25.5 38.5 25.5C41.5376 25.5 44 27.9624 44 31C44 34.0376 41.5376 36.5 38.5 36.5ZM38.5 38.5C34.3579 38.5 31 35.1421 31 31C31 26.8579 34.3579 23.5 38.5 23.5C42.6421 23.5 46 26.8579 46 31C46 35.1421 42.6421 38.5 38.5 38.5Z" fill="#333333"/>
<path fill-rule="evenodd" clip-rule="evenodd" d="M29.4104 8.5862C29.2481 8.2292 28.8922 8 28.5 8H23.25C22.6977 8 22.25 8.44772 22.25 9C22.25 9.55228 22.6977 10 23.25 10H27.8561L37.5896 31.4138C37.8182 31.9166 38.411 32.1389 38.9138 31.9104C39.4166 31.6818 39.6389 31.089 39.4104 30.5862L29.4104 8.5862Z" fill="#333333"/>
<path fill-rule="evenodd" clip-rule="evenodd" d="M9.5 36.5C6.46243 36.5 4 34.0376 4 31C4 27.9624 6.46243 25.5 9.5 25.5C12.5376 25.5 15 27.9624 15 31C15 34.0376 12.5376 36.5 9.5 36.5ZM9.5 38.5C5.35786 38.5 2 35.1421 2 31C2 26.8579 5.35786 23.5 9.5 23.5C13.6421 23.5 17 26.8579 17 31C17 35.1421 13.6421 38.5 9.5 38.5Z" fill="#333333"/>
<path fill-rule="evenodd" clip-rule="evenodd" d="M33.6441 20.7351C33.2217 20.3794 32.5908 20.4334 32.2351 20.8559L24.5348 30H9.49999C8.94771 30 8.49999 30.4477 8.49999 31C8.49999 31.5523 8.94771 32 9.49999 32H25C25.295 32 25.5749 31.8698 25.7649 31.6442L33.7649 22.1442C34.1207 21.7217 34.0666 21.0909 33.6441 20.7351Z" fill="#333333"/>
<path fill-rule="evenodd" clip-rule="evenodd" d="M31 14H25.754C21.7965 14 18.3033 16.5852 17.1468 20.37L17.0436 20.7078C16.951 21.0109 17.0076 21.3401 17.1962 21.5949C17.3848 21.8497 17.683 22 18 22H33.5V20H19.4291C20.5735 17.5847 23.0214 16 25.754 16H31V14Z" fill="#333333"/>
<path fill-rule="evenodd" clip-rule="evenodd" d="M13.1644 16.2526C12.9813 16.0899 12.7449 16 12.5 16H6.5C5.94772 16 5.5 16.4477 5.5 17V21C5.5 21.5523 5.94772 22 6.5 22H17C17.4152 22 17.7872 21.7435 17.9347 21.3554C18.0823 20.9673 17.9747 20.5284 17.6644 20.2526L13.1644 16.2526ZM12.1198 18L14.3698 20H7.5V18H12.1198Z" fill="#333333"/>
<path fill-rule="evenodd" clip-rule="evenodd" d="M38.4962 12.1318C38.2354 11.9827 37.9214 11.9588 37.641 12.0667L31.141 14.5667L31.859 16.4333L37.2151 14.3733L37.7865 17.8015L32.6521 17.0116L32.3479 18.9884L38.8479 19.9884C39.165 20.0371 39.4861 19.9309 39.7115 19.7027C39.9369 19.4745 40.0391 19.152 39.9864 18.8356L38.9864 12.8356C38.937 12.5393 38.757 12.2809 38.4962 12.1318Z" fill="#333333"/>
<path fill-rule="evenodd" clip-rule="evenodd" d="M23.7567 30.669L19.2567 25.669L20.7433 24.3311L25.2433 29.3311L23.7567 30.669Z" fill="#333333"/>
<path fill-rule="evenodd" clip-rule="evenodd" d="M27.5 20H18.5C16.8431 20 15.5 21.3431 15.5 23C15.5 24.6569 16.8431 26 18.5 26H24.5C26.1569 26 27.5 24.6569 27.5 23V20ZM25.5 22V23C25.5 23.5523 25.0523 24 24.5 24H18.5C17.9477 24 17.5 23.5523 17.5 23C17.5 22.4477 17.9477 22 18.5 22H25.5Z" fill="#333333"/>
</svg>
