<svg width="48" height="49" viewBox="0 0 48 49" fill="none" xmlns="http://www.w3.org/2000/svg">
<path fill-rule="evenodd" clip-rule="evenodd" d="M30.0001 12.2501C30.0001 15.5638 27.3139 18.25 24.0001 18.25C20.6864 18.25 18.0001 15.5638 18.0001 12.2501C18.0001 8.93635 20.6864 6.25 24.0001 6.25C27.3139 6.25 30.0001 8.93635 30.0001 12.2501ZM24.0001 16.25C26.2093 16.25 28.0001 14.4592 28.0001 12.2501C28.0001 10.0409 26.2093 8.25 24.0001 8.25C21.791 8.25 20.0001 10.0409 20.0001 12.2501C20.0001 14.4592 21.7909 16.25 24.0001 16.25Z" fill="#333333"/>
<path fill-rule="evenodd" clip-rule="evenodd" d="M32.4318 16.348C32.7791 16.5142 33.0001 16.865 33.0001 17.25V34.2914C33.0001 36.4799 32.3136 38.7179 30.8135 40.4234C29.295 42.1498 27.0122 43.25 24.0001 43.25C17.7911 43.25 15.0001 38.0835 15.0001 34.2914V17.8216C15 17.8114 15 17.8011 15.0001 17.7907V17.2506L15.1693 17.2505C15.1535 17.2505 15.1393 17.2503 15.1262 17.2503C15.0001 17.2504 15.0001 17.2506 15.0001 17.2506C15.0001 16.8713 15.2147 16.524 15.5542 16.3549C15.8937 16.1858 16.2997 16.2233 16.6025 16.4518C19.8108 18.8727 22.0813 19.9101 24.1741 19.9049C26.2562 19.8997 28.4062 18.8609 31.3728 16.4712C31.6726 16.2297 32.0845 16.1818 32.4318 16.348ZM17.0001 19.7465L17.0001 34.2914C17.0001 37.3209 19.2091 41.25 24.0001 41.25C26.488 41.25 28.2052 40.3605 29.3117 39.1025C30.1694 38.1273 30.7007 36.8834 30.9048 35.5537C30.7775 35.4596 30.6708 35.3339 30.5978 35.1812C29.0947 32.0355 26.3057 28.5408 23.3522 25.4819C21.1063 23.1559 18.8128 21.1305 17.0001 19.7465ZM31.0001 31.7996C29.3287 29.1431 27.0741 26.4573 24.7909 24.0927C23.9889 23.2621 23.1776 22.4651 22.3794 21.7172C22.9807 21.8428 23.5785 21.9064 24.179 21.9049C26.4613 21.8992 28.6194 20.9551 31.0001 19.2659V31.7996Z" fill="#333333"/>
</svg>
