<svg width="48" height="48" viewBox="0 0 48 48" fill="none" xmlns="http://www.w3.org/2000/svg">
<path fill-rule="evenodd" clip-rule="evenodd" d="M26.8284 8.4439C30.3432 4.92918 36.0416 4.92918 39.5564 8.4439C43.0711 11.9586 43.0711 17.6571 39.5564 21.1718L21.1716 39.5566C17.6569 43.0713 11.9584 43.0713 8.44366 39.5566C4.92894 36.0419 4.92894 30.3434 8.44366 26.8287L26.8284 8.4439ZM38.1421 9.85811C35.4085 7.12444 30.9763 7.12444 28.2426 9.85811L9.85787 28.2429C7.1242 30.9766 7.1242 35.4087 9.85787 38.1424C12.5915 40.8761 17.0237 40.8761 19.7574 38.1424L38.1421 19.7576C40.8758 17.0239 40.8758 12.5918 38.1421 9.85811Z" fill="#333333"/>
<path fill-rule="evenodd" clip-rule="evenodd" d="M23.9999 16.9287C24.7809 16.1477 26.0473 16.1477 26.8283 16.9287L31.071 21.1714C31.852 21.9524 31.852 23.2187 31.071 23.9998L23.9999 31.0709C23.2188 31.8519 21.9525 31.8519 21.1715 31.0709L16.9288 26.8282C16.1478 26.0472 16.1478 24.7808 16.9288 23.9998L23.9999 16.9287ZM29.6567 22.5856L25.4141 18.3429L18.343 25.414L22.5857 29.6566L29.6567 22.5856Z" fill="#333333"/>
<path d="M33.1213 16.1213C32.7308 16.5119 32.0976 16.5119 31.7071 16.1213C31.3166 15.7308 31.3166 15.0976 31.7071 14.7071C32.0976 14.3166 32.7308 14.3166 33.1213 14.7071C33.5119 15.0976 33.5119 15.7308 33.1213 16.1213Z" fill="#333333"/>
<path d="M34.1213 12.1213C33.7308 12.5119 33.0976 12.5119 32.7071 12.1213C32.3166 11.7308 32.3166 11.0976 32.7071 10.7071C33.0976 10.3166 33.7308 10.3166 34.1213 10.7071C34.5119 11.0976 34.5119 11.7308 34.1213 12.1213Z" fill="#333333"/>
<path d="M30.1213 13.1213C29.7308 13.5119 29.0976 13.5119 28.7071 13.1213C28.3166 12.7308 28.3166 12.0976 28.7071 11.7071C29.0976 11.3166 29.7308 11.3166 30.1213 11.7071C30.5119 12.0976 30.5119 12.7308 30.1213 13.1213Z" fill="#333333"/>
<path d="M36.1213 19.1213C35.7308 19.5119 35.0976 19.5119 34.7071 19.1213C34.3166 18.7308 34.3166 18.0976 34.7071 17.7071C35.0976 17.3166 35.7308 17.3166 36.1213 17.7071C36.5119 18.0976 36.5119 18.7308 36.1213 19.1213Z" fill="#333333"/>
<path d="M37.1213 15.1213C36.7308 15.5119 36.0976 15.5119 35.7071 15.1213C35.3166 14.7308 35.3166 14.0976 35.7071 13.7071C36.0976 13.3166 36.7308 13.3166 37.1213 13.7071C37.5119 14.0976 37.5119 14.7308 37.1213 15.1213Z" fill="#333333"/>
<path d="M14.7071 31.7073C15.0976 31.3168 15.7308 31.3168 16.1213 31.7073C16.5119 32.0978 16.5119 32.731 16.1213 33.1215C15.7308 33.512 15.0976 33.512 14.7071 33.1215C14.3166 32.731 14.3166 32.0978 14.7071 31.7073Z" fill="#333333"/>
<path d="M13.7071 35.7073C14.0976 35.3168 14.7308 35.3168 15.1213 35.7073C15.5119 36.0978 15.5119 36.731 15.1213 37.1215C14.7308 37.512 14.0976 37.512 13.7071 37.1215C13.3166 36.731 13.3166 36.0978 13.7071 35.7073Z" fill="#333333"/>
<path d="M17.7071 34.7073C18.0976 34.3168 18.7308 34.3168 19.1213 34.7073C19.5119 35.0978 19.5119 35.731 19.1213 36.1215C18.7308 36.512 18.0976 36.512 17.7071 36.1215C17.3166 35.731 17.3166 35.0978 17.7071 34.7073Z" fill="#333333"/>
<path d="M11.7071 28.7073C12.0976 28.3168 12.7308 28.3168 13.1213 28.7073C13.5119 29.0978 13.5119 29.731 13.1213 30.1215C12.7308 30.512 12.0976 30.512 11.7071 30.1215C11.3166 29.731 11.3166 29.0978 11.7071 28.7073Z" fill="#333333"/>
<path d="M10.7071 32.7073C11.0976 32.3168 11.7308 32.3168 12.1213 32.7073C12.5119 33.0978 12.5119 33.731 12.1213 34.1215C11.7308 34.512 11.0976 34.512 10.7071 34.1215C10.3166 33.731 10.3166 33.0978 10.7071 32.7073Z" fill="#333333"/>
</svg>
