<svg width="48" height="48" viewBox="0 0 48 48" fill="none" xmlns="http://www.w3.org/2000/svg">
<path fill-rule="evenodd" clip-rule="evenodd" d="M39 8H9C8.44771 8 8 8.44772 8 9V39C8 39.5523 8.44772 40 9 40H39C39.5523 40 40 39.5523 40 39V9C40 8.44771 39.5523 8 39 8ZM9 6C7.34315 6 6 7.34315 6 9V39C6 40.6569 7.34315 42 9 42H39C40.6569 42 42 40.6569 42 39V9C42 7.34315 40.6569 6 39 6H9Z" fill="#333333"/>
<path fill-rule="evenodd" clip-rule="evenodd" d="M15 18V20H20V18H15ZM14 16C13.4477 16 13 16.4477 13 17V21C13 21.5523 13.4477 22 14 22H21C21.5523 22 22 21.5523 22 21V17C22 16.4477 21.5523 16 21 16H14Z" fill="#333333"/>
<path fill-rule="evenodd" clip-rule="evenodd" d="M16 25.5407L12.2366 31.9923C11.4588 33.3256 12.4206 35 13.9642 35H21.0359C22.5794 35 23.5412 33.3256 22.7634 31.9923L19 25.5407V22H16V25.5407ZM21 20V25L24.491 30.9845C26.0465 33.6511 24.123 37 21.0359 37H13.9642C10.877 37 8.95351 33.6511 10.509 30.9845L14 25V20H21Z" fill="#333333"/>
<path fill-rule="evenodd" clip-rule="evenodd" d="M31.455 17.0366C34.0027 15.3805 36 13.8991 36 11H38C38 15.1009 34.9973 17.1195 32.545 18.7134C32.4558 18.7714 32.3673 18.8288 32.2796 18.8857C31.1001 19.6508 30.0599 20.3256 29.2754 21.1231C28.4719 21.94 28 22.8259 28 24C28 25.1741 28.4719 26.06 29.2754 26.8769C30.0599 27.6744 31.1001 28.3492 32.2796 29.1143C32.3673 29.1712 32.4558 29.2286 32.545 29.2866C34.9973 30.8805 38 32.8991 38 37H36C36 34.1009 34.0027 32.6195 31.455 30.9634C31.3547 30.8982 31.2533 30.8326 31.1511 30.7664C30.0203 30.0343 28.7962 29.2418 27.8496 28.2794C26.7781 27.19 26 25.8259 26 24C26 22.1741 26.7781 20.81 27.8496 19.7206C28.7962 18.7582 30.0204 17.9657 31.1511 17.2335C31.2533 17.1674 31.3547 17.1018 31.455 17.0366Z" fill="#333333"/>
<path fill-rule="evenodd" clip-rule="evenodd" d="M32.545 17.0366C29.9973 15.3805 28 13.8991 28 11H26C26 15.1009 29.0027 17.1195 31.455 18.7134C31.5442 18.7714 31.6327 18.8288 31.7204 18.8857C32.8999 19.6508 33.9401 20.3256 34.7246 21.1231C35.5281 21.94 36 22.8259 36 24C36 25.1741 35.5281 26.06 34.7246 26.8769C33.9401 27.6744 32.8999 28.3492 31.7204 29.1143C31.6327 29.1712 31.5442 29.2286 31.455 29.2866C29.0027 30.8805 26 32.8991 26 37H28C28 34.1009 29.9973 32.6195 32.545 30.9634C32.6453 30.8982 32.7467 30.8326 32.8489 30.7664C33.9797 30.0343 35.2038 29.2418 36.1504 28.2794C37.2219 27.19 38 25.8259 38 24C38 22.1741 37.2219 20.81 36.1504 19.7206C35.2038 18.7582 33.9796 17.9657 32.8489 17.2335C32.7467 17.1674 32.6453 17.1018 32.545 17.0366Z" fill="#333333"/>
<path fill-rule="evenodd" clip-rule="evenodd" d="M27 13C27 12.4477 27.4477 12 28 12H33C33.5523 12 34 12.4477 34 13C34 13.5523 33.5523 14 33 14H28C27.4477 14 27 13.5523 27 13Z" fill="#333333"/>
<path fill-rule="evenodd" clip-rule="evenodd" d="M30 35C30 34.4477 30.4477 34 31 34H36C36.5523 34 37 34.4477 37 35C37 35.5523 36.5523 36 36 36H31C30.4477 36 30 35.5523 30 35Z" fill="#333333"/>
<path fill-rule="evenodd" clip-rule="evenodd" d="M27 22C27 21.4477 27.4477 21 28 21H36C36.5523 21 37 21.4477 37 22C37 22.5523 36.5523 23 36 23H28C27.4477 23 27 22.5523 27 22Z" fill="#333333"/>
<path fill-rule="evenodd" clip-rule="evenodd" d="M27 26C27 25.4477 27.4477 25 28 25H36C36.5523 25 37 25.4477 37 26C37 26.5523 36.5523 27 36 27H28C27.4477 27 27 26.5523 27 26Z" fill="#333333"/>
</svg>
