<svg width="48" height="48" viewBox="0 0 48 48" fill="none" xmlns="http://www.w3.org/2000/svg">
<path fill-rule="evenodd" clip-rule="evenodd" d="M32 6H16C14.8954 6 14 6.89543 14 8V40C14 41.1046 14.8954 42 16 42H32C33.1046 42 34 41.1046 34 40V8C34 6.89543 33.1046 6 32 6ZM16 4C13.7909 4 12 5.79086 12 8V40C12 42.2091 13.7909 44 16 44H32C34.2091 44 36 42.2091 36 40V8C36 5.79086 34.2091 4 32 4H16Z" fill="#333333"/>
<path d="M24.6 42.806C24.9314 42.806 25.2 43.0733 25.2 43.403C25.2 43.7327 24.9314 44 24.6 44C24.2686 44 24 43.7327 24 43.403C24 43.0733 24.2686 42.806 24.6 42.806Z" fill="#333333"/>
<path d="M24.6 39.8209C24.9314 39.8209 25.2 40.0882 25.2 40.4179C25.2 40.7476 24.9314 41.0149 24.6 41.0149C24.2686 41.0149 24 40.7476 24 40.4179C24 40.0882 24.2686 39.8209 24.6 39.8209Z" fill="#333333"/>
<path d="M24.6 36.8358C24.9314 36.8358 25.2 37.103 25.2 37.4328C25.2 37.7625 24.9314 38.0298 24.6 38.0298C24.2686 38.0298 24 37.7625 24 37.4328C24 37.103 24.2686 36.8358 24.6 36.8358Z" fill="#333333"/>
<path d="M24.6 33.8509C24.9314 33.8509 25.2 34.1182 25.2 34.4479C25.2 34.7776 24.9314 35.0449 24.6 35.0449C24.2686 35.0449 24 34.7776 24 34.4479C24 34.1182 24.2686 33.8509 24.6 33.8509Z" fill="#333333"/>
<path d="M24.6 30.8658C24.9314 30.8658 25.2 31.1331 25.2 31.4628C25.2 31.7925 24.9314 32.0598 24.6 32.0598C24.2686 32.0598 24 31.7925 24 31.4628C24 31.1331 24.2686 30.8658 24.6 30.8658Z" fill="#333333"/>
<path d="M24.6 27.8807C24.9314 27.8807 25.2 28.148 25.2 28.4777C25.2 28.8074 24.9314 29.0747 24.6 29.0747C24.2686 29.0747 24 28.8074 24 28.4777C24 28.148 24.2686 27.8807 24.6 27.8807Z" fill="#333333"/>
<path d="M24.6 24.8956C24.9314 24.8956 25.2 25.1629 25.2 25.4926C25.2 25.8223 24.9314 26.0896 24.6 26.0896C24.2686 26.0896 24 25.8223 24 25.4926C24 25.1629 24.2686 24.8956 24.6 24.8956Z" fill="#333333"/>
<path d="M24.6 21.9105C24.9314 21.9105 25.2 22.1778 25.2 22.5075C25.2 22.8372 24.9314 23.1045 24.6 23.1045C24.2686 23.1045 24 22.8372 24 22.5075C24 22.1778 24.2686 21.9105 24.6 21.9105Z" fill="#333333"/>
<path d="M24.6 18.9254C24.9314 18.9254 25.2 19.1926 25.2 19.5224C25.2 19.8521 24.9314 20.1194 24.6 20.1194C24.2686 20.1194 24 19.8521 24 19.5224C24 19.1926 24.2686 18.9254 24.6 18.9254Z" fill="#333333"/>
<path d="M24.6 15.9402C24.9314 15.9402 25.2 16.2075 25.2 16.5373C25.2 16.867 24.9314 17.1343 24.6 17.1343C24.2686 17.1343 24 16.867 24 16.5373C24 16.2075 24.2686 15.9402 24.6 15.9402Z" fill="#333333"/>
<path d="M24.6 12.9551C24.9314 12.9551 25.2 13.2224 25.2 13.5522C25.2 13.8819 24.9314 14.1492 24.6 14.1492C24.2686 14.1492 24 13.8819 24 13.5522C24 13.2224 24.2686 12.9551 24.6 12.9551Z" fill="#333333"/>
<path d="M24.6 9.97028C24.9314 9.97028 25.2 10.2376 25.2 10.5673C25.2 10.897 24.9314 11.1643 24.6 11.1643C24.2686 11.1643 24 10.897 24 10.5673C24 10.2376 24.2686 9.97028 24.6 9.97028Z" fill="#333333"/>
<path d="M24.6 6.98517C24.9314 6.98517 25.2 7.25246 25.2 7.58218C25.2 7.91191 24.9314 8.1792 24.6 8.1792C24.2686 8.1792 24 7.91191 24 7.58218C24 7.25246 24.2686 6.98517 24.6 6.98517Z" fill="#333333"/>
<path d="M24.6 4.00006C24.9314 4.00006 25.2 4.26735 25.2 4.59708C25.2 4.9268 24.9314 5.19409 24.6 5.19409C24.2686 5.19409 24 4.9268 24 4.59708C24 4.26735 24.2686 4.00006 24.6 4.00006Z" fill="#333333"/>
<path d="M17.8407 6.83578C18.3023 6.37419 19.0506 6.37419 19.5122 6.83578C19.9738 7.29738 19.9738 8.04576 19.5122 8.50735L17.8407 10.1789C17.3791 10.6405 16.6307 10.6405 16.1691 10.1789C15.7075 9.71733 15.7075 8.96895 16.1691 8.50735L17.8407 6.83578Z" fill="#333333"/>
<path d="M17.8407 11.8358C18.3023 11.3742 19.0506 11.3742 19.5122 11.8358C19.9738 12.2974 19.9738 13.0458 19.5122 13.5074L17.8407 15.1789C17.3791 15.6405 16.6307 15.6405 16.1691 15.1789C15.7075 14.7173 15.7075 13.9689 16.1691 13.5074L17.8407 11.8358Z" fill="#333333"/>
<path d="M17.8407 16.8358C18.3023 16.3742 19.0506 16.3742 19.5122 16.8358C19.9738 17.2974 19.9738 18.0458 19.5122 18.5074L17.8407 20.1789C17.3791 20.6405 16.6307 20.6405 16.1691 20.1789C15.7075 19.7173 15.7075 18.9689 16.1691 18.5074L17.8407 16.8358Z" fill="#333333"/>
<path d="M17.8407 21.8358C18.3023 21.3742 19.0506 21.3742 19.5122 21.8358C19.9738 22.2974 19.9738 23.0458 19.5122 23.5074L17.8407 25.1789C17.3791 25.6405 16.6307 25.6405 16.1691 25.1789C15.7075 24.7173 15.7075 23.9689 16.1691 23.5074L17.8407 21.8358Z" fill="#333333"/>
<path d="M17.8407 26.8358C18.3023 26.3742 19.0506 26.3742 19.5122 26.8358C19.9738 27.2974 19.9738 28.0458 19.5122 28.5074L17.8407 30.1789C17.3791 30.6405 16.6307 30.6405 16.1691 30.1789C15.7075 29.7173 15.7075 28.9689 16.1691 28.5074L17.8407 26.8358Z" fill="#333333"/>
<path d="M17.8407 31.8358C18.3023 31.3742 19.0506 31.3742 19.5122 31.8358C19.9738 32.2974 19.9738 33.0458 19.5122 33.5074L17.8407 35.1789C17.3791 35.6405 16.6307 35.6405 16.1691 35.1789C15.7075 34.7173 15.7075 33.9689 16.1691 33.5074L17.8407 31.8358Z" fill="#333333"/>
<path d="M17.8407 36.8358C18.3023 36.3742 19.0506 36.3742 19.5122 36.8358C19.9738 37.2974 19.9738 38.0458 19.5122 38.5074L17.8407 40.1789C17.3791 40.6405 16.6307 40.6405 16.1691 40.1789C15.7075 39.7173 15.7075 38.9689 16.1691 38.5074L17.8407 36.8358Z" fill="#333333"/>
<path d="M29.8407 6.83578C30.3023 6.37419 31.0506 6.37419 31.5122 6.83578C31.9738 7.29738 31.9738 8.04576 31.5122 8.50735L29.8407 10.1789C29.3791 10.6405 28.6307 10.6405 28.1691 10.1789C27.7075 9.71733 27.7075 8.96895 28.1691 8.50735L29.8407 6.83578Z" fill="#333333"/>
<path d="M29.8407 11.8358C30.3023 11.3742 31.0506 11.3742 31.5122 11.8358C31.9738 12.2974 31.9738 13.0458 31.5122 13.5074L29.8407 15.1789C29.3791 15.6405 28.6307 15.6405 28.1691 15.1789C27.7075 14.7173 27.7075 13.9689 28.1691 13.5074L29.8407 11.8358Z" fill="#333333"/>
<path d="M29.8407 16.8358C30.3023 16.3742 31.0506 16.3742 31.5122 16.8358C31.9738 17.2974 31.9738 18.0458 31.5122 18.5074L29.8407 20.1789C29.3791 20.6405 28.6307 20.6405 28.1691 20.1789C27.7075 19.7173 27.7075 18.9689 28.1691 18.5074L29.8407 16.8358Z" fill="#333333"/>
<path d="M29.8407 21.8358C30.3023 21.3742 31.0506 21.3742 31.5122 21.8358C31.9738 22.2974 31.9738 23.0458 31.5122 23.5074L29.8407 25.1789C29.3791 25.6405 28.6307 25.6405 28.1691 25.1789C27.7075 24.7173 27.7075 23.9689 28.1691 23.5074L29.8407 21.8358Z" fill="#333333"/>
<path d="M29.8407 26.8358C30.3023 26.3742 31.0506 26.3742 31.5122 26.8358C31.9738 27.2974 31.9738 28.0458 31.5122 28.5074L29.8407 30.1789C29.3791 30.6405 28.6307 30.6405 28.1691 30.1789C27.7075 29.7173 27.7075 28.9689 28.1691 28.5074L29.8407 26.8358Z" fill="#333333"/>
<path d="M29.8407 31.8358C30.3023 31.3742 31.0506 31.3742 31.5122 31.8358C31.9738 32.2974 31.9738 33.0458 31.5122 33.5074L29.8407 35.1789C29.3791 35.6405 28.6307 35.6405 28.1691 35.1789C27.7075 34.7173 27.7075 33.9689 28.1691 33.5074L29.8407 31.8358Z" fill="#333333"/>
<path d="M29.8407 36.8358C30.3023 36.3742 31.0506 36.3742 31.5122 36.8358C31.9738 37.2974 31.9738 38.0458 31.5122 38.5074L29.8407 40.1789C29.3791 40.6405 28.6307 40.6405 28.1691 40.1789C27.7075 39.7173 27.7075 38.9689 28.1691 38.5074L29.8407 36.8358Z" fill="#333333"/>
</svg>
