<svg width="48" height="48" viewBox="0 0 48 48" fill="none" xmlns="http://www.w3.org/2000/svg">
<path fill-rule="evenodd" clip-rule="evenodd" d="M16.5 12C16.9168 12 17.29 12.2586 17.4363 12.6489L20.9363 21.9822C21.1302 22.4993 20.8682 23.0757 20.3511 23.2697C19.834 23.4636 19.2576 23.2016 19.0637 22.6845L16.5 15.848L13.9363 22.6845C13.7424 23.2016 13.166 23.4636 12.6489 23.2697C12.1318 23.0757 11.8697 22.4993 12.0637 21.9822L15.5637 12.6489C15.71 12.2586 16.0832 12 16.5 12Z" fill="#333333"/>
<path fill-rule="evenodd" clip-rule="evenodd" d="M13.5555 19L19.4444 19L19.4444 21L13.5555 21L13.5555 19Z" fill="#333333"/>
<path fill-rule="evenodd" clip-rule="evenodd" d="M31 18C31 17.4477 31.4477 17 32 17L38 17C38.5523 17 39 17.4477 39 18C39 18.5523 38.5523 19 38 19L32 19C31.4477 19 31 18.5523 31 18Z" fill="#333333"/>
<path fill-rule="evenodd" clip-rule="evenodd" d="M18.3856 5.33391C20.3549 3.27379 23.6451 3.27379 25.6144 5.33391L26.1418 5.88566H31.3302C33.9092 5.88566 36 7.97642 36 10.5555V14H34V10.5555C34 9.08099 32.8047 7.88566 31.3302 7.88566H25.7143C25.4412 7.88566 25.1801 7.77402 24.9914 7.57665L24.1686 6.71587C22.9871 5.4798 21.0129 5.4798 19.8314 6.71587L19.0086 7.57665C18.8199 7.77402 18.5588 7.88566 18.2857 7.88566H13C11.3431 7.88566 10 9.22881 10 10.8857V33C10 34.6568 11.3431 36 13 36H31C32.6569 36 34 34.6568 34 33V22H36V33C36 35.7614 33.7614 38 31 38H13C10.2386 38 8 35.7614 8 33V10.8857C8 8.12425 10.2386 5.88566 13 5.88566H17.8582L18.3856 5.33391Z" fill="#333333"/>
<path fill-rule="evenodd" clip-rule="evenodd" d="M21 44V36H23V44H21Z" fill="#333333"/>
<path fill-rule="evenodd" clip-rule="evenodd" d="M28 40H16V38H28V40Z" fill="#333333"/>
<path fill-rule="evenodd" clip-rule="evenodd" d="M32.0689 27.6418C30.7749 26.8888 28.9145 26.4415 26.5082 27.8612C23.551 29.6059 20.766 30.0586 17.9243 30.119C16.6899 30.1453 15.4295 30.0974 14.1531 30.049C13.9779 30.0423 13.8025 30.0357 13.6268 30.0292C12.1588 29.975 10.6498 29.9321 9.04162 29.9991L8.95839 28.0008C10.6501 27.9303 12.2255 27.9761 13.7005 28.0306C13.8789 28.0371 14.0556 28.0438 14.2306 28.0505C15.5141 28.0991 16.7109 28.1444 17.8818 28.1195C20.5089 28.0636 22.924 27.6537 25.4919 26.1387C28.6105 24.2987 31.2501 24.8513 33.0748 25.9132C33.9625 26.4298 34.6445 27.0561 35.1022 27.5472C35.3326 27.7943 35.5101 28.0115 35.6323 28.1703C35.6935 28.2498 35.7411 28.315 35.7749 28.3625C35.7917 28.3863 35.8052 28.4056 35.8151 28.4201L35.8273 28.4382L35.8315 28.4444L35.8338 28.4478C35.8341 28.4482 35.8344 28.4487 35 28.9999C34.1657 29.5511 34.1659 29.5515 34.1662 29.5519L34.1647 29.5497C34.1611 29.5445 34.1543 29.5347 34.1444 29.5208C34.1245 29.4928 34.0921 29.4482 34.0475 29.3903C33.9581 29.2741 33.821 29.1059 33.6392 28.9108C33.2727 28.5177 32.7407 28.0328 32.0689 27.6418Z" fill="#333333"/>
<path fill-rule="evenodd" clip-rule="evenodd" d="M26.5876 15.25C26.5876 14.5953 26.0251 14 25.25 14V12C27.057 12 28.5876 13.4194 28.5876 15.25C28.5876 17.0806 27.057 18.5 25.25 18.5V16.5C26.0251 16.5 26.5876 15.9047 26.5876 15.25Z" fill="#333333"/>
<path fill-rule="evenodd" clip-rule="evenodd" d="M26.5876 19.75C26.5876 19.0953 26.0251 18.5 25.25 18.5V16.5C27.057 16.5 28.5876 17.9194 28.5876 19.75C28.5876 21.5806 27.057 23 25.25 23V21C26.0251 21 26.5876 20.4047 26.5876 19.75Z" fill="#333333"/>
<path fill-rule="evenodd" clip-rule="evenodd" d="M22 12H25.25V14H24V21H25.25V23H22V12Z" fill="#333333"/>
<path fill-rule="evenodd" clip-rule="evenodd" d="M23 16.5H26.75V18.5H23V16.5Z" fill="#333333"/>
</svg>
