<svg width="48" height="48" viewBox="0 0 48 48" fill="none" xmlns="http://www.w3.org/2000/svg">
<path fill-rule="evenodd" clip-rule="evenodd" d="M32 6H16C14.8954 6 14 6.89543 14 8V40C14 41.1046 14.8954 42 16 42H32C33.1046 42 34 41.1046 34 40V8C34 6.89543 33.1046 6 32 6ZM16 4C13.7909 4 12 5.79086 12 8V40C12 42.2091 13.7909 44 16 44H32C34.2091 44 36 42.2091 36 40V8C36 5.79086 34.2091 4 32 4H16Z" fill="#333333"/>
<path d="M15 24C15 24.5523 14.5523 25 14 25C13.4477 25 13 24.5523 13 24C13 23.4477 13.4477 23 14 23C14.5523 23 15 23.4477 15 24Z" fill="#333333"/>
<path d="M19 24C19 24.5523 18.5523 25 18 25C17.4477 25 17 24.5523 17 24C17 23.4477 17.4477 23 18 23C18.5523 23 19 23.4477 19 24Z" fill="#333333"/>
<path d="M23 24C23 24.5523 22.5523 25 22 25C21.4477 25 21 24.5523 21 24C21 23.4477 21.4477 23 22 23C22.5523 23 23 23.4477 23 24Z" fill="#333333"/>
<path d="M27 24C27 24.5523 26.5523 25 26 25C25.4477 25 25 24.5523 25 24C25 23.4477 25.4477 23 26 23C26.5523 23 27 23.4477 27 24Z" fill="#333333"/>
<path d="M31 24C31 24.5523 30.5523 25 30 25C29.4477 25 29 24.5523 29 24C29 23.4477 29.4477 23 30 23C30.5523 23 31 23.4477 31 24Z" fill="#333333"/>
<path d="M35 24C35 24.5523 34.5523 25 34 25C33.4477 25 33 24.5523 33 24C33 23.4477 33.4477 23 34 23C34.5523 23 35 23.4477 35 24Z" fill="#333333"/>
<path d="M27 14C27 15.6569 25.6569 17 24 17C22.3431 17 21 15.6569 21 14C21 12.3431 22.3431 11 24 11C25.6569 11 27 12.3431 27 14Z" fill="#333333"/>
</svg>
