<svg width="48" height="48" viewBox="0 0 48 48" fill="none" xmlns="http://www.w3.org/2000/svg">
<path fill-rule="evenodd" clip-rule="evenodd" d="M28 8.11433C27.4598 8.11433 26.9426 7.89581 26.566 7.50849L25.434 6.34413L26.5559 5.25338L25.434 6.34412C24.6486 5.53633 23.3514 5.53633 22.566 6.34412L21.434 7.50849C21.0574 7.89581 20.5402 8.11433 20 8.11433H14C12.8954 8.11433 12 9.00976 12 10.1143V34C12 35.1046 12.8954 36 14 36H34C35.1046 36 36 35.1046 36 34.0001V10.1143C36 9.00976 35.1046 8.11433 34 8.11433H28ZM38 10.1143V34.0001C38 36.2092 36.2091 38 34 38H14C11.7909 38 10 36.2092 10 34V10.1143C10 7.90519 11.7909 6.11433 14 6.11433H20L21.132 4.94997C22.7027 3.33439 25.2973 3.33439 26.868 4.94997L28 6.11433H34C36.2091 6.11433 38 7.90519 38 10.1143Z" fill="#333333"/>
<path fill-rule="evenodd" clip-rule="evenodd" d="M26 17C26 16.4477 26.4477 16 27 16L33 16C33.5523 16 34 16.4477 34 17C34 17.5523 33.5523 18 33 18L27 18C26.4477 18 26 17.5523 26 17Z" fill="#333333"/>
<path fill-rule="evenodd" clip-rule="evenodd" d="M23 44V36H25V44H23Z" fill="#333333"/>
<path fill-rule="evenodd" clip-rule="evenodd" d="M30 40H18V38H30V40Z" fill="#333333"/>
<path fill-rule="evenodd" clip-rule="evenodd" d="M34.0689 28.642C32.7749 27.889 30.9145 27.4416 28.5081 28.8613C25.551 30.606 22.766 31.0587 19.9243 31.1192C18.6899 31.1454 17.4294 31.0976 16.153 31.0491C15.9779 31.0425 15.8025 31.0358 15.6267 31.0293C14.1588 30.9752 12.6498 30.9322 11.0416 30.9992L10.9584 29.0009C12.6501 28.9305 14.2255 28.9763 15.7005 29.0307C15.8789 29.0373 16.0556 29.0439 16.2306 29.0506C17.5141 29.0992 18.7109 29.1445 19.8818 29.1196C22.5089 29.0637 24.924 28.6538 27.4918 27.1388C30.6105 25.2988 33.2501 25.8515 35.0748 26.9134C35.9624 27.4299 36.6445 28.0562 37.1022 28.5473C37.3325 28.7944 37.5101 29.0116 37.6323 29.1704C37.6935 29.2499 37.7411 29.3152 37.7749 29.3626C37.7917 29.3864 37.8051 29.4057 37.8151 29.4202L37.8273 29.4383L37.8315 29.4445L37.8337 29.4479C37.834 29.4484 37.8343 29.4488 37 30C36.1656 30.5513 36.1659 30.5517 36.1662 30.552L36.1646 30.5499C36.1611 30.5447 36.1543 30.5349 36.1444 30.5209C36.1245 30.4929 36.0921 30.4483 36.0475 30.3904C35.9581 30.2743 35.821 30.106 35.6392 29.9109C35.2727 29.5178 34.7407 29.0329 34.0689 28.642Z" fill="#333333"/>
<path fill-rule="evenodd" clip-rule="evenodd" d="M22.1169 14C22.1169 12.9311 21.2055 12 20 12V10C22.2373 10 24.1169 11.7552 24.1169 14C24.1169 16.2448 22.2373 18 20 18V16C21.2055 16 22.1169 15.0689 22.1169 14Z" fill="#333333"/>
<path fill-rule="evenodd" clip-rule="evenodd" d="M22.1169 20C22.1169 18.9311 21.2055 18 20 18V16C22.2373 16 24.1169 17.7552 24.1169 20C24.1169 22.2448 22.2373 24 20 24V22C21.2055 22 22.1169 21.0689 22.1169 20Z" fill="#333333"/>
<path fill-rule="evenodd" clip-rule="evenodd" d="M16 10H20V12H18V22H20V24H16V10Z" fill="#333333"/>
<path fill-rule="evenodd" clip-rule="evenodd" d="M17 16L22 16V18H17V16Z" fill="#333333"/>
</svg>
