<svg width="48" height="48" viewBox="0 0 48 48" fill="none" xmlns="http://www.w3.org/2000/svg">
<path fill-rule="evenodd" clip-rule="evenodd" d="M28 8.11427C27.4598 8.11427 26.9426 7.89575 26.566 7.50843L25.434 6.34406L26.5559 5.25332L25.434 6.34406C24.6486 5.53627 23.3514 5.53627 22.566 6.34406L21.434 7.50843C21.0574 7.89575 20.5402 8.11427 20 8.11427H14C12.8954 8.11427 12 9.0097 12 10.1143V34C12 35.1046 12.8954 36 14 36H34C35.1046 36 36 35.1046 36 34V10.1143C36 9.0097 35.1046 8.11427 34 8.11427H28ZM38 10.1143V34C38 36.2091 36.2091 38 34 38H14C11.7909 38 10 36.2091 10 34V10.1143C10 7.90513 11.7909 6.11427 14 6.11427H20L21.132 4.94991C22.7027 3.33432 25.2973 3.33432 26.868 4.94991L28 6.11427H34C36.2091 6.11427 38 7.90513 38 10.1143Z" fill="#333333"/>
<path fill-rule="evenodd" clip-rule="evenodd" d="M26 17C26 16.4477 26.4477 16 27 16L33 16C33.5523 16 34 16.4477 34 17C34 17.5523 33.5523 18 33 18L27 18C26.4477 18 26 17.5523 26 17Z" fill="#333333"/>
<path fill-rule="evenodd" clip-rule="evenodd" d="M30 21C29.4477 21 29 20.5523 29 20L29 14C29 13.4477 29.4477 13 30 13C30.5523 13 31 13.4477 31 14L31 20C31 20.5523 30.5523 21 30 21Z" fill="#333333"/>
<path fill-rule="evenodd" clip-rule="evenodd" d="M23 44V36H25V44H23Z" fill="#333333"/>
<path fill-rule="evenodd" clip-rule="evenodd" d="M30 40H18V38H30V40Z" fill="#333333"/>
<path fill-rule="evenodd" clip-rule="evenodd" d="M34.0689 28.6419C32.7749 27.8889 30.9145 27.4416 28.5082 28.8613C25.551 30.606 22.766 31.0586 19.9243 31.1191C18.6899 31.1454 17.4295 31.0975 16.1531 31.049C15.9779 31.0424 15.8025 31.0357 15.6268 31.0293C14.1588 30.9751 12.6498 30.9322 11.0416 30.9991L10.9584 29.0009C12.6501 28.9304 14.2255 28.9762 15.7005 29.0306C15.8789 29.0372 16.0556 29.0439 16.2306 29.0505C17.5141 29.0991 18.7109 29.1445 19.8818 29.1195C22.5089 29.0637 24.924 28.6538 27.4919 27.1387C30.6105 25.2987 33.2501 25.8514 35.0748 26.9133C35.9625 27.4298 36.6445 28.0561 37.1022 28.5473C37.3326 28.7944 37.5101 29.0116 37.6323 29.1703C37.6935 29.2499 37.7411 29.3151 37.7749 29.3626C37.7917 29.3863 37.8052 29.4057 37.8151 29.4201L37.8273 29.4382L37.8315 29.4444L37.8338 29.4478C37.8341 29.4483 37.8344 29.4487 37 30C36.1657 30.5512 36.1659 30.5516 36.1662 30.552L36.1647 30.5498C36.1611 30.5446 36.1543 30.5348 36.1444 30.5208C36.1245 30.4928 36.0921 30.4483 36.0475 30.3903C35.9581 30.2742 35.821 30.1059 35.6392 29.9109C35.2727 29.5177 34.7407 29.0328 34.0689 28.6419Z" fill="#333333"/>
<path fill-rule="evenodd" clip-rule="evenodd" d="M22 19V15C22 13.3431 20.6569 12 19 12C17.3431 12 16 13.3431 16 15V19C16 20.6569 17.3431 22 19 22C20.6569 22 22 20.6569 22 19ZM19 10C16.2386 10 14 12.2386 14 15V19C14 21.7614 16.2386 24 19 24C21.7614 24 24 21.7614 24 19V15C24 12.2386 21.7614 10 19 10Z" fill="#333333"/>
</svg>
