<svg width="48" height="48" viewBox="0 0 48 48" fill="none" xmlns="http://www.w3.org/2000/svg">
<path fill-rule="evenodd" clip-rule="evenodd" d="M28 8.11433C27.4598 8.11433 26.9426 7.89581 26.566 7.50849L25.434 6.34413L26.5559 5.25338L25.434 6.34412C24.6486 5.53633 23.3514 5.53633 22.566 6.34412L21.434 7.50849C21.0574 7.89581 20.5402 8.11433 20 8.11433H14C12.8954 8.11433 12 9.00976 12 10.1143V34C12 35.1046 12.8954 36 14 36H34C35.1046 36 36 35.1046 36 34.0001V10.1143C36 9.00976 35.1046 8.11433 34 8.11433H28ZM38 10.1143V34.0001C38 36.2092 36.2091 38 34 38H14C11.7909 38 10 36.2092 10 34V10.1143C10 7.90519 11.7909 6.11433 14 6.11433H20L21.132 4.94997C22.7027 3.33439 25.2973 3.33439 26.868 4.94997L28 6.11433H34C36.2091 6.11433 38 7.90519 38 10.1143Z" fill="#333333"/>
<path fill-rule="evenodd" clip-rule="evenodd" d="M20 10C20.4037 10 20.7678 10.2427 20.9231 10.6154L25.9231 22.6154C26.1355 23.1252 25.8944 23.7107 25.3846 23.9231C24.8748 24.1355 24.2894 23.8944 24.0769 23.3846L20 13.6L15.9231 23.3846C15.7107 23.8944 15.1252 24.1355 14.6154 23.9231C14.1056 23.7107 13.8645 23.1252 14.0769 22.6154L19.0769 10.6154C19.2322 10.2427 19.5963 10 20 10Z" fill="#333333"/>
<path fill-rule="evenodd" clip-rule="evenodd" d="M16 19H24V21H16V19Z" fill="#333333"/>
<path fill-rule="evenodd" clip-rule="evenodd" d="M26 17C26 16.4477 26.4477 16 27 16L33 16C33.5523 16 34 16.4477 34 17C34 17.5523 33.5523 18 33 18L27 18C26.4477 18 26 17.5523 26 17Z" fill="#333333"/>
<path fill-rule="evenodd" clip-rule="evenodd" d="M23 44V36H25V44H23Z" fill="#333333"/>
<path fill-rule="evenodd" clip-rule="evenodd" d="M30 40H18V38H30V40Z" fill="#333333"/>
<path fill-rule="evenodd" clip-rule="evenodd" d="M34.0689 28.6418C32.7749 27.8888 30.9145 27.4415 28.5081 28.8612C25.551 30.6059 22.766 31.0586 19.9243 31.119C18.6899 31.1453 17.4294 31.0974 16.153 31.049C15.9779 31.0423 15.8025 31.0357 15.6267 31.0292C14.1588 30.975 12.6498 30.9321 11.0416 30.9991L10.9584 29.0008C12.6501 28.9303 14.2255 28.9761 15.7005 29.0306C15.8789 29.0371 16.0556 29.0438 16.2306 29.0505C17.5141 29.0991 18.7109 29.1444 19.8818 29.1195C22.5089 29.0636 24.924 28.6537 27.4918 27.1387C30.6105 25.2987 33.2501 25.8513 35.0748 26.9132C35.9624 27.4298 36.6445 28.0561 37.1022 28.5472C37.3325 28.7943 37.5101 29.0115 37.6323 29.1703C37.6935 29.2498 37.7411 29.315 37.7749 29.3625C37.7917 29.3863 37.8051 29.4056 37.8151 29.4201L37.8273 29.4382L37.8315 29.4444L37.8337 29.4478C37.834 29.4482 37.8343 29.4487 37 29.9999C36.1656 30.5511 36.1659 30.5515 36.1662 30.5519L36.1646 30.5497C36.1611 30.5445 36.1543 30.5347 36.1444 30.5208C36.1245 30.4928 36.0921 30.4482 36.0475 30.3903C35.9581 30.2741 35.821 30.1059 35.6392 29.9108C35.2727 29.5177 34.7407 29.0328 34.0689 28.6418Z" fill="#333333"/>
</svg>
