<svg width="48" height="48" viewBox="0 0 48 48" fill="none" xmlns="http://www.w3.org/2000/svg">
<path fill-rule="evenodd" clip-rule="evenodd" d="M31 18C31 17.4477 31.4477 17 32 17L38 17C38.5523 17 39 17.4477 39 18C39 18.5523 38.5523 19 38 19L32 19C31.4477 19 31 18.5523 31 18Z" fill="#333333"/>
<path fill-rule="evenodd" clip-rule="evenodd" d="M18.3856 5.33397C20.3549 3.27385 23.6451 3.27385 25.6144 5.33397L26.1418 5.88573H31.3302C33.9092 5.88573 36 7.97649 36 10.5556V14H34V10.5556C34 9.08105 32.8047 7.88573 31.3302 7.88573H25.7143C25.4412 7.88573 25.1801 7.77408 24.9914 7.57671L24.1686 6.71594C22.9871 5.47986 21.0129 5.47986 19.8314 6.71594L19.0086 7.57671C18.8199 7.77408 18.5588 7.88573 18.2857 7.88573H13C11.3431 7.88573 10 9.22887 10 10.8857V33C10 34.6569 11.3431 36 13 36H31C32.6569 36 34 34.6569 34 33V22H36V33C36 35.7614 33.7614 38 31 38H13C10.2386 38 8 35.7614 8 33V10.8857C8 8.12431 10.2386 5.88573 13 5.88573H17.8582L18.3856 5.33397Z" fill="#333333"/>
<path fill-rule="evenodd" clip-rule="evenodd" d="M21 44V36H23V44H21Z" fill="#333333"/>
<path fill-rule="evenodd" clip-rule="evenodd" d="M28 40H16V38H28V40Z" fill="#333333"/>
<path fill-rule="evenodd" clip-rule="evenodd" d="M32.0689 27.642C30.7749 26.889 28.9145 26.4417 26.5081 27.8614C23.551 29.6061 20.766 30.0588 17.9243 30.1192C16.6899 30.1455 15.4294 30.0976 14.153 30.0492C13.9779 30.0425 13.8025 30.0359 13.6267 30.0294C12.1588 29.9752 10.6498 29.9323 9.0416 29.9993L8.95837 28.001C10.6501 27.9305 12.2255 27.9763 13.7005 28.0307C13.8789 28.0373 14.0556 28.044 14.2306 28.0506C15.5141 28.0992 16.7109 28.1446 17.8818 28.1197C20.5089 28.0638 22.924 27.6539 25.4918 26.1389C28.6105 24.2989 31.2501 24.8515 33.0748 25.9134C33.9624 26.4299 34.6445 27.0562 35.1022 27.5474C35.3325 27.7945 35.5101 28.0117 35.6323 28.1705C35.6935 28.25 35.7411 28.3152 35.7749 28.3627C35.7917 28.3864 35.8051 28.4058 35.8151 28.4203L35.8273 28.4383L35.8315 28.4446L35.8337 28.448C35.834 28.4484 35.8343 28.4488 35 29.0001C34.1656 29.5513 34.1659 29.5517 34.1662 29.5521L34.1646 29.5499C34.1611 29.5447 34.1543 29.5349 34.1444 29.5209C34.1245 29.493 34.0921 29.4484 34.0475 29.3904C33.9581 29.2743 33.821 29.1061 33.6392 28.911C33.2727 28.5178 32.7407 28.0329 32.0689 27.642Z" fill="#333333"/>
<path fill-rule="evenodd" clip-rule="evenodd" d="M22 12C22.5523 12 23 12.4477 23 13V23C23 23.5523 22.5523 24 22 24C21.4477 24 21 23.5523 21 23V13C21 12.4477 21.4477 12 22 12Z" fill="#333333"/>
<path fill-rule="evenodd" clip-rule="evenodd" d="M13 12C13.5523 12 14 12.4477 14 13V23C14 23.5523 13.5523 24 13 24C12.4477 24 12 23.5523 12 23V13C12 12.4477 12.4477 12 13 12Z" fill="#333333"/>
<path fill-rule="evenodd" clip-rule="evenodd" d="M28 12C28.5523 12 29 12.4477 29 13V23C29 23.5523 28.5523 24 28 24C27.4477 24 27 23.5523 27 23V13C27 12.4477 27.4477 12 28 12Z" fill="#333333"/>
<path fill-rule="evenodd" clip-rule="evenodd" d="M21 18C21 17.4477 21.4477 17 22 17L28 17C28.5523 17 29 17.4477 29 18C29 18.5523 28.5523 19 28 19L22 19C21.4477 19 21 18.5523 21 18Z" fill="#333333"/>
<path fill-rule="evenodd" clip-rule="evenodd" d="M13.2191 18.3753C13.5641 17.944 14.1934 17.8741 14.6247 18.2191L19.6247 22.2191C20.0559 22.5641 20.1258 23.1934 19.7808 23.6247C19.4358 24.056 18.8065 24.1259 18.3753 23.7809L13.3753 19.7809C12.944 19.4359 12.8741 18.8066 13.2191 18.3753Z" fill="#333333"/>
<path fill-rule="evenodd" clip-rule="evenodd" d="M13 12H16C18.2091 12 20 13.7909 20 16C20 18.2091 18.2091 20 16 20H13V18H16C17.1046 18 18 17.1046 18 16C18 14.8954 17.1046 14 16 14H13V12Z" fill="#333333"/>
</svg>
