<svg width="48" height="48" viewBox="0 0 48 48" fill="none" xmlns="http://www.w3.org/2000/svg">
<path fill-rule="evenodd" clip-rule="evenodd" d="M17.5 12C17.9169 12 18.29 12.2586 18.4364 12.6489L21.9364 21.9822C22.1303 22.4993 21.8683 23.0757 21.3512 23.2697C20.834 23.4636 20.2576 23.2016 20.0637 22.6845L17.5 15.848L14.9364 22.6845C14.7424 23.2016 14.166 23.4636 13.6489 23.2697C13.1318 23.0757 12.8698 22.4993 13.0637 21.9822L16.5637 12.6489C16.7101 12.2586 17.0832 12 17.5 12Z" fill="#333333"/>
<path fill-rule="evenodd" clip-rule="evenodd" d="M14.5556 19L20.4445 19L20.4445 21L14.5556 21L14.5556 19Z" fill="#333333"/>
<path fill-rule="evenodd" clip-rule="evenodd" d="M32 18C32 17.4477 32.4477 17 33 17L39 17C39.5523 17 40 17.4477 40 18C40 18.5523 39.5523 19 39 19L33 19C32.4477 19 32 18.5523 32 18Z" fill="#333333"/>
<path fill-rule="evenodd" clip-rule="evenodd" d="M36 22C35.4477 22 35 21.5523 35 21L35 15C35 14.4477 35.4477 14 36 14C36.5523 14 37 14.4477 37 15L37 21C37 21.5523 36.5523 22 36 22Z" fill="#333333"/>
<path fill-rule="evenodd" clip-rule="evenodd" d="M19.3856 5.33391C21.3549 3.27379 24.6451 3.27379 26.6144 5.33391L27.1418 5.88566H32.3302C34.9092 5.88566 37 7.97642 37 10.5555V12H35V10.5555C35 9.08099 33.8047 7.88566 32.3302 7.88566H26.7143C26.4412 7.88566 26.1801 7.77402 25.9914 7.57665L25.1686 6.71587C23.9871 5.4798 22.0129 5.4798 20.8314 6.71587L20.0086 7.57665C19.8199 7.77402 19.5588 7.88566 19.2857 7.88566H14C12.3431 7.88566 11 9.22881 11 10.8857V33C11 34.6568 12.3431 36 14 36H32C33.6569 36 35 34.6568 35 33V24H37V33C37 35.7614 34.7614 38 32 38H14C11.2386 38 9 35.7614 9 33V10.8857C9 8.12425 11.2386 5.88566 14 5.88566H18.8582L19.3856 5.33391Z" fill="#333333"/>
<path fill-rule="evenodd" clip-rule="evenodd" d="M22 44V36H24V44H22Z" fill="#333333"/>
<path fill-rule="evenodd" clip-rule="evenodd" d="M29 40H17V38H29V40Z" fill="#333333"/>
<path fill-rule="evenodd" clip-rule="evenodd" d="M33.0689 27.6418C31.7749 26.8888 29.9145 26.4415 27.5081 27.8612C24.551 29.6059 21.766 30.0586 18.9243 30.119C17.6899 30.1453 16.4294 30.0974 15.153 30.049C14.9779 30.0423 14.8025 30.0357 14.6267 30.0292C13.1588 29.975 11.6498 29.9321 10.0416 29.9991L9.95837 28.0008C11.6501 27.9303 13.2255 27.9761 14.7005 28.0306C14.8789 28.0371 15.0556 28.0438 15.2306 28.0505C16.5141 28.0991 17.7109 28.1444 18.8818 28.1195C21.5089 28.0636 23.924 27.6537 26.4918 26.1387C29.6105 24.2987 32.2501 24.8513 34.0748 25.9132C34.9624 26.4298 35.6445 27.0561 36.1022 27.5472C36.3325 27.7943 36.5101 28.0115 36.6323 28.1703C36.6935 28.2498 36.7411 28.315 36.7749 28.3625C36.7917 28.3863 36.8051 28.4056 36.8151 28.4201L36.8273 28.4382L36.8315 28.4444L36.8337 28.4478C36.834 28.4482 36.8343 28.4487 36 28.9999C35.1656 29.5511 35.1659 29.5515 35.1662 29.5519L35.1646 29.5497C35.1611 29.5445 35.1543 29.5347 35.1444 29.5208C35.1245 29.4928 35.0921 29.4482 35.0475 29.3903C34.9581 29.2741 34.821 29.1059 34.6392 28.9108C34.2727 28.5177 33.7407 28.0328 33.0689 27.6418Z" fill="#333333"/>
<path fill-rule="evenodd" clip-rule="evenodd" d="M27.5877 15.25C27.5877 14.5953 27.0251 14 26.25 14V12C28.057 12 29.5877 13.4194 29.5877 15.25C29.5877 17.0806 28.057 18.5 26.25 18.5V16.5C27.0251 16.5 27.5877 15.9047 27.5877 15.25Z" fill="#333333"/>
<path fill-rule="evenodd" clip-rule="evenodd" d="M27.5877 19.75C27.5877 19.0953 27.0251 18.5 26.25 18.5V16.5C28.057 16.5 29.5877 17.9194 29.5877 19.75C29.5877 21.5806 28.057 23 26.25 23V21C27.0251 21 27.5877 20.4047 27.5877 19.75Z" fill="#333333"/>
<path fill-rule="evenodd" clip-rule="evenodd" d="M23 12H26.25V14H25V21H26.25V23H23V12Z" fill="#333333"/>
<path fill-rule="evenodd" clip-rule="evenodd" d="M24 16.5H27.75V18.5H24V16.5Z" fill="#333333"/>
</svg>
