<svg width="48" height="48" viewBox="0 0 48 48" fill="none" xmlns="http://www.w3.org/2000/svg">
<path fill-rule="evenodd" clip-rule="evenodd" d="M24 12.25C22.6193 12.25 21.5 13.3693 21.5 14.75C21.5 16.1307 22.6193 17.25 24 17.25C25.3807 17.25 26.5 16.1307 26.5 14.75C26.5 13.3693 25.3807 12.25 24 12.25ZM19.5 14.75C19.5 12.2647 21.5147 10.25 24 10.25C26.4853 10.25 28.5 12.2647 28.5 14.75C28.5 16.4915 27.5108 18.0019 26.0636 18.75H27C27.8359 18.75 28.6165 19.1678 29.0801 19.8633L33.0801 25.8632C33.846 27.0121 33.5356 28.5642 32.3868 29.3301C31.4809 29.934 30.3242 29.8687 29.5 29.2509V35.25C29.5 36.6307 28.3807 37.75 27 37.75C25.6193 37.75 24.5 36.6307 24.5 35.25V31.25H23.5V35.25C23.5 36.6307 22.3807 37.75 21 37.75C19.6193 37.75 18.5 36.6307 18.5 35.25V29.2509C17.6758 29.8687 16.5191 29.934 15.6133 29.3301C14.4644 28.5642 14.154 27.0121 14.9199 25.8632L18.9199 19.8633C19.3836 19.1678 20.1641 18.75 21 18.75H21.9364C20.4892 18.0019 19.5 16.4915 19.5 14.75ZM21 20.75C20.8328 20.75 20.6767 20.8336 20.584 20.9726L16.584 26.9726C16.4308 27.2024 16.4929 27.5128 16.7227 27.666C16.9524 27.8192 17.2629 27.7571 17.416 27.5273L20.5 22.9014V35.25C20.5 35.5261 20.7239 35.75 21 35.75C21.2762 35.75 21.5 35.5261 21.5 35.25V29.25H26.5V35.25C26.5 35.5261 26.7239 35.75 27 35.75C27.2762 35.75 27.5 35.5261 27.5 35.25V22.9014L30.584 27.5273C30.7372 27.7571 31.0476 27.8192 31.2774 27.666C31.5071 27.5128 31.5692 27.2024 31.416 26.9726L27.416 20.9726C27.3233 20.8336 27.1672 20.75 27 20.75H21Z" fill="#333333"/>
</svg>
