<svg width="48" height="48" viewBox="0 0 48 48" fill="none" xmlns="http://www.w3.org/2000/svg">
<path fill-rule="evenodd" clip-rule="evenodd" d="M34.4677 20.9481C34.3285 20.4136 33.7825 20.0932 33.248 20.2323C29.5861 21.1859 26.7823 21.6256 24.0038 21.6145C21.2222 21.6033 18.4146 21.1403 14.7406 20.2295C14.2045 20.0966 13.6622 20.4234 13.5294 20.9595C13.3965 21.4955 13.7233 22.0378 14.2594 22.1707C16.4209 22.7065 18.3268 23.1005 20.1317 23.3404L20.9999 23.4559V28.9374L20.0076 36.8759C19.9406 37.4121 20.3117 37.9046 20.8456 37.988C21.3796 38.0713 21.8832 37.7154 21.9828 37.1842L23.4828 29.1842C23.494 29.1242 23.4997 29.0639 23.4999 29.0039H25.4999C25.5001 29.0639 25.5058 29.1242 25.517 29.1842L27.017 37.1842C27.1166 37.7154 27.6202 38.0713 28.1541 37.988C28.6881 37.9046 29.0592 37.4121 28.9922 36.8759L27.9999 28.9379V23.3575L28.8436 23.224C30.3624 22.9836 31.9697 22.6319 33.752 22.1678C34.2864 22.0286 34.6069 21.4826 34.4677 20.9481ZM32.744 18.2969C34.3474 17.8794 35.9857 18.8407 36.4032 20.4441C36.8207 22.0475 35.8593 23.6858 34.2559 24.1033C32.748 24.4959 31.3443 24.8148 29.9999 25.0566V28.8134L30.9767 36.6278C31.1778 38.2365 30.0644 39.714 28.4626 39.964C26.8607 40.2141 25.35 39.1463 25.0513 37.5528L24.4999 34.6121L23.9485 37.5528C23.6497 39.1463 22.139 40.2141 20.5372 39.964C18.9353 39.714 17.822 38.2365 18.023 36.6278L18.9999 28.8129V25.1976C17.3603 24.9425 15.6481 24.5755 13.7781 24.1119C12.1699 23.7133 11.1894 22.0864 11.5881 20.4782C11.9868 18.87 13.6137 17.8895 15.2218 18.2882C18.8239 19.1812 21.4571 19.6043 24.0118 19.6145C26.5574 19.6247 29.1788 19.2252 32.744 18.2969Z" fill="#333333"/>
<path fill-rule="evenodd" clip-rule="evenodd" d="M23.9999 10C22.3431 10 20.9999 11.3431 20.9999 13C20.9999 14.6569 22.3431 16 23.9999 16C25.6568 16 26.9999 14.6569 26.9999 13C26.9999 11.3431 25.6568 10 23.9999 10ZM18.9999 13C18.9999 10.2386 21.2385 8 23.9999 8C26.7613 8 28.9999 10.2386 28.9999 13C28.9999 15.7614 26.7613 18 23.9999 18C21.2385 18 18.9999 15.7614 18.9999 13Z" fill="#333333"/>
</svg>
