<svg width="49" height="48" viewBox="0 0 49 48" fill="none" xmlns="http://www.w3.org/2000/svg">
<path fill-rule="evenodd" clip-rule="evenodd" d="M29.4881 32.2841C34.198 31.1834 36.8378 26.9977 35.9393 23.2573C35.0407 19.517 30.7774 16.9445 26.0675 18.0452C21.3576 19.1458 18.7178 23.3315 19.6163 27.0719C20.5149 30.8123 24.7782 33.3847 29.4881 32.2841ZM29.9552 34.2287C35.5383 32.924 39.0894 27.8082 37.8868 22.8022C36.6842 17.7962 31.1834 14.7958 25.6003 16.1005C20.0173 17.4052 16.4662 22.521 17.6688 27.527C18.8714 32.533 24.3722 35.5334 29.9552 34.2287Z" fill="#333333"/>
<path fill-rule="evenodd" clip-rule="evenodd" d="M32.0278 27.8221C32.2533 27.8221 32.3889 27.649 32.3889 27.4933C32.3889 27.3377 32.2533 27.1646 32.0278 27.1646C31.8022 27.1646 31.6667 27.3377 31.6667 27.4933C31.6667 27.649 31.8022 27.8221 32.0278 27.8221ZM32.0278 29.8221C33.3318 29.8221 34.3889 28.7795 34.3889 27.4933C34.3889 26.2072 33.3318 25.1646 32.0278 25.1646C30.7238 25.1646 29.6667 26.2072 29.6667 27.4933C29.6667 28.7795 30.7238 29.8221 32.0278 29.8221Z" fill="#333333"/>
<path fill-rule="evenodd" clip-rule="evenodd" d="M12.3576 14.6069C12.9342 13.1089 14.3988 12.0549 16.101 12.0549C17.2018 12.0549 18.2013 12.4953 18.9263 13.2093C19.3318 13.0651 19.7684 12.9867 20.2222 12.9867C22.3263 12.9867 24.0556 14.6726 24.0556 16.7812V16.9456L24.0029 17.1014C23.6539 18.1342 23.0727 18.9906 22.2501 19.6297C21.4847 20.7045 20.0452 21.9416 17.6751 21.7219C17.4398 21.7 17.2909 21.7422 17.1877 21.7963C17.0788 21.8535 16.96 21.9565 16.8405 22.1419C16.5855 22.5376 16.405 23.1891 16.3333 24.0317C16.2636 24.8516 16.3052 25.748 16.4084 26.5456C16.4886 27.1649 16.6003 27.6812 16.7063 28.0319C17.7202 28.7474 18.3889 29.9242 18.3889 31.2615C18.3889 32.0059 18.181 32.7024 17.8213 33.2966C18.1853 33.91 18.3889 34.6413 18.3889 35.4113C18.3889 36.0309 18.2573 36.6236 18.0176 37.1499C18.2545 37.6057 18.3889 38.1235 18.3889 38.6718C18.3889 40.5231 16.871 42.0005 15.0278 42.0005C13.1845 42.0005 11.6667 40.5231 11.6667 38.6718C11.6667 38.1235 11.8011 37.6057 12.038 37.1499C11.7983 36.6236 11.6667 36.0309 11.6667 35.4113C11.6667 35.0273 11.7172 34.6539 11.8125 34.3004C10.9393 33.5758 10.3788 32.4862 10.3788 31.2615C10.3788 31.0861 10.3904 30.9133 10.4128 30.7436C8.89419 30.1845 7.80302 28.7389 7.80302 27.0274C7.80302 26.5107 7.90329 26.0166 8.08524 25.5636C7.38185 24.8512 6.94446 23.8746 6.94446 22.7932C6.94446 21.3948 7.67406 20.1735 8.76788 19.4689C8.6984 19.1765 8.66164 18.8718 8.66164 18.5591C8.66164 16.4611 10.301 14.7628 12.3576 14.6069ZM16.101 14.0549C15.0727 14.0549 14.2398 14.8091 14.113 15.761L13.9788 16.7685L12.9736 16.6179C12.8741 16.603 12.7716 16.5952 12.6667 16.5952C11.5463 16.5952 10.6616 17.4874 10.6616 18.5591C10.6616 18.8973 10.7481 19.2133 10.9005 19.4898L11.4878 20.5556L10.3283 20.9252C9.51644 21.1839 8.94446 21.93 8.94446 22.7932C8.94446 23.4887 9.31368 24.1059 9.88411 24.4574L10.8006 25.0221L10.17 25.8945C9.93809 26.2153 9.80302 26.6049 9.80302 27.0274C9.80302 28.069 10.6386 28.941 11.7142 28.9892L13.2299 29.057L12.5699 30.4232C12.4475 30.6765 12.3788 30.9599 12.3788 31.2615C12.3788 32.0204 12.8195 32.6876 13.4799 33.0151L14.4064 33.4747L13.9159 34.3853C13.7621 34.6706 13.6667 35.0221 13.6667 35.4113C13.6667 35.8885 13.81 36.3072 14.0265 36.6175L14.4644 37.245L13.9731 37.8318C13.7801 38.0622 13.6667 38.3535 13.6667 38.6718C13.6667 39.3927 14.263 40.0005 15.0278 40.0005C15.7926 40.0005 16.3889 39.3927 16.3889 38.6718C16.3889 38.3535 16.2755 38.0622 16.0825 37.8318L15.5911 37.245L16.0291 36.6175C16.2456 36.3072 16.3889 35.8885 16.3889 35.4113C16.3889 34.8113 16.1632 34.3092 15.8553 33.9946L15.1784 33.3031L15.8473 32.6039C16.1855 32.2504 16.3889 31.7793 16.3889 31.2615C16.3889 30.5403 15.9914 29.9026 15.3848 29.5593L15.0834 29.3887L14.952 29.0681C14.728 28.5213 14.5401 27.6918 14.425 26.8024C14.3079 25.8979 14.2561 24.855 14.3405 23.8622C14.4231 22.8922 14.6443 21.8579 15.1593 21.0586C15.4248 20.6465 15.783 20.2748 16.2583 20.0254C16.7392 19.773 17.2815 19.6768 17.8597 19.7304C19.3668 19.8701 20.2042 19.0984 20.6873 18.3732L20.7877 18.2225L20.9345 18.1166C21.4236 17.7637 21.7979 17.2796 22.0488 16.626C21.9687 15.7182 21.1931 14.9867 20.2222 14.9867C19.8423 14.9867 19.493 15.0987 19.2026 15.2895L18.3517 15.8486L17.808 14.9878C17.4553 14.4294 16.825 14.0549 16.101 14.0549Z" fill="#333333"/>
<path fill-rule="evenodd" clip-rule="evenodd" d="M31.7097 17.3009L31.7114 17.2929C31.7132 17.2843 31.7163 17.2699 31.7207 17.25C31.7296 17.2102 31.7437 17.1486 31.7637 17.0681C31.8038 16.907 31.8671 16.6712 31.9575 16.3836C32.1391 15.8057 32.426 15.0323 32.8467 14.24C33.7062 12.6212 35.0113 11.1242 36.9315 10.7712C37.4783 10.6707 37.8403 10.152 37.74 9.61265C37.6398 9.07329 37.1153 8.71753 36.5685 8.81804C33.7406 9.33784 32.0316 11.4998 31.0642 13.3218C30.5714 14.2498 30.2416 15.1422 30.0349 15.8001C29.9311 16.1303 29.8573 16.4049 29.8088 16.5997C29.7845 16.6971 29.7666 16.7749 29.7544 16.8299C29.7483 16.8574 29.7436 16.8793 29.7402 16.8951L29.7363 16.9143L29.735 16.9205L29.7346 16.9226C29.7345 16.923 29.7343 16.9242 30.7219 17.1125L29.7343 16.9242C29.6273 17.4629 29.9828 17.9839 30.5283 18.0879C31.0736 18.1919 31.6025 17.8392 31.7097 17.3009L31.7095 17.3019C31.7095 17.3019 31.7095 17.3019 31.7095 17.3019M31.7095 17.3019L31.7097 17.3009L31.7095 17.3019Z" fill="#333333"/>
<path fill-rule="evenodd" clip-rule="evenodd" d="M6.64461 6.06528C7.16084 5.869 7.73844 6.12838 7.93471 6.64461C8.48036 8.07973 9.73199 8.79452 11.0729 8.79452C12.423 8.79452 13.8407 8.0616 14.6081 6.54783C14.7707 6.22707 15.093 6.01833 15.4522 6.00114C15.8114 5.98395 16.1522 6.16097 16.3447 6.46473C17.4018 8.13291 18.6565 8.79452 19.75 8.79452C20.8435 8.79452 22.0982 8.13291 23.1553 6.46473C23.3478 6.16097 23.6886 5.98395 24.0478 6.00114C24.407 6.01833 24.7293 6.22707 24.8919 6.54783C25.692 8.126 26.9101 8.79453 28.0729 8.79453C29.2559 8.79454 30.6184 8.10113 31.6553 6.46474C31.8387 6.17536 32.1574 6 32.5 6C32.8426 5.99999 33.1613 6.17536 33.3447 6.46473C34.4018 8.13291 35.6565 8.79452 36.75 8.79452C37.8435 8.79452 39.0982 8.13291 40.1553 6.46473C40.4509 5.99823 41.0687 5.85969 41.5353 6.15531C42.0018 6.45093 42.1403 7.06875 41.8447 7.53526C40.5407 9.59312 38.726 10.7945 36.75 10.7945C35.1682 10.7945 33.6897 10.0246 32.4938 8.66174C31.2522 10.0406 29.6824 10.7945 28.0729 10.7945C26.4972 10.7945 25.0265 10.0711 23.9385 8.73783C22.7548 10.0532 21.3021 10.7945 19.75 10.7945C18.1913 10.7945 16.7329 10.0469 15.5464 8.72107C14.3655 10.0956 12.7036 10.7945 11.0729 10.7945C8.99022 10.7945 6.9363 9.64629 6.06528 7.35538C5.869 6.83915 6.12838 6.26155 6.64461 6.06528Z" fill="#333333"/>
</svg>
