<svg width="49" height="48" viewBox="0 0 49 48" fill="none" xmlns="http://www.w3.org/2000/svg">
<path fill-rule="evenodd" clip-rule="evenodd" d="M29.4881 32.2841C34.198 31.1834 36.8378 26.9977 35.9393 23.2574C35.0407 19.517 30.7774 16.9445 26.0675 18.0452C21.3576 19.1459 18.7178 23.3315 19.6163 27.0719C20.5149 30.8123 24.7782 33.3848 29.4881 32.2841ZM29.9553 34.2288C35.5383 32.924 39.0894 27.8082 37.8868 22.8022C36.6842 17.7963 31.1834 14.7958 25.6003 16.1005C20.0173 17.4052 16.4662 22.5211 17.6688 27.527C18.8714 32.533 24.3722 35.5335 29.9553 34.2288Z" fill="#333333"/>
<path fill-rule="evenodd" clip-rule="evenodd" d="M32.0278 27.8221C32.2533 27.8221 32.3889 27.649 32.3889 27.4933C32.3889 27.3377 32.2533 27.1646 32.0278 27.1646C31.8023 27.1646 31.6667 27.3377 31.6667 27.4933C31.6667 27.649 31.8023 27.8221 32.0278 27.8221ZM32.0278 29.8221C33.3318 29.8221 34.3889 28.7795 34.3889 27.4933C34.3889 26.2072 33.3318 25.1646 32.0278 25.1646C30.7238 25.1646 29.6667 26.2072 29.6667 27.4933C29.6667 28.7795 30.7238 29.8221 32.0278 29.8221Z" fill="#333333"/>
<path fill-rule="evenodd" clip-rule="evenodd" d="M12.3576 14.6069C12.9343 13.1089 14.3989 12.0549 16.1011 12.0549C17.2018 12.0549 18.2013 12.4952 18.9263 13.2093C19.3318 13.0651 19.7684 12.9867 20.2223 12.9867C22.3263 12.9867 24.0556 14.6726 24.0556 16.7812V16.9456L24.003 17.1014C23.6539 18.1342 23.0727 18.9906 22.2501 19.6296C21.4847 20.7045 20.0453 21.9416 17.6751 21.7218C17.4399 21.7 17.2909 21.7421 17.1877 21.7963C17.0788 21.8535 16.96 21.9565 16.8405 22.1419C16.5856 22.5376 16.405 23.1891 16.3334 24.0317C16.2636 24.8516 16.3052 25.748 16.4084 26.5456C16.4886 27.1649 16.6003 27.6812 16.7063 28.0319C17.7202 28.7473 18.3889 29.9241 18.3889 31.2615C18.3889 32.0059 18.181 32.7024 17.8213 33.2966C18.1853 33.91 18.3889 34.6413 18.3889 35.4113C18.3889 36.0309 18.2573 36.6236 18.0176 37.1499C18.2545 37.6057 18.3889 38.1235 18.3889 38.6717C18.3889 40.5231 16.871 42.0005 15.0278 42.0005C13.1846 42.0005 11.6667 40.5231 11.6667 38.6717C11.6667 38.1235 11.8011 37.6057 12.038 37.1499C11.7983 36.6236 11.6667 36.0309 11.6667 35.4113C11.6667 35.0273 11.7172 34.6539 11.8125 34.3004C10.9393 33.5758 10.3788 32.4862 10.3788 31.2615C10.3788 31.0861 10.3904 30.9132 10.4128 30.7436C8.89421 30.1845 7.80304 28.7389 7.80304 27.0273C7.80304 26.5107 7.9033 26.0166 8.08525 25.5636C7.38187 24.8512 6.94447 23.8745 6.94447 22.7932C6.94447 21.3948 7.67408 20.1735 8.76789 19.4689C8.69841 19.1765 8.66166 18.8718 8.66166 18.5591C8.66166 16.4611 10.3011 14.7628 12.3576 14.6069ZM16.1011 14.0549C15.0727 14.0549 14.2398 14.8091 14.113 15.761L13.9788 16.7685L12.9736 16.6179C12.8741 16.603 12.7717 16.5952 12.6667 16.5952C11.5463 16.5952 10.6617 17.4874 10.6617 18.5591C10.6617 18.8973 10.7481 19.2133 10.9005 19.4898L11.4878 20.5556L10.3283 20.9251C9.51646 21.1839 8.94447 21.93 8.94447 22.7932C8.94447 23.4887 9.3137 24.1059 9.88412 24.4574L10.8006 25.0221L10.17 25.8945C9.9381 26.2153 9.80304 26.6049 9.80304 27.0273C9.80304 28.069 10.6386 28.941 11.7142 28.9891L13.2299 29.057L12.5699 30.4231C12.4475 30.6765 12.3788 30.9599 12.3788 31.2615C12.3788 32.0204 12.8195 32.6876 13.4799 33.0151L14.4064 33.4747L13.9159 34.3852C13.7621 34.6706 13.6667 35.022 13.6667 35.4113C13.6667 35.8885 13.81 36.3072 14.0265 36.6175L14.4645 37.245L13.9731 37.8318C13.7801 38.0622 13.6667 38.3535 13.6667 38.6717C13.6667 39.3926 14.263 40.0005 15.0278 40.0005C15.7926 40.0005 16.3889 39.3926 16.3889 38.6717C16.3889 38.3535 16.2755 38.0622 16.0825 37.8318L15.5912 37.245L16.0291 36.6175C16.2456 36.3072 16.3889 35.8885 16.3889 35.4113C16.3889 34.8113 16.1632 34.3092 15.8553 33.9946L15.1785 33.3031L15.8473 32.6039C16.1855 32.2504 16.3889 31.7793 16.3889 31.2615C16.3889 30.5403 15.9915 29.9026 15.3848 29.5593L15.0834 29.3886L14.9521 29.0681C14.728 28.5213 14.5401 27.6918 14.425 26.8023C14.3079 25.8979 14.2561 24.8549 14.3406 23.8622C14.4231 22.8922 14.6443 21.8579 15.1593 21.0586C15.4248 20.6465 15.783 20.2748 16.2583 20.0254C16.7392 19.773 17.2815 19.6768 17.8597 19.7304C19.3668 19.8701 20.2043 19.0984 20.6873 18.3732L20.7877 18.2225L20.9345 18.1166C21.4236 17.7637 21.7979 17.2796 22.0488 16.626C21.9687 15.7182 21.1931 14.9867 20.2223 14.9867C19.8423 14.9867 19.493 15.0987 19.2026 15.2895L18.3517 15.8485L17.808 14.9878C17.4553 14.4294 16.8251 14.0549 16.1011 14.0549Z" fill="#333333"/>
<path fill-rule="evenodd" clip-rule="evenodd" d="M31.7042 17.3271L31.7059 17.32L31.7149 17.2826C31.7235 17.2479 31.7372 17.1942 31.7562 17.1237C31.7943 16.9827 31.8537 16.7751 31.9367 16.519C32.1033 16.0052 32.3621 15.305 32.73 14.5591C33.4835 13.0311 34.6103 11.4823 36.1762 10.7877C36.6838 10.5626 36.9116 9.97451 36.6849 9.47418C36.4583 8.97386 35.8631 8.75078 35.3555 8.97592C33.138 9.95941 31.7429 12.026 30.9204 13.6938C30.5002 14.5459 30.2075 15.3387 30.0195 15.9185C29.9253 16.2092 29.8566 16.4485 29.811 16.6177C29.7881 16.7023 29.771 16.7695 29.7593 16.817C29.7534 16.8407 29.7489 16.8596 29.7457 16.8732L29.7418 16.8897L29.7402 16.8968C29.7402 16.8968 29.7399 16.8981 30.722 17.1126L29.7399 16.8981C29.6183 17.4338 29.9594 17.9641 30.5019 18.0826C31.0441 18.201 31.5824 17.8625 31.7042 17.3271Z" fill="#333333"/>
<path fill-rule="evenodd" clip-rule="evenodd" d="M6.64464 6.06531C7.16087 5.86903 7.73847 6.12841 7.93475 6.64464C8.48039 8.07976 9.73202 8.79455 11.0729 8.79455C12.423 8.79455 13.8407 8.06163 14.6081 6.54786C14.7707 6.2271 15.093 6.01836 15.4522 6.00117C15.8114 5.98398 16.1522 6.161 16.3447 6.46476C17.4018 8.13294 18.6565 8.79455 19.75 8.79455C20.8435 8.79455 22.0983 8.13294 23.1553 6.46476C23.3478 6.161 23.6886 5.98398 24.0478 6.00117C24.407 6.01836 24.7294 6.2271 24.892 6.54786C25.692 8.12603 26.9102 8.79456 28.0729 8.79456C29.2559 8.79457 30.6184 8.10116 31.6553 6.46477C31.8387 6.1754 32.1574 6.00003 32.5 6.00003C32.8426 6.00003 33.1613 6.17539 33.3447 6.46476C34.4018 8.13294 35.6565 8.79455 36.75 8.79455C37.8435 8.79455 39.0983 8.13294 40.1553 6.46476C40.451 5.99826 41.0688 5.85972 41.5353 6.15534C42.0018 6.45096 42.1403 7.06878 41.8447 7.53529C40.5407 9.59315 38.726 10.7945 36.75 10.7945C35.1682 10.7945 33.6897 10.0246 32.4939 8.66177C31.2522 10.0406 29.6824 10.7946 28.0729 10.7946C26.4972 10.7946 25.0266 10.0711 23.9386 8.73786C22.7548 10.0533 21.3022 10.7945 19.75 10.7945C18.1913 10.7945 16.733 10.047 15.5464 8.7211C14.3655 10.0956 12.7036 10.7945 11.0729 10.7945C8.99025 10.7945 6.93633 9.64632 6.06531 7.35541C5.86903 6.83918 6.12841 6.26158 6.64464 6.06531Z" fill="#333333"/>
</svg>
