<svg width="48" height="48" viewBox="0 0 48 48" fill="none" xmlns="http://www.w3.org/2000/svg">
<path fill-rule="evenodd" clip-rule="evenodd" d="M34 9H14C12.8954 9 12 9.89543 12 11V39C12 40.1046 12.8954 41 14 41H34C35.1046 41 36 40.1046 36 39V11C36 9.89543 35.1046 9 34 9ZM14 7C11.7909 7 10 8.79086 10 11V39C10 41.2091 11.7909 43 14 43H34C36.2091 43 38 41.2091 38 39V11C38 8.79086 36.2091 7 34 7H14Z" fill="#333333"/>
<path d="M18 7C18 5.89543 18.8954 5 20 5H28C29.1046 5 30 5.89543 30 7V9C30 10.1046 29.1046 11 28 11H20C18.8954 11 18 10.1046 18 9V7Z" fill="white"/>
<path fill-rule="evenodd" clip-rule="evenodd" d="M17 7C17 5.34315 18.3431 4 20 4H28C29.6569 4 31 5.34315 31 7V9C31 10.6569 29.6569 12 28 12H20C18.3431 12 17 10.6569 17 9V7ZM20 6C19.4477 6 19 6.44772 19 7V9C19 9.55228 19.4477 10 20 10H28C28.5523 10 29 9.55228 29 9V7C29 6.44772 28.5523 6 28 6H20Z" fill="#333333"/>
<path fill-rule="evenodd" clip-rule="evenodd" d="M21.0207 14.9654L23.1377 22.375L25.7284 19.0442H31.2175C31.7698 19.0442 32.2175 19.4919 32.2175 20.0442C32.2175 20.5965 31.7698 21.0442 31.2175 21.0442H26.7066L22.2972 26.7133L20.4142 20.123L18.8023 22.9886H11.293C10.7407 22.9886 10.293 22.5409 10.293 21.9886C10.293 21.4363 10.7407 20.9886 11.293 20.9886H17.6326L21.0207 14.9654Z" fill="#333333"/>
<path fill-rule="evenodd" clip-rule="evenodd" d="M15 31C15 30.4477 15.4477 30 16 30H32C32.5523 30 33 30.4477 33 31C33 31.5523 32.5523 32 32 32H16C15.4477 32 15 31.5523 15 31Z" fill="#333333"/>
<path fill-rule="evenodd" clip-rule="evenodd" d="M18 36C18 35.4477 18.4477 35 19 35H29C29.5523 35 30 35.4477 30 36C30 36.5523 29.5523 37 29 37H19C18.4477 37 18 36.5523 18 36Z" fill="#333333"/>
</svg>
