<svg width="48" height="48" viewBox="0 0 48 48" fill="none" xmlns="http://www.w3.org/2000/svg">
<path fill-rule="evenodd" clip-rule="evenodd" d="M41 22H39V37.3333L40 38.6667L41 37.3333V22ZM43 38L40 42L37 38V20H43V38Z" fill="#333333"/>
<path fill-rule="evenodd" clip-rule="evenodd" d="M41 15H39V17H41V15ZM39 13H41C42.1046 13 43 13.8954 43 15V19H37V15C37 13.8954 37.8954 13 39 13Z" fill="#333333"/>
<path fill-rule="evenodd" clip-rule="evenodd" d="M30 9H10C8.89543 9 8 9.89543 8 11V39C8 40.1046 8.89543 41 10 41H30C31.1046 41 32 40.1046 32 39V11C32 9.89543 31.1046 9 30 9ZM10 7C7.79086 7 6 8.79086 6 11V39C6 41.2091 7.79086 43 10 43H30C32.2091 43 34 41.2091 34 39V11C34 8.79086 32.2091 7 30 7H10Z" fill="#333333"/>
<path fill-rule="evenodd" clip-rule="evenodd" d="M17.0207 14.9654L19.1377 22.375L21.7284 19.0442H27.2175C27.7698 19.0442 28.2175 19.4919 28.2175 20.0442C28.2175 20.5965 27.7698 21.0442 27.2175 21.0442H22.7066L18.2972 26.7133L16.4143 20.123L14.8023 22.9886H7.293C6.74071 22.9886 6.293 22.5409 6.293 21.9886C6.293 21.4363 6.74071 20.9886 7.293 20.9886H13.6326L17.0207 14.9654Z" fill="#333333"/>
<path fill-rule="evenodd" clip-rule="evenodd" d="M11 31C11 30.4477 11.4477 30 12 30H28C28.5523 30 29 30.4477 29 31C29 31.5523 28.5523 32 28 32H12C11.4477 32 11 31.5523 11 31Z" fill="#333333"/>
<path fill-rule="evenodd" clip-rule="evenodd" d="M14 36C14 35.4477 14.4477 35 15 35H25C25.5523 35 26 35.4477 26 36C26 36.5523 25.5523 37 25 37H15C14.4477 37 14 36.5523 14 36Z" fill="#333333"/>
</svg>
