<svg width="48" height="48" viewBox="0 0 48 48" fill="none" xmlns="http://www.w3.org/2000/svg">
<path fill-rule="evenodd" clip-rule="evenodd" d="M34.5224 5.15771C34.2462 5.15771 34.0224 5.38157 34.0224 5.65771V6.99994H35.0224V5.65771C35.0224 5.38157 34.7985 5.15771 34.5224 5.15771ZM35.0224 8.99994H34.0224V10.4998V10.9993L33.623 11.2993C33.2564 11.5747 33.0224 12.0098 33.0224 12.4999C33.0224 13.3284 33.694 13.9999 34.5224 13.9999C35.3508 13.9999 36.0224 13.3284 36.0224 12.4999C36.0224 12.0098 35.7884 11.5747 35.4218 11.2993L35.0224 10.9993V10.4998V8.99994ZM32.0224 5.65771C32.0224 4.277 33.1417 3.15771 34.5224 3.15771C35.9031 3.15771 37.0224 4.277 37.0224 5.65771V10.0505C37.6399 10.681 38.0224 11.5459 38.0224 12.4999C38.0224 14.4329 36.4554 15.9999 34.5224 15.9999C32.5894 15.9999 31.0224 14.4329 31.0224 12.4999C31.0224 11.5459 31.4049 10.681 32.0224 10.0505V5.65771ZM21.4246 8.99994C21.4246 7.34308 22.7678 5.99994 24.4246 5.99994C26.0815 5.99994 27.4246 7.34308 27.4246 8.99994C27.4246 10.6568 26.0815 11.9999 24.4246 11.9999C22.7678 11.9999 21.4246 10.6568 21.4246 8.99994ZM24.4246 3.99994C21.6632 3.99994 19.4246 6.23852 19.4246 8.99994C19.4246 10.979 20.5745 12.6896 22.2426 13.4999H22.0805C20.0688 13.4999 18.253 14.7056 17.4723 16.5597L15.0435 22.3282C14.5589 23.4791 14.8194 24.8089 15.7024 25.692C16.3587 26.3483 17.2602 26.6595 18.1506 26.5793V26.6101V26.6464V26.6827V26.7192V26.7557V26.7924V26.8291V26.866V26.9029V26.94V26.9771V27.0143V27.0516V27.089V27.1265V27.164V27.2017V27.2394V27.2773V27.3152V27.3532V27.3913V27.4294V27.4677V27.506V27.5444V27.5829V27.6215V27.6601V27.6989V27.7377V27.7765V27.8155V27.8545V27.8936V27.9328V27.972V28.0114V28.0508V28.0902V28.1297V28.1693V28.209V28.2487V28.2885V28.3284V28.3683V28.4083V28.4484V28.4885V28.5287V28.5689V28.6092V28.6496V28.69V28.7305V28.771V28.8116V28.8523V28.893V28.9337V28.9745V29.0154V29.0563V29.0973V29.1383V29.1793V29.2204V29.2616V29.3028V29.3441V29.3854V29.4267V29.4681V29.5095V29.551V29.5925V29.6341V29.6757V29.7173V29.759V29.8007V29.8424V29.8842V29.926V29.9679V30.0098V30.0517V30.0937V30.1357V30.1777V30.2197V30.2618V30.3039V30.346V30.3882V30.4304V30.4726V30.5149V30.5571V30.5994V30.6417V30.684V30.7264V30.7688V30.8112V30.8536V30.896V30.9385V30.9809V31.0234V31.0659V31.1084V31.1509V31.1935V31.236V31.2786V31.3211V31.3637V31.4063V31.4489V31.4915V31.5341V31.5767V31.6194V31.662V31.7046V31.7473V31.7899V31.8325V31.8752V31.9178V31.9604V32.0031V32.0457V32.0883V32.131V32.1736V32.2162V32.2588V32.3014V32.344V32.3866V32.4291V32.4717V32.5143V32.5568V32.5993V32.6419V32.6844V32.7268V32.7693V32.8118V32.8542V32.8966V32.939V32.9814V33.0238V33.0661V33.1084V33.1507V33.193V33.2353V33.2775V33.3197V33.3619V33.404V33.4461V33.4882V33.5303V33.5723V33.6143V33.6563V33.6982V33.7402V33.782V33.8239V33.8657V33.9074V33.9492V33.9909V34.0325V34.0741V34.1157V34.1572V34.1987V34.2402V34.2816V34.3229V34.3643V34.4055V34.4468V34.4879V34.5291V34.5702V34.6112V34.6522V34.6931V34.734V34.7748V34.8156V34.8563V34.897V34.9376V34.9782V35.0187V35.0591V35.0995V35.1399V35.1801V35.2203V35.2605V35.3006V35.3406V35.3806V35.4204V35.4603V35.5V35.5397V35.5794V35.6189V35.6584V35.6978V35.7372V35.7765V35.8157V35.8548V35.8939V35.9329V35.9718V36.0106V36.0494V36.0881V36.1267V36.1652V36.2037V36.242V36.2803V36.3185V36.3567V36.3947V36.4326V36.4705V36.5083V36.546V36.5836V36.6211V36.6586V36.6959V36.7332V36.7703V36.8074V36.8444V36.8813V36.9181V36.9548V36.9914V37.0279V37.0643V37.1006V37.1368V37.1729V37.2089V37.2448V37.2806V37.3163V37.3519V37.3874V37.4228V37.4581V37.4933V37.5284V37.5633V37.5982V37.633V37.6676V37.7021V37.7365V37.7708V37.805V37.8391V37.8731V37.9069V37.9407V37.9743V38.0078V38.0411V38.0744V38.1075V38.1406V38.1735V38.2062V38.2389V38.2714V38.3038V38.3361V38.3682V38.4003V38.4322V38.4639V38.4956V38.5271V38.5585V38.5897V38.6208V38.6518V38.6827V38.7134V38.7439V38.7744V38.8047V38.8349V38.8649V38.8948V38.9245V38.9541V38.9836V39.0129V39.0421V39.0712V39.1001V39.1288V39.1574V39.1859V39.2142V39.2423V39.2703V39.2982V39.3259V39.3535V39.3809V39.4081V39.4352V39.4622V39.489V39.5156V39.5421V39.5684V39.5946V39.6206V39.6464V39.6721V39.6977V39.723V39.7482V39.7733V39.7981V39.8228V39.8474V39.8717V39.896V39.92V39.9439V39.9676V39.9911V40.0145V40.0376V40.0607V40.0835V40.1062V40.1287V40.151V40.1731V40.1951V40.2169V40.2385V40.2599V40.2811V40.3022V40.3231V40.3438V40.3643V40.3846V40.4048V40.4247V40.4445V40.4641V40.4835V40.5027V40.5217V40.5406V40.5592V40.5777V40.5959V40.614V40.6318V40.6495V40.667V40.6843V40.7014V40.7183V40.7349V40.7514V40.7677V40.7838V40.7997V40.8154V40.8309V40.8461V40.8612V40.8761V40.8907V40.9052V40.9194V40.9335V40.9473V40.9609V40.9743V40.9875V41.0005V41.0133V41.0258V41.0382V41.0503V41.0622V41.0739V41.0854V41.0966V41.1077V41.1185V41.1291V41.1395V41.1496V41.1595V41.1692V41.1787V41.188V41.197V41.2058V41.2144V41.2227V41.2309V41.2387V41.2464V41.2538V41.261V41.268V41.2747V41.2812V41.2875V41.2935V41.2993V41.3048V41.3101V41.3152V41.32V41.3246V41.329V41.3331V41.3369V41.3405V41.3439V41.347V41.3499V41.3526V41.355V41.3571V41.359V41.3606V41.362V41.3632V41.364V41.3647V41.3651C18.1506 41.3652 18.1506 41.3652 19.1506 41.3652H18.1506C18.1506 42.8165 19.3338 43.9998 20.7851 43.9998C22.2364 43.9998 23.4197 42.8165 23.4197 41.3652V31.1923H25.4295V41.3652C25.4295 42.8165 26.6128 43.9998 28.0641 43.9998C29.5154 43.9998 30.6987 42.8165 30.6987 41.3652H29.6987C30.6987 41.3652 30.6987 41.3652 30.6987 41.3651V41.3647V41.3642V41.3634V41.3624V41.3611V41.3596V41.3579V41.356V41.3539V41.3515V41.3489V41.3461V41.3431V41.3399V41.3364V41.3327V41.3288V41.3247V41.3203V41.3158V41.311V41.306V41.3008V41.2954V41.2898V41.284V41.2779V41.2717V41.2652V41.2585V41.2516V41.2445V41.2372V41.2297V41.222V41.214V41.2059V41.1976V41.189V41.1803V41.1713V41.1622V41.1528V41.1432V41.1335V41.1235V41.1134V41.103V41.0925V41.0817V41.0707V41.0596V41.0482V41.0367V41.025V41.013V41.0009V40.9886V40.9761V40.9634V40.9505V40.9374V40.9241V40.9107V40.897V40.8832V40.8691V40.8549V40.8405V40.8259V40.8112V40.7962V40.7811V40.7657V40.7502V40.7345V40.7187V40.7026V40.6864V40.67V40.6534V40.6366V40.6196V40.6025V40.5852V40.5677V40.5501V40.5322V40.5142V40.4961V40.4777V40.4592V40.4405V40.4216V40.4026V40.3834V40.364V40.3445V40.3247V40.3049V40.2848V40.2646V40.2442V40.2237V40.203V40.1821V40.161V40.1398V40.1185V40.0969V40.0753V40.0534V40.0314V40.0092V39.9869V39.9644V39.9418V39.919V39.896V39.8729V39.8497V39.8262V39.8027V39.7789V39.7551V39.731V39.7069V39.6825V39.658V39.6334V39.6086V39.5837V39.5586V39.5334V39.508V39.4825V39.4569V39.4311V39.4051V39.379V39.3528V39.3264V39.2999V39.2732V39.2464V39.2195V39.1924V39.1652V39.1378V39.1103V39.0827V39.0549V39.027V38.999V38.9708V38.9425V38.9141V38.8855V38.8568V38.828V38.799V38.7699V38.7407V38.7113V38.6818V38.6522V38.6225V38.5926V38.5626V38.5325V38.5023V38.4719V38.4414V38.4108V38.3801V38.3492V38.3183V38.2872V38.256V38.2246V38.1932V38.1616V38.1299V38.0981V38.0662V38.0342V38.002V37.9697V37.9374V37.9049V37.8723V37.8395V37.8067V37.7738V37.7407V37.7076V37.6743V37.6409V37.6074V37.5738V37.5402V37.5063V37.4724V37.4384V37.4043V37.3701V37.3358V37.3013V37.2668V37.2322V37.1975V37.1626V37.1277V37.0927V37.0576V37.0223V36.987V36.9516V36.9161V36.8805V36.8448V36.809V36.7731V36.7371V36.7011V36.6649V36.6286V36.5923V36.5559V36.5193V36.4827V36.446V36.4093V36.3724V36.3354V36.2984V36.2613V36.2241V36.1868V36.1494V36.1119V36.0744V36.0368V35.9991V35.9613V35.9234V35.8855V35.8475V35.8094V35.7712V35.7329V35.6946V35.6562V35.6177V35.5792V35.5406V35.5019V35.4631V35.4243V35.3854V35.3464V35.3074V35.2682V35.2291V35.1898V35.1505V35.1111V35.0717V35.0321V34.9926V34.9529V34.9132V34.8734V34.8336V34.7937V34.7538V34.7137V34.6737V34.6335V34.5933V34.5531V34.5128V34.4724V34.432V34.3915V34.351V34.3104V34.2698V34.2291V34.1883V34.1475V34.1067V34.0658V34.0248V33.9838V33.9428V33.9017V33.8605V33.8193V33.7781V33.7368V33.6955V33.6541V33.6127V33.5712V33.5297V33.4882V33.4466V33.405V33.3633V33.3216V33.2799V33.2381V33.1962V33.1544V33.1125V33.0705V33.0286V32.9866V32.9445V32.9025V32.8603V32.8182V32.776V32.7338V32.6916V32.6493V32.607V32.5647V32.5224V32.48V32.4376V32.3952V32.3527V32.3102V32.2677V32.2252V32.1826V32.14V32.0974V32.0548V32.0122V31.9695V31.9268V31.8841V31.8414V31.7987V31.7559V31.7131V31.6704V31.6276V31.5847V31.5419V31.4991V31.4562V31.4133V31.3704V31.3275V31.2846V31.2417V31.1988V31.1559V31.1129V31.07V31.027V30.984V30.9411V30.8981V30.8551V30.8121V30.7691V30.7261V30.6831V30.6402V30.5972V30.5542V30.5112V30.4682V30.4252V30.3822V30.3392V30.2962V30.2532V30.2102V30.1673V30.1243V30.0813V30.0384V29.9954V29.9525V29.9096V29.8667V29.8237V29.7808V29.738V29.6951V29.6522V29.6094V29.5665V29.5237V29.4809V29.4381V29.3953V29.3526V29.3098V29.2671V29.2244V29.1817V29.139V29.0964V29.0537V29.0111V28.9685V28.926V28.8834V28.8409V28.7984V28.756V28.7135V28.6711V28.6287V28.5864V28.544V28.5017V28.4595V28.4172V28.375V28.3328V28.2907V28.2485V28.2065V28.1644V28.1224V28.0804V28.0385V27.9965V27.9547V27.9128V27.871V27.8293V27.7875V27.7459V27.7042V27.6626V27.6211V27.5795V27.5381V27.4966V27.4552V27.4139V27.3726V27.3313V27.2901V27.249V27.2079V27.1668V27.1258V27.0848V27.0439V27.003V26.9622V26.9214V26.8807V26.8401V26.7995V26.7589V26.7184V26.678V26.6376V26.5973V26.592C31.5878 26.6667 32.4855 26.3532 33.1399 25.6989C34.0271 24.8116 34.2889 23.4756 33.802 22.3192L31.3769 16.5597C30.5962 14.7056 28.7804 13.4999 26.7687 13.4999H26.6067C28.2748 12.6896 29.4246 10.979 29.4246 8.99994C29.4246 6.23852 27.186 3.99994 24.4246 3.99994ZM29.6987 41.3652H28.6987C28.6987 41.7119 28.4108 41.9998 28.0641 41.9998C27.7174 41.9998 27.4295 41.7119 27.4295 41.3652V30.1923V29.1923H26.4295H22.4197H21.4197V30.1923V41.3652C21.4197 41.7119 21.1319 41.9998 20.7851 41.9998C20.4384 41.9998 20.1506 41.7119 20.1506 41.3652H19.1506C20.1506 41.3652 20.1506 41.3652 20.1506 41.3651V41.3647V41.364V41.3632V41.362V41.3606V41.359V41.3571V41.355V41.3526V41.3499V41.347V41.3439V41.3405V41.3369V41.3331V41.329V41.3246V41.32V41.3152V41.3101V41.3048V41.2993V41.2935V41.2875V41.2812V41.2747V41.268V41.261V41.2538V41.2464V41.2387V41.2309V41.2227V41.2144V41.2058V41.197V41.188V41.1787V41.1692V41.1595V41.1496V41.1395V41.1291V41.1185V41.1077V41.0966V41.0854V41.0739V41.0622V41.0503V41.0382V41.0258V41.0133V41.0005V40.9875V40.9743V40.9609V40.9473V40.9335V40.9194V40.9052V40.8907V40.8761V40.8612V40.8461V40.8309V40.8154V40.7997V40.7838V40.7677V40.7514V40.7349V40.7183V40.7014V40.6843V40.667V40.6495V40.6318V40.614V40.5959V40.5777V40.5592V40.5406V40.5217V40.5027V40.4835V40.4641V40.4445V40.4247V40.4048V40.3846V40.3643V40.3438V40.3231V40.3022V40.2811V40.2599V40.2385V40.2169V40.1951V40.1731V40.151V40.1287V40.1062V40.0835V40.0607V40.0376V40.0145V39.9911V39.9676V39.9439V39.92V39.896V39.8717V39.8474V39.8228V39.7981V39.7733V39.7482V39.723V39.6977V39.6721V39.6464V39.6206V39.5946V39.5684V39.5421V39.5156V39.489V39.4622V39.4352V39.4081V39.3809V39.3535V39.3259V39.2982V39.2703V39.2423V39.2142V39.1859V39.1574V39.1288V39.1001V39.0712V39.0421V39.0129V38.9836V38.9541V38.9245V38.8948V38.8649V38.8349V38.8047V38.7744V38.7439V38.7134V38.6827V38.6518V38.6208V38.5897V38.5585V38.5271V38.4956V38.4639V38.4322V38.4003V38.3682V38.3361V38.3038V38.2714V38.2389V38.2062V38.1735V38.1406V38.1075V38.0744V38.0411V38.0078V37.9743V37.9407V37.9069V37.8731V37.8391V37.805V37.7708V37.7365V37.7021V37.6676V37.633V37.5982V37.5633V37.5284V37.4933V37.4581V37.4228V37.3874V37.3519V37.3163V37.2806V37.2448V37.2089V37.1729V37.1368V37.1006V37.0643V37.0279V36.9914V36.9548V36.9181V36.8813V36.8444V36.8074V36.7703V36.7332V36.6959V36.6586V36.6211V36.5836V36.546V36.5083V36.4705V36.4326V36.3947V36.3567V36.3185V36.2803V36.242V36.2037V36.1652V36.1267V36.0881V36.0494V36.0106V35.9718V35.9329V35.8939V35.8548V35.8157V35.7765V35.7372V35.6978V35.6584V35.6189V35.5794V35.5397V35.5V35.4603V35.4204V35.3806V35.3406V35.3006V35.2605V35.2203V35.1801V35.1399V35.0995V35.0591V35.0187V34.9782V34.9376V34.897V34.8563V34.8156V34.7748V34.734V34.6931V34.6522V34.6112V34.5702V34.5291V34.4879V34.4468V34.4055V34.3643V34.3229V34.2816V34.2402V34.1987V34.1572V34.1157V34.0741V34.0325V33.9909V33.9492V33.9074V33.8657V33.8239V33.782V33.7402V33.6982V33.6563V33.6143V33.5723V33.5303V33.4882V33.4461V33.404V33.3619V33.3197V33.2775V33.2353V33.193V33.1507V33.1084V33.0661V33.0238V32.9814V32.939V32.8966V32.8542V32.8118V32.7693V32.7268V32.6844V32.6419V32.5993V32.5568V32.5143V32.4717V32.4291V32.3866V32.344V32.3014V32.2588V32.2162V32.1736V32.131V32.0883V32.0457V32.0031V31.9604V31.9178V31.8752V31.8325V31.7899V31.7473V31.7046V31.662V31.6194V31.5767V31.5341V31.4915V31.4489V31.4063V31.3637V31.3211V31.2786V31.236V31.1935V31.1509V31.1084V31.0659V31.0234V30.9809V30.9385V30.896V30.8536V30.8112V30.7688V30.7264V30.684V30.6417V30.5994V30.5571V30.5149V30.4726V30.4304V30.3882V30.346V30.3039V30.2618V30.2197V30.1777V30.1357V30.0937V30.0517V30.0098V29.9679V29.926V29.8842V29.8424V29.8007V29.759V29.7173V29.6757V29.6341V29.5925V29.551V29.5095V29.4681V29.4267V29.3854V29.3441V29.3028V29.2616V29.2204V29.1793V29.1383V29.0973V29.0563V29.0154V28.9745V28.9337V28.893V28.8523V28.8116V28.771V28.7305V28.69V28.6496V28.6092V28.5689V28.5287V28.4885V28.4484V28.4083V28.3683V28.3284V28.2885V28.2487V28.209V28.1693V28.1297V28.0902V28.0508V28.0114V27.972V27.9328V27.8936V27.8545V27.8155V27.7765V27.7377V27.6989V27.6601V27.6215V27.5829V27.5444V27.506V27.4677V27.4294V27.3913V27.3532V27.3152V27.2773V27.2394V27.2017V27.164V27.1265V27.089V27.0516V27.0143V26.9771V26.94V26.9029V26.866V26.8291V26.7924V26.7557V26.7192V26.6827V26.6464V26.6101V26.5739V26.5379V26.5019V26.466V26.4303V26.3946V26.3591V26.3236V26.2883V26.253V26.2179V26.1829V26.148V26.1132V26.0785V26.0439V26.0094V25.975V25.9408V25.9066V25.8726V25.8593L24.3104 23.9685L28.6987 25.8952V25.9209V25.9602V25.9995V26.0389V26.0784V26.1179V26.1575V26.1972V26.2369V26.2767V26.3166V26.3565V26.3965V26.4365V26.4766V26.5168V26.557V26.5973V26.6376V26.678V26.7184V26.7589V26.7995V26.8401V26.8807V26.9214V26.9622V27.003V27.0439V27.0848V27.1258V27.1668V27.2079V27.249V27.2901V27.3313V27.3726V27.4139V27.4552V27.4966V27.5381V27.5795V27.6211V27.6626V27.7042V27.7459V27.7875V27.8293V27.871V27.9128V27.9547V27.9965V28.0385V28.0804V28.1224V28.1644V28.2065V28.2485V28.2907V28.3328V28.375V28.4172V28.4595V28.5017V28.544V28.5864V28.6287V28.6711V28.7135V28.756V28.7984V28.8409V28.8834V28.926V28.9685V29.0111V29.0537V29.0964V29.139V29.1817V29.2244V29.2671V29.3098V29.3526V29.3953V29.4381V29.4809V29.5237V29.5665V29.6094V29.6522V29.6951V29.738V29.7808V29.8237V29.8667V29.9096V29.9525V29.9954V30.0384V30.0813V30.1243V30.1673V30.2102V30.2532V30.2962V30.3392V30.3822V30.4252V30.4682V30.5112V30.5542V30.5972V30.6402V30.6831V30.7261V30.7691V30.8121V30.8551V30.8981V30.9411V30.984V31.027V31.07V31.1129V31.1559V31.1988V31.2417V31.2846V31.3275V31.3704V31.4133V31.4562V31.4991V31.5419V31.5847V31.6276V31.6704V31.7131V31.7559V31.7987V31.8414V31.8841V31.9268V31.9695V32.0122V32.0548V32.0974V32.14V32.1826V32.2252V32.2677V32.3102V32.3527V32.3952V32.4376V32.48V32.5224V32.5647V32.607V32.6493V32.6916V32.7338V32.776V32.8182V32.8603V32.9025V32.9445V32.9866V33.0286V33.0705V33.1125V33.1544V33.1962V33.2381V33.2799V33.3216V33.3633V33.405V33.4466V33.4882V33.5297V33.5712V33.6127V33.6541V33.6955V33.7368V33.7781V33.8193V33.8605V33.9017V33.9428V33.9838V34.0248V34.0658V34.1067V34.1475V34.1883V34.2291V34.2698V34.3104V34.351V34.3915V34.432V34.4724V34.5128V34.5531V34.5933V34.6335V34.6737V34.7137V34.7538V34.7937V34.8336V34.8734V34.9132V34.9529V34.9926V35.0321V35.0717V35.1111V35.1505V35.1898V35.2291V35.2682V35.3074V35.3464V35.3854V35.4243V35.4631V35.5019V35.5406V35.5792V35.6177V35.6562V35.6946V35.7329V35.7712V35.8094V35.8475V35.8855V35.9234V35.9613V35.9991V36.0368V36.0744V36.1119V36.1494V36.1868V36.2241V36.2613V36.2984V36.3354V36.3724V36.4093V36.446V36.4827V36.5193V36.5559V36.5923V36.6286V36.6649V36.7011V36.7371V36.7731V36.809V36.8448V36.8805V36.9161V36.9516V36.987V37.0223V37.0576V37.0927V37.1277V37.1626V37.1975V37.2322V37.2668V37.3013V37.3358V37.3701V37.4043V37.4384V37.4724V37.5063V37.5402V37.5738V37.6074V37.6409V37.6743V37.7076V37.7407V37.7738V37.8067V37.8395V37.8723V37.9049V37.9374V37.9697V38.002V38.0342V38.0662V38.0981V38.1299V38.1616V38.1932V38.2246V38.256V38.2872V38.3183V38.3492V38.3801V38.4108V38.4414V38.4719V38.5023V38.5325V38.5626V38.5926V38.6225V38.6522V38.6818V38.7113V38.7407V38.7699V38.799V38.828V38.8568V38.8855V38.9141V38.9425V38.9708V38.999V39.027V39.0549V39.0827V39.1103V39.1378V39.1652V39.1924V39.2195V39.2464V39.2732V39.2999V39.3264V39.3528V39.379V39.4051V39.4311V39.4569V39.4825V39.508V39.5334V39.5586V39.5837V39.6086V39.6334V39.658V39.6825V39.7069V39.731V39.7551V39.7789V39.8027V39.8262V39.8497V39.8729V39.896V39.919V39.9418V39.9644V39.9869V40.0092V40.0314V40.0534V40.0753V40.0969V40.1185V40.1398V40.161V40.1821V40.203V40.2237V40.2442V40.2646V40.2848V40.3049V40.3247V40.3445V40.364V40.3834V40.4026V40.4216V40.4405V40.4592V40.4777V40.4961V40.5142V40.5322V40.5501V40.5677V40.5852V40.6025V40.6196V40.6366V40.6534V40.67V40.6864V40.7026V40.7187V40.7345V40.7502V40.7657V40.7811V40.7962V40.8112V40.8259V40.8405V40.8549V40.8691V40.8832V40.897V40.9107V40.9241V40.9374V40.9505V40.9634V40.9761V40.9886V41.0009V41.013V41.025V41.0367V41.0482V41.0596V41.0707V41.0817V41.0925V41.103V41.1134V41.1235V41.1335V41.1432V41.1528V41.1622V41.1713V41.1803V41.189V41.1976V41.2059V41.214V41.222V41.2297V41.2372V41.2445V41.2516V41.2585V41.2652V41.2717V41.2779V41.284V41.2898V41.2954V41.3008V41.306V41.311V41.3158V41.3203V41.3247V41.3288V41.3327V41.3364V41.3399V41.3431V41.3461V41.3489V41.3515V41.3539V41.356V41.3579V41.3596V41.3611V41.3624V41.3634V41.3642V41.3647V41.3651C28.6987 41.3652 28.6987 41.3652 29.6987 41.3652ZM36.9635 18.953C39.4747 21.4642 39.4747 25.5358 36.9635 28.047L38.3777 29.4612C41.67 26.1689 41.67 20.8311 38.3777 17.5388L36.9635 18.953ZM11.8818 28.0429C9.37273 25.5338 9.37273 21.4659 11.8818 18.9568L10.4676 17.5426C7.17747 20.8327 7.17747 26.167 10.4676 29.4571L11.8818 28.0429ZM13.9888 21.0639C12.6434 22.4093 12.6434 24.5906 13.9888 25.936L12.5746 27.3502C10.4481 25.2238 10.4481 21.7761 12.5746 19.6497L13.9888 21.0639ZM34.8525 21.0639C36.1979 22.4093 36.1979 24.5906 34.8525 25.936L36.2667 27.3502C38.3932 25.2238 38.3932 21.7761 36.2667 19.6497L34.8525 21.0639ZM22.0805 15.4999C20.8735 15.4999 19.784 16.2233 19.3156 17.3358L16.8868 23.1043C16.7177 23.5058 16.8086 23.9697 17.1166 24.2777C17.4325 24.5936 17.9111 24.6804 18.3177 24.4955L26.0117 20.9983C26.5486 20.7542 26.7595 20.1015 26.4669 19.5894C26.2091 19.1383 25.6492 18.9592 25.1774 19.1769L20.3437 21.4079L19.5056 19.592L24.3393 17.361C25.753 16.7086 27.4309 17.2453 28.2034 18.5972C29.0802 20.1316 28.4482 22.0877 26.8393 22.819L26.7548 22.8574L30.5212 24.5111C30.931 24.6911 31.4092 24.6011 31.7257 24.2847C32.0379 23.9724 32.13 23.5022 31.9587 23.0953L29.5336 17.3358C29.0652 16.2233 27.9757 15.4999 26.7687 15.4999H22.0805Z" fill="#333333"/>
</svg>
