<svg width="48" height="48" viewBox="0 0 48 48" fill="none" xmlns="http://www.w3.org/2000/svg">
<path fill-rule="evenodd" clip-rule="evenodd" d="M23.4481 13.1661C23.7827 12.9446 24.2173 12.9446 24.5519 13.1661L31.3519 17.6661C31.6317 17.8513 31.8 18.1644 31.8 18.5V22.8009L41.2658 25.411C41.6995 25.5306 42 25.9251 42 26.375V42H40V27.1366L30.5342 24.5265C30.1005 24.4069 29.8 24.0124 29.8 23.5625V19.0374L24 15.1991L18.2 19.0374V23.5625C18.2 23.9758 17.9457 24.3466 17.5601 24.4954L8 28.1859V42H6V27.5C6 27.0867 6.25428 26.7159 6.63987 26.5671L16.2 22.8766V18.5C16.2 18.1644 16.3683 17.8513 16.6481 17.6661L23.4481 13.1661Z" fill="#333333"/>
<path fill-rule="evenodd" clip-rule="evenodd" d="M18 27L18 42L16 42L16 27L18 27Z" fill="#333333"/>
<path fill-rule="evenodd" clip-rule="evenodd" d="M32 27L32 42L30 42L30 27L32 27Z" fill="#333333"/>
<path d="M21 32C21 30.3431 22.3431 29 24 29C25.6569 29 27 30.3431 27 32V42H21V32Z" fill="#333333"/>
<path fill-rule="evenodd" clip-rule="evenodd" d="M23 14V6H25V14H23Z" fill="#333333"/>
<path fill-rule="evenodd" clip-rule="evenodd" d="M28 11L20 11L20 9L28 9L28 11Z" fill="#333333"/>
</svg>
