<svg width="48" height="48" viewBox="0 0 48 48" fill="none" xmlns="http://www.w3.org/2000/svg">
<rect width="48" height="48" fill="white"/>
<path fill-rule="evenodd" clip-rule="evenodd" d="M8 6V40H42V42H7C6.44772 42 6 41.5523 6 41V6H8Z" fill="#333333"/>
<path fill-rule="evenodd" clip-rule="evenodd" d="M6 17C6 16.4477 6.44772 16 7 16H8.87115C11.3026 16 13.6843 16.7409 15.8282 18.1398C17.9693 19.5368 19.8121 21.5492 21.2308 23.9988C22.5133 26.2137 24.1496 27.981 25.9954 29.1854C27.8383 30.3879 29.844 31.0001 31.8596 31H39.5C40.0523 31 40.5 31.4477 40.5 32C40.5 32.5523 40.0523 33 39.5 33H31.8597C29.4283 33.0002 27.0465 32.2593 24.9025 30.8604C22.7615 29.4633 20.9186 27.4509 19.5 25.0011C18.2174 22.7864 16.5811 21.0192 14.7353 19.8148C12.8924 18.6123 10.8868 18 8.87117 18H7C6.44772 18 6 17.5523 6 17Z" fill="#333333"/>
<path fill-rule="evenodd" clip-rule="evenodd" d="M35.293 26.5105C35.6836 26.1201 36.3168 26.1202 36.7073 26.5108L41.4873 31.2928C41.8776 31.6833 41.8776 32.3162 41.4873 32.7067L36.7073 37.4887C36.3168 37.8793 35.6836 37.8795 35.293 37.489C34.9024 37.0986 34.9023 36.4654 35.2927 36.0748L39.3661 31.9998L35.2927 27.9247C34.9023 27.5341 34.9024 26.901 35.293 26.5105Z" fill="#333333"/>
<path fill-rule="evenodd" clip-rule="evenodd" d="M30.0725 6.73921C30.5458 6.2659 31.1878 6 31.8571 6H34.1429C34.8122 6 35.4542 6.2659 35.9275 6.73921C36.4008 7.21251 36.6667 7.85445 36.6667 8.52381V11.3333H39.4762C40.1455 11.3333 40.7875 11.5992 41.2608 12.0725C41.7341 12.5458 42 13.1878 42 13.8571V16.1429C42 16.8122 41.7341 17.4542 41.2608 17.9275C40.7875 18.4008 40.1455 18.6667 39.4762 18.6667H36.6667V21.4762C36.6667 22.1455 36.4008 22.7875 35.9275 23.2608C35.4542 23.7341 34.8122 24 34.1429 24H31.8571C31.1878 24 30.5458 23.7341 30.0725 23.2608C29.5992 22.7875 29.3333 22.1455 29.3333 21.4762V18.6667H26.5238C25.8545 18.6667 25.2125 18.4008 24.7392 17.9275C24.2659 17.4542 24 16.8122 24 16.1429V13.8571C24 13.1878 24.2659 12.5458 24.7392 12.0725C25.2125 11.5992 25.8545 11.3333 26.5238 11.3333H29.3333V8.52381C29.3333 7.85445 29.5992 7.21251 30.0725 6.73921ZM31.8571 8C31.7182 8 31.585 8.05519 31.4868 8.15342C31.3885 8.25165 31.3333 8.38489 31.3333 8.52381V12.3333C31.3333 12.8856 30.8856 13.3333 30.3333 13.3333H26.5238C26.3849 13.3333 26.2517 13.3885 26.1534 13.4868C26.0552 13.585 26 13.7182 26 13.8571V16.1429C26 16.2818 26.0552 16.415 26.1534 16.5132C26.2517 16.6115 26.3849 16.6667 26.5238 16.6667H30.3333C30.8856 16.6667 31.3333 17.1144 31.3333 17.6667V21.4762C31.3333 21.6151 31.3885 21.7483 31.4868 21.8466C31.585 21.9448 31.7182 22 31.8571 22H34.1429C34.2818 22 34.415 21.9448 34.5132 21.8466C34.6115 21.7483 34.6667 21.6151 34.6667 21.4762V17.6667C34.6667 17.1144 35.1144 16.6667 35.6667 16.6667H39.4762C39.6151 16.6667 39.7483 16.6115 39.8466 16.5132C39.9448 16.415 40 16.2818 40 16.1429V13.8571C40 13.7182 39.9448 13.585 39.8466 13.4868C39.7483 13.3885 39.6151 13.3333 39.4762 13.3333H35.6667C35.1144 13.3333 34.6667 12.8856 34.6667 12.3333V8.52381C34.6667 8.38489 34.6115 8.25165 34.5132 8.15342C34.415 8.05519 34.2818 8 34.1429 8H31.8571Z" fill="#333333"/>
</svg>
