<svg width="48" height="48" viewBox="0 0 48 48" fill="none" xmlns="http://www.w3.org/2000/svg">
<path d="M14.7815 20.4114L20.8971 19.4537L16.9275 15.0578L14.7815 20.4114Z" fill="#333333"/>
<path d="M20.2752 15.8371L22.0858 12.4729L25.5134 14.2498L23.7029 17.614L20.2752 15.8371Z" fill="#333333"/>
<path fill-rule="evenodd" clip-rule="evenodd" d="M28.1437 20.5443C27.532 20.9702 26.8084 21.1981 26.0677 21.1981C25.5076 21.1981 25.3441 21.0678 25.0332 20.8202C24.933 20.7403 24.8173 20.6482 24.6681 20.5443C24.4963 20.7299 24.4172 20.8988 24.3467 21.0493C24.241 21.2751 24.1546 21.4593 23.8038 21.5963C23.18 21.9098 22.6548 22.3954 22.2879 22.998C21.9209 23.6005 21.7269 24.2958 21.7278 25.0051V28.9999H16.8495C16.7502 28.1441 16.4641 27.3218 16.0122 26.5936C15.5603 25.8654 14.954 25.2498 14.2381 24.7921C13.6167 24.5197 13.0802 24.0792 12.6867 23.5182C12.2932 22.9573 12.0575 22.2973 12.0053 21.6096C11.3586 20.9113 10.9988 19.9868 11 19.0263C10.995 18.1981 11.2616 17.392 11.7573 16.736C11.666 16.4114 11.622 16.0749 11.6267 15.7373C11.6254 14.9298 11.8785 14.1433 12.3487 13.4937L14.2381 12.1287C14.5279 11.464 15.0003 10.899 15.598 10.5021C16.1958 10.1051 16.8935 9.8931 17.6068 9.8916C17.9014 9.89345 18.1948 9.92918 18.4816 9.99813C19.0884 9.42154 19.8679 9.06993 20.6944 8.99989L25.6671 9.285C26.553 9.50841 27.3275 10.056 27.8434 10.8237H28.1046L30.4239 11.6515C31.0818 12.1893 31.5396 12.9402 31.7213 13.7798C32.5173 14.1323 33.1704 14.7528 33.5714 15.5376C33.9724 16.3224 34.0968 17.2239 33.924 18.0911C33.7512 18.9583 33.2915 19.7387 32.622 20.3016L30.2459 21.1835C29.4979 21.1923 28.7649 20.9695 28.1437 20.5443ZM30.0531 19.7291C29.6427 19.7044 29.2498 19.5789 28.9092 19.3704L28.1376 18.8429C27.9155 19.0142 27.3969 19.3907 27.0994 19.5263C26.7276 19.6957 25.909 19.7465 25.909 19.7465C25.909 19.7465 25.2949 19.2329 24.5039 18.7214C24.3875 18.8466 24.0807 19.1761 23.7852 19.4924C23.4897 19.8087 23.311 20.1532 23.2586 20.2859C22.9949 20.4205 22.3622 20.8033 21.9409 21.2574C21.4143 21.825 20.4501 23.0238 20.4501 24.9771V27.5551H17.8628C17.6126 26.6627 16.8756 24.9175 15.1387 23.7183L15.1426 23.715C15.0521 23.6507 14.9601 23.5887 14.8667 23.529L14.786 23.4775L14.6997 23.4396C14.2785 23.255 13.9322 22.9639 13.6875 22.615C13.4438 22.2677 13.3083 21.8751 13.2784 21.4816L13.2371 20.9367L12.8874 20.5592C12.4787 20.118 12.2771 19.5657 12.2777 19.0241L12.2777 19.0182L12.2777 19.0123C12.2749 18.5477 12.4233 18.0751 12.7284 17.6714L13.1904 17.06L12.9749 16.2935C12.9252 16.1165 12.9018 15.9356 12.9043 15.7556L12.9045 15.743L12.9045 15.7305C12.9039 15.333 13.0111 14.9306 13.2293 14.5687L15.2262 13.126L15.3839 12.7643C15.5568 12.3678 15.8491 12.0076 16.2448 11.7448C16.64 11.4824 17.1125 11.3352 17.6044 11.3333C17.811 11.3349 18.0162 11.3602 18.216 11.4082L18.8258 11.5548L19.3033 11.1012C19.6786 10.7446 20.1733 10.5068 20.7174 10.4447L25.4844 10.718C26.0534 10.8855 26.5223 11.2423 26.8263 11.6946L27.2098 12.2654H27.9078L29.821 12.9482C30.166 13.2799 30.3878 13.6925 30.4802 14.1196L30.638 14.8486L31.2557 15.1221C31.8013 15.3636 32.2193 15.7757 32.4652 16.2571C32.7088 16.7338 32.7781 17.2641 32.6775 17.7688C32.5879 18.2184 32.3616 18.6537 32.0051 19.0047L30.0531 19.7291Z" fill="#333333"/>
<path d="M33.9779 23.963C33.9786 24.7914 33.3076 25.4636 32.4792 25.4642C31.6507 25.4649 30.9786 24.7939 30.9779 23.9655C30.9772 23.137 31.6483 22.4649 32.4767 22.4642C33.3051 22.4636 33.9772 23.1346 33.9779 23.963Z" fill="#333333"/>
<path d="M16.9849 32.4769L20.9849 32.4737L20.9833 30.4737L16.9833 30.4769L16.9849 32.4769Z" fill="#333333"/>
<path d="M20.9881 36.4737L16.9881 36.4769L16.9865 34.4769L20.9865 34.4737L20.9881 36.4737Z" fill="#333333"/>
<path d="M16.9915 40.4769L20.9915 40.4737L20.9899 38.4737L16.9899 38.4769L16.9915 40.4769Z" fill="#333333"/>
<path fill-rule="evenodd" clip-rule="evenodd" d="M26.943 38.8043C25.7447 38.6599 24.9427 38.4533 24.9427 38.4533L24.9455 41.8865C24.9455 41.8865 24.1116 44.6227 19.3733 44.6266C17.1424 44.8106 13.3224 43.3079 12.3083 41.1856L12.3014 32.6916C8.73151 29.9452 5.97806 24.2438 5.97413 19.4428C5.97086 15.4525 7.5828 11.6242 10.4553 8.80023C13.3279 5.97626 17.2257 4.38789 21.2914 4.38456C24.3961 4.37856 27.4645 5.03895 30.2817 6.31947C32.5018 7.23492 34.4461 8.69308 35.9293 10.555C37.2839 12.5111 38.0357 14.8088 38.0948 17.1733C38.1073 17.7065 38.1009 18.2595 38.0943 18.8227C38.0706 20.8602 38.0454 23.031 38.9094 24.8734C38.9094 24.8734 41.4476 27.2239 41.1147 29.1117C40.7818 30.9995 37.4794 31.522 37.4794 31.522C37.4856 39.1152 30.484 39.2311 26.943 38.8043ZM37.0986 25.7225L37.2642 26.0757L37.5472 26.3378L37.5482 26.3387L37.5565 26.3466L37.578 26.3673L37.6118 26.4005C37.6635 26.4516 37.742 26.531 37.8374 26.6334C38.0311 26.8413 38.2799 27.1282 38.5138 27.4532C38.7531 27.7856 38.94 28.1071 39.0495 28.3853C39.1195 28.5632 39.1382 28.6732 39.1431 28.7268C39.1299 28.7413 39.1106 28.7608 39.0831 28.785C38.9466 28.9054 38.7152 29.0466 38.3935 29.1826C38.0836 29.3136 37.7657 29.4082 37.5168 29.4703C37.3954 29.5005 37.2974 29.5213 37.2342 29.5338L37.1942 29.5415L37.1686 29.5462L37.1592 29.5478L35.478 29.8138L35.4794 31.5236C35.4811 33.6199 34.8535 34.7647 34.1401 35.4486C33.3741 36.1828 32.2597 36.6228 30.9223 36.8201C29.5962 37.0157 28.2228 36.9463 27.146 36.8143C26.6157 36.7493 26.1758 36.6714 25.8734 36.6111C25.7226 36.5809 25.6071 36.5554 25.5329 36.5383C25.4959 36.5297 25.4692 36.5233 25.4537 36.5195L25.4416 36.5165L25.4403 36.5162L25.4392 36.5159L22.9406 35.8723L22.9451 41.4077C22.8786 41.4981 22.7794 41.6129 22.6366 41.7349C22.2429 42.0715 21.328 42.625 19.3717 42.6266L19.2902 42.6267L19.209 42.6334C18.535 42.689 17.3703 42.4763 16.2115 41.95C15.2646 41.5199 14.6331 41.0237 14.3079 40.6217L14.3006 31.7062L13.5209 31.1064C12.0434 29.9698 10.64 28.1352 9.60415 25.9734C8.57066 23.8167 7.9758 21.4855 7.97413 19.4412C7.9713 15.9935 9.36369 12.678 11.8575 10.2265C14.3525 7.77361 17.7459 6.38747 21.293 6.38456L21.2953 6.38456C24.1141 6.37911 26.8989 6.97877 29.4541 8.14021L29.4865 8.1549L29.5193 8.16844C31.4071 8.94687 33.0586 10.1799 34.3228 11.7486C35.4328 13.3737 36.0464 15.272 36.0954 17.2216C36.1069 17.7166 36.101 18.2305 36.0945 18.7963L36.0914 19.0627C36.0843 19.7183 36.0802 20.4316 36.1121 21.1531C36.1755 22.5851 36.3842 24.1992 37.0986 25.7225Z" fill="#333333"/>
</svg>
