<svg width="48" height="48" viewBox="0 0 48 48" fill="none" xmlns="http://www.w3.org/2000/svg">
<path fill-rule="evenodd" clip-rule="evenodd" d="M30.0002 9.40545C30.0002 9.1078 30.3408 8.91179 30.6358 9.0399L34.0002 10.5L30.6358 11.9602C30.3408 12.0881 30.0002 11.8923 30.0002 11.5945V9.40545ZM34.0002 10.5L37.3647 9.0399C37.6596 8.91179 38.0002 9.1078 38.0002 9.40545V11.5945C38.0002 11.8923 37.6596 12.0881 37.3647 11.9602L34.0002 10.5ZM34.0004 14.25C32.6197 14.25 31.5004 15.3693 31.5004 16.75C31.5004 18.1307 32.6197 19.25 34.0004 19.25C35.3811 19.25 36.5004 18.1307 36.5004 16.75C36.5004 15.3693 35.3811 14.25 34.0004 14.25ZM29.5004 16.75C29.5004 14.2647 31.5151 12.25 34.0004 12.25C36.4857 12.25 38.5004 14.2647 38.5004 16.75C38.5004 18.4915 37.5112 20.0019 36.064 20.75H36.5004C37.3363 20.75 38.1168 21.1678 38.5805 21.8633L42.5805 27.8633C43.3464 29.0121 43.0359 30.5642 41.8871 31.3301C41.2987 31.7224 40.6045 31.8323 39.9643 31.6919L40.8948 33.5528L41.6184 35H40.0004H39.0004V37.25C39.0004 38.6307 37.8811 39.75 36.5004 39.75C35.1197 39.75 34.0004 38.6307 34.0004 37.25C34.0004 38.6307 32.8811 39.75 31.5004 39.75C30.1197 39.75 29.0004 38.6307 29.0004 37.25V35H28.0004H26.3823L27.1059 33.5528L28.0364 31.6919C27.3962 31.8323 26.702 31.7224 26.1136 31.3301C24.9648 30.5642 24.6544 29.0121 25.4202 27.8633L29.4202 21.8633C29.8839 21.1678 30.6645 20.75 31.5004 20.75H31.9368C30.4896 20.0019 29.5004 18.4915 29.5004 16.75ZM29.6184 33H30.0004H31.0004V34V37.25C31.0004 37.5261 31.2242 37.75 31.5004 37.75C31.7765 37.75 32.0004 37.5261 32.0004 37.25V34V33H33.0004H35.0004H36.0004V34V37.25C36.0004 37.5261 36.2242 37.75 36.5004 37.75C36.7765 37.75 37.0004 37.5261 37.0004 37.25V34V33H38.0004H38.3823L37.1059 30.4472L37.0004 30.2361V30V28.2042V24.9014L38.8324 27.6495L40.0844 29.5273C40.2375 29.7571 40.548 29.8192 40.7777 29.666C41.0075 29.5128 41.0696 29.2024 40.9164 28.9726L36.9164 22.9726C36.8237 22.8336 36.6676 22.75 36.5004 22.75H31.5004C31.3332 22.75 31.1771 22.8336 31.0843 22.9726L27.0843 28.9726C26.9312 29.2024 26.9933 29.5128 27.223 29.666C27.4528 29.8192 27.7632 29.7571 27.9164 29.5273L29.1683 27.6495L31.0004 24.9014V28.2042V30V30.2361L30.8948 30.4472L29.6184 33ZM12.0003 16.7783C12.0003 15.3976 13.1196 14.2783 14.5003 14.2783C15.881 14.2783 17.0003 15.3976 17.0003 16.7783C17.0003 18.159 15.881 19.2783 14.5003 19.2783C13.1196 19.2783 12.0003 18.159 12.0003 16.7783ZM14.5003 12.2783C12.015 12.2783 10.0003 14.293 10.0003 16.7783C10.0003 18.5198 10.9895 20.0302 12.4367 20.7783H11.5003C10.6644 20.7783 9.88381 21.1961 9.42014 21.8916L5.42014 27.8916C4.65426 29.0404 4.96469 30.5926 6.11352 31.3584C7.01939 31.9624 8.17607 31.8971 9.00027 31.2792V37.2783C9.00027 38.659 10.1196 39.7783 11.5003 39.7783C12.881 39.7783 14.0003 38.659 14.0003 37.2783V33.2783H15.0003V37.2783C15.0003 38.659 16.1196 39.7783 17.5003 39.7783C18.881 39.7783 20.0003 38.659 20.0003 37.2783V31.2792C20.8245 31.8971 21.9811 31.9624 22.887 31.3584C24.0358 30.5926 24.3463 29.0404 23.5804 27.8916L19.5804 21.8916C19.1167 21.1961 18.3361 20.7783 17.5003 20.7783H16.5639C18.011 20.0302 19.0003 18.5198 19.0003 16.7783C19.0003 14.293 16.9855 12.2783 14.5003 12.2783ZM11.0842 23.001C11.177 22.8619 11.3331 22.7783 11.5003 22.7783H17.5003C17.6674 22.7783 17.8236 22.8619 17.9163 23.001L21.9163 29.001C22.0695 29.2307 22.0074 29.5412 21.7776 29.6943C21.5479 29.8475 21.2374 29.7854 21.0842 29.5557L19.8323 27.6778L18.0003 24.9297V28.2325V37.2783C18.0003 37.5545 17.7764 37.7783 17.5003 37.7783C17.2241 37.7783 17.0003 37.5545 17.0003 37.2783V32.2783V31.2783H16.0003H13.0003H12.0003V32.2783V37.2783C12.0003 37.5545 11.7764 37.7783 11.5003 37.7783C11.2241 37.7783 11.0003 37.5545 11.0003 37.2783V28.2325V24.9297L9.16822 27.6778L7.91629 29.5557C7.76311 29.7854 7.45268 29.8475 7.22291 29.6943C6.99315 29.5412 6.93106 29.2307 7.08424 29.001L11.0842 23.001Z" fill="#333333"/>
</svg>
