<svg width="48" height="48" viewBox="0 0 48 48" fill="none" xmlns="http://www.w3.org/2000/svg">
<rect width="48" height="48" fill="white"/>
<path fill-rule="evenodd" clip-rule="evenodd" d="M38.1808 14.0165C38.724 14.1164 39.0834 14.6377 38.9835 15.1808C37.5257 23.1093 34.0067 28.607 29.0476 32.1024C24.1117 35.5814 17.8585 37 11.0523 37H7C6.44772 37 6 36.5523 6 36C6 35.4477 6.44772 35 7 35H11.0523C17.6037 35 23.406 33.6319 27.8954 30.4676C32.3616 27.3197 35.6378 22.3173 37.0165 14.8192C37.1164 14.276 37.6377 13.9166 38.1808 14.0165Z" fill="#333333"/>
<path fill-rule="evenodd" clip-rule="evenodd" d="M38.6157 13.0294C38.893 13.0982 39.1276 13.2822 39.2604 13.5352L41.8854 18.5352C42.1421 19.0242 41.9538 19.6287 41.4648 19.8854C40.9758 20.1421 40.3713 19.9538 40.1146 19.4648L38.0126 15.461L34.5655 17.8247C34.11 18.1371 33.4876 18.021 33.1753 17.5655C32.8629 17.11 32.979 16.4876 33.4345 16.1753L37.8095 13.1753C38.0451 13.0137 38.3385 12.9606 38.6157 13.0294Z" fill="#333333"/>
<path fill-rule="evenodd" clip-rule="evenodd" d="M8 6V40H42V42H7C6.44772 42 6 41.5523 6 41V6H8Z" fill="#333333"/>
<path fill-rule="evenodd" clip-rule="evenodd" d="M20.5 11.4C18.2356 11.4 16.4 13.2356 16.4 15.5C16.4 17.7644 18.2356 19.6 20.5 19.6C22.7644 19.6 24.6 17.7644 24.6 15.5C24.6 13.2356 22.7644 11.4 20.5 11.4ZM14.4 15.5C14.4 12.1311 17.1311 9.4 20.5 9.4C23.8689 9.4 26.6 12.1311 26.6 15.5C26.6 18.8689 23.8689 21.6 20.5 21.6C17.1311 21.6 14.4 18.8689 14.4 15.5Z" fill="#333333"/>
<path fill-rule="evenodd" clip-rule="evenodd" d="M18.65 7C18.65 6.44772 19.0977 6 19.65 6H21.35C21.9023 6 22.35 6.44772 22.35 7C22.35 7.55228 21.9023 8 21.35 8H19.65C19.0977 8 18.65 7.55228 18.65 7Z" fill="#333333"/>
<path fill-rule="evenodd" clip-rule="evenodd" d="M19.5 11.25V7.85H21.5V11.25H19.5Z" fill="#333333"/>
<path fill-rule="evenodd" clip-rule="evenodd" d="M24.8929 7.99289C25.2834 7.60237 25.9166 7.60237 26.3071 7.99289L28.0071 9.69289C28.3976 10.0834 28.3976 10.7166 28.0071 11.1071C27.6166 11.4976 26.9834 11.4976 26.5929 11.1071L24.8929 9.40711C24.5024 9.01658 24.5024 8.38342 24.8929 7.99289Z" fill="#333333"/>
<path fill-rule="evenodd" clip-rule="evenodd" d="M23.1929 11.3929L25.7429 8.84289L27.1571 10.2571L24.6071 12.8071L23.1929 11.3929Z" fill="#333333"/>
<path fill-rule="evenodd" clip-rule="evenodd" d="M29 13.65C29.5523 13.65 30 14.0977 30 14.65V16.35C30 16.9023 29.5523 17.35 29 17.35C28.4477 17.35 28 16.9023 28 16.35V14.65C28 14.0977 28.4477 13.65 29 13.65Z" fill="#333333"/>
<path fill-rule="evenodd" clip-rule="evenodd" d="M24.6 15.5C24.6 14.9477 25.0477 14.5 25.6 14.5H29C29.5523 14.5 30 14.9477 30 15.5C30 16.0523 29.5523 16.5 29 16.5H25.6C25.0477 16.5 24.6 16.0523 24.6 15.5Z" fill="#333333"/>
<path fill-rule="evenodd" clip-rule="evenodd" d="M28.8571 19.8929C29.2476 20.2834 29.2476 20.9166 28.8571 21.3071L27.1571 23.0071C26.7666 23.3976 26.1334 23.3976 25.7429 23.0071C25.3524 22.6166 25.3524 21.9834 25.7429 21.5929L27.4429 19.8929C27.8334 19.5024 28.4666 19.5024 28.8571 19.8929Z" fill="#333333"/>
<path fill-rule="evenodd" clip-rule="evenodd" d="M25.4571 18.1929L28.0071 20.7429L26.5929 22.1571L24.0429 19.6071L25.4571 18.1929Z" fill="#333333"/>
<path fill-rule="evenodd" clip-rule="evenodd" d="M18.65 24C18.65 23.4477 19.0977 23 19.65 23H21.35C21.9023 23 22.35 23.4477 22.35 24C22.35 24.5523 21.9023 25 21.35 25H19.65C19.0977 25 18.65 24.5523 18.65 24Z" fill="#333333"/>
<path fill-rule="evenodd" clip-rule="evenodd" d="M20.5 19.6C21.0523 19.6 21.5 20.0477 21.5 20.6V24C21.5 24.5523 21.0523 25 20.5 25C19.9477 25 19.5 24.5523 19.5 24V20.6C19.5 20.0477 19.9477 19.6 20.5 19.6Z" fill="#333333"/>
<path fill-rule="evenodd" clip-rule="evenodd" d="M12.9929 19.8929C13.3834 19.5024 14.0166 19.5024 14.4071 19.8929L16.1071 21.5929C16.4976 21.9834 16.4976 22.6166 16.1071 23.0071C15.7166 23.3976 15.0834 23.3976 14.6929 23.0071L12.9929 21.3071C12.6024 20.9166 12.6024 20.2834 12.9929 19.8929Z" fill="#333333"/>
<path fill-rule="evenodd" clip-rule="evenodd" d="M17.8071 19.6071L15.2571 22.1571L13.8429 20.7429L16.3929 18.1929L17.8071 19.6071Z" fill="#333333"/>
<path fill-rule="evenodd" clip-rule="evenodd" d="M12 13.65C12.5523 13.65 13 14.0977 13 14.65V16.35C13 16.9023 12.5523 17.35 12 17.35C11.4477 17.35 11 16.9023 11 16.35V14.65C11 14.0977 11.4477 13.65 12 13.65Z" fill="#333333"/>
<path fill-rule="evenodd" clip-rule="evenodd" d="M11 15.5C11 14.9477 11.4477 14.5 12 14.5H15.4C15.9523 14.5 16.4 14.9477 16.4 15.5C16.4 16.0523 15.9523 16.5 15.4 16.5H12C11.4477 16.5 11 16.0523 11 15.5Z" fill="#333333"/>
<path fill-rule="evenodd" clip-rule="evenodd" d="M16.1071 7.99289C16.4976 8.38342 16.4976 9.01658 16.1071 9.40711L14.4071 11.1071C14.0166 11.4976 13.3834 11.4976 12.9929 11.1071C12.6024 10.7166 12.6024 10.0834 12.9929 9.69289L14.6929 7.99289C15.0834 7.60237 15.7166 7.60237 16.1071 7.99289Z" fill="#333333"/>
<path fill-rule="evenodd" clip-rule="evenodd" d="M16.3929 12.8071L13.8429 10.2571L15.2571 8.84289L17.8071 11.3929L16.3929 12.8071Z" fill="#333333"/>
</svg>
