<svg width="48" height="48" viewBox="0 0 48 48" fill="none" xmlns="http://www.w3.org/2000/svg">
<path fill-rule="evenodd" clip-rule="evenodd" d="M24 6H10V4H24C29.5228 4 34 8.47715 34 14V15H26V13C26 12.4477 25.5523 12 25 12H10V10H25C26.6569 10 28 11.3431 28 13H31.9381C31.446 9.05369 28.0796 6 24 6Z" fill="#333333"/>
<path fill-rule="evenodd" clip-rule="evenodd" d="M24 13H36V19H24V13ZM26 15V17H34V15H26Z" fill="#333333"/>
<path fill-rule="evenodd" clip-rule="evenodd" d="M30 42C33.2309 42 36 39.2356 36 35.6364C36 32.6324 34.3188 29.4071 32.3837 26.7518C31.5334 25.5851 30.68 24.5903 30 23.8509C29.32 24.5903 28.4666 25.5851 27.6163 26.7518C25.6812 29.4071 24 32.6324 24 35.6364C24 39.2356 26.7691 42 30 42ZM30 44C34.4183 44 38 40.2555 38 35.6364C38 28.3182 30 21 30 21C30 21 22 28.3182 22 35.6364C22 40.2555 25.5817 44 30 44Z" fill="#333333"/>
<path fill-rule="evenodd" clip-rule="evenodd" d="M27.0296 33.5175C26.4774 33.524 26.0244 33.0816 26.0179 32.5294C26.0016 31.1488 27.1076 30.0163 28.4882 30C29.0404 29.9935 29.4934 30.4359 29.4999 30.9882C29.5065 31.5404 29.0641 31.9934 28.5118 31.9999C28.2357 32.0032 28.0145 32.2296 28.0178 32.5058C28.0243 33.058 27.5819 33.511 27.0296 33.5175Z" fill="#333333"/>
<path fill-rule="evenodd" clip-rule="evenodd" d="M31 32C31 31.4477 31.4477 31 32 31C33.3807 31 34.5 32.1193 34.5 33.5C34.5 34.0523 34.0523 34.5 33.5 34.5C32.9477 34.5 32.5 34.0523 32.5 33.5C32.5 33.2239 32.2761 33 32 33C31.4477 33 31 32.5523 31 32Z" fill="#333333"/>
<path fill-rule="evenodd" clip-rule="evenodd" d="M29.7634 38.2507C29.8818 38.7901 29.5405 39.3234 29.001 39.4418C27.6524 39.7379 26.3192 38.8846 26.0231 37.536C25.9047 36.9966 26.246 36.4633 26.7855 36.3448C27.3249 36.2264 27.8582 36.5677 27.9766 37.1072C28.0358 37.3769 28.3025 37.5476 28.5722 37.4883C29.1117 37.3699 29.645 37.7112 29.7634 38.2507Z" fill="#333333"/>
<path d="M34 38C34 38.5523 33.5523 39 33 39C32.4477 39 32 38.5523 32 38C32 37.4477 32.4477 37 33 37C33.5523 37 34 37.4477 34 38Z" fill="#333333"/>
<path d="M31 28C31 28.5523 30.5523 29 30 29C29.4477 29 29 28.5523 29 28C29 27.4477 29.4477 27 30 27C30.5523 27 31 27.4477 31 28Z" fill="#333333"/>
<path d="M31 35C31 35.5523 30.5523 36 30 36C29.4477 36 29 35.5523 29 35C29 34.4477 29.4477 34 30 34C30.5523 34 31 34.4477 31 35Z" fill="#333333"/>
</svg>
