<svg width="48" height="48" viewBox="0 0 48 48" fill="none" xmlns="http://www.w3.org/2000/svg">
<path fill-rule="evenodd" clip-rule="evenodd" d="M37.2645 26.0759L37.0988 25.7227C36.3844 24.1993 36.1757 22.5852 36.1123 21.1533C36.0804 20.4317 36.0846 19.7185 36.0917 19.0628C36.0927 18.9727 36.0937 18.8839 36.0947 18.7964C36.1012 18.2306 36.1072 17.7167 36.0956 17.2218C36.0466 15.2721 35.433 13.3738 34.3231 11.7487C33.0589 10.18 31.4073 8.94698 29.5195 8.16855L29.4867 8.15502L29.4544 8.14032C26.8991 6.97888 24.1144 6.37922 21.2955 6.38467L21.2933 6.38468C17.7461 6.38758 14.3527 7.77372 11.8577 10.2266C9.36392 12.6782 7.97153 15.9936 7.97436 19.4413C7.97603 21.4856 8.57089 23.8168 9.60438 25.9735C10.6403 28.1353 12.0437 29.9699 13.5211 31.1065L14.3008 31.7063L14.3081 40.6218C14.6333 41.0238 15.2648 41.52 16.2118 41.9501C17.3706 42.4764 18.5353 42.6891 19.2092 42.6335L19.2904 42.6268L19.3719 42.6267C21.3282 42.6251 22.2432 42.0716 22.6369 41.735C22.7796 41.613 22.8788 41.4982 22.9453 41.4078L22.9408 35.8724L25.4383 36.5157L25.4395 36.5161L25.4405 36.5163L25.4418 36.5166L25.4539 36.5196C25.4694 36.5234 25.4961 36.5298 25.5332 36.5384C25.6074 36.5555 25.7229 36.581 25.8737 36.6112C26.176 36.6716 26.616 36.7494 27.1463 36.8144C28.223 36.9464 29.5965 37.0158 30.9225 36.8202C32.2599 36.6229 33.3743 36.1829 34.1403 35.4487C34.8538 34.7649 35.4814 33.62 35.4796 31.5238L35.4782 29.8139L37.1594 29.5479L37.1607 29.5477L37.1689 29.5463C37.1748 29.5452 37.1834 29.5437 37.1945 29.5416C37.2054 29.5396 37.2188 29.537 37.2345 29.5339C37.2977 29.5214 37.3956 29.5007 37.5171 29.4704C37.7659 29.4084 38.0839 29.3137 38.3937 29.1827C38.7155 29.0467 38.9469 28.9055 39.0833 28.7851C39.1108 28.7609 39.1301 28.7415 39.1433 28.727C39.1384 28.6733 39.1197 28.5633 39.0497 28.3854C38.9402 28.1072 38.7533 27.7857 38.514 27.4533C38.2801 27.1283 38.0313 26.8414 37.8376 26.6335C37.7422 26.5311 37.6638 26.4517 37.6121 26.4006C37.5989 26.3876 37.5876 26.3765 37.5782 26.3674C37.5692 26.3587 37.562 26.3517 37.5567 26.3467L37.5485 26.3389L37.5474 26.3379L37.2645 26.0759ZM24.9429 38.4534C24.9429 38.4534 25.7449 38.66 26.9432 38.8044C30.4842 39.2312 37.4859 39.1153 37.4796 31.5221C37.4796 31.5221 40.782 30.9997 41.115 29.1118C41.4479 27.224 38.9096 24.8735 38.9096 24.8735C38.0456 23.0311 38.0708 20.8607 38.0945 18.8232C38.1011 18.2599 38.1075 17.7067 38.095 17.1735C38.036 14.809 37.2842 12.5112 35.9295 10.5551C34.4463 8.69319 32.502 7.23504 30.282 6.31958C27.4647 5.03907 24.3963 4.37867 21.2916 4.38468C17.226 4.38801 13.3281 5.97637 10.4556 8.80034C7.58303 11.6243 5.97109 15.4526 5.97436 19.443C5.97829 24.2439 8.73175 29.9454 12.3016 32.6917L12.3086 41.1857C13.3226 43.3081 17.1426 44.8107 19.3736 44.6267C24.1118 44.6229 24.9457 41.8866 24.9457 41.8866L24.9429 38.4534Z" fill="#333333"/>
<path fill-rule="evenodd" clip-rule="evenodd" d="M27.8526 17.5679L28.9563 18.2874C29.195 18.443 29.4697 18.5441 29.7584 18.5815L31.4893 17.9669C31.7174 17.7204 31.8699 17.4231 31.9355 17.1079C32.0189 16.7067 31.9593 16.2879 31.7611 15.9185C31.5623 15.548 31.232 15.2433 30.8147 15.0674L29.8693 14.6688L29.6415 13.6684C29.5748 13.3753 29.4283 13.0995 29.2127 12.871L27.4856 12.2844L26.5066 12.2852L25.9084 11.4372C25.6799 11.1134 25.3409 10.8635 24.9389 10.7364L21.122 10.4808C20.7406 10.5362 20.3906 10.7022 20.1177 10.9501L19.345 11.6518L18.3275 11.4192C18.1739 11.3841 18.0164 11.3656 17.858 11.3642C17.4909 11.3667 17.1362 11.472 16.8365 11.6622C16.5351 11.8535 16.3052 12.1204 16.1666 12.4243L15.9376 12.9265L13.8289 14.3827C13.6935 14.6323 13.6242 14.9076 13.6249 15.1849L13.6249 15.2009L13.6247 15.217C13.6229 15.3518 13.6413 15.4866 13.68 15.6174L13.9736 16.6113L13.3309 17.4244C13.0932 17.7251 12.9709 18.0865 12.9735 18.451L12.9736 18.4585L12.9736 18.4661C12.9734 18.8939 13.1411 19.3156 13.4587 19.6422L13.9607 20.1585L14.0184 20.8762C14.0433 21.1863 14.1551 21.4888 14.3477 21.7503C14.5407 22.0122 14.8087 22.2246 15.1275 22.3576L15.2677 22.4161L15.3974 22.4951C16.397 23.1038 17.2483 23.9257 17.8856 24.9038C18.2038 25.3922 18.4294 25.8952 18.5923 26.3895L19.096 26.3891L19.0944 24.4116L21.0944 24.4099M14.3572 24.2033C15.1046 24.6585 15.7377 25.2709 16.2099 25.9956C16.6821 26.7203 16.8774 27.5388 16.9816 28.3909L21.0977 28.3875L21.096 26.3875M14.3572 24.2033C13.7086 23.9326 13.1484 23.4945 12.7373 22.9363C12.3262 22.3781 12.0798 21.7211 12.0248 21.0364C11.3493 20.3417 10.9731 19.4215 10.9736 18.4651C10.9677 17.6405 11.2452 16.8376 11.7619 16.184C11.6665 15.8609 11.6203 15.5259 11.6249 15.1898C11.6229 14.3858 11.8864 13.6025 12.3764 12.9552L14.3469 11.5945C14.6488 10.9324 15.1412 10.3695 15.7646 9.97373C16.3881 9.57797 17.1159 9.36626 17.8602 9.36416C18.1676 9.36575 18.4739 9.40108 18.7731 9.46948C19.4059 8.89486 20.2189 8.5441 21.0814 8.47365L25.2705 8.7541C26.1951 8.97579 27.0037 9.52038 27.5427 10.2843L27.8152 10.2841L30.2361 11.1064C30.923 11.6412 31.4013 12.3886 31.5916 13.2244C32.4225 13.5746 33.1045 14.1919 33.5235 14.973C33.9426 15.7541 34.0732 16.6516 33.8936 17.5152C33.7139 18.3788 33.2349 19.1563 32.5367 19.7173L30.0581 20.5974C29.2775 20.6069 28.5124 20.3856 27.864 19.9628C27.6299 20.1185 27.5147 20.2477 27.4245 20.3488C27.2688 20.5233 27.1876 20.6143 26.6982 20.6147C25.9252 20.6153 25.1701 20.3891 24.5313 19.9655C24.0835 20.4281 23.5343 20.7866 22.9245 21.0143M26.3689 18.5872C26.3718 18.5848 26.3746 18.5824 26.3775 18.5801C26.4914 18.4846 26.6165 18.3905 26.7559 18.2978L27.8526 17.5679" fill="#333333"/>
<path d="M14.7816 19.4114L20.8972 18.4537L16.9276 14.0578L14.7816 19.4114Z" fill="#333333"/>
<path d="M22.0859 11.4729L20.2754 14.8372L23.703 16.6141L25.5136 13.2499L22.0859 11.4729Z" fill="#333333"/>
<path d="M33.978 23.9631C33.9787 24.7915 33.3077 25.4637 32.4793 25.4643C31.6508 25.465 30.9787 24.794 30.978 23.9656C30.9774 23.1371 31.6484 22.465 32.4768 22.4643C33.3052 22.4637 33.9774 23.1347 33.978 23.9631Z" fill="#333333"/>
<path fill-rule="evenodd" clip-rule="evenodd" d="M20.985 32.4738L16.985 32.4771L16.9834 30.4771L20.9834 30.4738L20.985 32.4738Z" fill="#333333"/>
<path fill-rule="evenodd" clip-rule="evenodd" d="M20.9883 36.4738L16.9883 36.4771L16.9867 34.4771L20.9867 34.4738L20.9883 36.4738Z" fill="#333333"/>
<path fill-rule="evenodd" clip-rule="evenodd" d="M20.9916 40.4738L16.9916 40.4771L16.99 38.4771L20.99 38.4738L20.9916 40.4738Z" fill="#333333"/>
</svg>
