<svg width="48" height="48" viewBox="0 0 48 48" fill="none" xmlns="http://www.w3.org/2000/svg">
<path fill-rule="evenodd" clip-rule="evenodd" d="M30.7426 28.0867C30.9714 28.141 31.206 28.1958 31.4448 28.2517C32.3654 28.4671 33.3494 28.6973 34.3107 28.9649C35.7125 29.3552 36.9089 29.7855 37.6431 30.2676C39.2959 31.3528 40 32.4539 40 33.5V40H26.8759L30.7426 28.0867ZM24.7732 40L29.03 26.8847L29.0616 26.8204C29.366 26.2009 30.058 25.8629 30.7369 26.0284C31.0783 26.1117 31.454 26.1996 31.8508 26.2925C32.7885 26.5119 33.8444 26.7591 34.8471 27.0382C36.2604 27.4317 37.7239 27.928 38.7409 28.5958C40.6135 29.8254 42 31.4531 42 33.5V42H6V33.5C6 31.4531 7.38654 29.8254 9.25912 28.5958C10.2761 27.928 11.7396 27.4317 13.1529 27.0382C14.1555 26.7591 15.2115 26.512 16.1491 26.2925C16.546 26.1997 16.9216 26.1117 17.263 26.0285C17.9419 25.8629 18.634 26.201 18.9384 26.8205L18.9645 26.8737L23.5823 40H24.7732ZM21.4622 40L17.2701 28.0837C17.0372 28.139 16.7984 28.1948 16.5551 28.2518C15.6345 28.4671 14.6506 28.6973 13.6893 28.965C12.2875 29.3552 11.0911 29.7855 10.3569 30.2676C8.70414 31.3528 8 32.4539 8 33.5V40H21.4622Z" fill="#333333"/>
<path d="M21 26H27L26 29H22L21 26Z" fill="#333333"/>
<path d="M22 36L23 27H25L26 36V41H22V36Z" fill="#333333"/>
<path fill-rule="evenodd" clip-rule="evenodd" d="M24 8C20.134 8 17 11.134 17 15C17 18.866 20.134 22 24 22C27.866 22 31 18.866 31 15C31 11.134 27.866 8 24 8ZM15 15C15 10.0294 19.0294 6 24 6C28.9706 6 33 10.0294 33 15C33 19.9706 28.9706 24 24 24C19.0294 24 15 19.9706 15 15Z" fill="#333333"/>
</svg>
