<svg width="48" height="48" viewBox="0 0 48 48" fill="none" xmlns="http://www.w3.org/2000/svg">
<path fill-rule="evenodd" clip-rule="evenodd" d="M9 18C8.44772 18 8 18.4477 8 19V42H6V19C6 17.3431 7.34315 16 9 16H21C22.6569 16 24 17.3431 24 19V42H22V19C22 18.4477 21.5523 18 21 18H9Z" fill="#333333"/>
<path fill-rule="evenodd" clip-rule="evenodd" d="M39 20H32V18H39C40.6569 18 42 19.3431 42 21V42H40V21C40 20.4477 39.5523 20 39 20Z" fill="#333333"/>
<path fill-rule="evenodd" clip-rule="evenodd" d="M18 6C17.4477 6 17 6.44772 17 7V17H15V7C15 5.34315 16.3431 4 18 4H30C31.6569 4 33 5.34315 33 7V42H31V7C31 6.44772 30.5523 6 30 6H18Z" fill="#333333"/>
<path fill-rule="evenodd" clip-rule="evenodd" d="M44 44H4V42H44V44Z" fill="#333333"/>
<path fill-rule="evenodd" clip-rule="evenodd" d="M20 8C19.4477 8 19 8.44772 19 9V11C19 11.5523 19.4477 12 20 12H22C22.5523 12 23 11.5523 23 11V9C23 8.44772 22.5523 8 22 8H20Z" fill="#333333"/>
<path fill-rule="evenodd" clip-rule="evenodd" d="M11 20C10.4477 20 10 20.4477 10 21V23C10 23.5523 10.4477 24 11 24H13C13.5523 24 14 23.5523 14 23V21C14 20.4477 13.5523 20 13 20H11Z" fill="#333333"/>
<path fill-rule="evenodd" clip-rule="evenodd" d="M17 20C16.4477 20 16 20.4477 16 21V23C16 23.5523 16.4477 24 17 24H19C19.5523 24 20 23.5523 20 23V21C20 20.4477 19.5523 20 19 20H17Z" fill="#333333"/>
<path fill-rule="evenodd" clip-rule="evenodd" d="M20 14C19.4477 14 19 14.4477 19 15V17C19 17.5523 19.4477 18 20 18H22C22.5523 18 23 17.5523 23 17V15C23 14.4477 22.5523 14 22 14H20Z" fill="#333333"/>
<path fill-rule="evenodd" clip-rule="evenodd" d="M11 26C10.4477 26 10 26.4477 10 27V29C10 29.5523 10.4477 30 11 30H13C13.5523 30 14 29.5523 14 29V27C14 26.4477 13.5523 26 13 26H11Z" fill="#333333"/>
<path fill-rule="evenodd" clip-rule="evenodd" d="M11 32C10.4477 32 10 32.4477 10 33V35C10 35.5523 10.4477 36 11 36H13C13.5523 36 14 35.5523 14 35V33C14 32.4477 13.5523 32 13 32H11Z" fill="#333333"/>
<path fill-rule="evenodd" clip-rule="evenodd" d="M17 26C16.4477 26 16 26.4477 16 27V29C16 29.5523 16.4477 30 17 30H19C19.5523 30 20 29.5523 20 29V27C20 26.4477 19.5523 26 19 26H17Z" fill="#333333"/>
<path fill-rule="evenodd" clip-rule="evenodd" d="M17 32C16.4477 32 16 32.4477 16 33V35C16 35.5523 16.4477 36 17 36H19C19.5523 36 20 35.5523 20 35V33C20 32.4477 19.5523 32 19 32H17Z" fill="#333333"/>
<path fill-rule="evenodd" clip-rule="evenodd" d="M26 8C25.4477 8 25 8.44772 25 9V11C25 11.5523 25.4477 12 26 12H28C28.5523 12 29 11.5523 29 11V9C29 8.44772 28.5523 8 28 8H26Z" fill="#333333"/>
<path fill-rule="evenodd" clip-rule="evenodd" d="M26 14C25.4477 14 25 14.4477 25 15V17C25 17.5523 25.4477 18 26 18H28C28.5523 18 29 17.5523 29 17V15C29 14.4477 28.5523 14 28 14H26Z" fill="#333333"/>
<path fill-rule="evenodd" clip-rule="evenodd" d="M26 20C25.4477 20 25 20.4477 25 21V23C25 23.5523 25.4477 24 26 24H28C28.5523 24 29 23.5523 29 23V21C29 20.4477 28.5523 20 28 20H26Z" fill="#333333"/>
<path fill-rule="evenodd" clip-rule="evenodd" d="M26 26C25.4477 26 25 26.4477 25 27V29C25 29.5523 25.4477 30 26 30H28C28.5523 30 29 29.5523 29 29V27C29 26.4477 28.5523 26 28 26H26Z" fill="#333333"/>
<path fill-rule="evenodd" clip-rule="evenodd" d="M35 22C34.4477 22 34 22.4477 34 23V25C34 25.5523 34.4477 26 35 26H37C37.5523 26 38 25.5523 38 25V23C38 22.4477 37.5523 22 37 22H35Z" fill="#333333"/>
<path fill-rule="evenodd" clip-rule="evenodd" d="M35 28C34.4477 28 34 28.4477 34 29V31C34 31.5523 34.4477 32 35 32H37C37.5523 32 38 31.5523 38 31V29C38 28.4477 37.5523 28 37 28H35Z" fill="#333333"/>
<path fill-rule="evenodd" clip-rule="evenodd" d="M35 34C34.4477 34 34 34.4477 34 35V37C34 37.5523 34.4477 38 35 38H37C37.5523 38 38 37.5523 38 37V35C38 34.4477 37.5523 34 37 34H35Z" fill="#333333"/>
<path fill-rule="evenodd" clip-rule="evenodd" d="M26 32C25.4477 32 25 32.4477 25 33V35C25 35.5523 25.4477 36 26 36H28C28.5523 36 29 35.5523 29 35V33C29 32.4477 28.5523 32 28 32H26Z" fill="#333333"/>
</svg>
