<svg width="48" height="48" viewBox="0 0 48 48" fill="none" xmlns="http://www.w3.org/2000/svg">
<path fill-rule="evenodd" clip-rule="evenodd" d="M22 9V11.6875C22 12.3406 21.5826 12.8962 21 13.1021V39C21 40.6569 22.3431 42 24 42C25.6569 42 27 40.6569 27 39V13.1021C26.4174 12.8962 26 12.3406 26 11.6875V9H28V11.2729C28.5826 11.4788 29 12.0344 29 12.6875V39C29 41.7614 26.7614 44 24 44C21.2386 44 19 41.7614 19 39V12.6875C19 12.0344 19.4174 11.4788 20 11.2729V9H22Z" fill="#333333"/>
<path fill-rule="evenodd" clip-rule="evenodd" d="M20 6V8H28V6H20ZM19 4C18.4477 4 18 4.44772 18 5V9C18 9.55228 18.4477 10 19 10H29C29.5523 10 30 9.55228 30 9V5C30 4.44772 29.5523 4 29 4H19Z" fill="#333333"/>
<path fill-rule="evenodd" clip-rule="evenodd" d="M28 20H20V18H28V20Z" fill="#333333"/>
</svg>
