<svg width="48" height="48" viewBox="0 0 48 48" fill="none" xmlns="http://www.w3.org/2000/svg">
<path fill-rule="evenodd" clip-rule="evenodd" d="M17 7C17 5.34315 18.3431 4 20 4H28C29.6569 4 31 5.34315 31 7V9C31 10.6569 29.6569 12 28 12H20C18.3431 12 17 10.6569 17 9V7ZM20 6C19.4477 6 19 6.44772 19 7V9C19 9.55228 19.4477 10 20 10H28C28.5523 10 29 9.55228 29 9V7C29 6.44772 28.5523 6 28 6H20Z" fill="#333333"/>
<path fill-rule="evenodd" clip-rule="evenodd" d="M13 9C12.4477 9 12 9.44772 12 10V41C12 41.5523 12.4477 42 13 42H35C35.5523 42 36 41.5523 36 41V10C36 9.44772 35.5523 9 35 9H30V7H35C36.6569 7 38 8.34315 38 10V41C38 42.6569 36.6569 44 35 44H13C11.3431 44 10 42.6569 10 41V10C10 8.34315 11.3431 7 13 7H18V9H13Z" fill="#333333"/>
<path fill-rule="evenodd" clip-rule="evenodd" d="M19 23L19 15L21 15L21 23L19 23Z" fill="#333333"/>
<path fill-rule="evenodd" clip-rule="evenodd" d="M24 20L16 20L16 18L24 18L24 20Z" fill="#333333"/>
<path fill-rule="evenodd" clip-rule="evenodd" d="M16 27C16 26.4477 16.4477 26 17 26H31C31.5523 26 32 26.4477 32 27C32 27.5523 31.5523 28 31 28H17C16.4477 28 16 27.5523 16 27Z" fill="#333333"/>
<path fill-rule="evenodd" clip-rule="evenodd" d="M16 32C16 31.4477 16.4477 31 17 31H31C31.5523 31 32 31.4477 32 32C32 32.5523 31.5523 33 31 33H17C16.4477 33 16 32.5523 16 32Z" fill="#333333"/>
<path fill-rule="evenodd" clip-rule="evenodd" d="M16 37C16 36.4477 16.4477 36 17 36H31C31.5523 36 32 36.4477 32 37C32 37.5523 31.5523 38 31 38H17C16.4477 38 16 37.5523 16 37Z" fill="#333333"/>
</svg>
