<svg width="48" height="48" viewBox="0 0 48 48" fill="none" xmlns="http://www.w3.org/2000/svg">
<path fill-rule="evenodd" clip-rule="evenodd" d="M36.0013 37.4155C32.8166 40.2664 28.6107 42 24 42C14.0589 42 6 33.9411 6 24C6 19.3893 7.73359 15.1834 10.5845 11.9987L36.0013 37.4155ZM37.4155 36.0013L11.9987 10.5845C15.1834 7.73359 19.3893 6 24 6C33.9411 6 42 14.0589 42 24C42 28.6107 40.2664 32.8166 37.4155 36.0013ZM44 24C44 35.0457 35.0457 44 24 44C12.9543 44 4 35.0457 4 24C4 12.9543 12.9543 4 24 4C35.0457 4 44 12.9543 44 24Z" fill="#333333"/>
<path fill-rule="evenodd" clip-rule="evenodd" d="M28.3745 14.8126C30.1331 13.054 32.6993 12.7689 34.1062 14.1758C35.5131 15.5827 35.228 18.1489 33.4694 19.9075C32.4131 20.9638 31.0655 21.4885 29.8527 21.4343L30.1253 23.719C30.2571 24.8238 29.812 25.755 29.0994 26.3557L27.6702 24.9264C27.9795 24.7376 28.1908 24.3863 28.1394 23.956L27.7316 20.5383C26.3316 19.1301 26.6184 16.5687 28.3745 14.8126ZM19.9885 22.9016C19.3618 23.5696 19.0297 24.5271 19.279 25.6085L19.9598 28.5616C20.1691 29.4696 19.1323 30.1452 18.3862 29.587L17.9007 29.2236C15.7169 27.5897 12.6622 29.4816 13.1522 32.1646L13.4113 33.5833L15.3788 33.2241L15.1197 31.8053C14.9563 30.911 15.9746 30.2803 16.7025 30.825L17.1881 31.1883C19.4262 32.8629 22.5366 30.8362 21.9087 28.1123L21.2278 25.1592C21.1525 24.8323 21.2365 24.5394 21.4086 24.3216L19.9885 22.9016Z" fill="#333333"/>
</svg>
