<svg width="48" height="48" viewBox="0 0 48 48" fill="none" xmlns="http://www.w3.org/2000/svg">
<path fill-rule="evenodd" clip-rule="evenodd" d="M36 6H12C8.68629 6 6 8.68629 6 12V36C6 39.3137 8.68629 42 12 42H36C39.3137 42 42 39.3137 42 36V12C42 8.68629 39.3137 6 36 6ZM12 4C7.58172 4 4 7.58172 4 12V36C4 40.4183 7.58172 44 12 44H36C40.4183 44 44 40.4183 44 36V12C44 7.58172 40.4183 4 36 4H12Z" fill="#333333"/>
<path fill-rule="evenodd" clip-rule="evenodd" d="M31 15H17C15.8954 15 15 15.8954 15 17V31C15 32.1046 15.8954 33 17 33H31C32.1046 33 33 32.1046 33 31V17C33 15.8954 32.1046 15 31 15ZM17 13C14.7909 13 13 14.7909 13 17V31C13 33.2091 14.7909 35 17 35H31C33.2091 35 35 33.2091 35 31V17C35 14.7909 33.2091 13 31 13H17Z" fill="#333333"/>
<path d="M21 18C21 18.5523 20.5523 19 20 19C19.4477 19 19 18.5523 19 18C19 17.4477 19.4477 17 20 17C20.5523 17 21 17.4477 21 18Z" fill="#333333"/>
<path d="M23 21C23 21.5523 22.5523 22 22 22C21.4477 22 21 21.5523 21 21C21 20.4477 21.4477 20 22 20C22.5523 20 23 20.4477 23 21Z" fill="#333333"/>
<path d="M19 21C19 21.5523 18.5523 22 18 22C17.4477 22 17 21.5523 17 21C17 20.4477 17.4477 20 18 20C18.5523 20 19 20.4477 19 21Z" fill="#333333"/>
<path d="M21 24C21 24.5523 20.5523 25 20 25C19.4477 25 19 24.5523 19 24C19 23.4477 19.4477 23 20 23C20.5523 23 21 23.4477 21 24Z" fill="#333333"/>
<path d="M23 27C23 27.5523 22.5523 28 22 28C21.4477 28 21 27.5523 21 27C21 26.4477 21.4477 26 22 26C22.5523 26 23 26.4477 23 27Z" fill="#333333"/>
<path d="M19 27C19 27.5523 18.5523 28 18 28C17.4477 28 17 27.5523 17 27C17 26.4477 17.4477 26 18 26C18.5523 26 19 26.4477 19 27Z" fill="#333333"/>
<path d="M21 30C21 30.5523 20.5523 31 20 31C19.4477 31 19 30.5523 19 30C19 29.4477 19.4477 29 20 29C20.5523 29 21 29.4477 21 30Z" fill="#333333"/>
<path d="M25 18C25 18.5523 24.5523 19 24 19C23.4477 19 23 18.5523 23 18C23 17.4477 23.4477 17 24 17C24.5523 17 25 17.4477 25 18Z" fill="#333333"/>
<path d="M27 21C27 21.5523 26.5523 22 26 22C25.4477 22 25 21.5523 25 21C25 20.4477 25.4477 20 26 20C26.5523 20 27 20.4477 27 21Z" fill="#333333"/>
<path d="M25 24C25 24.5523 24.5523 25 24 25C23.4477 25 23 24.5523 23 24C23 23.4477 23.4477 23 24 23C24.5523 23 25 23.4477 25 24Z" fill="#333333"/>
<path d="M27 27C27 27.5523 26.5523 28 26 28C25.4477 28 25 27.5523 25 27C25 26.4477 25.4477 26 26 26C26.5523 26 27 26.4477 27 27Z" fill="#333333"/>
<path d="M25 30C25 30.5523 24.5523 31 24 31C23.4477 31 23 30.5523 23 30C23 29.4477 23.4477 29 24 29C24.5523 29 25 29.4477 25 30Z" fill="#333333"/>
<path d="M29 18C29 18.5523 28.5523 19 28 19C27.4477 19 27 18.5523 27 18C27 17.4477 27.4477 17 28 17C28.5523 17 29 17.4477 29 18Z" fill="#333333"/>
<path d="M31 21C31 21.5523 30.5523 22 30 22C29.4477 22 29 21.5523 29 21C29 20.4477 29.4477 20 30 20C30.5523 20 31 20.4477 31 21Z" fill="#333333"/>
<path d="M29 24C29 24.5523 28.5523 25 28 25C27.4477 25 27 24.5523 27 24C27 23.4477 27.4477 23 28 23C28.5523 23 29 23.4477 29 24Z" fill="#333333"/>
<path d="M31 27C31 27.5523 30.5523 28 30 28C29.4477 28 29 27.5523 29 27C29 26.4477 29.4477 26 30 26C30.5523 26 31 26.4477 31 27Z" fill="#333333"/>
<path d="M29 30C29 30.5523 28.5523 31 28 31C27.4477 31 27 30.5523 27 30C27 29.4477 27.4477 29 28 29C28.5523 29 29 29.4477 29 30Z" fill="#333333"/>
</svg>
