<svg width="48" height="48" viewBox="0 0 48 48" fill="none" xmlns="http://www.w3.org/2000/svg">
<path fill-rule="evenodd" clip-rule="evenodd" d="M4.7011 27.382C5.42265 26.0254 6.75773 24.9862 8.26126 24.5411L8.82896 26.4589C7.79891 26.7638 6.91711 27.4747 6.46687 28.3212C6.03674 29.1299 5.98742 30.0696 6.59942 31.0219C7.24376 32.0245 8.69997 33.1576 11.5478 34.0367C14.3805 34.9111 18.4845 35.5 24.2533 35.5C30.0274 35.5 34.0709 34.9413 36.8196 34.1057C39.5854 33.2649 40.913 32.1843 41.4654 31.2436C41.9873 30.355 41.9148 29.4208 41.4389 28.5364C40.9478 27.6238 40.051 26.8336 39.0984 26.4158L39.9016 24.5842C41.2292 25.1664 42.4803 26.2512 43.2001 27.5886C43.935 28.9543 44.1362 30.6451 43.19 32.2564C42.2743 33.8157 40.3919 35.1101 37.4013 36.0193C34.3934 36.9337 30.1338 37.5 24.2533 37.5C18.3677 37.5 14.0475 36.9014 10.9579 35.9477C7.88354 34.9987 5.91941 33.663 4.91692 32.1032C3.8821 30.4929 3.95945 28.7764 4.7011 27.382Z" fill="#333333"/>
<path fill-rule="evenodd" clip-rule="evenodd" d="M10.1012 25.5712C10.0738 27.4003 10.5262 28.639 11.1214 29.1987C11.564 29.6149 11.5854 30.311 11.1692 30.7536C10.753 31.1962 10.0568 31.2175 9.61429 30.8013C8.3486 29.6111 7.87059 27.5998 7.9014 25.5383C7.93305 23.4208 8.49902 20.9976 9.61091 18.7071C11.8424 14.1104 16.3636 9.90002 23.394 9.90002C30.3352 9.90002 35.2095 13.5151 37.8282 17.8707C39.1319 20.0393 39.887 22.4058 40.061 24.625C40.2341 26.8323 39.8362 28.9772 38.7269 30.6165C38.3864 31.1196 37.7025 31.2515 37.1994 30.911C36.6963 30.5706 36.5644 29.8867 36.9049 29.3836C37.6564 28.2729 38.0145 26.6677 37.8678 24.797C37.722 22.938 37.0814 20.8983 35.9427 19.0043C33.6765 15.235 29.4791 12.1 23.394 12.1C17.3983 12.1 13.5456 15.6396 11.59 19.6679C10.6084 21.6899 10.1277 23.798 10.1012 25.5712Z" fill="#333333"/>
<path fill-rule="evenodd" clip-rule="evenodd" d="M17.6672 20.2314C16.8619 21.167 16.4013 22.2116 16.3563 22.9719C16.3073 23.7989 15.5972 24.4296 14.7702 24.3806C13.9433 24.3317 13.3126 23.6216 13.3615 22.7946C13.4576 21.1714 14.3175 19.5243 15.3934 18.2744C16.4645 17.0299 17.9825 15.9103 19.66 15.6577C20.4792 15.5344 21.2433 16.0985 21.3667 16.9176C21.49 17.7368 20.9259 18.5009 20.1067 18.6243C19.4008 18.7306 18.4771 19.2904 17.6672 20.2314Z" fill="#333333"/>
</svg>
