<svg width="48" height="48" viewBox="0 0 48 48" fill="none" xmlns="http://www.w3.org/2000/svg">
<path fill-rule="evenodd" clip-rule="evenodd" d="M24 39C25.1046 39 26 38.1046 26 37C26 35.8954 25.1046 35 24 35C22.8954 35 22 35.8954 22 37C22 38.1046 22.8954 39 24 39ZM24 42C26.7614 42 29 39.7614 29 37C29 34.2386 26.7614 32 24 32C21.2386 32 19 34.2386 19 37C19 39.7614 21.2386 42 24 42Z" fill="#333333"/>
<path fill-rule="evenodd" clip-rule="evenodd" d="M28 6H24H20L18 10H22V17.9918L26 15.5113V10H30L28 6ZM32.2361 10L30.2361 6H32L34 10H32.2361ZM40 6H34.2361L36.2361 10H40C41.1046 10 42 9.10457 42 8C42 6.89543 41.1046 6 40 6ZM16 6H17.7639L15.7639 10H14L16 6ZM22 22.9918V20.3451L26 17.8646V20.5113L22 22.9918ZM22 30.3451V32C22 33.1046 22.8954 34 24 34C25.1046 34 26 33.1046 26 32V27.8646L22 30.3451ZM26 25.5113V22.8646L22 25.3451V27.9918L26 25.5113ZM13.7639 6H8C6.89543 6 6 6.89543 6 8C6 9.10457 6.89543 10 8 10H11.7639L13.7639 6Z" fill="#333333"/>
</svg>
