<svg width="48" height="48" viewBox="0 0 48 48" fill="none" xmlns="http://www.w3.org/2000/svg">
<path fill-rule="evenodd" clip-rule="evenodd" d="M38 38C35.2386 38 33 35.7614 33 33C33 30.2386 35.2386 28 38 28C40.7614 28 43 30.2386 43 33C43 35.7614 40.7614 38 38 38ZM38 40C34.134 40 31 36.866 31 33C31 29.134 34.134 26 38 26C41.866 26 45 29.134 45 33C45 36.866 41.866 40 38 40Z" fill="#333333"/>
<path fill-rule="evenodd" clip-rule="evenodd" d="M28.9104 10.5862C28.7481 10.2292 28.3921 10 28 10H22.75C22.1977 10 21.75 10.4477 21.75 11C21.75 11.5523 22.1977 12 22.75 12H27.3561L37.0896 33.4138C37.3182 33.9166 37.911 34.1389 38.4138 33.9104C38.9166 33.6818 39.1389 33.089 38.9104 32.5862L28.9104 10.5862Z" fill="#333333"/>
<path fill-rule="evenodd" clip-rule="evenodd" d="M9 38C6.23858 38 4 35.7614 4 33C4 30.2386 6.23858 28 9 28C11.7614 28 14 30.2386 14 33C14 35.7614 11.7614 38 9 38ZM9 40C5.13401 40 2 36.866 2 33C2 29.134 5.13401 26 9 26C12.866 26 16 29.134 16 33C16 36.866 12.866 40 9 40Z" fill="#333333"/>
<path fill-rule="evenodd" clip-rule="evenodd" d="M22 33C22 32.4477 21.5523 32 21 32H9C8.44771 32 8 32.4477 8 33C8 33.5523 8.44771 34 9 34H21C21.5523 34 22 33.5523 22 33Z" fill="#333333"/>
<path fill-rule="evenodd" clip-rule="evenodd" d="M30.5 16H21.8995C20.919 16 19.9451 16.1602 19.0163 16.4743L14.5964 17.969C14.3178 18.0633 14.0948 18.2753 13.9867 18.5488C13.8786 18.8224 13.8964 19.1296 14.0354 19.3888L18.3687 27.4725C18.5428 27.7973 18.8815 28 19.25 28H28C28.2709 28 28.5302 27.8901 28.7186 27.6954L33.7186 22.5284L32.2814 21.1376L27.5761 26H19.8486L16.3563 19.4852L19.657 18.3689C20.3794 18.1246 21.1369 18 21.8995 18H30.5V16Z" fill="#333333"/>
<path fill-rule="evenodd" clip-rule="evenodd" d="M4.99998 20H15.0833V18H3.99998C3.4477 18 2.99998 18.4477 2.99998 19V22.5C2.99998 23.0095 3.38312 23.4376 3.88955 23.4939L17.3895 24.9939L17.6104 23.0061L4.99998 21.605V20Z" fill="#333333"/>
<path fill-rule="evenodd" clip-rule="evenodd" d="M28 26H21C19.3431 26 18 27.3431 18 29V31C18 32.6569 19.3431 34 21 34H25C26.6569 34 28 32.6569 28 31V26ZM26 28V31C26 31.5523 25.5523 32 25 32H21C20.4477 32 20 31.5523 20 31V29C20 28.4477 20.4477 28 21 28H26Z" fill="#333333"/>
<path fill-rule="evenodd" clip-rule="evenodd" d="M36.433 13.4108C36.2448 13.1527 35.9445 13 35.625 13H29V15H35.1165L38.0332 19H32V21H40C40.3763 21 40.7208 20.7887 40.8914 20.4532C41.062 20.1178 41.0297 19.7149 40.808 19.4108L36.433 13.4108Z" fill="#333333"/>
</svg>
