<svg width="48" height="48" viewBox="0 0 48 48" fill="none" xmlns="http://www.w3.org/2000/svg">
<path fill-rule="evenodd" clip-rule="evenodd" d="M37.5 36C35.0147 36 33 33.9853 33 31.5C33 29.0147 35.0147 27 37.5 27C39.9853 27 42 29.0147 42 31.5C42 33.9853 39.9853 36 37.5 36ZM37.5 38C33.9101 38 31 35.0899 31 31.5C31 27.9101 33.9101 25 37.5 25C41.0899 25 44 27.9101 44 31.5C44 35.0899 41.0899 38 37.5 38Z" fill="#333333"/>
<path fill-rule="evenodd" clip-rule="evenodd" d="M28.9073 10.5795C28.7436 10.2261 28.3895 10 28 10H23V12H27.3613L36.5927 31.9205C36.8249 32.4216 37.4194 32.6395 37.9205 32.4073C38.4216 32.1751 38.6395 31.5806 38.4073 31.0795L28.9073 10.5795Z" fill="#333333"/>
<path fill-rule="evenodd" clip-rule="evenodd" d="M10.5 36C8.01472 36 6 33.9853 6 31.5C6 29.0147 8.01472 27 10.5 27C12.9853 27 15 29.0147 15 31.5C15 33.9853 12.9853 36 10.5 36ZM10.5 38C6.91015 38 4 35.0899 4 31.5C4 27.9101 6.91015 25 10.5 25C14.0899 25 17 27.9101 17 31.5C17 35.0899 14.0899 38 10.5 38Z" fill="#333333"/>
<path fill-rule="evenodd" clip-rule="evenodd" d="M21.5 31.5C21.5 32.0523 21.0522 32.5 20.5 32.5H10.5C9.94771 32.5 9.5 32.0523 9.5 31.5C9.5 30.9477 9.94771 30.5 10.5 30.5H20.5C21.0522 30.5 21.5 30.9477 21.5 31.5Z" fill="#333333"/>
<path fill-rule="evenodd" clip-rule="evenodd" d="M31 16H22.9827C22.0022 16 21.0283 16.1602 20.0995 16.4743L15.6796 17.969C15.3799 18.0704 15.1459 18.3075 15.0485 18.6085C14.9511 18.9095 15.0019 19.2388 15.1855 19.4965L19.5187 25.5802C19.7064 25.8436 20.0098 26 20.3332 26H28.5C28.7449 26 28.9813 25.9101 29.1643 25.7474L33.6643 21.7474L32.3356 20.2526L28.1198 24H20.8487L17.5953 19.4325L20.7402 18.3689C21.4626 18.1246 22.2201 18 22.9827 18H31V16Z" fill="#333333"/>
<path fill-rule="evenodd" clip-rule="evenodd" d="M6 20H16.0833V18H5C4.44771 18 4 18.4477 4 19V22.5C4 23.0124 4.38738 23.442 4.8971 23.4947L19.3971 24.9947L19.6029 23.0053L6 21.5981V20Z" fill="#333333"/>
<path fill-rule="evenodd" clip-rule="evenodd" d="M29 24H22C20.3431 24 19 25.3431 19 27V30C19 31.6569 20.3431 33 22 33H26C27.6569 33 29 31.6569 29 30V24ZM27 26V30C27 30.5523 26.5523 31 26 31H22C21.4477 31 21 30.5523 21 30V27C21 26.4477 21.4477 26 22 26H27Z" fill="#333333"/>
<path fill-rule="evenodd" clip-rule="evenodd" d="M36.3776 14.3415C36.1877 14.1245 35.9134 14 35.625 14H29V16H35.1712L37.7962 19H32V21H40C40.3924 21 40.7485 20.7705 40.9106 20.4132C41.0728 20.0559 41.011 19.6368 40.7526 19.3415L36.3776 14.3415Z" fill="#333333"/>
</svg>
