<svg width="48" height="48" viewBox="0 0 48 48" fill="none" xmlns="http://www.w3.org/2000/svg">
<path fill-rule="evenodd" clip-rule="evenodd" d="M38.9085 10C38.0794 7.75002 31.7209 6 24 6C16.2791 6 9.92062 7.75002 9.09155 10H9V38C9 40.2091 15.7157 42 24 42C32.2843 42 39 40.2091 39 38V10H38.9085ZM37 10.6664C36.9281 10.5857 36.742 10.404 36.316 10.1584C35.6837 9.79384 34.7477 9.41979 33.5167 9.08694C31.0653 8.42415 27.7269 8 24 8C20.2731 8 16.9347 8.42415 14.4833 9.08694C13.2523 9.41979 12.3163 9.79384 11.684 10.1584C11.258 10.404 11.0719 10.5857 11 10.6664V37.693C11.0549 37.7373 11.1341 37.795 11.2454 37.8652C11.7621 38.1909 12.6427 38.5583 13.9087 38.896C16.4116 39.5634 19.9802 40 24 40C28.0198 40 31.5884 39.5634 34.0913 38.896C35.3573 38.5583 36.2379 38.1909 36.7546 37.8652C36.8659 37.795 36.9451 37.7373 37 37.693V10.6664ZM37.1107 37.5868C37.1116 37.5869 37.1069 37.5942 37.0938 37.6083C37.1033 37.5938 37.1098 37.5868 37.1107 37.5868ZM10.8893 37.5868C10.8902 37.5868 10.8967 37.5938 10.9062 37.6083C10.8931 37.5942 10.8884 37.5869 10.8893 37.5868Z" fill="#333333"/>
<path fill-rule="evenodd" clip-rule="evenodd" d="M37.0451 10.2754C37.0455 10.2755 37.0434 10.2799 37.0375 10.2886C37.0417 10.2798 37.0447 10.2754 37.0451 10.2754ZM36.8233 10.5C36.779 10.464 36.7264 10.4239 36.6642 10.3797C36.1536 10.0176 35.2851 9.60964 34.0319 9.23367C31.5509 8.48937 28.0036 8 24 8C19.9964 8 16.4491 8.48937 13.9681 9.23367C12.7149 9.60964 11.8464 10.0176 11.3358 10.3797C11.2736 10.4239 11.221 10.464 11.1767 10.5C11.221 10.536 11.2736 10.5761 11.3358 10.6203C11.8464 10.9824 12.7149 11.3904 13.9681 11.7663C16.4491 12.5106 19.9964 13 24 13C28.0036 13 31.5509 12.5106 34.0319 11.7663C35.2851 11.3904 36.1536 10.9824 36.6642 10.6203C36.7264 10.5761 36.779 10.536 36.8233 10.5ZM10.9549 10.2754C10.9553 10.2754 10.9583 10.2798 10.9625 10.2886C10.9566 10.2799 10.9545 10.2755 10.9549 10.2754ZM10.9549 10.7246C10.9545 10.7245 10.9566 10.7201 10.9625 10.7114C10.9583 10.7202 10.9553 10.7246 10.9549 10.7246ZM37.0375 10.7114C37.0434 10.7201 37.0455 10.7245 37.0451 10.7246C37.0447 10.7246 37.0417 10.7202 37.0375 10.7114ZM24 15C32.2843 15 39 12.9853 39 10.5C39 8.01472 32.2843 6 24 6C15.7157 6 9 8.01472 9 10.5C9 12.9853 15.7157 15 24 15Z" fill="#333333"/>
<path fill-rule="evenodd" clip-rule="evenodd" d="M9 19.5C9 21.9853 15.7157 24 24 24C32.2843 24 39 21.9853 39 19.5H36.8233C36.779 19.536 36.7264 19.5761 36.6642 19.6203C36.1536 19.9824 35.2851 20.3904 34.0319 20.7663C31.5509 21.5106 28.0036 22 24 22C19.9964 22 16.4491 21.5106 13.9681 20.7663C12.7149 20.3904 11.8464 19.9824 11.3358 19.6203C11.2736 19.5761 11.221 19.536 11.1767 19.5H9ZM10.9549 19.7246C10.9545 19.7245 10.9566 19.7201 10.9625 19.7114C10.9583 19.7202 10.9553 19.7246 10.9549 19.7246ZM37.0375 19.7114C37.0434 19.7201 37.0455 19.7245 37.0451 19.7246C37.0447 19.7246 37.0417 19.7202 37.0375 19.7114Z" fill="#333333"/>
<path fill-rule="evenodd" clip-rule="evenodd" d="M9 28.5C9 30.9853 15.7157 33 24 33C32.2843 33 39 30.9853 39 28.5H36.8233C36.779 28.536 36.7264 28.5761 36.6642 28.6203C36.1536 28.9824 35.2851 29.3904 34.0319 29.7663C31.5509 30.5106 28.0036 31 24 31C19.9964 31 16.4491 30.5106 13.9681 29.7663C12.7149 29.3904 11.8464 28.9824 11.3358 28.6203C11.2736 28.5761 11.221 28.536 11.1767 28.5H9ZM10.9549 28.7246C10.9545 28.7245 10.9566 28.7201 10.9625 28.7114C10.9583 28.7202 10.9553 28.7246 10.9549 28.7246ZM37.0375 28.7114C37.0434 28.7201 37.0455 28.7245 37.0451 28.7246C37.0447 28.7246 37.0417 28.7202 37.0375 28.7114Z" fill="#333333"/>
<path d="M30 36.5C30 37.3284 29.3284 38 28.5 38C27.6716 38 27 37.3284 27 36.5C27 35.6716 27.6716 35 28.5 35C29.3284 35 30 35.6716 30 36.5Z" fill="#333333"/>
<path d="M35 35.5C35 36.3284 34.3284 37 33.5 37C32.6716 37 32 36.3284 32 35.5C32 34.6716 32.6716 34 33.5 34C34.3284 34 35 34.6716 35 35.5Z" fill="#333333"/>
</svg>
