<svg width="48" height="48" viewBox="0 0 48 48" fill="none" xmlns="http://www.w3.org/2000/svg">
<path fill-rule="evenodd" clip-rule="evenodd" d="M12.8086 34.5327C12.9026 34.5361 13.0125 34.5382 13.1405 34.538C14.1609 34.5372 15.1064 34.7677 15.9066 35.2972C16.709 35.8283 17.2027 36.5526 17.5002 37.261C17.92 38.2607 17.9996 39.3823 18.0143 40.1919C18.1881 40.2392 18.4289 40.2909 18.7521 40.3373C20.0581 40.5252 21.8854 40.5284 23.9916 40.5267C26.0978 40.5249 27.925 40.5187 29.2307 40.3288C29.5539 40.2817 29.7946 40.2297 29.9683 40.1821C29.9817 39.3725 30.0594 38.2508 30.4776 37.2504C30.7739 36.5414 31.2665 35.8164 32.068 35.284C32.8673 34.7532 33.8124 34.5211 34.8328 34.5203C34.9608 34.5202 35.0708 34.5179 35.1647 34.5144C35.1651 34.4232 35.1642 34.3204 35.1621 34.204C35.1592 34.0331 35.153 33.8244 35.1461 33.5875C35.1315 33.0888 35.1132 32.4653 35.1127 31.8077C35.1109 29.6585 35.8997 28.4138 36.4743 27.5072C36.5949 27.3168 36.7061 27.1413 36.7986 26.9754C37.3055 26.0662 37.9784 24.498 37.975 20.2388C37.9718 16.3234 36.2893 13.4688 33.7553 11.54C31.1656 9.56895 27.6145 8.52367 23.9654 8.52666C20.3163 8.52965 16.7669 9.58075 14.1804 11.556C11.6495 13.4889 9.97176 16.3464 9.97498 20.2617C9.97849 24.5209 10.654 26.0881 11.1624 26.9964C11.2552 27.1621 11.3667 27.3374 11.4876 27.5276C12.0637 28.4334 12.8545 29.6768 12.8563 31.8259C12.8568 32.4836 12.8395 33.1071 12.8257 33.6058C12.8192 33.8427 12.8134 34.0515 12.8107 34.2223C12.8088 34.3387 12.8081 34.4415 12.8086 34.5327ZM10.8278 33.4957C10.7593 35.9418 10.7426 36.54 13.1422 36.538C16.014 36.5357 16.0161 39.106 16.0175 40.8196C16.0189 42.5332 19.8907 42.53 23.9932 42.5266C28.0957 42.5233 31.9676 42.5201 31.9662 40.8065C31.9648 39.093 31.9627 36.5226 34.8345 36.5203C37.2341 36.5183 37.2163 35.9201 37.1438 33.4742C37.1296 32.9929 37.1132 32.44 37.1127 31.8061C37.1114 30.2807 37.5604 29.5596 38.103 28.688C38.9319 27.3566 39.9794 25.6741 39.975 20.2372C39.9601 1.93902 7.95991 1.96523 7.97498 20.2634C7.97946 25.7003 9.02973 27.3811 9.8608 28.7112C10.4049 29.5818 10.855 30.3022 10.8563 31.8276C10.8568 32.4615 10.8413 33.0144 10.8278 33.4957Z" fill="#333333"/>
<path fill-rule="evenodd" clip-rule="evenodd" d="M17.7612 30.1044C18.9835 30.1034 20.2047 28.9981 20.2032 27.3406C20.2018 25.683 18.9787 24.5796 17.7564 24.5805C16.5341 24.5815 15.3129 25.6867 15.3143 27.3443C15.3158 29.0019 16.5389 30.1053 17.7612 30.1044ZM17.7629 32.1043C20.2175 32.1025 22.2055 29.969 22.2032 27.3391C22.2009 24.7091 20.2092 22.5787 17.7546 22.5805C15.3 22.5824 13.312 24.7159 13.3143 27.3458C13.3166 29.9758 15.3083 32.1062 17.7629 32.1043Z" fill="#333333"/>
<path fill-rule="evenodd" clip-rule="evenodd" d="M30.205 30.0932C31.4273 30.0921 32.6485 28.9867 32.6473 27.3291C32.646 25.6716 31.423 24.5683 30.2006 24.5693C28.9783 24.5704 27.7571 25.6758 27.7584 27.3334C27.7597 28.9909 28.9827 30.0942 30.205 30.0932ZM30.2065 32.0932C32.6611 32.091 34.6493 29.9573 34.6473 27.3274C34.6452 24.6975 32.6537 22.5672 30.1991 22.5693C27.7445 22.5715 25.7563 24.7052 25.7584 27.3351C25.7604 29.965 27.7519 32.0953 30.2065 32.0932Z" fill="#333333"/>
<path fill-rule="evenodd" clip-rule="evenodd" d="M23.9677 33.5351C23.9796 33.5295 23.9859 33.5266 23.9859 33.5266C23.9859 33.5266 23.992 33.5292 24.0037 33.5344C24.2509 33.6434 26.987 34.8931 26.9886 36.8C26.9893 37.6304 26.4104 38.4051 25.5907 38.5128C25.5273 38.5211 25.4624 38.5254 25.3962 38.5255C24.7571 38.526 24.2825 38.1542 23.9893 37.6265C23.6969 38.1546 23.223 38.5273 22.5837 38.5278C22.5176 38.5278 22.4527 38.5236 22.3893 38.5154C21.5693 38.4091 20.9893 37.6352 20.9886 36.8049C20.9871 34.9777 23.7181 33.6524 23.9677 33.5351ZM22.228 36.6767C22.2273 36.6777 22.227 36.6781 22.227 36.6781L22.228 36.6767ZM22.9872 36.8254C22.9869 36.8271 22.9867 36.828 22.9867 36.828C22.9866 36.828 22.9868 36.8271 22.9872 36.8254ZM25.7489 36.6738C25.7497 36.6747 25.75 36.6752 25.75 36.6752L25.7489 36.6738Z" fill="#333333"/>
</svg>
