<svg width="48" height="48" viewBox="0 0 48 48" fill="none" xmlns="http://www.w3.org/2000/svg">
<path fill-rule="evenodd" clip-rule="evenodd" d="M33 44C36.866 44 40 40.866 40 37C40 33.134 36.866 30 33 30C29.134 30 26 33.134 26 37C26 40.866 29.134 44 33 44ZM33 46C37.9706 46 42 41.9706 42 37C42 32.0294 37.9706 28 33 28C28.0294 28 24 32.0294 24 37C24 41.9706 28.0294 46 33 46Z" fill="#333333"/>
<path fill-rule="evenodd" clip-rule="evenodd" d="M34 6H14C12.8954 6 12 6.89543 12 8V38C12 39.1046 12.8954 40 14 40H26.6736C27.0297 40.7496 27.5151 41.4259 28.101 42H14C11.7909 42 10 40.2091 10 38V8C10 5.79086 11.7909 4 14 4H34C36.2091 4 38 5.79086 38 8V32.101C37.4259 31.5151 36.7496 31.0297 36 30.6736V8C36 6.89543 35.1046 6 34 6ZM14 12C14 11.4477 14.4477 11 15 11H33C33.5523 11 34 11.4477 34 12C34 12.5523 33.5523 13 33 13H15C14.4477 13 14 12.5523 14 12ZM15 15C14.4477 15 14 15.4477 14 16C14 16.5523 14.4477 17 15 17H33C33.5523 17 34 16.5523 34 16C34 15.4477 33.5523 15 33 15H15ZM14 24C14 23.4477 14.4477 23 15 23H33C33.5523 23 34 23.4477 34 24C34 24.5523 33.5523 25 33 25H15C14.4477 25 14 24.5523 14 24ZM15 19C14.4477 19 14 19.4477 14 20C14 20.5523 14.4477 21 15 21H33C33.5523 21 34 20.5523 34 20C34 19.4477 33.5523 19 33 19H15ZM14 28C14 27.4477 14.4477 27 15 27H24C24.5523 27 25 27.4477 25 28C25 28.5523 24.5523 29 24 29H15C14.4477 29 14 28.5523 14 28Z" fill="#333333"/>
<path fill-rule="evenodd" clip-rule="evenodd" d="M36.9973 33.0278C36.6068 32.6372 35.9736 32.6372 35.5831 33.0277L34.7921 33.8187L36.2063 35.2329L36.9973 34.442C37.3878 34.0514 37.3878 33.4183 36.9973 33.0278ZM35.4992 35.94L34.085 34.5258L29.0161 39.5946L29.0162 41.0089H30.4304L35.4992 35.94Z" fill="#333333"/>
</svg>
