<svg width="48" height="48" viewBox="0 0 48 48" fill="none" xmlns="http://www.w3.org/2000/svg">
<path fill-rule="evenodd" clip-rule="evenodd" d="M39 8H9C8.44771 8 8 8.44772 8 9V39C8 39.5523 8.44772 40 9 40H39C39.5523 40 40 39.5523 40 39V9C40 8.44771 39.5523 8 39 8ZM9 6C7.34315 6 6 7.34315 6 9V39C6 40.6569 7.34315 42 9 42H39C40.6569 42 42 40.6569 42 39V9C42 7.34315 40.6569 6 39 6H9Z" fill="#333333"/>
<path fill-rule="evenodd" clip-rule="evenodd" d="M23.0001 14V11H25.0001V14H28.0001V16H25.0001V19H23.0001V16H20.0001V14H23.0001ZM10.7253 20.0385C10.1943 20.1902 9.88677 20.7437 10.0385 21.2747L11.9732 28.0463L10.6843 34.8129C10.6724 34.8757 10.6666 34.9383 10.6665 35H7.50005C6.94776 35 6.50005 35.4477 6.50005 36C6.50005 36.5523 6.94776 37 7.50005 37H40C40.5523 37 41 36.5523 41 36C41 35.4477 40.5523 35 40 35H37.3335C37.3334 34.9383 37.3276 34.8757 37.3156 34.8129L36.0268 28.0463L37.9615 21.2747C38.1132 20.7437 37.8057 20.1902 37.2747 20.0385C36.7437 19.8868 36.1902 20.1942 36.0384 20.7253L34.8391 24.923H27V26.923H28.3077V28.6154H27.7693C27.217 28.6154 26.7693 29.0631 26.7693 29.6154C26.7693 30.029 27.0204 30.3839 27.3785 30.5361L26.0475 34.6952C26.0151 34.7965 25.9997 34.8991 25.9997 35H22.0003C22.0003 34.8991 21.9848 34.7965 21.9524 34.6952L20.6215 30.5361C20.9796 30.3839 21.2307 30.029 21.2307 29.6154C21.2307 29.0631 20.783 28.6154 20.2307 28.6154H19.6923V26.923H21V24.923H13.1609L11.9615 20.7253C11.8098 20.1942 11.2563 19.8868 10.7253 20.0385ZM30.3077 28.6154H34.0992L34.0176 28.1871C33.9884 28.0337 33.9955 27.8755 34.0384 27.7253L34.2677 26.923H30.3077V28.6154ZM29.3299 31H34.5534L35.3153 35H28.0499L29.3299 31ZM17.6923 26.923V28.6154H13.9008L13.9824 28.1871C14.0116 28.0337 14.0045 27.8755 13.9615 27.7253L13.7323 26.923H17.6923ZM13.4466 31L12.6847 35H19.9501L18.6701 31H13.4466Z" fill="#333333"/>
</svg>
