<svg width="48" height="48" viewBox="0 0 48 48" fill="none" xmlns="http://www.w3.org/2000/svg">
<path fill-rule="evenodd" clip-rule="evenodd" d="M6 5H7H21H22V6V11V12H21V13.2929C21 14.0109 20.7148 14.6994 20.2071 15.2071C20.0745 15.3397 20 15.5196 20 15.7071V31.2929C20 31.4804 20.0745 31.6603 20.2071 31.7929C20.7148 32.3006 21 32.9891 21 33.7071V35H22V36V41V42H21H7H6V41V36V35H7V33.7071C7 32.9891 7.28521 32.3006 7.79289 31.7929C7.9255 31.6603 8 31.4804 8 31.2929V15.7071C8 15.5196 7.9255 15.3397 7.79289 15.2071C7.28521 14.6994 7 14.0109 7 13.2929V12H6V11V6V5ZM8 37V40H20V37H19V33.7071C19 33.5196 18.9255 33.3397 18.7929 33.2071C18.2852 32.6994 18 32.0109 18 31.2929V15.7071C18 14.9891 18.2852 14.3006 18.7929 13.7929C18.9255 13.6603 19 13.4804 19 13.2929V10H20V7H8V10H9V13.2929C9 13.4804 9.0745 13.6603 9.20711 13.7929C9.71479 14.3006 10 14.9891 10 15.7071V31.2929C10 32.0109 9.71479 32.6994 9.20711 33.2071C9.0745 33.3397 9 33.5196 9 33.7071V37H8ZM31 7H38V9H31V7ZM30 11H29V9V7C29 5.89543 29.8954 5 31 5H38C39.1046 5 40 5.89543 40 7V9V11H39V14.3431C39 15.1388 39.3161 15.9019 39.8787 16.4645L41.5355 18.1213C42.4732 19.059 43 20.3308 43 21.6569V37C43 39.7614 40.7614 42 38 42H31C28.2386 42 26 39.7614 26 37V21.6569C26 20.3308 26.5268 19.059 27.4645 18.1213L29.1213 16.4645C29.6839 15.9019 30 15.1388 30 14.3431V11ZM37 11V14.3431C37 15.6692 37.5268 16.941 38.4645 17.8787L40.1213 19.5355C40.6839 20.0981 41 20.8612 41 21.6569V37C41 38.6569 39.6569 40 38 40H31C29.3431 40 28 38.6569 28 37V21.6569C28 20.8612 28.3161 20.0981 28.8787 19.5355L30.5355 17.8787C31.4732 16.941 32 15.6692 32 14.3431V11H37ZM35 21.5C35 21.2239 34.7761 21 34.5 21C34.2239 21 34 21.2239 34 21.5V24.2276C33.7195 24.492 33.4773 24.9726 33.3015 25.5944L32.5 24.7929V23.5C32.5 23.3674 32.4473 23.2402 32.3536 23.1464L30.8536 21.6464C30.6583 21.4512 30.3417 21.4512 30.1465 21.6464C29.9512 21.8417 29.9512 22.1583 30.1465 22.3536L31.5 23.7071V25C31.5 25.1326 31.5527 25.2598 31.6465 25.3536L32.5443 26.2514L29.0361 26.8571C28.8902 27.5502 29.1124 28.9156 31.1042 28.9963L30.2227 29.584C30.0468 29.7012 29.9637 29.9163 30.0149 30.1213L30.4295 31.7794L29.2227 32.584C28.9929 32.7372 28.9308 33.0476 29.084 33.2773C29.2372 33.5071 29.5476 33.5692 29.7774 33.416L31.2774 32.416C31.4532 32.2988 31.5363 32.0837 31.4851 31.8787L31.0705 30.2206L31.5048 29.9311C31.4943 30.006 31.5008 30.0836 31.5257 30.1581L32.4602 32.9616L31.0528 35.7764C30.9293 36.0234 31.0294 36.3237 31.2764 36.4472C31.5234 36.5707 31.8237 36.4706 31.9472 36.2236L33.4472 33.2236C33.5065 33.105 33.5163 32.9677 33.4743 32.8419L32.5721 30.135L33.1223 29.5848C33.3525 31.0056 33.8827 32 34.5 32C35.1173 32 35.6475 31.0056 35.8777 29.5848L36.4279 30.135L35.5257 32.8419C35.4837 32.9677 35.4935 33.105 35.5528 33.2236L37.0528 36.2236C37.1763 36.4706 37.4766 36.5707 37.7236 36.4472C37.9706 36.3237 38.0707 36.0234 37.9472 35.7764L36.5398 32.9616L37.4743 30.1581C37.4992 30.0836 37.5057 30.006 37.4952 29.9311L37.9295 30.2206L37.5149 31.8787C37.4637 32.0837 37.5468 32.2988 37.7227 32.416L39.2227 33.416C39.4524 33.5692 39.7629 33.5071 39.916 33.2773C40.0692 33.0476 40.0071 32.7372 39.7774 32.584L38.5705 31.7794L38.9851 30.1213C39.0363 29.9163 38.9532 29.7012 38.7774 29.584L37.8958 28.9963C39.8876 28.9157 40.1098 27.5502 39.9639 26.8571L36.4557 26.2514L37.3536 25.3536C37.4473 25.2598 37.5 25.1326 37.5 25V23.7071L38.8536 22.3536C39.0488 22.1583 39.0488 21.8417 38.8536 21.6464C38.6583 21.4512 38.3417 21.4512 38.1465 21.6464L36.6465 23.1464C36.5527 23.2402 36.5 23.3674 36.5 23.5V24.7929L35.6985 25.5944C35.5228 24.9726 35.2805 24.492 35 24.2276V21.5ZM34 28.0067C34.0007 29.0202 34.1567 29.8933 34.3757 30.4773C34.4182 30.5908 34.4603 30.6857 34.5 30.7642C34.5397 30.6857 34.5818 30.5908 34.6243 30.4773C34.8433 29.8933 34.9993 29.0202 35 28.0067L35 27.9924C34.9992 26.9793 34.8433 26.1065 34.6243 25.5227C34.5818 25.4092 34.5397 25.3143 34.5 25.2358C34.4603 25.3143 34.4182 25.4092 34.3757 25.5227C34.1567 26.1065 34.0008 26.9793 34 27.9924V28.0067ZM31.2924 28C30.5608 28 30.2739 27.8028 30.1591 27.678L32.6727 27.244C32.6559 27.2732 32.6383 27.3019 32.62 27.3301C32.3797 27.6998 32.0043 28 31.2924 28ZM38.8409 27.678C38.7261 27.8028 38.4392 28 37.7076 28C36.9958 28 36.6203 27.6998 36.38 27.3301C36.3617 27.3019 36.3442 27.2732 36.3273 27.244L38.8409 27.678ZM11 9C11.5523 9 12 9.44772 12 10V11V12H10V11V10C10 9.44772 10.4477 9 11 9ZM12 37C12 37.5523 11.5523 38 11 38C10.4477 38 10 37.5523 10 37V36V35H12V36V37ZM14 9C14.5523 9 15 9.44772 15 10V11V12H13V11V10C13 9.44772 13.4477 9 14 9ZM15 37C15 37.5523 14.5523 38 14 38C13.4477 38 13 37.5523 13 37V36V35H15V36V37ZM17 9C17.5523 9 18 9.44772 18 10V11V12H16V11V10C16 9.44772 16.4477 9 17 9ZM18 37C18 37.5523 17.5523 38 17 38C16.4477 38 16 37.5523 16 37V36V35H18V36V37Z" fill="#333333"/>
</svg>
