<svg width="48" height="48" viewBox="0 0 48 48" fill="none" xmlns="http://www.w3.org/2000/svg">
<path fill-rule="evenodd" clip-rule="evenodd" d="M36.8464 25.4173C37.1016 25.6159 37.322 25.8558 37.497 26.1282C37.8098 26.6152 37.9627 27.1829 37.9354 27.7561L39.2571 39.0075C39.3207 39.3448 39.3133 39.6911 39.2356 40.0256C39.1578 40.3602 39.0112 40.676 38.8046 40.9543C38.598 41.2326 38.3355 41.4676 38.033 41.6452C37.7305 41.8228 37.3941 41.9394 37.044 41.988C36.3079 42.0551 34.4802 41.8399 33.9057 41.3887C33.3311 40.9374 32.9617 40.2859 32.8766 39.5738L31.8315 29.6785L19.4288 26.9812C18.6674 26.8227 17.9965 26.39 17.5514 25.7704C17.1064 25.1507 16.9205 24.3904 17.0313 23.643C17.2132 22.7162 17.5397 21.8218 17.9995 20.9904C17.9995 20.9904 21.6727 13.8074 25.4841 11.3783C26.845 10.3384 28.5719 9.85688 30.2946 10.0371C30.7482 10.0391 31.1884 10.1863 31.5469 10.4557C31.9054 10.7252 32.1621 11.1019 32.2772 11.5273V11.6614L34.8309 17.1133L40.8336 18.9583C41.2852 19.1267 41.662 19.443 41.8986 19.8524C42.1352 20.2617 42.2168 20.7384 42.1293 21.1999C42.0418 21.6614 40.6969 23.1392 40.3256 23.4402C39.9542 23.7411 39.4861 23.9067 39.0022 23.9083C38.7499 23.9071 38.5 23.8617 38.2645 23.7742L31.186 21.4822C30.9071 21.3794 30.6552 21.2194 30.4472 21.0137C30.4102 20.9772 30.3747 20.9392 30.3406 20.8999C30.3354 20.8939 30.3302 20.8878 30.3251 20.8818C30.1076 20.6246 29.9597 20.3188 29.895 19.9919L29.5262 18.1887C29.1558 18.9043 28.7619 19.6081 28.345 20.2988C28.3427 20.3026 28.3403 20.3065 28.338 20.3104C28.3377 20.3109 28.3374 20.3114 28.3371 20.312C28.2391 20.4742 28.1398 20.6357 28.0393 20.7964C27.7751 21.2189 27.5022 21.6363 27.2208 22.0485L36.1834 25.0289C36.4225 25.1298 36.6452 25.2607 36.8464 25.4173ZM35.4577 26.8953L26.5897 23.9463C25.9943 23.7483 25.5263 23.2823 25.3257 22.6877C25.1252 22.0931 25.2153 21.4388 25.5692 20.9206C26.3708 19.7466 27.099 18.5274 27.7499 17.2696C28.1395 16.5167 28.9614 16.0912 29.801 16.2077C30.6407 16.3242 31.3157 16.9574 31.4856 17.7879L31.8544 19.5911L31.8548 19.5928C31.8569 19.5946 31.8601 19.5971 31.8648 19.5997L38.8806 21.8715C38.9076 21.8802 38.9344 21.8895 38.9609 21.8994C38.9735 21.9041 38.9879 21.9072 39.0034 21.9081C39.0333 21.9063 39.0552 21.8954 39.0663 21.8864C39.063 21.889 39.0651 21.8871 39.0727 21.88C39.0963 21.8577 39.1736 21.7848 39.3056 21.6466C39.4582 21.4868 39.6371 21.2891 39.8076 21.0878C39.8925 20.9875 39.97 20.8927 40.0379 20.8061L34.2433 19.0251C33.7037 18.8592 33.2592 18.4729 33.0198 17.9617L30.466 12.5098C30.3958 12.3598 30.3446 12.2021 30.3134 12.0404C30.3053 12.0384 30.296 12.0371 30.2857 12.037C30.2192 12.0368 30.1527 12.0331 30.0865 12.0262C28.8653 11.8985 27.6486 12.2414 26.6985 12.9674C26.6534 13.0019 26.6069 13.0344 26.559 13.0649C25.0381 14.0342 23.3629 16.1179 21.9784 18.202C21.3131 19.2034 20.7594 20.1356 20.3722 20.8176C20.179 21.1578 20.0284 21.4337 19.9273 21.6223C19.8768 21.7165 19.8387 21.7888 19.8138 21.8362L19.7867 21.8884L19.7802 21.901C19.7803 21.9008 19.7801 21.9011 19.7802 21.901C19.7704 21.9201 19.76 21.9396 19.7496 21.9584C19.3992 22.592 19.1487 23.2706 19.0051 23.972C18.9819 24.1887 19.0383 24.4122 19.1759 24.6037C19.3224 24.8077 19.5548 24.9645 19.8363 25.0231L19.8539 25.0269L32.2565 27.7242C33.0994 27.9075 33.7298 28.6106 33.8204 29.4685L34.8636 39.3454C34.8829 39.4897 34.9511 39.6342 35.0697 39.7526C35.0867 39.7587 35.1076 39.7657 35.1327 39.7736C35.2811 39.82 35.4896 39.8683 35.7379 39.9091C35.9817 39.949 36.2308 39.9763 36.4489 39.99C36.6258 40.0011 36.7491 40.0011 36.8161 39.9988C36.8901 39.9834 36.9591 39.9565 37.0204 39.9205C37.0944 39.8771 37.1542 39.8222 37.1989 39.762C37.2434 39.702 37.2725 39.6374 37.2875 39.5728C37.3025 39.5083 37.3039 39.4423 37.2917 39.3777C37.2832 39.3323 37.2762 39.2866 37.2708 39.2408L35.9491 27.9894C35.9363 27.8804 35.9325 27.7705 35.9377 27.6609C35.945 27.5069 35.9045 27.3497 35.8143 27.2092C35.7325 27.0819 35.611 26.9709 35.4577 26.8953ZM30.3507 12.0594C30.3508 12.0596 30.3507 12.0594 30.3507 12.0594V12.0594Z" fill="#333333"/>
<path fill-rule="evenodd" clip-rule="evenodd" d="M15.3663 35.0755C14.8642 35.1031 14.359 35.1309 13.8758 35.1444L13.7761 35.1472L13.6789 35.1696C11.8566 35.5898 10.0126 35.9189 8.15447 36.1553C7.82424 36.1929 7.54096 36.2332 7.30948 36.2783C7.10315 36.3186 6.84519 36.3791 6.6283 36.4917C6.53016 36.5426 6.30353 36.6717 6.1479 36.9359C5.9389 37.2907 5.96593 37.6942 6.13784 38.0007C6.26801 38.2327 6.45303 38.3639 6.5388 38.4202C6.64329 38.4886 6.75079 38.5404 6.84049 38.5792C7.17664 38.7243 7.69044 38.8634 8.25878 39.003C8.76114 39.1264 9.37158 39.2652 10.0557 39.4207C10.1774 39.4484 10.3015 39.4766 10.4277 39.5053C11.9674 39.8559 12.6777 40.2865 13.2893 40.6844C13.3383 40.7163 13.3875 40.7486 13.4369 40.781C14.0723 41.1981 14.7638 41.6519 16.0229 41.879C17.3287 42.1146 19.2739 41.9815 20.6465 41.6911C20.999 41.6165 21.3365 41.5269 21.6323 41.4214C21.9095 41.3224 22.2264 41.1831 22.4798 40.9775C22.716 40.7859 23.1694 40.2861 22.9405 39.5824C22.7678 39.0519 22.2935 38.7881 22.0372 38.6651C21.9892 38.6422 21.9503 38.6216 21.9188 38.6036C21.9246 38.5858 21.931 38.5662 21.9384 38.5445C21.9425 38.5323 21.9472 38.5186 21.9525 38.5036C22.0236 38.2984 22.1824 37.8406 22.0967 37.3358C21.9909 36.7131 21.5804 36.2444 21.0175 35.8845C19.9481 35.2008 18.7671 35.0242 17.594 35.0024C16.9217 34.99 16.1477 35.0326 15.3663 35.0755ZM21.8003 38.5219C21.8001 38.522 21.8016 38.5237 21.8052 38.527C21.8023 38.5236 21.8004 38.5219 21.8003 38.5219ZM11.3855 37.6816C12.2717 37.5218 13.1539 37.3414 14.0314 37.1407C14.6127 37.1229 15.13 37.0933 15.6105 37.0659C16.3091 37.026 16.93 36.9905 17.5569 37.0021C18.5709 37.0209 19.3208 37.1736 19.9402 37.5696C20.0255 37.6241 20.0781 37.6664 20.1092 37.6954C20.0986 37.7339 20.0793 37.799 20.044 37.9032C20.0403 37.9141 20.036 37.9264 20.0313 37.94C19.9612 38.1417 19.7901 38.6338 19.9303 39.1623C19.9883 39.3812 20.0863 39.5717 20.2127 39.7385C18.9974 39.9929 17.3412 40.0846 16.378 39.9108C15.5252 39.757 15.1243 39.4947 14.5205 39.0998C14.4749 39.0699 14.4281 39.0393 14.3799 39.008C13.7006 38.566 12.8794 38.0782 11.3855 37.6816ZM21.2512 40.513C21.252 40.5128 21.2455 40.5076 21.2288 40.4979C21.242 40.5084 21.2503 40.5132 21.2512 40.513ZM20.1502 37.7415C20.1506 37.7415 20.1489 37.7382 20.1439 37.7318C20.1473 37.7383 20.1498 37.7415 20.1502 37.7415Z" fill="#333333"/>
<path fill-rule="evenodd" clip-rule="evenodd" d="M19.9315 29.9296C19.9331 29.9263 19.9348 29.923 19.9364 29.9196C19.9395 29.9132 19.9425 29.9067 19.9453 29.9002C19.9751 29.8326 19.9931 29.7601 19.9984 29.686C20.0044 29.6009 19.9937 29.5155 19.9668 29.4349C19.9398 29.3542 19.8973 29.28 19.8418 29.2167C19.7862 29.1534 19.7187 29.1024 19.6435 29.0667C19.4922 28.9907 19.3179 28.9792 19.1585 29.0346C19.0007 29.0895 18.8701 29.2056 18.7944 29.3581C18.7936 29.3597 18.7928 29.3613 18.792 29.3629L17.5633 32.0006L17.0641 33.0723C17.0632 33.0742 17.0623 33.0761 17.0614 33.078C17.0577 33.086 17.0542 33.094 17.0508 33.102C17.0225 33.1697 17.0058 33.242 17.0012 33.3157C16.9961 33.4003 17.0072 33.4851 17.0339 33.5653C17.0607 33.6454 17.1026 33.7194 17.1572 33.7829C17.2118 33.8464 17.278 33.8981 17.3521 33.9352C17.4369 33.981 17.5319 34.0032 17.6276 33.9996C17.7467 34.0008 17.8638 33.9676 17.9656 33.9039C18.0674 33.8402 18.1498 33.7484 18.2035 33.639L19.9315 29.9296Z" fill="#333333"/>
<path fill-rule="evenodd" clip-rule="evenodd" d="M17.9413 27.9776C17.9484 27.9617 17.9548 27.9456 17.9606 27.9294C17.986 27.8582 17.9993 27.7835 18 27.7081C18.0008 27.6154 17.9825 27.5234 17.9462 27.4376C17.9098 27.3518 17.8562 27.2738 17.7883 27.2082C17.7204 27.1427 17.6397 27.0908 17.5509 27.0557C17.4602 27.018 17.3624 26.9991 17.2637 27C17.165 27.001 17.0676 27.0219 16.9777 27.0614C16.8879 27.1008 16.8075 27.158 16.7419 27.2291C16.6991 27.2755 16.6632 27.3271 16.635 27.3826C16.633 27.3865 16.6311 27.3904 16.6292 27.3943C16.6165 27.4204 16.6056 27.4472 16.5964 27.4747L14.0657 33.0623C14.0254 33.1464 14.0031 33.2375 14.0003 33.3301C13.9975 33.4227 14.0142 33.5149 14.0493 33.6011C14.0845 33.6873 14.1374 33.7657 14.2048 33.8316C14.2723 33.8974 14.3529 33.9494 14.4417 33.9843C14.5369 34.0052 14.6358 34.0052 14.7309 33.9843C14.8721 33.9848 15.0102 33.9453 15.1284 33.8709C15.2113 33.8187 15.2818 33.7509 15.336 33.6719C15.342 33.6633 15.3477 33.6544 15.3533 33.6455C15.3693 33.6197 15.3836 33.5929 15.3962 33.5652L17.9413 27.9776Z" fill="#333333"/>
<path fill-rule="evenodd" clip-rule="evenodd" d="M37.5 13C38.8807 13 40 11.8807 40 10.5C40 9.11929 38.8807 8 37.5 8C36.1193 8 35 9.11929 35 10.5C35 11.8807 36.1193 13 37.5 13ZM37.5 15C39.9853 15 42 12.9853 42 10.5C42 8.01472 39.9853 6 37.5 6C35.0147 6 33 8.01472 33 10.5C33 12.9853 35.0147 15 37.5 15Z" fill="#333333"/>
</svg>
