<svg width="48" height="48" viewBox="0 0 48 48" fill="none" xmlns="http://www.w3.org/2000/svg">
<path fill-rule="evenodd" clip-rule="evenodd" d="M41.9753 20.6815C41.9747 19.9525 41.3833 19.362 40.6543 19.3626L23.7286 19.3764C21.4928 19.3783 20.9393 16.2683 23.0385 15.4987L25.3236 14.6608C26.1587 14.3547 26.3982 13.288 25.7743 12.6541C25.4385 12.3129 24.9344 12.1989 24.4845 12.3625L12.504 16.7181C8.58435 18.1431 5.97628 21.8696 5.9797 26.0402C5.98418 31.5136 10.4249 35.9471 15.8983 35.9426L26.9618 35.9335C27.514 35.9331 27.9614 35.485 27.9609 34.9327L27.9604 34.2928C27.96 33.7405 27.5119 33.2931 26.9596 33.2936L23.2237 33.2966L23.222 31.2966L30.3288 31.2908C30.8811 31.2904 31.3284 30.8423 31.328 30.29L31.3274 29.6501C31.327 29.0978 30.8789 28.6504 30.3266 28.6509L25.4996 28.6549L25.498 26.6549L31.0808 26.6503C31.6331 26.6498 32.0804 26.2017 32.08 25.6495L32.0795 25.0095C32.079 24.4572 31.6309 24.0099 31.0786 24.0104L25.4958 24.0149L25.4942 22.0149L40.6564 22.0025C41.3854 22.0019 41.9759 21.4105 41.9753 20.6815ZM33.9079 24.008L40.6581 24.0025C42.4916 24.001 43.9768 22.5134 43.9753 20.6798C43.9738 18.8463 42.4862 17.3611 40.6526 17.3626L23.727 17.3764L26.0121 16.5386C28.2123 15.7319 28.8436 12.9213 27.1997 11.2511C26.3148 10.3521 24.9867 10.0519 23.8011 10.4829L11.8207 14.8384C7.10999 16.551 3.97559 21.0295 3.9797 26.0419C3.98508 32.6198 9.32195 37.948 15.8999 37.9426L26.9634 37.9335C28.6202 37.9322 29.9623 36.5879 29.9609 34.9311L29.9604 34.2911C29.9601 33.9405 29.8997 33.604 29.7889 33.2913L30.3304 33.2908C31.9873 33.2895 33.3293 31.9452 33.328 30.2884L33.3274 29.6484C33.327 29.0641 33.1594 28.5189 32.87 28.0579C33.605 27.5106 34.0808 26.6347 34.08 25.6478L34.0795 25.0079C34.0792 24.6573 34.0187 24.3207 33.9079 24.008Z" fill="#333333"/>
<path d="M40.9835 30.5648C40.9848 32.1648 39.6658 33.423 37.9858 33.4244C36.3058 33.4258 34.9848 32.1697 34.9835 30.5697C34.9821 28.9697 37.9792 25.4244 37.9792 25.4244C37.9792 25.4244 40.9822 29.0791 40.9835 30.5648Z" fill="#333333"/>
<path d="M39.9763 21.9229C39.977 22.7513 39.0821 23.4236 37.9776 23.4245C36.873 23.4254 35.977 22.7546 35.9763 21.9261C35.9756 21.0977 36.8705 20.4254 37.9751 20.4245C39.0797 20.4236 39.9756 21.0944 39.9763 21.9229Z" fill="#333333"/>
</svg>
