<svg width="49" height="48" viewBox="0 0 49 48" fill="none" xmlns="http://www.w3.org/2000/svg">
<path fill-rule="evenodd" clip-rule="evenodd" d="M33.9536 8.19629L15.9536 8.21103L15.9684 26.211L33.9683 26.1963L33.9536 8.19629ZM24.9648 21.8704C27.2048 21.8685 28.9634 20.1909 28.9617 18.0576C28.9601 16.0766 24.9561 11.2037 24.9561 11.2037C24.9561 11.2037 20.9599 15.9308 20.9617 18.0641C20.9634 20.1974 22.7248 21.8722 24.9648 21.8704Z" fill="#333333"/>
<path fill-rule="evenodd" clip-rule="evenodd" d="M16.9823 28.9869C16.9818 28.4346 17.4292 27.9865 17.9814 27.9861L21.9814 27.9828C22.5337 27.9824 22.9818 28.4297 22.9823 28.982C22.9827 29.5343 22.5354 29.9824 21.9831 29.9828L17.9831 29.9861C17.4308 29.9865 16.9827 29.5392 16.9823 28.9869Z" fill="#333333"/>
<path fill-rule="evenodd" clip-rule="evenodd" d="M26.9823 28.9787C26.9818 28.4264 27.4292 27.9784 27.9814 27.9779L31.9814 27.9746C32.5337 27.9742 32.9818 28.4215 32.9823 28.9738C32.9827 29.5261 32.5354 29.9742 31.9831 29.9746L27.9831 29.9779C27.4308 29.9784 26.9827 29.531 26.9823 28.9787Z" fill="#333333"/>
<path fill-rule="evenodd" clip-rule="evenodd" d="M13.9519 6.21266L35.9519 6.19464C36.5042 6.19419 36.9523 6.64154 36.9528 7.19382L36.9732 32.1938C36.9737 32.7461 36.5263 33.1942 35.974 33.1946L29.9741 33.1995L29.9757 35.1995L35.9757 35.1946C37.6325 35.1933 38.9746 33.849 38.9732 32.1922L38.9528 7.19218C38.9514 5.53533 37.6072 4.19329 35.9503 4.19464L13.9503 4.21266C12.2934 4.21402 10.9514 5.55826 10.9528 7.21512L10.9732 32.2151C10.9746 33.872 12.3188 35.214 13.9757 35.2127L19.9757 35.2077L19.9741 33.2077L13.9741 33.2127C13.4218 33.2131 12.9737 32.7658 12.9732 32.2135L12.9528 7.21348C12.9523 6.66119 13.3997 6.21311 13.9519 6.21266Z" fill="#333333"/>
<path fill-rule="evenodd" clip-rule="evenodd" d="M28.974 33.2004L20.974 33.2069L20.9814 42.2069L28.9814 42.2004L28.974 33.2004ZM18.9724 31.2086L18.9831 44.2086L30.9831 44.1987L30.9724 31.1987L18.9724 31.2086Z" fill="#333333"/>
<path d="M26.9782 38.202C26.9791 39.3066 26.0844 40.2027 24.9798 40.2037C23.8753 40.2046 22.9791 39.3099 22.9782 38.2053C22.9773 37.1007 23.872 36.2046 24.9766 36.2037C26.0811 36.2027 26.9773 37.0974 26.9782 38.202Z" fill="#333333"/>
</svg>
