<svg width="38" height="38" viewBox="0 0 38 38" fill="none" xmlns="http://www.w3.org/2000/svg">
<path d="M26.5 37H28.6003H31.6005L33.8563 27.9749L31.6005 17.9498C32.5118 18.7029 33.2712 19.2097 34.4975 21.2284C34.9826 22.0323 35.932 21.4422 36.6014 21.2339C37.012 20.9253 37.1245 20.3141 36.8489 19.8573L35.7463 18.0423C34.16 15.4309 31.5105 13.8752 28.6529 13.8752H15.3999L10.8322 8.86242C8 8.41176 8.08296 3.8268 5.63444 1.14593C5.43193 0.923686 5.09441 0.960726 4.93691 1.22001C4.245 2.36826 4.35751 6.93631 5.28004 7.94875C5.46568 8.15247 5.69069 8.27594 5.9157 8.41176C5.79194 8.5167 5.65131 8.60313 5.55568 8.74512L1.35925 14.8753C0.94861 15.4741 0.886732 16.2767 1.19049 16.9434L1.9949 18.709C2.29867 19.3757 2.92307 19.8017 3.60372 19.8017H5.34755C5.82569 19.8017 6.28134 19.5918 6.61885 19.2214L9 15.9167L11.7997 23.7527L12.7997 30.4597L11.7997 35.1667C11.7997 35.1667 10 34.5 10 37H11.7997H14.9714C14.9714 37 15.4658 35.7022 15.3999 34C15.2919 31.2135 14.7476 27.3435 15.9714 26.3099C18.1579 28.7333 20.5 28.5 22.8516 27C24.055 26.667 27.0105 23.6197 27.6003 25.3099C28.1901 27 30.1472 26.8349 30.0343 27.9749C31.6005 32 28.6999 33.4297 28.1901 35.1667M26.5 37C26.5 34.6051 28.0076 35.2639 28.1759 35.182M26.5 37L28.1759 35.182M28.1901 35.1667C28.1881 35.1734 28.1833 35.1785 28.1759 35.182M28.1901 35.1667L28.1759 35.182" stroke="#333333" stroke-width="2" stroke-linecap="round" stroke-linejoin="round"/>
</svg>
