<svg width="48" height="48" viewBox="0 0 48 48" fill="none" xmlns="http://www.w3.org/2000/svg">
<path fill-rule="evenodd" clip-rule="evenodd" d="M10.3446 11.9881C8.88463 13.846 8 16.3844 8 19.0345C8 24.9753 11.9647 29.9621 16.1509 33.5511C18.2235 35.3281 20.301 36.7192 21.8625 37.6666C22.6421 38.1396 23.2904 38.5003 23.7413 38.7417C23.8312 38.7898 23.9132 38.8331 23.9868 38.8716C24.0623 38.83 24.1466 38.783 24.2393 38.7307C24.6913 38.4758 25.3407 38.0963 26.1217 37.6023C27.6856 36.613 29.7664 35.1713 31.8424 33.3592C36.0437 29.6922 40 24.7063 40 19.0345C40 16.3848 39.1155 13.8464 37.6556 11.9884C36.2005 10.1365 34.2134 9 31.9688 9C28.866 9 26.4594 11.0208 24.8976 14.2018L24 16.0301L23.1024 14.2018C21.5405 11.0206 19.1339 9 16.0312 9C13.7868 9 11.7997 10.1363 10.3446 11.9881ZM24 40C23.5662 40.901 23.5659 40.9009 23.5655 40.9007L23.561 40.8985L23.5496 40.8929L23.5087 40.8729C23.4735 40.8555 23.4227 40.8302 23.3573 40.7971C23.2264 40.7308 23.0371 40.6332 22.7977 40.5051C22.319 40.2489 21.6391 39.8704 20.825 39.3765C19.199 38.3899 17.0265 36.9362 14.8491 35.0695C10.5353 31.3711 6 25.8752 6 19.0345C6 15.9592 7.02123 12.9804 8.77202 10.7524C10.5276 8.51823 13.0561 7 16.0312 7C19.5348 7 22.1991 8.96337 24 11.7338C25.8008 8.9635 28.4651 7 31.9688 7C34.9442 7 37.4727 8.5185 39.2282 10.7527C40.9789 12.9809 42 15.9597 42 19.0345C42 25.617 37.4563 31.1139 33.1576 34.866C30.9836 36.7635 28.8144 38.2655 27.1908 39.2925C26.378 39.8067 25.6993 40.2035 25.2217 40.4728C24.9828 40.6075 24.794 40.7105 24.6636 40.7804C24.5985 40.8154 24.5479 40.8421 24.5129 40.8604L24.4724 40.8815L24.4611 40.8873L24.4578 40.8891L24.4567 40.8896C24.4563 40.8898 24.456 40.89 24 40ZM24 40L24.4567 40.8896L24.0139 41.1165L23.5655 40.9007L24 40Z" fill="#333333"/>
<path fill-rule="evenodd" clip-rule="evenodd" d="M32 13.8439V27.1982C32 28.6565 31.4443 29.7676 30.5063 30.4712C29.6094 31.1441 28.4818 31.3561 27.4552 31.3101C26.4244 31.2638 25.3785 30.954 24.5623 30.4419C23.9582 30.0629 23.3614 29.4894 23.1163 28.7355C21.989 29.1884 20.6854 29.2776 19.5428 29.0356C18.6461 28.8457 17.7644 28.437 17.0959 27.7503C16.4116 27.0473 16 26.1007 16 24.9585C16 23.3147 16.5875 22.1267 17.6358 21.259C18.6065 20.4556 19.9228 19.9744 21.2546 19.5434C21.5669 19.4423 21.8861 19.3421 22.2109 19.2402C24.7495 18.4431 27.6352 17.5372 30.3541 15.2366L32 13.8439ZM18.9111 22.7997C18.35 23.2642 18 23.8731 18 24.9585C18 25.5871 18.2134 26.0311 18.5291 26.3553C18.8606 26.6959 19.3539 26.9512 19.9572 27.079C21.2103 27.3444 22.5872 26.9986 23.2929 26.2929L25 24.5858V28C25 28.1266 25.1001 28.4183 25.6252 28.7477C26.1215 29.0591 26.8256 29.2798 27.5448 29.3121C28.2682 29.3445 28.8906 29.1832 29.3062 28.8714C29.6807 28.5904 30 28.1058 30 27.1982V18.0016C27.4561 19.6982 24.8759 20.5041 22.7971 21.1534C22.4755 21.2539 22.166 21.3506 21.8704 21.4462C20.5147 21.885 19.5497 22.2711 18.9111 22.7997Z" fill="#333333"/>
<path fill-rule="evenodd" clip-rule="evenodd" d="M26.0039 23.6362C26.4809 23.9145 26.6421 24.5268 26.3638 25.0039C24.6304 27.9753 24.1965 29.4703 24.1775 30.4797C24.1682 30.9738 24.2573 31.4009 24.4078 31.9033C24.452 32.0509 24.5071 32.2206 24.5675 32.4064C24.6963 32.8028 24.8489 33.2726 24.9701 33.7575C25.104 34.2933 24.7783 34.8362 24.2425 34.9701C23.7067 35.1041 23.1638 34.7783 23.0298 34.2425C22.9234 33.8167 22.8132 33.4799 22.6981 33.1278C22.6312 32.9229 22.5625 32.7129 22.4919 32.4772C22.3119 31.8761 22.163 31.2264 22.1778 30.4419C22.207 28.8941 22.8695 27.0247 24.6362 23.9961C24.9145 23.5191 25.5268 23.3579 26.0039 23.6362Z" fill="#333333"/>
</svg>
