<svg width="48" height="48" viewBox="0 0 48 48" fill="none" xmlns="http://www.w3.org/2000/svg">
<path fill-rule="evenodd" clip-rule="evenodd" d="M11.1033 4C10.551 4 10.1033 4.44772 10.1033 5C10.1033 5.03124 10.1047 5.06215 10.1075 5.09265C10.4191 5.03186 10.741 5 11.0704 5C11.4225 5 11.7662 5.03642 12.0978 5.10568C12.1014 5.07095 12.1033 5.0357 12.1033 5C12.1033 4.44772 11.6556 4 11.1033 4ZM13.9598 5.91922C14.053 5.62953 14.1033 5.32064 14.1033 5C14.1033 3.34315 12.7601 2 11.1033 2C9.44642 2 8.10327 3.34315 8.10327 5C8.10327 5.30676 8.14931 5.60277 8.23486 5.88149C6.92722 6.78374 6.07031 8.29281 6.07031 10.0018C6.07031 10.5255 6.15078 11.0304 6.30003 11.5049H5.67508C5.21315 11.5049 4.70074 11.6916 4.257 11.9244C3.78215 12.1735 3.26898 12.5368 2.79364 13.0117C1.83781 13.9666 1 15.4124 1 17.3153C1 19.6506 1.7725 21.3583 2.72943 22.4949C3.20295 23.0573 3.71986 23.4777 4.2056 23.7637C4.29594 23.8169 4.38876 23.8675 4.48324 23.9145L2.12281 33.9868L1.83499 35.215H3.09644H4.67508V42.868C4.67508 44.3193 5.85835 45.5026 7.30966 45.5026C8.76096 45.5026 9.94423 44.3193 9.94423 42.868V35.216H12.2134V42.868C12.2134 44.3193 13.3967 45.5026 14.848 45.5026C16.2993 45.5026 17.4825 44.3193 17.4825 42.868V35.215H19.1487H20.4101L20.1223 33.9868L19.2197 30.1355C19.3878 30.4515 19.7204 30.6667 20.1033 30.6667C20.6556 30.6667 21.1033 30.219 21.1033 29.6667V29C21.1033 28.4477 21.551 28 22.1033 28C22.6556 28 23.1033 28.4477 23.1033 29V43C23.1033 43.5523 23.551 44 24.1033 44C24.6556 44 25.1033 43.5523 25.1033 43V29C25.1033 27.4975 23.9988 26.253 22.5574 26.0342C23.5076 25.3564 23.8803 24.0815 23.384 22.976L19.162 13.5723C18.5974 12.3149 17.3474 11.5059 15.969 11.5059H15.8404C15.9899 11.0311 16.0705 10.5259 16.0705 10.0018C16.0705 8.31641 15.2371 6.82546 13.9598 5.91922ZM11.0704 7C9.4139 7 8.07031 8.34355 8.07031 10.0018C8.07031 10.5495 8.21689 11.0629 8.47291 11.5049H8.50171L8.80182 11.873C9.34752 12.5425 10.1754 12.9672 11.1033 12.9672C12.0308 12.9672 12.8584 12.5428 13.4041 11.8738L13.5375 11.7102C13.8735 11.2254 14.0705 10.6366 14.0705 10.0018C14.0705 8.34355 12.7269 7 11.0704 7ZM5.67508 13.5049H7.5014C8.40868 14.4298 9.67245 15.0036 11.0704 15.0036C12.4678 15.0036 13.7312 14.4302 14.6384 13.5059H15.969C16.5597 13.5059 17.0955 13.8526 17.3374 14.3915L21.5594 23.7952C21.6725 24.0471 21.56 24.343 21.3081 24.4561C21.0561 24.5692 20.7602 24.4567 20.6471 24.2048L17.3948 16.9608L15.4825 17.3704V22.8381V22.9537L15.5089 23.0663L17.8872 33.215H16.4825H15.4825V34.215V42.868C15.4825 43.2147 15.1947 43.5026 14.848 43.5026C14.5012 43.5026 14.2134 43.2147 14.2134 42.868V34.216V33.216H13.2134H8.94423H7.94423V34.216V42.868C7.94423 43.2147 7.65639 43.5026 7.30966 43.5026C6.96293 43.5026 6.67508 43.2147 6.67508 42.868V34.215V33.215H5.67508H4.35788L6.64198 23.4684L6.92077 22.2787H6.92285V22.2699L6.92705 22.2519L6.92285 22.2519V17.0195H4.92285L4.92285 21.8406C4.70987 21.6803 4.48164 21.4707 4.25939 21.2068C3.60865 20.4339 3 19.1833 3 17.3153C3 16.0424 3.55023 15.0829 4.20718 14.4266C4.53823 14.0959 4.88765 13.852 5.18616 13.6954C5.4726 13.5452 5.6398 13.5122 5.67054 13.5061C5.67518 13.5052 5.67671 13.5049 5.67508 13.5049ZM18.8226 25.024C19.156 25.7666 19.8072 26.267 20.5437 26.4367C19.68 26.9634 19.1033 27.9143 19.1033 29V29.6385L17.4825 22.7225V22.0392L18.8226 25.024Z" fill="#333333"/>
<path fill-rule="evenodd" clip-rule="evenodd" d="M30.042 10.0018C30.042 8.34355 31.3856 7 33.0421 7C34.6986 7 36.0421 8.34355 36.0421 10.0018C36.0421 11.6601 34.6986 13.0036 33.0421 13.0036C31.3856 13.0036 30.042 11.6601 30.042 10.0018ZM33.0421 5C30.2802 5 28.042 7.23979 28.042 10.0018C28.042 10.5255 28.1225 11.0304 28.2717 11.5049H27.6751C27.2132 11.5049 26.7007 11.6916 26.257 11.9244C25.7821 12.1735 25.269 12.5368 24.7936 13.0117C23.8378 13.9666 23 15.4124 23 17.3153C23 19.6565 23.7764 21.3668 24.7365 22.5033C25.2116 23.0656 25.7299 23.4854 26.2165 23.7701C26.3637 23.8562 26.5178 23.9357 26.6751 24.0038V42.868C26.6751 44.3193 27.8584 45.5026 29.3097 45.5026L29.3133 45.5025H29.3252L29.3289 45.5026C30.7802 45.5026 31.9635 44.3193 31.9635 42.868V32.216H34.2134V42.868C34.2134 44.3193 35.3967 45.5026 36.848 45.5026L36.8516 45.5025H36.8635L36.8672 45.5026C38.3185 45.5026 39.5018 44.3193 39.5018 42.868V24.1327L39.7428 24.8236C40.0817 25.7949 40.9595 26.4245 41.9243 26.4942C41.111 27.0309 40.5744 27.9528 40.5744 29V29.6667C40.5744 30.219 41.0222 30.6667 41.5744 30.6667C42.1267 30.6667 42.5744 30.219 42.5744 29.6667V29C42.5744 28.4477 43.0222 28 43.5744 28C44.1267 28 44.5744 28.4477 44.5744 29V43C44.5744 43.5523 45.0222 44 45.5744 44C46.1267 44 46.5744 43.5523 46.5744 43V29C46.5744 27.3531 45.2474 26.0161 43.6042 26.0001C44.4521 25.3642 44.8315 24.2305 44.4637 23.1764L41.2106 13.8528C40.7202 12.4474 39.3946 11.5059 37.906 11.5059H37.8121C37.9616 11.0311 38.0421 10.5259 38.0421 10.0018C38.0421 7.23979 35.8039 5 33.0421 5ZM27.6751 13.5049H29.4731C30.3804 14.4298 31.6441 15.0036 33.0421 15.0036C34.4395 15.0036 35.7029 14.4302 36.6101 13.5059H37.906C38.544 13.5059 39.1121 13.9094 39.3223 14.5117L42.5754 23.8353C42.6663 24.096 42.5287 24.3811 42.268 24.4721C42.0073 24.5631 41.7222 24.4254 41.6312 24.1647L39.4459 17.9017L37.5018 18.2311V42.868C37.5018 43.2147 37.2139 43.5026 36.8672 43.5026L36.8635 43.5025L36.8635 43.5025L36.8516 43.5025L36.848 43.5026C36.5012 43.5026 36.2134 43.2147 36.2134 42.868V31.216V30.216H35.2134H30.9635H29.9635V31.216V42.868C29.9635 43.2147 29.6756 43.5026 29.3289 43.5026L29.3252 43.5025L29.3252 43.5025L29.3133 43.5025L29.3097 43.5026C28.9629 43.5026 28.6751 43.2147 28.6751 42.868V23.2402V22.2402H28.6721L28.6721 17H26.6721L26.6721 21.634C26.5372 21.5129 26.3997 21.3728 26.2643 21.2126C25.6116 20.4401 25 19.1879 25 17.3153C25 16.0424 25.5502 15.0829 26.2072 14.4266C26.5382 14.0959 26.8876 13.852 27.1862 13.6954C27.4726 13.5452 27.6398 13.5122 27.6705 13.5061L27.6706 13.5061C27.6752 13.5052 27.6767 13.5049 27.6751 13.5049Z" fill="#333333"/>
</svg>
