<svg width="48" height="48" viewBox="0 0 48 48" fill="none" xmlns="http://www.w3.org/2000/svg">
<path fill-rule="evenodd" clip-rule="evenodd" d="M9.61458 19.138C9.99527 17.869 11.1632 17 12.4881 17H37.693L43.9363 33.6489C44.1303 34.166 43.8682 34.7424 43.3511 34.9363C42.834 35.1302 42.2576 34.8682 42.0637 34.3511L37.1054 21.1289L32.3854 36.862C32.0047 38.131 30.8368 39 29.5119 39H7.68806C5.67847 39 4.23713 37.0628 4.81458 35.138L9.61458 19.138ZM35.656 19H12.4881C12.0465 19 11.6571 19.2897 11.5302 19.7127L6.73024 35.7127C6.53775 36.3543 7.0182 37 7.68806 37H29.5119C29.9535 37 30.3429 36.7103 30.4698 36.2873L35.656 19Z" fill="#333333"/>
<path fill-rule="evenodd" clip-rule="evenodd" d="M16 28C16 27.4477 16.4477 27 17 27L25 27C25.5523 27 26 27.4477 26 28C26 28.5523 25.5523 29 25 29L17 29C16.4477 29 16 28.5523 16 28Z" fill="#333333"/>
<path fill-rule="evenodd" clip-rule="evenodd" d="M19.7575 32.9702C19.2217 32.8362 18.8959 32.2933 19.0299 31.7575L21.0299 23.7575C21.1638 23.2217 21.7067 22.8959 22.2425 23.0299C22.7783 23.1638 23.1041 23.7067 22.9701 24.2425L20.9702 32.2425C20.8362 32.7783 20.2933 33.1041 19.7575 32.9702Z" fill="#333333"/>
<path fill-rule="evenodd" clip-rule="evenodd" d="M37 19C36.4477 19 36 18.5523 36 18V11C36 10.4477 36.4477 10 37 10C37.5523 10 38 10.4477 38 11V18C38 18.5523 37.5523 19 37 19Z" fill="#333333"/>
<path fill-rule="evenodd" clip-rule="evenodd" d="M36 10H30L30 13H36V10ZM30 8C28.8954 8 28 8.89543 28 10V13C28 14.1046 28.8954 15 30 15H36C37.1046 15 38 14.1046 38 13V10C38 8.89543 37.1046 8 36 8H30Z" fill="#333333"/>
</svg>
