<svg width="48" height="48" viewBox="0 0 48 48" fill="none" xmlns="http://www.w3.org/2000/svg">
<path fill-rule="evenodd" clip-rule="evenodd" d="M18.8792 13.054C20.7061 17.4931 20.0598 22.3049 17.8016 25.6437C17.6653 25.8451 17.5233 26.041 17.3758 26.231C16.7388 25.7693 15.8764 25.7191 15.1822 26.131L13.3594 27.2125C12.5079 27.7177 12.1901 28.7296 12.4904 29.5919C10.5854 30.1188 8.35103 30.0428 5.86474 29.0689L5.13531 30.9311C8.19198 32.1284 11.05 32.1847 13.5275 31.3668C13.6415 31.3291 13.7545 31.2897 13.8666 31.2485C14.5122 31.8009 15.4453 31.888 16.1866 31.4481L18.0094 30.3667C18.955 29.8057 19.2424 28.6198 18.7561 27.7078C19.0036 27.4051 19.2378 27.0901 19.4582 26.7642C22.0896 22.8737 22.8055 17.3698 20.7419 12.325L23.6645 11.1812L22.9356 9.31874L21.5908 9.84504L20.045 6.1321L15.1202 8.0907L16.5996 11.7985L15.2935 12.3097L16.0224 14.1721L18.8792 13.054ZM17.7198 9.20919L18.4535 11.0479L19.7162 10.546L18.9551 8.7179L17.7198 9.20919Z" fill="currentColor"/>
<path fill-rule="evenodd" clip-rule="evenodd" d="M21.0189 37.9999H8.00006V36L21.8254 35.9999L22.4063 36.5594C23.6761 37.7824 27.409 39.9998 32.0001 39.9999C34.4412 39.9999 40.0001 37.5732 40.0001 27.9999C40.0001 25.3659 39.7938 23.6811 39.4233 22.4583C39.072 21.2986 38.5485 20.4726 37.7376 19.5981L37.6772 19.533C36.7595 18.5431 36.5394 18.3057 36.1709 18.1674C33.1334 17.0272 28.7834 15.4093 26.0001 14.3755V17.8825L23.5264 17.9057V15.9056L24.0001 15.9011V14.3744C24.0001 12.9812 25.3866 12.0141 26.6926 12.4992C29.4757 13.5329 33.8313 15.1529 36.8737 16.295C37.7056 16.6072 38.261 17.212 38.9591 17.9723C39.0387 18.059 39.1202 18.1477 39.2041 18.2382C41.165 20.3528 42.0001 22.5769 42.0001 27.9999C42.0001 38.5511 35.6684 41.9999 32.0001 41.9999C26.84 41.9998 22.6226 39.5444 21.0189 37.9999ZM25.9987 14.3722L25.9992 14.3711L26.0003 14.3676C26.0003 14.3674 26.0005 14.3668 26.0003 14.3676C26.0002 14.368 26.0002 14.3688 26.0001 14.3721C26.0052 14.3713 26.0042 14.3704 25.9999 14.3734L25.9986 14.3744L25.9975 14.3746L25.9987 14.3722Z" fill="currentColor"/>
<path d="M8.00006 24V21.9999H16.0001V17.9574C16.0001 16.8602 16.8841 15.9678 17.9813 15.9575L18.5264 15.9524V17.9525L18.0001 17.9574V23.9999L8.00006 24Z" fill="currentColor"/>
</svg>
