<svg width="48" height="48" viewBox="0 0 48 48" fill="none" xmlns="http://www.w3.org/2000/svg">
<path fill-rule="evenodd" clip-rule="evenodd" d="M28.5 17.5001C28.5 19.9853 26.4852 22.0001 24 22.0001C21.5147 22.0001 19.5 19.9853 19.5 17.5001C19.5 15.0148 21.5147 13.0001 24 13.0001C26.4852 13.0001 28.5 15.0148 28.5 17.5001ZM26.5 17.5001C26.5 18.8808 25.3807 20.0001 24 20.0001C22.6192 20.0001 21.5 18.8808 21.5 17.5001C21.5 16.1193 22.6192 15.0001 24 15.0001C25.3807 15.0001 26.5 16.1193 26.5 17.5001Z" fill="#333333"/>
<path fill-rule="evenodd" clip-rule="evenodd" d="M9.00354 6.06078C9.55384 6.01402 10.0378 6.42223 10.0846 6.97254L10.3708 10.3417C20.3975 8.56603 27.3733 8.55034 37.6285 10.3489L37.9153 6.97254C37.9621 6.42223 38.4461 6.01402 38.9964 6.06078L40.9892 6.23008C41.5395 6.27683 41.9477 6.76084 41.9009 7.31114L41.5723 11.1797C41.8879 11.4002 42.0607 11.7936 41.9807 12.1954C41.9163 12.5187 41.7027 12.7744 41.4257 12.9049L41.0755 17.0273C41.0287 17.5776 40.5447 17.9858 39.9944 17.939L38.0016 17.7697C37.4513 17.723 37.0431 17.239 37.0899 16.6887L37.4585 12.3496C36.9109 12.2527 36.3732 12.1611 35.8442 12.0748C35.9385 12.3662 35.9895 12.6772 35.9895 13C35.9895 13.0756 35.9908 13.1907 35.9927 13.3492L35.9928 13.3581C36.0061 14.5095 36.0412 17.546 35.6844 20.4418C35.4847 22.0621 35.135 23.901 34.4533 25.4156C33.945 26.5451 32.8995 28.2179 31 28.7957V29.8835C31.7455 29.6203 32.4919 29.3692 33.1099 29.2133C33.5013 29.1145 34.2146 28.9499 34.9559 29.0155C35.3339 29.0489 36.0987 29.1709 36.8135 29.7524C37.671 30.4499 38 31.4244 38 32.2632C38 33.1862 37.7029 35.3792 37.4661 36.9401C37.3389 37.7782 37.2068 38.5775 37.1015 39.1211L37.0931 39.1647C37.0197 39.5452 36.9104 40.1117 36.6036 40.628L36.6029 40.6293L36.6012 40.6321C36.5319 40.7494 36.2163 41.2819 35.5646 41.6742C35.1623 41.9164 34.5002 42.1805 33.6714 42.0853C32.8326 41.9888 32.2336 41.5717 31.8797 41.2144C31.5134 40.8445 31.2455 40.3797 31.1102 39.8753C30.9307 39.2119 30.877 38.5197 30.8491 37.9006C30.8395 37.6892 30.8329 37.4907 30.8266 37.3011C30.8151 36.956 30.8046 36.6403 30.7791 36.3297C29.9652 36.6121 29.0896 36.901 28.2179 37.1459C26.9174 37.5115 25.4149 37.8421 24 37.8421C22.5851 37.8421 21.0826 37.5115 19.7821 37.146C18.9247 36.905 18.0636 36.6216 17.2612 36.3436L17.2412 36.6051C17.1786 37.418 17.1147 38.2176 17.0658 38.756C17.0626 38.7914 17.0594 38.8297 17.056 38.8706C17.0253 39.2379 16.9775 39.8113 16.7414 40.3329C16.6924 40.4433 16.442 41.0043 15.8489 41.4656C15.474 41.7572 14.7749 42.1482 13.8302 42.0926C12.8811 42.0368 12.228 41.5625 11.8843 41.2188C11.1595 40.494 11.0616 39.5908 10.9998 39.0214C10.993 38.9589 10.9867 38.9004 10.98 38.8466C10.9592 38.6793 10.9266 38.4595 10.8825 38.1874C10.8051 37.7103 10.7042 37.1472 10.5947 36.5354L10.5468 36.2682C10.4224 35.5726 10.2909 34.8289 10.1906 34.1721C10.0995 33.575 10 32.8437 10 32.2632C10 31.4243 10.329 30.4499 11.1865 29.7524C11.9013 29.1709 12.6661 29.0489 13.0442 29.0155C13.1076 29.0098 13.1708 29.0059 13.2337 29.0035C13.7623 28.9831 14.2635 29.0689 14.6274 29.1504C14.7257 29.1724 14.814 29.1941 14.8901 29.2133C15.5081 29.3692 16.2545 29.6203 17 29.8835V28.78C16.873 28.738 16.7501 28.6907 16.6314 28.6387C15.4244 28.1103 14.6396 27.0982 14.155 26.2463C13.9854 25.9483 13.8526 25.6699 13.7513 25.4386C13.7108 25.3463 13.6715 25.2527 13.6331 25.1579C13.0729 23.7722 12.7356 22.1323 12.5166 20.6461C12.0398 17.4105 12 13.9846 12 13C12 12.6741 12.052 12.3603 12.1481 12.0666C11.6211 12.1533 11.0857 12.2454 10.5408 12.3427L10.91 16.6887C10.9568 17.239 10.5486 17.723 9.99828 17.7697L8.00546 17.939C7.45516 17.9858 6.97115 17.5776 6.9244 17.0273L6.57418 12.9049C6.29791 12.7747 6.08461 12.52 6.01965 12.1976C5.93858 11.7952 6.11132 11.4006 6.42762 11.1797L6.09896 7.31114C6.05221 6.76084 6.46042 6.27683 7.01072 6.23008L9.00354 6.06078ZM17.5007 11.3422C17.8162 11.8172 18 12.3871 18 13C18 13.9054 18.041 16.9793 18.4525 19.7713C18.6597 21.1774 18.9319 22.2974 19.2336 23H28.9605L28.9708 22.9775L28.982 22.9531C29.2893 22.2701 29.5521 21.1469 29.7294 19.708C30.0314 17.2574 30.0055 14.6551 29.993 13.4478L29.9929 13.4424C29.9911 13.2667 29.9895 13.1146 29.9895 13C29.9895 12.3913 30.1708 11.825 30.4823 11.352C25.9816 10.8913 21.9349 10.8905 17.5007 11.3422ZM29 28.7819V27.98C29 27.4667 29.3887 27.0367 29.8994 26.9851C31.2618 26.8473 32.1211 25.7243 32.6295 24.5947C33.1866 23.357 33.5073 21.7563 33.6994 20.1972C34.0388 17.4426 34.0061 14.5205 33.9928 13.3723L33.9927 13.3667C33.991 13.2164 33.9895 13.089 33.9895 13C33.9895 12.4477 33.5418 12 32.9895 12C32.4372 12 31.9895 12.4477 31.9895 13C31.9895 13.103 31.991 13.2445 31.9929 13.4271L31.993 13.4383C32.0055 14.6447 32.0337 17.3616 31.7144 19.9526C31.5298 21.451 31.2381 22.8133 30.8057 23.7739C30.6002 24.2307 30.3992 24.5348 30.1935 24.7283C30.008 24.9028 29.7629 25 29.5082 25H18.6379C18.321 25 18.0229 24.8498 17.8343 24.5951C17.7098 24.427 17.5691 24.1849 17.4149 23.8331C16.9996 22.8853 16.6919 21.5425 16.4738 20.0629C16.0406 17.123 16 13.9316 16 13C16 12.4477 15.5523 12 15 12C14.4477 12 14 12.4477 14 13C14 13.7947 14.0276 16.2071 14.2968 18.769C14.3521 19.2954 14.4177 19.8282 14.4952 20.3545C14.7212 21.888 15.0595 23.4411 15.5831 24.6359C16.0392 25.6767 16.8252 26.8435 18.1094 26.9848C18.6163 27.0406 19 27.4689 19 27.9788V28.782C19.2434 28.8554 19.5518 28.9408 19.9165 29.0266C20.9215 29.2631 22.3432 29.5 23.9999 29.5C25.6566 29.5 27.0783 29.2631 28.0834 29.0266C28.4481 28.9408 28.7566 28.8553 29 28.7819ZM19 30.8594C19.143 30.8969 19.296 30.9352 19.4584 30.9734C20.5783 31.2369 22.1566 31.5 23.9999 31.5C25.8432 31.5 27.4215 31.2369 28.5415 30.9734C28.7039 30.9352 28.857 30.8969 29 30.8593V31.3027C29 31.6278 29.1581 31.9326 29.4238 32.12C29.6895 32.3073 30.0297 32.3538 30.336 32.2445L30.8861 32.0476C31.9084 31.681 32.8773 31.3346 33.5991 31.1525C33.9651 31.0602 34.3978 30.9739 34.7796 31.0077C34.9727 31.0248 35.2787 31.082 35.5514 31.3039C35.8691 31.5623 36 31.9254 36 32.2632C36 33.0011 35.7341 35.0226 35.4887 36.6401C35.363 37.4688 35.2356 38.2369 35.138 38.7408C35.0532 39.1784 34.996 39.4186 34.8841 39.6066L34.8789 39.6154C34.8619 39.6441 34.7532 39.8283 34.5331 39.9608C34.3957 40.0435 34.1746 40.1299 33.8999 40.0983C33.622 40.0664 33.4215 39.9289 33.3007 39.807C33.1778 39.6829 33.0867 39.5243 33.042 39.3574L33.0412 39.3546C32.9214 38.9125 32.8737 38.4016 32.847 37.8103C32.8399 37.6531 32.8343 37.485 32.8284 37.3111C32.8138 36.8761 32.798 36.4046 32.755 35.9745C32.7154 35.5791 32.6759 35.1962 32.6403 34.8577C32.6082 34.5525 32.4378 34.2789 32.1779 34.1156C31.918 33.9522 31.5976 33.9173 31.3086 34.0208C30.1933 34.4202 28.9231 34.8703 27.6768 35.2205C26.4313 35.5706 25.1386 35.8421 24 35.8421C22.8614 35.8421 21.5687 35.5706 20.3232 35.2205C19.1525 34.8915 17.9606 34.4744 16.8958 34.0939L16.6991 34.0236C16.4051 33.9183 16.0788 33.9564 15.8169 34.1266C15.6812 34.2148 15.5709 34.3333 15.4929 34.4703C15.4204 34.5977 15.3758 34.7411 15.3647 34.8911C15.3284 35.3816 15.2877 35.9232 15.2471 36.4517C15.1845 37.2643 15.1216 38.0517 15.074 38.5749L15.0699 38.6199C15.0277 39.0853 15.0067 39.3159 14.919 39.5089L14.9126 39.5232C14.9066 39.5369 14.8205 39.7317 14.621 39.8869C14.4923 39.987 14.2593 40.1144 13.9476 40.0961C13.6345 40.0777 13.4165 39.9225 13.2985 39.8045C13.0882 39.5943 13.0636 39.3958 12.9719 38.6579L12.9647 38.5998C12.9395 38.3974 12.9026 38.1503 12.8567 37.867C12.7764 37.3721 12.6728 36.7938 12.5645 36.1892L12.5156 35.916C12.3908 35.2182 12.2636 34.4983 12.1677 33.8701C12.075 33.2634 12 32.6722 12 32.2632C12 31.9254 12.1309 31.5623 12.4486 31.3039C12.6403 31.1479 12.8486 31.0733 13.0224 31.0368C13.0958 31.0214 13.1631 31.0128 13.2205 31.0077C13.6022 30.9739 14.0349 31.0602 14.4009 31.1525C14.5796 31.1976 14.7736 31.2528 14.9797 31.3159C15.5607 31.4936 16.2388 31.734 16.9479 31.9881L17.664 32.2445C17.9703 32.3538 18.3105 32.3073 18.5762 32.12C18.8419 31.9326 19 31.6278 19 31.3027V30.8594Z" fill="#333333"/>
</svg>
