<svg width="48" height="48" viewBox="0 0 48 48" fill="none" xmlns="http://www.w3.org/2000/svg">
<path fill-rule="evenodd" clip-rule="evenodd" d="M9 4C7.34315 4 6 5.34315 6 7V15C6 16.6569 7.34314 18 9 18H27C28.6569 18 30 16.6569 30 15V7C30 5.34315 28.6569 4 27 4H9ZM8 7C8 6.44772 8.44772 6 9 6H27C27.5523 6 28 6.44771 28 7V15C28 15.5523 27.5523 16 27 16H9C8.44772 16 8 15.5523 8 15V7ZM16 10C16.5523 10 17 9.55228 17 9C17 8.44772 16.5523 8 16 8C15.4477 8 15 8.44772 15 9C15 9.55228 15.4477 10 16 10ZM13 9C13 9.55228 12.5523 10 12 10C11.4477 10 11 9.55228 11 9C11 8.44772 11.4477 8 12 8C12.5523 8 13 8.44772 13 9ZM16 14C16.5523 14 17 13.5523 17 13C17 12.4477 16.5523 12 16 12C15.4477 12 15 12.4477 15 13C15 13.5523 15.4477 14 16 14ZM13 13C13 13.5523 12.5523 14 12 14C11.4477 14 11 13.5523 11 13C11 12.4477 11.4477 12 12 12C12.5523 12 13 12.4477 13 13ZM20 10C20.5523 10 21 9.55228 21 9C21 8.44772 20.5523 8 20 8C19.4477 8 19 8.44772 19 9C19 9.55228 19.4477 10 20 10ZM21 13C21 13.5523 20.5523 14 20 14C19.4477 14 19 13.5523 19 13C19 12.4477 19.4477 12 20 12C20.5523 12 21 12.4477 21 13ZM24 10C24.5523 10 25 9.55228 25 9C25 8.44772 24.5523 8 24 8C23.4477 8 23 8.44772 23 9C23 9.55228 23.4477 10 24 10ZM25 13C25 13.5523 24.5523 14 24 14C23.4477 14 23 13.5523 23 13C23 12.4477 23.4477 12 24 12C24.5523 12 25 12.4477 25 13ZM33.0015 20.5339L34 19.9563V18C34 17.4477 34.4477 17 35 17C35.5523 17 36 17.4477 36 18V19.9563L36.9986 20.5339C38.1994 21.2285 39 22.522 39 24V42H31V24C31 22.522 31.8006 21.2285 33.0015 20.5339ZM29 42V24C29 21.7792 30.2066 19.8401 32 18.8027V18C32 16.3431 33.3431 15 35 15C36.6569 15 38 16.3431 38 18V18.8027C39.7934 19.8401 41 21.7792 41 24V42H42C42.5523 42 43 42.4477 43 43C43 43.5523 42.5523 44 42 44H41H29H28C27.4477 44 27 43.5523 27 43C27 42.4477 27.4477 42 28 42H29ZM14.2533 23.2703C13.8341 22.4319 12.8888 21.9971 11.9793 22.2245L4.75757 24.0299L5.24264 25.9702L12.4644 24.1648L13.42 26.0759C12.5983 26.2969 12 26.9752 12 27.7778V40.2222C12 41.2041 12.8954 42 14 42V44H16V42C17.1046 42 18 41.2041 18 40.2222V27.7778C18 26.9752 17.4017 26.2969 16.58 26.0759L17.5356 24.1648L24.7574 25.9702L25.2424 24.0299L18.0207 22.2245C17.1112 21.9971 16.1659 22.4319 15.7467 23.2703L15 24.7638L14.2533 23.2703ZM16 27.7778V40.2222H14V27.7778H16Z" fill="#333333"/>
</svg>
