<svg width="48" height="48" viewBox="0 0 48 48" fill="none" xmlns="http://www.w3.org/2000/svg">
<path fill-rule="evenodd" clip-rule="evenodd" d="M12.7781 30.6282C12.5752 30.1604 12.1168 29.9076 11.6699 30.0312C6.8662 31.3592 2 34.0671 2 38.1407V43V45H4H32H34V43V38.1407C34 34.0671 29.1338 31.3592 24.3301 30.0312C23.8832 29.9076 23.4248 30.1604 23.2219 30.6282L19.6093 30.6282C18.8193 30.6284 18.4171 30.6284 18.022 30.6284C17.6122 30.6283 17.2099 30.6283 16.3905 30.6285L12.7781 30.6282ZM19.6098 32.6282C19.6096 32.6282 19.6095 32.6282 19.6093 32.6282C18.8132 32.6284 18.4136 32.6284 18.0213 32.6284C17.6146 32.6283 17.2158 32.6283 16.391 32.6285L16.3903 32.6285L12.7779 32.6282L11.4655 32.6281L11.2922 32.2286C9.36506 32.8386 7.56698 33.6641 6.22757 34.6608C4.67071 35.8194 4 36.991 4 38.1407V43H32V38.1407C32 36.991 31.3293 35.8194 29.7724 34.6608C28.433 33.6641 26.6349 32.8386 24.7078 32.2286L24.5345 32.6282L23.2219 32.6282L19.6098 32.6282Z" fill="#333333"/>
<path d="M11 36C11 35.4477 11.4477 35 12 35C12.5523 35 13 35.4477 13 36V43C13 43.5523 12.5523 44 12 44C11.4477 44 11 43.5523 11 43V36Z" fill="#333333"/>
<path d="M23 36C23 35.4477 23.4477 35 24 35C24.5523 35 25 35.4477 25 36V43C25 43.5523 24.5523 44 24 44C23.4477 44 23 43.5523 23 43V36Z" fill="#333333"/>
<path fill-rule="evenodd" clip-rule="evenodd" d="M11.6338 12.6474C10.4499 14.197 10.2133 15.8961 10.5128 16.7651C10.6928 17.2873 10.4154 17.8564 9.89328 18.0364C9.37114 18.2164 8.80197 17.939 8.62199 17.4169C8.03936 15.7266 8.59178 13.3348 10.0445 11.4332C11.5473 9.46626 14.0801 7.90918 17.6533 7.90918C21.2847 7.90918 24.0043 9.32631 25.6803 11.2256C27.3181 13.0817 28.0158 15.4907 27.3701 17.4099C27.194 17.9333 26.6269 18.2149 26.1035 18.0388C25.58 17.8627 25.2984 17.2956 25.4745 16.7721C25.8272 15.7238 25.4981 14.042 24.1806 12.5489C22.9014 11.0992 20.7372 9.90918 17.6533 9.90918C14.7188 9.90918 12.7676 11.1633 11.6338 12.6474Z" fill="#333333"/>
<path fill-rule="evenodd" clip-rule="evenodd" d="M13.2622 9.81836C13.8145 9.81836 14.2622 10.2661 14.2622 10.8184L14.2622 14.2729C14.2622 14.8252 13.8145 15.2729 13.2622 15.2729C12.7099 15.2729 12.2622 14.8252 12.2622 14.2729L12.2622 10.8184C12.2622 10.2661 12.7099 9.81836 13.2622 9.81836Z" fill="#333333"/>
<path fill-rule="evenodd" clip-rule="evenodd" d="M18.0437 8C18.596 8 19.0437 8.44772 19.0437 9L19.0437 12.4545C19.0437 13.0068 18.596 13.4545 18.0437 13.4545C17.4914 13.4545 17.0437 13.0068 17.0437 12.4545L17.0437 9C17.0437 8.44772 17.4914 8 18.0437 8Z" fill="#333333"/>
<path fill-rule="evenodd" clip-rule="evenodd" d="M22.8252 9.81836C23.3775 9.81836 23.8252 10.2661 23.8252 10.8184L23.8252 14.2729C23.8252 14.8252 23.3775 15.2729 22.8252 15.2729C22.2729 15.2729 21.8252 14.8252 21.8252 14.2729L21.8252 10.8184C21.8252 10.2661 22.2729 9.81836 22.8252 9.81836Z" fill="#333333"/>
<path fill-rule="evenodd" clip-rule="evenodd" d="M7.02573 18.7145C6.84546 17.4958 7.60441 16.3843 8.74794 15.418L10.0388 16.9456C9.03068 17.7975 8.98276 18.2769 9.0042 18.4218C9.02874 18.5877 9.2274 18.9522 10.0972 19.3722C11.7722 20.181 14.8146 20.6363 18 20.6363C21.1854 20.6363 24.2279 20.181 25.9029 19.3722C26.7726 18.9522 26.9713 18.5877 26.9958 18.4218C27.0173 18.2769 26.9693 17.7975 25.9612 16.9456L27.2521 15.418C28.3956 16.3843 29.1546 17.4958 28.9743 18.7145C28.7971 19.9123 27.7855 20.6841 26.7725 21.1732C24.6821 22.1826 21.2696 22.6363 18 22.6363C14.7304 22.6363 11.3179 22.1826 9.2275 21.1732C8.21456 20.6841 7.20291 19.9123 7.02573 18.7145Z" fill="#333333"/>
<path fill-rule="evenodd" clip-rule="evenodd" d="M11.3497 20.7275C11.3497 24.1448 14.2789 27.0003 18.0001 27.0003C21.7213 27.0003 24.6504 24.1448 24.6504 20.7275H26.6504C26.6504 25.3435 22.7292 29.0003 18.0001 29.0003C13.2709 29.0003 9.34973 25.3435 9.34973 20.7275H11.3497Z" fill="#333333"/>
<path fill-rule="evenodd" clip-rule="evenodd" d="M31 5C31 4.44772 31.4477 4 32 4H35C35.5523 4 36 4.44772 36 5V9.91937L39.3753 7.21913C39.6755 6.979 40.0867 6.93218 40.4332 7.0987C40.7797 7.26522 41 7.61559 41 8V9.91938L44.3753 7.21913C44.6755 6.979 45.0867 6.93218 45.4332 7.0987C45.7797 7.26522 46 7.61559 46 8V19C46 19.5523 45.5523 20 45 20H32C31.4477 20 31 19.5523 31 19V5ZM33 6V18H44V10.0806L40.6247 12.7809C40.3245 13.021 39.9133 13.0678 39.5668 12.9013C39.2203 12.7348 39 12.3844 39 12V10.0806L35.6247 12.7809C35.3245 13.021 34.9133 13.0678 34.5668 12.9013C34.2203 12.7348 34 12.3844 34 12V6H33Z" fill="#333333"/>
<path d="M35 14.4C35 14.1791 35.1791 14 35.4 14H36.6C36.8209 14 37 14.1791 37 14.4V15.6C37 15.8209 36.8209 16 36.6 16H35.4C35.1791 16 35 15.8209 35 15.6V14.4Z" fill="#333333"/>
<path d="M40 14.4C40 14.1791 40.1791 14 40.4 14H41.6C41.8209 14 42 14.1791 42 14.4V15.6C42 15.8209 41.8209 16 41.6 16H40.4C40.1791 16 40 15.8209 40 15.6V14.4Z" fill="#333333"/>
</svg>
