<svg width="48" height="48" viewBox="0 0 48 48" fill="none" xmlns="http://www.w3.org/2000/svg">
<g clip-path="url(#clip0)">
<path fill-rule="evenodd" clip-rule="evenodd" d="M36.7279 36.728C29.6985 43.7575 18.3015 43.7575 11.2721 36.728C5.27491 30.7308 4.39423 21.5547 8.63003 14.6239L13.8857 12.9346C16.3783 12.1334 18.2392 15.2535 16.3497 17.0658C13.4018 19.8934 15.4802 24.8676 19.5635 24.7573L20.5971 24.7293C21.9323 24.6932 23.1156 25.5836 23.4508 26.8765L23.5806 27.3771C23.2491 27.3451 22.9067 27.3683 22.5653 27.4536L16.9084 28.8679C15.301 29.2697 14.3237 30.8985 14.7256 32.5059C15.1274 34.1133 16.7562 35.0906 18.3636 34.6887L21.11 34.0021L21.7967 36.7485C22.1608 38.2053 23.546 39.1684 25.0384 39.0026C32.8577 38.1338 36.4445 32.5927 37.4156 30.0032C37.7754 29.0437 37.6205 27.9669 37.005 27.1477C36.3894 26.3285 35.3982 25.8801 34.3765 25.9587L32.3063 26.1179L31.5066 22.9189C31.1048 21.3116 29.4759 20.3343 27.8686 20.7361C26.2612 21.138 25.2839 22.7668 25.6857 24.3742L27.1 30.031C27.2827 30.7621 27.7234 31.3703 28.3071 31.773C27.8976 32.0135 27.4479 32.2338 26.955 32.4234L25.3868 26.3745C24.8178 24.18 22.8093 22.6688 20.5431 22.73L19.5095 22.758C17.2538 22.8189 16.1057 20.0712 17.7341 18.5092C21.1546 15.2284 17.7859 9.58015 13.2737 11.0305L10.7167 11.8524C10.8967 11.6559 11.0818 11.4624 11.2721 11.2722C18.3015 4.24273 29.6985 4.24273 36.7279 11.2722C43.7574 18.3016 43.7574 29.6986 36.7279 36.728ZM38.1421 38.1422C30.3317 45.9527 17.6683 45.9527 9.85786 38.1422C2.04738 30.3317 2.04738 17.6684 9.85786 9.85796C17.6684 2.04747 30.3316 2.04747 38.1421 9.85796C45.9526 17.6684 45.9526 30.3317 38.1421 38.1422ZM38.1421 22.5859C37.3611 23.3669 36.0948 23.3669 35.3137 22.5859C34.5327 21.8048 34.5327 20.5385 35.3137 19.7575C36.0948 18.9764 37.3611 18.9764 38.1421 19.7575C38.9232 20.5385 38.9232 21.8048 38.1421 22.5859ZM39.5563 24.0001C37.9943 25.5622 35.4616 25.5622 33.8995 24.0001C32.3374 22.438 32.3374 19.9053 33.8995 18.3432C35.4616 16.7811 37.9943 16.7811 39.5563 18.3432C41.1184 19.9053 41.1184 22.438 39.5563 24.0001ZM35.406 28.3491C35.2008 28.0761 34.8705 27.9266 34.5299 27.9528L31.6177 28.1768C31.1315 28.2142 30.6892 27.8954 30.5709 27.4223L29.5663 23.404C29.4324 22.8682 28.8894 22.5425 28.3536 22.6764C27.8178 22.8104 27.4921 23.3533 27.626 23.8891L29.0402 29.5459C29.1585 30.0191 29.6008 30.3379 30.0871 30.3005L30.5563 30.2644C30.9777 30.232 31.3739 30.468 31.5462 30.8539C31.7184 31.2399 31.6294 31.6924 31.3238 31.9844C30.1754 33.0818 28.5793 34.1235 26.4477 34.6851C26.1891 34.7532 25.914 34.7149 25.6839 34.5788C25.4537 34.4427 25.2876 34.22 25.2228 33.9606L24.263 30.1215C24.1291 29.5857 23.5861 29.26 23.0503 29.3939L17.3935 30.8081C16.8577 30.9421 16.5319 31.485 16.6659 32.0208C16.7998 32.5566 17.3428 32.8824 17.8786 32.7484L21.5951 31.8193C21.8524 31.755 22.1247 31.7955 22.3522 31.9319C22.5796 32.0684 22.7435 32.2896 22.8078 32.5469L23.7369 36.2635C23.8583 36.749 24.32 37.0701 24.8175 37.0148C31.6643 36.2541 34.7468 31.424 35.5429 29.301C35.6628 28.9811 35.6112 28.6222 35.406 28.3491Z" fill="#333333"/>
</g>
<defs>
<clipPath id="clip0">
<rect width="48" height="48" fill="white"/>
</clipPath>
</defs>
</svg>
