<svg width="48" height="48" viewBox="0 0 48 48" fill="none" xmlns="http://www.w3.org/2000/svg">
<path fill-rule="evenodd" clip-rule="evenodd" d="M32.5 23C33.8807 23 35 21.8807 35 20.5C35 19.1193 33.8807 18 32.5 18C31.1193 18 30 19.1193 30 20.5C30 21.8807 31.1193 23 32.5 23ZM32.5 25C34.9853 25 37 22.9853 37 20.5C37 18.0147 34.9853 16 32.5 16C30.0147 16 28 18.0147 28 20.5C28 22.9853 30.0147 25 32.5 25Z" fill="currentColor"/>
<path fill-rule="evenodd" clip-rule="evenodd" d="M17.2444 38.5039C21.0911 40.2956 25.4919 40.4858 29.4789 39.0327C33.4658 37.5796 36.7122 34.6023 38.5039 30.7556C40.2956 26.909 40.4858 22.5081 39.0327 18.5212C37.5796 14.5342 34.6023 11.2879 30.7556 9.49615C26.909 7.70446 22.5081 7.51422 18.5212 8.9673C14.5342 10.4204 11.2879 13.3977 9.49615 17.2444C7.70446 21.0911 7.51422 25.4919 8.9673 29.4788C10.4204 33.4658 13.3977 36.7122 17.2444 38.5039L16.4 40.3168C12.0725 38.3012 8.72292 34.649 7.08821 30.1637C5.4535 25.6784 5.66751 20.7274 7.68317 16.4C9.69883 12.0725 13.351 8.72292 17.8363 7.08821C22.3216 5.4535 27.2726 5.66751 31.6001 7.68317C35.9276 9.69883 39.2771 13.351 40.9118 17.8363C42.5465 22.3216 42.3325 27.2726 40.3168 31.6001C38.3012 35.9276 34.649 39.2771 30.1637 40.9118C25.6784 42.5465 20.7274 42.3325 16.4 40.3168L17.2444 38.5039Z" fill="currentColor"/>
<path fill-rule="evenodd" clip-rule="evenodd" d="M15.9867 17.8416C15.9597 18.6807 15.5896 19.4382 14.858 20.0401L14.1108 20.6549C13.8488 20.8704 13.7735 21.0622 13.7551 21.1844C13.7358 21.3119 13.7644 21.4541 13.8611 21.5958C14.0513 21.8746 14.5455 22.1711 15.3012 21.9697C15.7461 21.8512 16.2969 21.7306 16.8194 21.9075C17.4043 22.1054 17.6978 22.582 17.8632 22.8596C18.0218 23.1259 18.1337 23.3962 18.2203 23.6335C18.279 23.7945 18.4845 24.2409 18.6978 24.704C18.811 24.9499 18.9264 25.2005 19.0231 25.4157C19.3131 25.5862 19.4986 25.7592 19.5639 25.8206C19.6988 25.9472 19.7958 26.0614 19.8481 26.1253C19.9541 26.2549 20.0325 26.3715 20.0725 26.4322C20.1591 26.564 20.238 26.7 20.2968 26.804C20.4212 27.0242 20.5683 27.3025 20.719 27.5947C21.0252 28.1883 21.4079 28.9589 21.7777 29.7114C21.8229 29.8033 21.868 29.8952 21.9129 29.9867C22.0337 29.9132 22.1557 29.8379 22.2782 29.7612C21.9816 29.1258 20.4201 25.6368 20.2137 25.1276C19.5913 23.5921 20.3315 21.8428 21.867 21.2204C23.4025 20.598 25.1518 21.3382 25.7742 22.8737C25.8469 23.0529 26.2926 24.0599 26.7727 25.1342C26.8116 25.1244 26.8493 25.115 26.8854 25.1059C27.0191 25.0722 27.13 25.0437 27.207 25.0238M27.2081 25.0236L27.2955 25.0009L27.3237 24.9935C28.7628 24.6143 30.2624 25.3475 30.8469 26.7161C31.4183 28.054 31.0674 29.2882 30.7242 30.0147C30.3806 30.742 29.8779 31.3443 29.4449 31.794C28.5629 32.7101 27.3948 33.575 26.3513 34.2721C25.2757 34.9905 24.1817 35.6296 23.3477 36.0841C22.9316 36.3109 22.5582 36.5038 22.267 36.6438C22.1292 36.71 21.9681 36.7847 21.813 36.847C21.749 36.8728 21.5997 36.9319 21.4172 36.9824C21.3433 37.0028 21.1183 37.064 20.826 37.0865C20.6857 37.0972 20.3752 37.1128 19.9921 37.035C19.651 36.9656 18.8044 36.7299 18.1736 35.8761C18.067 35.732 17.9936 35.6037 17.9774 35.5752C17.9553 35.5365 17.937 35.5027 17.9265 35.4831C17.9042 35.4416 17.8831 35.4005 17.867 35.3689C17.8333 35.3028 17.7923 35.2203 17.7484 35.1314C17.6593 34.9511 17.5387 34.7043 17.4001 34.4199L17.2311 34.073C16.9817 33.5611 16.6884 32.9591 16.3929 32.3579C16.3043 32.1776 16.216 31.9983 16.129 31.8225C15.7239 32.009 15.3326 32.1873 15.1139 32.2747C13.5754 32.8895 11.8297 32.1408 11.2148 30.6022C10.5999 29.0637 11.3487 27.318 12.8872 26.7031C13.002 26.6573 13.2814 26.5285 13.7105 26.3302C13.9877 26.202 14.3135 26.0514 14.6623 25.893C15.055 25.7147 15.4794 25.526 15.8331 25.3833C16.0022 25.3151 16.2153 25.2327 16.4265 25.167C16.4857 25.1486 16.5725 25.1226 16.6777 25.0967C16.5278 24.7664 16.3956 24.4675 16.3414 24.3189C16.2758 24.1391 16.2136 23.9984 16.1449 23.8832C16.134 23.8649 16.124 23.8484 16.1148 23.8334C16.0438 23.846 15.9473 23.8674 15.8161 23.9023C14.3224 24.3003 12.9236 23.7705 12.209 22.723C11.8532 22.2015 11.6763 21.5555 11.7775 20.8856C11.8796 20.2102 12.2508 19.5952 12.8401 19.1104L13.5874 18.4956C13.9013 18.2373 13.9803 18.0075 13.9877 17.7773C13.997 17.4897 13.8925 17.0935 13.6191 16.5636C13.3507 16.0434 12.9673 15.4835 12.5252 14.8834C12.368 14.6699 12.1978 14.4444 12.0249 14.2151C11.7367 13.8332 11.4408 13.4409 11.1838 13.0771L12.8172 11.9231C13.0617 12.2692 13.3177 12.6081 13.5874 12.9651C13.764 13.199 13.9465 13.4406 14.1354 13.6971C14.5897 14.3137 15.0519 14.9787 15.3965 15.6466C15.7361 16.3049 16.0118 17.0599 15.9867 17.8416M23.9207 23.625C23.7132 23.1132 23.1301 22.8664 22.6183 23.0739C22.1065 23.2814 21.8597 23.8645 22.0672 24.3763C22.1646 24.6166 22.642 25.6951 23.1232 26.7716C23.3609 27.3036 23.5957 27.8264 23.7784 28.2309C23.8698 28.4333 23.9478 28.6052 24.0065 28.7335C24.0358 28.7978 24.0599 28.85 24.078 28.8891C24.0969 28.9296 24.105 28.9464 24.1059 28.9484C24.1767 29.0895 24.2667 29.1914 24.3543 29.2663C24.5916 29.4691 24.7206 29.771 24.7031 30.0827C24.6856 30.3944 24.5235 30.6799 24.2649 30.8548C24.22 30.8852 24.1749 30.9156 24.1294 30.9459C23.3912 31.439 22.6345 31.8953 21.9831 32.2657C21.743 32.4023 21.4571 32.4334 21.1932 32.3517C20.9294 32.2701 20.711 32.083 20.59 31.8347C20.3988 31.4426 20.1912 31.0176 19.9828 30.5935C19.6139 29.8429 19.2383 29.0869 18.9415 28.5115C18.794 28.2254 18.6609 27.9743 18.5556 27.7881C18.5043 27.6973 18.4512 27.6068 18.4013 27.531C18.3779 27.4955 18.3427 27.4438 18.2998 27.3913C18.279 27.3658 18.2433 27.324 18.1952 27.2789C18.1647 27.2502 18.0529 27.1455 17.8767 27.0738C17.6864 26.9964 17.5197 26.9958 17.4567 26.9969C17.3747 26.9983 17.3055 27.0085 17.2608 27.0164C17.1697 27.0325 17.0845 27.0568 17.021 27.0766C16.8879 27.118 16.7341 27.1764 16.5813 27.238C16.2699 27.3637 15.8785 27.5373 15.4893 27.714C15.1471 27.8694 14.8277 28.0171 14.5497 28.1456L14.5054 28.1661C14.1296 28.3398 13.801 28.4917 13.6294 28.5603C13.1166 28.7653 12.867 29.3472 13.072 29.86C13.2769 30.3729 13.8588 30.6225 14.3717 30.4175C14.5811 30.3338 15.0539 30.116 15.5858 29.8705C15.784 29.779 15.9867 29.6855 16.1759 29.599C16.665 29.3755 17.2432 29.5788 17.4849 30.0592C17.7035 30.4938 17.9455 30.9826 18.1878 31.4757C18.4847 32.0797 18.7789 32.6836 19.0278 33.1946L19.029 33.1971L19.1978 33.5435C19.3367 33.8284 19.4551 34.0707 19.5415 34.2456C19.5845 34.3326 19.6211 34.4062 19.6492 34.4612M23.9207 23.625C24.0106 23.8468 24.4787 24.903 24.9491 25.9556ZM29.0077 27.5017C28.8128 27.0455 28.313 26.8011 27.8333 26.9275L27.8003 26.9361L27.7099 26.9596L27.7088 26.9599C27.6284 26.9807 27.513 27.0103 27.3741 27.0453C27.1131 27.111 26.7719 27.1952 26.425 27.2754C25.9595 27.3831 25.4828 27.1465 25.2872 26.7105C25.1794 26.4703 25.0647 26.2141 24.9491 25.9556M29.0077 27.5017C29.2668 28.1085 29.1297 28.7076 28.9158 29.1604ZM28.9158 29.1604C28.7043 29.6082 28.3673 30.0298 28.0042 30.4068ZM28.0042 30.4068C27.2719 31.1673 26.2448 31.938 25.2404 32.609ZM25.2404 32.609C24.2249 33.2873 23.184 33.8956 22.3906 34.328ZM22.3906 34.328C21.9942 34.544 21.6522 34.7202 21.4003 34.8413ZM21.4003 34.8413L21.8337 35.7425ZM19.6492 34.4612C19.6629 34.4881 19.6768 34.515 19.6894 34.5385C19.6953 34.5495 19.7041 34.5658 19.7137 34.5826L19.717 34.5882L19.7176 34.5893L19.7204 34.5942C19.7217 34.5964 19.7234 34.5992 19.7254 34.6025C19.7278 34.6066 19.7308 34.6114 19.7342 34.6169C19.7473 34.6378 19.7641 34.6633 19.7821 34.6876C19.991 34.9703 20.2712 35.0508 20.3905 35.075C20.5201 35.1014 20.6255 35.096 20.6728 35.0923C20.7749 35.0845 20.8556 35.0626 20.8841 35.0547C20.9576 35.0344 21.0249 35.0083 21.0666 34.9915C21.1617 34.9533 21.2772 34.9005 21.4003 34.8413L21.8337 35.7425" fill="currentColor"/>
</svg>
