<svg width="48" height="49" viewBox="0 0 48 49" fill="none" xmlns="http://www.w3.org/2000/svg">
<path fill-rule="evenodd" clip-rule="evenodd" d="M18.9999 10C18.9999 12.2091 17.209 14 14.9999 14C12.7907 14 10.9999 12.2091 10.9999 10C10.9999 7.79086 12.7907 6 14.9999 6C17.209 6 18.9999 7.79086 18.9999 10ZM16.9999 10C16.9999 11.1046 16.1044 12 14.9999 12C13.8953 12 12.9999 11.1046 12.9999 10C12.9999 8.89543 13.8953 8 14.9999 8C16.1044 8 16.9999 8.89543 16.9999 10Z" fill="#333333"/>
<path fill-rule="evenodd" clip-rule="evenodd" d="M39 18.25C39 20.4591 37.2091 22.25 35 22.25H34V24.25H32V22.25H31C28.7909 22.25 27 20.4591 27 18.25H29C29 19.3546 29.8954 20.25 31 20.25H32V16.25H31C28.7909 16.25 27 14.4591 27 12.25C27 10.0409 28.7909 8.25 31 8.25H32V6.25H34V8.25H35C37.2091 8.25 39 10.0409 39 12.25H37C37 11.1454 36.1046 10.25 35 10.25H34V14.25H35C37.2091 14.25 39 16.0409 39 18.25ZM37 18.25C37 19.3546 36.1046 20.25 35 20.25H34V16.25H35C36.1046 16.25 37 17.1454 37 18.25ZM29 12.25C29 11.1454 29.8954 10.25 31 10.25H32V14.25H31C29.8954 14.25 29 13.3546 29 12.25Z" fill="#333333"/>
<path fill-rule="evenodd" clip-rule="evenodd" d="M26 32.4207C24.8348 32.8325 24 33.9438 24 35.25V42.25H26V39.25H40V42.25H42V35.25C42 33.9438 41.1652 32.8325 40 32.4207V26.25H38V27.25L28 27.25V26.25H26V32.4207ZM32 29.25L34 29.25V32.25H32V29.25ZM26 35.25C26 34.6977 26.4477 34.25 27 34.25H39C39.5523 34.25 40 34.6977 40 35.25V37.25H26V35.25ZM36 32.25V29.25H38V32.25H36ZM28 29.25H30V32.25H28V29.25Z" fill="#333333"/>
<path fill-rule="evenodd" clip-rule="evenodd" d="M16.4786 16C16.9089 16.0001 17.6595 16.0476 18.4461 16.4437C19.7769 17.1138 20.5364 18.211 20.9875 19.1803C21.4189 20.1073 21.6676 21.1337 21.8522 21.988C22.0275 22.799 22.0317 22.8196 22.1314 23.3322C22.2268 23.8223 22.4135 24.7816 22.9412 27.4094C23.2673 29.0338 22.2149 30.6151 20.5905 30.9413C20.3303 30.9935 20.0713 31.0104 19.8184 30.9952L20.3576 34.0956C20.5069 34.9544 20.0737 35.8919 19.1476 36.2222C18.2402 36.5458 16.5954 37 14.4999 37C12.4043 37 10.7595 36.5458 9.85208 36.2222C8.92601 35.8919 8.49279 34.9544 8.64213 34.0956L9.18131 30.9954C8.9286 31.0105 8.66975 30.9937 8.40974 30.9415C6.78531 30.6153 5.73287 29.034 6.05905 27.4096C6.58658 24.7823 6.77323 23.8232 6.86863 23.333C6.96838 22.8204 6.97266 22.7992 7.14796 21.9882C7.33264 21.1339 7.58133 20.1075 8.01272 19.1805C8.46383 18.2111 9.22331 17.1139 10.554 16.4439C11.3407 16.0478 12.0911 16.0003 12.5209 16.0002L16.0089 16.0001L16.016 16.0002L16.4786 16ZM16.4783 18L15.9983 18.0002L15.9908 18.0001L12.5216 18.0002C12.2369 18.0003 11.8428 18.0342 11.4535 18.2302C10.6605 18.6295 10.1632 19.2997 9.82598 20.0243C9.49576 20.7339 9.28421 21.5716 9.10281 22.4108C8.93046 23.2081 8.92808 23.2203 8.83422 23.7026L8.83192 23.7144C8.73573 24.2087 8.54838 25.1714 8.01991 27.8033C7.91118 28.3448 8.26199 28.8719 8.80347 28.9806C9.05455 29.031 9.30304 28.983 9.50865 28.8615L10.6949 22.3372L12.6626 22.695L12.0364 26.1395L12.0605 26.1129L10.6238 34.3734C11.397 34.6394 12.7665 35 14.4999 35C16.2332 35 17.6028 34.6394 18.3759 34.3734L16.9386 26.109L16.9627 26.1356L16.3371 22.695L18.3048 22.3372L19.491 28.861C19.6967 28.9828 19.9454 29.0309 20.1967 28.9804C20.7382 28.8717 21.089 28.3446 20.9803 27.8031C20.4518 25.1713 20.2645 24.2085 20.1683 23.7142L20.166 23.7025C20.0721 23.2201 20.0697 23.2079 19.8974 22.4106C19.716 21.5715 19.5044 20.7338 19.1742 20.0242C18.837 19.2996 18.3397 18.6293 17.5467 18.23C17.1574 18.034 16.7631 18.0001 16.4783 18Z" fill="#333333"/>
<path d="M11.2853 41.9131C10.5474 41.8064 9.99986 41.1741 9.99986 40.4285V38C11.3055 38.1798 12.5072 38.2909 13.682 38.3349L12.9385 40.8533C12.7274 41.5683 12.0232 42.0197 11.2853 41.9131Z" fill="#333333"/>
<path d="M16.0706 40.8836L15.2651 38.3537C16.4729 38.3369 17.6893 38.2491 18.9999 38.0921V40.4285C18.9999 41.168 18.4609 41.7972 17.7301 41.9107C16.9994 42.0243 16.2949 41.5882 16.0706 40.8836Z" fill="#333333"/>
</svg>
