<svg width="48" height="48" viewBox="0 0 48 48" fill="none" xmlns="http://www.w3.org/2000/svg">
<path fill-rule="evenodd" clip-rule="evenodd" d="M12 9C10.7577 9 9.74997 10.0076 9.74997 11.2514C9.74997 12.4952 10.7577 13.5028 12 13.5028C13.2422 13.5028 14.25 12.4952 14.25 11.2514C14.25 10.0076 13.2422 9 12 9ZM7.74997 11.2514C7.74997 8.90383 9.65235 7 12 7C14.3476 7 16.25 8.90383 16.25 11.2514C16.25 12.873 15.3423 14.2828 14.0072 14.9997H15.786C17.1666 14.9997 18.4299 15.7763 19.0531 17.0082L22.2308 23.2891C22.8541 24.5211 22.3607 26.0251 21.1287 26.6484C19.8966 27.2717 18.3926 26.7783 17.7693 25.5463L16.9976 24.0209V24.1003L19.7382 30.4575C20.3534 31.8843 19.3071 33.4746 17.7534 33.4746H16.9976V38.6142C16.9976 39.9137 15.9684 41.0384 14.6265 41.0384C13.2847 41.0384 12.2555 39.9137 12.2555 38.6142V33.4746H11.7421V38.6142C11.7421 39.9137 10.7129 41.0384 9.37105 41.0384C8.02923 41.0384 7.00001 39.9137 7.00001 38.6142V33.4746H6.52428C5.00409 33.4746 3.95888 31.9469 4.50972 30.53L7.00001 24.1245V24.0259L6.2308 25.5463C5.60749 26.7783 4.10346 27.2717 2.87145 26.6484C1.63944 26.0251 1.14599 24.5211 1.7693 23.2891L4.94696 17.0082C5.57022 15.7763 6.83346 14.9997 8.21407 14.9997H9.9927C8.65762 14.2828 7.74997 12.873 7.74997 11.2514ZM8.92279 24.6982L6.3738 31.2547C6.33266 31.3605 6.41073 31.4746 6.52428 31.4746H8.00001C8.55229 31.4746 9.00001 31.9223 9.00001 32.4746V38.6142C9.00001 38.8814 9.20472 39.0384 9.37105 39.0384C9.53737 39.0384 9.74208 38.8814 9.74208 38.6142V32.4746C9.74208 31.9223 10.1898 31.4746 10.7421 31.4746H13.2555C13.8078 31.4746 14.2555 31.9223 14.2555 32.4746V38.6142C14.2555 38.8814 14.4602 39.0384 14.6265 39.0384C14.7929 39.0384 14.9976 38.8814 14.9976 38.6142V32.4746C14.9976 31.9223 15.4453 31.4746 15.9976 31.4746H17.7534C17.8695 31.4746 17.9476 31.3558 17.9017 31.2493L15.1086 24.7707C15.0377 24.6334 14.9976 24.4775 14.9976 24.3122V19.8292C14.9976 19.3663 15.3153 18.9639 15.7655 18.8565C16.2158 18.7491 16.6809 18.9647 16.8899 19.3778L19.5539 24.6434C19.6786 24.8898 19.9794 24.9885 20.2258 24.8638C20.4722 24.7392 20.5709 24.4384 20.4462 24.192L17.2685 17.9111C16.9857 17.3521 16.4125 16.9997 15.786 16.9997H8.21407C7.58759 16.9997 7.01438 17.3521 6.73156 17.9111L3.5539 24.192C3.42924 24.4384 3.52793 24.7392 3.77433 24.8638C4.02073 24.9885 4.32154 24.8898 4.4462 24.6434L7.10771 19.3828C7.31668 18.9697 7.78181 18.7541 8.23206 18.8615C8.68232 18.9689 9.00001 19.3713 9.00001 19.8342V24.3122C9.00001 24.4491 8.97253 24.5795 8.92279 24.6982ZM35.9999 9C34.7576 9 33.7499 10.0076 33.7499 11.2514C33.7499 12.4952 34.7576 13.5028 35.9999 13.5028C37.2421 13.5028 38.2499 12.4952 38.2499 11.2514C38.2499 10.0076 37.2421 9 35.9999 9ZM31.7499 11.2514C31.7499 8.90383 33.6523 7 35.9999 7C38.3475 7 40.2499 8.90383 40.2499 11.2514C40.2499 12.8732 39.342 14.2832 38.0066 15H39.9547C41.2963 15 42.5099 15.796 43.0444 17.0264L46.2928 24.5039C46.843 25.7702 46.2624 27.2428 44.996 27.793C43.7296 28.3431 42.257 27.7625 41.7069 26.4961L40.9998 24.8686V38.6808C40.9998 39.9767 39.9288 41.0002 38.655 41.0002C37.3812 41.0002 36.3102 39.9767 36.3102 38.6808V30.6806H35.7659V38.6808C35.7659 39.9767 34.6949 41.0002 33.4211 41.0002C32.1473 41.0002 31.0763 39.9767 31.0763 38.6808V24.6147L30.3079 26.4607C29.7774 27.7354 28.3139 28.3386 27.0392 27.8081C25.7645 27.2775 25.1613 25.8141 25.6918 24.5393L28.7989 17.0742C29.3217 15.8183 30.5486 15 31.909 15H33.9931C32.6578 14.2832 31.7499 12.8732 31.7499 11.2514ZM31.909 17C31.3563 17 30.8578 17.3325 30.6454 17.8427L27.5383 25.3079C27.4322 25.5628 27.5528 25.8555 27.8077 25.9616C28.0627 26.0677 28.3554 25.9471 28.4615 25.6921L31.153 19.2254C31.3362 18.7853 31.8047 18.5357 32.2722 18.6291C32.7397 18.7225 33.0763 19.133 33.0763 19.6097V38.6808C33.0763 38.8362 33.2156 39.0002 33.4211 39.0002C33.6266 39.0002 33.7659 38.8362 33.7659 38.6808V29.6806C33.7659 29.1283 34.2137 28.6806 34.7659 28.6806H37.3102C37.8625 28.6806 38.3102 29.1283 38.3102 29.6806V38.6808C38.3102 38.8362 38.4495 39.0002 38.655 39.0002C38.8605 39.0002 38.9998 38.8362 38.9998 38.6808V20.057C38.9998 19.5831 39.3324 19.1743 39.7964 19.0779C40.2603 18.9815 40.7282 19.2239 40.917 19.6585L43.5413 25.6992C43.6513 25.9525 43.9458 26.0686 44.1991 25.9586C44.4524 25.8486 44.5685 25.5541 44.4585 25.3008L41.2101 17.8233C40.9929 17.3234 40.4998 17 39.9547 17H31.909Z" fill="#333333"/>
</svg>
