<svg width="48" height="48" viewBox="0 0 48 48" fill="none" xmlns="http://www.w3.org/2000/svg">
<path fill-rule="evenodd" clip-rule="evenodd" d="M6 39.5C6 38.1193 7.11929 37 8.5 37H39.5C40.8807 37 42 38.1193 42 39.5C42 40.8807 40.8807 42 39.5 42H8.5C7.11929 42 6 40.8807 6 39.5ZM8.5 39C8.22386 39 8 39.2239 8 39.5C8 39.7761 8.22386 40 8.5 40H39.5C39.7761 40 40 39.7761 40 39.5C40 39.2239 39.7761 39 39.5 39H8.5Z" fill="#333333"/>
<path fill-rule="evenodd" clip-rule="evenodd" d="M15 37L15 21H17L17 37H15Z" fill="#333333"/>
<path fill-rule="evenodd" clip-rule="evenodd" d="M19.0984 14.2053L19.4573 12.5726C19.5175 12.2991 19.5498 12.012 19.5498 11.7143C19.5498 9.57424 17.9164 8 16.0952 8C14.274 8 12.6407 9.57424 12.6407 11.7143C12.6407 12.012 12.673 12.2991 12.7331 12.5726L13.092 14.2053L11.549 14.8482C10.6293 15.2314 9.91338 16.2117 9.91338 17.4285C9.91338 17.7238 9.9556 18.0043 10.0321 18.2655L10.4894 19.826L9.05492 20.5921C8.47954 20.8993 8.09521 21.5016 8.09521 22.1905C8.09521 23.1898 8.90537 24 9.90474 24H22.2857C23.2851 24 24.0952 23.1898 24.0952 22.1905C24.0952 21.5016 23.7109 20.8993 23.1355 20.5921L21.701 19.826L22.1583 18.2655C22.2348 18.0044 22.277 17.7238 22.277 17.4285C22.277 16.2117 21.5611 15.2314 20.6414 14.8482L19.0984 14.2053ZM24.0776 18.8279C25.2782 19.469 26.0952 20.7343 26.0952 22.1905C26.0952 24.2944 24.3896 26 22.2857 26H9.90474C7.8008 26 6.09521 24.2944 6.09521 22.1905C6.09521 20.7343 6.91221 19.469 8.11281 18.8279C7.98316 18.3854 7.91338 17.9155 7.91338 17.4285C7.91338 15.4199 9.10046 13.7018 10.7797 13.0021C10.6887 12.5882 10.6407 12.1571 10.6407 11.7143C10.6407 8.55837 13.0827 6 16.0952 6C19.1077 6 21.5498 8.55837 21.5498 11.7143C21.5498 12.1571 21.5017 12.5882 21.4107 13.0021C23.09 13.7018 24.277 15.4199 24.277 17.4285C24.277 17.9155 24.2072 18.3854 24.0776 18.8279Z" fill="#333333"/>
<path fill-rule="evenodd" clip-rule="evenodd" d="M33.6018 22.003C33.5554 22.0071 33.5352 22.014 33.5354 22.014C31.2944 22.8128 29.928 24.4839 28.9451 27.3268C28.7646 27.8487 28.1952 28.1256 27.6732 27.9451C27.1513 27.7646 26.8744 27.1952 27.0549 26.6732C28.1581 23.4825 29.8585 21.2012 32.8643 20.1299C33.5609 19.8819 34.3847 20.0266 34.9905 20.2506C35.591 20.4728 36.3384 20.9066 36.6928 21.6091C36.8968 22.0133 37.0746 22.3744 37.2369 22.7041C37.4534 23.1438 37.6425 23.5276 37.8293 23.8835C38.1492 24.493 38.4039 24.9021 38.6622 25.1949C38.9026 25.4675 39.1496 25.6427 39.4754 25.7647C39.8224 25.8947 40.3017 25.9803 41.0277 26.0004C41.5797 26.0157 42.0149 26.4756 41.9996 27.0277C41.9843 27.5797 41.5244 28.0149 40.9723 27.9996C40.1337 27.9764 39.4093 27.8757 38.7737 27.6376C38.1168 27.3915 37.6021 27.0165 37.1623 26.5179C36.7402 26.0394 36.396 25.4561 36.0584 24.813C35.8647 24.444 35.6532 24.015 35.4231 23.5482C35.2606 23.2184 35.0887 22.8697 34.9072 22.5099C34.9073 22.5101 34.9072 22.51 34.9072 22.5099C34.9045 22.5056 34.8686 22.4485 34.7521 22.3632C34.6359 22.2781 34.4782 22.1936 34.2966 22.1264C34.1155 22.0594 33.9355 22.0189 33.7831 22.0052C33.7079 21.9985 33.6472 21.999 33.6018 22.003Z" fill="#333333"/>
<path fill-rule="evenodd" clip-rule="evenodd" d="M32.5905 20.5041C33.1406 20.5541 33.5459 21.0405 33.4959 21.5905L33.04 26.6058L38.0702 31.3435C38.1738 31.441 38.2554 31.5595 38.3095 31.6911L39.9249 35.6197C40.1349 36.1305 39.8911 36.7148 39.3803 36.9249C38.8695 37.1349 38.2852 36.8911 38.0751 36.3803L36.5418 32.6514L31.3144 27.728C31.0907 27.5173 30.9763 27.2155 31.0041 26.9095L31.5041 21.4095C31.5541 20.8594 32.0405 20.4541 32.5905 20.5041Z" fill="#333333"/>
<path fill-rule="evenodd" clip-rule="evenodd" d="M34.9689 22.7473C35.1055 22.2122 34.7824 21.6677 34.2472 21.5311C33.7121 21.3945 33.1676 21.7176 33.031 22.2527L31.6872 27.5175C31.8689 27.552 32.0432 27.6372 32.1875 27.7738L33.3942 28.9163L34.9689 22.7473ZM32.819 31.1259L31.1657 29.5606L30.9649 30.3471L30.1354 33.0957L27.3902 35.2074C26.9525 35.5441 26.8706 36.172 27.2073 36.6097C27.544 37.0475 28.1719 37.1294 28.6096 36.7926L31.6096 34.4849C31.7753 34.3575 31.8969 34.1813 31.9573 33.9812L32.819 31.1259Z" fill="#333333"/>
<path d="M38 16.5C38 17.8807 36.8807 19 35.5 19C34.1193 19 33 17.8807 33 16.5C33 15.1193 34.1193 14 35.5 14C36.8807 14 38 15.1193 38 16.5Z" fill="#333333"/>
<path d="M36.5 24L34.9394 30L31.2273 27.0588L31.5303 22.1765L34.9394 22L36.5 24Z" fill="#333333"/>
</svg>
