<svg width="48" height="48" viewBox="0 0 48 48" fill="none" xmlns="http://www.w3.org/2000/svg">
<path fill-rule="evenodd" clip-rule="evenodd" d="M19.764 25.2853C21.109 23.4919 22 20.9228 22 18C22 15.0772 21.109 12.5081 19.764 10.7147C18.4194 8.922 16.7146 8 15 8C13.2854 8 11.5806 8.922 10.236 10.7147C8.89104 12.5081 8 15.0772 8 18C8 20.9228 8.89104 23.4919 10.236 25.2853C11.5806 27.078 13.2854 28 15 28C16.7146 28 18.4194 27.078 19.764 25.2853ZM15 30C19.9706 30 24 24.6274 24 18C24 11.3726 19.9706 6 15 6C10.0294 6 6 11.3726 6 18C6 24.6274 10.0294 30 15 30Z" fill="#333333"/>
<path fill-rule="evenodd" clip-rule="evenodd" d="M35.4495 20.1033L35.8349 18.4304C35.8831 18.221 35.909 18.0012 35.909 17.7729C35.909 16.1662 34.6066 14.8638 33 14.8638C31.3933 14.8638 30.0909 16.1662 30.0909 17.7729C30.0909 18.0012 30.1168 18.221 30.165 18.4304L30.5504 20.1033L28.9553 20.7378C28.1792 21.0464 27.6364 21.8033 27.6364 22.6821C27.6364 22.8923 27.6668 23.0919 27.7222 23.2785L28.1979 24.8826L26.703 25.6341C26.2819 25.8458 26 26.2783 26 26.773C26 27.4759 26.5698 28.0457 27.2727 28.0457H38.7273C39.4302 28.0457 40 27.4759 40 26.773C40 26.2783 39.7181 25.8458 39.297 25.6341L37.8022 24.8826L38.2779 23.2786C38.3333 23.0919 38.3637 22.8923 38.3637 22.6821C38.3637 21.8032 37.8208 21.0464 37.0447 20.7377L35.4495 20.1033ZM40.1953 23.8472C41.2656 24.3853 42 25.4934 42 26.773C42 28.5805 40.5347 30.0457 38.7273 30.0457H27.2727C25.4653 30.0457 24 28.5805 24 26.773C24 25.4934 24.7344 24.3853 25.8047 23.8472C25.6952 23.4779 25.6364 23.0869 25.6364 22.6821C25.6364 20.9565 26.7048 19.4805 28.2161 18.8794C28.1342 18.5237 28.0909 18.1534 28.0909 17.7729C28.0909 15.0616 30.2887 12.8638 33 12.8638C35.7112 12.8638 37.909 15.0616 37.909 17.7729C37.909 18.1533 37.8658 18.5237 37.7839 18.8793C39.2953 19.4804 40.3637 20.9565 40.3637 22.6821C40.3637 23.0869 40.3049 23.478 40.1953 23.8472Z" fill="#333333"/>
<path fill-rule="evenodd" clip-rule="evenodd" d="M14 37L14 24.5L16 24.5L16 37L14 37Z" fill="#333333"/>
<path fill-rule="evenodd" clip-rule="evenodd" d="M14 37L14 24.5L16 24.5L16 37L14 37Z" fill="#333333"/>
<path fill-rule="evenodd" clip-rule="evenodd" d="M32 37L32 25.5L34 25.5L34 37L32 37Z" fill="#333333"/>
<path fill-rule="evenodd" clip-rule="evenodd" d="M6 39.5C6 38.1193 7.11929 37 8.5 37H39.5C40.8807 37 42 38.1193 42 39.5C42 40.8807 40.8807 42 39.5 42H8.5C7.11929 42 6 40.8807 6 39.5ZM8.5 39C8.22386 39 8 39.2239 8 39.5C8 39.7761 8.22386 40 8.5 40H39.5C39.7761 40 40 39.7761 40 39.5C40 39.2239 39.7761 39 39.5 39H8.5Z" fill="#333333"/>
</svg>
