<svg width="48" height="48" viewBox="0 0 48 48" fill="none" xmlns="http://www.w3.org/2000/svg">
<path fill-rule="evenodd" clip-rule="evenodd" d="M6 39.5C6 38.1193 7.11929 37 8.5 37H39.5C40.8807 37 42 38.1193 42 39.5C42 40.8807 40.8807 42 39.5 42H8.5C7.11929 42 6 40.8807 6 39.5ZM8.5 39C8.22386 39 8 39.2239 8 39.5C8 39.7761 8.22386 40 8.5 40H39.5C39.7761 40 40 39.7761 40 39.5C40 39.2239 39.7761 39 39.5 39H8.5Z" fill="#333333"/>
<path fill-rule="evenodd" clip-rule="evenodd" d="M18.5127 14.5762L18.898 12.9033C18.9645 12.6149 19 12.3129 19 12C19 9.79086 17.2091 8 15 8C12.7909 8 11 9.79086 11 12C11 12.3129 11.0355 12.6149 11.102 12.9033L11.4873 14.5762L9.89215 15.2106C8.78026 15.6529 8 16.7377 8 18C8 18.3002 8.04348 18.5867 8.12316 18.8554L8.59888 20.4594L7.10406 21.2109C6.4451 21.5422 6 22.2209 6 23C6 24.1046 6.89543 25 8 25H22C23.1046 25 24 24.1046 24 23C24 22.2209 23.5549 21.5422 22.8959 21.2109L21.4011 20.4594L21.8768 18.8554C21.9565 18.5867 22 18.3002 22 18C22 16.7377 21.2197 15.6529 20.1078 15.2106L18.5127 14.5762ZM23.7943 19.424C25.1024 20.0817 26 21.436 26 23C26 25.2091 24.2091 27 22 27H8C5.79086 27 4 25.2091 4 23C4 21.436 4.89758 20.0817 6.20571 19.424C6.07186 18.9727 6 18.4948 6 18C6 15.891 7.30578 14.0869 9.15299 13.3522C9.05289 12.9176 9 12.465 9 12C9 8.68629 11.6863 6 15 6C18.3137 6 21 8.68629 21 12C21 12.465 20.9471 12.9176 20.847 13.3522C22.6942 14.0869 24 15.891 24 18C24 18.4948 23.9281 18.9727 23.7943 19.424Z" fill="#333333"/>
<path fill-rule="evenodd" clip-rule="evenodd" d="M14 37L14 21L16 21L16 37L14 37Z" fill="#333333"/>
<path d="M29.4336 23.2187L33.047 20.6976C33.4793 20.3905 34.0052 20.2327 34.5407 20.2497C35.1938 20.2655 35.8256 20.4784 36.3483 20.8589C36.871 21.2395 37.2585 21.7686 37.4571 22.3728C37.6806 23.053 37.8849 23.5126 38.07 23.7517C38.6291 24.476 39.3545 25.0637 40.1884 25.4683C41.0224 25.8729 41.3734 26.0826 42.8743 26.0826C44.3752 26.0826 44.3752 28.4158 42.8743 28.4158C41.3734 28.4158 40.4075 28.1513 39.285 27.6375C38.1625 27.1237 37.1714 26.3747 36.3828 25.4445L35.5453 30.0583L38.0219 32.0765L40.5 38.5H38L35.9827 33.4624L31.909 30.1435C31.5747 29.8814 31.3188 29.5371 31.1681 29.1465C31.0175 28.7558 30.9774 28.3331 31.0522 27.9223L31.6638 24.5567L30.8503 25.1307C30.8503 25.1307 29.323 27.2291 28.2943 28.5464C27.2656 29.8638 25.1707 28.6695 26.35 27.1745C27.5293 25.6795 28.9951 23.6207 28.9951 23.6207L29.4336 23.2187ZM36.2651 19.6664C35.6276 19.6664 35.0163 19.4205 34.5656 18.983C34.1149 18.5454 33.8617 17.952 33.8617 17.3332C33.8617 16.7144 34.1149 16.1209 34.5656 15.6834C35.0163 15.2458 35.6276 15 36.2651 15C36.9025 15 37.5138 15.2458 37.9645 15.6834C38.4152 16.1209 38.6684 16.7144 38.6684 17.3332C38.6684 17.952 38.4152 18.5454 37.9645 18.983C37.5138 19.4205 36.9025 19.6664 36.2651 19.6664ZM32.6937 35.0432L29 39L26.35 38.9151L30.5667 33.8754L31.4631 31.3322L33.6154 33.0821L32.6937 35.0432Z" fill="#333333"/>
</svg>
