<svg width="48" height="48" viewBox="0 0 48 48" fill="none" xmlns="http://www.w3.org/2000/svg">
<path fill-rule="evenodd" clip-rule="evenodd" d="M39 8H9C8.44771 8 8 8.44772 8 9V39C8 39.5523 8.44772 40 9 40H39C39.5523 40 40 39.5523 40 39V9C40 8.44771 39.5523 8 39 8ZM9 6C7.34315 6 6 7.34315 6 9V39C6 40.6569 7.34315 42 9 42H39C40.6569 42 42 40.6569 42 39V9C42 7.34315 40.6569 6 39 6H9Z" fill="#333333"/>
<path fill-rule="evenodd" clip-rule="evenodd" d="M26.1466 28.9963C26.1466 27.6159 27.2656 26.4968 28.6461 26.4968H28.731C30.1583 26.4968 31.3154 27.6539 31.3154 29.0812V37.0558C31.3154 37.6081 30.8677 38.0558 30.3154 38.0558C29.7631 38.0558 29.3154 37.6081 29.3154 37.0558V29.0812C29.3154 28.7585 29.0538 28.4968 28.731 28.4968H28.6461C28.3702 28.4968 28.1466 28.7204 28.1466 28.9963H26.1466Z" fill="#333333"/>
<path fill-rule="evenodd" clip-rule="evenodd" d="M20 27C21.1046 27 22 27.8954 22 29V36C22 37.1046 21.1046 38 20 38C18.8954 38 18 37.1046 18 36V29C18 27.8954 18.8954 27 20 27Z" fill="#333333"/>
<path d="M23.8667 18C22.4 19.8163 20 24.4143 20 29.5C20 29.5 18 26 18 25C18 23 19.7322 18 23.8667 18Z" fill="#333333"/>
<path fill-rule="evenodd" clip-rule="evenodd" d="M17.6932 19.68C18.8539 17.8471 20.8662 16 23.8667 16C24.7819 16 25.5803 16.6212 25.8053 17.5083L26.9605 22.0633L29.3838 22.5372C30.4678 22.7491 31.1748 23.7998 30.9628 24.8838C30.7509 25.9678 29.7002 26.6748 28.6162 26.4628L24.9495 25.7459C24.1904 25.5974 23.5849 25.0245 23.3947 24.2747L23.1794 23.4259C22.5113 25.1921 22 27.3021 22 29.5C22 30.4069 21.3898 31.2002 20.5133 31.433C19.6368 31.6658 18.7134 31.2797 18.2635 30.4923L20 29.5C18.2635 30.4923 18.2635 30.4923 18.2635 30.4923L18.2558 30.4788L18.237 30.4456C18.221 30.4173 18.198 30.3765 18.1691 30.3249C18.1112 30.2216 18.0295 30.0744 17.9317 29.8952C17.7369 29.5381 17.475 29.0472 17.2111 28.5194C16.9502 27.9976 16.6726 27.4104 16.4555 26.8678C16.3472 26.597 16.2429 26.3098 16.1629 26.0299C16.0916 25.7805 16 25.4045 16 25C16 23.5895 16.5583 21.4722 17.6932 19.68Z" fill="#333333"/>
<path d="M33 14.5C33 16.433 31.433 18 29.5 18C27.567 18 26 16.433 26 14.5C26 12.567 27.567 11 29.5 11C31.433 11 33 12.567 33 14.5Z" fill="#333333"/>
</svg>
