<svg width="48" height="49" viewBox="0 0 48 49" fill="none" xmlns="http://www.w3.org/2000/svg">
<path fill-rule="evenodd" clip-rule="evenodd" d="M32.7016 18.2801C34.2987 17.8391 35.9508 18.7764 36.3918 20.3735C36.8328 21.9706 35.8955 23.6227 34.2984 24.0637C32.8356 24.4676 31.4692 24.7984 30.1586 25.0527C30.7442 26.5368 31.5883 28.2109 32.1913 29.3474C32.8308 30.5529 32.1146 32.0901 30.7094 32.2894C25.5537 33.0204 21.9434 33 16.3758 32.2799C14.9361 32.0937 14.2035 30.5082 14.8783 29.2874C15.5302 28.1079 16.4207 26.3814 16.981 24.8505C15.9444 24.6312 14.8694 24.3709 13.7373 24.0733C12.1349 23.6521 11.1773 22.0116 11.5986 20.4092C12.0198 18.8068 13.6603 17.8492 15.2627 18.2705C18.8601 19.2161 21.4783 19.6609 24.0125 19.6717C26.537 19.6824 29.1428 19.2627 32.7016 18.2801ZM34.4639 20.9058C34.3169 20.3734 33.7662 20.061 33.2339 20.208C29.5741 21.2184 26.7755 21.6835 24.0041 21.6717C21.2293 21.6599 18.4266 21.1701 14.7542 20.2048C14.2201 20.0643 13.6733 20.3835 13.5329 20.9177C13.3925 21.4518 13.7116 21.9986 14.2458 22.139C15.7563 22.5361 17.143 22.86 18.459 23.1062L19.5218 23.305L19.2408 24.3491C18.7064 26.334 17.4297 28.8057 16.6287 30.2549C16.6261 30.2596 16.6252 30.2625 16.6248 30.2639C16.6244 30.2655 16.6242 30.2673 16.6241 30.2695C16.6241 30.2745 16.6254 30.2821 16.6292 30.2898C16.6307 30.2929 16.6322 30.2951 16.6333 30.2965C22.0416 30.996 25.4694 31.012 30.424 30.3098C30.4239 30.3101 30.4242 30.3096 30.424 30.3098C30.4266 30.3045 30.4279 30.2986 30.4279 30.2954C30.4279 30.2941 30.4278 30.293 30.4275 30.292C30.4273 30.2912 30.4267 30.2889 30.4245 30.2848C29.6708 28.8642 28.4556 26.4512 27.8646 24.5767L27.5169 23.4739L28.6584 23.2889C30.2367 23.0332 31.9067 22.6492 33.7662 22.1358C34.2985 21.9888 34.6109 21.4381 34.4639 20.9058Z" fill="#333333"/>
<path fill-rule="evenodd" clip-rule="evenodd" d="M24 15.5C25.1046 15.5 26 14.6046 26 13.5C26 12.3954 25.1046 11.5 24 11.5C22.8954 11.5 22 12.3954 22 13.5C22 14.6046 22.8954 15.5 24 15.5ZM24 17.5C26.2092 17.5 28 15.7091 28 13.5C28 11.2909 26.2092 9.5 24 9.5C21.7909 9.5 20 11.2909 20 13.5C20 15.7091 21.7909 17.5 24 17.5Z" fill="#333333"/>
<path fill-rule="evenodd" clip-rule="evenodd" d="M19 33.5138V37.0001C19 37.7523 19.5571 38.3882 20.3028 38.4871C21.0485 38.586 21.7521 38.1173 21.9482 37.391L22.8885 33.9077C21.646 33.8485 20.373 33.7177 19 33.5138ZM26.1097 33.901L27.0519 37.391C27.2479 38.1173 27.9515 38.586 28.6972 38.4871C29.4429 38.3882 30 37.7523 30 37.0001V33.5C28.6264 33.7027 27.3529 33.8369 26.1097 33.901Z" fill="#333333"/>
</svg>
