<svg width="48" height="48" viewBox="0 0 48 48" fill="none" xmlns="http://www.w3.org/2000/svg">
<rect width="48" height="48" fill="white"/>
<path fill-rule="evenodd" clip-rule="evenodd" d="M24 42C33.9411 42 42 33.9411 42 24C42 14.0589 33.9411 6 24 6C14.0589 6 6 14.0589 6 24C6 33.9411 14.0589 42 24 42ZM24 44C35.0457 44 44 35.0457 44 24C44 12.9543 35.0457 4 24 4C12.9543 4 4 12.9543 4 24C4 35.0457 12.9543 44 24 44Z" fill="#333333"/>
<path fill-rule="evenodd" clip-rule="evenodd" d="M15.1489 18C15.9444 17.9985 16.7168 18.2644 17.3438 18.7543C17.971 19.2443 18.4165 19.9302 18.6109 20.7024L18.6116 20.7053L19.895 25.8676C20.0252 26.3949 20.0345 26.9449 19.9219 27.4762C19.8094 28.0076 19.578 28.5066 19.2448 28.9352C18.9116 29.364 18.4853 29.7112 17.998 29.9501C17.5107 30.189 16.9755 30.3132 16.4329 30.313C16.4328 30.313 16.4331 30.313 16.4329 30.313H15.4252L13.8461 39.1754C13.7492 39.7191 13.2299 40.0814 12.6861 39.9845C12.1424 39.8876 11.7802 39.3683 11.8771 38.8246L13.6031 29.1376C13.6882 28.6605 14.103 28.313 14.5876 28.313H16.4329C16.6698 28.3131 16.9042 28.2589 17.1176 28.1543C17.331 28.0497 17.5186 27.8972 17.6656 27.708C17.8127 27.5187 17.9154 27.2978 17.9653 27.0618C18.0153 26.8261 18.0112 26.582 17.9535 26.3481C17.9535 26.3479 17.9536 26.3484 17.9535 26.3481L16.6714 21.1908C16.6713 21.1904 16.6712 21.1899 16.6711 21.1895C16.5847 20.8474 16.3876 20.5452 16.1124 20.3302C15.8371 20.1151 15.4991 19.9992 15.1521 20L15.1499 20H6C5.44772 20 5 19.5523 5 19C5 18.4477 5.44772 18 6 18H15.1489Z" fill="#333333"/>
<path fill-rule="evenodd" clip-rule="evenodd" d="M33.6664 24C33.0439 23.9989 32.4409 24.2094 31.9529 24.5949C31.4649 24.9804 31.1205 25.5182 30.9704 26.1209L30.9696 26.1238L30.0811 29.7379C29.9805 30.1494 29.9734 30.5787 30.0603 30.9934C30.1471 31.4081 30.326 31.7984 30.5843 32.1345C30.8427 32.4707 31.1741 32.744 31.5543 32.9325C31.9345 33.1209 32.3528 33.2192 32.7772 33.2191C32.7774 33.2191 32.7771 33.2191 32.7772 33.2191H33.2155L34.2649 39.1736C34.3607 39.7175 34.8793 40.0807 35.4232 39.9848C35.9671 39.889 36.3304 39.3703 36.2345 38.8264L35.0395 32.0456C34.9553 31.5676 34.54 31.2191 34.0547 31.2191H32.7772C32.6621 31.2192 32.5475 31.1926 32.4426 31.1406C32.3376 31.0885 32.2441 31.0121 32.17 30.9157C32.0959 30.8193 32.0434 30.7057 32.0178 30.5833C31.9922 30.4611 31.9943 30.3344 32.0238 30.2133C32.0238 30.2131 32.0237 30.2135 32.0238 30.2133L32.9111 26.6043C32.9112 26.6039 32.9113 26.6035 32.9114 26.6031C32.9558 26.4259 33.0561 26.2722 33.1928 26.1642C33.3294 26.0563 33.495 25.9996 33.6632 26L33.6654 26H42C42.5523 26 43 25.5523 43 25C43 24.4477 42.5523 24 42 24L33.6664 24Z" fill="#333333"/>
<path fill-rule="evenodd" clip-rule="evenodd" d="M29.9394 18C29.4295 18.0008 28.9338 17.8316 28.5308 17.5189C28.1569 17.2288 27.8828 16.8306 27.7448 16.3797L25.1346 10.8747C25.1062 10.8147 25.0838 10.7521 25.0678 10.6877C24.9837 10.3499 24.9778 9.99736 25.0504 9.65689C25.123 9.31643 25.2723 8.99701 25.4868 8.72289C25.7013 8.44876 25.9755 8.22714 26.2884 8.07479C26.6012 7.9225 26.9446 7.84341 27.2925 7.8435C27.2927 7.8435 27.2924 7.8435 27.2925 7.8435H27.4816L28.1343 5.70771C28.2958 5.17955 28.8548 4.88224 29.383 5.04367C29.9111 5.2051 30.2084 5.76412 30.047 6.29229L29.1779 9.13578C29.0494 9.55628 28.6613 9.8435 28.2216 9.8435H27.2925C27.2481 9.84348 27.2038 9.85358 27.1639 9.87301C27.124 9.89244 27.0891 9.92067 27.0618 9.95551C27.0345 9.99036 27.0156 10.0309 27.0064 10.0741C27.0017 10.0961 26.9996 10.1184 27.0001 10.1408L29.5877 15.5983C29.6155 15.6569 29.6375 15.718 29.6535 15.7809C29.6693 15.8435 29.7057 15.8991 29.7569 15.9388C29.8081 15.9786 29.8713 16.0001 29.9363 16L29.9385 16H41C41.5523 16 42 16.4477 42 17C42 17.5523 41.5523 18 41 18H29.9394Z" fill="#333333"/>
</svg>
