<svg width="48" height="48" viewBox="0 0 48 48" fill="none" xmlns="http://www.w3.org/2000/svg">
<path fill-rule="evenodd" clip-rule="evenodd" d="M11.0392 17.2183C10.5636 17.4951 10.165 17.7681 9.85086 18.0028C9.50867 18.2585 8.99263 18.04 9.01007 17.6132C9.02858 17.1604 9.07665 16.6045 9.18651 16.0217C9.36128 15.0946 9.6924 14.0994 10.3096 13.3428C9.8544 12.4661 9.60342 11.5062 9.60342 10.5C9.60342 6.35786 13.8567 3 19.1034 3C24.3501 3 28.6034 6.35786 28.6034 10.5C28.6034 14.6421 24.3501 18 19.1034 18C16.7994 18 14.6869 17.3525 13.0421 16.2753C12.2746 16.5569 11.6028 16.8903 11.0392 17.2183ZM12.5391 13.2965C12.631 13.4736 12.6089 13.6884 12.4828 13.843L11.8811 14.5805C12.0347 14.5179 12.1922 14.4568 12.3533 14.3977L13.061 14.1381C13.2094 14.0836 13.3749 14.1026 13.5071 14.1892L14.1378 14.6022C15.4399 15.4549 17.1677 16 19.1034 16C23.712 16 26.6034 13.1228 26.6034 10.5C26.6034 7.87724 23.712 5 19.1034 5C14.4948 5 11.6034 7.87724 11.6034 10.5C11.6034 11.1661 11.7681 11.8116 12.0846 12.4212L12.5391 13.2965Z" fill="#333333"/>
<path fill-rule="evenodd" clip-rule="evenodd" d="M32.1035 10C30.9514 10 29.959 10.2398 29.1469 10.6265C28.4356 10.9569 27.8357 11.4031 27.3976 11.9284C27.5324 11.4688 27.6035 10.9907 27.6035 10.5C27.6035 10.0866 27.553 9.68216 27.4565 9.29016C28.7342 8.48226 30.3484 8 32.1035 8C36.2456 8 39.6035 10.6863 39.6035 14C39.6035 14.8463 39.3844 15.6517 38.9892 16.3819C38.9011 16.5448 38.8999 16.7414 38.9808 16.908C39.0761 17.1042 39.1556 17.309 39.2218 17.5163C39.4023 18.0816 39.4842 18.6659 39.5189 19.147C39.5497 19.5731 39.0336 19.7965 38.6835 19.5518C38.3633 19.3279 37.9573 19.0749 37.4749 18.8352C37.3808 18.7885 37.2838 18.7423 37.184 18.6968C37.0304 18.627 36.8526 18.6463 36.7095 18.7356C35.4383 19.528 33.8398 20 32.1035 20C28.5336 20 25.5462 18.0046 24.7889 15.332C25.5421 14.8134 26.1735 14.1933 26.646 13.4999C26.6179 13.6637 26.6035 13.8306 26.6035 14C26.6035 15.4176 27.6175 16.663 29.1468 17.3735C29.9589 17.7602 30.9514 18 32.1035 18C35.131 18 37.5872 16.221 37.6034 14.0219C37.6034 14.0146 37.6035 14.0073 37.6035 14C37.6035 13.9971 37.6035 13.9943 37.6035 13.9914C37.5994 12.5774 36.5864 11.3356 35.0603 10.6266C34.2482 10.2398 33.2556 10 32.1035 10Z" fill="#333333"/>
<path fill-rule="evenodd" clip-rule="evenodd" d="M13 31C14.6579 31 16 29.6579 16 28C16 26.3421 14.6579 25 13 25C11.3421 25 10 26.3421 10 28C10 29.6579 11.3421 31 13 31ZM13 33C15.7625 33 18 30.7625 18 28C18 25.2375 15.7625 23 13 23C10.2375 23 8 25.2375 8 28C8 30.7625 10.2375 33 13 33Z" fill="#333333"/>
<path fill-rule="evenodd" clip-rule="evenodd" d="M5.62151 38.7886C5.13552 39.2779 5 39.6725 5 40V41H23V40C23 39.6725 22.8645 39.2779 22.3785 38.7886C21.8742 38.2809 21.089 37.7792 20.0758 37.3364C18.0387 36.4461 15.5615 36 14 36C12.4385 36 9.96135 36.4461 7.92418 37.3364C6.91097 37.7792 6.12576 38.2809 5.62151 38.7886ZM14 34C10.3288 34 3 36.01 3 40V43H25V40C25 36.01 17.6713 34 14 34Z" fill="#333333"/>
<path fill-rule="evenodd" clip-rule="evenodd" d="M35 31C36.6579 31 38 29.6579 38 28C38 26.3421 36.6579 25 35 25C33.3421 25 32 26.3421 32 28C32 29.6579 33.3421 31 35 31ZM35 33C37.7625 33 40 30.7625 40 28C40 25.2375 37.7625 23 35 23C32.2375 23 30 25.2375 30 28C30 30.7625 32.2375 33 35 33Z" fill="#333333"/>
<path fill-rule="evenodd" clip-rule="evenodd" d="M24 29C25.1054 29 26 28.1054 26 27C26 25.8946 25.1054 25 24 25C22.8946 25 22 25.8946 22 27C22 28.1054 22.8946 29 24 29ZM24 31C26.21 31 28 29.21 28 27C28 24.79 26.21 23 24 23C21.79 23 20 24.79 20 27C20 29.21 21.79 31 24 31Z" fill="#333333"/>
<path fill-rule="evenodd" clip-rule="evenodd" d="M25.6215 38.7886C25.1355 39.2779 25 39.6725 25 40V41H43V40C43 39.6725 42.8645 39.2779 42.3785 38.7886C41.8742 38.2809 41.089 37.7792 40.0758 37.3364C38.0387 36.4461 35.5615 36 34 36C32.4385 36 29.9613 36.4461 27.9242 37.3364C26.911 37.7792 26.1258 38.2809 25.6215 38.7886ZM34 34C30.3288 34 23 36.01 23 40V43H45V40C45 36.01 37.6713 34 34 34Z" fill="#333333"/>
<path fill-rule="evenodd" clip-rule="evenodd" d="M24 34C20.6907 34 18.3717 35.5425 17.7071 36.2071L16.2928 34.7929C17.2949 33.7909 20.1092 32 24 32C27.8907 32 30.705 33.7909 31.7071 34.7929L30.2928 36.2071C29.6282 35.5425 27.3092 34 24 34Z" fill="#333333"/>
</svg>
