<svg width="48" height="48" viewBox="0 0 48 48" fill="none" xmlns="http://www.w3.org/2000/svg">
<path fill-rule="evenodd" clip-rule="evenodd" d="M17.5547 19.5718C17.2188 19.3478 16.7812 19.3478 16.4453 19.5718L14.5547 20.8322C14.0952 21.1385 13.4743 21.0143 13.1679 20.5548C12.8616 20.0953 12.9858 19.4744 13.4453 19.1681L15.3359 17.9077C16.3436 17.2359 17.6564 17.2359 18.6641 17.9077L20.5547 19.1681C21.0142 19.4744 21.1384 20.0953 20.832 20.5548C20.5257 21.0143 19.9048 21.1385 19.4453 20.8322L17.5547 19.5718Z" fill="#333333"/>
<path fill-rule="evenodd" clip-rule="evenodd" d="M31.5547 19.5718C31.2188 19.3478 30.7812 19.3478 30.4453 19.5718L28.5547 20.8322C28.0952 21.1385 27.4743 21.0143 27.1679 20.5548C26.8616 20.0953 26.9858 19.4744 27.4453 19.1681L29.3359 17.9077C30.3436 17.2359 31.6564 17.2359 32.6641 17.9077L34.5547 19.1681C35.0142 19.4744 35.1384 20.0953 34.832 20.5548C34.5257 21.0143 33.9048 21.1385 33.4453 20.8322L31.5547 19.5718Z" fill="#333333"/>
<path fill-rule="evenodd" clip-rule="evenodd" d="M14.1464 27.4791C14.328 27.1815 14.6514 27 15 27H33C33.3486 27 33.672 27.1815 33.8536 27.4791C34.0352 27.7767 34.0487 28.1473 33.8893 28.4573C33.8763 28.4825 33.8632 28.5081 33.8499 28.534C32.6705 30.8287 30.0128 36 24 36C17.9872 36 15.3295 30.8287 14.1501 28.534C14.1368 28.5081 14.1237 28.4825 14.1107 28.4573C13.9513 28.1473 13.9648 27.7767 14.1464 27.4791ZM16.6742 29C18.0055 31.3031 20.1463 34 24 34C27.8537 34 29.9945 31.3031 31.3258 29H16.6742Z" fill="#333333"/>
<path fill-rule="evenodd" clip-rule="evenodd" d="M24 42C33.9411 42 42 33.9411 42 24C42 14.0589 33.9411 6 24 6C14.0589 6 6 14.0589 6 24C6 33.9411 14.0589 42 24 42ZM24 44C35.0457 44 44 35.0457 44 24C44 12.9543 35.0457 4 24 4C12.9543 4 4 12.9543 4 24C4 35.0457 12.9543 44 24 44Z" fill="#333333"/>
</svg>
