<svg width="48" height="48" viewBox="0 0 48 48" fill="none" xmlns="http://www.w3.org/2000/svg">
<path d="M27 37C27 38.6569 25.6569 40 24 40C22.3431 40 21 38.6569 21 37C21 35.3432 22.3431 34 24 34C25.6569 34 27 35.3432 27 37Z" fill="#333333"/>
<path fill-rule="evenodd" clip-rule="evenodd" d="M28.4081 10.4272C27.0325 10.6305 25.5823 10.9034 24 11.2401C22.4177 10.9035 20.9676 10.6305 19.5919 10.4273C20.8369 10.9161 22.1024 11.5041 23.4369 12.1486C23.7815 12.315 24 12.6645 24 13.0471C24 12.6645 24.2185 12.315 24.5631 12.1486C25.8976 11.5041 27.1631 10.9161 28.4081 10.4272ZM24 35.4011C24 35.9787 23.5269 36.4001 23 36.4083V36.6047C16.7313 35.5437 12.3024 35.4773 6 36.5827V13.0333C6.69172 12.8756 7.3564 12.7368 8 12.6162V10.5834C6.97407 10.7669 5.89999 10.9952 4.75659 11.2707C4.31119 11.378 4 11.7783 4 12.2364V37.7749C4 38.4077 4.58268 38.8804 5.20425 38.7618C12.2798 37.412 16.7293 37.4918 23.808 38.7772C23.8729 38.789 23.9374 38.7943 24.0007 38.7937C24.0636 38.7942 24.1276 38.7889 24.192 38.7772C31.2707 37.4918 35.7202 37.4119 42.7957 38.7618C43.4173 38.8804 44 38.4077 44 37.7749V12.2364C44 11.7783 43.6888 11.378 43.2434 11.2707C42.1 10.9952 41.0259 10.7669 40 10.5834V12.6162C40.6436 12.7367 41.3083 12.8756 42 13.0333V36.5827C35.6976 35.4773 31.2687 35.5437 25 36.6047V36.4083C24.4731 36.4001 24 35.9787 24 35.4011Z" fill="#333333"/>
<path fill-rule="evenodd" clip-rule="evenodd" d="M9 10.5065V33.0552C9 33.0555 9 33.055 9 33.0552C9.00104 33.0567 9.00329 33.0602 9.00746 33.0635C9.02183 33.075 9.04034 33.0801 9.06045 33.0764C14.4001 32.0966 18.4125 33.2958 22.9753 35.4054C22.9805 35.4078 22.9831 35.4083 22.9835 35.4083L22.985 35.4084C22.9868 35.4083 22.9915 35.4073 22.9968 35.4039C22.9982 35.4031 22.9992 35.4023 23 35.4016C23 35.4015 23 35.4018 23 35.4016L23 13.0481C18.0208 10.6436 14.2661 9.16738 9 10.5065ZM23 13.0481C23 13.048 23 13.048 23 13.0481V13.0481ZM8.47389 8.57671C14.4926 7.03563 18.8207 8.80875 23.8718 11.2481C24.5632 11.582 25 12.2822 25 13.0471V35.4011C25 36.8882 23.4525 37.8295 22.1359 37.2208C17.7555 35.1955 14.1869 34.1692 9.42139 35.0435C8.2104 35.2657 7 34.3654 7 33.0552V10.492C7 9.61248 7.58253 8.80494 8.47389 8.57671Z" fill="#333333"/>
<path fill-rule="evenodd" clip-rule="evenodd" d="M39 10.5065V33.0552C39 33.0555 39 33.055 39 33.0552C38.999 33.0567 38.9967 33.0602 38.9925 33.0635C38.9782 33.075 38.9597 33.0801 38.9396 33.0764C33.5999 32.0966 29.5875 33.2958 25.0247 35.4054C25.0195 35.4078 25.0169 35.4083 25.0165 35.4083L25.015 35.4084C25.0132 35.4083 25.0085 35.4073 25.0032 35.4039C25.0018 35.4031 25.0008 35.4018 25 35.4011C25 35.4009 25 35.4013 25 35.4011V13.0471C29.9792 10.6426 33.7339 9.16738 39 10.5065ZM25 13.0471C25 13.047 25 13.047 25 13.0471V13.0471ZM39.5261 8.57671C33.5074 7.03563 29.1793 8.80875 24.1282 11.2481C23.4368 11.582 23 12.2832 23 13.0481L23 35.4016C23 36.8887 24.5475 37.8295 25.8641 37.2208C30.2445 35.1955 33.8131 34.1692 38.5786 35.0435C39.7896 35.2657 41 34.3654 41 33.0552V10.492C41 9.61248 40.4175 8.80494 39.5261 8.57671Z" fill="#333333"/>
<path fill-rule="evenodd" clip-rule="evenodd" d="M32 14C32.5523 14 33 14.4477 33 15V23C33 23.5523 32.5523 24 32 24C31.4477 24 31 23.5523 31 23V15C31 14.4477 31.4477 14 32 14Z" fill="#333333"/>
<path fill-rule="evenodd" clip-rule="evenodd" d="M32.5604 19.3396C31.5296 19.6101 30.4492 20.0774 28.9782 20.8783C28.4931 21.1424 27.8858 20.9632 27.6217 20.4782C27.3576 19.9931 27.5368 19.3858 28.0218 19.1218C29.5591 18.2848 30.8001 17.7338 32.0529 17.4051C33.3128 17.0745 34.5336 16.9823 36.0138 17.0027C36.566 17.0103 37.0075 17.4642 36.9999 18.0164C36.9923 18.5686 36.5384 19.0101 35.9862 19.0025C34.6091 18.9835 33.584 19.0711 32.5604 19.3396Z" fill="#333333"/>
<path fill-rule="evenodd" clip-rule="evenodd" d="M11.5097 27.5C14.4259 27.4716 16.0447 27.7466 19.1421 28.9338L19.8579 27.0663C16.5375 25.7936 14.6697 25.4692 11.4903 25.5001L11.5097 27.5Z" fill="#333333"/>
<path fill-rule="evenodd" clip-rule="evenodd" d="M11.5097 22.5C14.4259 22.4716 16.0447 22.7466 19.1421 23.9338L19.8579 22.0663C16.5375 20.7936 14.6697 20.4692 11.4903 20.5001L11.5097 22.5Z" fill="#333333"/>
<path fill-rule="evenodd" clip-rule="evenodd" d="M11.5097 17.5C14.4259 17.4716 16.0447 17.7466 19.1421 18.9338L19.8579 17.0663C16.5375 15.7936 14.6697 15.4692 11.4903 15.5001L11.5097 17.5Z" fill="#333333"/>
</svg>
