<svg width="48" height="48" viewBox="0 0 48 48" fill="none" xmlns="http://www.w3.org/2000/svg">
<path fill-rule="evenodd" clip-rule="evenodd" d="M39 8H9C8.44771 8 8 8.44772 8 9V39C8 39.5523 8.44772 40 9 40H39C39.5523 40 40 39.5523 40 39V9C40 8.44771 39.5523 8 39 8ZM9 6C7.34315 6 6 7.34315 6 9L6 39C6 40.6569 7.34315 42 9 42H39C40.6569 42 42 40.6569 42 39V9C42 7.34315 40.6569 6 39 6L9 6Z" fill="#333333"/>
<path fill-rule="evenodd" clip-rule="evenodd" d="M22.0001 34L22.0001 14L26.0001 14L26.0001 34H22.0001Z" fill="#333333"/>
<path fill-rule="evenodd" clip-rule="evenodd" d="M34 26L14 25.9995L14.0001 21.9995L34.0001 22L34 26Z" fill="#333333"/>
</svg>
