<svg width="48" height="48" viewBox="0 0 48 48" fill="none" xmlns="http://www.w3.org/2000/svg">
<path fill-rule="evenodd" clip-rule="evenodd" d="M24 23.1333C27.854 23.1333 31 19.9854 31 16.0667C31 12.148 27.854 9 24 9C20.146 9 17 12.148 17 16.0667C17 19.9854 20.146 23.1333 24 23.1333ZM33 16.0667C33 21.076 28.9725 25.1333 24 25.1333C19.0275 25.1333 15 21.076 15 16.0667C15 11.0573 19.0275 7 24 7C28.9725 7 33 11.0573 33 16.0667Z" fill="#333333"/>
<path fill-rule="evenodd" clip-rule="evenodd" d="M18.1254 28.9539C17.8971 28.4861 17.3814 28.2333 16.8786 28.3569C11.4745 29.6849 6 32.3928 6 36.4664V42.9997H42V36.4664C42 32.3928 36.5255 29.6849 31.1214 28.3569C30.6186 28.2333 30.1029 28.4861 29.8746 28.9539L25.8105 31.9539C24.9218 31.9541 24.4693 31.9541 24.0248 31.954C23.5637 31.954 23.1112 31.954 22.1893 31.9542L18.1254 28.9539ZM31.2205 30.4463L26.4689 33.9538L25.8109 33.9539C24.9163 33.9541 24.4661 33.9541 24.024 33.954C23.5658 33.954 23.1163 33.954 22.1898 33.9542L21.5312 33.9543L16.7795 30.4463C14.4077 31.0751 12.1639 31.9602 10.5162 33.0501C8.69262 34.2564 8 35.4252 8 36.4664V40.9997H40V36.4664C40 35.4252 39.3074 34.2564 37.4838 33.0501C35.8361 31.9602 33.5924 31.0751 31.2205 30.4463Z" fill="#333333"/>
<path fill-rule="evenodd" clip-rule="evenodd" d="M33 32H31V35H28V37H31V40H33V37H36V35H33V32Z" fill="#333333"/>
</svg>
