<svg width="48" height="48" viewBox="0 0 48 48" fill="none" xmlns="http://www.w3.org/2000/svg">
<path fill-rule="evenodd" clip-rule="evenodd" d="M35.4816 26.6212L21.5189 27.9093C21.1327 27.9834 20.7869 28.196 20.5464 28.507L18.9079 30.9363C18.7255 32.1504 18.8549 32.6334 19.5726 33.4169L22.2062 34.7014C22.57 34.8506 22.9758 34.8617 23.3472 34.7329L36.0628 28.8606C37.9543 28.2044 37.4477 26.2437 35.4816 26.6212ZM22.8177 32.7745L30.8717 29.055L22.0397 29.8697L20.8377 31.6519C20.8326 31.7331 20.8333 31.7814 20.8347 31.8067C20.8349 31.807 20.835 31.8072 20.8352 31.8075L22.8177 32.7745ZM20.8196 31.781C20.8198 31.7811 20.8215 31.7839 20.8238 31.7892C20.8205 31.7835 20.8194 31.7809 20.8196 31.781ZM35.9597 28.5732C35.9618 28.5734 35.9629 28.5734 35.9632 28.5734C35.9632 28.5734 35.9632 28.5734 35.9632 28.5734C35.9632 28.5734 35.9632 28.5734 35.9632 28.5733C35.9629 28.5733 35.9618 28.5732 35.9597 28.5732ZM35.5044 26.9292C35.5062 26.928 35.5071 26.9274 35.5072 26.9274C35.5072 26.9274 35.5063 26.9281 35.5044 26.9292Z" fill="#333333"/>
<path fill-rule="evenodd" clip-rule="evenodd" d="M24 6C14.0583 6 6 14.0546 6 23.9892C6 28.9256 7.98814 33.396 11.2103 36.6475L9.78969 38.0553C6.21161 34.4446 4 29.4741 4 23.9892C4 12.949 12.9548 4 24 4C35.0452 4 44 12.949 44 23.9892C44 29.6236 41.6663 34.7148 37.9152 38.3471L36.5239 36.9103C39.9022 33.639 42 29.0598 42 23.9892C42 14.0546 33.9417 6 24 6Z" fill="#333333"/>
<path fill-rule="evenodd" clip-rule="evenodd" d="M23 11L23 6.00001L25 6L25 11L23 11Z" fill="#333333"/>
<path fill-rule="evenodd" clip-rule="evenodd" d="M36.7067 37.0681L33.0594 33.4209L34.4736 32.0067L38.1209 35.6538L36.7067 37.0681Z" fill="#333333"/>
<path fill-rule="evenodd" clip-rule="evenodd" d="M14.1214 14.5355L10.5857 11.0001L11.9999 9.58584L15.5356 13.1213L14.1214 14.5355Z" fill="#333333"/>
<path fill-rule="evenodd" clip-rule="evenodd" d="M37.6843 22H42.6843V24H37.6843V22Z" fill="#333333"/>
<path fill-rule="evenodd" clip-rule="evenodd" d="M5.05267 22H10.0527V24H5.05267V22Z" fill="#333333"/>
<path fill-rule="evenodd" clip-rule="evenodd" d="M32.5858 12.9999L36.2332 9.35298L37.6474 10.7673L33.9999 14.4142L32.5858 12.9999Z" fill="#333333"/>
<path fill-rule="evenodd" clip-rule="evenodd" d="M14.1968 33.6232L10.5496 37.2705L9.13539 35.8563L12.7825 32.209L14.1968 33.6232Z" fill="#333333"/>
</svg>
