<svg width="48" height="48" viewBox="0 0 48 48" fill="none" xmlns="http://www.w3.org/2000/svg">
<path fill-rule="evenodd" clip-rule="evenodd" d="M29.5913 4.67461C28.7899 4.21665 27.8914 4 26.9238 4H21.6761C19.8517 4 18.0073 4.84975 16.8974 6.38697C16.8604 6.43373 16.8241 6.4809 16.7886 6.52845L14.4522 9.55709L13.6409 10.639C13.6404 10.6397 13.6399 10.6403 13.6394 10.641C11.1085 13.9837 11.109 18.6379 13.6409 21.98L13.6468 21.9878L18.7192 28.4189L23.424 34.3903L31.2676 44.3909L38.832 38.6603L29.789 27.0891L24.997 21.0313L18.481 12.6149L18.476 12.6086C17.9076 11.898 17.6095 10.9479 17.6095 10.0667C17.6095 9.25167 17.8657 8.43472 18.3832 7.73584L18.4982 7.5867L18.5089 7.57171C19.2104 6.58966 20.4332 6 21.6761 6H26.9238C27.5847 6 28.1338 6.14525 28.599 6.4111C29.181 6.74365 29.6704 7.1096 30.0005 7.57171L31.628 6.40924C31.0533 5.60468 30.276 5.06587 29.5913 4.67461ZM15.717 11.2043C15.8932 12.14 16.2872 13.0717 16.9091 13.8515L23.4251 22.2681L28.2168 28.3253L28.2204 28.3299L36.006 38.2921L31.6275 41.6091L24.9963 33.1543L20.2902 27.1811L15.2294 20.7648C13.2438 18.1367 13.2457 14.4728 15.2351 11.8467L15.238 11.8429L15.717 11.2043Z" fill="#333333"/>
<path fill-rule="evenodd" clip-rule="evenodd" d="M12.413 38.2918L20.2022 28.3249L18.6264 27.0934L9.587 38.6599L17.1514 44.3906L24.9964 34.3882L23.4227 33.1539L16.7915 41.6087L12.413 38.2918Z" fill="#333333"/>
<path fill-rule="evenodd" clip-rule="evenodd" d="M31.6269 6.4332C31.5872 6.37991 31.5464 6.32715 31.5046 6.27495L29.932 7.51045L30.0321 7.64017C31.0975 9.0794 31.0678 11.1117 29.9429 12.5178L29.9379 12.524L23.4188 20.9446L25.0002 22.169L31.5098 13.7607C32.1353 12.9766 32.535 12.0671 32.709 11.1228L33.1838 11.7559C35.1741 14.3831 35.1752 18.049 33.187 20.6774L28.2142 27.0968L29.7953 28.3216L34.7781 21.8893C37.31 18.5471 37.3105 13.8928 34.7795 10.5502L33.9585 9.45545L31.6269 6.4332Z" fill="#333333"/>
<path fill-rule="evenodd" clip-rule="evenodd" d="M21.5857 13.5093C20.5463 13.5093 19.5467 13.8816 18.8547 14.5736L17.4405 13.1594C18.5581 12.0418 20.0918 11.5093 21.5857 11.5093H26.8333C28.3713 11.5093 29.8709 12.1607 30.9404 13.1232L29.6025 14.6098C28.8624 13.9438 27.8287 13.5093 26.8333 13.5093H21.5857Z" fill="#333333"/>
<path d="M41.6588 32.6986C41.6588 33.4173 41.0762 34 40.3574 34C39.6386 34 39.0559 33.4173 39.0559 32.6986C39.0559 31.9798 39.6386 31.3971 40.3574 31.3971C41.0762 31.3971 41.6588 31.9798 41.6588 32.6986Z" fill="#333333"/>
<path d="M36.7197 23.6071C36.7563 23.1536 36.8193 22.9421 37.0085 22.5659C37.3277 21.9538 37.7304 21.6508 38.251 21.3844C38.6301 21.2046 38.8701 21.1532 39.2921 21.0704C39.892 21.0001 40.2418 20.9757 40.8478 21.0286C42.0334 21.1546 43.025 21.598 43.5972 22.5659C43.9998 23.2736 44.0425 24.0199 43.9795 24.6483C43.921 25.2315 43.7538 25.6793 43.4528 26.0657C43.2494 26.3504 42.9424 26.6656 42.4157 27.0011C42.0004 27.2656 41.6161 27.4622 41.303 27.757C41.187 27.8981 41.0833 28.0051 41.0833 28.2756C41.0833 28.8328 41.0813 29.3104 41.0813 29.8475C41.0813 30.2156 40.7225 30.36 40.3574 30.36C40.0253 30.36 39.6009 30.2847 39.5907 29.8292C39.5805 29.3737 39.5968 28.8261 39.5968 28.2797V27.753C39.6395 27.393 39.8349 27.0647 40.1286 26.7306C40.5545 26.2694 40.978 26.0819 41.3745 25.8094C42.2659 25.2678 42.4646 24.8929 42.4421 24.1216C42.4157 23.2157 41.9173 22.9137 41.3745 22.7184C41.1151 22.5996 39.9973 22.4673 39.2921 22.6615C38.7863 22.8008 38.3974 23.0552 38.2896 23.599C38.2556 23.7703 38.2998 23.8816 38.2672 24.0972C38.1915 24.3681 38.0643 24.5635 37.7609 24.6727C37.5492 24.7489 37.3775 24.732 37.2098 24.6605C36.7665 24.4713 36.6817 24.0772 36.7197 23.6071Z" fill="#333333"/>
</svg>
