<svg width="48" height="48" viewBox="0 0 48 48" fill="none" xmlns="http://www.w3.org/2000/svg">
<path fill-rule="evenodd" clip-rule="evenodd" d="M32 9C32 7.34315 33.3431 6 35 6H39C40.6569 6 42 7.34315 42 9V39C42 40.6569 40.6569 42 39 42H35C33.3431 42 32 40.6569 32 39V9ZM35 8C34.4477 8 34 8.44772 34 9V39C34 39.5523 34.4477 40 35 40H39C39.5523 40 40 39.5523 40 39V9C40 8.44772 39.5523 8 39 8H35Z" fill="#333333"/>
<path fill-rule="evenodd" clip-rule="evenodd" d="M19 21C19 19.3431 20.3431 18 22 18H26C27.6569 18 29 19.3431 29 21V39C29 40.6569 27.6569 42 26 42H22C20.3431 42 19 40.6569 19 39V21ZM22 20C21.4477 20 21 20.4477 21 21V39C21 39.5523 21.4477 40 22 40H26C26.5523 40 27 39.5523 27 39V21C27 20.4477 26.5523 20 26 20H22Z" fill="#333333"/>
<path fill-rule="evenodd" clip-rule="evenodd" d="M6 33C6 31.3431 7.34315 30 9 30H13C14.6569 30 16 31.3431 16 33V39C16 40.6569 14.6569 42 13 42H9C7.34315 42 6 40.6569 6 39V33ZM9 32C8.44772 32 8 32.4477 8 33V39C8 39.5523 8.44772 40 9 40H13C13.5523 40 14 39.5523 14 39V33C14 32.4477 13.5523 32 13 32H9Z" fill="#333333"/>
<path fill-rule="evenodd" clip-rule="evenodd" d="M14.364 31.6359L8.00003 37.9999L6.58582 36.5857L12.9498 30.2217L14.364 31.6359Z" fill="#333333"/>
<path fill-rule="evenodd" clip-rule="evenodd" d="M15.682 35.3181L9.79294 41.2072L8.37872 39.793L14.2678 33.9039L15.682 35.3181Z" fill="#333333"/>
<path fill-rule="evenodd" clip-rule="evenodd" d="M28.4247 30.5753L21 37.9999L19.5858 36.5857L27.0104 29.1611L28.4247 30.5753Z" fill="#333333"/>
<path fill-rule="evenodd" clip-rule="evenodd" d="M28.4247 25.5753L21 32.9999L19.5858 31.5857L27.0104 24.1611L28.4247 25.5753Z" fill="#333333"/>
<path fill-rule="evenodd" clip-rule="evenodd" d="M28.4247 20.5753L21 27.9999L19.5858 26.5857L27.0104 19.1611L28.4247 20.5753Z" fill="#333333"/>
<path fill-rule="evenodd" clip-rule="evenodd" d="M24.5356 19.4644L21 22.9999L19.5858 21.5857L23.1213 18.0502L24.5356 19.4644Z" fill="#333333"/>
<path fill-rule="evenodd" clip-rule="evenodd" d="M28.682 35.3179L22.4888 41.5111L21.0746 40.0969L27.2678 33.9037L28.682 35.3179Z" fill="#333333"/>
<path fill-rule="evenodd" clip-rule="evenodd" d="M39.374 7.62588L34 12.9999L32.5858 11.5857L37.9598 6.21167L39.374 7.62588ZM41.4247 10.5753L34 17.9999L32.5858 16.5857L40.0104 9.16106L41.4247 10.5753ZM41.5 15.4999L34 22.9999L32.5858 21.5857L40.0858 14.0857L41.5 15.4999ZM41.4247 20.5753L34 27.9999L32.5858 26.5857L40.0104 19.1611L41.4247 20.5753ZM41.4247 25.5753L34 32.9999L32.5858 31.5857L40.0104 24.1611L41.4247 25.5753ZM41.4247 30.5753L34 37.9999L32.5858 36.5857L40.0104 29.1611L41.4247 30.5753ZM41.5 35.4999L35.5 41.4999L34.0858 40.0857L40.0858 34.0857L41.5 35.4999Z" fill="#333333"/>
</svg>
