<svg width="48" height="48" viewBox="0 0 48 48" fill="none" xmlns="http://www.w3.org/2000/svg">
<path fill-rule="evenodd" clip-rule="evenodd" d="M29.5915 4.67461C28.79 4.21665 27.8915 4 26.9239 4H21.6763C19.8518 4 18.0074 4.84975 16.8976 6.38697C16.8605 6.43373 16.8242 6.4809 16.7888 6.52845L14.4524 9.55709L13.6411 10.639C13.6406 10.6397 13.6401 10.6403 13.6396 10.641C11.1086 13.9837 11.1091 18.6379 13.6411 21.98L13.647 21.9878L18.7194 28.4189L23.4241 34.3903L31.2677 44.3909L38.8322 38.6603L29.7891 27.0891L24.9971 21.0313L18.4812 12.6149L18.4762 12.6086C17.9077 11.898 17.6096 10.9479 17.6096 10.0667C17.6096 9.25167 17.8659 8.43472 18.3833 7.73584L18.4983 7.5867L18.5091 7.57171C19.2105 6.58966 20.4333 6 21.6763 6H26.9239C27.5848 6 28.1339 6.14525 28.5992 6.4111C29.1811 6.74365 29.6706 7.1096 30.0006 7.57171L31.6281 6.40924C31.0534 5.60468 30.2762 5.06587 29.5915 4.67461ZM15.7171 11.2043C15.8933 12.14 16.2874 13.0717 16.9092 13.8515L23.4253 22.2681L28.2169 28.3253L28.2206 28.3299L36.0061 38.2921L31.6277 41.6091L24.9965 33.1543L20.2903 27.1811L15.2295 20.7648C13.2439 18.1367 13.2458 14.4728 15.2353 11.8467L15.2382 11.8429L15.7171 11.2043Z" fill="#333333"/>
<path fill-rule="evenodd" clip-rule="evenodd" d="M12.4131 38.2918L20.2023 28.3249L18.6264 27.0934L9.58706 38.6599L17.1515 44.3906L24.9965 34.3882L23.4228 33.1539L16.7915 41.6087L12.4131 38.2918Z" fill="#333333"/>
<path fill-rule="evenodd" clip-rule="evenodd" d="M31.627 6.4332C31.5873 6.37991 31.5465 6.32715 31.5048 6.27495L29.9321 7.51045L30.0322 7.64017C31.0977 9.0794 31.0679 11.1117 29.943 12.5178L29.9381 12.524L23.4189 20.9446L25.0003 22.169L31.51 13.7607C32.1354 12.9766 32.5352 12.0671 32.7091 11.1228L33.1839 11.7559C35.1743 14.3831 35.1753 18.049 33.1871 20.6774L28.2143 27.0968L29.7954 28.3216L34.7782 21.8893C37.3101 18.5471 37.3106 13.8928 34.7796 10.5502L33.9586 9.45545L31.627 6.4332Z" fill="#333333"/>
<path fill-rule="evenodd" clip-rule="evenodd" d="M21.5858 13.5093C20.5463 13.5093 19.5467 13.8816 18.8548 14.5736L17.4406 13.1594C18.5581 12.0418 20.0918 11.5093 21.5858 11.5093H26.8334C28.3714 11.5093 29.8709 12.1607 30.9404 13.1232L29.6025 14.6098C28.8625 13.9438 27.8287 13.5093 26.8334 13.5093H21.5858Z" fill="#333333"/>
<path fill-rule="evenodd" clip-rule="evenodd" d="M40 21C40.5523 21 41 21.4477 41 22V32C41 32.5523 40.5523 33 40 33C39.4477 33 39 32.5523 39 32V22C39 21.4477 39.4477 21 40 21Z" fill="#333333"/>
<path fill-rule="evenodd" clip-rule="evenodd" d="M34 27C34 26.4477 34.4477 26 35 26L45 26C45.5523 26 46 26.4477 46 27C46 27.5523 45.5523 28 45 28L35 28C34.4477 28 34 27.5523 34 27Z" fill="#333333"/>
</svg>
