<svg width="48" height="48" viewBox="0 0 48 48" fill="none" xmlns="http://www.w3.org/2000/svg">
<path fill-rule="evenodd" clip-rule="evenodd" d="M29.5914 4.67461C28.79 4.21665 27.8915 4 26.9238 4H21.6762C19.8517 4 18.0074 4.84975 16.8975 6.38697C16.8604 6.43373 16.8242 6.4809 16.7887 6.52845L14.4523 9.55709L13.641 10.639C13.6405 10.6397 13.64 10.6403 13.6395 10.641C11.1086 13.9837 11.1091 18.6379 13.641 21.98L13.6469 21.9878L18.7193 28.4189L23.4241 34.3903L31.2677 44.3909L38.8321 38.6603L29.7891 27.0891L24.9971 21.0313L18.4811 12.6149L18.4761 12.6086C17.9076 11.898 17.6095 10.9479 17.6095 10.0667C17.6095 9.25167 17.8658 8.43472 18.3832 7.73584L18.4983 7.5867L18.509 7.57171C19.2105 6.58966 20.4333 6 21.6762 6H26.9238C27.5848 6 28.1339 6.14525 28.5991 6.4111C29.1811 6.74365 29.6705 7.1096 30.0006 7.57171L31.628 6.40924C31.0534 5.60468 30.2761 5.06587 29.5914 4.67461ZM15.7171 11.2043C15.8932 12.14 16.2873 13.0717 16.9091 13.8515L23.4252 22.2681L28.2169 28.3253L28.2205 28.3299L36.006 38.2921L31.6276 41.6091L24.9964 33.1543L20.2903 27.1811L15.2295 20.7648C13.2438 18.1367 13.2458 14.4728 15.2352 11.8467L15.2381 11.8429L15.7171 11.2043Z" fill="#333333"/>
<path fill-rule="evenodd" clip-rule="evenodd" d="M12.413 38.2918L20.2022 28.3249L18.6264 27.0934L9.587 38.6599L17.1514 44.3906L24.9964 34.3882L23.4227 33.1539L16.7915 41.6087L12.413 38.2918Z" fill="#333333"/>
<path fill-rule="evenodd" clip-rule="evenodd" d="M31.627 6.4332C31.5872 6.37991 31.5465 6.32715 31.5047 6.27495L29.9321 7.51045L30.0321 7.64017C31.0976 9.0794 31.0679 11.1117 29.943 12.5178L29.938 12.524L23.4188 20.9446L25.0003 22.169L31.5099 13.7607C32.1354 12.9766 32.5351 12.0671 32.709 11.1228L33.1839 11.7559C35.1742 14.3831 35.1752 18.049 33.187 20.6774L28.2142 27.0968L29.7953 28.3216L34.7781 21.8893C37.3101 18.5471 37.3105 13.8928 34.7796 10.5502L33.9585 9.45545L31.627 6.4332Z" fill="#333333"/>
<path fill-rule="evenodd" clip-rule="evenodd" d="M21.5857 13.5093C20.5463 13.5093 19.5467 13.8816 18.8547 14.5736L17.4405 13.1594C18.558 12.0418 20.0918 11.5093 21.5857 11.5093H26.8333C28.3713 11.5093 29.8709 12.1607 30.9404 13.1232L29.6024 14.6098C28.8624 13.9438 27.8286 13.5093 26.8333 13.5093H21.5857Z" fill="#333333"/>
<path d="M44 26H36C35.4477 26 35 26.4477 35 27C35 27.5523 35.4477 28 36 28H44C44.5523 28 45 27.5523 45 27C45 26.4477 44.5523 26 44 26Z" fill="#333333"/>
</svg>
