<svg width="48" height="48" viewBox="0 0 48 48" fill="none" xmlns="http://www.w3.org/2000/svg">
<path d="M24.507 10.1381C24.1941 9.95398 23.8059 9.95398 23.493 10.1381L5.63105 20.6451L6.64509 22.369L24 12.1602L41.3549 22.369L42.369 20.6451L36 16.8986V12C36 11.4477 35.5523 11 35 11H32C31.4477 11 31 11.4477 31 12V13.9575L24.507 10.1381Z" fill="currentColor"/>
<path d="M14 25H25V31H14V25Z" fill="currentColor"/>
<path fill-rule="evenodd" clip-rule="evenodd" d="M24 14L10 22V36H5C4.44772 36 4 36.4477 4 37C4 37.5523 4.44772 38 5 38H41C41.5523 38 42 37.5523 42 37C42 36.4477 41.5523 36 41 36H38V22L24 14ZM24 16.3035L12 23.1606V36H28V25H34V36H36V23.1606L24 16.3035Z" fill="currentColor"/>
</svg>
