<svg width="48" height="48" viewBox="0 0 48 48" fill="none" xmlns="http://www.w3.org/2000/svg">
<path fill-rule="evenodd" clip-rule="evenodd" d="M28 7V4H30V7C30 7.55228 30.4477 8 31 8H39C39.5523 8 40 7.55228 40 7V4H42V7C42 8.65685 40.6569 10 39 10H36V26C36 26.5523 35.5523 27 35 27C34.4477 27 34 26.5523 34 26V10H31C29.3431 10 28 8.65685 28 7Z" fill="#333333"/>
<path fill-rule="evenodd" clip-rule="evenodd" d="M29 14V18H31V14H29ZM28 12C27.4477 12 27 12.4477 27 13V19C27 19.5523 27.4477 20 28 20H32C32.5523 20 33 19.5523 33 19V13C33 12.4477 32.5523 12 32 12H28Z" fill="#333333"/>
<path fill-rule="evenodd" clip-rule="evenodd" d="M29 12.5V9H31V12.5H29Z" fill="#333333"/>
<path fill-rule="evenodd" clip-rule="evenodd" d="M39.0662 27.0664H18.11C17.4932 27.0664 16.905 26.8194 16.4736 26.3851L17.8925 24.9756C17.9502 25.0337 18.0285 25.0664 18.11 25.0664H39.0662C41.2388 25.0664 43 26.8423 43 29.033C43 31.2238 41.2388 32.9997 39.0662 32.9997H15.0722C14.7733 32.9997 14.4867 32.8801 14.2752 32.6672L6.16703 24.5042C4.61099 22.9376 4.61099 20.3951 6.16703 18.8285C7.71958 17.2655 10.2342 17.2655 11.7867 18.8285L17.8925 24.9756L16.4736 26.3851L10.3677 20.238C9.59731 19.4623 8.35643 19.4623 7.586 20.238C6.80467 21.0246 6.80467 22.3081 7.586 23.0948L15.4379 30.9997H39.0662C40.1186 30.9997 41 30.1349 41 29.033C41 27.9311 40.1185 27.0664 39.0662 27.0664Z" fill="#333333"/>
<path d="M7 25L9 26.1818V38H7V25Z" fill="#333333"/>
<path d="M38 32.5234H40V38.1991H38V32.5234Z" fill="#333333"/>
<path fill-rule="evenodd" clip-rule="evenodd" d="M44 38H4V36H44V38Z" fill="#333333"/>
<path fill-rule="evenodd" clip-rule="evenodd" d="M8.5 42C9.32843 42 10 41.3284 10 40.5C10 39.6716 9.32843 39 8.5 39C7.67157 39 7 39.6716 7 40.5C7 41.3284 7.67157 42 8.5 42ZM8.5 44C10.433 44 12 42.433 12 40.5C12 38.567 10.433 37 8.5 37C6.567 37 5 38.567 5 40.5C5 42.433 6.567 44 8.5 44Z" fill="#333333"/>
<path fill-rule="evenodd" clip-rule="evenodd" d="M39.5 42C40.3284 42 41 41.3284 41 40.5C41 39.6716 40.3284 39 39.5 39C38.6716 39 38 39.6716 38 40.5C38 41.3284 38.6716 42 39.5 42ZM39.5 44C41.433 44 43 42.433 43 40.5C43 38.567 41.433 37 39.5 37C37.567 37 36 38.567 36 40.5C36 42.433 37.567 44 39.5 44Z" fill="#333333"/>
<path fill-rule="evenodd" clip-rule="evenodd" d="M10.7632 17.1034C12.2364 15.6315 14.624 15.6323 16.0961 17.1052L17.8964 18.9063L17.1891 19.6132L17.8964 18.9063C19.3686 20.3793 19.3678 22.7667 17.8945 24.2387L16.4245 25.7074L15.0109 24.2926L16.4809 22.8239C17.1727 22.1327 17.1731 21.0118 16.4818 20.3202L14.6816 18.5191C13.9902 17.8273 12.8687 17.8269 12.1768 18.5182L10.7068 19.9869L9.29321 18.5721L10.7632 17.1034Z" fill="#333333"/>
</svg>
