<svg width="48" height="48" viewBox="0 0 48 48" fill="none" xmlns="http://www.w3.org/2000/svg">
<path fill-rule="evenodd" clip-rule="evenodd" d="M8 43C8 42.4477 8.44772 42 9 42H39C39.5523 42 40 42.4477 40 43C40 43.5523 39.5523 44 39 44H9C8.44772 44 8 43.5523 8 43Z" fill="#333333"/>
<path fill-rule="evenodd" clip-rule="evenodd" d="M19 8H10V6H19V8Z" fill="#333333"/>
<path fill-rule="evenodd" clip-rule="evenodd" d="M39 8H30V6H39V8Z" fill="#333333"/>
<path fill-rule="evenodd" clip-rule="evenodd" d="M17 11L11 11L11 9L17 9V11Z" fill="#333333"/>
<path fill-rule="evenodd" clip-rule="evenodd" d="M37 11H31V9H37V11Z" fill="#333333"/>
<path fill-rule="evenodd" clip-rule="evenodd" d="M32 38H16V36H32V38Z" fill="#333333"/>
<path fill-rule="evenodd" clip-rule="evenodd" d="M25 7V15H23V7H25Z" fill="#333333"/>
<path fill-rule="evenodd" clip-rule="evenodd" d="M20 10L28 10V12L20 12V10Z" fill="#333333"/>
<path fill-rule="evenodd" clip-rule="evenodd" d="M29 6H19V16H29V6ZM19 4H29C30.1046 4 31 4.89543 31 6V16C31 17.1046 30.1046 18 29 18H19C17.8954 18 17 17.1046 17 16V6C17 4.89543 17.8954 4 19 4Z" fill="#333333"/>
<path fill-rule="evenodd" clip-rule="evenodd" d="M11 42V7H13V42H11Z" fill="#333333"/>
<path fill-rule="evenodd" clip-rule="evenodd" d="M35 42V7H37V42H35Z" fill="#333333"/>
<path fill-rule="evenodd" clip-rule="evenodd" d="M23 42V38H25V42H23Z" fill="#333333"/>
<path fill-rule="evenodd" clip-rule="evenodd" d="M29 42V38H31V42H29Z" fill="#333333"/>
<path fill-rule="evenodd" clip-rule="evenodd" d="M17 42V38H19V42H17Z" fill="#333333"/>
<path d="M16 20H20V23H16V20Z" fill="#333333"/>
<path d="M16 25H20V28H16V25Z" fill="#333333"/>
<path d="M16 30H20V33H16V30Z" fill="#333333"/>
<path d="M22 20H26V23H22V20Z" fill="#333333"/>
<path d="M22 25H26V28H22V25Z" fill="#333333"/>
<path d="M22 30H26V33H22V30Z" fill="#333333"/>
<path d="M28 20H32V23H28V20Z" fill="#333333"/>
<path d="M28 25H32V28H28V25Z" fill="#333333"/>
<path d="M28 30H32V33H28V30Z" fill="#333333"/>
</svg>
