<svg width="48" height="48" viewBox="0 0 48 48" fill="none" xmlns="http://www.w3.org/2000/svg">
<path fill-rule="evenodd" clip-rule="evenodd" d="M16.4906 12.1029C16.9695 12.3779 17.1347 12.9892 16.8597 13.4681C16.7595 13.6426 16.5909 13.9987 16.4648 14.423C16.3364 14.8548 16.2758 15.2775 16.3175 15.6168C16.3416 15.8133 16.3897 15.9177 16.4316 15.987C16.4845 16.0741 16.5524 16.1498 16.7046 16.3081C16.7101 16.3138 16.7157 16.3196 16.7214 16.3256C16.8587 16.4682 17.0693 16.687 17.246 16.9785C17.4409 17.2999 17.5779 17.6766 17.635 18.1418C17.7234 18.8612 17.5885 19.5818 17.4197 20.1493C17.2488 20.7242 17.0186 21.2231 16.8421 21.5303C16.567 22.0092 15.9558 22.1745 15.4769 21.8994C14.998 21.6244 14.8327 21.0132 15.1078 20.5343C15.208 20.3598 15.3765 20.0037 15.5027 19.5793C15.6311 19.1476 15.6916 18.7248 15.6499 18.3855C15.6258 18.189 15.5778 18.0846 15.5358 18.0153C15.483 17.9282 15.4151 17.8526 15.2628 17.6942C15.2574 17.6885 15.2518 17.6827 15.2461 17.6768C15.1087 17.5341 14.8981 17.3153 14.7214 17.0239C14.5265 16.7024 14.3895 16.3258 14.3324 15.8606C14.2441 15.1412 14.379 14.4205 14.5477 13.853C14.7186 13.2782 14.9489 12.7793 15.1254 12.472C15.4004 11.9931 16.0116 11.8278 16.4906 12.1029Z" fill="#333333"/>
<path fill-rule="evenodd" clip-rule="evenodd" d="M24.4906 12.1029C24.9695 12.3779 25.1347 12.9892 24.8597 13.4681C24.7595 13.6426 24.5909 13.9987 24.4648 14.423C24.3364 14.8548 24.2758 15.2775 24.3175 15.6168C24.3416 15.8133 24.3897 15.9177 24.4316 15.987C24.4845 16.0741 24.5524 16.1498 24.7046 16.3081C24.7101 16.3138 24.7157 16.3196 24.7214 16.3256C24.8587 16.4682 25.0693 16.687 25.246 16.9785C25.4409 17.2999 25.5779 17.6766 25.635 18.1418C25.7234 18.8612 25.5885 19.5818 25.4197 20.1493C25.2488 20.7242 25.0186 21.2231 24.8421 21.5303C24.567 22.0092 23.9558 22.1745 23.4769 21.8994C22.998 21.6244 22.8327 21.0132 23.1078 20.5343C23.208 20.3598 23.3765 20.0037 23.5027 19.5793C23.6311 19.1476 23.6916 18.7248 23.6499 18.3855C23.6258 18.189 23.5778 18.0846 23.5358 18.0153C23.483 17.9282 23.4151 17.8526 23.2628 17.6942C23.2574 17.6885 23.2518 17.6827 23.2461 17.6768C23.1087 17.5341 22.8981 17.3153 22.7214 17.0239C22.5265 16.7024 22.3895 16.3258 22.3324 15.8606C22.2441 15.1412 22.379 14.4205 22.5477 13.853C22.7186 13.2782 22.9489 12.7793 23.1254 12.472C23.4004 11.9931 24.0116 11.8278 24.4906 12.1029Z" fill="#333333"/>
<path fill-rule="evenodd" clip-rule="evenodd" d="M32.4906 12.1029C32.9695 12.3779 33.1347 12.9892 32.8597 13.4681C32.7595 13.6426 32.5909 13.9987 32.4648 14.423C32.3364 14.8548 32.2758 15.2775 32.3175 15.6168C32.3416 15.8133 32.3897 15.9177 32.4316 15.987C32.4845 16.0741 32.5524 16.1498 32.7046 16.3081C32.7101 16.3138 32.7157 16.3196 32.7214 16.3256C32.8587 16.4682 33.0693 16.687 33.246 16.9785C33.4409 17.2999 33.5779 17.6766 33.635 18.1418C33.7234 18.8612 33.5885 19.5818 33.4197 20.1493C33.2488 20.7242 33.0186 21.2231 32.8421 21.5303C32.567 22.0092 31.9558 22.1745 31.4769 21.8994C30.998 21.6244 30.8327 21.0132 31.1078 20.5343C31.208 20.3598 31.3765 20.0037 31.5027 19.5793C31.6311 19.1476 31.6916 18.7248 31.6499 18.3855C31.6258 18.189 31.5778 18.0846 31.5358 18.0153C31.483 17.9282 31.4151 17.8526 31.2628 17.6942C31.2574 17.6885 31.2518 17.6827 31.2461 17.6768C31.1087 17.5341 30.8981 17.3153 30.7214 17.0239C30.5265 16.7024 30.3895 16.3258 30.3324 15.8606C30.2441 15.1412 30.379 14.4205 30.5477 13.853C30.7186 13.2782 30.9489 12.7793 31.1254 12.472C31.4004 11.9931 32.0116 11.8278 32.4906 12.1029Z" fill="#333333"/>
<path fill-rule="evenodd" clip-rule="evenodd" d="M38 28L10 28C10 31.3137 12.6863 34 16 34H32C35.3137 34 38 31.3137 38 28ZM8 26V28C8 32.4183 11.5817 36 16 36H32C36.4183 36 40 32.4183 40 28V26H8Z" fill="#333333"/>
<path fill-rule="evenodd" clip-rule="evenodd" d="M4 27C4 26.4477 4.44772 26 5 26L43 26C43.5523 26 44 26.4477 44 27C44 27.5523 43.5523 28 43 28L5 28C4.44772 28 4 27.5523 4 27Z" fill="#333333"/>
</svg>
