<svg width="48" height="48" viewBox="0 0 48 48" fill="none" xmlns="http://www.w3.org/2000/svg">
<path fill-rule="evenodd" clip-rule="evenodd" d="M12 39.9998V20.5H10V40.9998C10 41.5521 10.4477 41.9998 11 41.9998H20C20.5523 41.9998 21 41.5521 21 40.9998V32.259C21 31.7068 21.4477 31.259 22 31.259H26C26.5523 31.259 27 31.7068 27 32.259V40.9998C27 41.5521 27.4477 41.9998 28 41.9998H37C37.5523 41.9998 38 41.5521 38 40.9998V20.5H36V39.9998H29V32.259C29 30.6022 27.6569 29.259 26 29.259H22C20.3431 29.259 19 30.6022 19 32.259V39.9998H12Z" fill="#333333"/>
<path fill-rule="evenodd" clip-rule="evenodd" d="M24.0579 6.08575L41.7083 23.794C42.0981 24.1852 42.0971 24.8183 41.7059 25.2082C41.3148 25.5981 40.6816 25.5971 40.2917 25.2059L24.0533 8.91419L7.70595 25.2082C7.31479 25.5981 6.68163 25.5971 6.29174 25.2059C5.90185 24.8148 5.90289 24.1816 6.29405 23.7917L24.0579 6.08575Z" fill="#333333"/>
</svg>
