<svg width="48" height="48" viewBox="0 0 48 48" fill="none" xmlns="http://www.w3.org/2000/svg">
<path fill-rule="evenodd" clip-rule="evenodd" d="M24 11C16.8203 11 11 16.8203 11 24C11 31.1797 16.8203 37 24 37C31.1797 37 37 31.1797 37 24C37 16.8203 31.1797 11 24 11ZM9 24C9 15.7157 15.7157 9 24 9C32.2843 9 39 15.7157 39 24C39 32.2843 32.2843 39 24 39C15.7157 39 9 32.2843 9 24Z" fill="#333333"/>
<path fill-rule="evenodd" clip-rule="evenodd" d="M21 5C21 4.44772 21.4477 4 22 4H26C26.5523 4 27 4.44772 27 5C27 5.55228 26.5523 6 26 6H25V12C25 12.5523 24.5523 13 24 13C23.4477 13 23 12.5523 23 12V6H22C21.4477 6 21 5.55228 21 5Z" fill="#333333"/>
<path fill-rule="evenodd" clip-rule="evenodd" d="M24 35C24.5523 35 25 35.4477 25 36V42H26C26.5523 42 27 42.4477 27 43C27 43.5523 26.5523 44 26 44H22C21.4477 44 21 43.5523 21 43C21 42.4477 21.4477 42 22 42H23V36C23 35.4477 23.4477 35 24 35Z" fill="#333333"/>
<path fill-rule="evenodd" clip-rule="evenodd" d="M12.6862 39.5563C12.2957 39.9468 11.6625 39.9468 11.272 39.5563L8.44359 36.7279C8.05307 36.3374 8.05307 35.7042 8.44359 35.3137C8.83412 34.9232 9.46728 34.9232 9.85781 35.3137L10.5649 36.0208L14.8076 31.7781C15.1981 31.3876 15.8312 31.3876 16.2218 31.7781C16.6123 32.1687 16.6123 32.8018 16.2218 33.1924L11.9791 37.435L12.6862 38.1421C13.0768 38.5326 13.0768 39.1658 12.6862 39.5563Z" fill="#333333"/>
<path fill-rule="evenodd" clip-rule="evenodd" d="M31.7781 16.2218C31.3876 15.8313 31.3876 15.1981 31.7781 14.8076L36.0207 10.565L35.3136 9.85786C34.9231 9.46733 34.9231 8.83417 35.3136 8.44364C35.7042 8.05312 36.3373 8.05312 36.7278 8.44364L39.5563 11.2721C39.9468 11.6626 39.9468 12.2958 39.5563 12.6863C39.1657 13.0768 38.5326 13.0768 38.1421 12.6863L37.4349 11.9792L33.1923 16.2218C32.8018 16.6123 32.1686 16.6123 31.7781 16.2218Z" fill="#333333"/>
<path fill-rule="evenodd" clip-rule="evenodd" d="M8.44368 12.6863C8.05315 12.2958 8.05315 11.6626 8.44368 11.2721L11.2721 8.44365C11.6626 8.05313 12.2958 8.05313 12.6863 8.44365C13.0768 8.83418 13.0768 9.46734 12.6863 9.85787L11.9792 10.565L16.2219 14.8076C16.6124 15.1981 16.6124 15.8313 16.2219 16.2218C15.8313 16.6124 15.1982 16.6124 14.8076 16.2218L10.565 11.9792L9.85789 12.6863C9.46737 13.0768 8.8342 13.0768 8.44368 12.6863Z" fill="#333333"/>
<path fill-rule="evenodd" clip-rule="evenodd" d="M31.7782 31.7782C32.1687 31.3876 32.8019 31.3876 33.1924 31.7782L37.435 36.0208L38.1421 35.3137C38.5327 34.9232 39.1658 34.9232 39.5564 35.3137C39.9469 35.7042 39.9469 36.3374 39.5564 36.7279L36.7279 39.5563C36.3374 39.9469 35.7042 39.9469 35.3137 39.5563C34.9232 39.1658 34.9232 38.5326 35.3137 38.1421L36.0208 37.435L31.7782 33.1924C31.3877 32.8018 31.3877 32.1687 31.7782 31.7782Z" fill="#333333"/>
<path fill-rule="evenodd" clip-rule="evenodd" d="M5 27.0003C4.44772 27.0003 4 26.5526 4 26.0003V22.0003C4 21.448 4.44772 21.0003 5 21.0003C5.55228 21.0003 6 21.448 6 22.0003V23.0003H12C12.5523 23.0003 13 23.448 13 24.0003C13 24.5526 12.5523 25.0003 12 25.0003H6V26.0003C6 26.5526 5.55228 27.0003 5 27.0003Z" fill="#333333"/>
<path fill-rule="evenodd" clip-rule="evenodd" d="M35 24.0003C35 23.448 35.4477 23.0003 36 23.0003H42V22.0003C42 21.448 42.4477 21.0003 43 21.0003C43.5523 21.0003 44 21.448 44 22.0003V26.0003C44 26.5526 43.5523 27.0003 43 27.0003C42.4477 27.0003 42 26.5526 42 26.0003V25.0003H36C35.4477 25.0003 35 24.5526 35 24.0003Z" fill="#333333"/>
<path fill-rule="evenodd" clip-rule="evenodd" d="M16 20.5C16.5523 20.5 17 20.9477 17 21.5V23H19V21.5C19 20.9477 19.4477 20.5 20 20.5C20.5523 20.5 21 20.9477 21 21.5V26.5C21 27.0523 20.5523 27.5 20 27.5C19.4477 27.5 19 27.0523 19 26.5V25H17V26.5C17 27.0523 16.5523 27.5 16 27.5C15.4477 27.5 15 27.0523 15 26.5V21.5C15 20.9477 15.4477 20.5 16 20.5Z" fill="#333333"/>
<path fill-rule="evenodd" clip-rule="evenodd" d="M22 21.5C22 20.9477 22.4477 20.5 23 20.5H25C26.3807 20.5 27.5 21.6193 27.5 23C27.5 24.3807 26.3807 25.5 25 25.5H24V26.5C24 27.0523 23.5523 27.5 23 27.5C22.4477 27.5 22 27.0523 22 26.5V21.5ZM24 23.5H25C25.2761 23.5 25.5 23.2761 25.5 23C25.5 22.7239 25.2761 22.5 25 22.5H24V23.5Z" fill="#333333"/>
<path fill-rule="evenodd" clip-rule="evenodd" d="M28.6286 20.5715C29.1414 20.3664 29.7234 20.6158 29.9285 21.1286L31 23.8074L32.0715 21.1286C32.2767 20.6158 32.8586 20.3664 33.3714 20.5715C33.8842 20.7767 34.1336 21.3586 33.9285 21.8714L31.9285 26.8714C31.7766 27.2511 31.4089 27.5 31 27.5C30.5911 27.5 30.2234 27.2511 30.0715 26.8714L28.0715 21.8714C27.8664 21.3586 28.1158 20.7767 28.6286 20.5715Z" fill="#333333"/>
</svg>
