<svg width="48" height="48" viewBox="0 0 48 48" fill="none" xmlns="http://www.w3.org/2000/svg">
<path fill-rule="evenodd" clip-rule="evenodd" d="M36 12C34.8954 12 34 12.8954 34 14C34 15.1046 34.8954 16 36 16C37.1046 16 38 15.1046 38 14C38 12.8954 37.1046 12 36 12ZM32 14C32 11.7909 33.7909 10 36 10C38.2091 10 40 11.7909 40 14C40 16.2091 38.2091 18 36 18C33.7909 18 32 16.2091 32 14Z" fill="#333333"/>
<path fill-rule="evenodd" clip-rule="evenodd" d="M29.6574 19.1259C30.2267 18.4143 31.0886 18 32 18H38C38.0775 18 38.1544 18.003 38.2307 18.0088H40.8906C41.3525 18.0088 41.8649 18.1955 42.3086 18.4283C42.7835 18.6774 43.2967 19.0407 43.772 19.5156C44.7278 20.4705 45.5656 21.9163 45.5656 23.8193C45.5656 26.1604 44.7893 27.8707 43.8291 29.0072C43.3541 29.5695 42.8357 29.9893 42.3491 30.274C42.202 30.3601 42.0479 30.4396 41.8906 30.5077V41.8928C41.8906 43.3441 40.7073 44.5274 39.256 44.5274C37.8047 44.5274 36.6214 43.3441 36.6214 41.8928V34.72H35.3523V41.8928C35.3523 43.3441 34.169 44.5274 32.7177 44.5274C31.2664 44.5274 30.0831 43.3441 30.0831 41.8928V28.1589C29.5275 28.695 28.782 29 28 29H22C20.3431 29 19 27.6569 19 26C19 24.3431 20.3431 23 22 23H26.5581L29.6574 19.1259ZM32 20C31.6962 20 31.4089 20.1381 31.2191 20.3753L27.5194 25H22C21.4477 25 21 25.4477 21 26C21 26.5523 21.4477 27 22 27H28C28.3038 27 28.5911 26.8619 28.7809 26.6247L32.0831 22.4969V41.8928C32.0831 42.2396 32.371 42.5274 32.7177 42.5274C33.0644 42.5274 33.3523 42.2396 33.3523 41.8928V32.72H38.6214V41.8928C38.6214 42.2396 38.9093 42.5274 39.256 42.5274C39.6027 42.5274 39.8906 42.2396 39.8906 41.8928V28.7442H40.8906C40.8846 28.7442 40.8865 28.7437 40.8958 28.7415C40.9328 28.7326 41.0863 28.6957 41.339 28.5478C41.6258 28.38 41.97 28.1087 42.3013 27.7165C42.954 26.944 43.5656 25.6918 43.5656 23.8193C43.5656 22.5463 43.0154 21.5868 42.3585 20.9305C42.0274 20.5998 41.678 20.356 41.3795 20.1993C41.093 20.0491 40.9258 20.0161 40.8951 20.01C40.8905 20.0091 40.8889 20.0088 40.8906 20.0088H38.142L38.0955 20.0044C38.0643 20.0015 38.0325 20 38 20H32Z" fill="#333333"/>
<path fill-rule="evenodd" clip-rule="evenodd" d="M4 4H37V9.16H35V6H6V30H29V32H4V4Z" fill="#333333"/>
<path fill-rule="evenodd" clip-rule="evenodd" d="M39.8861 29.625L39.8861 22.0176L41.8861 22.0176L41.8861 29.625L39.8861 29.625Z" fill="#333333"/>
</svg>
