<svg width="48" height="48" viewBox="0 0 48 48" fill="none" xmlns="http://www.w3.org/2000/svg">
<path fill-rule="evenodd" clip-rule="evenodd" d="M30 15C29.4477 15 29 14.5523 29 14V6H16C14.8954 6 14 6.89543 14 8V36C14 37.1046 14.8954 38 16 38H36C37.1046 38 38 37.1046 38 36V15H30ZM40 14V36C40 38.2091 38.2091 40 36 40H16C13.7909 40 12 38.2091 12 36V8C12 5.79086 13.7909 4 16 4H30L40 14ZM31 7.82843L36.1716 13H31V7.82843Z" fill="#333333"/>
<path fill-rule="evenodd" clip-rule="evenodd" d="M9 8C9.55228 8 10 8.44772 10 9V38C10 40.2091 11.7909 42 14 42H35C35.5523 42 36 42.4477 36 43C36 43.5523 35.5523 44 35 44H14C10.6863 44 8 41.3137 8 38V9C8 8.44772 8.44772 8 9 8Z" fill="#333333"/>
<path fill-rule="evenodd" clip-rule="evenodd" d="M32.7071 21.2929C33.0976 21.6834 33.0976 22.3166 32.7071 22.7071L24 31.4142L19.2929 26.7071C18.9024 26.3166 18.9024 25.6834 19.2929 25.2929C19.6834 24.9024 20.3166 24.9024 20.7071 25.2929L24 28.5858L31.2929 21.2929C31.6834 20.9024 32.3166 20.9024 32.7071 21.2929Z" fill="#333333"/>
</svg>
