<svg width="48" height="48" viewBox="0 0 48 48" fill="none" xmlns="http://www.w3.org/2000/svg">
<path fill-rule="evenodd" clip-rule="evenodd" d="M28 17C27.4477 17 27 16.5523 27 16V8H14C12.8954 8 12 8.89543 12 10V38C12 39.1046 12.8954 40 14 40H34C35.1046 40 36 39.1046 36 38V17H28ZM38 16V38C38 40.2091 36.2091 42 34 42H14C11.7909 42 10 40.2091 10 38V10C10 7.79086 11.7909 6 14 6H28L38 16ZM29 9.82843L34.1716 15H29V9.82843Z" fill="#333333"/>
<path fill-rule="evenodd" clip-rule="evenodd" d="M14 33C14 32.4477 14.4477 32 15 32L33 32C33.5523 32 34 32.4477 34 33C34 33.5523 33.5523 34 33 34L15 34C14.4477 34 14 33.5523 14 33Z" fill="#333333"/>
<path fill-rule="evenodd" clip-rule="evenodd" d="M14 37C14 36.4477 14.4477 36 15 36H27C27.5523 36 28 36.4477 28 37C28 37.5523 27.5523 38 27 38H15C14.4477 38 14 37.5523 14 37Z" fill="#333333"/>
<path fill-rule="evenodd" clip-rule="evenodd" d="M20 16C20.4037 16 20.7678 16.2427 20.9231 16.6154L25.9231 28.6154C26.1355 29.1252 25.8944 29.7107 25.3846 29.9231C24.8748 30.1355 24.2894 29.8944 24.0769 29.3846L20 19.6L15.9231 29.3846C15.7107 29.8944 15.1252 30.1355 14.6154 29.9231C14.1056 29.7107 13.8645 29.1252 14.0769 28.6154L19.0769 16.6154C19.2322 16.2427 19.5963 16 20 16Z" fill="#333333"/>
<path fill-rule="evenodd" clip-rule="evenodd" d="M16 25H24V27H16V25Z" fill="#333333"/>
<path fill-rule="evenodd" clip-rule="evenodd" d="M30 22C30.5523 22 31 22.4477 31 23L31 29C31 29.5523 30.5523 30 30 30C29.4477 30 29 29.5523 29 29L29 23C29 22.4477 29.4477 22 30 22Z" fill="#333333"/>
<path fill-rule="evenodd" clip-rule="evenodd" d="M26 26C26 25.4477 26.4477 25 27 25L33 25C33.5523 25 34 25.4477 34 26C34 26.5523 33.5523 27 33 27L27 27C26.4477 27 26 26.5523 26 26Z" fill="#333333"/>
</svg>
