<svg width="48" height="48" viewBox="0 0 48 48" fill="none" xmlns="http://www.w3.org/2000/svg">
<path fill-rule="evenodd" clip-rule="evenodd" d="M30 15C29.4477 15 29 14.5523 29 14V6H16C14.8954 6 14 6.89543 14 8V36C14 37.1046 14.8954 38 16 38H36C37.1046 38 38 37.1046 38 36V15H30ZM40 14V36C40 38.2091 38.2091 40 36 40H16C13.7909 40 12 38.2091 12 36V8C12 5.79086 13.7909 4 16 4H30L40 14ZM31 7.82843L36.1716 13H31V7.82843Z" fill="#333333"/>
<path fill-rule="evenodd" clip-rule="evenodd" d="M9 8C9.55228 8 10 8.44772 10 9V38C10 40.2091 11.7909 42 14 42H35C35.5523 42 36 42.4477 36 43C36 43.5523 35.5523 44 35 44H14C10.6863 44 8 41.3137 8 38V9C8 8.44772 8.44772 8 9 8Z" fill="#333333"/>
<path fill-rule="evenodd" clip-rule="evenodd" d="M21.2929 20.2929C21.6834 19.9024 22.3166 19.9024 22.7071 20.2929L26 23.5858L29.2929 20.2929C29.6834 19.9024 30.3166 19.9024 30.7071 20.2929C31.0976 20.6834 31.0976 21.3166 30.7071 21.7071L27.4142 25L30.7071 28.2929C31.0976 28.6834 31.0976 29.3166 30.7071 29.7071C30.3166 30.0976 29.6834 30.0976 29.2929 29.7071L26 26.4142L22.7071 29.7071C22.3166 30.0976 21.6834 30.0976 21.2929 29.7071C20.9024 29.3166 20.9024 28.6834 21.2929 28.2929L24.5858 25L21.2929 21.7071C20.9024 21.3166 20.9024 20.6834 21.2929 20.2929Z" fill="#333333"/>
</svg>
