<svg width="48" height="48" viewBox="0 0 48 48" fill="none" xmlns="http://www.w3.org/2000/svg">
<path fill-rule="evenodd" clip-rule="evenodd" d="M23 6H26V9H24V11H26V14H24V16H26V19H24V21H26V24H25H23V6ZM21 24V6V4H23H26H28V6V24H30V17H32V24H34V26V40C34 42.2091 32.2091 44 30 44H18C15.7909 44 14 42.2091 14 40V26V24H15V14L17.5 12L20 14V24H21ZM20 26H18H17H16V40C16 41.1046 16.8954 42 18 42H30C31.1046 42 32 41.1046 32 40V26H28H26H23H21H20ZM18 24V14.9612L17.5 14.5612L17 14.9612V24H18ZM31 8C29.8954 8 29 8.89543 29 10V14V16H31H33V20C33.5523 20 34 19.5523 34 19V13C34 12.4477 33.5523 12 33 12V10C33 8.89543 32.1046 8 31 8Z" fill="#333333"/>
</svg>
