<svg width="48" height="48" viewBox="0 0 48 48" fill="none" xmlns="http://www.w3.org/2000/svg">
<path fill-rule="evenodd" clip-rule="evenodd" d="M24 42C33.9411 42 42 33.9411 42 24C42 14.0589 33.9411 6 24 6C14.0589 6 6 14.0589 6 24C6 33.9411 14.0589 42 24 42ZM24 44C35.0457 44 44 35.0457 44 24C44 12.9543 35.0457 4 24 4C12.9543 4 4 12.9543 4 24C4 35.0457 12.9543 44 24 44Z" fill="#333333"/>
<path fill-rule="evenodd" clip-rule="evenodd" d="M24 31C27.866 31 31 27.866 31 24C31 20.134 27.866 17 24 17C20.134 17 17 20.134 17 24C17 27.866 20.134 31 24 31ZM24 33C28.9706 33 33 28.9706 33 24C33 19.0294 28.9706 15 24 15C19.0294 15 15 19.0294 15 24C15 28.9706 19.0294 33 24 33Z" fill="#333333"/>
<mask id="mask0" mask-type="alpha" maskUnits="userSpaceOnUse" x="19" y="22" width="7" height="7">
<path d="M26 25.5C26 27.433 24.433 29 22.5 29C20.567 29 19 27.433 19 25.5C19 23.567 20.567 22 22.5 22C24.433 22 26 23.567 26 25.5Z" fill="#333333"/>
</mask>
<g mask="url(#mask0)">
</g>
<mask id="mask1" mask-type="alpha" maskUnits="userSpaceOnUse" x="19" y="22" width="7" height="7">
<path fill-rule="evenodd" clip-rule="evenodd" d="M22.5 28C23.8807 28 25 26.8807 25 25.5C25 24.1193 23.8807 23 22.5 23C21.1193 23 20 24.1193 20 25.5C20 26.8807 21.1193 28 22.5 28ZM22.5 29C24.433 29 26 27.433 26 25.5C26 23.567 24.433 22 22.5 22C20.567 22 19 23.567 19 25.5C19 27.433 20.567 29 22.5 29Z" fill="#333333"/>
</mask>
<g mask="url(#mask1)">
<path fill-rule="evenodd" clip-rule="evenodd" d="M27 22L20 29L18.5858 27.5858L25.5858 20.5858L27 22Z" fill="#333333"/>
<path fill-rule="evenodd" clip-rule="evenodd" d="M25 20L18 27L16.5858 25.5858L23.5858 18.5858L25 20Z" fill="#333333"/>
<path fill-rule="evenodd" clip-rule="evenodd" d="M28 25L21 32L19.5858 30.5858L26.5858 23.5858L28 25Z" fill="#333333"/>
</g>
<mask id="mask2" mask-type="alpha" maskUnits="userSpaceOnUse" x="11" y="11" width="7" height="7">
<path d="M14.5 11C16.433 11 18 12.567 18 14.5C18 16.433 16.433 18 14.5 18C12.567 18 11 16.433 11 14.5C11 12.567 12.567 11 14.5 11Z" fill="#333333"/>
</mask>
<g mask="url(#mask2)">
</g>
<mask id="mask3" mask-type="alpha" maskUnits="userSpaceOnUse" x="11" y="11" width="7" height="7">
<path fill-rule="evenodd" clip-rule="evenodd" d="M17 14.5C17 13.1193 15.8807 12 14.5 12C13.1193 12 12 13.1193 12 14.5C12 15.8807 13.1193 17 14.5 17C15.8807 17 17 15.8807 17 14.5ZM18 14.5C18 12.567 16.433 11 14.5 11C12.567 11 11 12.567 11 14.5C11 16.433 12.567 18 14.5 18C16.433 18 18 16.433 18 14.5Z" fill="#333333"/>
</mask>
<g mask="url(#mask3)">
<path fill-rule="evenodd" clip-rule="evenodd" d="M11 10L18 17L16.5858 18.4142L9.58581 11.4142L11 10Z" fill="#333333"/>
<path fill-rule="evenodd" clip-rule="evenodd" d="M9.00003 12L16 19L14.5858 20.4142L7.58581 13.4142L9.00003 12Z" fill="#333333"/>
<path fill-rule="evenodd" clip-rule="evenodd" d="M14 9L21 16L19.5858 17.4142L12.5858 10.4142L14 9Z" fill="#333333"/>
</g>
<mask id="mask4" mask-type="alpha" maskUnits="userSpaceOnUse" x="32" y="28" width="7" height="7">
<path d="M39 31.5C39 33.433 37.433 35 35.5 35C33.567 35 32 33.433 32 31.5C32 29.567 33.567 28 35.5 28C37.433 28 39 29.567 39 31.5Z" fill="#333333"/>
</mask>
<g mask="url(#mask4)">
</g>
<mask id="mask5" mask-type="alpha" maskUnits="userSpaceOnUse" x="32" y="28" width="7" height="7">
<path fill-rule="evenodd" clip-rule="evenodd" d="M35.5 34C36.8807 34 38 32.8807 38 31.5C38 30.1193 36.8807 29 35.5 29C34.1193 29 33 30.1193 33 31.5C33 32.8807 34.1193 34 35.5 34ZM35.5 35C37.433 35 39 33.433 39 31.5C39 29.567 37.433 28 35.5 28C33.567 28 32 29.567 32 31.5C32 33.433 33.567 35 35.5 35Z" fill="#333333"/>
</mask>
<g mask="url(#mask5)">
<path fill-rule="evenodd" clip-rule="evenodd" d="M40 28L33 35L31.5858 33.5858L38.5858 26.5858L40 28Z" fill="#333333"/>
<path fill-rule="evenodd" clip-rule="evenodd" d="M38 26L31 33L29.5858 31.5858L36.5858 24.5858L38 26Z" fill="#333333"/>
<path fill-rule="evenodd" clip-rule="evenodd" d="M41 31L34 38L32.5858 36.5858L39.5858 29.5858L41 31Z" fill="#333333"/>
</g>
<path fill-rule="evenodd" clip-rule="evenodd" d="M31 13C31.5523 13 32 12.5523 32 12C32 11.4477 31.5523 11 31 11C30.4477 11 30 11.4477 30 12C30 12.5523 30.4477 13 31 13ZM31 15C32.6569 15 34 13.6569 34 12C34 10.3431 32.6569 9 31 9C29.3431 9 28 10.3431 28 12C28 13.6569 29.3431 15 31 15Z" fill="#333333"/>
<path fill-rule="evenodd" clip-rule="evenodd" d="M13 33C13.5523 33 14 32.5523 14 32C14 31.4477 13.5523 31 13 31C12.4477 31 12 31.4477 12 32C12 32.5523 12.4477 33 13 33ZM13 35C14.6569 35 16 33.6569 16 32C16 30.3431 14.6569 29 13 29C11.3431 29 10 30.3431 10 32C10 33.6569 11.3431 35 13 35Z" fill="#333333"/>
</svg>
