<svg width="48" height="48" viewBox="0 0 48 48" fill="none" xmlns="http://www.w3.org/2000/svg">
<path fill-rule="evenodd" clip-rule="evenodd" d="M21.7448 5.17723C20.4411 3.31487 17.6204 3.52266 16.6038 5.55598L16.5724 5.6188C15.1628 5.14855 13.5156 5.73346 12.7896 7.18541C12.1887 8.38708 12.4243 9.83841 13.3743 10.7884L15.7126 13.1267C16.1914 13.6055 16.7624 13.9821 17.3911 14.2336L18.9756 14.8674C16.9876 14.9499 14.6485 15.2074 12.532 15.8106C11.3876 16.1368 10.5045 16.959 10.2503 18.0037C9.97867 19.1202 10.4886 20.2361 11.6308 20.8636C12.3415 21.2541 13.2415 21.6497 14.3823 22.039C14.4766 22.0712 14.5719 22.1002 14.6679 22.126C13.5482 23.2289 11.9434 24.2981 9.68359 25.0514L10.316 26.9488C13.5626 25.8666 15.7007 24.1681 17.0443 22.467C18.3788 22.5898 19.6794 22.5993 20.8383 22.4036C22.1056 22.1897 23.2963 21.7102 24.1453 20.7925C24.5728 20.9273 25.0279 21 25.5 21C25.8088 21 26.1103 20.9689 26.4015 20.9097C26.204 21.4505 26.061 22.0166 26.0156 22.6112C25.8618 24.6213 26.8374 26.5696 29.343 28.7538L30.6572 27.2462C28.3829 25.2636 27.9245 23.8786 28.0097 22.7637C28.0465 22.2825 28.188 21.7876 28.4192 21.2458C28.5387 21.6092 28.6876 21.9744 28.8707 22.3334C29.7051 23.9697 31.2383 25.445 33.7956 25.9788L34.2043 24.021C32.2902 23.6215 31.2359 22.569 30.6524 21.4248C30.3635 20.8582 30.1879 20.2624 30.0928 19.7056C30.5234 19.8949 30.9994 20 31.5 20C32.8962 20 34.1015 19.1825 34.6632 18H40V16H34.9646C34.7219 14.3039 33.2632 13 31.5 13C30.6037 13 29.7861 13.3369 29.1669 13.891C28.5594 13.0386 27.6621 12.4071 26.6188 12.1402L21.7448 5.17723ZM18.2963 20.5454C19.1023 20.5748 19.8464 20.5428 20.5054 20.4316C20.8491 20.3735 21.1587 20.2963 21.4358 20.1995L20.0792 19.7473C19.787 19.6499 19.4307 19.685 19.0475 19.8913C18.7628 20.0445 18.4995 20.2754 18.2963 20.5454ZM21.2688 18.0357C21.1317 17.6578 21.0437 17.2564 21.0126 16.8391C18.9082 16.8072 15.7673 16.9682 13.0801 17.734C12.4984 17.8998 12.2481 18.2529 12.1936 18.4766C12.1675 18.584 12.1782 18.6772 12.2183 18.7619C12.2588 18.8476 12.3567 18.9805 12.5938 19.1108C13.1823 19.4341 13.9721 19.7857 15.0283 20.1462C15.1666 20.1934 15.312 20.229 15.4597 20.252C15.6719 20.2851 15.8822 20.3159 16.0902 20.3442C16.1785 20.1992 16.2594 20.0563 16.3333 19.9165C16.7251 19.1752 17.3546 18.5311 18.0997 18.1301C18.849 17.7268 19.7804 17.5395 20.7117 17.85L21.2688 18.0357ZM24.2106 12.1875L20.1063 6.32416C19.6717 5.70337 18.7315 5.77264 18.3926 6.4504L18.2166 6.80237L23.7073 12.2931L23.5636 12.4368C23.771 12.3378 23.9872 12.2542 24.2106 12.1875ZM16.3743 7.78841L22.1176 13.5318C22.0242 13.6382 21.9357 13.7491 21.8525 13.864L18.1339 12.3766C17.7567 12.2257 17.4141 11.9998 17.1268 11.7125L14.7885 9.3742C14.4472 9.03292 14.3626 8.51153 14.5784 8.07984C14.9207 7.39527 15.8331 7.24722 16.3743 7.78841ZM23 16.5C23 15.1193 24.1193 14 25.5 14C26.8807 14 28 15.1193 28 16.5C28 17.8807 26.8807 19 25.5 19C24.1193 19 23 17.8807 23 16.5ZM30 16.5C30 17.3284 30.6716 18 31.5 18C32.3284 18 33 17.3284 33 16.5C33 15.6716 32.3284 15 31.5 15C30.6716 15 30 15.6716 30 16.5ZM25 35H28.5859L23.0001 40.5859L15.7072 33.293L14.293 34.7072L21.5858 42H12V44H36V42H24.4144L30 36.4144V40H32V33H25V35Z" fill="#333333"/>
</svg>
