<svg width="49" height="48" viewBox="0 0 49 48" fill="none" xmlns="http://www.w3.org/2000/svg">
<path fill-rule="evenodd" clip-rule="evenodd" d="M29.0859 35H25.4999V33H32.4999V40H30.4999V36.4144L24.9143 42H36.4999V44H12.4999V42H22.0857L14.7929 34.7072L16.2071 33.293L23.5 40.5859L29.0859 35Z" fill="#333333"/>
<path fill-rule="evenodd" clip-rule="evenodd" d="M24.4994 4C25.0517 4 25.4994 4.44772 25.4994 5V11.7892C25.4994 12.3415 25.0517 12.7892 24.4994 12.7892C23.9471 12.7892 23.4994 12.3415 23.4994 11.7892V5C23.4994 4.44772 23.9471 4 24.4994 4ZM26.4994 14L26.4995 15C26.4995 15.9021 26.8551 17.1605 27.8664 18.198C28.9008 19.2592 30.5317 20 32.9146 20C35.1916 20 36.7041 19.505 37.5984 18.6523C38.5318 17.7623 38.6318 16.6362 38.3808 15.8416L38.1855 15.2235L26.8855 13.9227C26.9753 13.8851 27.061 13.8337 27.1396 13.7682L28.9532 12.2569L31.7164 11.6428C32.2555 11.523 32.5954 10.9889 32.4756 10.4497C32.3558 9.91059 31.8216 9.57065 31.2825 9.69046L28.2825 10.3571C28.1268 10.3917 27.9817 10.463 27.8592 10.5651L25.8592 12.2318C25.435 12.5853 25.3776 13.2159 25.7312 13.6402C25.9289 13.8774 26.2131 13.9999 26.4994 14ZM36.3691 17.0277C36.33 17.086 36.2804 17.1455 36.2182 17.2048C35.8639 17.5426 34.9697 18 32.9146 18C30.9654 18 29.8887 17.4075 29.2986 16.802C29.0966 16.5948 28.941 16.3754 28.8232 16.159L36.3691 17.0277ZM22.4994 15L22.4995 14C22.7858 13.9999 23.07 13.8774 23.2677 13.6402C23.6212 13.2159 23.5639 12.5853 23.1396 12.2318L21.1396 10.5651C21.0171 10.463 20.872 10.3917 20.7164 10.3571L17.7164 9.69048C17.1772 9.57067 16.6431 9.9106 16.5233 10.4497C16.4035 10.9889 16.7434 11.523 17.2825 11.6429L20.0457 12.2569L21.8593 13.7682C21.9379 13.8337 22.0236 13.8851 22.1133 13.9227L10.8134 15.2235L10.6181 15.8416C10.3671 16.6362 10.4671 17.7623 11.4005 18.6523C12.2948 19.505 13.8073 20 16.0843 20C18.4672 20 20.0981 19.2592 21.1325 18.198C22.1437 17.1605 22.4994 15.9021 22.4994 15ZM12.6298 17.0277C12.6689 17.086 12.7185 17.1455 12.7807 17.2048C13.135 17.5426 14.0292 18 16.0843 18C18.0335 18 19.1102 17.4075 19.7003 16.802C19.9023 16.5948 20.0579 16.3754 20.1757 16.159L12.6298 17.0277ZM21.4996 19.2199C21.9304 18.8744 22.5598 18.9435 22.9054 19.3743C23.2509 19.8051 23.1818 20.4345 22.751 20.7801L20.9017 22.2634L19.557 24.1454C19.4191 24.3384 19.2171 24.4761 18.987 24.5339L16.6128 25.1303C16.0771 25.2649 15.5338 24.9397 15.3993 24.4041C15.2647 23.8684 15.5899 23.3251 16.1255 23.1906L18.1433 22.6837L19.3546 20.9883C19.4079 20.9138 19.4711 20.8469 19.5426 20.7896L21.4996 19.2199ZM22.2665 22.3197C22.6422 21.9149 23.275 21.8913 23.6797 22.2671C24.0845 22.6428 24.1081 23.2755 23.7324 23.6803L22.6271 24.8711L23.1041 27.1544C23.1732 27.4847 23.071 27.8275 22.8324 28.0661L21.1913 29.7071C20.8008 30.0977 20.1676 30.0977 19.7771 29.7071C19.3866 29.3166 19.3866 28.6835 19.7771 28.2929L21.0358 27.0342L20.5636 24.7742C20.4973 24.4569 20.589 24.127 20.8096 23.8894L22.2665 22.3197ZM27.5719 19.18C27.119 18.8639 26.4956 18.9747 26.1795 19.4276C25.8634 19.8804 25.9742 20.5038 26.427 20.82L28.5343 22.2911L29.8591 24.1453C29.9971 24.3383 30.1991 24.4761 30.4292 24.5338L32.8034 25.1303C33.339 25.2648 33.8823 24.9397 34.0169 24.404C34.1514 23.8684 33.8263 23.3251 33.2906 23.1905L31.2728 22.6836L30.0615 20.9883C29.9953 20.8956 29.9137 20.8149 29.8203 20.7497L27.5719 19.18ZM26.6415 22.2334C26.2181 21.8787 25.5874 21.9345 25.2328 22.3579C24.8782 22.7813 24.934 23.412 25.3574 23.7666L26.7722 24.9516L26.312 27.1544C26.243 27.4846 26.3452 27.8274 26.5837 28.066L28.2248 29.7071C28.6154 30.0976 29.2485 30.0976 29.639 29.7071C30.0296 29.3166 30.0296 28.6834 29.639 28.2929L28.3803 27.0341L28.8525 24.7742C28.928 24.4131 28.7985 24.0399 28.5157 23.803L26.6415 22.2334Z" fill="#333333"/>
<path fill-rule="evenodd" clip-rule="evenodd" d="M24.0339 14.0736C23.7143 15.0325 23.4995 16.4207 23.4995 18C23.4995 19.5793 23.7143 20.9675 24.0339 21.9264C24.1928 22.4031 24.3602 22.7206 24.4995 22.9007C24.6387 22.7206 24.8061 22.4031 24.965 21.9264C25.2846 20.9675 25.4995 19.5793 25.4995 18C25.4995 16.4207 25.2846 15.0325 24.965 14.0736C24.8061 13.5969 24.6387 13.2794 24.4995 13.0993C24.3602 13.2794 24.1928 13.5969 24.0339 14.0736ZM22.9356 11.8525C23.2647 11.4349 23.7856 11 24.4995 11C25.2133 11 25.7343 11.4349 26.0634 11.8525C26.4013 12.2814 26.662 12.84 26.8624 13.4411C27.2666 14.6538 27.4995 16.2656 27.4995 18C27.4995 19.7344 27.2666 21.3462 26.8624 22.5589C26.662 23.16 26.4013 23.7186 26.0634 24.1475C25.7343 24.5651 25.2133 25 24.4995 25C23.7856 25 23.2647 24.5651 22.9356 24.1475C22.5976 23.7186 22.3369 23.16 22.1366 22.5589C21.7323 21.3462 21.4995 19.7344 21.4995 18C21.4995 16.2656 21.7323 14.6538 22.1366 13.4411C22.3369 12.84 22.5976 12.2814 22.9356 11.8525Z" fill="#333333"/>
</svg>
