<svg width="48" height="48" viewBox="0 0 48 48" fill="none" xmlns="http://www.w3.org/2000/svg">
<path fill-rule="evenodd" clip-rule="evenodd" d="M24 42C33.9411 42 42 33.9411 42 24C42 14.0589 33.9411 6 24 6C14.0589 6 6 14.0589 6 24C6 33.9411 14.0589 42 24 42ZM24 44C35.0457 44 44 35.0457 44 24C44 12.9543 35.0457 4 24 4C12.9543 4 4 12.9543 4 24C4 35.0457 12.9543 44 24 44ZM25 22V34C25 34.5523 24.5523 35 24 35C23.4477 35 23 34.5523 23 34V22C23 21.4477 23.4477 21 24 21C24.5523 21 25 21.4477 25 22ZM24 37C22.3431 37 21 35.6569 21 34V22C21 20.3431 22.3431 19 24 19C25.6569 19 27 20.3431 27 22V34C27 35.6569 25.6569 37 24 37ZM24 13C23.4477 13 23 13.4477 23 14C23 14.5523 23.4477 15 24 15C24.5523 15 25 14.5523 25 14C25 13.4477 24.5523 13 24 13ZM21 14C21 15.6569 22.3431 17 24 17C25.6569 17 27 15.6569 27 14C27 12.3431 25.6569 11 24 11C22.3431 11 21 12.3431 21 14Z" fill="#333333"/>
</svg>
