<svg width="48" height="48" viewBox="0 0 48 48" fill="none" xmlns="http://www.w3.org/2000/svg">
<path d="M23 7.99976C23 7.44747 23.4477 6.99976 24 6.99976C24.5523 6.99976 25 7.44747 25 7.99976V35.9998C25 36.552 24.5523 36.9998 24 36.9998C23.4477 36.9998 23 36.552 23 35.9998V7.99976Z" fill="#333333"/>
<path d="M9.06667 7.96655C8.47756 7.96655 8 7.48899 8 6.89989C8 6.31078 8.47756 5.83322 9.06667 5.83322L22.9333 5.83322C23.5224 5.83322 24 6.31078 24 6.89989C24 7.48899 23.5224 7.96655 22.9333 7.96655L9.06667 7.96655Z" fill="#333333"/>
<path d="M25.0667 7.96655C24.4776 7.96655 24 7.48899 24 6.89989C24 6.31078 24.4776 5.83322 25.0667 5.83322L38.9333 5.83322C39.5224 5.83322 40 6.31078 40 6.89989C40 7.48899 39.5224 7.96655 38.9333 7.96655L25.0667 7.96655Z" fill="#333333"/>
<path fill-rule="evenodd" clip-rule="evenodd" d="M24 42C25.1046 42 26 41.1046 26 40C26 38.8954 25.1046 38 24 38C22.8954 38 22 38.8954 22 40C22 41.1046 22.8954 42 24 42ZM24 44C26.2091 44 28 42.2091 28 40C28 37.7909 26.2091 36 24 36C21.7909 36 20 37.7909 20 40C20 42.2091 21.7909 44 24 44Z" fill="#333333"/>
</svg>
