<svg width="48" height="48" viewBox="0 0 48 48" fill="none" xmlns="http://www.w3.org/2000/svg">
<path fill-rule="evenodd" clip-rule="evenodd" d="M19.8577 11.5322C18.983 10.4832 17.8537 9.87379 16.7534 10.0229C13.4636 10.4688 10.0817 13.7961 8.66381 17.9481C7.27437 22.0167 7.89096 26.5154 12.1198 29.3537C12.89 29.8706 13.4683 30.0376 13.9703 29.9931C14.4751 29.9484 15.101 29.6719 15.9245 28.8769C16.5963 28.2284 17.0808 26.9614 17.3732 25.3425C17.6565 23.774 17.7259 22.0784 17.7259 20.7831C17.7259 19.0891 18.6363 17.8221 19.3988 16.8578C19.516 16.7096 19.6279 16.5708 19.735 16.438C20.0016 16.1075 20.238 15.8144 20.4505 15.506C20.7383 15.0884 20.91 14.7394 20.9768 14.413C21.0326 14.1409 21.0001 13.7042 20.8017 13.1524C20.6085 12.6152 20.2837 12.043 19.8577 11.5322ZM22.6838 12.4757C22.955 13.2299 23.0911 14.0583 22.9361 14.8145C22.7923 15.5163 22.4549 16.122 22.0974 16.6408C21.8387 17.0162 21.5308 17.398 21.2475 17.7491C21.1503 17.8696 21.056 17.9865 20.9676 18.0983C20.2201 19.0436 19.7259 19.833 19.7259 20.7831C19.7259 22.1317 19.655 23.9615 19.3413 25.6979C19.0368 27.384 18.4678 29.2017 17.3136 30.3159C16.3111 31.2836 15.2788 31.8849 14.1469 31.9853C13.0122 32.0859 11.9753 31.6654 11.0052 31.0143C5.82338 27.5364 5.17583 21.9731 6.77113 17.3018C8.33794 12.7138 12.1897 8.62324 16.4847 8.04106C18.5309 7.76371 20.281 8.9169 21.3937 10.2513C21.9615 10.9322 22.4073 11.7069 22.6838 12.4757Z" fill="#333333"/>
<path fill-rule="evenodd" clip-rule="evenodd" d="M18.9114 23.1628C18.9118 23.1629 18.9122 23.163 19.1831 22.2004C19.4541 21.2378 19.4545 21.2379 19.4549 21.238L19.4579 21.2389L19.4628 21.2403L19.4761 21.2442C19.4863 21.2472 19.4994 21.2512 19.5152 21.2561C19.5468 21.266 19.5892 21.2798 19.6409 21.2978C19.744 21.3337 19.8852 21.3869 20.0521 21.4599C20.383 21.6048 20.829 21.8342 21.2806 22.1732C22.1901 22.8557 23.1776 24.0347 23.1776 25.8524V39.7573C23.1776 39.7574 23.1776 39.7578 22.1776 39.7578C21.1776 39.7578 21.1776 39.7578 21.1776 39.7577V25.8524C21.1776 24.8609 20.6679 24.2139 20.0801 23.7728C19.7831 23.5498 19.4804 23.3929 19.25 23.292C19.136 23.2422 19.0434 23.2075 18.9827 23.1864C18.9525 23.1759 18.9306 23.1688 18.9183 23.165L18.9074 23.1616C18.9068 23.1615 18.9066 23.1614 18.9074 23.1616L18.9094 23.1622L18.9114 23.1628Z" fill="#333333"/>
<path fill-rule="evenodd" clip-rule="evenodd" d="M28.3199 11.5322C29.1946 10.4832 30.3239 9.87379 31.4242 10.0229C34.714 10.4688 38.0959 13.7961 39.5138 17.9481C40.9032 22.0167 40.2866 26.5154 36.0578 29.3537C35.2877 29.8706 34.7093 30.0376 34.2073 29.9931C33.7025 29.9484 33.0766 29.6719 32.2531 28.8769C31.5813 28.2284 31.0969 26.9614 30.8044 25.3425C30.5212 23.774 30.4517 22.0784 30.4517 20.7831C30.4517 19.0891 29.5413 17.8221 28.7788 16.8578C28.6616 16.7096 28.5497 16.5708 28.4426 16.438C28.176 16.1075 27.9396 15.8144 27.7271 15.506C27.4394 15.0884 27.2677 14.7394 27.2008 14.413C27.145 14.1409 27.1775 13.7042 27.3759 13.1524C27.5691 12.6152 27.8939 12.043 28.3199 11.5322ZM25.4939 12.4757C25.2226 13.2299 25.0865 14.0583 25.2415 14.8145C25.3853 15.5163 25.7228 16.122 26.0802 16.6408C26.3389 17.0162 26.6468 17.398 26.9301 17.7491C27.0273 17.8696 27.1216 17.9865 27.21 18.0983C27.9575 19.0436 28.4517 19.833 28.4517 20.7831C28.4517 22.1317 28.5227 23.9615 28.8363 25.6979C29.1408 27.384 29.7098 29.2017 30.864 30.3159C31.8665 31.2836 32.8988 31.8849 34.0307 31.9853C35.1654 32.0859 36.2023 31.6654 37.1724 31.0143C42.3542 27.5364 43.0018 21.9731 41.4065 17.3018C39.8397 12.7138 35.9879 8.62324 31.6929 8.04106C29.6467 7.76371 27.8966 8.9169 26.7839 10.2513C26.2162 10.9322 25.7703 11.7069 25.4939 12.4757Z" fill="#333333"/>
<path fill-rule="evenodd" clip-rule="evenodd" d="M29.2662 23.1628C29.2658 23.1629 29.2654 23.163 28.9945 22.2004C28.7236 21.2378 28.7231 21.2379 28.7227 21.238L28.7197 21.2389L28.7148 21.2403L28.7016 21.2442C28.6913 21.2472 28.6782 21.2512 28.6624 21.2561C28.6308 21.266 28.5884 21.2798 28.5368 21.2978C28.4336 21.3337 28.2924 21.3869 28.1255 21.4599C27.7946 21.6048 27.3486 21.8342 26.897 22.1732C25.9875 22.8557 25 24.0347 25 25.8524V39.7573C25 39.7574 25 39.7578 26 39.7578C27 39.7578 27 39.7578 27 39.7577V25.8524C27 24.8609 27.5097 24.2139 28.0975 23.7728C28.3945 23.5498 28.6972 23.3929 28.9277 23.292C29.0416 23.2422 29.1342 23.2075 29.1949 23.1864C29.2251 23.1759 29.247 23.1688 29.2593 23.165L29.2702 23.1616C29.2708 23.1615 29.271 23.1614 29.2702 23.1616L29.2682 23.1622L29.2662 23.1628Z" fill="#333333"/>
</svg>
