<svg width="48" height="48" viewBox="0 0 48 48" fill="none" xmlns="http://www.w3.org/2000/svg">
<path fill-rule="evenodd" clip-rule="evenodd" d="M37.4345 9.44336C38.3501 10.505 39.4009 12.3715 40.9052 15.5749C42.55 19.0774 42.2952 23.5958 41.7079 26.8558C41.4103 28.5073 41.0142 29.9081 40.6825 30.7903C40.5991 31.0122 40.5156 31.2125 40.4342 31.3815C40.362 31.5312 40.2605 31.7229 40.1283 31.8796C40.0769 31.9405 39.9206 32.1212 39.6579 32.2216C39.5047 32.2801 39.2834 32.3228 39.0323 32.2599C38.7778 32.1961 38.5968 32.0499 38.4833 31.9124C38.2918 31.6804 38.2507 31.4274 38.2384 31.3466C38.2205 31.2287 38.2185 31.1149 38.2207 31.0224L38.2212 30.9991L38.2228 30.9759C38.4853 27.2408 38.3694 24.5565 37.606 22.1581C36.8766 19.8664 35.5271 17.7476 33.1691 15.1956L31.4611 15.1956L29.5144 13.2489L29.5905 12.749C29.7523 11.6851 30.4983 10.5307 31.3171 9.68162C31.7422 9.24074 32.2293 8.83695 32.7428 8.53741C33.2456 8.2441 33.8425 8.01085 34.4677 8.01083C34.9123 8.01082 35.4169 8.05069 35.9511 8.28162C36.4835 8.51176 36.9607 8.89407 37.4345 9.44336ZM35.1575 10.1174C34.9821 10.0416 34.7892 10.0108 34.4677 10.0108C34.3267 10.0108 34.0838 10.0705 33.7506 10.2649C33.428 10.4531 33.0828 10.7318 32.7567 11.0699C32.2553 11.5899 31.8891 12.1535 31.7007 12.6068L32.2895 13.1956L34.035 13.1956L34.3311 13.5095C36.9855 16.3243 38.6285 18.7762 39.5118 21.5515C39.7589 22.3276 39.944 23.1215 40.0766 23.9466C40.289 21.3705 40.1157 18.599 39.0948 16.425C37.5825 13.2046 36.6333 11.5766 35.92 10.7496C35.5793 10.3546 35.3348 10.1941 35.1575 10.1174Z" fill="currentColor"/>
<path fill-rule="evenodd" clip-rule="evenodd" d="M29.3462 16.8864L27.932 15.4722L26.9203 16.4838L28.3345 17.8981L29.3462 16.8864ZM27.932 12.6437L24.0918 16.4838L28.3345 20.7265L32.1746 16.8864L27.932 12.6437Z" fill="currentColor"/>
<path fill-rule="evenodd" clip-rule="evenodd" d="M11.0307 36.6162L24.268 23.3789C25.049 22.5979 25.049 21.3315 24.268 20.5505C23.4869 19.7694 22.2206 19.7694 21.4396 20.5505L8.2023 33.7877C7.42125 34.5688 7.42125 35.8351 8.2023 36.6162C8.98335 37.3972 10.2497 37.3972 11.0307 36.6162ZM25.6822 19.1363C24.1201 17.5742 21.5874 17.5742 20.0253 19.1363L6.78809 32.3735C5.22599 33.9356 5.22599 36.4683 6.78809 38.0304C8.35019 39.5925 10.8828 39.5925 12.4449 38.0304L25.6822 24.7931C27.2443 23.231 27.2443 20.6984 25.6822 19.1363Z" fill="currentColor"/>
</svg>
