<svg width="48" height="48" viewBox="0 0 48 48" fill="none" xmlns="http://www.w3.org/2000/svg">
<path fill-rule="evenodd" clip-rule="evenodd" d="M12 6H36C37.1046 6 38 6.89543 38 8V13.5858L34.7071 10.2929L33.2929 11.7071L38 16.4142V18.5858L34.7071 15.2929L33.2929 16.7071L38 21.4142V23.5858L34.7071 20.2929L33.2929 21.7071L38 26.4142V28.5858L34.7071 25.2929L33.2929 26.7071L38 31.4142V33.5858L34.7071 30.2929L33.2929 31.7071L38 36.4142V40C38 41.1046 37.1046 42 36 42H12C10.8954 42 10 41.1046 10 40V36.4142L14.7071 31.7071L13.2929 30.2929L10 33.5858V31.4142L14.7071 26.7071L13.2929 25.2929L10 28.5858V26.4142L14.7071 21.7071L13.2929 20.2929L10 23.5858V21.4142L14.7071 16.7071L13.2929 15.2929L10 18.5858V16.4142L14.7071 11.7071L13.2929 10.2929L10 13.5858V8C10 6.89543 10.8954 6 12 6ZM8 8C8 5.79086 9.79086 4 12 4H36C38.2091 4 40 5.79086 40 8V40C40 42.2091 38.2091 44 36 44H12C9.79086 44 8 42.2091 8 40V8ZM20 10H28C28.9317 10 29.7146 10.6371 29.9368 11.4993C29.363 11.1812 28.7026 11 28 11H20C19.2974 11 18.637 11.1812 18.0632 11.4993C18.2854 10.6371 19.0683 10 20 10ZM32 12V15V35C32 37.2091 30.2091 39 28 39H20C17.7909 39 16 37.2091 16 35V15V12C16 9.79086 17.7909 8 20 8H28C30.2091 8 32 9.79086 32 12ZM28 13C29.1046 13 30 13.8954 30 15V35C30 36.1046 29.1046 37 28 37H20C18.8954 37 18 36.1046 18 35V15C18 13.8954 18.8954 13 20 13H28ZM24 20C25.1046 20 26 19.1046 26 18C26 16.8954 25.1046 16 24 16C22.8954 16 22 16.8954 22 18C22 19.1046 22.8954 20 24 20Z" fill="#333333"/>
</svg>
