<svg width="48" height="48" viewBox="0 0 48 48" fill="none" xmlns="http://www.w3.org/2000/svg">
<path fill-rule="evenodd" clip-rule="evenodd" d="M18.3616 14.4281C17.9857 14.0417 17.4485 13.7416 16.4944 13.7424C16.1761 13.7426 15.718 13.877 15.0999 14.3973C14.4755 14.9229 13.8025 15.7511 13.1201 16.8837C11.7568 19.1464 10.5551 22.2871 9.65261 25.6089C8.75354 28.9179 8.18539 32.2799 8.0308 34.9299C7.9531 36.2619 7.98437 37.343 8.10186 38.1178C8.16054 38.5048 8.23255 38.7589 8.29188 38.9068C8.29797 38.922 8.30354 38.9351 8.30852 38.9463C9.26857 39.6754 10.907 39.9662 12.9417 39.5699C14.9997 39.169 17.0171 38.1377 18.2942 36.862C18.7374 36.4192 19.1338 35.6888 19.4295 34.5998C19.7217 33.5235 19.8777 32.2384 19.9432 30.8381C20.0084 29.4452 19.9818 28.0055 19.9359 26.6304C19.9233 26.2532 19.909 25.8747 19.8948 25.502C19.8589 24.5552 19.8244 23.6453 19.8237 22.8853C19.8235 22.6274 19.8258 22.3542 19.8282 22.0692C19.8421 20.4219 19.8594 18.3795 19.413 16.6049C19.158 15.5912 18.7954 14.8739 18.3616 14.4281ZM8.33561 39.0002C8.33559 39.0003 8.33466 38.9989 8.33292 38.9958C8.33477 38.9986 8.33564 39.0001 8.33561 39.0002ZM21.8287 22.1383C21.8636 18.6096 21.9316 11.7379 16.4927 11.7424C9.04214 11.7485 3.74153 37.7593 6.93685 40.4104C10.1322 43.0615 16.5171 41.464 19.7076 38.2769C22.2835 35.7039 22.0555 29.6964 21.8919 25.3839C21.8566 24.4547 21.8243 23.6041 21.8237 22.8836C21.8236 22.6577 21.826 22.4077 21.8287 22.1383Z" fill="#333333"/>
<path fill-rule="evenodd" clip-rule="evenodd" d="M29.5788 14.4186C29.9541 14.0316 30.4908 13.7306 31.4449 13.7298C31.7632 13.7295 32.2215 13.8632 32.8404 14.3824C33.4657 14.907 34.14 15.7341 34.8243 16.8656C36.1913 19.1261 37.3982 22.2649 38.3061 25.5851C39.2106 28.8926 39.7843 32.2537 39.9432 34.9035C40.0231 36.2353 39.9936 37.3164 39.8774 38.0915C39.8193 38.4786 39.7477 38.7328 39.6886 38.8808C39.6826 38.896 39.677 38.9091 39.6721 38.9203C38.7132 39.651 37.0753 39.9444 35.0399 39.5515C32.9812 39.154 30.9622 38.1259 29.683 36.8523C29.2391 36.4103 28.8414 35.6805 28.544 34.5921C28.25 33.5162 28.0919 32.2314 28.0241 30.8311C27.9566 29.4384 27.9809 27.9986 28.0245 26.6235C28.0365 26.2462 28.0502 25.8678 28.0638 25.495C28.0981 24.5482 28.1312 23.6382 28.1305 22.8782C28.1303 22.6203 28.1276 22.3471 28.1247 22.0621C28.1081 20.4148 28.0875 18.3724 28.531 16.5971C28.7843 15.583 29.1458 14.8651 29.5788 14.4186ZM39.6451 38.9743C39.6451 38.9743 39.646 38.9729 39.6477 38.9699C39.6459 38.9727 39.645 38.9742 39.6451 38.9743ZM26.1244 22.1345C26.0837 18.6059 26.0044 11.7343 31.4433 11.7298C38.8939 11.7237 44.2371 37.7258 41.0461 40.3821C37.8552 43.0385 31.4676 41.4515 28.2719 38.2696C25.6918 35.7008 25.9099 29.6929 26.0665 25.3802C26.1002 24.4509 26.1311 23.6003 26.1305 22.8798C26.1304 22.6539 26.1275 22.4039 26.1244 22.1345Z" fill="#333333"/>
<path fill-rule="evenodd" clip-rule="evenodd" d="M22.9631 5.73725C22.9631 5.73717 22.9631 5.73712 23.9631 5.7363C24.9631 5.73549 24.9631 5.73553 24.9631 5.73561L24.975 20.2355C24.9767 22.3377 24.0417 23.5441 22.9821 24.1634C22.4849 24.454 21.9964 24.5952 21.6382 24.6651C21.4572 24.7005 21.3036 24.7188 21.1906 24.7283C21.1339 24.7331 21.0869 24.7357 21.0512 24.7371C21.0333 24.7378 21.0182 24.7382 21.0061 24.7384L20.9901 24.7387L20.9838 24.7387L20.9811 24.7388L20.9798 24.7388C20.9792 24.7388 20.9786 24.7388 20.9778 23.7388C20.977 22.7388 20.9765 22.7388 20.9759 22.7388L20.9749 22.7388L20.973 22.7388L20.9699 22.7388L20.9668 22.7388C20.9668 22.7388 20.9684 22.7388 20.9718 22.7387C20.9801 22.7383 20.9975 22.7375 21.0229 22.7353C21.0739 22.731 21.1547 22.7218 21.2549 22.7022C21.4591 22.6623 21.7204 22.5842 21.9729 22.4367C22.4125 22.1797 22.9761 21.6349 22.975 20.2371L22.9631 5.73725Z" fill="#333333"/>
<path fill-rule="evenodd" clip-rule="evenodd" d="M24.9632 5.73566C24.9632 5.73558 24.9632 5.73553 23.9632 5.73635C22.9632 5.73717 22.9632 5.73721 22.9632 5.7373L22.9751 20.2372C22.9768 22.3394 23.9137 23.5443 24.9744 24.1618C25.4721 24.4516 25.9607 24.592 26.3191 24.6614C26.5001 24.6964 26.6538 24.7144 26.7668 24.7238C26.8235 24.7284 26.8705 24.731 26.9062 24.7323C26.9241 24.733 26.9392 24.7334 26.9513 24.7336L26.9673 24.7338L26.9736 24.7339L26.9763 24.7339L26.9776 24.7339C26.9782 24.7339 26.9787 24.7339 26.9779 23.7339C26.9771 22.7339 26.9777 22.7339 26.9782 22.7339L26.9793 22.7339L26.9812 22.7339L26.9842 22.7339L26.9873 22.734C26.9873 22.734 26.9857 22.7339 26.9823 22.7338C26.9741 22.7335 26.9566 22.7326 26.9312 22.7305C26.8802 22.7263 26.7994 22.7172 26.6992 22.6978C26.4949 22.6583 26.2334 22.5806 25.9807 22.4334C25.5407 22.1772 24.9762 21.6333 24.9751 20.2355L24.9632 5.73566Z" fill="#333333"/>
</svg>
