<svg width="48" height="49" viewBox="0 0 48 49" fill="none" xmlns="http://www.w3.org/2000/svg">
<path fill-rule="evenodd" clip-rule="evenodd" d="M24 42.5C33.9411 42.5 42 34.4411 42 24.5C42 14.5589 33.9411 6.5 24 6.5C14.0589 6.5 6 14.5589 6 24.5C6 34.4411 14.0589 42.5 24 42.5ZM24 44.5C35.0457 44.5 44 35.5457 44 24.5C44 13.4543 35.0457 4.5 24 4.5C12.9543 4.5 4 13.4543 4 24.5C4 35.5457 12.9543 44.5 24 44.5ZM12.4422 21.229C13.4726 21.0238 14.8238 20.4178 16.1685 19.3786C17.5132 18.3394 18.4404 17.1847 18.8988 16.2394C19.2077 15.6023 19.2226 15.2692 19.2109 15.1387C19.0875 15.0945 18.7615 15.0248 18.0671 15.1631C17.0367 15.3683 15.6854 15.9743 14.3407 17.0135C12.996 18.0526 12.0688 19.2074 11.6104 20.1527C11.3015 20.7898 11.2867 21.1229 11.2983 21.2534C11.4217 21.2976 11.7478 21.3673 12.4422 21.229ZM9.69277 22.4942C10.8729 24.0213 14.3197 23.3349 17.3914 20.9611C20.4632 18.5873 21.9966 15.425 20.8165 13.8979C19.6363 12.3708 16.1895 13.0572 13.1178 15.431C10.0461 17.8047 8.51263 20.9671 9.69277 22.4942ZM30.3533 29.7476C31.7897 30.615 32.8287 31.6422 33.3839 32.5157C33.7447 33.0834 33.8045 33.4025 33.8111 33.5363C33.6896 33.5927 33.3794 33.6884 32.709 33.6335C31.6775 33.5488 30.2846 33.1078 28.8481 32.2404C27.4116 31.3731 26.3727 30.3458 25.8175 29.4724C25.4566 28.9047 25.3969 28.5855 25.3903 28.4518C25.5117 28.3953 25.822 28.2996 26.4924 28.3546C27.5239 28.4392 28.9168 28.8803 30.3533 29.7476ZM31.387 28.0355C34.6736 30.02 36.5382 32.9532 35.5516 34.5872C34.565 36.2211 31.1009 35.937 27.8143 33.9525C24.5277 31.9681 22.6632 29.0348 23.6498 27.4009C24.6363 25.7669 28.1004 26.0511 31.387 28.0355ZM31.5856 21.0796C31.6107 20.0285 31.3145 18.5765 30.5939 17.0361C29.8734 15.4958 28.9487 14.3378 28.1258 13.6833C27.5702 13.2415 27.2479 13.1545 27.1181 13.1375C27.0479 13.248 26.9081 13.5512 26.8912 14.2608C26.8661 15.312 27.1623 16.764 27.8829 18.3043C28.6034 19.8446 29.5281 21.0027 30.351 21.6571C30.9066 22.099 31.2289 22.1859 31.3587 22.2029C31.4289 22.0924 31.5687 21.7892 31.5856 21.0796ZM32.2184 24.0407C33.9676 23.2225 34.0513 19.707 32.4055 16.1887C30.7597 12.6704 28.0075 10.4815 26.2584 11.2997C24.5092 12.1179 24.4255 15.6334 26.0713 19.1517C27.7171 22.6701 30.4693 24.8589 32.2184 24.0407ZM18.7808 32.0167C19.5643 33.5754 19.9115 35.0581 19.9163 36.1417C19.9197 36.9259 19.7637 37.241 19.6952 37.3442C19.5716 37.3376 19.2256 37.2748 18.5983 36.8042C17.7315 36.1539 16.7486 34.9909 15.9651 33.4322C15.1815 31.8735 14.8344 30.3909 14.8296 29.3072C14.8261 28.523 14.9822 28.2079 15.0506 28.1048C15.1742 28.1114 15.5202 28.1741 16.1475 28.6447C17.0144 29.295 17.9973 30.458 18.7808 32.0167ZM20.5677 31.1184C22.3518 34.6675 22.3678 38.2637 20.6033 39.1506C18.8389 40.0376 15.9622 37.8795 14.1781 34.3305C12.394 30.7814 12.3781 27.1853 14.1425 26.2983C15.907 25.4113 18.7836 27.5694 20.5677 31.1184ZM18.1045 16.7573C18.1045 17.3096 17.6567 17.7573 17.1045 17.7573C16.5522 17.7573 16.1045 17.3096 16.1045 16.7573C16.1045 16.205 16.5522 15.7573 17.1045 15.7573C17.6567 15.7573 18.1045 16.205 18.1045 16.7573ZM15.1873 17.9941C15.4635 17.9941 15.6873 17.7703 15.6873 17.4941C15.6873 17.218 15.4635 16.9941 15.1873 16.9941C14.9112 16.9941 14.6873 17.218 14.6873 17.4941C14.6873 17.7703 14.9112 17.9941 15.1873 17.9941ZM16.4205 18.4761C16.4205 18.7522 16.1966 18.9761 15.9205 18.9761C15.6444 18.9761 15.4205 18.7522 15.4205 18.4761C15.4205 18.1999 15.6444 17.9761 15.9205 17.9761C16.1966 17.9761 16.4205 18.1999 16.4205 18.4761ZM27.7752 30.8802C28.3275 30.8802 28.7752 30.4325 28.7752 29.8802C28.7752 29.3279 28.3275 28.8802 27.7752 28.8802C27.2229 28.8802 26.7752 29.3279 26.7752 29.8802C26.7752 30.4325 27.2229 30.8802 27.7752 30.8802ZM29.8234 30.9788C29.8234 31.2291 29.6205 31.4319 29.3703 31.4319C29.12 31.4319 28.9172 31.2291 28.9172 30.9788C28.9172 30.7286 29.12 30.5257 29.3703 30.5257C29.6205 30.5257 29.8234 30.7286 29.8234 30.9788ZM28.9516 18.0108C29.5039 18.0108 29.9516 17.563 29.9516 17.0108C29.9516 16.4585 29.5039 16.0108 28.9516 16.0108C28.3993 16.0108 27.9516 16.4585 27.9516 17.0108C27.9516 17.563 28.3993 18.0108 28.9516 18.0108ZM28.6783 15.0008C28.6783 15.3874 28.3649 15.7008 27.9783 15.7008C27.5917 15.7008 27.2783 15.3874 27.2783 15.0008C27.2783 14.6142 27.5917 14.3008 27.9783 14.3008C28.3649 14.3008 28.6783 14.6142 28.6783 15.0008ZM16.7688 32.8177C17.3211 32.8177 17.7688 32.37 17.7688 31.8177C17.7688 31.2654 17.3211 30.8177 16.7688 30.8177C16.2165 30.8177 15.7688 31.2654 15.7688 31.8177C15.7688 32.37 16.2165 32.8177 16.7688 32.8177ZM18.7307 32.9945C18.7307 33.2447 18.5278 33.4476 18.2776 33.4476C18.0273 33.4476 17.8245 33.2447 17.8245 32.9945C17.8245 32.7442 18.0273 32.5413 18.2776 32.5413C18.5278 32.5413 18.7307 32.7442 18.7307 32.9945ZM15.8969 30.4965C16.2835 30.4965 16.5969 30.1831 16.5969 29.7965C16.5969 29.4099 16.2835 29.0965 15.8969 29.0965C15.5103 29.0965 15.1969 29.4099 15.1969 29.7965C15.1969 30.1831 15.5103 30.4965 15.8969 30.4965Z" fill="#333333"/>
</svg>
