<svg width="48" height="48" viewBox="0 0 48 48" fill="none" xmlns="http://www.w3.org/2000/svg">
<path fill-rule="evenodd" clip-rule="evenodd" d="M24.0001 5C22.3436 5 21 6.34355 21 8.00181C21 9.66007 22.3436 11.0036 24.0001 11.0036C25.6566 11.0036 27.0002 9.66007 27.0002 8.00181C27.0002 6.34355 25.6566 5 24.0001 5ZM19 8.00181C19 5.23979 21.2382 3 24.0001 3C26.762 3 29.0002 5.23979 29.0002 8.00181C29.0002 10.6996 26.8649 12.8992 24.1919 13H28.9449C30.5309 13 31.9455 13.9978 32.4776 15.492L35.838 24.9285C36.3476 26.3592 35.6007 27.9322 34.17 28.4417C32.7392 28.9512 31.1663 28.2044 30.6568 26.7736L29.8994 24.6467V42.3515C29.8994 43.828 28.6776 44.9993 27.2197 44.9993C25.7617 44.9993 24.54 43.828 24.54 42.3515V31.6052H23.457V42.3515C23.457 43.828 22.2353 44.9993 20.7773 44.9993C19.3194 44.9993 18.0976 43.828 18.0976 42.3515V24.5341L17.3554 26.7283C16.8687 28.167 15.3079 28.9388 13.8692 28.4521C12.4305 27.9654 11.6587 26.4046 12.1454 24.9659L15.3311 15.5483C15.8464 14.0252 17.2754 13 18.8834 13H23.8083C21.1353 12.8992 19 10.6996 19 8.00181ZM18.8834 15C18.133 15 17.4661 15.4784 17.2257 16.1892L14.0399 25.6068C13.9072 25.9991 14.1177 26.4248 14.5101 26.5575L14.1896 27.5048L14.5101 26.5576C14.9024 26.6903 15.3281 26.4798 15.4608 26.0874L18.1504 18.1368C18.3072 17.673 18.7769 17.391 19.26 17.4705C19.7431 17.55 20.0976 17.9676 20.0976 18.4573V42.3515C20.0976 42.6875 20.3876 42.9993 20.7773 42.9993C21.167 42.9993 21.457 42.6875 21.457 42.3515V30.6052C21.457 30.053 21.9047 29.6052 22.457 29.6052H25.54C26.0922 29.6052 26.54 30.053 26.54 30.6052V42.3515C26.54 42.6875 26.83 42.9993 27.2197 42.9993C27.6094 42.9993 27.8994 42.6875 27.8994 42.3515V18.8578C27.8994 18.3712 28.2496 17.9552 28.7291 17.8724C29.2086 17.7895 29.6782 18.0639 29.8414 18.5223L32.5409 26.1026C32.6798 26.4929 33.1088 26.6965 33.499 26.5576C33.8892 26.4186 34.0929 25.9896 33.9539 25.5994L30.5935 16.1629C30.3452 15.4656 29.685 15 28.9449 15H18.8834Z" fill="#333333"/>
</svg>
