<svg width="49" height="48" viewBox="0 0 49 48" fill="none" xmlns="http://www.w3.org/2000/svg">
<path fill-rule="evenodd" clip-rule="evenodd" d="M31.5 6C32.0523 6 32.5 6.44772 32.5 7V12.4229C32.5 12.9752 32.0523 13.4229 31.5 13.4229C30.9477 13.4229 30.5 12.9752 30.5 12.4229V7C30.5 6.44772 30.9477 6 31.5 6ZM33.1106 13.7876L33.1106 14.9418C33.1106 15.7342 33.3592 16.8865 34.1218 17.8644C34.9199 18.888 36.2164 19.6342 38.1096 19.6342C39.8771 19.6342 41.1048 19.1461 41.8249 18.2879C42.5352 17.4412 42.5834 16.4318 42.4116 15.7517L42.2475 15.1023L33.1106 13.7876ZM40.392 16.8559C40.3651 16.906 40.3323 16.9552 40.2927 17.0024C40.0908 17.243 39.5412 17.6342 38.1096 17.6342C36.8035 17.6342 36.1005 17.1496 35.699 16.6346C35.5756 16.4763 35.475 16.3075 35.3941 16.1367L40.392 16.8559ZM30.3843 14.9418L30.3843 13.7876L21.2474 15.1023L21.0833 15.7517C20.9115 16.4318 20.9597 17.4412 21.67 18.2879C22.3901 19.1461 23.6178 19.6342 25.3853 19.6342C27.2785 19.6342 28.575 18.888 29.3731 17.8644C30.1357 16.8865 30.3843 15.7342 30.3843 14.9418ZM23.2022 17.0024C23.1626 16.9552 23.1298 16.906 23.1029 16.8559L28.1008 16.1367C28.0199 16.3075 27.9193 16.4763 27.7959 16.6346C27.3944 17.1496 26.6914 17.6342 25.3853 17.6342C23.9537 17.6342 23.4041 17.243 23.2022 17.0024ZM31.0634 19.3471C30.6415 18.9907 30.0106 19.0439 29.6542 19.4658L28.7998 20.4773C28.6012 20.7124 28.522 21.0259 28.5849 21.3271L28.9047 22.8576L28.0752 23.6872C27.6846 24.0777 27.6846 24.7109 28.0752 25.1014C28.4657 25.4919 29.0988 25.4919 29.4894 25.1014L30.7013 23.8895C30.9399 23.6509 31.042 23.3081 30.973 22.9778L30.6424 21.3953L31.1821 20.7563C31.5385 20.3344 31.4853 19.7035 31.0634 19.3471ZM33.8578 19.0436C33.513 18.6122 32.8838 18.542 32.4524 18.8868C32.0209 19.2316 31.9507 19.8609 32.2955 20.2923L33.164 21.379L32.83 22.9778C32.761 23.3081 32.8632 23.6509 33.1017 23.8895L34.3136 25.1014C34.7042 25.4919 35.3373 25.4919 35.7279 25.1014C36.1184 24.7109 36.1184 24.0777 35.7279 23.6872L34.8983 22.8576L35.2181 21.3271C35.2791 21.0352 35.2066 20.7312 35.0204 20.4982L33.8578 19.0436Z" fill="#333333"/>
<path fill-rule="evenodd" clip-rule="evenodd" d="M36.2654 8.79178C36.79 8.96458 37.0751 9.5299 36.9024 10.0545L36.13 12.3991C36.0464 12.653 35.8646 12.8628 35.6252 12.9817L33.1482 14.2125C32.6536 14.4583 32.0535 14.2566 31.8077 13.762C31.5619 13.2674 31.7637 12.6672 32.2583 12.4215L34.3611 11.3766L35.0028 9.4287C35.1756 8.90414 35.7409 8.61899 36.2654 8.79178Z" fill="#333333"/>
<path fill-rule="evenodd" clip-rule="evenodd" d="M26.1871 8.79178C25.6626 8.96458 25.3774 9.5299 25.5502 10.0545L26.3226 12.3991C26.4062 12.653 26.588 12.8628 26.8274 12.9817L29.3043 14.2125C29.7989 14.4583 30.3991 14.2566 30.6449 13.762C30.8906 13.2674 30.6889 12.6672 30.1943 12.4215L28.0915 11.3766L27.4498 9.4287C27.277 8.90414 26.7117 8.61899 26.1871 8.79178Z" fill="#333333"/>
<path fill-rule="evenodd" clip-rule="evenodd" d="M31.3585 14.6994C31.1521 15.181 31 15.9161 31 16.7804C31 17.6447 31.1521 18.3797 31.3585 18.8614C31.4083 18.9775 31.4567 19.0683 31.5 19.1378C31.5433 19.0683 31.5918 18.9775 31.6415 18.8614C31.8479 18.3797 32 17.6447 32 16.7804C32 15.9161 31.8479 15.181 31.6415 14.6994C31.5918 14.5833 31.5433 14.4924 31.5 14.423C31.4567 14.4924 31.4083 14.5833 31.3585 14.6994ZM30.2137 12.8437C30.5189 12.5425 30.9547 12.2804 31.5 12.2804C32.0453 12.2804 32.4811 12.5425 32.7863 12.8437C33.0872 13.1407 33.3123 13.5208 33.4798 13.9116C33.8163 14.6968 34 15.7117 34 16.7804C34 17.8491 33.8163 18.864 33.4798 19.6492C33.3123 20.04 33.0872 20.4201 32.7863 20.7171C32.4811 21.0183 32.0453 21.2804 31.5 21.2804C30.9547 21.2804 30.5189 21.0183 30.2137 20.7171C29.9128 20.4201 29.6877 20.04 29.5202 19.6492C29.1837 18.864 29 17.8491 29 16.7804C29 15.7117 29.1837 14.6968 29.5202 13.9116C29.6877 13.5208 29.9128 13.1407 30.2137 12.8437Z" fill="#333333"/>
<path fill-rule="evenodd" clip-rule="evenodd" d="M19.5 17.7849C20.0523 17.7849 20.5 18.2326 20.5 18.7849V25.0894C20.5 25.6417 20.0523 26.0894 19.5 26.0894C18.9477 26.0894 18.5 25.6417 18.5 25.0894V18.7849C18.5 18.2326 18.9477 17.7849 19.5 17.7849ZM21.2859 27.2112L21.2859 28.071C21.2859 28.9255 21.6222 30.1125 22.5755 31.0905C23.5519 32.0922 25.0861 32.7854 27.3144 32.7854C29.4368 32.7854 30.8634 32.3244 31.713 31.5142C32.6019 30.6666 32.6987 29.5916 32.4584 28.831L32.2632 28.2129L21.9422 27.0248C21.961 27.0112 21.9794 26.997 21.9974 26.9819L23.8546 25.4343C23.9637 25.3434 24.0521 25.2304 24.1141 25.1027L24.8999 23.4836C25.141 22.9867 24.9338 22.3885 24.4369 22.1473C23.94 21.9062 23.3418 22.1135 23.1006 22.6103L22.4088 24.0357L20.717 25.4455C20.2928 25.7991 20.2354 26.4296 20.589 26.8539C20.7702 27.0713 21.0242 27.1924 21.2859 27.2112ZM30.3878 30.0102C30.3709 30.029 30.3527 30.0478 30.3329 30.0667C30.0232 30.362 29.2149 30.7854 27.3144 30.7854C25.5199 30.7854 24.5398 30.2404 24.0077 29.6945C23.8626 29.5457 23.7441 29.39 23.6482 29.2344L30.3878 30.0102ZM17.7142 28.071L17.7142 27.2112C17.9759 27.1924 18.2298 27.0713 18.4111 26.8539C18.7646 26.4296 18.7073 25.7991 18.283 25.4455L16.5912 24.0357L15.8994 22.6103C15.6583 22.1135 15.06 21.9062 14.5632 22.1473C14.0663 22.3885 13.859 22.9867 14.1002 23.4836L14.886 25.1027C14.948 25.2304 15.0364 25.3434 15.1454 25.4343L17.0026 26.9819C17.0207 26.997 17.0391 27.0112 17.0578 27.0248L6.73692 28.2129L6.54167 28.831C6.30142 29.5916 6.39819 30.6666 7.28704 31.5142C8.13672 32.3244 9.5633 32.7854 11.6857 32.7854C13.914 32.7854 15.4482 32.0922 16.4246 31.0905C17.3778 30.1125 17.7142 28.9255 17.7142 28.071ZM8.61227 30.0102C8.62914 30.029 8.64742 30.0478 8.66722 30.0667C8.97689 30.362 9.78522 30.7854 11.6857 30.7854C13.4802 30.7854 14.4602 30.2404 14.9924 29.6945C15.1374 29.5457 15.256 29.39 15.3519 29.2344L8.61227 30.0102ZM16.6697 31.9339C17.1005 31.5884 17.7299 31.6575 18.0755 32.0883C18.421 32.5191 18.3519 33.1485 17.9211 33.4941L16.2115 34.8653L14.9685 36.6049C14.8306 36.7979 14.6286 36.9356 14.3985 36.9934L12.1938 37.5473C11.6582 37.6818 11.1149 37.3567 10.9803 36.821C10.8458 36.2854 11.1709 35.7421 11.7066 35.6075L13.5549 35.1432L14.6645 33.5903C14.7177 33.5157 14.781 33.4489 14.8524 33.3916L16.6697 31.9339ZM17.3742 34.8195C17.7499 34.4147 18.3826 34.3912 18.7874 34.7669C19.1922 35.1426 19.2158 35.7753 18.8401 36.1801L17.8388 37.2589L18.2742 39.343C18.3433 39.6733 18.2411 40.0161 18.0025 40.2547L16.4786 41.7786C16.088 42.1691 15.4549 42.1691 15.0644 41.7786C14.6738 41.3881 14.6738 40.7549 15.0644 40.3644L16.2059 39.2228L15.7753 37.162C15.709 36.8446 15.8007 36.5148 16.0213 36.2771L17.3742 34.8195ZM22.394 31.894C21.9411 31.5779 21.3178 31.6887 21.0016 32.1416C20.6855 32.5944 20.7963 33.2178 21.2491 33.5339L23.1959 34.893L24.419 36.6049C24.5569 36.7979 24.7589 36.9356 24.989 36.9934L27.1937 37.5472C27.7293 37.6818 28.2727 37.3566 28.4072 36.821C28.5418 36.2854 28.2166 35.7421 27.681 35.6075L25.8327 35.1432L24.7231 33.5902C24.6569 33.4975 24.5753 33.4168 24.4819 33.3516L22.394 31.894ZM21.535 34.7332C21.1116 34.3786 20.4809 34.4343 20.1263 34.8577C19.7717 35.2811 19.8275 35.9118 20.2509 36.2665L21.5319 37.3394L21.1133 39.343C21.0443 39.6733 21.1465 40.016 21.385 40.2546L22.909 41.7785C23.2995 42.1691 23.9327 42.1691 24.3232 41.7785C24.7137 41.388 24.7137 40.7549 24.3232 40.3643L23.1816 39.2228L23.6122 37.1619C23.6877 36.8009 23.5582 36.4276 23.2754 36.1908L21.535 34.7332Z" fill="#333333"/>
<path fill-rule="evenodd" clip-rule="evenodd" d="M19.1355 27.2332C18.8417 28.1146 18.6428 29.3957 18.6428 30.8567C18.6428 32.3177 18.8417 33.5989 19.1355 34.4802C19.26 34.8537 19.3889 35.1169 19.5 35.2846C19.6112 35.1169 19.7401 34.8537 19.8646 34.4802C20.1584 33.5989 20.3573 32.3177 20.3573 30.8567C20.3573 29.3957 20.1584 28.1146 19.8646 27.2332C19.7401 26.8597 19.6112 26.5965 19.5 26.4288C19.3889 26.5965 19.26 26.8597 19.1355 27.2332ZM17.9917 25.104C18.3037 24.7081 18.8059 24.2851 19.5 24.2851C20.1942 24.2851 20.6964 24.7081 21.0084 25.104C21.3293 25.5112 21.5745 26.0384 21.762 26.6008C22.1404 27.736 22.3573 29.2406 22.3573 30.8567C22.3573 32.4729 22.1404 33.9775 21.762 35.1127C21.5745 35.6751 21.3293 36.2023 21.0084 36.6095C20.6964 37.0054 20.1942 37.4284 19.5 37.4284C18.8059 37.4284 18.3037 37.0054 17.9917 36.6095C17.6708 36.2023 17.4256 35.6751 17.2381 35.1127C16.8597 33.9775 16.6428 32.4729 16.6428 30.8567C16.6428 29.2406 16.8597 27.736 17.2381 26.6008C17.4256 26.0384 17.6708 25.5112 17.9917 25.104Z" fill="#333333"/>
</svg>
