<svg width="48" height="48" viewBox="0 0 48 48" fill="none" xmlns="http://www.w3.org/2000/svg">
<path fill-rule="evenodd" clip-rule="evenodd" d="M24.0522 41.3149C33.9934 41.3149 42.0522 33.2561 42.0522 23.3149C42.0522 13.3738 33.9934 5.31494 24.0522 5.31494C14.1111 5.31494 6.05225 13.3738 6.05225 23.3149C6.05225 33.2561 14.1111 41.3149 24.0522 41.3149ZM24.0522 43.3149C35.0979 43.3149 44.0522 34.3606 44.0522 23.3149C44.0522 12.2692 35.0979 3.31494 24.0522 3.31494C13.0066 3.31494 4.05225 12.2692 4.05225 23.3149C4.05225 34.3606 13.0066 43.3149 24.0522 43.3149Z" fill="#333333"/>
<path fill-rule="evenodd" clip-rule="evenodd" d="M12.4945 20.0435C13.5249 19.8383 14.8761 19.2322 16.2208 18.1931C17.5655 17.1539 18.4927 15.9992 18.9511 15.0538C19.26 14.4168 19.2749 14.0837 19.2632 13.9531C19.1398 13.9089 18.8138 13.8393 18.1194 13.9775C17.089 14.1827 15.7377 14.7888 14.393 15.8279C13.0483 16.8671 12.1211 18.0218 11.6627 18.9672C11.3538 19.6042 11.339 19.9373 11.3507 20.0679C11.474 20.1121 11.8001 20.1817 12.4945 20.0435ZM9.74507 21.3086C10.9252 22.8358 14.372 22.1494 17.4438 19.7756C20.5155 17.4018 22.0489 14.2395 20.8688 12.7124C19.6886 11.1852 16.2418 11.8716 13.1701 14.2454C10.0984 16.6192 8.56493 19.7815 9.74507 21.3086Z" fill="#333333"/>
<path fill-rule="evenodd" clip-rule="evenodd" d="M33.4361 31.3301C32.8809 30.4567 31.842 29.4294 30.4055 28.5621C28.969 27.6947 27.5761 27.2537 26.5446 27.169C25.8742 27.1141 25.564 27.2098 25.4425 27.2662C25.4491 27.4 25.5089 27.7191 25.8697 28.2868C26.4249 29.1603 27.4638 30.1875 28.9003 31.0549C30.3368 31.9222 31.7297 32.3633 32.7612 32.4479C33.4316 32.5029 33.7419 32.4072 33.8633 32.3507C33.8567 32.217 33.797 31.8978 33.4361 31.3301ZM35.6038 33.4016C36.5904 31.7677 34.7259 28.8344 31.4393 26.85C28.1527 24.8655 24.6886 24.5814 23.702 26.2153C22.7154 27.8493 24.58 30.7825 27.8666 32.767C31.1532 34.7514 34.6173 35.0356 35.6038 33.4016Z" fill="#333333"/>
<path fill-rule="evenodd" clip-rule="evenodd" d="M31.6379 19.8931C31.663 18.8419 31.3667 17.3899 30.6462 15.8496C29.9257 14.3093 29.001 13.1513 28.1781 12.4968C27.6225 12.0549 27.3001 11.968 27.1704 11.951C27.1002 12.0615 26.9603 12.3647 26.9434 13.0743C26.9184 14.1254 27.2146 15.5775 27.9352 17.1178C28.6557 18.6581 29.5804 19.8161 30.4033 20.4706C30.9589 20.9125 31.2812 20.9994 31.411 21.0164C31.4812 20.9059 31.621 20.6027 31.6379 19.8931ZM32.2707 22.8542C34.0198 22.036 34.1036 18.5205 32.4578 15.0022C30.812 11.4838 28.0598 9.29498 26.3107 10.1132C24.5615 10.9314 24.4778 14.4469 26.1236 17.9652C27.7694 21.4835 30.5215 23.6724 32.2707 22.8542Z" fill="#333333"/>
<path fill-rule="evenodd" clip-rule="evenodd" d="M19.9685 34.9561C19.9637 33.8725 19.6166 32.3899 18.8331 30.8312C18.0495 29.2725 17.0667 28.1094 16.1998 27.4591C15.5725 26.9885 15.2265 26.9258 15.1029 26.9192C15.0345 27.0223 14.8784 27.3374 14.8819 28.1217C14.8867 29.2053 15.2338 30.688 16.0173 32.2466C16.8009 33.8053 17.7838 34.9684 18.6506 35.6187C19.2779 36.0893 19.6239 36.152 19.7475 36.1586C19.816 36.0555 19.972 35.7404 19.9685 34.9561ZM20.6556 37.9651C22.4201 37.0781 22.4041 33.482 20.62 29.9329C18.8359 26.3838 15.9592 24.2258 14.1948 25.1127C12.4304 25.9997 12.4463 29.5958 14.2304 33.1449C16.0145 36.694 18.8912 38.8521 20.6556 37.9651Z" fill="#333333"/>
<path d="M14.6216 18.3906C14.6216 18.9429 14.1739 19.3906 13.6216 19.3906C13.0693 19.3906 12.6216 18.9429 12.6216 18.3906C12.6216 17.8383 13.0693 17.3906 13.6216 17.3906C14.1739 17.3906 14.6216 17.8383 14.6216 18.3906Z" fill="#333333"/>
<path d="M16.4154 15.9844C16.4154 16.2605 16.1915 16.4844 15.9154 16.4844C15.6393 16.4844 15.4154 16.2605 15.4154 15.9844C15.4154 15.7082 15.6393 15.4844 15.9154 15.4844C16.1915 15.4844 16.4154 15.7082 16.4154 15.9844Z" fill="#333333"/>
<path d="M16.1895 17.3906C16.1895 17.6668 15.9656 17.8906 15.6895 17.8906C15.4133 17.8906 15.1895 17.6668 15.1895 17.3906C15.1895 17.1145 15.4133 16.8906 15.6895 16.8906C15.9656 16.8906 16.1895 17.1145 16.1895 17.3906Z" fill="#333333"/>
<path d="M18.4 15.077C18.4 15.4636 18.0866 15.777 17.7 15.777C17.3134 15.777 17 15.4636 17 15.077C17 14.6904 17.3134 14.377 17.7 14.377C18.0866 14.377 18.4 14.6904 18.4 15.077Z" fill="#333333"/>
<path d="M32.4707 30.8984C32.4707 31.4507 32.023 31.8984 31.4707 31.8984C30.9184 31.8984 30.4707 31.4507 30.4707 30.8984C30.4707 30.3462 30.9184 29.8984 31.4707 29.8984C32.023 29.8984 32.4707 30.3462 32.4707 30.8984Z" fill="#333333"/>
<path d="M30.4707 29.7129C30.4707 29.9631 30.2679 30.166 30.0176 30.166C29.7674 30.166 29.5645 29.9631 29.5645 29.7129C29.5645 29.4626 29.7674 29.2598 30.0176 29.2598C30.2679 29.2598 30.4707 29.4626 30.4707 29.7129Z" fill="#333333"/>
<path d="M27.3263 28.039C27.3263 28.2859 27.1261 28.4861 26.8792 28.4861C26.6322 28.4861 26.432 28.2859 26.432 28.039C26.432 27.792 26.6322 27.5918 26.8792 27.5918C27.1261 27.5918 27.3263 27.792 27.3263 28.039Z" fill="#333333"/>
<path d="M29.1367 28.944C29.1367 29.3682 28.7928 29.7121 28.3685 29.7121C27.9443 29.7121 27.6003 29.3682 27.6003 28.944C27.6003 28.5197 27.9443 28.1758 28.3685 28.1758C28.7928 28.1758 29.1367 28.5197 29.1367 28.944Z" fill="#333333"/>
<path d="M30.353 16.0762C30.353 16.6285 29.9053 17.0762 29.353 17.0762C28.8007 17.0762 28.353 16.6285 28.353 16.0762C28.353 15.5239 28.8007 15.0762 29.353 15.0762C29.9053 15.0762 30.353 15.5239 30.353 16.0762Z" fill="#333333"/>
<path d="M28.353 14.0957C28.353 14.3718 28.1291 14.5957 27.853 14.5957C27.5768 14.5957 27.353 14.3718 27.353 14.0957C27.353 13.8196 27.5768 13.5957 27.853 13.5957C28.1291 13.5957 28.353 13.8196 28.353 14.0957Z" fill="#333333"/>
<path d="M30.9291 18.5496C30.9291 18.9362 30.6157 19.2496 30.2291 19.2496C29.8425 19.2496 29.5291 18.9362 29.5291 18.5496C29.5291 18.163 29.8425 17.8496 30.2291 17.8496C30.6157 17.8496 30.9291 18.163 30.9291 18.5496Z" fill="#333333"/>
<path d="M18.5098 32.0195C18.5098 32.5718 18.0621 33.0195 17.5098 33.0195C16.9575 33.0195 16.5098 32.5718 16.5098 32.0195C16.5098 31.4672 16.9575 31.0195 17.5098 31.0195C18.0621 31.0195 18.5098 31.4672 18.5098 32.0195Z" fill="#333333"/>
<path d="M17.8783 29.6699C17.8783 29.9202 17.6755 30.123 17.4252 30.123C17.175 30.123 16.9721 29.9202 16.9721 29.6699C16.9721 29.4197 17.175 29.2168 17.4252 29.2168C17.6755 29.2168 17.8783 29.4197 17.8783 29.6699Z" fill="#333333"/>
<path d="M16.2198 28.627C16.2198 28.9031 15.9959 29.127 15.7198 29.127C15.4436 29.127 15.2198 28.9031 15.2198 28.627C15.2198 28.3508 15.4436 28.127 15.7198 28.127C15.9959 28.127 16.2198 28.3508 16.2198 28.627Z" fill="#333333"/>
<path d="M19.6198 34.1355C19.6198 34.5221 19.3064 34.8355 18.9198 34.8355C18.5332 34.8355 18.2198 34.5221 18.2198 34.1355C18.2198 33.7489 18.5332 33.4355 18.9198 33.4355C19.3064 33.4355 19.6198 33.7489 19.6198 34.1355Z" fill="#333333"/>
</svg>
