<svg width="48" height="48" viewBox="0 0 48 48" fill="none" xmlns="http://www.w3.org/2000/svg">
<path fill-rule="evenodd" clip-rule="evenodd" d="M10 18H12V28H36V18H38V28H40.5C40.7761 28 41 28.2239 41 28.5V29.5C41 29.7761 40.7761 30 40.5 30H7.5C7.22386 30 7 29.7761 7 29.5V28.5C7 28.2239 7.22386 28 7.5 28H10V18ZM10 34V40H38V34H10ZM9 32C8.44772 32 8 32.4477 8 33V41C8 41.5523 8.44772 42 9 42H39C39.5523 42 40 41.5523 40 41V33C40 32.4477 39.5523 32 39 32H9Z" fill="#333333"/>
<path fill-rule="evenodd" clip-rule="evenodd" d="M10.1888 8L8.04354 13.9129C8.01478 13.9922 8 14.0761 8 14.1609V16.551C8 17.3592 8.64747 18 9.42857 18C10.2097 18 10.8571 17.3592 10.8571 16.551C10.8571 15.9987 11.3049 15.551 11.8571 15.551C12.4094 15.551 12.8571 15.9987 12.8571 16.551C12.8571 17.3592 13.5046 18 14.2857 18C15.0668 18 15.7143 17.3592 15.7143 16.551C15.7143 15.9987 16.162 15.551 16.7143 15.551C17.2666 15.551 17.7143 15.9987 17.7143 16.551C17.7143 17.3592 18.3618 18 19.1429 18C19.9236 18 20.5708 17.3598 20.5714 16.5522C20.5719 16.0003 21.0195 15.553 21.5714 15.553C22.1234 15.553 22.571 16.0003 22.5714 16.5522C22.5721 17.3598 23.2193 18 24 18C24.7811 18 25.4286 17.3592 25.4286 16.551C25.4286 15.9987 25.8763 15.551 26.4286 15.551C26.9809 15.551 27.4286 15.9987 27.4286 16.551C27.4286 17.3592 28.076 18 28.8571 18C29.6379 18 30.2851 17.3598 30.2857 16.5522C30.2862 16.0003 30.7337 15.553 31.2857 15.553C31.8377 15.553 32.2853 16.0003 32.2857 16.5522C32.2864 17.3598 32.9336 18 33.7143 18C34.4954 18 35.1429 17.3592 35.1429 16.551C35.1429 15.9987 35.5906 15.551 36.1429 15.551C36.6951 15.551 37.1429 15.9987 37.1429 16.551C37.1429 17.3592 37.7903 18 38.5714 18C39.3525 18 40 17.3592 40 16.551V14.1609C40 14.0761 39.9852 13.9922 39.9565 13.9129L37.8112 8H10.1888ZM37.7764 7.90395L37.7763 7.9037L37.9181 7.85225L37.7763 7.90369C37.7763 7.90378 37.7763 7.90387 37.7764 7.90395ZM36.1429 18.9856C35.5233 19.6115 34.6656 20 33.7143 20C32.7629 20 31.9053 19.6115 31.2857 18.9856C30.6662 19.6115 29.8085 20 28.8571 20C27.9058 20 27.0481 19.6115 26.4286 18.9856C25.809 19.6115 24.9514 20 24 20C23.0486 20 22.191 19.6115 21.5714 18.9856C20.9519 19.6115 20.0942 20 19.1429 20C18.1915 20 17.3338 19.6115 16.7143 18.9856C16.0947 19.6115 15.2371 20 14.2857 20C13.3344 20 12.4767 19.6115 11.8571 18.9856C11.2376 19.6115 10.3799 20 9.42857 20C7.52715 20 6 18.4479 6 16.551V14.1609C6 13.8438 6.05528 13.529 6.16345 13.2308L8.34363 7.22159C8.60829 6.4921 9.30012 6 10.0819 6H37.9181C38.6999 6 39.3917 6.4921 39.6564 7.2216L41.8366 13.2308C41.9447 13.529 42 13.8438 42 14.1609V16.551C42 18.4479 40.4728 20 38.5714 20C37.6201 20 36.7624 19.6115 36.1429 18.9856Z" fill="#333333"/>
<path d="M14 25.5C14 25.2239 14.2239 25 14.5 25H17.5C17.7761 25 18 25.2239 18 25.5V27.5C18 27.7761 17.7761 28 17.5 28H14.5C14.2239 28 14 27.7761 14 27.5V25.5Z" fill="#333333"/>
<path d="M16 26.5C16 26.2239 16.2239 26 16.5 26H19.5C19.7761 26 20 26.2239 20 26.5V27.5C20 27.7761 19.7761 28 19.5 28H16.5C16.2239 28 16 27.7761 16 27.5V26.5Z" fill="#333333"/>
<path d="M24 26.5C24 27.3284 23.3284 28 22.5 28C21.6716 28 21 27.3284 21 26.5C21 25.6716 21.6716 25 22.5 25C23.3284 25 24 25.6716 24 26.5Z" fill="#333333"/>
</svg>
