<svg width="48" height="48" viewBox="0 0 48 48" fill="none" xmlns="http://www.w3.org/2000/svg">
<path fill-rule="evenodd" clip-rule="evenodd" d="M11.9999 9C10.7577 9 9.74992 10.0076 9.74992 11.2514C9.74992 12.4952 10.7577 13.5028 11.9999 13.5028C13.2422 13.5028 14.2499 12.4952 14.2499 11.2514C14.2499 10.0076 13.2422 9 11.9999 9ZM7.74992 11.2514C7.74992 8.90383 9.6523 7 11.9999 7C14.3475 7 16.2499 8.90383 16.2499 11.2514C16.2499 12.8732 15.342 14.2832 14.0067 15H15.9548C17.2963 15 18.51 15.796 19.0445 17.0264L22.2929 24.5039C22.843 25.7702 22.2624 27.2428 20.996 27.793C19.7297 28.3431 18.2571 27.7625 17.7069 26.4961L16.9999 24.8686L16.9999 38.6808C16.9999 39.9767 15.9288 41.0002 14.6551 41.0002C13.3813 41.0002 12.3102 39.9767 12.3102 38.6808V30.6806H11.766V38.6808C11.766 39.9767 10.6949 41.0002 9.42115 41.0002C8.14736 41.0002 7.07631 39.9767 7.07631 38.6808V24.6147L6.30798 26.4607C5.77742 27.7354 4.31397 28.3386 3.03926 27.8081C1.76456 27.2775 1.1613 25.8141 1.69186 24.5393L4.79899 17.0742C5.32174 15.8183 6.54862 15 7.90902 15H9.99318C8.65781 14.2832 7.74992 12.8732 7.74992 11.2514ZM36 9C34.7578 9 33.75 10.0076 33.75 11.2514C33.75 12.4952 34.7578 13.5028 36 13.5028C37.2422 13.5028 38.25 12.4952 38.25 11.2514C38.25 10.0076 37.2422 9 36 9ZM31.75 11.2514C31.75 8.90383 33.6524 7 36 7C38.3476 7 40.25 8.90383 40.25 11.2514C40.25 12.873 39.3424 14.2828 38.0073 14.9997H39.7861C41.1667 14.9997 42.4299 15.7763 43.0532 17.0082L46.2308 23.2891C46.8542 24.5211 46.3607 26.0251 45.1287 26.6484C43.8967 27.2717 42.3926 26.7783 41.7693 25.5463L40.9976 24.0209V24.1003L43.7383 30.4575C44.3534 31.8843 43.3072 33.4746 41.7534 33.4746H40.9976V38.6142C40.9976 39.9137 39.9684 41.0384 38.6266 41.0384C37.2848 41.0384 36.2555 39.9137 36.2555 38.6142V33.4746H35.7421V38.6142C35.7421 39.9137 34.7129 41.0384 33.3711 41.0384C32.0293 41.0384 31.0001 39.9137 31.0001 38.6142V33.4746H30.5243C29.0041 33.4746 27.9589 31.9469 28.5098 30.53L31.0001 24.1245V24.0259L30.2308 25.5463C29.6075 26.7783 28.1035 27.2717 26.8715 26.6484C25.6395 26.0251 25.146 24.5211 25.7693 23.2891L28.947 17.0082C29.5703 15.7763 30.8335 14.9997 32.2141 14.9997H33.9927C32.6577 14.2828 31.75 12.873 31.75 11.2514ZM32.9228 24.6982L30.3739 31.2547C30.3327 31.3605 30.4108 31.4746 30.5243 31.4746H32.0001C32.5523 31.4746 33.0001 31.9223 33.0001 32.4746V38.6142C33.0001 38.8814 33.2048 39.0384 33.3711 39.0384C33.5374 39.0384 33.7421 38.8814 33.7421 38.6142V32.4746C33.7421 31.9223 34.1898 31.4746 34.7421 31.4746H37.2555C37.8078 31.4746 38.2555 31.9223 38.2555 32.4746V38.6142C38.2555 38.8814 38.4603 39.0384 38.6266 39.0384C38.7929 39.0384 38.9976 38.8814 38.9976 38.6142V32.4746C38.9976 31.9223 39.4453 31.4746 39.9976 31.4746H41.7534C41.8695 31.4746 41.9476 31.3558 41.9017 31.2493L39.1087 24.7707C39.0377 24.6334 38.9976 24.4775 38.9976 24.3122V19.8292C38.9976 19.3663 39.3153 18.9639 39.7656 18.8565C40.2158 18.7491 40.6809 18.9647 40.8899 19.3778L43.5539 24.6434C43.6786 24.8898 43.9794 24.9885 44.2258 24.8638C44.4722 24.7392 44.5709 24.4384 44.4462 24.192L41.2686 17.9111C40.9858 17.3521 40.4126 16.9997 39.7861 16.9997H32.2141C31.5876 16.9997 31.0144 17.3521 30.7316 17.9111L27.5539 24.192C27.4293 24.4384 27.528 24.7392 27.7744 24.8638C28.0208 24.9885 28.3216 24.8898 28.4462 24.6434L31.1078 19.3828C31.3167 18.9697 31.7819 18.7541 32.2321 18.8615C32.6824 18.9689 33.0001 19.3713 33.0001 19.8342V24.3122C33.0001 24.449 32.9726 24.5794 32.9228 24.6982ZM7.90902 17C7.3563 17 6.85782 17.3325 6.64543 17.8427L3.53831 25.3079C3.4322 25.5628 3.55285 25.8555 3.80779 25.9616C4.06273 26.0677 4.35542 25.9471 4.46153 25.6921L7.15309 19.2254C7.33629 18.7853 7.80473 18.5357 8.27224 18.6291C8.73975 18.7225 9.07631 19.133 9.07631 19.6097V38.6808C9.07631 38.8362 9.21562 39.0002 9.42115 39.0002C9.62669 39.0002 9.76599 38.8362 9.76599 38.6808V29.6806C9.76599 29.1283 10.2137 28.6806 10.766 28.6806H13.3102C13.8625 28.6806 14.3102 29.1283 14.3102 29.6806V38.6808C14.3102 38.8362 14.4495 39.0002 14.6551 39.0002C14.8606 39.0002 14.9999 38.8362 14.9999 38.6808L14.9999 20.057C14.9999 19.5831 15.3325 19.1743 15.7964 19.0779C16.2604 18.9815 16.7283 19.2239 16.9171 19.6585L19.5413 25.6992C19.6514 25.9525 19.9459 26.0686 20.1991 25.9586C20.4524 25.8486 20.5685 25.5541 20.4585 25.3008L17.2101 17.8233C16.9929 17.3234 16.4998 17 15.9548 17H7.90902Z" fill="#333333"/>
</svg>
