<svg width="48" height="48" viewBox="0 0 48 48" fill="none" xmlns="http://www.w3.org/2000/svg">
<path d="M18 21L24 19.5L30 21" stroke="#333333" stroke-width="2" stroke-linecap="round"/>
<path d="M9.5 18L7.58694 18.4251C6.10929 18.7535 5.10774 20.1312 5.25125 21.6381L5.82465 27.6588C5.93215 28.7876 6.66695 29.7594 7.72379 30.1704L15 33" stroke="#333333" stroke-width="2" stroke-linecap="round"/>
<path d="M38.7368 18L40.4948 18.4266C41.9355 18.7762 42.9048 20.1257 42.776 21.6026L42.2189 27.9899C42.1175 29.1528 41.3508 30.1512 40.2536 30.5494L33.5 33" stroke="#333333" stroke-width="2" stroke-linecap="round"/>
<path d="M10.345 17.5078C10.345 13.6604 20.5047 13.6604 20.5047 13.6604L21.3245 12.1896C21.646 11.6129 22.2545 11.2554 22.9148 11.2554H25.2444C25.9046 11.2554 26.5131 11.6128 26.8346 12.1895L27.6544 13.66C27.6544 13.66 37.655 13.6604 37.655 17.5078C37.655 36.7447 24.4405 36.7447 24.4405 36.7447H23.5595C23.5595 36.7447 10.345 36.7447 10.345 17.5078Z" stroke="#333333" stroke-width="2" stroke-linecap="round" stroke-linejoin="round"/>
</svg>
