<svg width="48" height="48" viewBox="0 0 48 48" fill="none" xmlns="http://www.w3.org/2000/svg">
<path fill-rule="evenodd" clip-rule="evenodd" d="M24 42C33.9411 42 42 33.9411 42 24C42 14.0589 33.9411 6 24 6C14.0589 6 6 14.0589 6 24C6 33.9411 14.0589 42 24 42ZM24 44C35.0457 44 44 35.0457 44 24C44 12.9543 35.0457 4 24 4C12.9543 4 4 12.9543 4 24C4 35.0457 12.9543 44 24 44Z" fill="#333333"/>
<path fill-rule="evenodd" clip-rule="evenodd" d="M13.4944 20.0435C14.5248 19.8383 15.876 19.2322 17.2207 18.1931C18.5654 17.1539 19.4927 15.9992 19.9511 15.0538C20.26 14.4168 20.2748 14.0837 20.2631 13.9531C20.1398 13.9089 19.8137 13.8393 19.1193 13.9775C18.0889 14.1827 16.7377 14.7888 15.393 15.8279C14.0483 16.8671 13.1211 18.0218 12.6627 18.9672C12.3537 19.6042 12.3389 19.9373 12.3506 20.0679C12.474 20.1121 12.8 20.1817 13.4944 20.0435ZM10.745 21.3086C11.9252 22.8358 15.372 22.1494 18.4437 19.7756C21.5154 17.4018 23.0488 14.2395 21.8687 12.7124C20.6886 11.1852 17.2417 11.8716 14.17 14.2454C11.0983 16.6192 9.56487 19.7815 10.745 21.3086Z" fill="#333333"/>
<path fill-rule="evenodd" clip-rule="evenodd" d="M34.4362 31.3301C33.881 30.4567 32.842 29.4294 31.4056 28.5621C29.9691 27.6947 28.5762 27.2537 27.5447 27.169C26.8743 27.1141 26.564 27.2098 26.4426 27.2662C26.4492 27.4 26.5089 27.7191 26.8698 28.2868C27.425 29.1603 28.4639 30.1875 29.9004 31.0549C31.3369 31.9222 32.7298 32.3633 33.7613 32.4479C34.4317 32.5029 34.7419 32.4072 34.8634 32.3507C34.8568 32.217 34.797 31.8978 34.4362 31.3301ZM36.6039 33.4016C37.5905 31.7677 35.7259 28.8344 32.4393 26.85C29.1527 24.8655 25.6886 24.5814 24.7021 26.2153C23.7155 27.8493 25.58 30.7825 28.8666 32.767C32.1532 34.7514 35.6173 35.0356 36.6039 33.4016Z" fill="#333333"/>
<path fill-rule="evenodd" clip-rule="evenodd" d="M32.6379 19.8931C32.663 18.8419 32.3667 17.3899 31.6462 15.8496C30.9257 14.3093 30.001 13.1513 29.1781 12.4968C28.6225 12.0549 28.3001 11.968 28.1704 11.951C28.1002 12.0615 27.9603 12.3647 27.9434 13.0743C27.9184 14.1254 28.2146 15.5775 28.9352 17.1178C29.6557 18.6581 30.5804 19.8161 31.4033 20.4706C31.9589 20.9125 32.2812 20.9994 32.411 21.0164C32.4812 20.9059 32.621 20.6027 32.6379 19.8931ZM33.2707 22.8542C35.0198 22.036 35.1036 18.5205 33.4578 15.0022C31.812 11.4838 29.0598 9.29498 27.3107 10.1132C25.5615 10.9314 25.4778 14.4469 27.1236 17.9652C28.7694 21.4835 31.5215 23.6724 33.2707 22.8542Z" fill="#333333"/>
<path fill-rule="evenodd" clip-rule="evenodd" d="M20.9685 34.9561C20.9637 33.8725 20.6166 32.3899 19.8331 30.8312C19.0495 29.2725 18.0667 28.1094 17.1998 27.4591C16.5725 26.9885 16.2265 26.9258 16.1029 26.9192C16.0345 27.0223 15.8784 27.3374 15.8819 28.1217C15.8867 29.2053 16.2338 30.688 17.0173 32.2466C17.8009 33.8053 18.7838 34.9684 19.6506 35.6187C20.2779 36.0893 20.6239 36.152 20.7475 36.1586C20.816 36.0555 20.972 35.7404 20.9685 34.9561ZM21.6556 37.9651C23.4201 37.0781 23.4041 33.482 21.62 29.9329C19.8359 26.3838 16.9592 24.2258 15.1948 25.1127C13.4304 25.9997 13.4463 29.5958 15.2304 33.1449C17.0145 36.694 19.8912 38.8521 21.6556 37.9651Z" fill="#333333"/>
</svg>
