<svg width="48" height="48" viewBox="0 0 48 48" fill="none" xmlns="http://www.w3.org/2000/svg">
<path fill-rule="evenodd" clip-rule="evenodd" d="M29.2948 17H31.051L31.4434 24.0637C31.5037 25.15 32.4022 26 33.4902 26H40.051L40.3287 31H19.0571L19.3102 26.4453C19.6046 21.1461 23.9874 17 29.2948 17ZM17.3132 26.3344C17.6665 19.9754 22.926 15 29.2948 15H31.051C32.1124 15 32.989 15.8292 33.0479 16.8891L33.4403 23.9528C33.4418 23.9793 33.4637 24 33.4902 24H40.524C41.3201 24 41.9775 24.6219 42.0216 25.4168L42.4136 32.4723C42.4295 32.7589 42.2014 33 41.9144 33H18C17.4259 33 16.9697 32.5177 17.0016 31.9445L17.3132 26.3344Z" fill="#333333"/>
<path fill-rule="evenodd" clip-rule="evenodd" d="M27.6501 20.9957C25.5695 21.5676 23.9603 23.0947 23.3388 25.1273L26.9166 24.263C27.2249 24.1651 27.541 24.0943 27.8608 24.051L27.6501 20.9957ZM27.4623 26.1887C27.8331 26.0637 28.225 25.9998 28.6199 25.9998H29.7321C29.877 25.9998 29.9915 25.8771 29.9816 25.7326L29.5321 19.2154C29.514 18.9532 29.2957 18.7483 29.0332 18.7616C24.7668 18.9779 21.3392 22.1481 21.0759 26.496L21.0409 27.0748C21.0205 27.4103 21.3306 27.6699 21.6574 27.591L27.4623 26.1887Z" fill="#333333"/>
<path fill-rule="evenodd" clip-rule="evenodd" d="M9.97943 7.4436C9.151 7.4436 8.47943 8.11518 8.47943 8.9436C8.47943 9.77203 9.151 10.4436 9.97943 10.4436C10.8079 10.4436 11.4794 9.77203 11.4794 8.9436C11.4794 8.11518 10.8079 7.4436 9.97943 7.4436ZM6.47943 8.9436C6.47943 7.01061 8.04643 5.4436 9.97943 5.4436C11.9124 5.4436 13.4794 7.01061 13.4794 8.9436C13.4794 10.8766 11.9124 12.4436 9.97943 12.4436C8.04643 12.4436 6.47943 10.8766 6.47943 8.9436Z" fill="#333333"/>
<path fill-rule="evenodd" clip-rule="evenodd" d="M12.2892 11.5724C13.89 12.0628 15.4984 12.5619 16.9652 13.2229C18.4666 13.8994 19.7498 14.7162 20.6751 15.794C21.078 16.2631 21.7727 16.3778 22.3078 16.0361C23.2259 15.45 24.2214 14.9766 25.2747 14.6343C26.0416 14.3851 26.4221 13.4395 25.9098 12.7222C22.8349 8.41712 17.5721 7.29333 12.9049 6.29673L12.7291 6.25919C12.4972 6.20965 12.2666 6.16037 12.0368 6.1109C12.7881 6.65766 13.3135 7.49612 13.4465 8.45985C17.5262 9.35293 21.2314 10.3649 23.6553 13.0977C23.0007 13.3635 22.369 13.6741 21.7639 14.0259C20.6369 12.8844 19.2384 12.0535 17.7869 11.3994C16.3539 10.7537 14.8161 10.2579 13.3706 9.81228C13.1936 10.5048 12.8099 11.1147 12.2892 11.5724Z" fill="#333333"/>
<path fill-rule="evenodd" clip-rule="evenodd" d="M6.73489 10.2576L3.66688 23.3278C3.662 23.3486 3.65791 23.3693 3.65458 23.3901L3.24193 25.6752C2.79136 28.1703 4.32855 30.5942 6.77759 31.2504L6.95328 31.2975C8.83697 31.8022 10.8402 31.1358 12.0461 29.6032L14.7636 26.1499C15.3754 25.3723 14.7578 24.2404 13.7728 24.3342L12.0501 24.4983L9.55234 23.9705L8.51501 23.6926L12.1328 11.7021C11.5641 12.1466 10.8543 12.419 10.0819 12.4412L6.65334 23.8044C6.46989 24.4124 6.82576 25.0517 7.43921 25.216L9.12205 25.667L9.14469 25.673L9.16762 25.6779L11.7818 26.2303C11.8932 26.2538 12.0076 26.2603 12.121 26.2495L12.4857 26.2148L10.6709 28.5211C9.89783 29.5035 8.6137 29.9307 7.40621 29.6071L7.23052 29.56C5.66063 29.1394 4.67525 27.5856 4.96407 25.9862L5.37643 23.7027L8.14177 11.922C7.5127 11.5331 7.01601 10.9506 6.73489 10.2576Z" fill="#333333"/>
<path fill-rule="evenodd" clip-rule="evenodd" d="M38.5 36H19.5C18.1193 36 17 37.1193 17 38.5C17 39.8807 18.1193 41 19.5 41H38.5C39.8807 41 41 39.8807 41 38.5C41 37.1193 39.8807 36 38.5 36ZM19.5 34C17.0147 34 15 36.0147 15 38.5C15 40.9853 17.0147 43 19.5 43H38.5C40.9853 43 43 40.9853 43 38.5C43 36.0147 40.9853 34 38.5 34H19.5Z" fill="#333333"/>
<path d="M23 38.5C23 39.3284 22.3284 40 21.5 40C20.6716 40 20 39.3284 20 38.5C20 37.6716 20.6716 37 21.5 37C22.3284 37 23 37.6716 23 38.5Z" fill="#333333"/>
<path d="M28 38.5C28 39.3284 27.3284 40 26.5 40C25.6716 40 25 39.3284 25 38.5C25 37.6716 25.6716 37 26.5 37C27.3284 37 28 37.6716 28 38.5Z" fill="#333333"/>
<path d="M33 38.5C33 39.3284 32.3284 40 31.5 40C30.6716 40 30 39.3284 30 38.5C30 37.6716 30.6716 37 31.5 37C32.3284 37 33 37.6716 33 38.5Z" fill="#333333"/>
<path d="M38 38.5C38 39.3284 37.3284 40 36.5 40C35.6716 40 35 39.3284 35 38.5C35 37.6716 35.6716 37 36.5 37C37.3284 37 38 37.6716 38 38.5Z" fill="#333333"/>
</svg>
