<svg width="48" height="48" viewBox="0 0 48 48" fill="none" xmlns="http://www.w3.org/2000/svg">
<path fill-rule="evenodd" clip-rule="evenodd" d="M16.0001 20C16.0001 19.4477 15.5524 19 15.0001 19C14.4478 19 14.0001 19.4477 14.0001 20V24.5895C13.677 24.9942 13.3933 25.589 13.1689 26.3205L12.0432 25.1836V23.197C12.0432 22.9335 11.9392 22.6807 11.7538 22.4934L9.37961 20.0955C8.99103 19.703 8.35787 19.6999 7.96541 20.0885C7.57295 20.4771 7.56981 21.1102 7.95839 21.5027L10.0432 23.6083V25.5949C10.0432 25.8584 10.1472 26.1113 10.3326 26.2985L11.0865 27.0599L4.06909 28.2837C3.78133 29.6639 4.24175 32.4241 8.38551 32.4241C8.46253 32.4241 8.53847 32.4227 8.61335 32.4201L8.11048 32.7587C7.79217 32.973 7.62458 33.3506 7.67917 33.7304L8.16471 37.109L6.31111 38.3571C5.85299 38.6656 5.73167 39.287 6.04013 39.7451C6.34859 40.2032 6.97003 40.3246 7.42814 40.0161L9.80234 38.4175C10.1207 38.2032 10.2882 37.8256 10.2337 37.4457L9.74811 34.0672L10.0769 33.8458C10.0819 33.8644 10.0875 33.8831 10.0936 33.9016L11.5528 38.3231L9.78769 42.1489C9.55632 42.6504 9.7753 43.2445 10.2768 43.4759C10.7783 43.7073 11.3724 43.4883 11.6037 42.9868L13.534 38.8029C13.6401 38.5729 13.655 38.3112 13.5756 38.0706L12.1848 33.8565L12.8617 33.1728C13.2459 35.3107 14.059 36.7852 15.0001 36.7852C15.9411 36.7852 16.7543 35.3107 17.1384 33.1727L17.8154 33.8565L16.4246 38.0706C16.3452 38.3112 16.3601 38.5729 16.4662 38.8029L18.3963 42.9868C18.6276 43.4882 19.2217 43.7072 19.7232 43.4759C20.2247 43.2446 20.4437 42.6505 20.2123 42.149L18.4474 38.3231L19.9067 33.9016C19.9128 33.8831 19.9183 33.8644 19.9233 33.8458L20.2521 34.0671L19.7664 37.4457C19.7117 37.8255 19.8793 38.2031 20.1977 38.4175L22.5719 40.0161C23.03 40.3246 23.6514 40.2032 23.9599 39.7451C24.2683 39.287 24.147 38.6656 23.6889 38.3571L21.8353 37.109L22.3211 33.7305C22.3757 33.3506 22.2081 32.973 21.8898 32.7587L21.3869 32.4201C21.4617 32.4227 21.5376 32.4241 21.6145 32.4241C25.7583 32.4241 26.2187 29.6639 25.9309 28.2837L18.9137 27.0599L19.6676 26.2985C19.853 26.1113 19.957 25.8584 19.957 25.5949V23.6083L22.0418 21.5027C22.4304 21.1102 22.4273 20.4771 22.0348 20.0885C21.6424 19.6999 21.0092 19.703 20.6206 20.0955L18.2464 22.4934C18.061 22.6807 17.957 22.9335 17.957 23.197V25.1836L16.8313 26.3206C16.6069 25.5891 16.3232 24.9944 16.0001 24.5896V20ZM15.3743 30.3908C15.3743 31.6434 15.2238 32.7477 15.0001 33.5912C14.7763 32.7477 14.6259 31.6434 14.6259 30.3908C14.6259 29.1383 14.7763 28.034 15.0001 27.1904C15.2238 28.034 15.3743 29.1383 15.3743 30.3908ZM8.38551 30.4241C7.17114 30.4241 6.62168 30.1338 6.37086 29.9125L10.8733 29.1273C10.8647 29.141 10.8561 29.1547 10.8473 29.1683C10.3981 29.8665 9.70578 30.4241 8.38551 30.4241ZM23.6291 29.9125C23.3783 30.1338 22.8289 30.4241 21.6145 30.4241C20.2942 30.4241 19.6019 29.8665 19.1527 29.1683C19.1439 29.1547 19.1353 29.141 19.1267 29.1273L23.6291 29.9125Z" fill="#333333"/>
<path fill-rule="evenodd" clip-rule="evenodd" d="M34.0001 5C34.0001 4.44772 33.5524 4 33.0001 4C32.4478 4 32.0001 4.44772 32.0001 5V9.58949C31.677 9.99421 31.3933 10.589 31.1689 11.3205L30.0432 10.1836V8.197C30.0432 7.9335 29.9392 7.68066 29.7538 7.49342L27.3796 5.0955C26.991 4.70304 26.3579 4.6999 25.9654 5.08848C25.573 5.47705 25.5698 6.11021 25.9584 6.50267L28.0432 8.60831V10.5949C28.0432 10.8584 28.1472 11.1113 28.3326 11.2985L29.0865 12.0599L22.0691 13.2837C21.7813 14.6639 22.2417 17.4241 26.3855 17.4241C26.4625 17.4241 26.5385 17.4227 26.6133 17.4201L26.1105 17.7587C25.7922 17.973 25.6246 18.3506 25.6792 18.7304L26.1647 22.109L24.3111 23.3571C23.853 23.6656 23.7317 24.287 24.0401 24.7451C24.3486 25.2032 24.97 25.3246 25.4281 25.0161L27.8023 23.4175C28.1207 23.2032 28.2882 22.8256 28.2337 22.4457L27.7481 19.0672L28.0769 18.8458C28.0819 18.8644 28.0875 18.8831 28.0936 18.9016L29.5528 23.3231L27.7877 27.1489C27.5563 27.6504 27.7753 28.2445 28.2768 28.4759C28.7783 28.7073 29.3724 28.4883 29.6037 27.9868L31.534 23.8029C31.6401 23.5729 31.655 23.3112 31.5756 23.0706L30.1848 18.8565L30.8617 18.1728C31.2459 20.3107 32.059 21.7852 33.0001 21.7852C33.9411 21.7852 34.7543 20.3107 35.1384 18.1727L35.8154 18.8565L34.4246 23.0706C34.3452 23.3112 34.3601 23.5729 34.4662 23.8029L36.3963 27.9868C36.6276 28.4882 37.2217 28.7072 37.7232 28.4759C38.2247 28.2446 38.4437 27.6505 38.2123 27.149L36.4474 23.3231L37.9067 18.9016C37.9128 18.8831 37.9183 18.8644 37.9233 18.8458L38.2521 19.0671L37.7664 22.4457C37.7117 22.8255 37.8793 23.2031 38.1977 23.4175L40.5719 25.0161C41.03 25.3246 41.6514 25.2032 41.9599 24.7451C42.2683 24.287 42.147 23.6656 41.6889 23.3571L39.8353 22.109L40.3211 18.7305C40.3757 18.3506 40.2081 17.973 39.8898 17.7587L39.3869 17.4201C39.4617 17.4227 39.5376 17.4241 39.6145 17.4241C43.7583 17.4241 44.2187 14.6639 43.9309 13.2837L36.9137 12.0599L37.6676 11.2985C37.853 11.1113 37.957 10.8584 37.957 10.5949V8.60831L40.0418 6.50267C40.4304 6.11021 40.4273 5.47705 40.0348 5.08848C39.6424 4.6999 39.0092 4.70304 38.6206 5.0955L36.2464 7.49342C36.061 7.68066 35.957 7.9335 35.957 8.197V10.1836L34.8313 11.3206C34.6069 10.5891 34.3232 9.99436 34.0001 9.58964V5ZM33.3743 15.3908C33.3743 16.6434 33.2238 17.7477 33.0001 18.5912C32.7763 17.7477 32.6259 16.6434 32.6259 15.3908C32.6259 14.1383 32.7763 13.034 33.0001 12.1904C33.2238 13.034 33.3743 14.1383 33.3743 15.3908ZM26.3855 15.4241C25.1711 15.4241 24.6217 15.1338 24.3709 14.9125L28.8733 14.1273C28.8647 14.141 28.8561 14.1547 28.8473 14.1683C28.3981 14.8665 27.7058 15.4241 26.3855 15.4241ZM41.6291 14.9125C41.3783 15.1338 40.8289 15.4241 39.6145 15.4241C38.2942 15.4241 37.6019 14.8665 37.1527 14.1683C37.1439 14.1547 37.1353 14.141 37.1267 14.1273L41.6291 14.9125Z" fill="#333333"/>
</svg>
