<svg width="48" height="48" viewBox="0 0 48 48" fill="none" xmlns="http://www.w3.org/2000/svg">
<path fill-rule="evenodd" clip-rule="evenodd" d="M22.996 21.8838L20.6263 35.7041C20.598 36.0963 20.7138 36.4853 20.952 36.7982L22.8745 39.0095C24 39.5 24.5 39.5 25.4425 39.0095L27.3649 36.7982C27.6032 36.4853 27.719 36.0963 27.6906 35.7041L25.3095 21.902C25.1652 19.9051 23.1402 19.887 22.996 21.8838ZM25.6619 35.7088L24.1537 26.9665L22.6548 35.7084L24.0651 37.3307C24.1422 37.3567 24.1891 37.3685 24.2139 37.3737C24.2142 37.3736 24.2145 37.3735 24.2148 37.3734L25.6619 35.7088ZM24.1851 37.3816C24.1853 37.3814 24.1885 37.3806 24.1941 37.3797C24.1878 37.3814 24.185 37.3818 24.1851 37.3816ZM25.0052 21.9272C25.0059 21.9253 25.0062 21.9241 25.0063 21.9239C25.0063 21.9238 25.0063 21.9238 25.0063 21.9238C25.0063 21.9238 25.0063 21.9238 25.0062 21.9239C25.0061 21.9241 25.0057 21.9252 25.0052 21.9272ZM23.2994 21.9415C23.2986 21.9394 23.2983 21.9384 23.2984 21.9384C23.2984 21.9383 23.2988 21.9394 23.2994 21.9415Z" fill="#333333"/>
<path fill-rule="evenodd" clip-rule="evenodd" d="M24 6C14.0583 6 6 14.0546 6 23.9892C6 28.9256 7.98814 33.396 11.2103 36.6475L9.78969 38.0553C6.21161 34.4446 4 29.4741 4 23.9892C4 12.949 12.9548 4 24 4C35.0452 4 44 12.949 44 23.9892C44 29.6236 41.6663 34.7148 37.9152 38.3471L36.5239 36.9103C39.9022 33.639 42 29.0598 42 23.9892C42 14.0546 33.9417 6 24 6Z" fill="#333333"/>
<path fill-rule="evenodd" clip-rule="evenodd" d="M23 11L23 6.00001L25 6L25 11L23 11Z" fill="#333333"/>
<path fill-rule="evenodd" clip-rule="evenodd" d="M36.7068 37.0681L33.0595 33.4209L34.4737 32.0067L38.1209 35.6538L36.7068 37.0681Z" fill="#333333"/>
<path fill-rule="evenodd" clip-rule="evenodd" d="M14.1214 14.5355L10.5857 11.0001L11.9999 9.58584L15.5356 13.1213L14.1214 14.5355Z" fill="#333333"/>
<path fill-rule="evenodd" clip-rule="evenodd" d="M37.6843 22H42.6843V24H37.6843V22Z" fill="#333333"/>
<path fill-rule="evenodd" clip-rule="evenodd" d="M5.05267 22H10.0527V24H5.05267V22Z" fill="#333333"/>
<path fill-rule="evenodd" clip-rule="evenodd" d="M32.5858 12.9999L36.2332 9.35298L37.6474 10.7673L33.9999 14.4142L32.5858 12.9999Z" fill="#333333"/>
<path fill-rule="evenodd" clip-rule="evenodd" d="M14.1967 33.6232L10.5496 37.2704L9.13538 35.8563L12.7825 32.209L14.1967 33.6232Z" fill="#333333"/>
</svg>
