<svg width="48" height="48" viewBox="0 0 48 48" fill="none" xmlns="http://www.w3.org/2000/svg">
<path fill-rule="evenodd" clip-rule="evenodd" d="M23.3062 39.9997C23.8951 39.02 24.232 37.877 24.232 36.6536C24.232 33.0477 21.2836 30.0999 17.616 30.0999C13.9484 30.0999 11 33.0477 11 36.6536C11 37.877 11.3369 39.02 11.9258 39.9997H23.3062ZM24.3422 41.9997C25.5247 40.5353 26.232 38.6765 26.232 36.6536C26.232 31.9295 22.3745 28.0999 17.616 28.0999C12.8575 28.0999 9 31.9295 9 36.6536C9 38.6765 9.70731 40.5353 10.8898 41.9997H24.3422Z" fill="#333333"/>
<path fill-rule="evenodd" clip-rule="evenodd" d="M28.5796 19.2753L24.057 11.4984C23.7793 11.021 23.1658 10.8566 22.6867 11.1313L18.5651 13.4936C18.086 13.7683 17.9226 14.378 18.2002 14.8554L22.7229 22.6322C23.0005 23.1097 23.6141 23.274 24.0932 22.9994L28.2148 20.637C28.6939 20.3624 28.8573 19.7527 28.5796 19.2753ZM25.7921 10.5039C24.9592 9.0716 23.1187 8.57845 21.6812 9.40237L17.5597 11.7648C16.1222 12.5887 15.6321 14.4177 16.4651 15.8499L20.9877 23.6268C21.8207 25.0591 23.6612 25.5522 25.0987 24.7283L29.2202 22.3659C30.6577 21.542 31.1477 19.713 30.3148 18.2807L25.7921 10.5039Z" fill="#333333"/>
<path d="M19.8595 8.24615C20.6294 7.80487 21.6151 8.069 22.0612 8.8361C22.5073 9.60319 22.2449 10.5828 21.475 11.0241L18.6667 12.6337C17.8969 13.075 16.9111 12.8108 16.465 12.0437C16.0189 11.2766 16.2814 10.2971 17.0512 9.85578L19.8595 8.24615Z" fill="#333333"/>
<path fill-rule="evenodd" clip-rule="evenodd" d="M18.164 11.7692L20.9723 10.1596C21.263 9.99297 21.3621 9.62305 21.1937 9.33338C21.0252 9.0437 20.6529 8.94396 20.3622 9.1106L17.554 10.7202C17.2632 10.8869 17.1641 11.2568 17.3326 11.5465C17.501 11.8361 17.8733 11.9359 18.164 11.7692ZM22.0612 8.8361C21.6151 8.069 20.6294 7.80487 19.8595 8.24615L17.0512 9.85578C16.2814 10.2971 16.0189 11.2766 16.465 12.0437C16.9111 12.8108 17.8969 13.075 18.6667 12.6337L21.475 11.0241C22.2449 10.5828 22.5073 9.60319 22.0612 8.8361Z" fill="#333333"/>
<path fill-rule="evenodd" clip-rule="evenodd" d="M17.6855 10.7226L15.7764 7.30167L18.4055 5.85605L20.3146 9.27695L17.6855 10.7226Z" fill="#333333"/>
<path fill-rule="evenodd" clip-rule="evenodd" d="M26.3749 25.5231L25.1631 23.181L27.837 21.8186L29.0487 24.1607L26.3749 25.5231Z" fill="#333333"/>
<path fill-rule="evenodd" clip-rule="evenodd" d="M38.0761 27.0322L21.4961 36.3681L20.504 34.6316L37.084 25.2957L38.0761 27.0322Z" fill="#333333"/>
<path fill-rule="evenodd" clip-rule="evenodd" d="M20.924 41C20.924 40.4477 21.3717 40 21.924 40H37.1559C37.7082 40 38.1559 40.4477 38.1559 41C38.1559 41.5523 37.7082 42 37.1559 42H21.924C21.3717 42 20.924 41.5523 20.924 41Z" fill="#333333"/>
<path fill-rule="evenodd" clip-rule="evenodd" d="M11.0013 22.705C12.2738 20.1784 14.6243 18.1822 17.6783 16.5284L18.6307 18.2871C15.7612 19.841 13.8037 21.5871 12.7876 23.6046C11.7882 25.5889 11.6291 27.977 12.6405 30.9893L10.7445 31.6259C9.60191 28.2229 9.71203 25.2649 11.0013 22.705Z" fill="#333333"/>
</svg>
