<svg width="48" height="48" viewBox="0 0 48 48" fill="none" xmlns="http://www.w3.org/2000/svg">
<path fill-rule="evenodd" clip-rule="evenodd" d="M8.37416 23.788C8.78146 24.2411 9.92436 25 12.8773 25C15.591 25 17.0375 24.054 17.8406 23.0927C18.033 22.8625 18.197 22.6209 18.3357 22.3758L8.31741 23.7213C8.33542 23.7436 8.35432 23.7659 8.37416 23.788ZM6.10834 22L21 20C21 20.58 20.8996 21.3042 20.6489 22.0651C19.8912 24.3651 17.7601 27 12.8773 27C6.3791 27 5.65708 23.6667 6.10834 22Z" fill="#333333"/>
<path fill-rule="evenodd" clip-rule="evenodd" d="M39.6258 23.788C39.2185 24.2411 38.0756 25 35.1227 25C32.409 25 30.9625 24.054 30.1594 23.0927C29.967 22.8625 29.803 22.6209 29.6643 22.3758L39.6826 23.7213C39.6646 23.7436 39.6457 23.7659 39.6258 23.788ZM41.8917 22L27 20C27 20.58 27.1004 21.3042 27.3511 22.0651C28.1088 24.3651 30.2399 27 35.1227 27C41.6209 27 42.3429 23.6667 41.8917 22Z" fill="#333333"/>
<path fill-rule="evenodd" clip-rule="evenodd" d="M13.3103 8.72414C12.9104 8.34325 12.895 7.71028 13.2759 7.31035C13.6567 6.91042 14.2897 6.89498 14.6897 7.27586L18.1897 10.6092C18.3878 10.7979 18.5 11.0597 18.5 11.3333V14.2381L21.6897 17.2759C22.0896 17.6568 22.105 18.2897 21.7241 18.6897C21.3433 19.0896 20.7103 19.105 20.3103 18.7241L16.8103 15.3908C16.6122 15.2021 16.5 14.9403 16.5 14.6667V11.7619L13.3103 8.72414ZM20.8147 25.2718C21.2168 24.8933 21.8497 24.9125 22.2282 25.3147C22.6067 25.7168 22.5875 26.3497 22.1853 26.7282L16.84 31.7589L17.6055 35.4821C17.6985 35.9345 17.4696 36.3916 17.0518 36.5883L13.4259 38.295C12.9262 38.5302 12.3304 38.3157 12.0952 37.816C11.86 37.3163 12.0744 36.7206 12.5741 36.4854L15.4879 35.1139L14.7686 31.6147C14.6987 31.2748 14.81 30.923 15.0627 30.6851L20.8147 25.2718ZM21.7496 29.339C22.1147 28.9246 22.7466 28.8846 23.161 29.2496C23.5754 29.6147 23.6154 30.2466 23.2504 30.661L21.5088 32.638L22.737 36.208C22.8379 36.5015 22.7969 36.8252 22.626 37.0842L19.6779 41.5508C19.3737 42.0118 18.7534 42.1388 18.2925 41.8346C17.8316 41.5304 17.7045 40.9101 18.0087 40.4492L20.6856 36.3932L19.4284 32.7386C19.3115 32.3987 19.386 32.0221 19.6237 31.7523L21.7496 29.339Z" fill="#333333"/>
<path fill-rule="evenodd" clip-rule="evenodd" d="M34.7241 7.31034C35.105 7.71028 35.0896 8.34325 34.6897 8.72414L31.5 11.7619V14.6667C31.5 14.9403 31.3878 15.2021 31.1897 15.3908L27.6897 18.7241C27.2897 19.105 26.6567 19.0896 26.2759 18.6897C25.895 18.2897 25.9104 17.6567 26.3103 17.2759L29.5 14.2381V11.3333C29.5 11.0597 29.6122 10.7979 29.8103 10.6092L33.3103 7.27586C33.7103 6.89498 34.3433 6.91041 34.7241 7.31034Z" fill="#333333"/>
<path fill-rule="evenodd" clip-rule="evenodd" d="M25.7718 25.3147C26.1503 24.9125 26.7832 24.8933 27.1853 25.2718L32.9373 30.6851C33.19 30.923 33.3013 31.2748 33.2314 31.6147L32.5121 35.1139L35.4259 36.4854C35.9256 36.7206 36.14 37.3163 35.9048 37.816C35.6696 38.3157 35.0738 38.5302 34.5741 38.295L30.9482 36.5883C30.5304 36.3916 30.3015 35.9345 30.3945 35.4821L31.16 31.7589L25.8147 26.7282C25.4125 26.3497 25.3933 25.7168 25.7718 25.3147ZM24.839 29.2496C25.2534 28.8846 25.8853 28.9246 26.2504 29.339L28.3763 31.7523C28.614 32.0221 28.6885 32.3987 28.5716 32.7386L27.3144 36.3932L29.9913 40.4492C30.2955 40.9101 30.1684 41.5304 29.7075 41.8346C29.2466 42.1388 28.6263 42.0118 28.3221 41.5508L25.374 37.0842C25.2031 36.8252 25.1621 36.5015 25.263 36.208L26.4912 32.638L24.7496 30.661C24.3846 30.2466 24.4246 29.6147 24.839 29.2496Z" fill="#333333"/>
<path fill-rule="evenodd" clip-rule="evenodd" d="M24.0013 6C24.5536 6 25.0013 6.44772 25.0013 7V14.2676C25.0013 14.8198 24.5536 15.2676 24.0013 15.2676C23.4491 15.2676 23.0013 14.8198 23.0013 14.2676V7C23.0013 6.44772 23.4491 6 24.0013 6Z" fill="#333333"/>
<path fill-rule="evenodd" clip-rule="evenodd" d="M24.6791 28.6225C25.224 27.192 25.6029 25.0807 25.6029 22.6495C25.6029 20.2182 25.224 18.107 24.6791 16.6764C24.4396 16.0478 24.1973 15.628 24.0014 15.3776C23.8055 15.628 23.5632 16.0478 23.3237 16.6764C22.7787 18.107 22.3998 20.2182 22.3998 22.6495C22.3998 25.0807 22.7787 27.192 23.3237 28.6225C23.5632 29.2511 23.8055 29.6709 24.0014 29.9214C24.1973 29.6709 24.4396 29.2511 24.6791 28.6225ZM24.0014 32.1035C25.9905 32.1035 27.6029 27.8708 27.6029 22.6495C27.6029 17.4282 25.9905 13.1954 24.0014 13.1954C22.0123 13.1954 20.3998 17.4282 20.3998 22.6495C20.3998 27.8708 22.0123 32.1035 24.0014 32.1035Z" fill="#333333"/>
</svg>
