<svg width="48" height="48" viewBox="0 0 48 48" fill="none" xmlns="http://www.w3.org/2000/svg">
<path fill-rule="evenodd" clip-rule="evenodd" d="M31.5083 13.9475L34.9054 8.98148C31.7645 9.16855 27.9659 9.90622 24.3212 10.9606C21.8446 11.6771 19.0865 11.569 16.5223 11.0959C15.7147 10.9469 14.9191 10.7603 14.1488 10.5481L16.4562 13.945C21.1677 15.6842 26.796 15.685 31.5083 13.9475ZM15.2815 15.6365C20.7022 17.7885 27.275 17.7878 32.695 15.6345C34.8987 17.9207 37.175 20.7657 38.9289 23.7416C40.7625 26.8526 41.9199 29.9295 41.996 32.5723C42.068 35.0734 41.1893 37.2281 38.7141 38.8825C36.091 40.6357 31.5202 41.9244 24.024 41.9969C16.5257 42.0694 11.9479 40.868 9.31733 39.1673C6.84175 37.5668 5.946 35.4353 6.00245 32.9202C6.06213 30.2614 7.20619 27.1403 9.03585 23.9635C10.7825 20.9307 13.0594 18.0103 15.2815 15.6365ZM13.662 8.31949C14.6893 8.64286 15.7776 8.92471 16.8852 9.12906C19.2829 9.57147 21.6987 9.63727 23.7654 9.03939C26.3919 8.27955 29.1492 7.66384 31.733 7.2991C29.5282 6.57325 26.8626 6 24.0433 6C19.9743 6 16.1968 7.19394 13.662 8.31949ZM11.7469 7.01231C14.4518 5.65746 19.0249 4 24.0433 4C28.9687 4 33.4307 5.59663 36.1239 6.93673C36.1692 6.95924 36.2139 6.98167 36.2581 7.00403C36.9838 7.37078 37.5736 7.7157 38 8L33.8956 14C43.3574 23.6727 54.6501 43.701 24.0433 43.9968C-6.56356 44.2926 4.53174 24.0426 14.0758 14L10 8C10.2852 7.81256 10.642 7.59878 11.0622 7.36975C11.2746 7.25402 11.5031 7.13439 11.7469 7.01231Z" fill="#333333"/>
<path d="M22.2887 21H25.7113V22.6H29.1339V25.8H22.2887L22.1347 25.8128C21.9374 25.8462 21.7589 25.9433 21.6304 26.0872C21.5019 26.231 21.4314 26.4126 21.4314 26.6C21.4314 26.7874 21.5019 26.969 21.6304 27.1128C21.7589 27.2567 21.9374 27.3538 22.1347 27.3872L22.2887 27.4H25.7113L25.9919 27.408C27.1019 27.4737 28.1409 27.9409 28.8887 28.7106C29.6364 29.4803 30.0342 30.492 29.9977 31.5313C29.9612 32.5706 29.4933 33.5557 28.6932 34.2778C27.8929 35.0001 26.8235 35.4026 25.7113 35.4V37H22.2887V35.4H18.8661V32.2H25.7113L25.8653 32.1872C26.0626 32.1538 26.2411 32.0567 26.3696 31.9128C26.4981 31.769 26.5686 31.5874 26.5686 31.4C26.5686 31.2126 26.4981 31.031 26.3696 30.8872C26.2411 30.7433 26.0626 30.6462 25.8653 30.6128L25.7113 30.6H22.2887L22.0081 30.592C20.8981 30.5263 19.8591 30.0591 19.1113 29.2894C18.3636 28.5197 17.9658 27.508 18.0023 26.4687C18.0388 25.4294 18.5067 24.4443 19.3068 23.7222C20.1071 22.9999 21.1765 22.5974 22.2887 22.6V21Z" fill="#333333"/>
</svg>
