<svg width="48" height="48" viewBox="0 0 48 48" fill="none" xmlns="http://www.w3.org/2000/svg">
<path fill-rule="evenodd" clip-rule="evenodd" d="M25.0001 5.96631C25.0001 5.41402 24.5524 4.96631 24.0001 4.96631C23.4478 4.96631 23.0001 5.41402 23.0001 5.96631V10.5558C22.677 10.9605 22.3933 11.5553 22.1689 12.2868L21.0432 11.1499V9.16331C21.0432 8.89981 20.9392 8.64697 20.7538 8.45972L18.3796 6.06181C17.991 5.66935 17.3579 5.66621 16.9654 6.05478C16.573 6.44336 16.5698 7.07652 16.9584 7.46898L19.0432 9.57461V11.5612C19.0432 11.8247 19.1472 12.0776 19.3326 12.2648L20.0865 13.0262L13.0691 14.2501C12.7813 15.6302 13.2417 18.3904 17.3855 18.3904C17.4625 18.3904 17.5385 18.389 17.6133 18.3864L17.1105 18.725C16.7922 18.9393 16.6246 19.3169 16.6792 19.6967L17.1647 23.0753L15.3111 24.3234C14.853 24.6319 14.7317 25.2533 15.0401 25.7114C15.3486 26.1695 15.97 26.2909 16.4281 25.9824L18.8023 24.3838C19.1207 24.1695 19.2882 23.7919 19.2337 23.412L18.7481 20.0335L19.0769 19.8121C19.0819 19.8308 19.0875 19.8494 19.0936 19.8679L20.5528 24.2894L18.7877 28.1152C18.5563 28.6167 18.7753 29.2108 19.2768 29.4422C19.7783 29.6736 20.3724 29.4546 20.6037 28.9531L22.534 24.7692C22.6401 24.5392 22.655 24.2775 22.5756 24.0369L21.1848 19.8228L21.8617 19.1391C22.2459 21.2771 23.059 22.7516 24.0001 22.7516C24.9411 22.7516 25.7543 21.277 26.1384 19.139L26.8154 19.8228L25.4246 24.0369C25.3452 24.2775 25.3601 24.5392 25.4662 24.7692L27.3963 28.9531C27.6276 29.4546 28.2217 29.6736 28.7232 29.4422C29.2247 29.2109 29.4437 28.6168 29.2123 28.1153L27.4474 24.2894L28.9067 19.8679C28.9128 19.8494 28.9183 19.8308 28.9233 19.8121L29.2521 20.0334L28.7664 23.412C28.7117 23.7918 28.8793 24.1695 29.1977 24.3838L31.5719 25.9824C32.03 26.2909 32.6514 26.1695 32.9599 25.7114C33.2683 25.2533 33.147 24.6319 32.6889 24.3234L30.8353 23.0754L31.3211 19.6968C31.3757 19.3169 31.2081 18.9393 30.8898 18.725L30.3869 18.3864C30.4617 18.389 30.5376 18.3904 30.6145 18.3904C34.7583 18.3904 35.2187 15.6302 34.9309 14.2501L27.9137 13.0263L28.6676 12.2648C28.853 12.0776 28.957 11.8247 28.957 11.5612V9.57461L31.0418 7.46898C31.4304 7.07652 31.4273 6.44336 31.0348 6.05478C30.6424 5.66621 30.0092 5.66935 29.6206 6.06181L27.2464 8.45972C27.061 8.64697 26.957 8.89981 26.957 9.16331V11.1499L25.8313 12.2869C25.6069 11.5554 25.3232 10.9607 25.0001 10.5559V5.96631ZM24.3743 16.3571C24.3743 17.6097 24.2238 18.714 24.0001 19.5575C23.7763 18.714 23.6259 17.6097 23.6259 16.3571C23.6259 15.1046 23.7763 14.0003 24.0001 13.1567C24.2238 14.0003 24.3743 15.1046 24.3743 16.3571ZM17.3855 16.3904C16.1711 16.3904 15.6217 16.1001 15.3709 15.8788L19.8733 15.0936C19.8647 15.1073 19.8561 15.121 19.8473 15.1346C19.3981 15.8328 18.7058 16.3904 17.3855 16.3904ZM32.6291 15.8788C32.3783 16.1001 31.8289 16.3904 30.6145 16.3904C29.2942 16.3904 28.6019 15.8328 28.1527 15.1346C28.1439 15.121 28.1353 15.1073 28.1267 15.0936L32.6291 15.8788Z" fill="#333333"/>
<path fill-rule="evenodd" clip-rule="evenodd" d="M24 28.0002C19.919 28.0002 16.2597 27.558 13.6511 26.8623C12.3394 26.5126 11.35 26.1134 10.7121 25.7112C10.0242 25.2775 10 25.0121 10 25.0002V25L10 25C9.99998 24.9929 9.99972 24.9045 10.1637 24.7249C10.3344 24.5378 10.6326 24.3116 11.0965 24.0694C12.0224 23.5861 13.4189 23.1364 15.1964 22.7804L14.8036 20.8193C12.9377 21.1931 11.3343 21.6892 10.171 22.2964C9.59029 22.5996 9.0716 22.9547 8.68664 23.3764C8.29653 23.8037 8.00005 24.3513 8 25V25.0002V29.667C8 30.4684 8.43861 31.1053 9 31.5945V39.3078C9 40.3634 9.79461 41.1094 10.5711 41.5936C11.4003 42.1106 12.5337 42.5396 13.8455 42.8855C16.4838 43.5813 20.0736 44 24 44C27.9264 44 31.5162 43.5813 34.1545 42.8855C35.4663 42.5396 36.5997 42.1106 37.4289 41.5936C38.2054 41.1094 39 40.3634 39 39.3078V31.5945C39.5614 31.1053 40 30.4684 40 29.667V25.0002C40 25.0001 40 25.0001 40 25C40 24.3513 39.7035 23.8037 39.3134 23.3764C38.9284 22.9547 38.4097 22.5996 37.829 22.2964C36.6657 21.6892 35.0623 21.1931 33.1964 20.8193L32.8036 22.7804C34.5811 23.1364 35.9776 23.5861 36.9035 24.0694C37.3674 24.3116 37.6656 24.5378 37.8363 24.7249C38.0003 24.9045 38 24.9929 38 25V25V25.0002C38 25.0121 37.9758 25.2775 37.2879 25.7112C36.65 26.1134 35.6606 26.5126 34.3489 26.8623C31.7403 27.558 28.081 28.0002 24 28.0002ZM38 27.612C37.1614 28.0752 36.0872 28.4687 34.8643 28.7948C32.044 29.5469 28.2033 30.0002 24 30.0002C19.7967 30.0002 15.956 29.5469 13.1357 28.7948C11.9128 28.4687 10.8386 28.0752 10 27.612V29.667C10 29.6789 10.0242 29.9444 10.7121 30.3781C11.35 30.7802 12.3394 31.1794 13.6511 31.5292C16.2597 32.2248 19.919 32.667 24 32.667C28.081 32.667 31.7403 32.2248 34.3489 31.5292C35.6606 31.1794 36.65 30.7802 37.2879 30.3781C37.9758 29.9444 38 29.6789 38 29.667V27.612ZM37 32.7549C36.3636 33.0183 35.6441 33.2537 34.8643 33.4617C32.044 34.2137 28.2033 34.667 24 34.667C19.7967 34.667 15.956 34.2137 13.1357 33.4617C12.3558 33.2537 11.6364 33.0183 11 32.7549V39.3044L11.0001 39.3041L11.0006 39.3059C11.0066 39.3279 11.065 39.5446 11.6293 39.8964C12.2169 40.2628 13.1338 40.6294 14.3555 40.9516C16.7842 41.5922 20.1944 42 24 42C27.8056 42 31.2158 41.5922 33.6445 40.9516C34.8662 40.6294 35.7831 40.2628 36.3707 39.8964C36.9349 39.5446 36.9934 39.3279 36.9994 39.3059L36.9999 39.3041L37 39.3044V32.7549Z" fill="#333333"/>
</svg>
