<svg width="48" height="48" viewBox="0 0 48 48" fill="none" xmlns="http://www.w3.org/2000/svg">
<path fill-rule="evenodd" clip-rule="evenodd" d="M38 8.26367C38 9.92053 36.6569 11.2637 35 11.2637C33.3432 11.2637 32 9.92053 32 8.26367C32 6.60682 33.3432 5.26367 35 5.26367C36.6569 5.26367 38 6.60682 38 8.26367ZM37.6431 12.5088C39.0583 11.6258 40 10.0547 40 8.26367C40 5.50225 37.7614 3.26367 35 3.26367C32.2386 3.26367 30 5.50225 30 8.26367C30 10.056 30.9431 11.6281 32.3601 12.5107H30.5C29.6162 12.5107 28.7982 12.9773 28.3482 13.738L24.0328 21.0338L19.7174 13.738C19.2675 12.9773 18.4494 12.5107 17.5657 12.5107H15.7056C17.1226 11.6281 18.0656 10.056 18.0656 8.26367C18.0656 5.50225 15.8271 3.26367 13.0656 3.26367C10.3042 3.26367 8.06565 5.50225 8.06565 8.26367C8.06565 10.0547 9.00734 11.6258 10.4226 12.5088H7.67508C7.21316 12.5088 6.70074 12.6955 6.257 12.9283C5.78215 13.1774 5.26898 13.5407 4.79364 14.0156C3.83781 14.9705 3 16.4163 3 18.3193C3 20.6604 3.77639 22.3707 4.73652 23.5072C5.21158 24.0695 5.72995 24.4893 6.21654 24.774C6.36369 24.8601 6.51777 24.9396 6.67508 25.0077V42.3928C6.67508 43.8441 7.85835 45.0274 9.30966 45.0274C10.761 45.0274 11.9442 43.8441 11.9442 42.3928V31.22H14.2134V42.3928C14.2134 43.8441 15.3967 45.0274 16.848 45.0274C18.2993 45.0274 19.4825 43.8441 19.4825 42.3928V23.1621L21.9139 27.2727C22.6168 28.4611 24.15 28.8547 25.3384 28.1518C25.8787 27.8322 26.2547 27.3411 26.438 26.7888L28.5831 23.1621V42.3928C28.5831 43.8441 29.7664 45.0274 31.2177 45.0274C32.669 45.0274 33.8523 43.8441 33.8523 42.3928V31.22H36.1214V42.3928C36.1214 43.8441 37.3047 45.0274 38.756 45.0274C40.2073 45.0274 41.3906 43.8441 41.3906 42.3928V25.0077C41.5479 24.9396 41.702 24.8601 41.8491 24.774C42.3357 24.4893 42.8541 24.0695 43.3291 23.5072C44.2893 22.3707 45.0657 20.6604 45.0657 18.3193C45.0657 16.4163 44.2279 14.9705 43.272 14.0156C42.7967 13.5407 42.2835 13.1774 41.8087 12.9283C41.3649 12.6955 40.8525 12.5088 40.3906 12.5088H37.6431ZM25.7756 23.9802L28.7224 18.9981L30.5831 15.8523V19.5072V42.3928C30.5831 42.7396 30.871 43.0274 31.2177 43.0274C31.5644 43.0274 31.8523 42.7396 31.8523 42.3928V30.22V29.22H32.8523H37.1214H38.1214V30.22V42.3928C38.1214 42.7396 38.4093 43.0274 38.756 43.0274C39.1027 43.0274 39.3906 42.7396 39.3906 42.3928V24.2442V23.2442H39.3931V16.4835H41.3931V22.6383C41.5281 22.5172 41.6658 22.3769 41.8014 22.2165C42.454 21.444 43.0657 20.1918 43.0657 18.3193C43.0657 17.0463 42.5154 16.0868 41.8585 15.4305C41.5274 15.0998 41.178 14.856 40.8795 14.6993C40.5931 14.5491 40.4259 14.5161 40.3951 14.51C40.3905 14.5091 40.389 14.5088 40.3906 14.5088H32.5638C32.5392 14.5088 32.5147 14.5092 32.4904 14.5101L32.4725 14.5107H32.4546H30.5C30.3233 14.5107 30.1596 14.6041 30.0696 14.7562L25.1947 22.9981L25.7756 23.9802ZM15.5018 14.5088C15.5265 14.5088 15.5509 14.5092 15.5753 14.5101L15.5931 14.5107H15.611H17.5657C17.7424 14.5107 17.906 14.6041 17.996 14.7562L24.496 25.7454C24.6366 25.9831 24.5579 26.2898 24.3202 26.4304C24.0826 26.5709 23.7759 26.4922 23.6353 26.2545L19.3432 18.9981L17.4825 15.8523V19.5072V42.3928C17.4825 42.7396 17.1947 43.0274 16.848 43.0274C16.5012 43.0274 16.2134 42.7396 16.2134 42.3928V30.22V29.22H15.2134H10.9442H9.94423V30.22V42.3928C9.94423 42.7396 9.65639 43.0274 9.30966 43.0274C8.96293 43.0274 8.67508 42.7396 8.67508 42.3928V24.2442V23.2442H8.6726V16.4835H6.6726V22.6383C6.53755 22.5172 6.39985 22.3769 6.2643 22.2165C5.61164 21.444 5 20.1918 5 18.3193C5 17.0463 5.55023 16.0868 6.20718 15.4305C6.53823 15.0998 6.88765 14.856 7.18616 14.6993C7.4726 14.5491 7.6398 14.5161 7.67054 14.51L7.67056 14.51C7.67518 14.5091 7.67671 14.5088 7.67508 14.5088H15.5018ZM13.0656 11.2637C11.4088 11.2637 10.0656 9.92053 10.0656 8.26367C10.0656 6.60682 11.4088 5.26367 13.0656 5.26367C14.7225 5.26367 16.0656 6.60682 16.0656 8.26367C16.0656 9.92053 14.7225 11.2637 13.0656 11.2637Z" fill="#333333"/>
</svg>
