<svg width="48" height="48" viewBox="0 0 48 48" fill="none" xmlns="http://www.w3.org/2000/svg">
<path fill-rule="evenodd" clip-rule="evenodd" d="M39 8H9C8.44771 8 8 8.44772 8 9V39C8 39.5523 8.44772 40 9 40H39C39.5523 40 40 39.5523 40 39V9C40 8.44771 39.5523 8 39 8ZM9 6C7.34315 6 6 7.34315 6 9V39C6 40.6569 7.34315 42 9 42H39C40.6569 42 42 40.6569 42 39V9C42 7.34315 40.6569 6 39 6H9Z" fill="#333333"/>
<path d="M15.5462 31.3156C7.64483 27.5384 10.5202 15.3649 15.9245 13.4496C18.1663 12.6551 20.7061 15.4855 20.7209 17.2125C20.7356 18.9394 18.9055 20.5308 19.3221 22.6739C19.7386 24.8169 20.2268 28.4288 19.1645 30.118C18.1022 31.8073 17.0073 32.0141 15.5462 31.3156Z" fill="#333333"/>
<path fill-rule="evenodd" clip-rule="evenodd" d="M20.4701 25.9996C20.4701 25.9996 20.4716 25.9996 20.4999 25C20.5283 24.0004 20.5298 24.0004 20.5298 24.0004L20.5314 24.0005L20.5346 24.0006L20.5415 24.0009L20.5573 24.0016C20.5687 24.0022 20.5816 24.003 20.5962 24.0042C20.6252 24.0065 20.6606 24.0101 20.7016 24.0158C20.7831 24.027 20.8883 24.0466 21.0094 24.081C21.251 24.1496 21.5659 24.2802 21.8785 24.5288C22.5436 25.0578 23.012 25.9659 23.012 27.3625V42H21.012V27.3625C21.012 26.4395 20.7244 26.1663 20.6335 26.094C20.568 26.0419 20.5049 26.0168 20.463 26.0049C20.4423 25.999 20.4283 25.997 20.4283 25.997C20.4283 25.997 20.4308 25.9974 20.4377 25.9979L20.4512 25.9988L20.4605 25.9992L20.4658 25.9994L20.4687 25.9995L20.4701 25.9996Z" fill="#333333"/>
<path d="M32.6496 31.3156C40.551 27.5384 37.6756 15.3649 32.2713 13.4496C30.0295 12.6551 27.4897 15.4855 27.4749 17.2125C27.4602 18.9394 29.2903 20.5308 28.8737 22.6739C28.4572 24.8169 27.969 28.4288 29.0313 30.118C30.0936 31.8073 31.1885 32.0141 32.6496 31.3156Z" fill="#333333"/>
<path fill-rule="evenodd" clip-rule="evenodd" d="M27.7256 25.9996C27.7256 25.9996 27.7242 25.9996 27.6958 25C27.6674 24.0004 27.6659 24.0004 27.6659 24.0004L27.6644 24.0005L27.6611 24.0006L27.6542 24.0009L27.6384 24.0016C27.6271 24.0022 27.6141 24.003 27.5996 24.0042C27.5705 24.0065 27.5351 24.0101 27.4942 24.0158C27.4126 24.027 27.3074 24.0466 27.1863 24.081C26.9447 24.1496 26.6298 24.2802 26.3173 24.5288C25.6522 25.0578 25.1838 25.9659 25.1838 27.3625V42H27.1838V27.3625C27.1838 26.4395 27.4714 26.1663 27.5623 26.094C27.6278 26.0419 27.6909 26.0168 27.7328 26.0049C27.7534 25.999 27.7675 25.997 27.7675 25.997C27.7675 25.997 27.765 25.9974 27.7581 25.9979L27.7445 25.9988L27.7352 25.9992L27.7299 25.9994L27.7271 25.9995L27.7256 25.9996Z" fill="#333333"/>
</svg>
