<svg width="48" height="48" viewBox="0 0 48 48" fill="none" xmlns="http://www.w3.org/2000/svg">
<path fill-rule="evenodd" clip-rule="evenodd" d="M8.05721 16.2495C7.85565 16.0953 7.67425 15.9325 7.51799 15.7625C5.92076 14.0245 5.48762 11.6748 6.55054 10.5144C7.07748 9.93913 7.87317 9.76412 8.73624 9.94564C9.29938 10.0641 9.89121 10.3343 10.4558 10.7442C10.7022 10.1064 11.0564 9.56251 11.4844 9.16052C11.989 8.68653 12.5959 8.40985 13.2492 8.40932C13.9677 8.40873 14.6308 8.74232 15.1636 9.30532C15.4845 9.64439 15.7581 10.0667 15.9681 10.5493C16.4343 10.2517 16.9127 10.0484 17.3729 9.94597C18.2489 9.75103 19.059 9.92166 19.5939 10.5037C20.6587 11.6624 20.2294 14.0127 18.635 15.7534C18.4792 15.9235 18.2974 16.0865 18.0959 16.2409C19.1639 16.7812 19.8288 17.9697 19.6088 19.2386L16.4212 37.6246C16.1424 39.2327 14.7392 40.4081 13.0967 40.4095C11.4542 40.4108 10.049 39.2376 9.76761 37.63L6.54988 19.2493C6.32787 17.9811 6.99054 16.7917 8.05721 16.2495ZM14.2289 11.2962L15.1145 13.3315L16.9923 12.1329C17.4438 11.8447 17.8116 11.7563 18.0258 11.7514C18.1267 11.7491 18.1764 11.7652 18.189 11.77C18.1928 11.7715 18.1944 11.7722 18.1944 11.7722C18.1968 11.7748 18.2346 11.8163 18.2612 11.9455C18.2892 12.0814 18.2989 12.2923 18.2474 12.5742C18.1429 13.1461 17.814 13.8529 17.2337 14.4865C16.9302 14.8178 16.2843 15.2256 15.4206 15.5397C14.6637 15.8149 13.9715 15.9341 13.5328 15.9385L13.4872 15.9385C13.4457 15.9382 13.4067 15.9367 13.3704 15.9342L13.2486 15.9257L13.1267 15.9328C13.0594 15.9367 12.9895 15.9388 12.9174 15.939L12.8953 15.939C12.2771 15.9379 11.5002 15.8035 10.7374 15.5367C9.85626 15.2286 9.22135 14.8242 8.91728 14.4933C8.33592 13.8607 8.00583 13.1544 7.90045 12.5827C7.84849 12.3009 7.85776 12.09 7.88554 11.954C7.91196 11.8248 7.94946 11.7839 7.95185 11.7813C7.95185 11.7813 7.95376 11.7797 7.96085 11.7772C7.97939 11.7706 8.04255 11.7533 8.16495 11.7616C8.42288 11.779 8.84608 11.907 9.33786 12.264L11.3374 13.7156L12.2247 11.4186C12.4006 10.9634 12.6325 10.6573 12.8356 10.4839C13.0294 10.3185 13.169 10.2917 13.2507 10.2917C13.3684 10.2916 13.8424 10.4078 14.2289 11.2962ZM16.8072 17.8182L9.34919 17.8243C8.76138 17.8248 8.31588 18.3514 8.4166 18.9267L8.88272 21.5894L11.6602 21.5871C12.1834 21.5867 12.6079 22.0077 12.6084 22.5275C12.6088 23.0473 12.185 23.469 11.6618 23.4694L9.2122 23.4715L10.3654 30.0587L10.7198 30.0585C11.243 30.058 11.6675 30.4791 11.6679 30.9989C11.6684 31.5187 11.2446 31.9404 10.7213 31.9408L10.6948 31.9408L11.6343 37.3075C11.7578 38.0129 12.3744 38.5277 13.0952 38.5271C13.8159 38.5265 14.4316 38.0107 14.554 37.3051L16.3007 27.2304L13.5596 27.2326C13.0364 27.233 12.6119 26.812 12.6114 26.2922C12.611 25.7724 13.0348 25.3507 13.558 25.3502L16.4002 25.3479C16.4767 25.3479 16.5512 25.3568 16.6225 25.3738L17.7416 18.9191C17.8414 18.3436 17.395 17.8177 16.8072 17.8182Z" fill="#333333"/>
<path d="M38.0385 28.0367C37.9731 27.521 37.4992 27.1556 36.98 27.2207C36.4609 27.2857 36.0932 27.7565 36.1587 28.2723C36.2164 28.7272 36.1533 29.5168 35.7406 30.2636C35.347 30.9762 34.61 31.6993 33.2115 32.0538C32.7045 32.1824 32.3984 32.6948 32.5277 33.1985C32.6571 33.7022 33.1729 34.0063 33.6799 33.8777C35.586 33.3946 36.7552 32.3394 37.4016 31.1694C38.0291 30.0336 38.1401 28.8365 38.0385 28.0367Z" fill="#333333"/>
<path fill-rule="evenodd" clip-rule="evenodd" d="M32.6163 16.1872C33.0246 15.8621 33.0904 15.2698 32.7632 14.8642C32.436 14.4586 31.8398 14.3932 31.4315 14.7183C30.1869 15.7091 29.6688 17.3486 29.5429 18.9324C29.4736 19.8031 29.5171 20.7148 29.6529 21.5998L29.4408 21.4736C28.5158 20.9232 27.4575 20.6329 26.3793 20.6338C24.572 20.6353 22.8633 21.4529 21.7355 22.8558L21.6848 22.9189C21.4159 23.2534 21.1833 23.6152 20.9909 23.9982L20.8445 24.2896C20.4345 25.106 20.1497 25.9786 19.9994 26.8787L19.9805 26.9922C19.478 30.0022 20.3982 33.0743 22.4753 35.3218L23.0125 35.903C24.2359 37.2267 25.7788 38.2189 27.4954 38.7858C29.8391 39.5598 32.3892 39.4961 34.6918 38.6141C36.7555 37.8236 38.5311 36.4135 39.7575 34.5827L40.2102 33.907C41.3668 32.1803 41.9831 30.1522 41.9814 28.0782L41.981 27.6358C41.9805 26.9532 41.8841 26.274 41.6948 25.6178L41.5783 25.2137C41.1363 23.6818 40.1249 22.3741 38.7488 21.5554C36.6526 20.3082 34.0206 20.3726 31.9887 21.7207L31.6428 21.9502C31.4402 21.0106 31.358 20.0077 31.4317 19.0806C31.5403 17.7154 31.9673 16.7038 32.6163 16.1872ZM30.5322 24.2194C30.7743 24.3909 31.0936 24.4468 31.3956 24.342C31.5227 24.2978 31.6343 24.2295 31.7271 24.144C31.7828 24.1162 31.8371 24.0848 31.8897 24.0499L33.0409 23.2861C34.464 22.3419 36.3072 22.2968 37.7753 23.1703C38.739 23.7437 39.4474 24.6595 39.7568 25.7323L39.8734 26.1364C40.0142 26.6245 40.0859 27.1296 40.0863 27.6373L40.0866 28.0798C40.088 29.7821 39.5822 31.4469 38.6328 32.8641L38.1801 33.5399C37.1719 35.045 35.7099 36.2067 34.0102 36.8578C32.1157 37.5835 30.0179 37.6352 28.0931 36.9996C26.682 36.5336 25.4138 35.718 24.4082 34.6299L23.871 34.0487C22.1881 32.2278 21.4426 29.7388 21.8497 27.3001L21.8686 27.1866C21.988 26.4717 22.2142 25.7785 22.5399 25.13L22.6863 24.8387C22.8191 24.5742 22.9797 24.3245 23.1653 24.0936L23.216 24.0305C23.9846 23.0744 25.1491 22.5172 26.3808 22.5162C27.1157 22.5156 27.8369 22.7134 28.4673 23.0885L29.6795 23.8097L30.3577 24.1459C30.4147 24.1742 30.473 24.1987 30.5322 24.2194Z" fill="#333333"/>
<path d="M32.5009 19.6876C32.4988 17.0887 34.6178 14.98 37.2339 14.9779C37.236 17.5769 35.117 19.6855 32.5009 19.6876Z" fill="#333333"/>
</svg>
