<svg width="48" height="48" viewBox="0 0 48 48" fill="none" xmlns="http://www.w3.org/2000/svg">
<path fill-rule="evenodd" clip-rule="evenodd" d="M5.02686 12.004C5.17698 14.6951 5.94291 16.3609 7.06462 17.3875C6.51693 17.7954 6.19941 18.4801 6.31599 19.2204C6.88836 22.855 8.31931 30.5431 11.2527 39.209C11.8357 40.9314 14.1641 40.9314 14.7471 39.209C17.6805 30.5431 19.1115 22.855 19.6838 19.2204C19.8004 18.4801 19.4829 17.7954 18.9352 17.3875C20.0568 16.3609 20.8228 14.6951 20.9729 12.004C21.0036 11.4526 20.5507 10.9983 19.9985 11.0062C18.3703 11.0296 17.0772 11.1285 16.0685 11.4676C15.6521 10.3692 14.8113 9.3322 13.5461 8.3855C13.2229 8.14364 12.7768 8.14364 12.4535 8.3855C11.1987 9.32451 10.3613 10.3524 9.94146 11.4409C8.96183 11.152 7.679 11.0374 6.00387 11.0081C5.45167 10.9984 4.9961 11.4526 5.02686 12.004ZM14.8808 13.9768L14.1983 12.1766C14.0094 11.6781 13.6401 11.1177 12.9999 10.5265C12.3664 11.1114 11.9981 11.6663 11.8075 12.1606L11.144 13.8807L9.37572 13.3592C8.85407 13.2053 8.14177 13.1027 7.14103 13.0479C7.43834 14.9761 8.15298 15.791 8.80446 16.2123C9.73598 16.8147 11.0932 16.998 12.9699 16.9999H13.0298C14.9065 16.998 16.2638 16.8147 17.1953 16.2123C17.8474 15.7906 18.5628 14.9745 18.8596 13.0424C17.8897 13.0933 17.209 13.1942 16.7057 13.3634L14.8808 13.9768ZM8.30596 18.9999H17.6938C17.4074 20.8074 16.9099 23.5991 16.124 26.9999H11.9998V28.9999H15.6447C14.9541 31.7822 14.0842 34.8824 12.9999 38.1299C12.6456 37.0689 12.3142 36.0236 12.0045 34.9999H12.9998V32.9999H11.4183C10.4609 29.6259 9.74447 26.548 9.22082 23.9999H11.9998L11.9998 21.9999H8.82722C8.60614 20.8238 8.43474 19.8124 8.30596 18.9999Z" fill="currentColor"/>
<path d="M38.2423 28.0298C38.7781 28.1637 39.1038 28.7066 38.9699 29.2424C38.3803 31.6007 36.6006 33.3805 34.2423 33.9701C33.7065 34.104 33.1636 33.7782 33.0296 33.2424C32.8957 32.7066 33.2214 32.1637 33.7572 32.0298C35.3989 31.6193 36.6192 30.3991 37.0296 28.7574C37.1636 28.2216 37.7065 27.8958 38.2423 28.0298Z" fill="currentColor"/>
<path fill-rule="evenodd" clip-rule="evenodd" d="M32.6506 21.0273C31.5417 18.4345 31.7339 15.68 33.7068 13.707L32.2926 12.2928C29.9633 14.6222 29.5588 17.6702 30.34 20.4708C25.7643 18.4006 20.9998 22.2076 20.9998 27.9999C20.9998 33.5228 25.9246 37.9999 31.9998 37.9999C38.0749 37.9999 42.9998 33.5228 42.9998 27.9999C42.9998 21.7798 37.5053 17.849 32.6506 21.0273ZM31.9998 24.0611L30.7504 23.0616C28.8924 21.5753 27.0619 21.6578 25.6757 22.514C24.2101 23.4192 22.9998 25.3574 22.9998 27.9999C22.9998 32.2431 26.8455 35.9999 31.9998 35.9999C37.154 35.9999 40.9998 32.2431 40.9998 27.9999C40.9998 25.3575 39.7894 23.4192 38.3238 22.514C36.9376 21.6578 35.1071 21.5753 33.2491 23.0616L31.9998 24.0611Z" fill="currentColor"/>
<path d="M33.9998 17.9999C36.9998 17.9999 38.9998 15.9999 38.9998 12.9999C35.9998 12.9999 33.9998 14.9999 33.9998 17.9999Z" fill="currentColor"/>
</svg>
