<svg width="48" height="48" viewBox="0 0 48 48" fill="none" xmlns="http://www.w3.org/2000/svg">
<path fill-rule="evenodd" clip-rule="evenodd" d="M39.0662 25.0664H18.11C17.4932 25.0664 16.905 24.8194 16.4736 24.3851L17.8925 22.9756C17.9502 23.0337 18.0285 23.0664 18.11 23.0664H39.0662C41.2388 23.0664 43 24.8423 43 27.033C43 29.2238 41.2388 30.9997 39.0662 30.9997H15.0722C14.7733 30.9997 14.4867 30.8801 14.2752 30.6672L6.16703 22.5042C4.61099 20.9376 4.61099 18.3951 6.16703 16.8285C7.71958 15.2655 10.2342 15.2655 11.7867 16.8285L17.8925 22.9756L16.4736 24.3851L10.3677 18.238C9.59731 17.4623 8.35643 17.4623 7.586 18.238C6.80467 19.0246 6.80467 20.3081 7.586 21.0948L15.4379 28.9997H39.0662C40.1186 28.9997 41 28.1349 41 27.033C41 25.9311 40.1185 25.0664 39.0662 25.0664Z" fill="#333333"/>
<path d="M7 23L9 24.1818V36H7V23Z" fill="#333333"/>
<path d="M38 30.5234H40V36.1991H38V30.5234Z" fill="#333333"/>
<path d="M4 36C4 35.4477 4.44772 35 5 35H43C43.5523 35 44 35.4477 44 36C44 36.5523 43.5523 37 43 37H5C4.44771 37 4 36.5523 4 36Z" fill="#333333"/>
<path fill-rule="evenodd" clip-rule="evenodd" d="M8.5 41C9.32843 41 10 40.3284 10 39.5C10 38.6716 9.32843 38 8.5 38C7.67157 38 7 38.6716 7 39.5C7 40.3284 7.67157 41 8.5 41ZM8.5 43C10.433 43 12 41.433 12 39.5C12 37.567 10.433 36 8.5 36C6.567 36 5 37.567 5 39.5C5 41.433 6.567 43 8.5 43Z" fill="#333333"/>
<path fill-rule="evenodd" clip-rule="evenodd" d="M39.5 41C40.3284 41 41 40.3284 41 39.5C41 38.6716 40.3284 38 39.5 38C38.6716 38 38 38.6716 38 39.5C38 40.3284 38.6716 41 39.5 41ZM39.5 43C41.433 43 43 41.433 43 39.5C43 37.567 41.433 36 39.5 36C37.567 36 36 37.567 36 39.5C36 41.433 37.567 43 39.5 43Z" fill="#333333"/>
<path fill-rule="evenodd" clip-rule="evenodd" d="M10.7632 15.1034C12.2364 13.6315 14.624 13.6323 16.0961 15.1052L17.8964 16.9063L17.1891 17.6132L17.8964 16.9063C19.3686 18.3793 19.3678 20.7667 17.8945 22.2387L16.4245 23.7074L15.0109 22.2926L16.4809 20.8239C17.1727 20.1327 17.1731 19.0118 16.4818 18.3202L14.6816 16.5191C13.9902 15.8273 12.8687 15.8269 12.1768 16.5182L10.7068 17.9869L9.29321 16.5721L10.7632 15.1034Z" fill="#333333"/>
<path fill-rule="evenodd" clip-rule="evenodd" d="M38 15C40.2091 15 42 13.2091 42 11C42 8.79086 40.2091 7 38 7C35.7909 7 34 8.79086 34 11C34 13.2091 35.7909 15 38 15ZM38 17C41.3137 17 44 14.3137 44 11C44 7.68629 41.3137 5 38 5C34.6863 5 32 7.68629 32 11C32 14.3137 34.6863 17 38 17Z" fill="#333333"/>
<path fill-rule="evenodd" clip-rule="evenodd" d="M39 8V10H40.5V12H37V8H39Z" fill="#333333"/>
</svg>
