<svg width="48" height="48" viewBox="0 0 48 48" fill="none" xmlns="http://www.w3.org/2000/svg">
<path fill-rule="evenodd" clip-rule="evenodd" d="M20.4675 9.00181C20.4675 7.34355 21.8111 6 23.4676 6C25.1241 6 26.4677 7.34355 26.4677 9.00181C26.4677 10.6601 25.1241 12.0036 23.4676 12.0036C21.8111 12.0036 20.4675 10.6601 20.4675 9.00181ZM23.4676 4C20.7057 4 18.4675 6.23979 18.4675 9.00181C18.4675 9.52551 18.548 10.0304 18.6972 10.5049H18.1006C17.6387 10.5049 17.1263 10.6916 16.6825 10.9244C16.2077 11.1735 15.6945 11.5368 15.2192 12.0117C14.2633 12.9666 13.4255 14.4124 13.4255 16.3153C13.4255 18.6565 14.2019 20.3668 15.1621 21.5033C15.6371 22.0656 16.1555 22.4854 16.6421 22.7701C16.7892 22.8562 16.9433 22.9357 17.1006 23.0038V41.868C17.1006 43.3193 18.2839 44.5026 19.7352 44.5026L19.7389 44.5025H19.7508L19.7544 44.5026C21.2057 44.5026 22.389 43.3193 22.389 41.868V31.216H24.6389V41.868C24.6389 43.3193 25.8222 44.5026 27.2735 44.5026L27.2772 44.5025H27.2891L27.2927 44.5026C28.744 44.5026 29.9273 43.3193 29.9273 41.868V23.1327L30.1684 23.8236C30.5073 24.7949 31.3851 25.4245 32.3498 25.4942C31.5366 26.0309 31 26.9528 31 28V28.6667C31 29.219 31.4477 29.6667 32 29.6667C32.5523 29.6667 33 29.219 33 28.6667V28C33 27.4477 33.4477 27 34 27C34.5523 27 35 27.4477 35 28V42C35 42.5523 35.4477 43 36 43C36.5523 43 37 42.5523 37 42V28C37 26.3531 35.6729 25.0161 34.0297 25.0001C34.8776 24.3642 35.257 23.2305 34.8893 22.1764L31.6362 12.8528C31.1458 11.4474 29.8201 10.5059 28.3315 10.5059H28.2377C28.3871 10.0311 28.4677 9.52587 28.4677 9.00181C28.4677 6.23979 26.2295 4 23.4676 4ZM18.1006 12.5049H19.8986C20.8059 13.4298 22.0697 14.0036 23.4676 14.0036C24.865 14.0036 26.1284 13.4302 27.0356 12.5059H28.3315C28.9695 12.5059 29.5376 12.9094 29.7478 13.5117L33.0009 22.8353C33.0919 23.096 32.9543 23.3811 32.6935 23.4721C32.4328 23.5631 32.1477 23.4254 32.0567 23.1647L29.8715 16.9017L27.9273 17.2311V41.868C27.9273 42.2147 27.6395 42.5026 27.2927 42.5026L27.2891 42.5025L27.2891 42.5025L27.2772 42.5025L27.2735 42.5026C26.9268 42.5026 26.6389 42.2147 26.6389 41.868V30.216V29.216H25.6389H21.389H20.389V30.216V41.868C20.389 42.2147 20.1012 42.5026 19.7544 42.5026L19.7508 42.5025L19.7508 42.5025L19.7389 42.5025L19.7352 42.5026C19.3885 42.5026 19.1006 42.2147 19.1006 41.868V22.2402V21.2402H19.0977L19.0977 16H17.0977L17.0977 20.634C16.9628 20.5129 16.8252 20.3728 16.6898 20.2126C16.0372 19.4401 15.4255 18.1879 15.4255 16.3153C15.4255 15.0424 15.9758 14.0829 16.6327 13.4266C16.9638 13.0959 17.3132 12.852 17.6117 12.6954C17.8981 12.5452 18.0653 12.5122 18.0961 12.5061L18.0961 12.5061C18.1007 12.5052 18.1022 12.5049 18.1006 12.5049Z" fill="#333333"/>
</svg>
