<svg width="48" height="48" viewBox="0 0 48 48" fill="none" xmlns="http://www.w3.org/2000/svg">
<path fill-rule="evenodd" clip-rule="evenodd" d="M23 4C22.4477 4 22 4.44772 22 5C22 5.03124 22.0014 5.06215 22.0042 5.09265C22.3158 5.03186 22.6377 5 22.9671 5C23.3193 5 23.6629 5.03642 23.9945 5.10568C23.9981 5.07095 24 5.0357 24 5C24 4.44772 23.5523 4 23 4ZM25.8566 5.91922C25.9497 5.62953 26 5.32064 26 5C26 3.34315 24.6569 2 23 2C21.3431 2 20 3.34315 20 5C20 5.30676 20.046 5.60277 20.1316 5.88149C18.8239 6.78374 17.967 8.29281 17.967 10.0018C17.967 10.5255 18.0475 11.0304 18.1968 11.5049H17.5718C17.1099 11.5049 16.5975 11.6916 16.1537 11.9244C15.6789 12.1735 15.1657 12.5368 14.6904 13.0117C13.7345 13.9666 12.8967 15.4124 12.8967 17.3153C12.8967 19.6506 13.6692 21.3583 14.6262 22.4949C15.0997 23.0573 15.6166 23.4777 16.1023 23.7637C16.1927 23.8169 16.2855 23.8675 16.38 23.9145L14.0195 33.9868L13.7317 35.215H14.9932H16.5718V42.868C16.5718 44.3193 17.7551 45.5026 19.2064 45.5026C20.6577 45.5026 21.841 44.3193 21.841 42.868V35.216H24.1101V42.868C24.1101 44.3193 25.2934 45.5026 26.7447 45.5026C28.196 45.5026 29.3793 44.3193 29.3793 42.868V35.215H31.0454H32.3069L32.019 33.9868L31.1165 30.1355C31.2845 30.4515 31.6171 30.6667 32 30.6667C32.5523 30.6667 33 30.219 33 29.6667V29C33 28.4477 33.4477 28 34 28C34.5523 28 35 28.4477 35 29V43C35 43.5523 35.4477 44 36 44C36.5523 44 37 43.5523 37 43V29C37 27.4975 35.8955 26.253 34.4542 26.0342C35.4043 25.3564 35.777 24.0815 35.2807 22.976L31.0587 13.5723C30.4941 12.3149 29.2441 11.5059 27.8657 11.5059H27.7372C27.8866 11.0311 27.9672 10.5259 27.9672 10.0018C27.9672 8.31641 27.1338 6.82546 25.8566 5.91922ZM22.9671 7C21.3106 7 19.967 8.34355 19.967 10.0018C19.967 10.5495 20.1136 11.0629 20.3696 11.5049H20.3984L20.6985 11.873C21.2442 12.5425 22.0721 12.9672 23 12.9672C23.9275 12.9672 24.7551 12.5428 25.3009 11.8738L25.4343 11.7102C25.7703 11.2254 25.9672 10.6366 25.9672 10.0018C25.9672 8.34355 24.6236 7 22.9671 7ZM17.5718 13.5049H19.3981C20.3054 14.4298 21.5692 15.0036 22.9671 15.0036C24.3646 15.0036 25.6279 14.4302 26.5352 13.5059H27.8657C28.4565 13.5059 28.9922 13.8526 29.2342 14.3915L33.4561 23.7952C33.5692 24.0471 33.4567 24.343 33.2048 24.4561C32.9529 24.5692 32.657 24.4567 32.5439 24.2048L29.2915 16.9608L27.3793 17.3704V22.8381V22.9537L27.4056 23.0663L29.784 33.215H28.3793H27.3793V34.215V42.868C27.3793 43.2147 27.0914 43.5026 26.7447 43.5026C26.398 43.5026 26.1101 43.2147 26.1101 42.868V34.216V33.216H25.1101H20.841H19.841V34.216V42.868C19.841 43.2147 19.5531 43.5026 19.2064 43.5026C18.8597 43.5026 18.5718 43.2147 18.5718 42.868V34.215V33.215H17.5718H16.2546L18.5387 23.4684L18.8175 22.2787H18.8196V22.2699L18.8238 22.2519L18.8196 22.2519V17.0195H16.8196L16.8196 21.8406C16.6066 21.6803 16.3784 21.4707 16.1561 21.2068C15.5054 20.4339 14.8967 19.1833 14.8967 17.3153C14.8967 16.0424 15.447 15.0829 16.1039 14.4266C16.435 14.0959 16.7844 13.852 17.0829 13.6954C17.3693 13.5452 17.5365 13.5122 17.5673 13.5061C17.5719 13.5052 17.5734 13.5049 17.5718 13.5049ZM30.7193 25.024C31.0528 25.7666 31.7039 26.267 32.4405 26.4367C31.5767 26.9634 31 27.9143 31 29V29.6385L29.3793 22.7225V22.0392L30.7193 25.024Z" fill="#333333"/>
</svg>
