<svg width="48" height="48" viewBox="0 0 48 48" fill="none" xmlns="http://www.w3.org/2000/svg">
<g clip-path="url(#clip0)">
<path fill-rule="evenodd" clip-rule="evenodd" d="M29.0962 3.84738L4.34742 28.5961C3.9569 28.9866 3.9569 29.6198 4.34742 30.0103L18.4896 44.1525C18.8801 44.543 19.5132 44.543 19.9038 44.1525L44.6525 19.4037C45.043 19.0132 45.043 18.38 44.6525 17.9895L30.5104 3.84738C30.1198 3.45685 29.4867 3.45686 29.0962 3.84738ZM2.93321 27.1819C1.76164 28.3535 1.76164 30.253 2.93321 31.4245L17.0753 45.5667C18.2469 46.7383 20.1464 46.7383 21.318 45.5667L46.0667 20.8179C47.2383 19.6464 47.2383 17.7469 46.0667 16.5753L31.9246 2.43317C30.753 1.26159 28.8535 1.26159 27.6819 2.43317L2.93321 27.1819Z" fill="#333333"/>
<path fill-rule="evenodd" clip-rule="evenodd" d="M8.94362 29.6568C9.13889 29.4615 9.13889 29.1449 8.94362 28.9497C8.74836 28.7544 8.43178 28.7544 8.23652 28.9497C8.04125 29.1449 8.04125 29.4615 8.23652 29.6568C8.43178 29.852 8.74836 29.852 8.94362 29.6568ZM9.65073 30.3639C10.2365 29.7781 10.2365 28.8283 9.65073 28.2426C9.06494 27.6568 8.1152 27.6568 7.52941 28.2426C6.94362 28.8283 6.94362 29.7781 7.52941 30.3639C8.1152 30.9497 9.06494 30.9497 9.65073 30.3639Z" fill="#333333"/>
<path fill-rule="evenodd" clip-rule="evenodd" d="M12.4791 26.1214C12.6744 25.9261 12.6744 25.6095 12.4791 25.4143C12.2839 25.219 11.9673 25.219 11.772 25.4143C11.5768 25.6095 11.5768 25.9261 11.772 26.1214C11.9673 26.3166 12.2839 26.3166 12.4791 26.1214ZM13.1863 26.8285C13.772 26.2427 13.772 25.2929 13.1863 24.7072C12.6005 24.1214 11.6507 24.1214 11.0649 24.7072C10.4791 25.2929 10.4791 26.2427 11.0649 26.8285C11.6507 27.4143 12.6005 27.4143 13.1863 26.8285Z" fill="#333333"/>
<path fill-rule="evenodd" clip-rule="evenodd" d="M16.0147 22.5857C16.2099 22.3905 16.2099 22.0739 16.0147 21.8786C15.8194 21.6834 15.5028 21.6834 15.3076 21.8786C15.1123 22.0739 15.1123 22.3905 15.3076 22.5857C15.5028 22.781 15.8194 22.781 16.0147 22.5857ZM16.7218 23.2928C17.3076 22.7071 17.3076 21.7573 16.7218 21.1715C16.136 20.5857 15.1862 20.5857 14.6005 21.1715C14.0147 21.7573 14.0147 22.7071 14.6005 23.2928C15.1862 23.8786 16.136 23.8786 16.7218 23.2928Z" fill="#333333"/>
<path fill-rule="evenodd" clip-rule="evenodd" d="M19.5503 19.0503C19.7456 18.8551 19.7456 18.5385 19.5503 18.3432C19.3551 18.148 19.0385 18.148 18.8432 18.3432C18.6479 18.5385 18.6479 18.8551 18.8432 19.0503C19.0385 19.2456 19.3551 19.2456 19.5503 19.0503ZM20.2574 19.7574C20.8432 19.1717 20.8432 18.2219 20.2574 17.6361C19.6716 17.0503 18.7219 17.0503 18.1361 17.6361C17.5503 18.2219 17.5503 19.1717 18.1361 19.7574C18.7219 20.3432 19.6716 20.3432 20.2574 19.7574Z" fill="#333333"/>
<path fill-rule="evenodd" clip-rule="evenodd" d="M23.0858 15.5147C23.2811 15.3194 23.2811 15.0028 23.0858 14.8076C22.8906 14.6123 22.574 14.6123 22.3787 14.8076C22.1835 15.0028 22.1835 15.3194 22.3787 15.5147C22.574 15.7099 22.8906 15.7099 23.0858 15.5147ZM23.7929 16.2218C24.3787 15.636 24.3787 14.6863 23.7929 14.1005C23.2072 13.5147 22.2574 13.5147 21.6716 14.1005C21.0858 14.6863 21.0858 15.636 21.6716 16.2218C22.2574 16.8076 23.2072 16.8076 23.7929 16.2218Z" fill="#333333"/>
<path fill-rule="evenodd" clip-rule="evenodd" d="M26.6214 11.9793C26.8166 11.784 26.8166 11.4674 26.6214 11.2722C26.4261 11.0769 26.1095 11.0769 25.9143 11.2722C25.719 11.4674 25.719 11.784 25.9143 11.9793C26.1095 12.1745 26.4261 12.1745 26.6214 11.9793ZM27.3285 12.6864C27.9143 12.1006 27.9143 11.1509 27.3285 10.5651C26.7427 9.97929 25.7929 9.97929 25.2071 10.5651C24.6214 11.1509 24.6214 12.1006 25.2071 12.6864C25.7929 13.2722 26.7427 13.2722 27.3285 12.6864Z" fill="#333333"/>
<path fill-rule="evenodd" clip-rule="evenodd" d="M30.1569 8.44364C30.3521 8.24838 30.3521 7.9318 30.1569 7.73653C29.9616 7.54127 29.645 7.54127 29.4498 7.73653C29.2545 7.9318 29.2545 8.24838 29.4498 8.44364C29.645 8.6389 29.9616 8.6389 30.1569 8.44364ZM30.864 9.15075C31.4498 8.56496 31.4498 7.61521 30.864 7.02943C30.2782 6.44364 29.3285 6.44364 28.7427 7.02943C28.1569 7.61521 28.1569 8.56496 28.7427 9.15075C29.3285 9.73653 30.2782 9.73653 30.864 9.15075Z" fill="#333333"/>
<path fill-rule="evenodd" clip-rule="evenodd" d="M12.4791 33.1924C12.6744 32.9972 12.6744 32.6806 12.4791 32.4853C12.2839 32.2901 11.9673 32.2901 11.772 32.4853C11.5768 32.6806 11.5768 32.9972 11.772 33.1924C11.9673 33.3877 12.2839 33.3877 12.4791 33.1924ZM13.1863 33.8995C13.772 33.3137 13.772 32.364 13.1863 31.7782C12.6005 31.1924 11.6507 31.1924 11.0649 31.7782C10.4791 32.364 10.4791 33.3137 11.0649 33.8995C11.6507 34.4853 12.6005 34.4853 13.1863 33.8995Z" fill="#333333"/>
<path fill-rule="evenodd" clip-rule="evenodd" d="M16.0147 29.6568C16.2099 29.4615 16.2099 29.1449 16.0147 28.9497C15.8194 28.7544 15.5028 28.7544 15.3076 28.9497C15.1123 29.1449 15.1123 29.4615 15.3076 29.6568C15.5028 29.852 15.8194 29.852 16.0147 29.6568ZM16.7218 30.3639C17.3076 29.7781 17.3076 28.8283 16.7218 28.2426C16.136 27.6568 15.1862 27.6568 14.6005 28.2426C14.0147 28.8283 14.0147 29.7781 14.6005 30.3639C15.1862 30.9497 16.136 30.9497 16.7218 30.3639Z" fill="#333333"/>
<path fill-rule="evenodd" clip-rule="evenodd" d="M19.5503 26.1214C19.7456 25.9261 19.7456 25.6095 19.5503 25.4143C19.3551 25.219 19.0385 25.219 18.8432 25.4143C18.6479 25.6095 18.6479 25.9261 18.8432 26.1214C19.0385 26.3166 19.3551 26.3166 19.5503 26.1214ZM20.2574 26.8285C20.8432 26.2427 20.8432 25.2929 20.2574 24.7072C19.6716 24.1214 18.7219 24.1214 18.1361 24.7072C17.5503 25.2929 17.5503 26.2427 18.1361 26.8285C18.7219 27.4143 19.6716 27.4143 20.2574 26.8285Z" fill="#333333"/>
<path fill-rule="evenodd" clip-rule="evenodd" d="M23.0858 22.5857C23.2811 22.3905 23.2811 22.0739 23.0858 21.8786C22.8906 21.6834 22.574 21.6834 22.3787 21.8786C22.1835 22.0739 22.1835 22.3905 22.3787 22.5857C22.574 22.781 22.8906 22.781 23.0858 22.5857ZM23.7929 23.2928C24.3787 22.7071 24.3787 21.7573 23.7929 21.1715C23.2072 20.5857 22.2574 20.5857 21.6716 21.1715C21.0858 21.7573 21.0858 22.7071 21.6716 23.2928C22.2574 23.8786 23.2072 23.8786 23.7929 23.2928Z" fill="#333333"/>
<path fill-rule="evenodd" clip-rule="evenodd" d="M26.6214 19.0503C26.8166 18.8551 26.8166 18.5385 26.6214 18.3432C26.4261 18.148 26.1095 18.148 25.9143 18.3432C25.719 18.5385 25.719 18.8551 25.9143 19.0503C26.1095 19.2456 26.4261 19.2456 26.6214 19.0503ZM27.3285 19.7574C27.9143 19.1717 27.9143 18.2219 27.3285 17.6361C26.7427 17.0503 25.7929 17.0503 25.2071 17.6361C24.6214 18.2219 24.6214 19.1717 25.2071 19.7574C25.7929 20.3432 26.7427 20.3432 27.3285 19.7574Z" fill="#333333"/>
<path fill-rule="evenodd" clip-rule="evenodd" d="M30.1569 15.5147C30.3521 15.3194 30.3521 15.0028 30.1569 14.8076C29.9616 14.6123 29.645 14.6123 29.4498 14.8076C29.2545 15.0028 29.2545 15.3194 29.4498 15.5147C29.645 15.7099 29.9616 15.7099 30.1569 15.5147ZM30.864 16.2218C31.4498 15.636 31.4498 14.6863 30.864 14.1005C30.2782 13.5147 29.3285 13.5147 28.7427 14.1005C28.1569 14.6863 28.1569 15.636 28.7427 16.2218C29.3285 16.8076 30.2782 16.8076 30.864 16.2218Z" fill="#333333"/>
<path fill-rule="evenodd" clip-rule="evenodd" d="M33.6924 11.9793C33.8877 11.784 33.8877 11.4674 33.6924 11.2722C33.4971 11.0769 33.1806 11.0769 32.9853 11.2722C32.79 11.4674 32.79 11.784 32.9853 11.9793C33.1806 12.1745 33.4971 12.1745 33.6924 11.9793ZM34.3995 12.6864C34.9853 12.1006 34.9853 11.1509 34.3995 10.5651C33.8137 9.97929 32.864 9.97929 32.2782 10.5651C31.6924 11.1509 31.6924 12.1006 32.2782 12.6864C32.864 13.2722 33.8137 13.2722 34.3995 12.6864Z" fill="#333333"/>
<path fill-rule="evenodd" clip-rule="evenodd" d="M16.0147 36.7278C16.2099 36.5326 16.2099 36.216 16.0147 36.0207C15.8194 35.8255 15.5028 35.8255 15.3076 36.0207C15.1123 36.216 15.1123 36.5326 15.3076 36.7278C15.5028 36.9231 15.8194 36.9231 16.0147 36.7278ZM16.7218 37.4349C17.3076 36.8491 17.3076 35.8994 16.7218 35.3136C16.136 34.7278 15.1862 34.7278 14.6005 35.3136C14.0147 35.8994 14.0147 36.8491 14.6005 37.4349C15.1862 38.0207 16.136 38.0207 16.7218 37.4349Z" fill="#333333"/>
<path fill-rule="evenodd" clip-rule="evenodd" d="M19.5503 33.1924C19.7456 32.9972 19.7456 32.6806 19.5503 32.4853C19.3551 32.2901 19.0385 32.2901 18.8432 32.4853C18.6479 32.6806 18.6479 32.9972 18.8432 33.1924C19.0385 33.3877 19.3551 33.3877 19.5503 33.1924ZM20.2574 33.8995C20.8432 33.3137 20.8432 32.364 20.2574 31.7782C19.6716 31.1924 18.7219 31.1924 18.1361 31.7782C17.5503 32.364 17.5503 33.3137 18.1361 33.8995C18.7219 34.4853 19.6716 34.4853 20.2574 33.8995Z" fill="#333333"/>
<path fill-rule="evenodd" clip-rule="evenodd" d="M23.0858 29.6568C23.2811 29.4615 23.2811 29.1449 23.0858 28.9497C22.8906 28.7544 22.574 28.7544 22.3787 28.9497C22.1835 29.1449 22.1835 29.4615 22.3787 29.6568C22.574 29.852 22.8906 29.852 23.0858 29.6568ZM23.7929 30.3639C24.3787 29.7781 24.3787 28.8283 23.7929 28.2426C23.2072 27.6568 22.2574 27.6568 21.6716 28.2426C21.0858 28.8283 21.0858 29.7781 21.6716 30.3639C22.2574 30.9497 23.2072 30.9497 23.7929 30.3639Z" fill="#333333"/>
<path fill-rule="evenodd" clip-rule="evenodd" d="M26.6214 26.1214C26.8166 25.9261 26.8166 25.6095 26.6214 25.4143C26.4261 25.219 26.1095 25.219 25.9143 25.4143C25.719 25.6095 25.719 25.9261 25.9143 26.1214C26.1095 26.3166 26.4261 26.3166 26.6214 26.1214ZM27.3285 26.8285C27.9143 26.2427 27.9143 25.2929 27.3285 24.7072C26.7427 24.1214 25.7929 24.1214 25.2071 24.7072C24.6214 25.2929 24.6214 26.2427 25.2071 26.8285C25.7929 27.4143 26.7427 27.4143 27.3285 26.8285Z" fill="#333333"/>
<path fill-rule="evenodd" clip-rule="evenodd" d="M30.1569 22.5857C30.3521 22.3905 30.3521 22.0739 30.1569 21.8786C29.9616 21.6834 29.645 21.6834 29.4498 21.8786C29.2545 22.0739 29.2545 22.3905 29.4498 22.5857C29.645 22.781 29.9616 22.781 30.1569 22.5857ZM30.864 23.2928C31.4498 22.7071 31.4498 21.7573 30.864 21.1715C30.2782 20.5857 29.3285 20.5857 28.7427 21.1715C28.1569 21.7573 28.1569 22.7071 28.7427 23.2928C29.3285 23.8786 30.2782 23.8786 30.864 23.2928Z" fill="#333333"/>
<path fill-rule="evenodd" clip-rule="evenodd" d="M33.6924 19.0503C33.8877 18.8551 33.8877 18.5385 33.6924 18.3432C33.4971 18.148 33.1806 18.148 32.9853 18.3432C32.79 18.5385 32.79 18.8551 32.9853 19.0503C33.1806 19.2456 33.4971 19.2456 33.6924 19.0503ZM34.3995 19.7574C34.9853 19.1717 34.9853 18.2219 34.3995 17.6361C33.8137 17.0503 32.864 17.0503 32.2782 17.6361C31.6924 18.2219 31.6924 19.1717 32.2782 19.7574C32.864 20.3432 33.8137 20.3432 34.3995 19.7574Z" fill="#333333"/>
<path fill-rule="evenodd" clip-rule="evenodd" d="M37.2279 15.5147C37.4232 15.3194 37.4232 15.0028 37.2279 14.8076C37.0327 14.6123 36.7161 14.6123 36.5208 14.8076C36.3256 15.0028 36.3256 15.3194 36.5208 15.5147C36.7161 15.7099 37.0327 15.7099 37.2279 15.5147ZM37.935 16.2218C38.5208 15.636 38.5208 14.6863 37.935 14.1005C37.3492 13.5147 36.3995 13.5147 35.8137 14.1005C35.2279 14.6863 35.2279 15.636 35.8137 16.2218C36.3995 16.8076 37.3492 16.8076 37.935 16.2218Z" fill="#333333"/>
<path d="M20.2574 38.8493C20.8432 39.435 20.8432 40.3848 20.2574 40.9706C19.6716 41.5564 18.7219 41.5564 18.1361 40.9706C17.5503 40.3848 17.5503 39.435 18.1361 38.8493C18.7219 38.2635 19.6716 38.2635 20.2574 38.8493Z" fill="#333333"/>
<path fill-rule="evenodd" clip-rule="evenodd" d="M19.5503 40.2635C19.7456 40.0682 19.7456 39.7516 19.5503 39.5564C19.3551 39.3611 19.0385 39.3611 18.8432 39.5564C18.6479 39.7516 18.6479 40.0682 18.8432 40.2635C19.0385 40.4587 19.3551 40.4587 19.5503 40.2635ZM20.2574 40.9706C20.8432 40.3848 20.8432 39.435 20.2574 38.8493C19.6716 38.2635 18.7219 38.2635 18.1361 38.8493C17.5503 39.435 17.5503 40.3848 18.1361 40.9706C18.7219 41.5564 19.6716 41.5564 20.2574 40.9706Z" fill="#333333"/>
<path d="M23.7929 35.3136C24.3787 35.8994 24.3787 36.8491 23.7929 37.4349C23.2072 38.0207 22.2574 38.0207 21.6716 37.4349C21.0858 36.8491 21.0858 35.8994 21.6716 35.3136C22.2574 34.7278 23.2072 34.7278 23.7929 35.3136Z" fill="#333333"/>
<path fill-rule="evenodd" clip-rule="evenodd" d="M23.0858 36.7278C23.2811 36.5326 23.2811 36.216 23.0858 36.0207C22.8906 35.8255 22.574 35.8255 22.3787 36.0207C22.1835 36.216 22.1835 36.5326 22.3787 36.7278C22.574 36.9231 22.8906 36.9231 23.0858 36.7278ZM23.7929 37.4349C24.3787 36.8491 24.3787 35.8994 23.7929 35.3136C23.2072 34.7278 22.2574 34.7278 21.6716 35.3136C21.0858 35.8994 21.0858 36.8491 21.6716 37.4349C22.2574 38.0207 23.2072 38.0207 23.7929 37.4349Z" fill="#333333"/>
<path d="M27.3285 31.7782C27.9143 32.364 27.9143 33.3137 27.3285 33.8995C26.7427 34.4853 25.7929 34.4853 25.2071 33.8995C24.6214 33.3137 24.6214 32.364 25.2071 31.7782C25.7929 31.1924 26.7427 31.1924 27.3285 31.7782Z" fill="#333333"/>
<path fill-rule="evenodd" clip-rule="evenodd" d="M26.6214 33.1924C26.8166 32.9972 26.8166 32.6806 26.6214 32.4853C26.4261 32.2901 26.1095 32.2901 25.9143 32.4853C25.719 32.6806 25.719 32.9972 25.9143 33.1924C26.1095 33.3877 26.4261 33.3877 26.6214 33.1924ZM27.3285 33.8995C27.9143 33.3137 27.9143 32.364 27.3285 31.7782C26.7427 31.1924 25.7929 31.1924 25.2071 31.7782C24.6214 32.364 24.6214 33.3137 25.2071 33.8995C25.7929 34.4853 26.7427 34.4853 27.3285 33.8995Z" fill="#333333"/>
<path d="M30.864 28.2426C31.4498 28.8283 31.4498 29.7781 30.864 30.3639C30.2782 30.9497 29.3285 30.9497 28.7427 30.3639C28.1569 29.7781 28.1569 28.8283 28.7427 28.2426C29.3285 27.6568 30.2782 27.6568 30.864 28.2426Z" fill="#333333"/>
<path fill-rule="evenodd" clip-rule="evenodd" d="M30.1569 29.6568C30.3521 29.4615 30.3521 29.1449 30.1569 28.9497C29.9616 28.7544 29.645 28.7544 29.4498 28.9497C29.2545 29.1449 29.2545 29.4615 29.4498 29.6568C29.645 29.852 29.9616 29.852 30.1569 29.6568ZM30.864 30.3639C31.4498 29.7781 31.4498 28.8283 30.864 28.2426C30.2782 27.6568 29.3285 27.6568 28.7427 28.2426C28.1569 28.8283 28.1569 29.7781 28.7427 30.3639C29.3285 30.9497 30.2782 30.9497 30.864 30.3639Z" fill="#333333"/>
<path d="M34.3995 24.7072C34.9853 25.2929 34.9853 26.2427 34.3995 26.8285C33.8137 27.4143 32.864 27.4143 32.2782 26.8285C31.6924 26.2427 31.6924 25.2929 32.2782 24.7072C32.864 24.1214 33.8137 24.1214 34.3995 24.7072Z" fill="#333333"/>
<path fill-rule="evenodd" clip-rule="evenodd" d="M33.6924 26.1214C33.8877 25.9261 33.8877 25.6095 33.6924 25.4143C33.4971 25.219 33.1806 25.219 32.9853 25.4143C32.79 25.6095 32.79 25.9261 32.9853 26.1214C33.1806 26.3166 33.4971 26.3166 33.6924 26.1214ZM34.3995 26.8285C34.9853 26.2427 34.9853 25.2929 34.3995 24.7072C33.8137 24.1214 32.864 24.1214 32.2782 24.7072C31.6924 25.2929 31.6924 26.2427 32.2782 26.8285C32.864 27.4143 33.8137 27.4143 34.3995 26.8285Z" fill="#333333"/>
<path d="M37.935 21.1715C38.5208 21.7573 38.5208 22.7071 37.935 23.2928C37.3492 23.8786 36.3995 23.8786 35.8137 23.2928C35.2279 22.7071 35.2279 21.7573 35.8137 21.1715C36.3995 20.5857 37.3492 20.5857 37.935 21.1715Z" fill="#333333"/>
<path fill-rule="evenodd" clip-rule="evenodd" d="M37.2279 22.5857C37.4232 22.3905 37.4232 22.0739 37.2279 21.8786C37.0327 21.6834 36.7161 21.6834 36.5208 21.8786C36.3256 22.0739 36.3256 22.3905 36.5208 22.5857C36.7161 22.781 37.0327 22.781 37.2279 22.5857ZM37.935 23.2928C38.5208 22.7071 38.5208 21.7573 37.935 21.1715C37.3492 20.5857 36.3995 20.5857 35.8137 21.1715C35.2279 21.7573 35.2279 22.7071 35.8137 23.2928C36.3995 23.8786 37.3492 23.8786 37.935 23.2928Z" fill="#333333"/>
<path d="M41.4706 17.6361C42.0563 18.2219 42.0563 19.1717 41.4706 19.7574C40.8848 20.3432 39.935 20.3432 39.3492 19.7574C38.7634 19.1717 38.7634 18.2219 39.3492 17.6361C39.935 17.0503 40.8848 17.0503 41.4706 17.6361Z" fill="#333333"/>
<path fill-rule="evenodd" clip-rule="evenodd" d="M40.7634 19.0503C40.9587 18.8551 40.9587 18.5385 40.7634 18.3432C40.5682 18.148 40.2516 18.148 40.0563 18.3432C39.8611 18.5385 39.8611 18.8551 40.0563 19.0503C40.2516 19.2456 40.5682 19.2456 40.7634 19.0503ZM41.4706 19.7574C42.0563 19.1717 42.0563 18.2219 41.4706 17.6361C40.8848 17.0503 39.935 17.0503 39.3492 17.6361C38.7634 18.2219 38.7634 19.1717 39.3492 19.7574C39.935 20.3432 40.8848 20.3432 41.4706 19.7574Z" fill="#333333"/>
</g>
<defs>
<clipPath id="clip0">
<rect width="48" height="48" fill="white"/>
</clipPath>
</defs>
</svg>
