<svg width="48" height="48" viewBox="0 0 48 48" fill="none" xmlns="http://www.w3.org/2000/svg">
<path fill-rule="evenodd" clip-rule="evenodd" d="M29.6559 8.44248L8.44266 29.6557C7.66161 30.4367 7.66161 31.7031 8.44266 32.4841L15.5137 39.5552C16.2948 40.3362 17.5611 40.3362 18.3422 39.5552L39.5554 18.342C40.3364 17.5609 40.3364 16.2946 39.5554 15.5135L32.4843 8.44248C31.7032 7.66143 30.4369 7.66143 29.6559 8.44248ZM7.02845 28.2415C5.46635 29.8036 5.46635 32.3362 7.02845 33.8983L14.0995 40.9694C15.6616 42.5315 18.1943 42.5315 19.7564 40.9694L40.9696 19.7562C42.5317 18.1941 42.5317 15.6614 40.9696 14.0993L33.8985 7.02826C32.3364 5.46616 29.8037 5.46617 28.2416 7.02826L7.02845 28.2415Z" fill="#333333"/>
<path d="M16.9279 24.7059C17.4161 25.1941 17.4161 25.9855 16.9279 26.4737C16.4398 26.9619 15.6483 26.9619 15.1602 26.4737C14.672 25.9855 14.672 25.1941 15.1602 24.7059C15.6483 24.2178 16.4398 24.2178 16.9279 24.7059Z" fill="#333333"/>
<path d="M19.4028 22.2311C19.891 22.7192 19.891 23.5107 19.4028 23.9988C18.9147 24.487 18.1232 24.487 17.635 23.9988C17.1469 23.5107 17.1469 22.7192 17.635 22.2311C18.1232 21.7429 18.9147 21.7429 19.4028 22.2311Z" fill="#333333"/>
<path d="M21.8777 19.7562C22.3658 20.2443 22.3658 21.0358 21.8777 21.524C21.3895 22.0121 20.5981 22.0121 20.1099 21.524C19.6218 21.0358 19.6218 20.2443 20.1099 19.7562C20.5981 19.268 21.3895 19.268 21.8777 19.7562Z" fill="#333333"/>
<path d="M24.3526 17.2813C24.8407 17.7695 24.8407 18.5609 24.3526 19.0491C23.8644 19.5372 23.073 19.5372 22.5848 19.0491C22.0966 18.5609 22.0966 17.7695 22.5848 17.2813C23.073 16.7932 23.8644 16.7932 24.3526 17.2813Z" fill="#333333"/>
<path d="M26.8274 14.8064C27.3156 15.2946 27.3156 16.086 26.8274 16.5742C26.3393 17.0624 25.5478 17.0624 25.0597 16.5742C24.5715 16.086 24.5715 15.2946 25.0597 14.8064C25.5478 14.3183 26.3393 14.3183 26.8274 14.8064Z" fill="#333333"/>
<path d="M29.3023 12.3316C29.7905 12.8197 29.7905 13.6112 29.3023 14.0993C28.8142 14.5875 28.0227 14.5875 27.5345 14.0993C27.0464 13.6112 27.0464 12.8197 27.5345 12.3316C28.0227 11.8434 28.8142 11.8434 29.3023 12.3316Z" fill="#333333"/>
<path d="M32.4843 15.5135C32.9724 16.0017 32.9724 16.7932 32.4843 17.2813C31.9961 17.7695 31.2047 17.7695 30.7165 17.2813C30.2284 16.7932 30.2284 16.0017 30.7165 15.5135C31.2047 15.0254 31.9961 15.0254 32.4843 15.5135Z" fill="#333333"/>
<path d="M14.4531 27.1808C14.9412 27.669 14.9412 28.4604 14.4531 28.9486C13.9649 29.4367 13.1735 29.4367 12.6853 28.9486C12.1971 28.4604 12.1971 27.669 12.6853 27.1808C13.1735 26.6926 13.9649 26.6926 14.4531 27.1808Z" fill="#333333"/>
<path d="M11.6246 30.0092L11.0943 32.3073L9.32654 30.5396L11.6246 30.0092Z" fill="#333333"/>
<path d="M23.2919 31.0699C23.7801 31.558 23.7801 32.3495 23.2919 32.8377C22.8037 33.3258 22.0123 33.3258 21.5241 32.8377C21.036 32.3495 21.036 31.558 21.5241 31.0699C22.0123 30.5817 22.8037 30.5817 23.2919 31.0699Z" fill="#333333"/>
<path d="M25.7668 28.595C26.2549 29.0832 26.2549 29.8746 25.7668 30.3628C25.2786 30.8509 24.4872 30.8509 23.999 30.3628C23.5109 29.8746 23.5109 29.0832 23.999 28.595C24.4872 28.1069 25.2786 28.1069 25.7668 28.595Z" fill="#333333"/>
<path d="M28.2416 26.1201C28.7298 26.6083 28.7298 27.3998 28.2416 27.8879C27.7535 28.3761 26.962 28.3761 26.4739 27.8879C25.9857 27.3998 25.9857 26.6083 26.4739 26.1201C26.962 25.632 27.7535 25.632 28.2416 26.1201Z" fill="#333333"/>
<path d="M30.7165 23.6453C31.2047 24.1334 31.2047 24.9249 30.7165 25.413C30.2284 25.9012 29.4369 25.9012 28.9488 25.413C28.4606 24.9249 28.4606 24.1334 28.9488 23.6453C29.4369 23.1571 30.2284 23.1571 30.7165 23.6453Z" fill="#333333"/>
<path d="M33.1914 21.1704C33.6796 21.6586 33.6796 22.45 33.1914 22.9382C32.7032 23.4263 31.9118 23.4263 31.4236 22.9382C30.9355 22.45 30.9355 21.6586 31.4236 21.1704C31.9118 20.6822 32.7032 20.6822 33.1914 21.1704Z" fill="#333333"/>
<path d="M35.6663 18.6955C36.1544 19.1837 36.1544 19.9751 35.6663 20.4633C35.1781 20.9514 34.3867 20.9514 33.8985 20.4633C33.4103 19.9751 33.4103 19.1837 33.8985 18.6955C34.3867 18.2074 35.1781 18.2074 35.6663 18.6955Z" fill="#333333"/>
<path d="M31.7772 9.85669C32.2653 10.3448 32.2653 11.1363 31.7772 11.6245C31.289 12.1126 30.4976 12.1126 30.0094 11.6245C29.5213 11.1363 29.5213 10.3448 30.0094 9.85669C30.4976 9.36853 31.289 9.36853 31.7772 9.85669Z" fill="#333333"/>
<path d="M38.1411 16.2207C38.6293 16.7088 38.6293 17.5003 38.1411 17.9884C37.653 18.4766 36.8615 18.4766 36.3734 17.9884C35.8852 17.5003 35.8852 16.7088 36.3734 16.2207C36.8615 15.7325 37.653 15.7325 38.1411 16.2207Z" fill="#333333"/>
<path d="M34.9592 13.0387C35.4473 13.5268 35.4473 14.3183 34.9592 14.8064C34.471 15.2946 33.6796 15.2946 33.1914 14.8064C32.7032 14.3183 32.7032 13.5268 33.1914 13.0387C33.6796 12.5505 34.471 12.5505 34.9592 13.0387Z" fill="#333333"/>
<path d="M20.817 33.5448C21.3052 34.0329 21.3052 34.8244 20.817 35.3125C20.3289 35.8007 19.5374 35.8007 19.0493 35.3125C18.5611 34.8244 18.5611 34.0329 19.0493 33.5448C19.5374 33.0566 20.3289 33.0566 20.817 33.5448Z" fill="#333333"/>
<path d="M18.3422 36.0196C18.8303 36.5078 18.8303 37.2993 18.3422 37.7874C17.854 38.2756 17.0625 38.2756 16.5744 37.7874C16.0862 37.2993 16.0862 36.5078 16.5744 36.0196C17.0625 35.5315 17.854 35.5315 18.3422 36.0196Z" fill="#333333"/>
<path d="M15.1602 32.8377C15.6483 33.3258 15.6483 34.1173 15.1602 34.6054C14.672 35.0936 13.8806 35.0936 13.3924 34.6054C12.9043 34.1173 12.9043 33.3258 13.3924 32.8377C13.8806 32.3495 14.672 32.3495 15.1602 32.8377Z" fill="#333333"/>
<path d="M17.635 30.3628C18.1232 30.8509 18.1232 31.6424 17.635 32.1306C17.1469 32.6187 16.3554 32.6187 15.8673 32.1306C15.3791 31.6424 15.3791 30.8509 15.8673 30.3628C16.3554 29.8746 17.1469 29.8746 17.635 30.3628Z" fill="#333333"/>
</svg>
