<svg width="48" height="48" viewBox="0 0 48 48" fill="none" xmlns="http://www.w3.org/2000/svg">
<path fill-rule="evenodd" clip-rule="evenodd" d="M8.44369 21.1717L26.8285 39.5564C27.6095 40.3375 28.8758 40.3375 29.6569 39.5564L39.5564 29.6569C40.3374 28.8759 40.3374 27.6096 39.5564 26.8285L21.1716 8.44373C20.3906 7.66269 19.1242 7.66269 18.3432 8.44373L8.44369 18.3432C7.66264 19.1243 7.66264 20.3906 8.44369 21.1717ZM25.4142 40.9706C26.9763 42.5327 29.509 42.5327 31.0711 40.9706L40.9706 31.0712C42.5327 29.5091 42.5327 26.9764 40.9706 25.4143L22.5858 7.02952C21.0237 5.46742 18.4911 5.46742 16.929 7.02952L7.02947 16.929C5.46738 18.4911 5.46737 21.0238 7.02947 22.5859L25.4142 40.9706Z" fill="#333333"/>
<circle cx="28.2427" cy="36.7279" r="0.5" transform="rotate(-135 28.2427 36.7279)" stroke="#333333"/>
<circle cx="25.4142" cy="33.8995" r="0.5" transform="rotate(-135 25.4142 33.8995)" stroke="#333333"/>
<circle cx="22.586" cy="31.0709" r="0.5" transform="rotate(-135 22.586 31.0709)" stroke="#333333"/>
<circle cx="19.7575" cy="28.2425" r="0.5" transform="rotate(-135 19.7575 28.2425)" stroke="#333333"/>
<circle cx="16.9291" cy="25.4142" r="0.5" transform="rotate(-135 16.9291 25.4142)" stroke="#333333"/>
<circle cx="14.1006" cy="22.5858" r="0.5" transform="rotate(-135 14.1006 22.5858)" stroke="#333333"/>
<circle cx="11.2723" cy="19.7572" r="0.5" transform="rotate(-135 11.2723 19.7572)" stroke="#333333"/>
<circle cx="31.0714" cy="33.899" r="0.5" transform="rotate(-135 31.0714 33.899)" stroke="#333333"/>
<circle cx="28.2429" cy="31.0707" r="0.5" transform="rotate(-135 28.2429 31.0707)" stroke="#333333"/>
<circle cx="25.4145" cy="28.2423" r="0.5" transform="rotate(-135 25.4145 28.2423)" stroke="#333333"/>
<circle cx="22.5862" cy="25.4137" r="0.5" transform="rotate(-135 22.5862 25.4137)" stroke="#333333"/>
<circle cx="19.7578" cy="22.5853" r="0.5" transform="rotate(-135 19.7578 22.5853)" stroke="#333333"/>
<circle cx="16.9293" cy="19.7569" r="0.5" transform="rotate(-135 16.9293 19.7569)" stroke="#333333"/>
<circle cx="14.1008" cy="16.9286" r="0.5" transform="rotate(-135 14.1008 16.9286)" stroke="#333333"/>
<circle cx="33.9001" cy="31.0704" r="0.5" transform="rotate(-135 33.9001 31.0704)" stroke="#333333"/>
<circle cx="31.0717" cy="28.242" r="0.5" transform="rotate(-135 31.0717 28.242)" stroke="#333333"/>
<circle cx="28.2432" cy="25.4137" r="0.5" transform="rotate(-135 28.2432 25.4137)" stroke="#333333"/>
<circle cx="25.4147" cy="22.5853" r="0.5" transform="rotate(-135 25.4147 22.5853)" stroke="#333333"/>
<circle cx="22.5864" cy="19.7567" r="0.5" transform="rotate(-135 22.5864 19.7567)" stroke="#333333"/>
<circle cx="19.7579" cy="16.9283" r="0.5" transform="rotate(-135 19.7579 16.9283)" stroke="#333333"/>
<circle cx="16.9294" cy="14.0999" r="0.5" transform="rotate(-135 16.9294 14.0999)" stroke="#333333"/>
<circle cx="36.7286" cy="28.242" r="0.5" transform="rotate(-135 36.7286 28.242)" fill="#333333" stroke="#333333"/>
<circle cx="33.9003" cy="25.4134" r="0.5" transform="rotate(-135 33.9003 25.4134)" fill="#333333" stroke="#333333"/>
<circle cx="31.0718" cy="22.5851" r="0.5" transform="rotate(-135 31.0718 22.5851)" fill="#333333" stroke="#333333"/>
<circle cx="28.2433" cy="19.7567" r="0.5" transform="rotate(-135 28.2433 19.7567)" fill="#333333" stroke="#333333"/>
<circle cx="25.4149" cy="16.9283" r="0.5" transform="rotate(-135 25.4149 16.9283)" fill="#333333" stroke="#333333"/>
<circle cx="22.5866" cy="14.0997" r="0.5" transform="rotate(-135 22.5866 14.0997)" fill="#333333" stroke="#333333"/>
<circle cx="19.7581" cy="11.2713" r="0.5" transform="rotate(-135 19.7581 11.2713)" fill="#333333" stroke="#333333"/>
</svg>
