<svg width="48" height="48" viewBox="0 0 48 48" fill="none" xmlns="http://www.w3.org/2000/svg">
<path fill-rule="evenodd" clip-rule="evenodd" d="M39 8H9C8.44771 8 8 8.44772 8 9V39C8 39.5523 8.44772 40 9 40H39C39.5523 40 40 39.5523 40 39V9C40 8.44771 39.5523 8 39 8ZM9 6C7.34315 6 6 7.34315 6 9V39C6 40.6569 7.34315 42 9 42H39C40.6569 42 42 40.6569 42 39V9C42 7.34315 40.6569 6 39 6H9Z" fill="#333333"/>
<path fill-rule="evenodd" clip-rule="evenodd" d="M13.5801 24.1367C14.4085 24.1367 15.0801 24.8083 15.0801 25.6367V36.4548C15.0801 37.2832 14.4085 37.9548 13.5801 37.9548C12.7517 37.9548 12.0801 37.2832 12.0801 36.4548V25.6367C12.0801 24.8083 12.7517 24.1367 13.5801 24.1367Z" fill="#333333"/>
<path fill-rule="evenodd" clip-rule="evenodd" d="M22.9548 14.0707C22.5952 15.3911 21.3642 16.3639 19.9008 16.3639C18.1554 16.3639 16.7405 14.98 16.7405 13.273C16.7405 13.1515 16.7476 13.0316 16.7616 12.9137C17.9578 13.6161 19.0155 14.0199 20.1233 14.1682C21.0507 14.2923 21.9652 14.23 22.9548 14.0707ZM17.6425 11.1107C18.2162 10.5377 19.016 10.1821 19.9008 10.1821C21.2086 10.1821 22.3309 10.9591 22.8114 12.0668C21.8495 12.2317 21.1035 12.2816 20.3887 12.1859C19.5827 12.078 18.7441 11.774 17.6425 11.1107Z" fill="#333333"/>
<path fill-rule="evenodd" clip-rule="evenodd" d="M18.5478 10.4789C18.3539 10.5689 18.1709 10.6776 18.0012 10.8026C17.8738 10.8964 17.7539 10.9995 17.6425 11.1107C17.6869 11.1374 17.7308 11.1635 17.7743 11.1891C18.596 11.6716 19.2711 11.9502 19.9008 12.0966C20.0659 12.135 20.228 12.1643 20.3887 12.1859C21.0597 12.2757 21.7582 12.2372 22.637 12.0958C22.6944 12.0866 22.7525 12.0769 22.8114 12.0668C22.7402 11.9025 22.6548 11.7455 22.5567 11.5972C22.4513 11.4377 22.3313 11.2883 22.1985 11.1509C21.7856 10.7234 21.2493 10.4111 20.6454 10.2684C20.4066 10.212 20.1573 10.1821 19.9008 10.1821C19.4166 10.1821 18.9579 10.2886 18.5478 10.4789ZM22.9548 14.0707C22.846 14.4702 22.6575 14.8379 22.4068 15.1564C21.829 15.8907 20.9214 16.3639 19.9008 16.3639C19.8769 16.3639 19.8532 16.3636 19.8294 16.3631C18.4128 16.3324 17.226 15.39 16.8583 14.112C16.7815 13.8452 16.7405 13.5638 16.7405 13.273C16.7405 13.1515 16.7476 13.0316 16.7616 12.9137C16.9828 13.0436 17.1992 13.1633 17.4122 13.273C18.2734 13.7169 19.0766 13.9981 19.9008 14.1348C19.9748 14.1471 20.0489 14.1582 20.1233 14.1682C21.0507 14.2923 21.9652 14.23 22.9548 14.0707Z" fill="#333333"/>
<path d="M25.4313 12.8864C25.4313 13.9533 24.9007 14.8182 24.2462 14.8182C23.5916 14.8182 23.061 13.9533 23.061 12.8864C23.061 11.8195 23.5916 10.9546 24.2462 10.9546C24.9007 10.9546 25.4313 11.8195 25.4313 12.8864Z" fill="#333333"/>
<path fill-rule="evenodd" clip-rule="evenodd" d="M23.165 13.6786C23.3505 14.3505 23.7648 14.8182 24.2462 14.8182C24.7275 14.8182 25.1418 14.3505 25.3273 13.6786C25.0591 13.8325 24.7022 13.9546 24.2462 13.9546C23.7901 13.9546 23.4332 13.8325 23.165 13.6786ZM25.3273 12.0941C25.0591 11.9403 24.7022 11.8182 24.2462 11.8182C23.7901 11.8182 23.4332 11.9403 23.165 12.0941C23.3505 11.4223 23.7648 10.9546 24.2462 10.9546C24.7275 10.9546 25.1418 11.4223 25.3273 12.0941Z" fill="#333333"/>
<path fill-rule="evenodd" clip-rule="evenodd" d="M12.24 20.0016C13.335 18.4433 15.0246 17.1821 17.1355 17.1821C17.8172 17.1821 18.4131 17.6417 18.5863 18.301L19.7597 22.768H22.666C23.4945 22.768 24.166 23.4395 24.166 24.268C24.166 25.0964 23.4945 25.768 22.666 25.768H18.6028C17.9211 25.768 17.3252 25.3083 17.152 24.6491L16.5748 22.4518C15.7045 24.3177 14.9614 26.7842 14.9614 29.5002C14.9614 30.1763 14.5091 30.7688 13.857 30.9471C13.2049 31.1254 12.5141 30.8454 12.1701 30.2634L13.4614 29.5002C12.1701 30.2634 12.1702 30.2636 12.1701 30.2634L12.1675 30.259L12.1628 30.2511L12.1474 30.2246C12.1346 30.2024 12.1166 30.1712 12.0942 30.1319C12.0496 30.0532 11.9872 29.9416 11.913 29.8041C11.7653 29.5304 11.5673 29.1477 11.3678 28.7138C11.1698 28.2831 10.9609 27.7814 10.799 27.2727C10.6432 26.7833 10.5 26.1934 10.5 25.6146C10.5 23.6032 11.14 21.567 12.24 20.0016Z" fill="#333333"/>
<path d="M37.2825 16.3638C37.2825 18.0709 35.8676 19.4547 34.1222 19.4547C32.3768 19.4547 30.9619 18.0709 30.9619 16.3638C30.9619 14.6568 32.3768 13.2729 34.1222 13.2729C35.8676 13.2729 37.2825 14.6568 37.2825 16.3638Z" fill="#333333"/>
<path fill-rule="evenodd" clip-rule="evenodd" d="M34.2808 16.3758C34.2816 16.3739 34.2825 16.3718 34.2825 16.3638C34.2825 16.3559 34.2816 16.3537 34.2808 16.3518C34.279 16.3476 34.2731 16.3365 34.2593 16.323C34.2321 16.2964 34.189 16.2729 34.1222 16.2729C34.0555 16.2729 34.0123 16.2964 33.9852 16.323C33.9714 16.3365 33.9656 16.3473 33.9638 16.3515C33.963 16.3534 33.9619 16.3559 33.9619 16.3638C33.9619 16.3718 33.9628 16.3739 33.9637 16.3758C33.9655 16.38 33.9714 16.3912 33.9852 16.4047C34.0123 16.4312 34.0555 16.4547 34.1222 16.4547C34.189 16.4547 34.2321 16.4312 34.2593 16.4047C34.2731 16.3912 34.279 16.38 34.2808 16.3758ZM34.1222 19.4547C35.8676 19.4547 37.2825 18.0709 37.2825 16.3638C37.2825 14.6568 35.8676 13.2729 34.1222 13.2729C32.3768 13.2729 30.9619 14.6568 30.9619 16.3638C30.9619 18.0709 32.3768 19.4547 34.1222 19.4547Z" fill="#333333"/>
<path fill-rule="evenodd" clip-rule="evenodd" d="M31.4441 21.3286C32.1161 21.813 32.2682 22.7505 31.7838 23.4225C30.8838 24.6711 30.4124 25.6076 30.1751 26.5883C29.934 27.5853 29.905 28.7499 30.084 30.5069C30.168 31.331 29.568 32.0672 28.7438 32.1512C27.9197 32.2352 27.1835 31.6352 27.0995 30.811C26.9065 28.9171 26.9016 27.3617 27.2592 25.8829C27.6209 24.3879 28.3231 23.0931 29.3501 21.6683C29.8345 20.9963 30.772 20.8442 31.4441 21.3286Z" fill="#333333"/>
<path fill-rule="evenodd" clip-rule="evenodd" d="M29.5805 19.5322C30.2658 19.3878 30.9598 19.7369 31.2524 20.3733L33.3621 24.9605H36.4924C37.3209 24.9605 37.9924 25.6321 37.9924 26.4605C37.9924 27.289 37.3209 27.9605 36.4924 27.9605H32.401C31.8152 27.9605 31.283 27.6195 31.0382 27.0873L29.2318 23.1595C29.2133 23.1794 29.1947 23.1998 29.176 23.2208C28.5724 23.8989 27.7725 25.3156 27.7238 28.1908C27.7747 28.2304 27.8458 28.2806 27.9422 28.3396C28.3619 28.5966 28.9899 28.8589 29.7169 29.1046C30.4263 29.3443 31.1521 29.5427 31.7301 29.6934C31.859 29.727 31.9938 29.7616 32.1183 29.7936C32.2505 29.8276 32.371 29.8585 32.4607 29.8822C32.5544 29.9069 32.6509 29.933 32.7331 29.9578C32.773 29.9699 32.8285 29.9873 32.8871 30.0091C32.8875 30.0092 32.8882 30.0095 32.8892 30.0098C32.9123 30.0181 33.0902 30.0815 33.2687 30.2082C33.4241 30.3184 33.5314 30.4414 33.5504 30.4633C33.5513 30.4643 33.552 30.4651 33.5525 30.4657C33.5919 30.5103 33.6267 30.5536 33.6525 30.5867C33.7057 30.6546 33.7639 30.7339 33.8213 30.8138C33.938 30.9766 34.0863 31.1915 34.2506 31.4335C34.5809 31.9201 34.9991 32.5508 35.4075 33.1714C35.8167 33.7933 36.2192 34.4101 36.5193 34.8712C36.6694 35.1019 36.794 35.2937 36.8811 35.428L37.0181 35.6394L34.4995 37.2693L34.3643 37.0607C34.2778 36.9274 34.1541 36.7368 34.0049 36.5076C33.7064 36.0489 33.3068 35.4366 32.9013 34.8204C32.4951 34.203 32.0863 33.5868 31.7684 33.1184C31.6683 32.971 31.5795 32.8416 31.504 32.7332C31.4665 32.7235 31.4274 32.7135 31.3863 32.703C31.2692 32.673 31.1355 32.6387 30.9731 32.5963C30.3738 32.44 29.5671 32.2206 28.7565 31.9467C27.9635 31.6787 27.0837 31.3316 26.3759 30.8982C26.0226 30.682 25.6436 30.4034 25.3384 30.0462C25.0294 29.6846 24.7214 29.1505 24.7214 28.4696C24.7214 24.8358 25.7238 22.587 26.9351 21.2262C27.5303 20.5574 28.1417 20.1431 28.6298 19.8918C28.8729 19.7666 29.0845 19.6823 29.2478 19.6266C29.3295 19.5987 29.3994 19.5779 29.4554 19.5627C29.4834 19.5551 29.508 19.5489 29.5289 19.5439L29.5575 19.5372L29.5697 19.5345L29.5753 19.5333L29.5779 19.5328C29.5792 19.5325 29.5805 19.5322 29.8897 21L29.5805 19.5322ZM34.4995 37.2693C34.9495 37.9648 35.8782 38.1638 36.5737 37.7137C37.2692 37.2636 37.4681 36.3349 37.0181 35.6394L34.4995 37.2693Z" fill="#333333"/>
<path d="M17.5305 30.2729H29.3817V32.5911H17.5305V30.2729Z" fill="#333333"/>
<path fill-rule="evenodd" clip-rule="evenodd" d="M29.3817 30.2729H17.5305V32.5911H29.3817V30.2729Z" fill="#333333"/>
<path d="M17.5305 38V31.8183H19.1107L19.1107 38H17.5305Z" fill="#333333"/>
<path fill-rule="evenodd" clip-rule="evenodd" d="M17.5305 31.8183V38H19.1107L19.1107 31.8183H17.5305Z" fill="#333333"/>
<path d="M27.8015 38V31.8183H29.3817V38H27.8015Z" fill="#333333"/>
<path fill-rule="evenodd" clip-rule="evenodd" d="M27.8015 31.8183V38H29.3817V31.8183H27.8015Z" fill="#333333"/>
</svg>
