<svg width="48" height="48" viewBox="0 0 48 48" fill="none" xmlns="http://www.w3.org/2000/svg">
<path fill-rule="evenodd" clip-rule="evenodd" d="M25.9248 5.22215C26.341 5.11514 26.7724 5.14527 27.1322 5.26103C30.9009 6.47379 33.1465 8.65342 34.1737 11.1513C35.1105 13.4295 34.9912 15.8704 34.2316 17.8926C36.1752 18.3357 38.1026 19.4178 39.476 21.1921C41.1291 23.3279 41.8989 26.3612 41.0712 30.2327C40.9922 30.6023 40.8031 30.9914 40.5029 31.2988C40.1913 31.6178 39.7169 31.8849 39.1218 31.8523C38.0096 31.7915 37.3409 30.8327 37.3858 29.8968C37.5141 27.2256 37.0391 25.5428 36.3603 24.532C35.7049 23.5561 34.795 23.1081 33.7678 23.02C32.7077 22.929 31.5091 23.2262 30.412 23.8013C29.3199 24.3737 28.4181 25.1746 27.905 25.9891L27.5763 26.5594C26.2266 28.9016 26.4648 31.7543 27.8136 33.3452C28.4659 34.1146 29.4 34.6254 30.644 34.6648C31.912 34.705 33.5774 34.2552 35.6298 32.934C36.4155 32.4282 37.5795 32.5236 38.1902 33.456C38.5166 33.9543 38.5234 34.4985 38.4037 34.9279C38.2883 35.3417 38.0466 35.7002 37.7666 35.9538C34.8339 38.6094 31.8255 39.4638 29.1504 39.1046C26.7514 38.7825 24.7265 37.4981 23.3564 35.8697C21.9891 37.5003 19.9662 38.7881 17.5678 39.1141C14.8933 39.4776 11.8834 38.6282 8.94646 35.9774C8.66602 35.7242 8.42369 35.3662 8.30764 34.9526C8.1872 34.5234 8.19313 33.9792 8.51873 33.4803C9.12792 32.5469 10.2918 32.4496 11.0783 32.9541C13.1329 34.2719 14.799 34.719 16.0669 34.6767C17.3108 34.6353 18.2441 34.1229 18.8951 33.3525C20.2413 31.7594 20.4749 28.9064 19.1213 26.5663L18.7917 25.9965C18.2773 25.1829 17.3742 24.3835 16.2811 23.8129C15.1831 23.2396 13.984 22.9443 12.924 23.0371C11.897 23.1269 10.9878 23.5763 10.3341 24.5533C9.65689 25.5653 9.18467 27.2488 9.31728 29.9198C9.36374 30.8556 8.69665 31.8155 7.58449 31.8781C6.9895 31.9117 6.51465 31.6454 6.20253 31.3269C5.90176 31.02 5.71211 30.6312 5.63249 30.2618C4.79841 26.3916 5.56323 23.357 7.21289 21.2185C8.80441 19.1554 11.1446 18.0246 13.3911 17.7441C12.6831 15.7573 12.5908 13.388 13.4982 11.1712C14.5206 8.67317 16.7612 6.49131 20.5254 5.27321C20.8848 5.1569 21.316 5.12608 21.7323 5.23237C22.1642 5.34267 22.6325 5.6199 22.9018 6.15134C23.4055 7.14561 22.9079 8.20217 22.0777 8.63109C19.9091 9.7515 18.6888 10.9708 18.0915 12.09C17.5054 13.188 17.4825 14.2524 17.8243 15.2015C18.5308 17.1638 20.8848 18.7926 23.5882 18.7904L24.2464 18.7899C25.2082 18.7512 26.3521 18.3688 27.3928 17.7075C28.4383 17.0432 29.2935 16.1524 29.7432 15.188C30.1789 14.2537 30.2443 13.2416 29.7251 12.1869C29.1873 11.0945 27.9654 9.84378 25.5859 8.62313C24.7523 8.19547 24.2546 7.13781 24.7564 6.14333C25.0248 5.61129 25.4929 5.3332 25.9248 5.22215ZM28.1959 7.828C29.8238 8.90234 30.9128 10.0713 31.5194 11.3036C32.3354 12.9611 32.2184 14.6124 31.5558 16.0333C30.9072 17.4241 29.7483 18.5803 28.4654 19.3955C27.1837 20.2099 25.6921 20.7389 24.3019 20.7892L24.2843 20.7898L23.5898 20.7904C20.1837 20.7932 16.98 18.7605 15.9425 15.879C15.4122 14.4061 15.4706 12.7529 16.3271 11.1483C16.9648 9.95356 18.0226 8.82435 19.536 7.80845C17.2659 8.88559 15.9801 10.3873 15.3491 11.9288C14.5706 13.8308 14.7373 15.9185 15.483 17.5926C15.5739 17.7966 15.6715 17.9962 15.7755 18.191L16.5723 19.6836L14.8804 19.6618C14.5123 19.6571 14.1409 19.674 13.768 19.7137C11.9443 19.9081 10.0528 20.8115 8.79648 22.4401C7.78865 23.7466 7.13655 25.5892 7.3237 28.0571C7.44018 26.1102 7.90801 24.5826 8.67189 23.441C9.69937 21.9056 11.1879 21.1813 12.7497 21.0447C14.2785 20.9109 15.8593 21.3365 17.2067 22.0399C18.5529 22.7427 19.7568 23.77 20.4954 24.9488L20.5048 24.9637L20.8525 25.5649C20.8525 25.5649 20.8525 25.5649 20.8525 25.5649C22.558 28.5132 22.3995 32.3041 20.4228 34.6433C19.4124 35.839 17.9514 36.615 16.1335 36.6756C14.7801 36.7208 13.2732 36.3693 11.6367 35.5665C13.7046 36.994 15.6481 37.3566 17.2984 37.1323C19.3349 36.8555 21.0596 35.6673 22.1365 34.1845C22.267 34.0049 22.3903 33.8217 22.5064 33.6354L23.3535 32.2761L24.2029 33.634C24.3193 33.8201 24.4428 34.0031 24.5736 34.1825C25.653 35.6635 27.3796 36.8489 29.4165 37.1224C31.0672 37.344 33.0101 36.9782 35.0756 35.5473C33.4405 36.3527 31.9342 36.7067 30.5806 36.6638C28.7627 36.6062 27.3004 35.8326 26.2881 34.6385C24.3075 32.3025 24.1428 28.512 25.8435 25.5608C25.8435 25.5608 25.8435 25.5608 25.8435 25.5608L26.1902 24.9591L26.1996 24.9441C26.9362 23.7641 28.1385 22.7349 29.4835 22.0299C30.8298 21.3242 32.4098 20.8961 33.9389 21.0273C35.5009 21.1614 36.9906 21.8833 38.0206 23.417C38.7864 24.5573 39.2567 26.0841 39.3764 28.0309C39.5595 25.5626 38.9044 23.7211 37.8944 22.4163C36.6354 20.7897 34.7425 19.8894 32.9184 19.698C32.8434 19.6902 32.7685 19.6832 32.6936 19.6772L31.1708 19.5544L31.8926 18.208C32.002 18.004 32.1043 17.7948 32.1993 17.5806C32.9428 15.904 33.1062 13.8143 32.324 11.912C31.6964 10.3859 30.4268 8.89988 28.1959 7.828Z" fill="#333333"/>
<path fill-rule="evenodd" clip-rule="evenodd" d="M27.8468 24.1549C27.845 21.9458 26.0527 20.1564 23.8435 20.1582C21.6344 20.16 19.845 21.9524 19.8468 24.1615C19.8486 26.3706 21.641 28.16 23.8501 28.1582C26.0592 28.1564 27.8486 26.3641 27.8468 24.1549ZM23.8452 22.1582C24.9498 22.1573 25.8459 23.052 25.8468 24.1566C25.8477 25.2612 24.953 26.1573 23.8485 26.1582C22.7439 26.1591 21.8477 25.2644 21.8468 24.1599C21.8459 23.0553 22.7406 22.1591 23.8452 22.1582Z" fill="#333333"/>
<path fill-rule="evenodd" clip-rule="evenodd" d="M23.9703 15.1336C22.615 15.1347 21.3632 15.5026 20.5963 16.1171L19.3456 14.5564C20.5772 13.5694 22.3244 13.135 23.9687 13.1336C25.613 13.1323 27.3608 13.5639 28.5941 14.5488L27.3459 16.1116C26.5781 15.4983 25.3257 15.1325 23.9703 15.1336Z" fill="#333333"/>
<path fill-rule="evenodd" clip-rule="evenodd" d="M15.8502 28.221C16.5298 29.3937 17.4751 30.2931 18.3909 30.6492L17.6662 32.5133C16.1952 31.9413 14.9443 30.6465 14.1198 29.2239C13.2953 27.8012 12.7938 26.0721 13.0289 24.5115L15.0066 24.8094C14.8602 25.7811 15.1706 27.0484 15.8502 28.221Z" fill="#333333"/>
<path fill-rule="evenodd" clip-rule="evenodd" d="M31.1576 28.2085C30.4799 29.3822 29.5361 30.2832 28.6208 30.6408L29.3486 32.5037C30.8187 31.9293 32.0675 30.6325 32.8896 29.2085C33.7118 27.7845 34.2105 26.0546 33.9728 24.4943L31.9956 24.7955C32.1436 25.7669 31.8352 27.0347 31.1576 28.2085Z" fill="#333333"/>
</svg>
