<svg width="48" height="48" viewBox="0 0 48 48" fill="none" xmlns="http://www.w3.org/2000/svg">
<path fill-rule="evenodd" clip-rule="evenodd" d="M9 8C9 6.34315 10.3431 5 12 5C13.6569 5 15 6.34315 15 8C15 9.65685 13.6569 11 12 11C10.3431 11 9 9.65685 9 8ZM12 3C9.58104 3 7.56329 4.71776 7.10002 7H5H4V8C4 9.55604 4.44425 11.0083 5.21284 12.2369C5.06756 12.2962 4.9249 12.3635 4.78802 12.4353C4.29308 12.695 3.75751 13.0741 3.26122 13.5699C2.26351 14.5667 1.38965 16.0749 1.38965 18.0603C1.38965 20.5109 2.20209 22.2982 3.20411 23.4842C3.70011 24.0714 4.24088 24.5091 4.74756 24.8056C4.91088 24.9011 5.08178 24.9885 5.25563 25.062V41.2805C5.25563 42.7785 6.47711 44 7.97511 44C9.47311 44 10.6946 42.7785 10.6946 41.2805V30.5273H13.1855V41.2805C13.1855 42.7785 14.407 44 15.905 44C17.403 44 18.6245 42.7785 18.6245 41.2805V26.8955C19.0729 26.9643 19.5323 27 20 27H21.0001C23.2245 27 25.2369 26.0921 26.687 24.6266C26.2737 26.2215 26 28.0237 26 30C26 30.344 26.0591 30.6818 26.1716 31H23H22V32V43H24V33H28.9869L29 33H36V43H38V33.2786L41.1806 42.0253C41.7468 43.5824 43.4681 44.3856 45.0252 43.8194C46.5823 43.2532 47.3856 41.5319 46.8194 39.9748L42.8194 28.9748C42.686 28.6081 42.4861 28.2793 42.2362 28H44C45.6569 28 47 26.6569 47 25C47 23.3432 45.6569 22 44 22H37.9195L35.8496 17.5152C36.501 17.826 37.2302 18 38 18C40.7614 18 43 15.7614 43 13C43 10.2386 40.7614 8 38 8C35.2386 8 33 10.2386 33 13C33 13.9472 33.2634 14.833 33.721 15.5879C33.6287 15.5651 33.5349 15.5465 33.4398 15.5324C32.4386 15.3841 31.4302 15.7505 30.7578 16.5069L30.7351 16.5325L30.7142 16.5595L29.9501 17.5473L29.9367 17.5646L29.9241 17.5825C29.6543 17.9647 29.3363 18.4467 29 19.0215L29.0001 19H29V17H27.2915C26.8398 16.5527 26.2184 16.2765 25.5325 16.2764L22.7348 16.2764L18.4135 12.7828C19.41 11.4487 20 9.79325 20 8V7H19H16.9C16.4367 4.71776 14.419 3 12 3ZM6.25563 14H6.70835C7.88322 15.037 9.365 15.7342 11 15.9381V18C11 21.7768 13.3264 25.0103 16.6245 26.3456V41.2805C16.6245 41.6739 16.2984 42 15.905 42C15.5116 42 15.1855 41.6739 15.1855 41.2805V29.5273V28.5273H14.1855H9.6946H8.6946V29.5273V41.2805C8.6946 41.6739 8.36854 42 7.97511 42C7.58168 42 7.25563 41.6739 7.25563 41.2805V24.293V23.293H7.25391V17H5.25391V22.7188C5.08232 22.5733 4.90536 22.3989 4.73188 22.1935C4.03734 21.3714 3.38965 20.0424 3.38965 18.0603C3.38965 16.7049 3.97593 15.683 4.67477 14.9848C5.02676 14.6331 5.39858 14.3735 5.71718 14.2064C6.05736 14.0279 6.24594 14.0014 6.25527 14.0001L6.2556 14C6.25563 14 6.25564 14 6.25563 14ZM20 25C19.5292 25 19.0692 24.9535 18.6245 24.8649V19.383L20.2789 20.7205C20.7238 21.0802 21.2785 21.2764 21.8506 21.2764L25.5324 21.2764C25.936 21.2765 26.3173 21.1808 26.6548 21.011C25.828 23.3356 23.6084 25 21.0001 25H20ZM13 18C13 20.642 14.4637 22.9422 16.6245 24.1338V17.2886V15.1942L18.2532 16.511L21.5363 19.1652C21.6253 19.2371 21.7362 19.2764 21.8506 19.2764L25.5324 19.2764C25.8086 19.2765 26.0324 19.0526 26.0324 18.7765C26.0324 18.5003 25.8086 18.2765 25.5324 18.2764L22.3811 18.2764L22.0275 18.2764L21.7524 18.054L17.0208 14.2287C15.8925 15.1393 14.5117 15.7496 13 15.9381V18ZM12 14C14.973 14 17.441 11.8377 17.917 9H16.9C16.4367 11.2822 14.419 13 12 13C9.58104 13 7.56329 11.2822 7.10002 9H6.08296C6.55904 11.8377 9.027 14 12 14ZM35 13C35 11.3431 36.3431 10 38 10C39.6569 10 41 11.3431 41 13C41 14.6569 39.6569 16 38 16C36.3431 16 35 14.6569 35 13ZM38 31H38.5991H39.2996L39.5389 31.6583L43.0602 41.3418C43.2489 41.8608 43.8227 42.1286 44.3417 41.9398C44.8608 41.7511 45.1285 41.1773 44.9398 40.6583L40.9398 29.6583C40.7961 29.2631 40.4205 29 40 29H31.123H29.9919L30.1306 27.8775C30.4119 25.599 31.1075 23.6813 31.8198 22.2233L32.7439 20.3315L33.6262 22.2432L35.092 25.4191C35.2555 25.7732 35.6099 26 36 26H44C44.5523 26 45 25.5523 45 25C45 24.4477 44.5523 24 44 24H37.2797H36.6398L36.3717 23.4191L33.908 18.081C33.7666 17.7747 33.4803 17.5603 33.1466 17.5108C32.8222 17.4628 32.4956 17.5768 32.2717 17.8148L31.5456 18.7534C31.1477 19.3188 30.626 20.1371 30.1056 21.1778C29.0548 23.2793 28 26.3078 28 30C28 30.2652 28.1054 30.5196 28.2929 30.7071C28.4786 30.8929 28.7299 30.998 28.9924 31H37H38V31ZM33.2761 26.2572C33.403 26.5321 33.5683 26.7814 33.7638 27H32.2964C32.4255 26.3512 32.5901 25.7411 32.7759 25.1733L33.2761 26.2572Z" fill="#333333"/>
</svg>
