<svg width="48" height="48" viewBox="0 0 48 48" fill="none" xmlns="http://www.w3.org/2000/svg">
<path fill-rule="evenodd" clip-rule="evenodd" d="M24 5C22.3436 5 21 6.34355 21 8.00181C21 9.66007 22.3436 11.0036 24 11.0036C25.6565 11.0036 27.0001 9.66007 27.0001 8.00181C27.0001 6.34355 25.6565 5 24 5ZM19 8.00181C19 5.23979 21.2382 3 24 3C26.7619 3 29.0001 5.23979 29.0001 8.00181C29.0001 10.6996 26.8648 12.8992 24.1919 13H29.2985C30.1524 13 30.9808 13.2914 31.6466 13.8261L38.9694 19.7069C40.1536 20.6579 40.3426 22.3888 39.3916 23.573C38.4406 24.7572 36.7097 24.9462 35.5255 23.9952L33.6906 22.5216C33.976 23.9692 34.111 25.6423 33.9983 27.5587C33.88 29.5701 33.3023 31.0044 32.722 31.955C32.4335 32.4276 32.1477 32.7752 31.9246 33.0117C31.879 33.06 31.836 33.1038 31.7961 33.143C31.7923 33.1584 31.7883 33.1744 31.7843 33.1909C31.7299 33.4108 31.6522 33.7273 31.5588 34.1129C31.3721 34.8842 31.1234 35.9302 30.8748 37.0306C30.626 38.1325 30.379 39.2818 30.1947 40.2618C30.0041 41.2755 29.8994 42.0151 29.8994 42.3515C29.8994 43.828 28.6777 44.9993 27.2197 44.9993C25.7719 44.9993 24.5571 43.8443 24.5402 42.3824L24.0538 33.6052H23.9457L23.4569 42.3825C23.4399 43.8444 22.2251 44.9993 20.7774 44.9993C19.3569 44.9993 18.1607 43.8875 18.1001 42.4647L16.1974 33.1927C16.1637 33.1663 16.1285 33.1379 16.0917 33.1074C15.819 32.8815 15.4649 32.543 15.1053 32.0727C14.38 31.1242 13.6519 29.664 13.5025 27.5712C13.5008 27.5475 13.5 27.5238 13.5 27.5C13.5 25.6893 13.754 24.0567 14.146 22.6154L12.497 23.9713C11.3238 24.9359 9.59081 24.7668 8.62625 23.5936C7.66168 22.4204 7.83078 20.6875 9.00394 19.7229L16.1428 13.8534C16.8139 13.3016 17.6557 13 18.5244 13H23.8082C21.1353 12.8992 19 10.6996 19 8.00181ZM30.8994 32.6052C29.9295 32.3617 29.9295 32.3618 29.9295 32.3618L29.9066 32.4533C29.8918 32.5126 29.8702 32.5997 29.8427 32.711C29.7877 32.9336 29.7092 33.2533 29.615 33.6423C29.4267 34.42 29.1755 35.4765 28.924 36.59C28.6728 37.702 28.4199 38.8779 28.2291 39.8923C28.0447 40.873 27.8994 41.7971 27.8994 42.3515C27.8994 42.6875 27.6094 42.9993 27.2197 42.9993C26.83 42.9993 26.54 42.6875 26.54 42.3515C26.54 42.333 26.5395 42.3146 26.5385 42.2961L25.9984 32.5499C25.969 32.0199 25.5307 31.6052 24.9999 31.6052H22.9999C22.4692 31.6052 22.0309 32.0198 22.0014 32.5496L21.4586 42.2959C21.4576 42.3144 21.4571 42.3329 21.4571 42.3515C21.4571 42.6875 21.1671 42.9993 20.7774 42.9993C20.3877 42.9993 20.0977 42.6875 20.0977 42.3515C20.0977 42.2839 20.0908 42.2166 20.0773 42.1504L18.0773 32.4042C18.0198 32.1241 17.8452 31.8821 17.5976 31.7392L17.5994 31.7402L17.6022 31.7418L17.6052 31.7436C17.6062 31.7442 17.6052 31.7437 17.6022 31.7418C17.5961 31.738 17.5824 31.7292 17.5619 31.7152C17.521 31.6872 17.4535 31.6384 17.3675 31.5672C17.1952 31.4244 16.9502 31.193 16.6941 30.8579C16.1912 30.2002 15.6249 29.1184 15.5 27.4639C15.5067 24.2777 16.3911 21.7202 17.3579 19.8721C17.5783 19.4507 17.4715 18.9324 17.1024 18.6325C16.7333 18.3326 16.2041 18.3341 15.8367 18.6361L11.2268 22.4264C10.9068 22.6895 10.4342 22.6434 10.1711 22.3234C9.90805 22.0035 9.95417 21.5308 10.2741 21.2678L17.413 15.3982C17.7261 15.1408 18.119 15 18.5244 15H29.2985C29.697 15 30.0836 15.136 30.3943 15.3855L37.7171 21.2663C38.04 21.5256 38.0916 21.9977 37.8322 22.3207C37.5729 22.6436 37.1008 22.6952 36.7779 22.4358L32.4033 18.9227C32.0442 18.6344 31.5347 18.6285 31.1691 18.9084C30.8035 19.1884 30.6764 19.6818 30.8611 20.1036C31.606 21.8042 32.1922 24.2032 32.0017 27.4413C31.9034 29.1133 31.4308 30.2316 31.0149 30.9129C30.8054 31.2561 30.6066 31.4942 30.4697 31.6394C30.4012 31.712 30.3482 31.7613 30.3172 31.7889C30.3017 31.8026 30.2917 31.8109 30.2881 31.8139C30.2882 31.8138 30.2879 31.814 30.2881 31.8139C30.1108 31.951 29.9841 32.1442 29.9295 32.3618L30.8994 32.6052Z" fill="#333333"/>
</svg>
