<svg width="48" height="48" viewBox="0 0 48 48" fill="none" xmlns="http://www.w3.org/2000/svg">
<path fill-rule="evenodd" clip-rule="evenodd" d="M42 7C37.4038 7 32.8525 7.90529 28.6061 9.66421C24.3597 11.4231 20.5013 14.0012 17.2513 17.2513C14.0012 20.5013 11.4231 24.3597 9.66422 28.6061C7.9053 32.8525 7 37.4037 7 42C7 42.5523 6.55228 43 6 43C5.44772 43 5 42.5523 5 42C5 37.1411 5.95704 32.3298 7.81646 27.8407C9.67589 23.3517 12.4013 19.2728 15.8371 15.837C19.2728 12.4013 23.3517 9.67587 27.8407 7.81645C32.3298 5.95703 37.1411 5 42 5C42.5523 5 43 5.44772 43 6C43 6.55229 42.5523 7 42 7Z" fill="#333333"/>
<path fill-rule="evenodd" clip-rule="evenodd" d="M38.3763 15.2439C37.6312 15.3448 36.893 15.4764 36.1634 15.638L35.7311 13.6852C36.5148 13.5118 37.3076 13.3704 38.1079 13.262L38.3763 15.2439ZM31.8741 16.9703C30.4838 17.5328 29.1427 18.2101 27.8649 18.9953L26.8179 17.2912C28.1904 16.448 29.6308 15.7204 31.124 15.1163L31.8741 16.9703ZM24.247 21.6568C23.684 22.1482 23.1399 22.6642 22.6165 23.204C22.093 23.7438 21.594 24.3035 21.1203 24.8814L19.5736 23.6133C20.0825 22.9926 20.6185 22.3915 21.1806 21.8117C21.7428 21.2319 22.3272 20.6777 22.9319 20.15L24.247 21.6568ZM18.5714 28.5796C17.826 29.881 17.1902 31.2423 16.6709 32.6492L14.7946 31.9565C15.3525 30.4454 16.0353 28.9833 16.8359 27.5855L18.5714 28.5796ZM15.4712 36.9775C15.3323 37.7117 15.2234 38.4536 15.1455 39.2015L13.1562 38.9942C13.2399 38.191 13.3569 37.3942 13.5061 36.6055L15.4712 36.9775Z" fill="#333333"/>
<path fill-rule="evenodd" clip-rule="evenodd" d="M34.729 24.4463C37.0342 23.4914 39.5049 23 42 23C42.5523 23 43 23.4477 43 24C43 24.5523 42.5523 25 42 25C39.7675 25 37.5569 25.4397 35.4944 26.294C33.4319 27.1484 31.5578 28.4006 29.9792 29.9792C28.4006 31.5578 27.1484 33.4318 26.294 35.4944C25.4397 37.5569 25 39.7675 25 42C25 42.5523 24.5523 43 24 43C23.4477 43 23 42.5523 23 42C23 39.5049 23.4915 37.0342 24.4463 34.729C25.4011 32.4238 26.8007 30.3293 28.565 28.565C30.3293 26.8007 32.4238 25.4011 34.729 24.4463Z" fill="#333333"/>
</svg>
