<svg width="48" height="48" viewBox="0 0 48 48" fill="none" xmlns="http://www.w3.org/2000/svg">
<path fill-rule="evenodd" clip-rule="evenodd" d="M11 27.0001C11 27 11 27 12 27C13 27 13 27 13 27.0001V39.2568C13.1126 39.3074 13.2791 39.3672 13.5097 39.4292C14.1737 39.6078 15.104 39.7364 16.0893 39.8247C17.0625 39.9119 18.0411 39.956 18.7799 39.978C18.856 39.9803 18.9294 39.9823 19 39.9842V36C19 33.5997 21.0778 31 24 31C26.9222 31 29 33.5997 29 36V39.9842C29.0706 39.9823 29.144 39.9803 29.2201 39.978C29.959 39.956 30.9375 39.9119 31.9107 39.8247C32.896 39.7364 33.8263 39.6078 34.4903 39.4292C34.7209 39.3672 34.8874 39.3074 35 39.2568V27.0005C35 27.0004 35 27 36 27C37 27 37 27 37 27.0001V39.5658C37 40.2684 36.5043 40.6876 36.1878 40.8862C35.8444 41.1017 35.42 41.2503 35.0097 41.3606C34.1737 41.5854 33.104 41.7258 32.0893 41.8167C31.0625 41.9088 30.041 41.9544 29.2799 41.9771C28.8983 41.9885 28.5801 41.9943 28.3566 41.9971C28.2447 41.9985 28.1565 41.9993 28.0958 41.9996L28.0258 42L28.0072 42L28.0007 42C28.0006 42 28 42 28 41L27 41V36C27 34.5757 25.6932 33 24 33C22.3068 33 21 34.5757 21 36V40.9991L20 41C20 42 19.9999 42 19.9997 42L19.9928 42L19.9742 42L19.9042 41.9996C19.8435 41.9993 19.7553 41.9985 19.6434 41.9971C19.4199 41.9943 19.1017 41.9885 18.7201 41.9771C17.959 41.9544 16.9375 41.9088 15.9107 41.8167C14.896 41.7258 13.8263 41.5854 12.9903 41.3606C12.58 41.2503 12.1556 41.1017 11.8122 40.8862C11.4957 40.6876 11 40.2684 11 39.5658V27.0001ZM20 41L19.9997 42H21V40.9991L20 41ZM28 41L27 41V42H28.0007L28 41Z" fill="#333333"/>
<path fill-rule="evenodd" clip-rule="evenodd" d="M24 11.0207L10.0715 25.0168C12.2817 25.4927 16.4301 26 24 26C31.5699 26 35.7183 25.4927 37.9285 25.0168L24 11.0207ZM7.50716 26.3503C6.8733 26.0933 6.85399 25.4146 7.33556 24.9307L22.619 9.57309C23.3795 8.80897 24.6205 8.80897 25.381 9.57309L40.6644 24.9307C41.146 25.4146 41.1267 26.0933 40.4928 26.3503C38.8556 27.0141 34.634 28 24 28C13.366 28 9.14442 27.0141 7.50716 26.3503Z" fill="#333333"/>
<path d="M23.0035 6.83045C22.9549 6.38341 23.415 6 24 6C24.585 6 25.0451 6.38341 24.9965 6.83045L24.5885 10.5848C24.563 10.8195 24.3071 11 24 11C23.6929 11 23.437 10.8195 23.4115 10.5848L23.0035 6.83045Z" fill="#333333"/>
<path d="M26.0001 7.18734C26.1771 6.79647 26.7057 6.67876 27.145 6.93239C27.5843 7.18602 27.7467 7.70265 27.4967 8.0514L25.3972 10.9802C25.266 11.1633 24.9876 11.2017 24.757 11.0686C24.5264 10.9354 24.4204 10.6752 24.5134 10.47L26.0001 7.18734Z" fill="#333333"/>
<path d="M22.167 7.19099C21.9888 6.79815 21.4593 6.67876 21.02 6.93239C20.5807 7.18602 20.4193 7.70434 20.6704 8.05505L22.7794 11.0004C22.9112 11.1845 23.19 11.2237 23.4207 11.0905C23.6513 10.9574 23.7568 10.6963 23.6632 10.4901L22.167 7.19099Z" fill="#333333"/>
</svg>
