<svg width="48" height="48" viewBox="0 0 48 48" fill="none" xmlns="http://www.w3.org/2000/svg">
<path fill-rule="evenodd" clip-rule="evenodd" d="M7.73616 16.5646C7.26481 16.0932 7 15.4539 7 14.7873V13.2426C7 12.9774 6.89465 12.7231 6.70711 12.5355L5 10.8284C3.4379 9.26633 3.43791 6.73367 5 5.17158L5.17158 5C6.73367 3.43791 9.26633 3.4379 10.8284 5L12.5355 6.70711C12.7231 6.89465 12.9774 7 13.2426 7H14.7873C15.4539 7 16.0932 7.26481 16.5646 7.73616L25.3536 16.5251C26.4078 17.5793 27 19.0091 27 20.5C27 20.93 27.1708 21.3424 27.4749 21.6464L42.9142 37.0858C44.5237 38.6953 44.5237 41.3047 42.9142 42.9142C41.3047 44.5237 38.6953 44.5237 37.0858 42.9142L21.6465 27.4749C21.3424 27.1708 20.93 27 20.5 27C19.0091 27 17.5793 26.4078 16.5251 25.3536L7.73616 16.5646ZM6.41422 6.58579L6.58579 6.41422C7.36684 5.63317 8.63317 5.63317 9.41422 6.41422L11.1213 8.12132C11.6839 8.68393 12.447 9 13.2426 9H14.7873C14.9235 9 15.0541 9.05409 15.1504 9.15038L23.9393 17.9393C24.6185 18.6185 25 19.5396 25 20.5C25 21.4604 25.3815 22.3815 26.0607 23.0607L41.5 38.5C42.3284 39.3284 42.3284 40.6716 41.5 41.5C40.6716 42.3284 39.3284 42.3284 38.5 41.5L23.0607 26.0607C22.3815 25.3815 21.4604 25 20.5 25C19.5396 25 18.6185 24.6185 17.9393 23.9393L9.15038 15.1504C9.0541 15.0541 9 14.9235 9 14.7873V13.2426C9 12.447 8.68393 11.6839 8.12132 11.1213L6.41422 9.41422C5.63317 8.63317 5.63317 7.36684 6.41422 6.58579Z" fill="#333333"/>
<path d="M27 26C27 26.5523 26.5523 27 26 27C25.4477 27 25 26.5523 25 26C25 25.4477 25.4477 25 26 25C26.5523 25 27 25.4477 27 26Z" fill="#333333"/>
<path d="M9 8C9 8.55229 8.55229 9 8 9C7.44772 9 7 8.55229 7 8C7 7.44772 7.44772 7 8 7C8.55229 7 9 7.44772 9 8Z" fill="#333333"/>
<path d="M30 29C30 29.5523 29.5523 30 29 30C28.4477 30 28 29.5523 28 29C28 28.4477 28.4477 28 29 28C29.5523 28 30 28.4477 30 29Z" fill="#333333"/>
<path d="M33 32C33 32.5523 32.5523 33 32 33C31.4477 33 31 32.5523 31 32C31 31.4477 31.4477 31 32 31C32.5523 31 33 31.4477 33 32Z" fill="#333333"/>
<path d="M36 35C36 35.5523 35.5523 36 35 36C34.4477 36 34 35.5523 34 35C34 34.4477 34.4477 34 35 34C35.5523 34 36 34.4477 36 35Z" fill="#333333"/>
<path d="M39 38C39 38.5523 38.5523 39 38 39C37.4477 39 37 38.5523 37 38C37 37.4477 37.4477 37 38 37C38.5523 37 39 37.4477 39 38Z" fill="#333333"/>
<path fill-rule="evenodd" clip-rule="evenodd" d="M12.5858 11C13.3668 10.219 14.6332 10.219 15.4142 11L23 18.5858C23.7811 19.3668 23.7811 20.6332 23 21.4142L21.4142 23C20.6332 23.781 19.3668 23.7811 18.5858 23L11 15.4142C10.219 14.6332 10.219 13.3668 11 12.5858L12.5858 11ZM14 12.4142L12.4142 14L20 21.5858L21.5858 20L14 12.4142Z" fill="#333333"/>
</svg>
