<svg width="49" height="49" viewBox="0 0 49 49" fill="none" xmlns="http://www.w3.org/2000/svg">
<path d="M33.0197 7.98033C33.0197 7.42805 33.4674 6.98033 34.0197 6.98033C34.572 6.98033 35.0197 7.42805 35.0197 7.98033L35.0197 41.9803C35.0197 42.5326 34.572 42.9803 34.0197 42.9803C33.4674 42.9803 33.0197 42.5326 33.0197 41.9803L33.0197 7.98033Z" fill="#333333"/>
<path d="M13.0197 7.98033C13.0197 7.42805 13.4674 6.98033 14.0197 6.98033C14.572 6.98033 15.0197 7.42805 15.0197 7.98033L15.0197 41.9803C15.0197 42.5326 14.572 42.9803 14.0197 42.9803C13.4674 42.9803 13.0197 42.5326 13.0197 41.9803L13.0197 7.98033Z" fill="#333333"/>
<path d="M23.0197 11.9803C23.0197 11.428 23.4674 10.9803 24.0197 10.9803C24.572 10.9803 25.0197 11.428 25.0197 11.9803L25.0197 15.9803C25.0197 16.5326 24.572 16.9803 24.0197 16.9803C23.4674 16.9803 23.0197 16.5326 23.0197 15.9803L23.0197 11.9803Z" fill="#333333"/>
<path d="M23.0197 22.9803C23.0197 22.428 23.4674 21.9803 24.0197 21.9803C24.572 21.9803 25.0197 22.428 25.0197 22.9803L25.0197 26.9803C25.0197 27.5326 24.572 27.9803 24.0197 27.9803C23.4674 27.9803 23.0197 27.5326 23.0197 26.9803L23.0197 22.9803Z" fill="#333333"/>
<path d="M23.0197 33.9803C23.0197 33.428 23.4674 32.9803 24.0197 32.9803C24.572 32.9803 25.0197 33.4281 25.0197 33.9803L25.0197 37.9803C25.0197 38.5326 24.572 38.9803 24.0197 38.9803C23.4674 38.9803 23.0197 38.5326 23.0197 37.9803L23.0197 33.9803Z" fill="#333333"/>
</svg>
