<svg width="48" height="48" viewBox="0 0 48 48" fill="none" xmlns="http://www.w3.org/2000/svg">
<path fill-rule="evenodd" clip-rule="evenodd" d="M9.77778 9C9.35228 9 9 9.35228 9 9.77778C9 25.9188 22.0812 39 38.2222 39C38.6477 39 39 38.6477 39 38.2222V32.0178C39 31.5923 38.6477 31.24 38.2222 31.24C35.9109 31.24 33.654 30.8673 31.5619 30.1762L31.5512 30.1727C31.2914 30.0836 30.9802 30.1496 30.7693 30.3604L26.3433 34.7865L25.6951 34.4544C20.479 31.7819 16.201 27.5236 13.5443 22.3024L13.215 21.6552L17.6396 17.2307C17.8609 17.0093 17.9251 16.7108 17.8388 16.4298C17.1496 14.3405 16.7778 12.1042 16.7778 9.77778C16.7778 9.35228 16.4255 9 16 9H9.77778ZM7 9.77778C7 8.24772 8.24772 7 9.77778 7H16C17.5301 7 18.7778 8.24772 18.7778 9.77778C18.7778 11.8927 19.1161 13.9202 19.7406 15.8108L19.7429 15.8177L19.7451 15.8246C20.0474 16.7865 19.8265 17.8721 19.0538 18.6449L15.6638 22.0349C18.0291 26.3731 21.6228 29.9543 25.9665 32.3349L29.3551 28.9462C30.1027 28.1986 31.2107 27.9442 32.1939 28.2787C34.0827 28.9021 36.1263 29.24 38.2222 29.24C39.7523 29.24 41 30.4877 41 32.0178V38.2222C41 39.7523 39.7523 41 38.2222 41C20.9766 41 7 27.0234 7 9.77778Z" fill="#333333"/>
</svg>
