<svg width="48" height="48" viewBox="0 0 48 48" fill="none" xmlns="http://www.w3.org/2000/svg">
<path fill-rule="evenodd" clip-rule="evenodd" d="M26.5318 6.27506C25.5823 6.00762 24.3191 6.00001 23.0578 6.00001C21.7424 6.00001 20.8427 6.28394 20.2152 6.68647C19.5914 7.08665 19.1599 7.65316 18.8616 8.35312C18.294 9.68492 18.2484 11.3897 18.3053 13H37C37.5523 13 38.0059 13.4497 37.9431 13.9984C37.301 19.6057 31.3036 24 24 24C16.6963 24 10.6989 19.6057 10.0569 13.9984C9.99403 13.4497 10.4477 13 11 13H16.3037C16.2473 11.3671 16.283 9.30222 17.0217 7.56897C17.446 6.57358 18.112 5.65957 19.1353 5.00308C20.155 4.34893 21.4522 4.00001 23.0578 4.00001L23.1301 4.00001C24.3019 3.99985 25.8303 3.99966 27.074 4.34997C27.7216 4.53237 28.3862 4.83339 28.8949 5.35979C29.4289 5.91243 29.7166 6.63679 29.7166 7.50001C29.7166 8.0523 29.2689 8.50001 28.7166 8.50001C28.1643 8.50001 27.7166 8.0523 27.7166 7.50001C27.7166 7.11324 27.6021 6.90009 27.4567 6.74961C27.2859 6.57289 26.9937 6.40515 26.5318 6.27506ZM12.3058 15C13.4806 18.7595 17.9728 22 24 22C30.0271 22 34.5194 18.7595 35.6942 15H12.3058ZM16 42V44H32V42H16Z" fill="#333333"/>
<path fill-rule="evenodd" clip-rule="evenodd" d="M31.1288 20.4078C31.7597 21.2661 32 22.2689 32 23.3027C32 24.8477 31.4579 26.2858 30.0493 27.2902C29.0619 27.9943 27.7193 28.4324 26 28.6149V26.6019C27.3757 26.4328 28.2941 26.0854 28.8882 25.6617C29.6671 25.1064 30 24.3394 30 23.3027C30 22.5795 29.835 22.0245 29.5173 21.5922L31.1288 20.4078ZM22 26.7361V28.7384C21.0326 28.7754 20.1819 28.8661 19.4941 29.0877C18.9554 29.2612 18.6027 29.491 18.3806 29.767C18.1679 30.0313 18 30.4307 18 31.0957C18 31.7643 18.1684 32.1663 18.3816 32.4322C18.6041 32.7095 18.9568 32.94 19.4951 33.114C20.6152 33.4761 22.168 33.4896 23.9539 33.4898L23.9731 33.4882C24.0181 33.4846 24.0799 33.4805 24.1561 33.4772C24.308 33.4706 24.5195 33.4673 24.7712 33.479C25.2683 33.5022 25.9547 33.5854 26.6586 33.8396C27.3662 34.0952 28.126 34.5367 28.7069 35.2946C29.2948 36.0617 29.6379 37.0728 29.6379 38.3528C29.6379 39.6315 29.2951 40.6359 28.6932 41.3862C28.0986 42.1274 27.3228 42.5311 26.6088 42.7473C26.4027 42.8097 26.1984 42.8577 26 42.8941V40.8419C26.0097 40.839 26.0194 40.8361 26.0291 40.8332C26.4746 40.6983 26.8583 40.4773 27.1332 40.1346C27.4009 39.801 27.6379 39.2622 27.6379 38.3528C27.6379 37.4446 27.4012 36.8788 27.1195 36.5113C26.8308 36.1346 26.4311 35.8839 25.9793 35.7207C25.5237 35.5562 25.0506 35.4942 24.6781 35.4769C24.495 35.4683 24.3442 35.4709 24.2425 35.4753C24.1919 35.4775 24.154 35.4801 24.131 35.4819L24.1083 35.4839L24.107 35.484L24.106 35.4841L24.0552 35.4898L23.8931 35.4898C22.2246 35.49 20.3439 35.4902 18.8799 35.017C18.1057 34.7668 17.3647 34.3608 16.8215 33.6836C16.2691 32.9949 16 32.1241 16 31.0957C16 30.0694 16.2696 29.2002 16.8225 28.5131C17.366 27.8377 18.1071 27.4333 18.8809 27.184C19.8068 26.8857 20.8995 26.7762 22 26.7361Z" fill="#333333"/>
<path fill-rule="evenodd" clip-rule="evenodd" d="M23.1147 36V42.5H25.1147V36H23.1147ZM23.1147 32H25.1147V22.5H23.1147V32Z" fill="#333333"/>
</svg>
