<svg width="48" height="48" viewBox="0 0 48 48" fill="none" xmlns="http://www.w3.org/2000/svg">
<path fill-rule="evenodd" clip-rule="evenodd" d="M36.444 24C36.4437 26.6381 35.6051 29.2078 34.0493 31.3383C32.4934 33.4687 30.3008 35.0496 27.788 35.8528C25.2752 36.656 22.5721 36.6399 20.069 35.8068C17.566 34.9738 15.3924 33.3668 13.862 31.218L35.716 19.8C36.1988 21.1476 36.4451 22.5685 36.444 24ZM34.044 16.656L12.232 28.058C11.2627 25.2415 11.3356 22.1708 12.4374 19.4034C13.5392 16.6361 15.5968 14.3556 18.2367 12.9761C20.8766 11.5965 23.9237 11.2094 26.8247 11.885C29.7257 12.5606 32.2882 14.2541 34.047 16.658L34.044 16.656ZM40 24C40 27.1645 39.0616 30.2579 37.3035 32.8891C35.5454 35.5203 33.0466 37.5711 30.1229 38.7821C27.1993 39.9931 23.9823 40.3099 20.8786 39.6926C17.7749 39.0752 14.9239 37.5513 12.6863 35.3137C10.4487 33.0761 8.92481 30.2251 8.30744 27.1214C7.69008 24.0177 8.00693 20.8007 9.21793 17.8771C10.4289 14.9534 12.4797 12.4546 15.1109 10.6965C17.7421 8.93838 20.8355 8 24 8C28.2435 8 32.3131 9.68571 35.3137 12.6863C38.3143 15.6869 40 19.7565 40 24Z" fill="#333333"/>
</svg>
