<svg width="48" height="48" viewBox="0 0 48 48" fill="none" xmlns="http://www.w3.org/2000/svg">
<path fill-rule="evenodd" clip-rule="evenodd" d="M22.5 20.9339L22.5 6.06609C18.8306 6.55498 16 9.69692 16 13.5C16 17.3031 18.8306 20.445 22.5 20.9339ZM31 13.5C31 17.3031 28.1694 20.445 24.5 20.9339L24.5 6.06609C28.1694 6.55498 31 9.69692 31 13.5ZM33 13.5C33 18.7467 28.7467 23 23.5 23C18.2533 23 14 18.7467 14 13.5C14 8.25329 18.2533 4 23.5 4C28.7467 4 33 8.25329 33 13.5Z" fill="#333333"/>
<path fill-rule="evenodd" clip-rule="evenodd" d="M13.5 27C17.6421 27 21 30.3579 21 34.5C21 37.517 19.2186 40.1179 16.6503 41.3083L11.5117 27.2664C12.1449 27.0927 12.8116 27 13.5 27ZM9.66906 28.0509C7.47202 29.3588 6 31.7575 6 34.5C6 38.6421 9.35786 42 13.5 42C13.9212 42 14.3343 41.9653 14.7366 41.8985L9.66906 28.0509ZM13.5 25C18.7467 25 23 29.2533 23 34.5C23 39.7467 18.7467 44 13.5 44C8.25329 44 4 39.7467 4 34.5C4 29.2533 8.25329 25 13.5 25Z" fill="#333333"/>
<path fill-rule="evenodd" clip-rule="evenodd" d="M42 34.5C42 38.6421 38.6421 42 34.5 42C31.7124 42 29.2799 40.4791 27.9872 38.2219L41.2728 31.2743C41.739 32.2514 42 33.3452 42 34.5ZM40.1721 29.593L27.2324 36.3597C27.0806 35.765 27 35.1419 27 34.5C27 30.3579 30.3579 27 34.5 27C36.7658 27 38.7969 28.0047 40.1721 29.593ZM44 34.5C44 39.7467 39.7467 44 34.5 44C29.2533 44 25 39.7467 25 34.5C25 29.2533 29.2533 25 34.5 25C39.7467 25 44 29.2533 44 34.5Z" fill="#333333"/>
</svg>
