<svg width="48" height="48" viewBox="0 0 48 48" fill="none" xmlns="http://www.w3.org/2000/svg">
<path fill-rule="evenodd" clip-rule="evenodd" d="M42 30.5C42 34.6421 38.6421 38 34.5 38C31.7415 38 29.3309 36.5108 28.0281 34.2925L41.7756 28.672C41.9222 29.2571 42 29.8695 42 30.5ZM41.0336 26.8147L27.2554 32.4477C27.0888 31.8266 27 31.1737 27 30.5C27 26.3579 30.3579 23 34.5 23C37.3027 23 39.7463 24.5373 41.0336 26.8147ZM44 30.5C44 35.7467 39.7467 40 34.5 40C29.2533 40 25 35.7467 25 30.5C25 25.2533 29.2533 21 34.5 21C39.7467 21 44 25.2533 44 30.5Z" fill="#333333"/>
<path fill-rule="evenodd" clip-rule="evenodd" d="M8.3766 12.75C10.9016 9.46645 15.6104 8.85158 18.8939 11.3766C21.2855 13.2158 22.2614 16.2134 21.6393 18.975L7.37571 14.4885C7.62407 13.8807 7.95697 13.2956 8.3766 12.75ZM6.8743 16.4274C6.57178 18.9663 7.57593 21.5954 9.74995 23.2673C13.0335 25.7923 17.7422 25.1774 20.2673 21.8939C20.524 21.56 20.7483 21.2114 20.9406 20.8519L6.8743 16.4274ZM6.79118 11.5308C9.98956 7.37165 15.954 6.59282 20.1131 9.79119C24.2722 12.9896 25.0511 18.954 21.8527 23.1131C18.6543 27.2722 12.6899 28.0511 8.53075 24.8527C4.37163 21.6543 3.5928 15.6899 6.79118 11.5308Z" fill="#333333"/>
</svg>
