<svg width="48" height="48" viewBox="0 0 48 48" fill="none" xmlns="http://www.w3.org/2000/svg">
<path fill-rule="evenodd" clip-rule="evenodd" d="M34.5 6C38.6421 6 42 9.35786 42 13.5C42 16.517 40.2186 19.1179 37.6503 20.3083L32.5117 6.2664C33.1449 6.09274 33.8116 6 34.5 6ZM30.6691 7.05087C28.472 8.35878 27 10.7575 27 13.5C27 17.6421 30.3579 21 34.5 21C34.9212 21 35.3343 20.9653 35.7366 20.8985L30.6691 7.05087ZM34.5 4C39.7467 4 44 8.25329 44 13.5C44 18.7467 39.7467 23 34.5 23C29.2533 23 25 18.7467 25 13.5C25 8.25329 29.2533 4 34.5 4Z" fill="#333333"/>
<path fill-rule="evenodd" clip-rule="evenodd" d="M13.5 28C17.6421 28 21 31.3579 21 35.5C21 38.517 19.2186 41.1179 16.6503 42.3083L11.5117 28.2664C12.1449 28.0927 12.8116 28 13.5 28ZM9.66906 29.0509C7.47202 30.3588 6 32.7575 6 35.5C6 39.6421 9.35786 43 13.5 43C13.9212 43 14.3343 42.9653 14.7366 42.8985L9.66906 29.0509ZM13.5 26C18.7467 26 23 30.2533 23 35.5C23 40.7467 18.7467 45 13.5 45C8.25329 45 4 40.7467 4 35.5C4 30.2533 8.25329 26 13.5 26Z" fill="#333333"/>
<path fill-rule="evenodd" clip-rule="evenodd" d="M21 13.5C21 17.6421 17.6421 21 13.5 21C10.7124 21 8.27994 19.4791 6.9872 17.2219L20.2728 10.2743C20.739 11.2514 21 12.3452 21 13.5ZM19.1721 8.59299L6.23236 15.3597C6.08065 14.765 6 14.1419 6 13.5C6 9.35786 9.35786 6 13.5 6C15.7658 6 17.7969 7.00474 19.1721 8.59299ZM23 13.5C23 18.7467 18.7467 23 13.5 23C8.25329 23 4 18.7467 4 13.5C4 8.25329 8.25329 4 13.5 4C18.7467 4 23 8.25329 23 13.5Z" fill="#333333"/>
<path fill-rule="evenodd" clip-rule="evenodd" d="M42 35.5C42 39.6421 38.6421 43 34.5 43C31.7124 43 29.2799 41.4791 27.9872 39.2219L41.2728 32.2743C41.739 33.2514 42 34.3452 42 35.5ZM40.1721 30.593L27.2324 37.3597C27.0806 36.765 27 36.1419 27 35.5C27 31.3579 30.3579 28 34.5 28C36.7658 28 38.7969 29.0047 40.1721 30.593ZM44 35.5C44 40.7467 39.7467 45 34.5 45C29.2533 45 25 40.7467 25 35.5C25 30.2533 29.2533 26 34.5 26C39.7467 26 44 30.2533 44 35.5Z" fill="#333333"/>
</svg>
