<svg width="48" height="48" viewBox="0 0 48 48" fill="none" xmlns="http://www.w3.org/2000/svg">
<path fill-rule="evenodd" clip-rule="evenodd" d="M19.5 5C17.8431 5 16.5 6.34315 16.5 8C16.5 9.65685 17.8431 11 19.5 11C21.1569 11 22.5 9.65685 22.5 8C22.5 6.34315 21.1569 5 19.5 5ZM14.5 8C14.5 5.23858 16.7386 3 19.5 3C22.2614 3 24.5 5.23858 24.5 8C24.5 9.98624 23.3418 11.702 21.664 12.5087H24.8905C25.3525 12.5087 25.8649 12.6954 26.3086 12.9282C26.7835 13.1774 27.2966 13.5407 27.772 14.0156C28.7278 14.9705 29.5656 16.4162 29.5656 18.3192C29.5656 20.6603 28.7892 22.3707 27.8291 23.5071C27.354 24.0695 26.8357 24.4893 26.3491 24.774C26.2019 24.8601 26.0478 24.9395 25.8905 25.0077V42.3928C25.8905 43.8441 24.7073 45.0273 23.256 45.0273C21.8047 45.0273 20.6214 43.8441 20.6214 42.3928V31.2199H18.3522V42.3928C18.3522 43.8441 17.169 45.0273 15.7177 45.0273C14.2664 45.0273 13.0831 43.8441 13.0831 42.3928V17.5107H8.14288V34.8348C9.11076 35.0327 9.98061 35.5588 10.6053 36.3241C11.2301 37.0894 11.5713 38.0469 11.5715 39.0349V44.1777H9.85717V38.1777H8.14288V44.1777H6.42859V38.1777H4.71429V44.1777H3V39.0349C3.00012 38.0469 3.3414 37.0894 3.96613 36.3241C4.59086 35.5588 5.4607 35.0327 6.42859 34.8348V17.5107H5.5C4.11929 17.5107 3 16.3914 3 15.0107C3 13.63 4.11929 12.5107 5.5 12.5107H6.42859V9.00046H8.14288V12.5107H14.9999H16.9379C16.9798 12.5094 17.0217 12.5087 17.0638 12.5087H17.336C15.6582 11.702 14.5 9.98624 14.5 8ZM14.0831 15.5107H8.14288V14.5107H14.9999H16.9546H16.9725L16.9904 14.51C17.0147 14.5092 17.0391 14.5087 17.0638 14.5087H24.8905C24.8898 14.5087 24.8897 14.5088 24.8903 14.509L24.8951 14.51C24.9258 14.516 25.093 14.549 25.3795 14.6993C25.678 14.8559 26.0274 15.0997 26.3584 15.4305C27.0154 16.0868 27.5656 17.0463 27.5656 18.3192C27.5656 20.1918 26.954 21.4439 26.3013 22.2164C26.1652 22.3775 26.027 22.5182 25.8914 22.6397V17H23.8914V23.2441H23.8905V24.2441V42.3928C23.8905 42.7395 23.6027 43.0273 23.256 43.0273C22.9092 43.0273 22.6214 42.7395 22.6214 42.3928V30.2199V29.2199H21.6214H17.3522H16.3522V30.2199V42.3928C16.3522 42.7395 16.0644 43.0273 15.7177 43.0273C15.3709 43.0273 15.0831 42.7395 15.0831 42.3928V16.5107V15.5107H14.0831ZM5.5 14.5107H6.42859V15.5107H5.5C5.22386 15.5107 5 15.2868 5 15.0107C5 14.7345 5.22386 14.5107 5.5 14.5107Z" fill="#333333"/>
<path fill-rule="evenodd" clip-rule="evenodd" d="M37 20C37.5523 20 38 20.4477 38 21V43.9999C38 44.5522 37.5523 44.9999 37 44.9999C36.4477 44.9999 36 44.5522 36 43.9999V21C36 20.4477 36.4477 20 37 20Z" fill="#333333"/>
<path fill-rule="evenodd" clip-rule="evenodd" d="M39.1786 39.8191C39.291 39.8471 39.4102 39.8741 39.5336 39.8982C39.8637 39.9627 40.1971 40.0012 40.4929 39.9928C40.7972 39.9841 40.9906 39.9277 41.0981 39.8656C41.2055 39.8036 41.3511 39.6643 41.5108 39.4051C41.666 39.1531 41.7993 38.8452 41.9085 38.527C41.9493 38.4081 41.9856 38.2913 42.0175 38.1801C41.9052 38.1521 41.7859 38.1251 41.6626 38.101C41.3324 38.0365 40.9991 37.9979 40.7032 38.0064C40.3989 38.0151 40.2055 38.0715 40.0981 38.1336C39.9906 38.1956 39.845 38.3348 39.6853 38.594C39.5301 38.846 39.3968 39.154 39.2876 39.4722C39.2468 39.5911 39.2106 39.7078 39.1786 39.8191ZM43.1961 37.4996C43.5623 36.5691 43.5621 36.569 43.5619 36.5689L43.5603 36.5683L43.5574 36.5671L43.549 36.5639L43.5221 36.5536C43.4997 36.5452 43.4686 36.5336 43.4296 36.5196C43.3518 36.4917 43.2421 36.4537 43.1077 36.4111C42.8405 36.3264 42.467 36.2204 42.0462 36.1381C41.6293 36.0566 41.1393 35.9931 40.6462 36.0072C40.1615 36.021 39.6003 36.1116 39.0981 36.4015C38.5958 36.6915 38.2368 37.1323 37.9825 37.5451C37.7238 37.9651 37.5338 38.4212 37.3959 38.823C37.2567 39.2285 37.1618 39.605 37.1016 39.8788C37.0713 40.0165 37.0493 40.1305 37.0346 40.2118C37.0272 40.2526 37.0216 40.2853 37.0178 40.3089L37.0132 40.3374L37.0118 40.3463L37.0113 40.3493L37.0112 40.3505C37.0111 40.3507 37.011 40.3515 38 40.4996L37.0112 40.3505C36.9421 40.8112 37.2003 41.2595 37.6338 41.4301L38 40.4996C37.6338 41.4301 37.6336 41.43 37.6338 41.4301L37.6358 41.4309L37.6387 41.4321L37.6471 41.4353L37.6741 41.4456C37.6964 41.454 37.7275 41.4656 37.7665 41.4796C37.8443 41.5075 37.954 41.5454 38.0884 41.5881C38.3556 41.6728 38.7291 41.7788 39.1499 41.8611C39.5668 41.9425 40.0568 42.006 40.5499 41.992C41.0346 41.9782 41.5958 41.8876 42.0981 41.5977C42.6003 41.3077 42.9593 40.8669 43.2136 40.4541C43.4723 40.0341 43.6623 39.578 43.8002 39.1762C43.9394 38.7706 44.0344 38.3941 44.0946 38.1204C44.1249 37.9827 44.1469 37.8687 44.1616 37.7874C44.1689 37.7466 44.1745 37.7139 44.1783 37.6903L44.1829 37.6618L44.1843 37.6529L44.1848 37.6499L44.185 37.6487C44.185 37.6485 44.1851 37.6477 43.1961 37.4996ZM43.1961 37.4996L44.185 37.6487C44.254 37.188 43.9954 36.7395 43.5619 36.5689L43.1961 37.4996Z" fill="#333333"/>
<path fill-rule="evenodd" clip-rule="evenodd" d="M32.1786 38.1803C32.2106 38.2915 32.2468 38.4083 32.2876 38.5272C32.3968 38.8454 32.5301 39.1533 32.6853 39.4053C32.845 39.6645 32.9906 39.8038 33.0981 39.8658C33.2055 39.9279 33.3989 39.9843 33.7032 39.993C33.9991 40.0014 34.3324 39.9629 34.6626 39.8984C34.7859 39.8743 34.9052 39.8473 35.0175 39.8193C34.9856 39.708 34.9493 39.5913 34.9085 39.4724C34.7993 39.1542 34.666 38.8462 34.5108 38.5942C34.3511 38.335 34.2055 38.1958 34.0981 38.1338C33.9906 38.0717 33.7972 38.0152 33.4929 38.0066C33.1971 37.9981 32.8637 38.0366 32.5336 38.1012C32.4102 38.1253 32.291 38.1523 32.1786 38.1803ZM36.1961 40.4998C37.1851 40.3516 37.1851 40.3514 37.185 40.3512L37.1848 40.3495L37.1843 40.3464L37.1829 40.3375L37.1783 40.3091C37.1745 40.2855 37.1689 40.2527 37.1616 40.212C37.1469 40.1307 37.1249 40.0167 37.0946 39.8789C37.0344 39.6052 36.9394 39.2287 36.8002 38.8232C36.6623 38.4214 36.4723 37.9653 36.2136 37.5453C35.9593 37.1325 35.6003 36.6917 35.0981 36.4017C34.5958 36.1117 34.0346 36.0212 33.5499 36.0074C33.0568 35.9933 32.5668 36.0568 32.1499 36.1383C31.7291 36.2206 31.3556 36.3266 31.0884 36.4113C30.954 36.4539 30.8443 36.4919 30.7665 36.5198C30.7275 36.5338 30.6964 36.5454 30.6741 36.5538L30.6471 36.5641L30.6387 36.5673L30.6358 36.5685L30.6347 36.5689C30.6345 36.569 30.6338 36.5692 31 37.4998L30.6347 36.5689C30.2012 36.7395 29.942 37.1872 30.011 37.6479L31 37.4998C30.011 37.6479 30.011 37.6477 30.011 37.6479L30.0113 37.6501L30.0118 37.6531L30.0132 37.662L30.0178 37.6905C30.0216 37.7141 30.0272 37.7468 30.0346 37.7876C30.0493 37.8689 30.0713 37.9829 30.1016 38.1206C30.1618 38.3943 30.2567 38.7708 30.3959 39.1764C30.5338 39.5782 30.7238 40.0343 30.9825 40.4543C31.2368 40.8671 31.5958 41.3079 32.0981 41.5979C32.6003 41.8878 33.1615 41.9784 33.6462 41.9922C34.1393 42.0062 34.6293 41.9427 35.0462 41.8612C35.467 41.779 35.8405 41.673 36.1077 41.5883C36.2421 41.5456 36.3518 41.5077 36.4296 41.4797C36.4686 41.4658 36.4997 41.4542 36.5221 41.4458L36.549 41.4355L36.5574 41.4322L36.5603 41.4311L36.5614 41.4307C36.5616 41.4306 36.5623 41.4303 36.1961 40.4998ZM36.1961 40.4998L36.5614 41.4307C36.9949 41.2601 37.254 40.8119 37.185 40.3512L36.1961 40.4998Z" fill="#333333"/>
<path fill-rule="evenodd" clip-rule="evenodd" d="M39.1786 32.8191C39.291 32.8471 39.4102 32.8741 39.5336 32.8982C39.8637 32.9627 40.1971 33.0012 40.4929 32.9928C40.7972 32.9841 40.9906 32.9277 41.0981 32.8656C41.2055 32.8036 41.3511 32.6643 41.5108 32.4051C41.666 32.1531 41.7993 31.8452 41.9085 31.527C41.9493 31.4081 41.9856 31.2913 42.0175 31.1801C41.9052 31.1521 41.7859 31.1251 41.6626 31.101C41.3324 31.0365 40.9991 30.9979 40.7032 31.0064C40.3989 31.0151 40.2055 31.0715 40.0981 31.1336C39.9906 31.1956 39.845 31.3348 39.6853 31.594C39.5301 31.846 39.3968 32.154 39.2876 32.4722C39.2468 32.5911 39.2106 32.7078 39.1786 32.8191ZM43.1961 30.4996C43.5623 29.5691 43.5621 29.569 43.5619 29.5689L43.5603 29.5683L43.5574 29.5671L43.549 29.5639L43.5221 29.5536C43.4997 29.5452 43.4686 29.5336 43.4296 29.5196C43.3518 29.4917 43.2421 29.4537 43.1077 29.4111C42.8405 29.3264 42.467 29.2204 42.0462 29.1381C41.6293 29.0566 41.1393 28.9931 40.6462 29.0072C40.1615 29.021 39.6003 29.1116 39.0981 29.4015C38.5958 29.6915 38.2368 30.1323 37.9825 30.5451C37.7238 30.9651 37.5338 31.4212 37.3959 31.823C37.2567 32.2285 37.1618 32.605 37.1016 32.8788C37.0713 33.0165 37.0493 33.1305 37.0346 33.2118C37.0272 33.2526 37.0216 33.2853 37.0178 33.3089L37.0132 33.3374L37.0118 33.3463L37.0113 33.3493L37.0112 33.3505C37.0111 33.3507 37.011 33.3515 38 33.4996L37.0112 33.3505C36.9421 33.8112 37.2003 34.2595 37.6338 34.4301L38 33.4996C37.6338 34.4301 37.6336 34.43 37.6338 34.4301L37.6358 34.4309L37.6387 34.4321L37.6471 34.4353L37.6741 34.4456C37.6964 34.454 37.7275 34.4656 37.7665 34.4796C37.8443 34.5075 37.954 34.5454 38.0884 34.5881C38.3556 34.6728 38.7291 34.7788 39.1499 34.8611C39.5668 34.9425 40.0568 35.006 40.5499 34.992C41.0346 34.9782 41.5958 34.8876 42.0981 34.5977C42.6003 34.3077 42.9593 33.8669 43.2136 33.4541C43.4723 33.0341 43.6623 32.578 43.8002 32.1762C43.9394 31.7706 44.0344 31.3941 44.0946 31.1204C44.1249 30.9827 44.1469 30.8687 44.1616 30.7874C44.1689 30.7466 44.1745 30.7139 44.1783 30.6903L44.1829 30.6618L44.1843 30.6529L44.1848 30.6499L44.185 30.6487C44.185 30.6485 44.1851 30.6477 43.1961 30.4996ZM43.1961 30.4996L44.185 30.6487C44.254 30.188 43.9954 29.7395 43.5619 29.5689L43.1961 30.4996Z" fill="#333333"/>
<path fill-rule="evenodd" clip-rule="evenodd" d="M37 19.6391C37.0804 19.5558 37.1634 19.466 37.246 19.3712C37.4669 19.1176 37.667 18.8481 37.8076 18.5877C37.9522 18.3198 38 18.1242 38 18.0001C38 17.8759 37.9522 17.6803 37.8076 17.4124C37.667 17.152 37.4669 16.8825 37.246 16.6289C37.1634 16.5341 37.0804 16.4443 37 16.361C36.9196 16.4443 36.8366 16.5341 36.754 16.6289C36.5331 16.8825 36.333 17.152 36.1924 17.4124C36.0478 17.6803 36 17.8759 36 18.0001C36 18.1242 36.0478 18.3198 36.1924 18.5877C36.333 18.8481 36.5331 19.1176 36.754 19.3712C36.8366 19.466 36.9196 19.5558 37 19.6391ZM37 15.0001C36.3772 14.2177 36.3771 14.2178 36.3769 14.2179L36.3755 14.219L36.3731 14.2209L36.3661 14.2266L36.3437 14.2448C36.3252 14.26 36.2997 14.2811 36.2681 14.3079C36.205 14.3613 36.1173 14.4373 36.0131 14.5324C35.8062 14.7214 35.5276 14.9919 35.246 15.3152C34.9669 15.6355 34.667 16.0281 34.4326 16.4622C34.2022 16.8888 34 17.4201 34 18.0001C34 18.58 34.2022 19.1113 34.4326 19.5379C34.667 19.972 34.9669 20.3646 35.246 20.6849C35.5276 21.0082 35.8062 21.2787 36.0131 21.4677C36.1173 21.5628 36.205 21.6388 36.2681 21.6922C36.2997 21.719 36.3252 21.7402 36.3437 21.7553L36.3661 21.7735L36.3731 21.7792L36.3755 21.7811L36.3765 21.7819C36.3767 21.782 36.3772 21.7825 37 21.0001L36.3765 21.7819C36.741 22.072 37.2583 22.0726 37.6228 21.7825L37 21.0001C37.6228 21.7825 37.6226 21.7826 37.6228 21.7825L37.6245 21.7811L37.6269 21.7792L37.6339 21.7735L37.6563 21.7553C37.6748 21.7402 37.7003 21.719 37.7319 21.6922C37.795 21.6388 37.8827 21.5628 37.9869 21.4677C38.1938 21.2787 38.4724 21.0082 38.754 20.6849C39.0331 20.3646 39.333 19.972 39.5674 19.5379C39.7978 19.1113 40 18.58 40 18.0001C40 17.4201 39.7978 16.8888 39.5674 16.4622C39.333 16.0281 39.0331 15.6355 38.754 15.3152C38.4724 14.9919 38.1938 14.7214 37.9869 14.5324C37.8827 14.4373 37.795 14.3613 37.7319 14.3079C37.7003 14.2811 37.6748 14.26 37.6563 14.2448L37.6339 14.2266L37.6269 14.2209L37.6245 14.219L37.6235 14.2183C37.6233 14.2181 37.6228 14.2177 37 15.0001ZM37 15.0001L37.6235 14.2183C37.259 13.9281 36.7414 13.9278 36.3769 14.2179L37 15.0001Z" fill="#333333"/>
<path fill-rule="evenodd" clip-rule="evenodd" d="M32.1786 31.1803C32.2106 31.2915 32.2468 31.4083 32.2876 31.5272C32.3968 31.8454 32.5301 32.1533 32.6853 32.4053C32.845 32.6645 32.9906 32.8038 33.0981 32.8658C33.2055 32.9279 33.3989 32.9843 33.7032 32.993C33.9991 33.0014 34.3324 32.9629 34.6626 32.8984C34.7859 32.8743 34.9052 32.8473 35.0175 32.8193C34.9856 32.708 34.9493 32.5913 34.9085 32.4724C34.7993 32.1542 34.666 31.8462 34.5108 31.5942C34.3511 31.335 34.2055 31.1958 34.0981 31.1338C33.9906 31.0717 33.7972 31.0152 33.4929 31.0066C33.1971 30.9981 32.8637 31.0366 32.5336 31.1012C32.4102 31.1253 32.291 31.1523 32.1786 31.1803ZM36.1961 33.4998C37.1851 33.3516 37.1851 33.3514 37.185 33.3512L37.1848 33.3495L37.1843 33.3464L37.1829 33.3375L37.1783 33.3091C37.1745 33.2855 37.1689 33.2527 37.1616 33.212C37.1469 33.1307 37.1249 33.0167 37.0946 32.8789C37.0344 32.6052 36.9394 32.2287 36.8002 31.8232C36.6623 31.4214 36.4723 30.9653 36.2136 30.5453C35.9593 30.1325 35.6003 29.6917 35.0981 29.4017C34.5958 29.1117 34.0346 29.0212 33.5499 29.0074C33.0568 28.9933 32.5668 29.0568 32.1499 29.1383C31.7291 29.2206 31.3556 29.3266 31.0884 29.4113C30.954 29.4539 30.8443 29.4919 30.7665 29.5198C30.7275 29.5338 30.6964 29.5454 30.6741 29.5538L30.6471 29.5641L30.6387 29.5673L30.6358 29.5685L30.6347 29.5689C30.6345 29.569 30.6338 29.5692 31 30.4998L30.6347 29.5689C30.2012 29.7395 29.942 30.1872 30.011 30.6479L31 30.4998C30.011 30.6479 30.011 30.6477 30.011 30.6479L30.0113 30.6501L30.0118 30.6531L30.0132 30.662L30.0178 30.6905C30.0216 30.7141 30.0272 30.7468 30.0346 30.7876C30.0493 30.8689 30.0713 30.9829 30.1016 31.1206C30.1618 31.3943 30.2567 31.7708 30.3959 32.1764C30.5338 32.5782 30.7238 33.0343 30.9825 33.4543C31.2368 33.8671 31.5958 34.3079 32.0981 34.5979C32.6003 34.8878 33.1615 34.9784 33.6462 34.9922C34.1393 35.0062 34.6293 34.9427 35.0462 34.8612C35.467 34.779 35.8405 34.673 36.1077 34.5883C36.2421 34.5456 36.3518 34.5077 36.4296 34.4797C36.4686 34.4658 36.4997 34.4542 36.5221 34.4458L36.549 34.4355L36.5574 34.4322L36.5603 34.4311L36.5614 34.4307C36.5616 34.4306 36.5623 34.4303 36.1961 33.4998ZM36.1961 33.4998L36.5614 34.4307C36.9949 34.2601 37.254 33.8119 37.185 33.3512L36.1961 33.4998Z" fill="#333333"/>
<path fill-rule="evenodd" clip-rule="evenodd" d="M39.1786 25.8191C39.291 25.8471 39.4102 25.8741 39.5336 25.8982C39.8637 25.9627 40.1971 26.0012 40.4929 25.9928C40.7972 25.9841 40.9906 25.9277 41.0981 25.8656C41.2055 25.8036 41.3511 25.6643 41.5108 25.4051C41.666 25.1531 41.7993 24.8452 41.9085 24.527C41.9493 24.4081 41.9856 24.2913 42.0175 24.1801C41.9052 24.1521 41.7859 24.1251 41.6626 24.101C41.3324 24.0365 40.9991 23.9979 40.7032 24.0064C40.3989 24.0151 40.2055 24.0715 40.0981 24.1336C39.9906 24.1956 39.845 24.3348 39.6853 24.594C39.5301 24.846 39.3968 25.154 39.2876 25.4722C39.2468 25.5911 39.2106 25.7078 39.1786 25.8191ZM43.1961 23.4996C43.5623 22.5691 43.5621 22.569 43.5619 22.5689L43.5603 22.5683L43.5574 22.5671L43.549 22.5639L43.5221 22.5536C43.4997 22.5452 43.4686 22.5336 43.4296 22.5196C43.3518 22.4917 43.2421 22.4537 43.1077 22.4111C42.8405 22.3264 42.467 22.2204 42.0462 22.1381C41.6293 22.0566 41.1393 21.9931 40.6462 22.0072C40.1615 22.021 39.6003 22.1116 39.0981 22.4015C38.5958 22.6915 38.2368 23.1323 37.9825 23.5451C37.7238 23.9651 37.5338 24.4212 37.3959 24.823C37.2567 25.2285 37.1618 25.605 37.1016 25.8788C37.0713 26.0165 37.0493 26.1305 37.0346 26.2118C37.0272 26.2526 37.0216 26.2853 37.0178 26.3089L37.0132 26.3374L37.0118 26.3463L37.0113 26.3493L37.0112 26.3505C37.0111 26.3507 37.011 26.3515 38 26.4996L37.0112 26.3505C36.9421 26.8112 37.2003 27.2595 37.6338 27.4301L38 26.4996C37.6338 27.4301 37.6336 27.43 37.6338 27.4301L37.6358 27.4309L37.6387 27.4321L37.6471 27.4353L37.6741 27.4456C37.6964 27.454 37.7275 27.4656 37.7665 27.4796C37.8443 27.5075 37.954 27.5454 38.0884 27.5881C38.3556 27.6728 38.7291 27.7788 39.1499 27.8611C39.5668 27.9425 40.0568 28.006 40.5499 27.992C41.0346 27.9782 41.5958 27.8876 42.0981 27.5977C42.6003 27.3077 42.9593 26.8669 43.2136 26.4541C43.4723 26.0341 43.6623 25.578 43.8002 25.1762C43.9394 24.7706 44.0344 24.3941 44.0946 24.1204C44.1249 23.9827 44.1469 23.8687 44.1616 23.7874C44.1689 23.7466 44.1745 23.7139 44.1783 23.6903L44.1829 23.6618L44.1843 23.6529L44.1848 23.6499L44.185 23.6487C44.185 23.6485 44.1851 23.6477 43.1961 23.4996ZM43.1961 23.4996L44.185 23.6487C44.254 23.188 43.9954 22.7395 43.5619 22.5689L43.1961 23.4996Z" fill="#333333"/>
<path fill-rule="evenodd" clip-rule="evenodd" d="M32.1786 24.1803C32.2106 24.2915 32.2468 24.4083 32.2876 24.5272C32.3968 24.8454 32.5301 25.1533 32.6853 25.4053C32.845 25.6645 32.9906 25.8038 33.0981 25.8658C33.2055 25.9279 33.3989 25.9843 33.7032 25.993C33.9991 26.0014 34.3324 25.9629 34.6626 25.8984C34.7859 25.8743 34.9052 25.8473 35.0175 25.8193C34.9856 25.708 34.9493 25.5913 34.9085 25.4724C34.7993 25.1542 34.666 24.8462 34.5108 24.5942C34.3511 24.335 34.2055 24.1958 34.0981 24.1338C33.9906 24.0717 33.7972 24.0152 33.4929 24.0066C33.1971 23.9981 32.8637 24.0366 32.5336 24.1012C32.4102 24.1253 32.291 24.1523 32.1786 24.1803ZM36.1961 26.4998C37.1851 26.3516 37.1851 26.3514 37.185 26.3512L37.1848 26.3495L37.1843 26.3464L37.1829 26.3375L37.1783 26.3091C37.1745 26.2855 37.1689 26.2527 37.1616 26.212C37.1469 26.1307 37.1249 26.0167 37.0946 25.8789C37.0344 25.6052 36.9394 25.2287 36.8002 24.8232C36.6623 24.4214 36.4723 23.9653 36.2136 23.5453C35.9593 23.1325 35.6003 22.6917 35.0981 22.4017C34.5958 22.1117 34.0346 22.0212 33.5499 22.0074C33.0568 21.9933 32.5668 22.0568 32.1499 22.1383C31.7291 22.2206 31.3556 22.3266 31.0884 22.4113C30.954 22.4539 30.8443 22.4919 30.7665 22.5198C30.7275 22.5338 30.6964 22.5454 30.6741 22.5538L30.6471 22.5641L30.6387 22.5673L30.6358 22.5685L30.6347 22.5689C30.6345 22.569 30.6338 22.5692 31 23.4998L30.6347 22.5689C30.2012 22.7395 29.942 23.1872 30.011 23.6479L31 23.4998C30.011 23.6479 30.011 23.6477 30.011 23.6479L30.0113 23.6501L30.0118 23.6531L30.0132 23.662L30.0178 23.6905C30.0216 23.7141 30.0272 23.7468 30.0346 23.7876C30.0493 23.8689 30.0713 23.9829 30.1016 24.1206C30.1618 24.3943 30.2567 24.7708 30.3959 25.1764C30.5338 25.5782 30.7238 26.0343 30.9825 26.4543C31.2368 26.8671 31.5958 27.3079 32.0981 27.5979C32.6003 27.8878 33.1615 27.9784 33.6462 27.9922C34.1393 28.0062 34.6293 27.9427 35.0462 27.8612C35.467 27.779 35.8405 27.673 36.1077 27.5883C36.2421 27.5456 36.3518 27.5077 36.4296 27.4797C36.4686 27.4658 36.4997 27.4542 36.5221 27.4458L36.549 27.4355L36.5574 27.4322L36.5603 27.4311L36.5614 27.4307C36.5616 27.4306 36.5623 27.4303 36.1961 26.4998ZM36.1961 26.4998L36.5614 27.4307C36.9949 27.2601 37.254 26.8119 37.185 26.3512L36.1961 26.4998Z" fill="#333333"/>
</svg>
