<svg width="48" height="48" viewBox="0 0 48 48" fill="none" xmlns="http://www.w3.org/2000/svg">
<path fill-rule="evenodd" clip-rule="evenodd" d="M18.3616 14.5018C17.9857 14.1154 17.4485 13.8153 16.4944 13.8161C16.1761 13.8163 15.718 13.9507 15.0999 14.471C14.4755 14.9966 13.8025 15.8248 13.1201 16.9574C11.7568 19.2201 10.5551 22.3609 9.65261 25.6826C8.75354 28.9916 8.18539 32.3536 8.0308 35.0036C7.9531 36.3356 7.98437 37.4167 8.10186 38.1916C8.16054 38.5786 8.23255 38.8327 8.29188 38.9805C8.29797 38.9957 8.30354 39.0088 8.30852 39.02C9.26857 39.7492 10.907 40.0399 12.9417 39.6436C14.9997 39.2428 17.0171 38.2114 18.2942 36.9357C18.7374 36.493 19.1338 35.7625 19.4295 34.6736C19.7217 33.5972 19.8777 32.3122 19.9432 30.9118C20.0084 29.519 19.9818 28.0792 19.9359 26.7041C19.9233 26.3269 19.909 25.9485 19.8948 25.5757C19.8589 24.629 19.8244 23.719 19.8237 22.959C19.8235 22.7011 19.8258 22.4279 19.8282 22.1429C19.8421 20.4956 19.8594 18.4532 19.413 16.6786C19.158 15.6649 18.7954 14.9476 18.3616 14.5018ZM8.33561 39.0739C8.33559 39.074 8.33466 39.0726 8.33292 39.0696C8.33477 39.0724 8.33564 39.0739 8.33561 39.0739ZM21.8287 22.212C21.8636 18.6833 21.9316 11.8116 16.4927 11.8161C9.04214 11.8222 3.74153 37.833 6.93685 40.4841C10.1322 43.1352 16.5171 41.5378 19.7076 38.3507C22.2835 35.7776 22.0555 29.7701 21.8919 25.4576C21.8566 24.5284 21.8243 23.6779 21.8237 22.9574C21.8236 22.7314 21.826 22.4815 21.8287 22.212Z" fill="#333333"/>
<path fill-rule="evenodd" clip-rule="evenodd" d="M29.5788 14.4925C29.9541 14.1055 30.4908 13.8046 31.4449 13.8038C31.7632 13.8035 32.2215 13.9371 32.8404 14.4564C33.4657 14.981 34.14 15.8081 34.8243 16.9396C36.1913 19.2 37.3982 22.3388 38.3061 25.6591C39.2106 28.9666 39.7843 32.3277 39.9432 34.9774C40.0231 36.3093 39.9936 37.3904 39.8774 38.1655C39.8193 38.5526 39.7477 38.8068 39.6886 38.9548C39.6826 38.9699 39.677 38.9831 39.6721 38.9943C38.7132 39.725 37.0753 40.0184 35.0399 39.6255C32.9812 39.228 30.9622 38.1999 29.683 36.9263C29.2391 36.4843 28.8414 35.7545 28.544 34.666C28.25 33.5902 28.0919 32.3054 28.0241 30.9051C27.9566 29.5124 27.9809 28.0726 28.0245 26.6974C28.0365 26.3202 28.0502 25.9417 28.0638 25.569C28.0981 24.6222 28.1312 23.7121 28.1305 22.9521C28.1303 22.6942 28.1276 22.4211 28.1247 22.1361C28.1081 20.4888 28.0875 18.4464 28.531 16.6711C28.7843 15.657 29.1458 14.9391 29.5788 14.4925ZM39.6451 39.0482C39.6451 39.0483 39.646 39.0469 39.6477 39.0439C39.6459 39.0467 39.645 39.0482 39.6451 39.0482ZM26.1244 22.2085C26.0837 18.6798 26.0044 11.8082 31.4433 11.8038C38.8939 11.7977 44.2371 37.7998 41.0461 40.4561C37.8552 43.1125 31.4676 41.5255 28.2719 38.3436C25.6918 35.7747 25.9099 29.7669 26.0665 25.4542C26.1002 24.5249 26.1311 23.6743 26.1305 22.9538C26.1304 22.7279 26.1275 22.4779 26.1244 22.2085Z" fill="#333333"/>
<path d="M33.9738 18.8017C33.9747 19.9062 33.08 20.8024 31.9754 20.8033C30.8709 20.8042 29.9747 19.9095 29.9738 18.8049C29.9729 17.7004 30.8676 16.8042 31.9722 16.8033C33.0767 16.8024 33.9729 17.6971 33.9738 18.8017Z" fill="#333333"/>
<path d="M38.9877 35.7975C38.9886 36.9021 38.0939 37.7982 36.9894 37.7991C35.8848 37.8 34.9886 36.9053 34.9877 35.8008C34.9868 34.6962 35.8815 33.8 36.9861 33.7991C38.0907 33.7982 38.9868 34.6929 38.9877 35.7975Z" fill="#333333"/>
<path d="M33.9861 33.8017C33.987 34.9062 33.0923 35.8024 31.9878 35.8033C30.8832 35.8042 29.987 34.9095 29.9861 33.8049C29.9852 32.7004 30.8799 31.8042 31.9845 31.8033C33.0891 31.8024 33.9852 32.6971 33.9861 33.8017Z" fill="#333333"/>
<path d="M37.982 28.7985C37.9829 29.9031 37.0882 30.7992 35.9836 30.8001C34.8791 30.801 33.9829 29.9063 33.982 28.8018C33.9811 27.6972 34.8758 26.801 35.9803 26.8001C37.0849 26.7992 37.9811 27.6939 37.982 28.7985Z" fill="#333333"/>
<path d="M33.9787 24.8017C33.9796 25.9062 33.0849 26.8024 31.9803 26.8033C30.8758 26.8042 29.9796 25.9095 29.9787 24.8049C29.9778 23.7004 30.8725 22.8042 31.9771 22.8033C33.0816 22.8024 33.9778 23.6971 33.9787 24.8017Z" fill="#333333"/>
<path d="M13.9738 18.8182C13.9747 19.9228 14.8709 20.8175 15.9754 20.8166C17.08 20.8157 17.9747 19.9195 17.9738 18.8149C17.9729 17.7104 17.0767 16.8157 15.9722 16.8166C14.8676 16.8175 13.9729 17.7136 13.9738 18.8182Z" fill="#333333"/>
<path d="M8.98772 35.8224C8.98863 36.9269 9.88479 37.8216 10.9894 37.8207C12.0939 37.8198 12.9886 36.9237 12.9877 35.8191C12.9868 34.7145 12.0907 33.8198 10.9861 33.8207C9.88152 33.8216 8.98682 34.7178 8.98772 35.8224Z" fill="#333333"/>
<path d="M13.9861 33.8182C13.987 34.9228 14.8832 35.8175 15.9878 35.8166C17.0923 35.8157 17.987 34.9195 17.9861 33.8149C17.9852 32.7104 17.0891 31.8157 15.9845 31.8166C14.8799 31.8175 13.9852 32.7136 13.9861 33.8182Z" fill="#333333"/>
<path d="M9.98199 28.8214C9.98289 29.926 10.8791 30.8207 11.9836 30.8198C13.0882 30.8188 13.9829 29.9227 13.982 28.8181C13.9811 27.7135 13.0849 26.8188 11.9803 26.8198C10.8758 26.8207 9.98108 27.7168 9.98199 28.8214Z" fill="#333333"/>
<path d="M13.9787 24.8182C13.9796 25.9228 14.8758 26.8175 15.9803 26.8166C17.0849 26.8157 17.9796 25.9195 17.9787 24.8149C17.9778 23.7104 17.0816 22.8157 15.9771 22.8166C14.8725 22.8175 13.9778 23.7136 13.9787 24.8182Z" fill="#333333"/>
<path fill-rule="evenodd" clip-rule="evenodd" d="M22.9631 5.81098C22.9631 5.8109 22.9631 5.81085 23.9631 5.81003C24.9631 5.80922 24.9631 5.80926 24.9631 5.80934L24.975 20.3092C24.9767 22.4115 24.0417 23.6178 22.9821 24.2371C22.4849 24.5277 21.9964 24.6689 21.6382 24.7389C21.4572 24.7742 21.3036 24.7925 21.1906 24.802C21.1339 24.8068 21.0869 24.8094 21.0512 24.8108C21.0333 24.8115 21.0182 24.8119 21.0061 24.8122L20.9901 24.8124L20.9838 24.8125L20.9811 24.8125L20.9798 24.8125C20.9792 24.8125 20.9786 24.8125 20.9778 23.8125C20.977 22.8125 20.9765 22.8125 20.9759 22.8125L20.9749 22.8125L20.973 22.8125L20.9699 22.8125L20.9668 22.8126C20.9668 22.8126 20.9684 22.8125 20.9718 22.8124C20.9801 22.8121 20.9975 22.8112 21.0229 22.8091C21.0739 22.8048 21.1547 22.7955 21.2549 22.776C21.4591 22.7361 21.7204 22.6579 21.9729 22.5104C22.4125 22.2535 22.9761 21.7086 22.975 20.3108L22.9631 5.81098Z" fill="#333333"/>
<path fill-rule="evenodd" clip-rule="evenodd" d="M24.9632 5.80939C24.9632 5.80931 24.9632 5.80926 23.9632 5.81008C22.9632 5.8109 22.9632 5.81094 22.9632 5.81103L22.9751 20.3109C22.9768 22.4132 23.9137 23.618 24.9744 24.2355C25.4721 24.5253 25.9607 24.6657 26.3191 24.7351C26.5001 24.7701 26.6538 24.7882 26.7668 24.7975C26.8235 24.8022 26.8705 24.8047 26.9062 24.8061C26.9241 24.8068 26.9392 24.8071 26.9513 24.8074L26.9673 24.8076L26.9736 24.8076L26.9763 24.8076L26.9776 24.8076C26.9782 24.8076 26.9787 24.8076 26.9779 23.8076C26.9771 22.8076 26.9777 22.8076 26.9782 22.8076L26.9793 22.8076L26.9812 22.8076L26.9842 22.8076L26.9873 22.8077C26.9873 22.8077 26.9857 22.8076 26.9823 22.8075C26.9741 22.8072 26.9566 22.8064 26.9312 22.8043C26.8802 22.8001 26.7994 22.7909 26.6992 22.7715C26.4949 22.732 26.2334 22.6543 25.9807 22.5072C25.5407 22.2509 24.9762 21.707 24.9751 20.3093L24.9632 5.80939Z" fill="#333333"/>
</svg>
