<svg width="48" height="48" viewBox="0 0 48 48" fill="none" xmlns="http://www.w3.org/2000/svg">
<path d="M30.2425 20.0299L24 18.4692L17.7575 20.0299C17.2217 20.1638 16.8959 20.7068 17.0299 21.2425C17.1638 21.7783 17.7067 22.1041 18.2425 21.9702L24 20.5308L29.7575 21.9702C30.2933 22.1041 30.8362 21.7783 30.9701 21.2425C31.1041 20.7068 30.7783 20.1638 30.2425 20.0299Z" fill="#333333"/>
<path fill-rule="evenodd" clip-rule="evenodd" d="M9.00001 16.8683C9.00001 12.6419 20.1604 12.6419 20.1604 12.6419L21.061 11.0263C21.4141 10.3927 22.0826 10 22.8079 10H25.367C26.0923 10 26.7607 10.3926 27.1138 11.0261L28.0144 12.6415C28.0144 12.6415 39 12.6419 39 16.8683C39 16.9239 38.9999 16.9794 38.9997 17.0348L40.7306 17.4548C42.6516 17.9209 43.944 19.7203 43.7722 21.6895L43.2184 28.0392C43.081 29.6153 42.0274 30.9623 40.5307 31.4754L33.4396 33.9064C29.3438 38 24.4839 38 24.4839 38H23.5161C23.5161 38 18.6505 38 14.5532 33.8992L7.36135 31.1024C5.95223 30.5544 4.9725 29.2587 4.82916 27.7536L4.25576 21.7329C4.06441 19.7237 5.39982 17.8868 7.37002 17.4489L9.00053 17.0866C9.00018 17.0141 9.00001 16.9413 9.00001 16.8683ZM9.05786 19.1226L7.80388 19.4013C6.81878 19.6202 6.15108 20.5387 6.24675 21.5433L6.82015 27.564C6.89182 28.3165 7.38169 28.9644 8.08625 29.2384L12.1826 30.8314C10.555 28.1007 9.33201 24.3299 9.05786 19.1226ZM35.7063 31.0151L39.8822 29.5835C40.6305 29.327 41.1573 28.6535 41.226 27.8654L41.7798 21.5158C41.8657 20.5311 41.2195 19.6314 40.259 19.3984L38.9444 19.0794C38.6687 24.427 37.3937 28.2631 35.7063 31.0151ZM22.8034 12.0107C22.6779 12.2323 22.5629 12.4458 22.4537 12.6487C21.8203 13.8249 21.3774 14.6473 20.1784 14.6473C14.2367 14.6473 11.1904 16.2197 11.1904 16.7917C11.1904 33.2373 20.1636 35.8195 23.7822 35.9903C23.8533 35.9968 23.9258 36 23.9999 36C24.0295 36 24.0597 35.9998 24.0903 35.9995C24.1209 35.9998 24.1511 36 24.1807 36C24.2547 36 24.3273 35.9968 24.3983 35.9903C28.017 35.8195 36.9901 33.2373 36.9901 16.7917C36.9901 16.2197 33.9439 14.6473 28.0022 14.6473C26.8031 14.6473 26.3603 13.825 25.727 12.6488C25.6177 12.446 25.5026 12.2322 25.3772 12.0107H22.8034Z" fill="#333333"/>
</svg>
