<svg width="48" height="48" viewBox="0 0 48 48" fill="none" xmlns="http://www.w3.org/2000/svg">
<rect width="48" height="48" fill="white"/>
<path fill-rule="evenodd" clip-rule="evenodd" d="M24.8066 6.32319C15.8044 4.51082 6.77272 10.5415 6.04702 19.6961C6.01648 19.7919 6 19.8941 6 20C6 20.0621 6.00566 20.1229 6.01649 20.1819C6.00736 20.3781 6.00202 20.5758 6.00056 20.7747C5.98231 22.893 6.41404 24.9909 7.26707 26.9282C8.05926 28.7274 9.19792 30.3498 10.6161 31.7024V41C10.6161 41.5523 11.0638 42 11.6161 42C12.1684 42 12.6161 41.5523 12.6161 41V31.2654C12.6161 30.9813 12.4953 30.7107 12.2839 30.521C10.9228 29.2999 9.83633 27.8003 9.09749 26.1223C8.38666 24.5079 8.01347 22.7644 8.00036 21H22V26.2149C22 29.3309 23.2006 32.3251 25.3469 34.5374C27.4942 36.7508 30.4132 38 33.4634 38H42V19.163C42 17.2728 41.2718 15.4543 39.9665 14.1088C38.6602 12.7623 36.8818 12 35.0209 12H32.7858C32.1228 10.889 31.351 9.89055 30.4127 9.03994C28.9511 7.71491 27.1334 6.79223 24.8066 6.32319ZM29.0694 10.5217C29.551 10.9583 29.9881 11.451 30.3913 12H11.7173C14.8554 8.88178 19.5958 7.31434 24.4119 8.28385C26.4179 8.68826 27.8987 9.46032 29.0694 10.5217ZM8.13984 19C8.41635 17.1589 9.09255 15.4713 10.0714 14H22V19H8.13984ZM31.965 14.7467C31.8474 14.4905 31.7274 14.2416 31.6046 14H24V26.2149C24 28.8197 25.0042 31.3119 26.7824 33.1448C28.5596 34.9767 30.9635 36 33.4634 36H40V19.163C40 17.784 39.4683 16.4675 38.531 15.5014C37.5948 14.5364 36.3315 14 35.0209 14H33.8212C34.0384 14.5105 34.149 15.0605 34.146 15.616V18.6606C34.2092 18.7804 34.2962 18.9458 34.4025 19.1493C34.6354 19.5953 34.9616 20.225 35.3349 20.9611C36.0802 22.4303 37.0195 24.3346 37.7813 26.0495L37.7817 26.0504C37.9532 26.4375 38.0254 26.8613 37.9921 27.2833C37.9588 27.7053 37.8209 28.1125 37.5906 28.4679C37.3603 28.8233 37.0448 29.1156 36.6724 29.3177C36.3006 29.5196 35.8841 29.6249 35.461 29.6239H34.1581V31.7172C34.1581 32.2695 33.7103 32.7172 33.1581 32.7172C32.6058 32.7172 32.1581 32.2695 32.1581 31.7172V28.6239C32.1581 28.0716 32.6058 27.6239 33.1581 27.6239H35.4621L35.4653 27.6239C35.5533 27.6242 35.6402 27.6024 35.7182 27.56C35.7962 27.5177 35.8631 27.456 35.9122 27.3802C35.9614 27.3043 35.9911 27.2169 35.9983 27.1259C36.0055 27.0349 35.9899 26.9437 35.9532 26.8608C35.2121 25.1924 34.2908 23.3238 33.5513 21.8658C33.1822 21.1381 32.8598 20.5156 32.6298 20.0752C32.5148 19.8551 32.423 19.6806 32.36 19.5613L32.2879 19.4252L32.2638 19.3798C32.1867 19.235 32.146 19.073 32.146 18.9089V15.607C32.1479 15.3103 32.0861 15.0169 31.965 14.7467ZM31.965 14.7467L31.9666 14.7502L32.8754 14.3333L31.9636 14.7437L31.965 14.7467Z" fill="#333333"/>
<path d="M28 38C28.5523 38 29 38.4477 29 39V41C29 41.5523 28.5523 42 28 42C27.4477 42 27 41.5523 27 41V39C27 38.4477 27.4477 38 28 38Z" fill="#333333"/>
</svg>
