<svg width="48" height="48" viewBox="0 0 48 48" fill="none" xmlns="http://www.w3.org/2000/svg">
<path fill-rule="evenodd" clip-rule="evenodd" d="M23.0074 7.08878C22.9742 6.56387 23.0528 6.03796 23.2384 5.54341C23.424 5.04887 23.7127 4.59615 24.0867 4.21313C24.4607 3.83011 24.9121 3.52489 25.4131 3.31626C25.9141 3.10763 26.4542 3 27 3C27.5458 3 28.0859 3.10763 28.5869 3.31626C29.0879 3.52489 29.5393 3.83011 29.9133 4.21313C30.2873 4.59615 30.576 5.04887 30.7616 5.54341C30.9472 6.03796 31.0258 6.56387 30.9926 7.08878C30.9966 8.11737 30.5783 9.10577 29.829 9.83845C29.0797 10.5711 28.0601 10.9887 26.9926 11C25.9264 10.9887 24.9083 10.5707 24.1614 9.83757C23.4145 9.10448 22.9995 8.11605 23.0074 7.08878ZM26.9926 8.99978C27.5475 8.98854 28.0622 8.76883 28.4307 8.40846C28.8015 8.04591 28.9944 7.57285 28.9926 7.09654L28.9923 7.02935L28.9966 6.96229C29.0119 6.72067 28.9759 6.4773 28.8892 6.24615C28.8023 6.0148 28.6653 5.79778 28.4824 5.61041C28.2992 5.42285 28.0739 5.26912 27.8181 5.16258C27.5621 5.05599 27.2835 5 27 5C26.7165 5 26.4379 5.05599 26.1819 5.16258C25.9261 5.26912 25.7008 5.42285 25.5176 5.61041C25.3347 5.79777 25.1977 6.01479 25.1108 6.24615C25.0241 6.4773 24.9881 6.72067 25.0034 6.96229L25.0079 7.03319L25.0074 7.10423C25.0037 7.57785 25.1942 8.04889 25.5623 8.41018C25.9282 8.76933 26.4403 8.98856 26.9926 8.99978Z" fill="#333333"/>
<path fill-rule="evenodd" clip-rule="evenodd" d="M25.5693 10.9394C24.3747 10.2202 22.9602 9.97129 21.5949 10.2424L21.5851 10.2444L21.5752 10.2465C20.43 10.498 19.6122 11.3173 19.0296 12.0691C18.7294 12.4565 18.4624 12.8653 18.2272 13.2373C18.1569 13.3485 18.0906 13.4545 18.0272 13.5558L18.0271 13.5561L18.027 13.5561L18.027 13.5562C17.8722 13.8036 17.7345 14.0236 17.5969 14.2265L14.8625 18.0155L14.8552 18.0257L14.8481 18.036C14.5117 18.5276 14.3701 19.1271 14.4478 19.7165C14.5255 20.3061 14.818 20.8488 15.2729 21.2352L15.2728 21.2352L15.2806 21.2417L20.2176 25.3496L20.224 25.3549L20.2304 25.3602C20.4774 25.5588 20.7603 25.7049 21.0618 25.7911C20.5667 27.3077 19.725 29.7937 18.8823 32.2604C18.19 34.2872 17.5012 36.2892 17.0331 37.65C16.6848 38.6623 16.4587 39.3197 16.444 39.3681L16.0547 40.6572H17.4013H21.8106L21.9555 43.6528C21.9625 44.2728 22.2072 44.8694 22.6434 45.3139C23.0866 45.7654 23.6917 46.0226 24.3268 46.0226C24.9618 46.0226 25.5669 45.7654 26.0101 45.3139C26.4457 44.8701 26.6903 44.2745 26.6979 43.6553L26.8523 40.741H30.7585H31.7585V39.741C31.7585 39.5932 31.7 38.6686 31.6271 37.5163L31.627 37.5154L31.627 37.5151C31.5935 36.986 31.557 36.4089 31.5217 35.837C31.4644 34.9068 31.4085 33.9661 31.3695 33.2095C31.3289 32.4199 31.3114 31.9065 31.3183 31.7724C31.3199 31.7424 31.3344 31.6477 31.5479 31.4342C31.6512 31.3308 31.7715 31.2284 31.922 31.1024L31.9525 31.0769C32.0844 30.9665 32.2497 30.8283 32.3945 30.685L32.4025 30.6771L32.4103 30.669C33.0426 30.0144 33.5667 29.2611 33.9632 28.4383L33.9717 28.4208L33.9794 28.403C34.313 27.6361 34.5077 26.8147 34.5545 25.9782L34.5565 25.9433L34.556 25.9084C34.5332 24.2679 34.1019 22.6593 33.3013 21.2334L33.0373 20.7054L33.0358 20.7023C32.055 18.7068 31.1487 17.383 29.8126 15.6824C28.7171 13.8877 27.3154 12.3055 25.6726 11.0107L25.6232 10.9718L25.5693 10.9394ZM20.6106 13.2941C21.1046 12.6565 21.5526 12.3026 21.9952 12.202C22.8473 12.0355 23.7302 12.184 24.4861 12.6223C25.9332 13.7728 27.1688 15.1775 28.1341 16.7714L28.1658 16.8237L28.2036 16.8719C29.5035 18.5232 30.3315 19.7337 31.2422 21.5873L31.2422 21.5874L31.2453 21.5935L31.5234 22.1498L31.5347 22.1724L31.5472 22.1945C32.1844 23.3224 32.5317 24.5975 32.5556 25.9007C32.519 26.4831 32.3827 27.0541 32.153 27.5877C31.8513 28.2091 31.4553 28.7771 30.9801 29.2709C30.8979 29.3513 30.794 29.4384 30.6407 29.5667L30.6406 29.5668L30.6405 29.5668L30.6381 29.5689C30.4929 29.6904 30.308 29.8456 30.1337 30.02C29.7918 30.3618 29.3606 30.9028 29.321 31.6693C29.3073 31.9334 29.3344 32.578 29.3722 33.3123C29.4117 34.0795 29.4681 35.0286 29.5255 35.9602C29.5647 36.5949 29.6045 37.224 29.6399 37.7832L29.64 37.7853L29.64 37.7854L29.6861 38.5152L29.7002 38.741H25.9038H24.9554L24.9052 39.6882L24.6995 43.5725L24.6981 43.5989V43.6254C24.6981 43.7367 24.6545 43.8398 24.5828 43.9129C24.5116 43.9854 24.4192 44.0226 24.3268 44.0226C24.2344 44.0226 24.1419 43.9854 24.0707 43.9129C23.999 43.8398 23.9554 43.7367 23.9554 43.6254V43.6012L23.9542 43.5771L23.7622 39.6089L23.7162 38.6572H22.7634H18.8016L19.1145 37.7478C19.5658 36.4359 20.1661 34.6894 20.775 32.9069C21.8048 29.8921 22.8861 26.6979 23.2893 25.3861C23.2918 25.3746 23.2946 25.3629 23.2978 25.3511C23.4657 24.7293 23.698 23.6224 23.7344 22.5379C23.7122 21.171 23.5239 19.812 23.1735 18.4919C23.084 18.0788 22.9954 17.686 22.9085 17.3007C22.7895 16.7734 22.6738 16.2601 22.563 15.7281L22.1489 13.7393L20.8254 15.2805L17.9455 18.6338L17.279 19.4099L18.07 20.0586L21.8566 23.1642C21.9898 23.2215 22.0831 23.3539 22.0831 23.5082C22.0831 23.6666 21.9847 23.8021 21.8456 23.8567C21.8288 23.865 21.8155 23.8695 21.8047 23.8724C21.7899 23.8764 21.7684 23.8804 21.736 23.8815C21.7271 23.8821 21.718 23.8825 21.7088 23.8825C21.5959 23.8825 21.4946 23.8324 21.4259 23.7533L16.565 19.7086C16.4939 19.6471 16.4441 19.5575 16.4306 19.4551C16.4173 19.3543 16.441 19.2537 16.4939 19.1727L19.227 15.3854L19.2351 15.3742L19.2429 15.3627C19.4062 15.1227 19.5772 14.8494 19.7428 14.5847L19.7428 14.5847L19.7429 14.5846C19.8021 14.49 19.8605 14.3965 19.9177 14.3061C20.1449 13.9467 20.3708 13.6036 20.6106 13.2941ZM21.235 18.9844C21.3512 19.42 21.4475 19.8605 21.5235 20.3044L20.1292 19.1608L21.0387 18.1019C21.102 18.3839 21.1644 18.6637 21.2238 18.9381L21.2288 18.9614L21.235 18.9844Z" fill="#333333"/>
</svg>
