<svg width="48" height="48" viewBox="0 0 48 48" fill="none" xmlns="http://www.w3.org/2000/svg">
<path fill-rule="evenodd" clip-rule="evenodd" d="M2 7C2 5.34315 3.34315 4 5 4H38C39.6569 4 41 5.34315 41 7V10.7702C47.9413 18.6253 47.6554 30.6289 40.1421 38.1421C32.3316 45.9526 19.6684 45.9526 11.8579 38.1421C5.87132 32.1556 4.47331 23.3181 7.66385 16H5C3.34315 16 2 14.6569 2 13V7ZM24.7806 16C25.678 17.6224 25.4535 19.8465 23.621 21.1399L22.6436 21.8298C21.2647 22.8031 22.0989 24.973 23.7746 24.772C25.522 24.5624 27.1676 25.6379 27.6769 27.3226L29.1905 32.3291C29.5921 32.162 29.9638 31.9745 30.3071 31.7729C29.7234 31.3702 29.2827 30.762 29.1 30.0309L27.6857 24.3741C27.2839 22.7667 28.2612 21.1379 29.8686 20.736C31.4759 20.3342 33.1048 21.3115 33.5066 22.9189L34.3063 26.1178L36.3765 25.9586C37.3982 25.88 38.3894 26.3284 39.005 27.1476C39.6205 27.9669 39.7754 29.0436 39.4156 30.0031C38.4445 32.5926 34.8577 38.1337 27.0384 39.0025C25.546 39.1683 24.1608 38.2052 23.7967 36.7484L23.11 34.002L20.3636 34.6886C18.7562 35.0905 17.1274 34.1132 16.7256 32.5058C16.3237 30.8984 17.301 29.2696 18.9084 28.8678L24.5653 27.4536C24.8745 27.3762 25.1846 27.35 25.4865 27.3694C25.1445 26.9329 24.5911 26.6884 24.0128 26.7577C20.2755 27.2061 18.415 22.3665 21.4902 20.1959L22.4677 19.506C24.0046 18.4211 23.2371 16.0027 21.3558 16.0027L9.86864 16.0028C6.53039 22.7345 7.66487 31.1207 13.2721 36.7279C20.3015 43.7574 31.6985 43.7574 38.7279 36.7279C44.9485 30.5073 45.6643 20.8665 40.8753 13.8588C40.5059 15.0972 39.3584 16 38 16H24.7806ZM5 6C4.44772 6 4 6.44772 4 7V13C4 13.5523 4.44772 14 5 14H38C38.5523 14 39 13.5523 39 13V7C39 6.44772 38.5523 6 38 6L34.7303 6H26.0029H25.9971H17.2697L5 6ZM5.344 12.416C5.344 12.784 5.624 13 6.008 13H9.048C9.344 13 9.584 12.768 9.584 12.472C9.584 12.176 9.344 11.936 9.048 11.936H7.096L8.008 11.232C9 10.464 9.48 10 9.48 9.064V9.048C9.48 8 8.712 7.32 7.552 7.32C6.704 7.32 6.176 7.624 5.728 8.144C5.64 8.248 5.584 8.392 5.584 8.528C5.584 8.84 5.832 9.088 6.144 9.088C6.336 9.088 6.48 9 6.56 8.912C6.872 8.576 7.12 8.424 7.472 8.424C7.912 8.424 8.224 8.68 8.224 9.152C8.224 9.616 7.952 9.928 7.256 10.496L5.664 11.8C5.456 11.968 5.344 12.176 5.344 12.416ZM12.8112 12.464C12.8112 12.792 13.0672 13.048 13.3952 13.048C13.7232 13.048 13.9872 12.792 13.9872 12.464V11.792H14.2832C14.5632 11.792 14.7872 11.576 14.7872 11.296C14.7872 11.016 14.5632 10.792 14.2832 10.792H13.9872V7.896C13.9872 7.568 13.7232 7.312 13.3952 7.312C13.0352 7.312 12.8592 7.456 12.6272 7.728L10.1952 10.552C10.0112 10.768 9.90719 10.968 9.90719 11.224C9.90719 11.552 10.1792 11.792 10.5072 11.792H12.8112V12.464ZM11.3232 10.792L12.8112 9.048V10.792H11.3232ZM15.8228 11.088H18.2068C18.5188 11.088 18.7748 10.832 18.7748 10.52C18.7748 10.208 18.5188 9.952 18.2068 9.952H15.8228C15.5108 9.952 15.2548 10.208 15.2548 10.52C15.2548 10.832 15.5108 11.088 15.8228 11.088ZM19.2334 12.416C19.2334 12.784 19.5134 13 19.8974 13H22.9374C23.2334 13 23.4734 12.768 23.4734 12.472C23.4734 12.176 23.2334 11.936 22.9374 11.936H20.9854L21.8974 11.232C22.8894 10.464 23.3694 10 23.3694 9.064V9.048C23.3694 8 22.6014 7.32 21.4414 7.32C20.5934 7.32 20.0654 7.624 19.6174 8.144C19.5294 8.248 19.4734 8.392 19.4734 8.528C19.4734 8.84 19.7214 9.088 20.0334 9.088C20.2254 9.088 20.3694 9 20.4494 8.912C20.7614 8.576 21.0094 8.424 21.3614 8.424C21.8014 8.424 22.1134 8.68 22.1134 9.152C22.1134 9.616 21.8414 9.928 21.1454 10.496L19.5534 11.8C19.3454 11.968 19.2334 12.176 19.2334 12.416ZM26.3458 13.096C27.5618 13.096 28.4818 12.304 28.4818 11.16V11.144C28.4818 9.976 27.6258 9.36 26.5138 9.36C25.9618 9.36 25.6338 9.536 25.3538 9.72C25.4338 8.984 25.7858 8.424 26.4818 8.424C26.8178 8.424 27.0498 8.504 27.3058 8.648C27.3938 8.696 27.5058 8.736 27.6098 8.736C27.9298 8.736 28.1938 8.488 28.1938 8.168C28.1938 7.92 28.0658 7.752 27.8738 7.64C27.5378 7.44 27.0818 7.304 26.5218 7.304C24.8498 7.304 24.0658 8.632 24.0658 10.36V10.376C24.0658 11.488 24.3218 12.088 24.7298 12.496C25.1218 12.888 25.6178 13.096 26.3458 13.096ZM26.2978 12.04C25.6898 12.04 25.3218 11.68 25.3218 11.208V11.192C25.3218 10.72 25.6738 10.384 26.2818 10.384C26.8898 10.384 27.2578 10.728 27.2578 11.2V11.216C27.2578 11.696 26.9058 12.04 26.2978 12.04ZM30.5786 12.584C30.6906 12.896 30.9226 13.088 31.2186 13.088H31.3466C31.6426 13.088 31.8666 12.904 31.9786 12.584L33.0826 9.376L34.1866 12.584C34.2986 12.904 34.5226 13.088 34.8186 13.088H34.9466C35.2426 13.088 35.4746 12.896 35.5866 12.584L37.1546 8.184C37.1786 8.112 37.2026 8.016 37.2026 7.944C37.2026 7.608 36.9306 7.352 36.5946 7.352C36.2906 7.352 36.0826 7.552 36.0026 7.792L34.8906 11.224L33.7706 7.824C33.6746 7.528 33.4586 7.336 33.1466 7.336H33.0506C32.7386 7.336 32.5226 7.536 32.4266 7.824L31.3066 11.224L30.1946 7.792C30.1146 7.536 29.8826 7.352 29.5946 7.352C29.2506 7.352 28.9626 7.608 28.9626 7.952C28.9626 8.024 28.9866 8.112 29.0106 8.184L30.5786 12.584ZM40.1421 19.7574C40.9232 20.5384 40.9232 21.8047 40.1421 22.5858C39.3611 23.3668 38.0948 23.3668 37.3137 22.5858C36.5327 21.8047 36.5327 20.5384 37.3137 19.7574C38.0948 18.9763 39.3611 18.9763 40.1421 19.7574ZM41.5564 24C39.9943 25.5621 37.4616 25.5621 35.8995 24C34.3374 22.4379 34.3374 19.9052 35.8995 18.3431C37.4616 16.781 39.9943 16.781 41.5564 18.3431C43.1184 19.9052 43.1184 22.4379 41.5564 24ZM37.406 28.349C37.2008 28.076 36.8705 27.9265 36.5299 27.9527L33.6177 28.1767C33.1315 28.2141 32.6892 27.8953 32.5709 27.4222L31.5663 23.4039C31.4324 22.8681 30.8894 22.5424 30.3536 22.6763C29.8178 22.8103 29.4921 23.3532 29.626 23.889L31.0402 29.5459C31.1585 30.019 31.6008 30.3378 32.0871 30.3004L32.5563 30.2643C32.9777 30.2319 33.3739 30.4679 33.5462 30.8538C33.7184 31.2398 33.6294 31.6923 33.3238 31.9843C32.1754 33.0817 30.5793 34.1234 28.4477 34.685C28.1891 34.7531 27.914 34.7149 27.6839 34.5787C27.4537 34.4426 27.2876 34.22 27.2228 33.9605L26.263 30.1214C26.1291 29.5856 25.5861 29.2599 25.0503 29.3938L19.3935 30.8081C18.8577 30.942 18.5319 31.4849 18.6659 32.0207C18.7998 32.5565 19.3428 32.8823 19.8786 32.7483L23.5951 31.8192C23.8524 31.7549 24.1247 31.7954 24.3522 31.9318C24.5796 32.0683 24.7435 32.2895 24.8078 32.5468L25.7369 36.2634C25.8583 36.749 26.32 37.07 26.8175 37.0147C33.6643 36.254 36.7468 31.4239 37.5429 29.3009C37.6628 28.9811 37.6112 28.6221 37.406 28.349Z" fill="#333333"/>
</svg>
