<svg width="48" height="48" viewBox="0 0 48 48" fill="none" xmlns="http://www.w3.org/2000/svg">
<path fill-rule="evenodd" clip-rule="evenodd" d="M13.2721 36.7279C7.66487 31.1207 6.53039 22.7345 9.86864 16.0028L21.3558 16.0027C23.2371 16.0027 24.0046 18.4211 22.4677 19.506L21.4902 20.1959C18.415 22.3665 20.2755 27.2061 24.0128 26.7577C24.5911 26.6884 25.1445 26.9329 25.4865 27.3694C25.1846 27.35 24.8745 27.3762 24.5653 27.4536L18.9084 28.8678C17.301 29.2696 16.3237 30.8984 16.7256 32.5058C17.1274 34.1132 18.7562 35.0905 20.3636 34.6886L23.11 34.002L23.7967 36.7484C24.1608 38.2052 25.546 39.1683 27.0384 39.0025C34.8577 38.1337 38.4445 32.5926 39.4156 30.0031C39.7754 29.0436 39.6205 27.9669 39.005 27.1476C38.3894 26.3284 37.3982 25.88 36.3765 25.9586L34.3063 26.1178L33.5066 22.9189C33.1048 21.3115 31.4759 20.3342 29.8686 20.736C28.2612 21.1379 27.2839 22.7667 27.6857 24.3741L29.1 30.0309C29.2827 30.762 29.7234 31.3702 30.3071 31.7729C29.9638 31.9745 29.5921 32.162 29.1905 32.3291L27.6769 27.3226C27.1676 25.6379 25.522 24.5624 23.7746 24.772C22.0989 24.973 21.2647 22.8031 22.6436 21.8298L23.621 21.1399C25.4874 19.8225 25.6857 17.5398 24.7297 15.9106C26.0339 15.5847 27 14.4052 27 13V7C27 6.65657 26.9423 6.32661 26.836 6.01931C31.1601 6.21912 35.4259 7.97005 38.7279 11.2721C45.7574 18.3015 45.7574 29.6985 38.7279 36.7279C31.6985 43.7574 20.3015 43.7574 13.2721 36.7279ZM24 6H17.2697H5C4.44772 6 4 6.44772 4 7V13C4 13.5523 4.44772 14 5 14H24C24.5523 14 25 13.5523 25 13V7C25 6.44771 24.5523 6 24 6ZM24.5577 4.05175C30.1455 3.65019 35.8698 5.58556 40.1421 9.85786C47.9526 17.6683 47.9526 30.3316 40.1421 38.1421C32.3316 45.9526 19.6684 45.9526 11.8579 38.1421C5.87132 32.1556 4.47331 23.3181 7.66385 16H5C3.34315 16 2 14.6569 2 13V7C2 5.34315 3.34315 4 5 4H24C24.1906 4 24.377 4.01777 24.5577 4.05175ZM40.1421 19.7574C40.9232 20.5384 40.9232 21.8047 40.1421 22.5858C39.3611 23.3668 38.0948 23.3668 37.3137 22.5858C36.5327 21.8047 36.5327 20.5384 37.3137 19.7574C38.0948 18.9763 39.3611 18.9763 40.1421 19.7574ZM41.5564 24C39.9943 25.5621 37.4616 25.5621 35.8995 24C34.3374 22.4379 34.3374 19.9052 35.8995 18.3431C37.4616 16.781 39.9943 16.781 41.5564 18.3431C43.1184 19.9052 43.1184 22.4379 41.5564 24ZM37.406 28.349C37.2008 28.076 36.8705 27.9265 36.5299 27.9527L33.6177 28.1767C33.1315 28.2141 32.6892 27.8953 32.5709 27.4222L31.5663 23.4039C31.4324 22.8681 30.8894 22.5424 30.3536 22.6763C29.8178 22.8103 29.4921 23.3532 29.626 23.889L31.0402 29.5459C31.1585 30.019 31.6008 30.3378 32.0871 30.3004L32.5563 30.2643C32.9777 30.2319 33.3739 30.4679 33.5462 30.8538C33.7184 31.2398 33.6294 31.6923 33.3238 31.9843C32.1754 33.0817 30.5793 34.1234 28.4477 34.685C28.1891 34.7531 27.914 34.7149 27.6839 34.5787C27.4537 34.4426 27.2876 34.22 27.2228 33.9605L26.263 30.1214C26.1291 29.5856 25.5861 29.2599 25.0503 29.3938L19.3935 30.8081C18.8577 30.942 18.5319 31.4849 18.6659 32.0207C18.7998 32.5565 19.3428 32.8823 19.8786 32.7483L23.5951 31.8192C23.8524 31.7549 24.1247 31.7954 24.3522 31.9318C24.5796 32.0683 24.7435 32.2895 24.8078 32.5468L25.7369 36.2634C25.8583 36.749 26.32 37.07 26.8175 37.0147C33.6643 36.254 36.7468 31.4239 37.5429 29.3009C37.6628 28.9811 37.6112 28.6221 37.406 28.349ZM7.86081 13.096C9.10881 13.096 9.87681 12.32 9.87681 11.264V11.248C9.87681 10.208 9.13281 9.808 8.37281 9.68L9.46881 8.632C9.69281 8.416 9.83681 8.248 9.83681 7.944C9.83681 7.608 9.57281 7.4 9.21281 7.4H6.48481C6.19681 7.4 5.95681 7.64 5.95681 7.928C5.95681 8.216 6.19681 8.456 6.48481 8.456H8.20481L7.11681 9.552C6.92481 9.744 6.85281 9.888 6.85281 10.056C6.85281 10.344 7.09281 10.584 7.38081 10.584H7.57281C8.26081 10.584 8.66881 10.84 8.66881 11.296V11.312C8.66881 11.728 8.34081 11.992 7.87681 11.992C7.43681 11.992 7.10081 11.848 6.78081 11.576C6.68481 11.496 6.56481 11.424 6.38881 11.424C6.06881 11.424 5.79681 11.696 5.79681 12.016C5.79681 12.192 5.89281 12.36 6.00481 12.456C6.46081 12.848 7.06081 13.096 7.86081 13.096ZM10.4456 12.416C10.4456 12.784 10.7256 13 11.1096 13H14.1496C14.4456 13 14.6856 12.768 14.6856 12.472C14.6856 12.176 14.4456 11.936 14.1496 11.936H12.1976L13.1096 11.232C14.1016 10.464 14.5816 10 14.5816 9.064V9.048C14.5816 8 13.8136 7.32 12.6536 7.32C11.8056 7.32 11.2776 7.624 10.8296 8.144C10.7416 8.248 10.6856 8.392 10.6856 8.528C10.6856 8.84 10.9336 9.088 11.2456 9.088C11.4376 9.088 11.5816 9 11.6616 8.912C11.9736 8.576 12.2216 8.424 12.5736 8.424C13.0136 8.424 13.3256 8.68 13.3256 9.152C13.3256 9.616 13.0536 9.928 12.3576 10.496L10.7656 11.8C10.5576 11.968 10.4456 12.176 10.4456 12.416ZM16.7339 12.584C16.8459 12.896 17.0779 13.088 17.3739 13.088H17.5019C17.7979 13.088 18.0219 12.904 18.1339 12.584L19.2379 9.376L20.3419 12.584C20.4539 12.904 20.6779 13.088 20.9739 13.088H21.1019C21.3979 13.088 21.6299 12.896 21.7419 12.584L23.3099 8.184C23.3339 8.112 23.3579 8.016 23.3579 7.944C23.3579 7.608 23.0859 7.352 22.7499 7.352C22.4459 7.352 22.2379 7.552 22.1579 7.792L21.0459 11.224L19.9259 7.824C19.8299 7.528 19.6139 7.336 19.3019 7.336H19.2059C18.8939 7.336 18.6779 7.536 18.5819 7.824L17.4619 11.224L16.3499 7.792C16.2699 7.536 16.0379 7.352 15.7499 7.352C15.4059 7.352 15.1179 7.608 15.1179 7.952C15.1179 8.024 15.1419 8.112 15.1659 8.184L16.7339 12.584Z" fill="#333333"/>
</svg>
