<svg width="48" height="48" viewBox="0 0 48 48" fill="none" xmlns="http://www.w3.org/2000/svg">
<path fill-rule="evenodd" clip-rule="evenodd" d="M2 7C2 5.34315 3.34315 4 5 4H26H37C38.6569 4 40 5.34315 40 7V9.71711C40.0476 9.76375 40.0949 9.81066 40.1421 9.85786C47.9526 17.6683 47.9526 30.3316 40.1421 38.1421C32.3316 45.9526 19.6684 45.9526 11.8579 38.1421C5.87132 32.1556 4.47331 23.3181 7.66385 16H5C3.34315 16 2 14.6569 2 13V7ZM24.7806 16C25.678 17.6224 25.4535 19.8465 23.621 21.1399L22.6436 21.8298C21.2647 22.8031 22.0989 24.973 23.7746 24.772C25.522 24.5624 27.1676 25.6379 27.6769 27.3226L29.1905 32.3291C29.5921 32.162 29.9638 31.9745 30.3071 31.7729C29.7234 31.3702 29.2827 30.762 29.1 30.0309L27.6857 24.3741C27.2839 22.7667 28.2612 21.1379 29.8686 20.736C31.4759 20.3342 33.1048 21.3115 33.5066 22.9189L34.3063 26.1178L36.3765 25.9586C37.3982 25.88 38.3894 26.3284 39.005 27.1476C39.6205 27.9669 39.7754 29.0436 39.4156 30.0031C38.4445 32.5926 34.8577 38.1337 27.0384 39.0025C25.546 39.1683 24.1608 38.2052 23.7967 36.7484L23.11 34.002L20.3636 34.6886C18.7562 35.0905 17.1274 34.1132 16.7256 32.5058C16.3237 30.8984 17.301 29.2696 18.9084 28.8678L24.5653 27.4536C24.8745 27.3762 25.1846 27.35 25.4865 27.3694C25.1445 26.9329 24.5911 26.6884 24.0128 26.7577C20.2755 27.2061 18.415 22.3665 21.4902 20.1959L22.4677 19.506C24.0046 18.4211 23.2371 16.0027 21.3558 16.0027L9.86864 16.0028C6.53039 22.7345 7.66487 31.1207 13.2721 36.7279C20.3015 43.7574 31.6985 43.7574 38.7279 36.7279C45.3041 30.1517 45.7281 19.7531 40 12.684V13C40 14.6569 38.6569 16 37 16H24.7806ZM34.7303 6H26.0029H25.9971H17.2697L5 6C4.44772 6 4 6.44772 4 7V13C4 13.5523 4.44772 14 5 14H37C37.5523 14 38 13.5523 38 13V7C38 6.44772 37.5523 6 37 6L34.7303 6ZM7.488 13.096C8.736 13.096 9.504 12.32 9.504 11.264V11.248C9.504 10.208 8.76 9.808 8 9.68L9.096 8.632C9.32 8.416 9.464 8.248 9.464 7.944C9.464 7.608 9.2 7.4 8.84 7.4H6.112C5.824 7.4 5.584 7.64 5.584 7.928C5.584 8.216 5.824 8.456 6.112 8.456H7.832L6.744 9.552C6.552 9.744 6.48 9.888 6.48 10.056C6.48 10.344 6.72 10.584 7.008 10.584H7.2C7.888 10.584 8.296 10.84 8.296 11.296V11.312C8.296 11.728 7.968 11.992 7.504 11.992C7.064 11.992 6.728 11.848 6.408 11.576C6.312 11.496 6.192 11.424 6.016 11.424C5.696 11.424 5.424 11.696 5.424 12.016C5.424 12.192 5.52 12.36 5.632 12.456C6.088 12.848 6.688 13.096 7.488 13.096ZM12.4408 13.096C13.6568 13.096 14.5767 12.304 14.5767 11.16V11.144C14.5767 9.976 13.7208 9.36 12.6088 9.36C12.0568 9.36 11.7288 9.536 11.4488 9.72C11.5288 8.984 11.8808 8.424 12.5767 8.424C12.9128 8.424 13.1448 8.504 13.4008 8.648C13.4888 8.696 13.6007 8.736 13.7048 8.736C14.0247 8.736 14.2888 8.488 14.2888 8.168C14.2888 7.92 14.1608 7.752 13.9688 7.64C13.6328 7.44 13.1768 7.304 12.6168 7.304C10.9447 7.304 10.1608 8.632 10.1608 10.36V10.376C10.1608 11.488 10.4167 12.088 10.8247 12.496C11.2168 12.888 11.7128 13.096 12.4408 13.096ZM12.3927 12.04C11.7847 12.04 11.4167 11.68 11.4167 11.208V11.192C11.4167 10.72 11.7688 10.384 12.3768 10.384C12.9848 10.384 13.3528 10.728 13.3528 11.2V11.216C13.3528 11.696 13.0008 12.04 12.3927 12.04ZM15.7056 11.088H18.0896C18.4016 11.088 18.6576 10.832 18.6576 10.52C18.6576 10.208 18.4016 9.952 18.0896 9.952H15.7056C15.3936 9.952 15.1376 10.208 15.1376 10.52C15.1376 10.832 15.3936 11.088 15.7056 11.088ZM21.1821 13.096C22.4301 13.096 23.1981 12.32 23.1981 11.264V11.248C23.1981 10.208 22.4541 9.808 21.6941 9.68L22.7901 8.632C23.0141 8.416 23.1581 8.248 23.1581 7.944C23.1581 7.608 22.8941 7.4 22.5341 7.4H19.8061C19.5181 7.4 19.2781 7.64 19.2781 7.928C19.2781 8.216 19.5181 8.456 19.8061 8.456H21.5261L20.4381 9.552C20.2461 9.744 20.1741 9.888 20.1741 10.056C20.1741 10.344 20.4141 10.584 20.7021 10.584H20.8941C21.5821 10.584 21.9901 10.84 21.9901 11.296V11.312C21.9901 11.728 21.6621 11.992 21.1981 11.992C20.7581 11.992 20.4221 11.848 20.1021 11.576C20.0061 11.496 19.8861 11.424 19.7101 11.424C19.3901 11.424 19.1181 11.696 19.1181 12.016C19.1181 12.192 19.2141 12.36 19.3261 12.456C19.7821 12.848 20.3821 13.096 21.1821 13.096ZM25.9428 13.08C27.1828 13.08 28.1028 12.472 28.1028 11.432V11.416C28.1028 10.752 27.7668 10.392 27.1988 10.096C27.6308 9.832 27.9108 9.472 27.9108 8.872V8.856C27.9108 7.992 27.1268 7.32 25.9428 7.32C24.7588 7.32 23.9748 8 23.9748 8.856V8.872C23.9748 9.472 24.2548 9.832 24.6868 10.096C24.0948 10.368 23.7828 10.768 23.7828 11.448V11.464C23.7828 12.44 24.7028 13.08 25.9428 13.08ZM25.9428 9.688C25.4548 9.688 25.1428 9.392 25.1428 9V8.984C25.1428 8.64 25.4388 8.336 25.9428 8.336C26.4468 8.336 26.7428 8.648 26.7428 8.992V9.008C26.7428 9.4 26.4308 9.688 25.9428 9.688ZM25.9428 12.064C25.3348 12.064 24.9748 11.752 24.9748 11.368V11.352C24.9748 10.92 25.3828 10.664 25.9428 10.664C26.5028 10.664 26.9108 10.92 26.9108 11.352V11.368C26.9108 11.76 26.5508 12.064 25.9428 12.064ZM30.1099 12.584C30.2219 12.896 30.4539 13.088 30.7499 13.088H30.8779C31.1739 13.088 31.3979 12.904 31.5099 12.584L32.6139 9.376L33.7179 12.584C33.8299 12.904 34.0539 13.088 34.3499 13.088H34.4779C34.7739 13.088 35.0059 12.896 35.1179 12.584L36.6859 8.184C36.7099 8.112 36.7339 8.016 36.7339 7.944C36.7339 7.608 36.4619 7.352 36.1259 7.352C35.8219 7.352 35.6139 7.552 35.5339 7.792L34.4219 11.224L33.3019 7.824C33.2059 7.528 32.9899 7.336 32.6779 7.336H32.5819C32.2699 7.336 32.0539 7.536 31.9579 7.824L30.8379 11.224L29.7259 7.792C29.6459 7.536 29.4139 7.352 29.1259 7.352C28.7819 7.352 28.4939 7.608 28.4939 7.952C28.4939 8.024 28.5179 8.112 28.5419 8.184L30.1099 12.584ZM40.1421 19.7574C40.9232 20.5384 40.9232 21.8047 40.1421 22.5858C39.3611 23.3668 38.0948 23.3668 37.3137 22.5858C36.5327 21.8047 36.5327 20.5384 37.3137 19.7574C38.0948 18.9763 39.3611 18.9763 40.1421 19.7574ZM41.5564 24C39.9943 25.5621 37.4616 25.5621 35.8995 24C34.3374 22.4379 34.3374 19.9052 35.8995 18.3431C37.4616 16.781 39.9943 16.781 41.5564 18.3431C43.1184 19.9052 43.1184 22.4379 41.5564 24ZM37.406 28.349C37.2008 28.076 36.8705 27.9265 36.5299 27.9527L33.6177 28.1767C33.1315 28.2141 32.6892 27.8953 32.5709 27.4222L31.5663 23.4039C31.4324 22.8681 30.8894 22.5424 30.3536 22.6763C29.8178 22.8103 29.4921 23.3532 29.626 23.889L31.0402 29.5459C31.1585 30.019 31.6008 30.3378 32.0871 30.3004L32.5563 30.2643C32.9777 30.2319 33.3739 30.4679 33.5462 30.8538C33.7184 31.2398 33.6294 31.6923 33.3238 31.9843C32.1754 33.0817 30.5793 34.1234 28.4477 34.685C28.1891 34.7531 27.914 34.7149 27.6839 34.5787C27.4537 34.4426 27.2876 34.22 27.2228 33.9605L26.263 30.1214C26.1291 29.5856 25.5861 29.2599 25.0503 29.3938L19.3935 30.8081C18.8577 30.942 18.5319 31.4849 18.6659 32.0207C18.7998 32.5565 19.3428 32.8823 19.8786 32.7483L23.5951 31.8192C23.8524 31.7549 24.1247 31.7954 24.3522 31.9318C24.5796 32.0683 24.7435 32.2895 24.8078 32.5468L25.7369 36.2634C25.8583 36.749 26.32 37.07 26.8175 37.0147C33.6643 36.254 36.7468 31.4239 37.5429 29.3009C37.6628 28.9811 37.6112 28.6221 37.406 28.349Z" fill="#333333"/>
</svg>
