<svg width="48" height="48" viewBox="0 0 48 48" fill="none" xmlns="http://www.w3.org/2000/svg">
<path fill-rule="evenodd" clip-rule="evenodd" d="M2 7C2 5.34315 3.34315 4 5 4H26H31C32.1072 4 33.0743 4.59982 33.5942 5.49224C35.9762 6.46847 38.2079 7.92367 40.1421 9.85786C47.9526 17.6683 47.9526 30.3316 40.1421 38.1421C32.3316 45.9526 19.6684 45.9526 11.8579 38.1421C5.87132 32.1556 4.47331 23.3181 7.66385 16H5C3.34315 16 2 14.6569 2 13V7ZM24.7806 16C25.678 17.6224 25.4535 19.8465 23.621 21.1399L22.6436 21.8298C21.2647 22.8031 22.0989 24.973 23.7746 24.772C25.522 24.5624 27.1676 25.6379 27.6769 27.3226L29.1905 32.3291C29.5921 32.162 29.9638 31.9745 30.3071 31.7729C29.7234 31.3702 29.2827 30.762 29.1 30.0309L27.6857 24.3741C27.2839 22.7667 28.2612 21.1379 29.8686 20.736C31.4759 20.3342 33.1048 21.3115 33.5066 22.9189L34.3063 26.1178L36.3765 25.9586C37.3982 25.88 38.3894 26.3284 39.005 27.1476C39.6205 27.9669 39.7754 29.0436 39.4156 30.0031C38.4445 32.5926 34.8577 38.1337 27.0384 39.0025C25.546 39.1683 24.1608 38.2052 23.7967 36.7484L23.11 34.002L20.3636 34.6886C18.7562 35.0905 17.1274 34.1132 16.7256 32.5058C16.3237 30.8984 17.301 29.2696 18.9084 28.8678L24.5653 27.4536C24.8745 27.3762 25.1846 27.35 25.4865 27.3694C25.1445 26.9329 24.5911 26.6884 24.0128 26.7577C20.2755 27.2061 18.415 22.3665 21.4902 20.1959L22.4677 19.506C24.0046 18.4211 23.2371 16.0027 21.3558 16.0027L9.86864 16.0028C6.53039 22.7345 7.66487 31.1207 13.2721 36.7279C20.3015 43.7574 31.6985 43.7574 38.7279 36.7279C45.7574 29.6985 45.7574 18.3015 38.7279 11.2721C37.3065 9.85062 35.7064 8.7166 34 7.87003V13C34 14.6569 32.6569 16 31 16H24.7806ZM31.0007 6C31.0005 6 31.0002 6 31 6L26.0029 6H25.9971H17.2697L5 6C4.44772 6 4 6.44772 4 7V13C4 13.5523 4.44772 14 5 14H31C31.5523 14 32 13.5523 32 13V7C32 6.44795 31.5527 6.00038 31.0007 6ZM7.91797 13.08C9.15797 13.08 10.078 12.472 10.078 11.432V11.416C10.078 10.752 9.74197 10.392 9.17397 10.096C9.60597 9.832 9.88597 9.472 9.88597 8.872V8.856C9.88597 7.992 9.10197 7.32 7.91797 7.32C6.73397 7.32 5.94997 8 5.94997 8.856V8.872C5.94997 9.472 6.22997 9.832 6.66197 10.096C6.06997 10.368 5.75797 10.768 5.75797 11.448V11.464C5.75797 12.44 6.67797 13.08 7.91797 13.08ZM7.91797 9.688C7.42997 9.688 7.11797 9.392 7.11797 9V8.984C7.11797 8.64 7.41397 8.336 7.91797 8.336C8.42197 8.336 8.71797 8.648 8.71797 8.992V9.008C8.71797 9.4 8.40597 9.688 7.91797 9.688ZM7.91797 12.064C7.30997 12.064 6.94997 11.752 6.94997 11.368V11.352C6.94997 10.92 7.35797 10.664 7.91797 10.664C8.47797 10.664 8.88597 10.92 8.88597 11.352V11.368C8.88597 11.76 8.52597 12.064 7.91797 12.064ZM11.117 11.088H13.501C13.813 11.088 14.069 10.832 14.069 10.52C14.069 10.208 13.813 9.952 13.501 9.952H11.117C10.805 9.952 10.549 10.208 10.549 10.52C10.549 10.832 10.805 11.088 11.117 11.088ZM15.3654 12.44C15.3654 12.776 15.6374 13.048 15.9734 13.048C16.3094 13.048 16.5814 12.776 16.5814 12.44V7.928C16.5814 7.592 16.3094 7.32 15.9734 7.32H15.9574C15.7894 7.32 15.6134 7.36 15.3814 7.424L14.5894 7.656C14.3414 7.728 14.1814 7.936 14.1814 8.184C14.1814 8.472 14.4294 8.712 14.7174 8.712C14.7814 8.712 14.8694 8.696 14.9334 8.68L15.3654 8.568V12.44ZM17.4204 12.416C17.4204 12.784 17.7004 13 18.0844 13H21.1244C21.4204 13 21.6604 12.768 21.6604 12.472C21.6604 12.176 21.4204 11.936 21.1244 11.936H19.1724L20.0844 11.232C21.0764 10.464 21.5564 10 21.5564 9.064V9.048C21.5564 8 20.7884 7.32 19.6284 7.32C18.7804 7.32 18.2524 7.624 17.8044 8.144C17.7164 8.248 17.6604 8.392 17.6604 8.528C17.6604 8.84 17.9084 9.088 18.2204 9.088C18.4124 9.088 18.5564 9 18.6364 8.912C18.9484 8.576 19.1964 8.424 19.5484 8.424C19.9884 8.424 20.3004 8.68 20.3004 9.152C20.3004 9.616 20.0284 9.928 19.3324 10.496L17.7404 11.8C17.5324 11.968 17.4204 12.176 17.4204 12.416ZM23.7088 12.584C23.8208 12.896 24.0528 13.088 24.3488 13.088H24.4768C24.7728 13.088 24.9968 12.904 25.1088 12.584L26.2128 9.376L27.3168 12.584C27.4288 12.904 27.6528 13.088 27.9488 13.088H28.0768C28.3728 13.088 28.6048 12.896 28.7168 12.584L30.2848 8.184C30.3088 8.112 30.3328 8.016 30.3328 7.944C30.3328 7.608 30.0608 7.352 29.7248 7.352C29.4208 7.352 29.2128 7.552 29.1328 7.792L28.0208 11.224L26.9008 7.824C26.8048 7.528 26.5888 7.336 26.2768 7.336H26.1808C25.8688 7.336 25.6528 7.536 25.5568 7.824L24.4368 11.224L23.3248 7.792C23.2448 7.536 23.0128 7.352 22.7248 7.352C22.3808 7.352 22.0928 7.608 22.0928 7.952C22.0928 8.024 22.1168 8.112 22.1408 8.184L23.7088 12.584ZM40.1421 19.7574C40.9232 20.5384 40.9232 21.8047 40.1421 22.5858C39.3611 23.3668 38.0948 23.3668 37.3137 22.5858C36.5327 21.8047 36.5327 20.5384 37.3137 19.7574C38.0948 18.9763 39.3611 18.9763 40.1421 19.7574ZM41.5564 24C39.9943 25.5621 37.4616 25.5621 35.8995 24C34.3374 22.4379 34.3374 19.9052 35.8995 18.3431C37.4616 16.781 39.9943 16.781 41.5564 18.3431C43.1184 19.9052 43.1184 22.4379 41.5564 24ZM37.406 28.349C37.2008 28.076 36.8705 27.9265 36.5299 27.9527L33.6177 28.1767C33.1315 28.2141 32.6892 27.8953 32.5709 27.4222L31.5663 23.4039C31.4324 22.8681 30.8894 22.5424 30.3536 22.6763C29.8178 22.8103 29.4921 23.3532 29.626 23.889L31.0402 29.5459C31.1585 30.019 31.6008 30.3378 32.0871 30.3004L32.5563 30.2643C32.9777 30.2319 33.3739 30.4679 33.5462 30.8538C33.7184 31.2398 33.6294 31.6923 33.3238 31.9843C32.1754 33.0817 30.5793 34.1234 28.4477 34.685C28.1891 34.7531 27.914 34.7149 27.6839 34.5787C27.4537 34.4426 27.2876 34.22 27.2228 33.9605L26.263 30.1214C26.1291 29.5856 25.5861 29.2599 25.0503 29.3938L19.3935 30.8081C18.8577 30.942 18.5319 31.4849 18.6659 32.0207C18.7998 32.5565 19.3428 32.8823 19.8786 32.7483L23.5951 31.8192C23.8524 31.7549 24.1247 31.7954 24.3522 31.9318C24.5796 32.0683 24.7435 32.2895 24.8078 32.5468L25.7369 36.2634C25.8583 36.749 26.32 37.07 26.8175 37.0147C33.6643 36.254 36.7468 31.4239 37.5429 29.3009C37.6628 28.9811 37.6112 28.6221 37.406 28.349Z" fill="#333333"/>
</svg>
