<svg width="48" height="48" viewBox="0 0 48 48" fill="none" xmlns="http://www.w3.org/2000/svg">
<path fill-rule="evenodd" clip-rule="evenodd" d="M15.3684 8H8V15.3684H15.3684V8ZM8 6H6V8V15.3684V17.3684H8H15.3684H17.3684V15.3684V8V6H15.3684H8ZM40 32.6316H32.6316V40H40V32.6316ZM32.6316 30.6316H30.6316V32.6316V40V42H32.6316H40H42V40V32.6316V30.6316H40H32.6316ZM30.3913 28.9771L27.2071 25.7929L25.7929 27.2071L28.9771 30.3913L30.3913 28.9771ZM21.6774 20.2632L25.6545 24.2403L24.2403 25.6545L20.2632 21.6774V25.8947H18.2632V19.2632V18.2632H19.2632H25.8947V20.2632H21.6774Z" fill="#333333"/>
</svg>
