<svg width="48" height="48" viewBox="0 0 48 48" fill="none" xmlns="http://www.w3.org/2000/svg">
<path fill-rule="evenodd" clip-rule="evenodd" d="M39 8H9C8.44771 8 8 8.44772 8 9V39C8 39.5523 8.44772 40 9 40H39C39.5523 40 40 39.5523 40 39V9C40 8.44771 39.5523 8 39 8ZM9 6C7.34315 6 6 7.34315 6 9V39C6 40.6569 7.34315 42 9 42H39C40.6569 42 42 40.6569 42 39V9C42 7.34315 40.6569 6 39 6H9Z" fill="#333333"/>
<path fill-rule="evenodd" clip-rule="evenodd" d="M34.7501 21.2979C34.7315 22.5601 34.715 23.6717 35.3494 24.9864C35.3494 24.9864 37.2248 26.6736 36.9775 28.0272C36.7302 29.3808 34.2881 29.7536 34.2881 29.7536C34.2881 37.0416 25.0141 33.9998 25.0141 33.9998V40.5H20.8923C20.4174 40.5376 19.8453 40.6797 19.2534 40.8267C17.7889 41.1905 16.2035 41.5843 15.6704 40.5V29.8604C13.0325 27.8888 11 25.2327 11 21.7898C11 18.9282 12.1942 16.1838 14.3199 14.1603C16.4456 12.1368 19.3287 11 22.3349 11C24.6305 10.9975 26.899 11.4729 28.9813 12.3929C30.6223 13.0507 32.059 14.0975 33.1546 15.4336C34.155 16.8372 34.7095 18.4855 34.7518 20.1812C34.7609 20.5708 34.7554 20.9405 34.7501 21.2979ZM26.4913 22.4691C26.3787 22.5951 26.32 22.6608 25.9665 22.6608C25.4083 22.6608 24.863 22.4969 24.402 22.1906C24.0782 22.5245 23.6814 22.783 23.2408 22.9471C22.8421 23.1384 22.6701 23.4186 22.4583 23.7637C22.4204 23.8255 22.3812 23.8894 22.3392 23.9551C22.0627 24.3884 21.9164 24.8884 21.9171 25.3985V28.2711H18.9444C18.8696 27.6557 18.729 27.0644 18.3885 26.5408C18.0479 26.0171 17.591 25.5744 17.0515 25.2452C16.5832 25.0494 16.1789 24.7326 15.8823 24.3292C15.5857 23.9258 15.4082 23.4512 15.3688 22.9567C14.8814 22.4546 14.6102 21.7898 14.6111 21.099C14.6074 20.5035 14.8083 19.9238 15.1819 19.452C15.1131 19.2186 15.08 18.9766 15.0835 18.7338C15.0825 18.1532 15.2733 17.5876 15.6276 17.1204L17.0515 16.1389C17.2699 15.6609 17.6259 15.2546 18.0764 14.9692C18.5268 14.6837 19.0526 14.5312 19.5902 14.5302C19.8122 14.5315 20.0334 14.5572 20.2495 14.6068C20.7068 14.1921 21.2942 13.9393 21.9171 13.8889L24.9424 14.0939C25.6101 14.2546 26.1938 14.6484 26.5825 15.2005H26.7793L28.5273 15.7958C29.0231 16.1824 29.3681 16.7225 29.505 17.3262C30.1049 17.5797 30.5971 18.0259 30.8993 18.5903C31.2014 19.1546 31.2953 19.8029 31.165 20.4265C31.0348 21.0501 30.6884 21.6113 30.1838 22.0161L28.3931 22.6503C27.8294 22.6566 27.277 22.4964 26.8089 22.1906C26.6397 22.303 26.5565 22.3962 26.4913 22.4691ZM31.2222 25.0834C31.2222 25.6817 30.7371 26.1668 30.1388 26.1668C29.5405 26.1668 29.0555 25.6817 29.0555 25.0834C29.0555 24.4851 29.5405 24.0001 30.1388 24.0001C30.7371 24.0001 31.2222 24.4851 31.2222 25.0834ZM18.9445 31.6812H21.8333V29.6812H18.9445V31.6812ZM21.8333 38.2869H18.9445V36.2869H21.8333V38.2869ZM18.9445 34.959H21.8333V32.959H18.9445V34.959Z" fill="#333333"/>
<path fill-rule="evenodd" clip-rule="evenodd" d="M33.7192 26.2101L33.5481 25.8556C33.4206 25.5913 33.313 25.3322 33.2222 25.0784C33.2222 25.0801 33.2222 25.0818 33.2222 25.0834C33.2222 26.7863 31.8417 28.1668 30.1388 28.1668C28.436 28.1668 27.0555 26.7863 27.0555 25.0834C27.0555 24.8796 27.0753 24.6803 27.113 24.4875C27.0939 24.4824 27.0748 24.4772 27.0557 24.4719C26.6156 24.6489 26.2008 24.6608 25.9665 24.6608C25.5257 24.6608 25.0886 24.6007 24.6676 24.4835C24.525 24.5636 24.3785 24.637 24.2286 24.7034C24.2095 24.7339 24.1893 24.7668 24.1628 24.8099C24.1615 24.812 24.1601 24.8143 24.1588 24.8165C24.1226 24.8754 24.0761 24.9512 24.0251 25.0311C23.9525 25.1449 23.9169 25.2711 23.9171 25.3958L23.9171 25.3985V30.2711H23.8333V31.5076L25.6334 32.0981L25.6352 32.0986L25.6362 32.099L25.6421 32.1008C25.6521 32.104 25.6703 32.1096 25.6961 32.1174C25.7477 32.133 25.8296 32.157 25.9372 32.1863C26.1533 32.245 26.469 32.3239 26.8497 32.3989C27.6283 32.5523 28.6003 32.6737 29.5215 32.6139C30.4645 32.5526 31.1335 32.3168 31.543 31.9684C31.8773 31.684 32.2881 31.1163 32.2881 29.7536V28.0357L33.9786 27.7777C33.9788 27.7776 33.9783 27.7777 33.9786 27.7777M34.0075 26.4695C34.0072 26.4692 34.0061 26.4681 34.0061 26.4682L33.7192 26.2101M25.0141 33.9998C25.0141 33.9998 25.8472 34.273 27.0141 34.4595C29.7403 34.8952 34.2881 34.8572 34.2881 29.7536C34.2881 29.7536 36.7302 29.3808 36.9775 28.0272C37.2248 26.6736 35.3494 24.9864 35.3494 24.9864C34.715 23.6717 34.7315 22.5601 34.7501 21.2979C34.7554 20.9405 34.7609 20.5708 34.7518 20.1812C34.7095 18.4855 34.155 16.8372 33.1546 15.4336C32.059 14.0975 30.6223 13.0507 28.9813 12.3929C26.899 11.4729 24.6305 10.9975 22.3349 11C19.3287 11 16.4456 12.1368 14.3199 14.1603C12.1942 16.1838 11 18.9282 11 21.7898C11 25.2327 13.0325 27.8888 15.6704 29.8604V40.5C16.2035 41.5843 17.7889 41.1905 19.2534 40.8267C19.8453 40.6797 20.4174 40.5376 20.8923 40.5H25.0141V33.9998ZM18.9445 34.959H21.8333V32.959H18.9445V34.959ZM18.9445 31.6812H21.8333V29.6812H18.9445V31.6812ZM18.8462 27.6812C18.7573 27.2791 18.6185 26.8945 18.3885 26.5408C18.0479 26.0171 17.591 25.5744 17.0515 25.2452C16.5832 25.0494 16.1789 24.7326 15.8823 24.3292C15.5857 23.9258 15.4082 23.4512 15.3688 22.9567C14.8814 22.4546 14.6102 21.7898 14.6111 21.099C14.6074 20.5035 14.8083 19.9238 15.1819 19.452C15.1131 19.2186 15.08 18.9766 15.0835 18.7338C15.0825 18.1532 15.2733 17.5876 15.6276 17.1204L17.0515 16.1389C17.2699 15.6609 17.6259 15.2546 18.0764 14.9692C18.5268 14.6837 19.0526 14.5312 19.5902 14.5302C19.8122 14.5315 20.0334 14.5572 20.2495 14.6068C20.7068 14.1921 21.2942 13.9393 21.9171 13.8889L24.9424 14.0939C25.6101 14.2546 26.1938 14.6484 26.5825 15.2005H26.7793L28.5273 15.7958C29.0231 16.1824 29.3681 16.7225 29.505 17.3262C30.1049 17.5797 30.5971 18.0259 30.8993 18.5903C31.2014 19.1546 31.2953 19.8029 31.165 20.4265C31.0364 21.0423 30.6971 21.5972 30.2028 22.0007C30.1965 22.0059 30.1901 22.011 30.1838 22.0161L28.3931 22.6503C28.3444 22.6508 28.2959 22.6501 28.2474 22.6482C27.7346 22.6279 27.2365 22.47 26.8089 22.1906C26.6397 22.303 26.5565 22.3962 26.4913 22.4691C26.3787 22.5951 26.32 22.6608 25.9665 22.6608C25.4083 22.6608 24.863 22.4969 24.402 22.1906C24.0782 22.5245 23.6814 22.783 23.2408 22.9471C22.8421 23.1384 22.6701 23.4186 22.4583 23.7637C22.4204 23.8255 22.3812 23.8894 22.3392 23.9551C22.0627 24.3884 21.9164 24.8884 21.9171 25.3985V28.2711H18.9444C18.9201 28.0714 18.8889 27.8743 18.8462 27.6812ZM30.4471 24.0446C30.8952 24.1774 31.2222 24.5922 31.2222 25.0834C31.2222 25.6817 30.7371 26.1668 30.1388 26.1668C29.5405 26.1668 29.0555 25.6817 29.0555 25.0834C29.0555 24.8557 29.1257 24.6444 29.2458 24.47C29.4411 24.1862 29.7682 24.0001 30.1388 24.0001C30.2459 24.0001 30.3494 24.0156 30.4471 24.0446ZM32.2073 22.7968C32.4155 22.532 32.5953 22.2458 32.7432 21.9428C32.7433 22.4625 32.7631 23.0239 32.8554 23.6237C32.6876 23.312 32.4676 23.0325 32.2073 22.7968ZM13.1927 23.3505C13.667 25.231 14.9905 26.8554 16.8678 28.2584L16.9297 28.3047C16.8723 27.953 16.7959 27.7604 16.7119 27.6312C16.5552 27.3903 16.3483 27.1789 16.1014 27.0115C15.378 26.674 14.7468 26.1611 14.271 25.5139C13.8957 25.0036 13.6283 24.4247 13.4841 23.8118C13.3779 23.6635 13.2806 23.5094 13.1927 23.3505ZM18.9445 36.2869H21.8333V38.2869H18.9445V36.2869Z" fill="#333333"/>
</svg>
