<svg width="48" height="48" viewBox="0 0 48 48" fill="none" xmlns="http://www.w3.org/2000/svg">
<path fill-rule="evenodd" clip-rule="evenodd" d="M35.2929 15.7072L34 14.4143L30.9142 17.5001L31.7071 18.293L32.4142 19.0001L33.7071 20.293L32.2929 21.7072L31 20.4143L25.1213 26.293C24.166 27.2483 22.7265 27.4246 21.5925 26.8219L19.5149 28.8995C19.6494 28.9649 19.7986 29.0001 19.9519 29.0001H29H30.2837H30.5858L33.2929 26.293L33.5858 26.0001H34H38C38.8885 26.0001 39.6868 26.3863 40.2361 27.0001H41C42.6569 27.0001 44 28.3432 44 30.0001V36.0001C44 37.6569 42.6569 39.0001 41 39.0001H39H34C32.5194 39.0001 31.2267 38.1957 30.5351 37.0001H16.2544C14.5588 37.0001 12.9209 36.3847 11.6449 35.2681L8.69718 32.6889L8.22701 33.1867L6.77299 31.8135L7.19094 31.3709L5.3415 29.7527L5 29.4538V29.0001V14.0001V11.1835L6.77611 13.3695L14.8302 23.2822L15.273 22.8135L16.727 24.1867L16.1024 24.848L18.1804 27.4055L20.1783 25.4077C19.5754 24.2737 19.7517 22.8342 20.7071 21.8788L26.5858 16.0001L25.2929 14.7072L26.7071 13.293L28 14.5859L28.7071 15.293L29.5 16.0859L32.5858 13.0001L31.2929 11.7072L32.7071 10.293L36.7071 14.293L35.2929 15.7072ZM16.7587 28.8273L14.7172 26.3147L10.0714 31.2338L12.9619 33.763C13.8733 34.5605 15.0433 35.0001 16.2544 35.0001H30H32C32 36.1046 32.8954 37.0001 34 37.0001H34.9996C34.3719 36.1644 34 35.1257 34 34.0001V32.0001H35.1707C35.0602 31.6873 35 31.3507 35 31.0001V30.0001H37V31.0001C37 31.5524 37.4477 32.0001 38 32.0001H39V29.0001C39 28.4478 38.5523 28.0001 38 28.0001H34.4142L31.7071 30.7072L31.4142 31.0001H31H30.2837H29H19.9519C19.263 31.0001 18.6021 30.7633 18.0744 30.34L16.4142 32.0002H13.5858L16.7587 28.8273ZM28 17.4143L29.5858 19.0001L27.5 21.0859L25.9142 19.5001L28 17.4143ZM13.445 24.749L8.56518 29.9158L7 28.5463V16.8167L13.445 24.749ZM42 36.0001C42 36.5524 41.5523 37.0001 41 37.0001H39C37.3431 37.0001 36 35.6569 36 34.0001V33.2362C36.5308 33.7112 37.2316 34.0001 38 34.0001H40H41V33.0001V29.0001C41.5523 29.0001 42 29.4478 42 30.0001V36.0001ZM24.5 20.9143L22.1213 23.293C21.7308 23.6835 21.7308 24.3167 22.1213 24.7072L22.2929 24.8788C22.6834 25.2693 23.3166 25.2693 23.7071 24.8788L26.0858 22.5001L24.5 20.9143Z" fill="#333333"/>
</svg>
