<svg width="48" height="48" viewBox="0 0 48 48" fill="none" xmlns="http://www.w3.org/2000/svg">
<path fill-rule="evenodd" clip-rule="evenodd" d="M24 4C24.3788 4 24.725 4.214 24.8944 4.55279L43.8944 42.5528C44.0494 42.8628 44.0329 43.2309 43.8507 43.5257C43.6684 43.8205 43.3466 44 43 44H5C4.65342 44 4.33156 43.8205 4.14935 43.5257C3.96714 43.2309 3.95058 42.8628 4.10557 42.5528L23.1056 4.55279C23.275 4.214 23.6212 4 24 4ZM6.61803 42H41.382L24 7.23607L6.61803 42Z" fill="#333333"/>
<path fill-rule="evenodd" clip-rule="evenodd" d="M24.4088 21.005C23.0772 20.9599 21.6841 21.2248 20.5255 21.8231C19.3607 22.4246 18.364 23.4059 18.0278 24.7998C17.8984 25.3367 18.2286 25.8769 18.7655 26.0064C19.3024 26.1359 19.8426 25.8056 19.9721 25.2687C20.1342 24.5964 20.6307 24.0197 21.4432 23.6001C22.253 23.182 23.2974 22.9685 24.3411 23.0038C25.3898 23.0393 26.3409 23.322 27 23.7889C27.2851 23.9909 27.5502 24.2476 27.7372 24.5903C27.9269 24.9378 28 25.3072 28 25.6775C28 26.2284 27.8486 26.6258 27.6299 26.9322C27.4028 27.2502 27.068 27.5178 26.6419 27.7373C25.7713 28.1859 24.6813 28.3522 23.9289 28.4058C23.4055 28.4431 23 28.8786 23 29.4033V31.0001C23 31.5524 23.4477 32.0001 24 32.0001C24.5309 32.0001 24.9659 31.5857 24.998 31.0633C25.0252 30.6215 25.3396 30.2501 25.7709 30.1504C26.3635 30.0134 26.9835 29.8112 27.558 29.5152C28.8391 28.8551 30 27.6588 30 25.6775C30 24.1185 29.2484 22.9308 28.1562 22.157L28.7343 21.341L28.1562 22.157C27.0972 21.4067 25.7362 21.0499 24.4088 21.005ZM19.6078 20.046C21.1154 19.2675 22.8571 18.9513 24.4765 19.0061C26.0822 19.0605 27.8533 19.4913 29.3123 20.525L28.7532 21.3143L29.3123 20.525C30.8656 21.6254 32 23.3905 32 25.6775C32 28.6291 30.1979 30.4049 28.474 31.2931C27.9341 31.5712 27.3808 31.7787 26.8515 31.9341C26.4588 33.1339 25.3308 34.0001 24 34.0001C22.3431 34.0001 21 32.6569 21 31.0001V29.4033C21 27.8292 22.2166 26.5228 23.7867 26.4109C24.4473 26.3638 25.2155 26.2224 25.7259 25.9594C25.8951 25.8723 25.9687 25.8054 25.9928 25.7804C25.9959 25.7635 26 25.7307 26 25.6775C26 25.5782 25.9828 25.5503 25.9817 25.5486L25.9817 25.5485C25.9787 25.543 25.9548 25.4995 25.8438 25.4209C25.5834 25.2364 25.0416 25.0287 24.2734 25.0027C23.5182 24.9771 22.8223 25.1389 22.3608 25.3772C22.1355 25.4936 22.0227 25.5951 21.9696 25.6558C21.9433 25.6859 21.9302 25.7076 21.924 25.7195C21.9179 25.7311 21.9165 25.737 21.9164 25.7375L21.9164 25.7375C21.528 27.3482 19.9074 28.3391 18.2967 27.9507C16.686 27.5623 15.6952 25.9417 16.0835 24.331C16.5935 22.2161 18.0899 20.8299 19.6078 20.046ZM24.0004 36.0001C23.4481 36.0001 23.0004 36.4478 23.0004 37.0001C23.0004 37.5524 23.4481 38.0001 24.0004 38.0001C24.5527 38.0001 25.0004 37.5524 25.0004 37.0001C25.0004 36.4478 24.5527 36.0001 24.0004 36.0001ZM21.0004 37.0001C21.0004 35.3432 22.3436 34.0001 24.0004 34.0001C25.6573 34.0001 27.0004 35.3432 27.0004 37.0001C27.0004 38.6569 25.6573 40.0001 24.0004 40.0001C22.3436 40.0001 21.0004 38.6569 21.0004 37.0001Z" fill="#333333"/>
</svg>
