<svg width="48" height="49" viewBox="0 0 48 49" fill="none" xmlns="http://www.w3.org/2000/svg">
<path fill-rule="evenodd" clip-rule="evenodd" d="M43.5024 18.6519H4.49756L4.49756 30.6519H43.5024L43.5024 18.6519ZM4.49756 16.6519C3.39299 16.6519 2.49756 17.5473 2.49756 18.6519V30.6519C2.49756 31.7564 3.39299 32.6519 4.49756 32.6519H43.5024C44.607 32.6519 45.5024 31.7564 45.5024 30.6519V18.6519C45.5024 17.5473 44.607 16.6519 43.5024 16.6519H4.49756Z" fill="#333333"/>
<path d="M40 22.6538C41.1046 22.6538 42 23.5492 42 24.6538C42 25.7584 41.1046 26.6538 40 26.6538C38.8954 26.6538 38 25.7584 38 24.6538C38 23.5492 38.8954 22.6538 40 22.6538Z" fill="#333333"/>
<path d="M36 23.7749C36.5523 23.7749 37 24.2226 37 24.7749C37 25.3272 36.5523 25.7749 36 25.7749C35.4477 25.7749 35 25.3272 35 24.7749C35 24.2226 35.4477 23.7749 36 23.7749Z" fill="#333333"/>
<path fill-rule="evenodd" clip-rule="evenodd" d="M29.5524 22.6538L10 22.6538C8.89543 22.6538 8 23.5492 8 24.6538C8 25.7584 8.89543 26.6538 10 26.6538L29.5524 26.6538C30.6569 26.6538 31.5524 25.7584 31.5524 24.6538C31.5524 23.5492 30.6569 22.6538 29.5524 22.6538ZM6 24.6538C6 26.8629 7.79086 28.6538 10 28.6538L29.5524 28.6538C31.7615 28.6538 33.5524 26.8629 33.5524 24.6538C33.5524 22.4447 31.7615 20.6538 29.5524 20.6538L10 20.6538C7.79086 20.6538 6 22.4447 6 24.6538Z" fill="#333333"/>
<path fill-rule="evenodd" clip-rule="evenodd" d="M20.8037 22.6538L20.8037 26.6538L18.8037 26.6538L18.8037 22.6538L20.8037 22.6538Z" fill="#333333"/>
<path d="M9.88694 15.4063C10.9509 15.4063 11.6539 15.0928 12.2524 14.5703C12.3854 14.4563 12.4994 14.2758 12.4994 14.0478C12.4994 13.6773 12.1859 13.3733 11.8154 13.3733C11.6444 13.3733 11.4924 13.4398 11.3784 13.5348C10.9604 13.8673 10.5519 14.0573 9.93444 14.0573C8.79444 14.0573 8.00594 13.1073 8.00594 11.9673V11.9483C8.00594 10.8083 8.81344 9.87732 9.93444 9.87732C10.4569 9.87732 10.8844 10.0483 11.2929 10.3523C11.3974 10.4188 11.5304 10.4948 11.7299 10.4948C12.1289 10.4948 12.4519 10.1813 12.4519 9.78232C12.4519 9.52582 12.3189 9.31682 12.1669 9.20282C11.6159 8.79432 10.9414 8.52832 9.94394 8.52832C7.90144 8.52832 6.47644 10.0768 6.47644 11.9673V11.9863C6.47644 13.8958 7.92994 15.4063 9.88694 15.4063Z" fill="#333333"/>
<path d="M27.337 14.6151C27.337 15.0236 27.66 15.3466 28.0685 15.3466C28.477 15.3466 28.8 15.0236 28.8 14.6151V13.2946H29.9115C31.403 13.2946 32.6 12.4966 32.6 10.9576V10.9386C32.6 9.58009 31.6405 8.63959 30.054 8.63959H28.0685C27.66 8.63959 27.337 8.96259 27.337 9.37109V14.6151ZM28.8 11.9931V9.96009H29.9305C30.662 9.96009 31.118 10.3116 31.118 10.9671V10.9861C31.118 11.5561 30.6905 11.9931 29.959 11.9931H28.8Z" fill="#333333"/>
<path d="M33.6319 14.6246C33.6319 15.0236 33.9549 15.3466 34.3539 15.3466C34.7529 15.3466 35.0759 15.0236 35.0759 14.6246V11.4326H35.6839C36.0164 11.4326 36.2824 11.1761 36.2824 10.8436C36.2824 10.5111 36.0164 10.2546 35.6839 10.2546H35.0569V10.0551C35.0569 9.67509 35.2469 9.50409 35.5794 9.50409H35.7029C36.0259 9.50409 36.2919 9.22859 36.2919 8.90559C36.2919 8.58259 36.0449 8.36409 35.7979 8.32609C35.6364 8.29759 35.4369 8.28809 35.2089 8.28809C34.6959 8.28809 34.3064 8.42109 34.0404 8.68709C33.7744 8.95309 33.6319 9.36159 33.6319 9.92209V10.2451H33.5749C33.2424 10.2451 32.9764 10.5111 32.9764 10.8436C32.9764 11.1761 33.2424 11.4326 33.5749 11.4326H33.6319V14.6246Z" fill="#333333"/>
<path d="M14.387 39.9316C14.387 40.3401 14.71 40.6631 15.1185 40.6631C15.527 40.6631 15.85 40.3401 15.85 39.9316V38.6111H16.9615C18.453 38.6111 19.65 37.8131 19.65 36.2741V36.2551C19.65 34.8966 18.6905 33.9561 17.104 33.9561H15.1185C14.71 33.9561 14.387 34.2791 14.387 34.6876V39.9316ZM15.85 37.3096V35.2766H16.9805C17.712 35.2766 18.168 35.6281 18.168 36.2836V36.3026C18.168 36.8726 17.7405 37.3096 17.009 37.3096H15.85Z" fill="#333333"/>
<path d="M23.3904 40.0836L24.9484 36.4831C24.9769 36.4166 25.0244 36.2646 25.0244 36.1411C25.0244 35.7516 24.7109 35.4571 24.3309 35.4571C23.9509 35.4571 23.7514 35.7041 23.6564 35.9511L22.5449 38.9246L21.4524 35.9701C21.3479 35.6756 21.1389 35.4571 20.7494 35.4571C20.3599 35.4571 20.0464 35.7896 20.0464 36.1316C20.0464 36.2646 20.0844 36.3881 20.1224 36.4831L21.6804 40.0836C21.8419 40.4636 22.1079 40.7106 22.4974 40.7106H22.5734C22.9629 40.7106 23.2289 40.4541 23.3904 40.0836Z" fill="#333333"/>
</svg>
