<svg width="48" height="48" viewBox="0 0 48 48" fill="none" xmlns="http://www.w3.org/2000/svg">
<path fill-rule="evenodd" clip-rule="evenodd" d="M21 8C21.5523 8 22 8.44772 22 9V23H24V12C24 11.4477 24.4477 11 25 11C25.5523 11 26 11.4477 26 12V26.7127C26 28.589 28.351 29.4325 29.5439 27.9841L33.1878 23.5593C33.6615 22.984 34.528 22.9422 35.055 23.4692C35.4617 23.8759 35.5421 24.5062 35.2504 25.002L29.0897 35.4752C27.4406 38.2787 24.431 40 21.1785 40C16.1093 40 12 35.8907 12 30.8215V17C12 16.4477 12.4477 16 13 16C13.5523 16 14 16.4477 14 17V25H16V12C16 11.4477 16.4477 11 17 11C17.5523 11 18 11.4477 18 12V23H20V9C20 8.44772 20.4477 8 21 8ZM18 9.17071V9C18 7.34315 19.3431 6 21 6C22.6569 6 24 7.34315 24 9V9.17071C24.3128 9.06015 24.6494 9 25 9C26.6568 9 28 10.3431 28 12V26.7127L31.6439 22.2879C32.8683 20.8012 35.1073 20.6931 36.4692 22.055C37.5203 23.1061 37.728 24.7348 36.9743 26.016L30.8136 36.4892C28.8051 39.9036 25.1397 42 21.1785 42C15.0048 42 10 36.9952 10 30.8215V17C10 15.3431 11.3431 14 13 14C13.3506 14 13.6872 14.0602 14 14.1707V12C14 10.3431 15.3431 9 17 9C17.3506 9 17.6872 9.06015 18 9.17071Z" fill="#333333"/>
</svg>
