<svg width="48" height="48" viewBox="0 0 48 48" fill="none" xmlns="http://www.w3.org/2000/svg">
<path fill-rule="evenodd" clip-rule="evenodd" d="M39 8.00007L9 8.00007C8.44771 8.00007 8 8.44779 8 9.00007L8 39.0001C8 39.5524 8.44772 40.0001 9 40.0001L39 40.0001C39.5523 40.0001 40 39.5524 40 39.0001L40 9.00007C40 8.44779 39.5523 8.00007 39 8.00007ZM9 6.00007C7.34315 6.00007 6 7.34322 6 9.00007L6 39.0001C6 40.6569 7.34315 42.0001 9 42.0001L39 42.0001C40.6569 42.0001 42 40.6569 42 39.0001L42 9.00007C42 7.34322 40.6569 6.00007 39 6.00007L9 6.00007Z" fill="#333333"/>
<path d="M17.7057 14.2403C21.8292 14.237 21.4588 19.8448 21.4607 22.0878C21.463 24.9506 22.1755 30.7274 19.9702 32.9303C17.7229 35.1752 13.2256 36.3004 10.9749 34.433C8.72425 32.5657 12.4578 14.2446 17.7057 14.2403Z" fill="#333333"/>
<path d="M30.2364 14.2315C26.1129 14.2349 26.4924 19.8421 26.4943 22.0851C26.4966 24.9479 25.7936 30.7258 28.0025 32.9251C30.2535 35.1663 34.7526 36.2841 37.0002 34.4131C39.2478 32.5421 35.4843 14.2272 30.2364 14.2315Z" fill="#333333"/>
<path fill-rule="evenodd" clip-rule="evenodd" d="M22.9677 6.0005C22.9677 6.0005 22.9677 6.00037 23.9677 6.00001C24.9677 5.99965 24.9677 5.99978 24.9677 5.99978L24.9711 11.9341C24.9729 15.0381 24.975 18.4153 24.976 19.509C24.9773 20.9114 24.4047 21.796 23.6857 22.2861C23.353 22.5128 23.0249 22.6306 22.7817 22.6926C22.6588 22.7239 22.5531 22.7421 22.4729 22.7528C22.4326 22.7582 22.3982 22.7617 22.3707 22.764C22.357 22.7652 22.3449 22.7661 22.3346 22.7667L22.3205 22.7675L22.3145 22.7678L22.3104 22.768C22.3104 22.768 22.3091 22.768 22.2672 21.7689C22.2254 20.7698 22.2241 20.7698 22.2241 20.7698L22.2229 20.7699L22.2206 20.77L22.2165 20.7702L22.2097 20.7706L22.2022 20.7711C22.2022 20.7711 22.2038 20.7709 22.2086 20.7703C22.2219 20.7685 22.2499 20.7641 22.2873 20.7546C22.3649 20.7348 22.4643 20.698 22.5591 20.6334C22.6949 20.5408 22.9767 20.2959 22.976 19.5105C22.975 18.4163 22.9729 15.0387 22.9711 11.9348L22.9677 6.0005Z" fill="#333333"/>
<path fill-rule="evenodd" clip-rule="evenodd" d="M25.0147 6.0005C25.0147 6.0005 25.0147 6.00037 24.0147 6.00001C23.0147 5.99965 23.0147 5.99978 23.0147 5.99978L23.0113 11.9341C23.0094 15.0381 23.0074 18.4153 23.0063 19.509C23.0051 20.9114 23.5776 21.796 24.2967 22.2861C24.6293 22.5128 24.9575 22.6306 25.2006 22.6926C25.3235 22.7239 25.4292 22.7421 25.5095 22.7528C25.5498 22.7582 25.5842 22.7617 25.6116 22.764C25.6254 22.7652 25.6375 22.7661 25.6478 22.7667L25.6619 22.7675L25.6679 22.7678L25.6719 22.768C25.6719 22.768 25.6732 22.768 25.7151 21.7689C25.757 20.7698 25.7582 20.7698 25.7582 20.7698L25.7594 20.7699L25.7617 20.77L25.7659 20.7702L25.7726 20.7706L25.7802 20.7711C25.7802 20.7711 25.7785 20.7709 25.7737 20.7703C25.7604 20.7685 25.7325 20.7641 25.695 20.7546C25.6175 20.7348 25.5181 20.698 25.4233 20.6334C25.2874 20.5408 25.0056 20.2959 25.0063 19.5105C25.0074 18.4163 25.0094 15.0387 25.0113 11.9348L25.0147 6.0005Z" fill="#333333"/>
</svg>
