<svg width="48" height="48" viewBox="0 0 48 48" fill="none" xmlns="http://www.w3.org/2000/svg">
<path fill-rule="evenodd" clip-rule="evenodd" d="M29.5913 4.67461C28.7899 4.21665 27.8913 4 26.9237 4H21.6761C19.8516 4 18.0072 4.84975 16.8974 6.38697C16.8603 6.43373 16.8241 6.4809 16.7886 6.52845L14.4522 9.55709L13.6409 10.639C13.6404 10.6397 13.6399 10.6403 13.6394 10.641C11.1085 13.9837 11.109 18.6379 13.6409 21.98L13.6468 21.9878L18.7192 28.4189L23.4239 34.3903L31.2676 44.3909L38.832 38.6603L29.789 27.0891L24.997 21.0313L18.481 12.6149L18.476 12.6086C17.9075 11.898 17.6094 10.9479 17.6094 10.0667C17.6094 9.25167 17.8657 8.43472 18.3831 7.73584L18.4982 7.5867L18.5089 7.57171C19.2103 6.58966 20.4332 6 21.6761 6H26.9237C27.5847 6 28.1338 6.14525 28.599 6.4111C29.181 6.74365 29.6704 7.1096 30.0005 7.57171L31.6279 6.40924C31.0532 5.60468 30.276 5.06587 29.5913 4.67461ZM15.7169 11.2043C15.8931 12.14 16.2872 13.0717 16.909 13.8515L23.4251 22.2681L28.2168 28.3253L28.2204 28.3299L36.0059 38.2921L31.6275 41.6091L24.9963 33.1543L20.2902 27.1811L15.2294 20.7648C13.2437 18.1367 13.2457 14.4728 15.2351 11.8467L15.238 11.8429L15.7169 11.2043Z" fill="#333333"/>
<path fill-rule="evenodd" clip-rule="evenodd" d="M12.413 38.2918L20.2022 28.3249L18.6264 27.0934L9.58697 38.6599L17.1514 44.3906L24.9964 34.3882L23.4227 33.1539L16.7914 41.6087L12.413 38.2918Z" fill="#333333"/>
<path fill-rule="evenodd" clip-rule="evenodd" d="M31.6269 6.4332C31.5871 6.37991 31.5464 6.32715 31.5046 6.27495L29.932 7.51045L30.032 7.64017C31.0975 9.0794 31.0678 11.1117 29.9429 12.5178L29.9379 12.524L23.4187 20.9446L25.0002 22.169L31.5098 13.7607C32.1353 12.9766 32.535 12.0671 32.7089 11.1228L33.1838 11.7559C35.1741 14.3831 35.1752 18.049 33.1869 20.6774L28.2141 27.0968L29.7952 28.3216L34.778 21.8893C37.31 18.5471 37.3104 13.8928 34.7795 10.5502L33.9585 9.45545L31.6269 6.4332Z" fill="#333333"/>
<path fill-rule="evenodd" clip-rule="evenodd" d="M21.5857 13.5093C20.5463 13.5093 19.5467 13.8816 18.8547 14.5736L17.4405 13.1594C18.558 12.0418 20.0918 11.5093 21.5857 11.5093H26.8333C28.3713 11.5093 29.8709 12.1607 30.9404 13.1232L29.6024 14.6098C28.8624 13.9438 27.8286 13.5093 26.8333 13.5093H21.5857Z" fill="#333333"/>
</svg>
