<svg width="48" height="48" viewBox="0 0 48 48" fill="none" xmlns="http://www.w3.org/2000/svg">
<mask id="path-1-inside-1" fill="white">
<path d="M23 12L5 12L5 14L23 14V12Z"/>
<path fill-rule="evenodd" clip-rule="evenodd" d="M23 16H6V37H5C4.44772 37 4 37.4477 4 38C4 38.5523 4.44772 39 5 39H43C43.5523 39 44 38.5523 44 38C44 37.4477 43.5523 37 43 37H42V16H39V18H40V37H37V25H29V37H8V18H23V16ZM35 37H31V27H35V37Z"/>
<path d="M39 14V12L43 12V14L39 14Z"/>
<path fill-rule="evenodd" clip-rule="evenodd" d="M11 32V25H26V32L27 32V34L10 34V32H11ZM13 27H24V32H13V27Z"/>
<path d="M35 10H27C25.8954 10 25 10.8954 25 12V20C25 21.1046 25.8954 22 27 22H35C36.1046 22 37 21.1046 37 20V12C37 10.8954 36.1046 10 35 10Z"/>
</mask>
<path d="M32 14V13H30V14H32ZM29 15H28V17H29V15ZM6 13V18H8V13H6ZM40 13V18H42V13H40ZM30 14V18H32V14H30ZM29 17L33 17V15L29 15V17ZM23 12H25V10L23 10V12ZM5 12L5 10L3 10L3 12L5 12ZM5 14L3 14L3 16H5L5 14ZM23 14V16H25V14H23ZM23 16H25V14H23V16ZM6 16V14H4V16H6ZM6 37V39H8V37H6ZM42 37H40V39H42V37ZM42 16H44V14H42V16ZM39 16V14H37V16H39ZM39 18H37V20H39V18ZM40 18H42V16H40V18ZM40 37V39H42V37H40ZM37 37H35V39H37V37ZM37 25H39V23H37V25ZM29 25V23H27V25H29ZM29 37V39H31V37H29ZM8 37H6V39H8V37ZM8 18V16H6V18H8ZM23 18V20H25V18H23ZM39 12V10L37 10V12H39ZM39 14H37V16H39V14ZM43 12H45V10L43 10V12ZM43 14V16L45 16V14H43ZM31 37H29V39H31V37ZM35 37V39H37V37H35ZM31 27V25H29V27H31ZM35 27H37V25H35V27ZM24 27H26V25H24V27ZM13 27V25H11V27H13ZM24 32V34H26V32H24ZM13 32H11V34H13V32ZM11 32V34H13V32H11ZM11 25V23H9V25H11ZM26 25H28V23H26V25ZM26 32H24V34L26 34L26 32ZM27 32H29V30L27 30L27 32ZM27 34V36H29V34H27ZM10 34H8V36H10V34ZM10 32V30H8V32H10ZM23 10L5 10L5 14L23 14V10ZM3 12L3 14L7 14V12L3 12ZM5 16L23 16V12L5 12L5 16ZM25 14V12H21V14H25ZM5 39H6V35H5V39ZM6 38C6 38.5523 5.55229 39 5 39V35C3.34315 35 2 36.3431 2 38H6ZM5 37C5.55229 37 6 37.4477 6 38H2C2 39.6569 3.34315 41 5 41V37ZM42 38C42 37.4477 42.4477 37 43 37V41C44.6569 41 46 39.6569 46 38H42ZM43 39C42.4477 39 42 38.5523 42 38H46C46 36.3431 44.6569 35 43 35V39ZM42 39H43V35H42V39ZM37 16V18H41V16H37ZM39 20H40V16H39V20ZM38 18V37H42V18H38ZM40 35H37V39H40V35ZM29 35H8V39H29V35ZM10 37V18H6V37H10ZM8 20H23V16H8V20ZM25 18V16H21V18H25ZM37 12V14H41V12H37ZM43 10L39 10V14L43 14V10ZM45 14V12H41V14H45ZM39 16L43 16V12L39 12V16ZM31 39H35V35H31V39ZM29 27V37H33V27H29ZM35 25H31V29H35V25ZM37 37V27H33V37H37ZM24 25H13V29H24V25ZM26 32V27H22V32H26ZM13 34H24V30H13V34ZM11 27V32H15V27H11ZM27 30L26 30L26 34L27 34L27 30ZM29 34V32H25V34H29ZM8 32V34H12V32H8ZM11 30H10V34H11V30ZM27 12H35V8H27V12ZM35 12V20H39V12H35ZM35 20H27V24H35V20ZM27 20V12H23V20H27ZM27 20H23C23 22.2091 24.7909 24 27 24V20ZM35 20V24C37.2091 24 39 22.2091 39 20H35ZM35 12H39C39 9.79086 37.2091 8 35 8V12ZM27 8C24.7909 8 23 9.79086 23 12H27V12V8ZM6 18H23V14H6V18ZM8 37V16H4V37H8ZM43 37H5V41H43V37ZM40 16V37H44V16H40ZM39 18H42V14H39V18ZM39 37V25H35V37H39ZM37 23H29V27H37V23ZM27 25V37H31V25H27ZM9 25V32H13V25H9ZM26 23H11V27H26V23ZM28 32V25H24V32H28ZM10 36L27 36V32L10 32V36Z" fill="#333333" mask="url(#path-1-inside-1)"/>
</svg>
