<svg width="48" height="48" viewBox="0 0 48 48" fill="none" xmlns="http://www.w3.org/2000/svg">
<path fill-rule="evenodd" clip-rule="evenodd" d="M32 17V11H34V17H32Z" fill="#333333"/>
<path fill-rule="evenodd" clip-rule="evenodd" d="M30 13L36 13L36 15L30 15L30 13Z" fill="#333333"/>
<path fill-rule="evenodd" clip-rule="evenodd" d="M37 13V10H29V13V15V16V18H37V16V15V13ZM5 13L27 13V10V8H29H37H39V10V13L43 13V15L39 15V16H40H42V18V37H44V39H42H40H37H35H31H29H8H6H4V37H6V18V16H8H27V15L5 15L5 13ZM27 20V18L8 18V37H29V25V23H31H35H37V25V37H40V18L39 18V20H37H29H27ZM24 25H13V31H24V25ZM11 25V31H10V33H11H13H24H26L27 33V31L26 31V25V23H24H13H11V25ZM31 37H35V25H31V37Z" fill="#333333"/>
<path fill-rule="evenodd" clip-rule="evenodd" d="M6 18V13H8V18H6Z" fill="#333333"/>
<path fill-rule="evenodd" clip-rule="evenodd" d="M40 18V13H42V18H40Z" fill="#333333"/>
</svg>
