<svg width="48" height="48" viewBox="0 0 48 48" fill="none" xmlns="http://www.w3.org/2000/svg">
<path fill-rule="evenodd" clip-rule="evenodd" d="M7.99971 25.6007V42.0481H40V25.5392C39.4377 26.0354 38.757 26.4047 38 26.5961V40.0481H9.99971V26.6307C9.24475 26.4473 8.5643 26.0874 7.99971 25.6007Z" fill="#333333"/>
<path fill-rule="evenodd" clip-rule="evenodd" d="M40 25.5392C39.4377 26.0354 38.757 26.4047 38 26.5961V40.0481H9.99971V26.6307C9.24475 26.4473 8.5643 26.0874 7.99971 25.6007V42.0481H40V25.5392Z" fill="#333333"/>
<path fill-rule="evenodd" clip-rule="evenodd" d="M17.5468 15.0479H8.61179C7.90599 15.0479 7.29364 15.5351 7.13512 16.2229L6.02382 21.0448C5.31595 24.1162 7.64882 27.0479 10.8007 27.0479C12.5349 27.0479 14.0587 26.1474 14.9302 24.7885C15.937 26.1586 17.5598 27.0479 19.3904 27.0479C21.3144 27.0479 23.0089 26.0656 23.9998 24.5752C24.9908 26.0656 26.6853 27.0479 28.6092 27.0479C30.4398 27.0479 32.0627 26.1586 33.0695 24.7885C33.9409 26.1474 35.4648 27.0479 37.1989 27.0479C40.3508 27.0479 42.6837 24.1162 41.9758 21.0448L40.8645 16.2229C40.706 15.5351 40.0937 15.0479 39.3879 15.0479H30.4531V16.0479C30.4531 16.3932 30.4094 16.7282 30.3271 17.0479H32.1405V21.5166C32.1405 23.4668 30.5595 25.0479 28.6092 25.0479C26.659 25.0479 25.0779 23.4668 25.0779 21.5166V20.0479H22.9217V21.5166C22.9217 23.4668 21.3407 25.0479 19.3904 25.0479C17.4401 25.0479 15.8591 23.4668 15.8591 21.5166V17.0479H17.6728C17.5905 16.7282 17.5468 16.3932 17.5468 16.0479V15.0479ZM8.99743 17.0479L7.97273 21.4939C7.55366 23.3123 8.93476 25.0479 10.8007 25.0479C12.4036 25.0479 13.7029 23.7485 13.7029 22.1457V17.0479H8.99743ZM39.0022 17.0479H34.2968V22.1457C34.2968 23.7485 35.5961 25.0479 37.1989 25.0479C39.0649 25.0479 40.446 23.3123 40.0269 21.4939L39.0022 17.0479Z" fill="#333333"/>
<path fill-rule="evenodd" clip-rule="evenodd" d="M26.9999 8.04785H20.9999C19.8954 8.04785 18.9999 8.94328 18.9999 10.0479V16.0479C18.9999 17.1524 19.8954 18.0479 20.9999 18.0479H26.9999C28.1045 18.0479 28.9999 17.1524 28.9999 16.0479V10.0479C28.9999 8.94328 28.1045 8.04785 26.9999 8.04785ZM20.9999 6.04785C18.7908 6.04785 16.9999 7.83871 16.9999 10.0479V16.0479C16.9999 18.257 18.7908 20.0479 20.9999 20.0479H26.9999C29.2091 20.0479 30.9999 18.257 30.9999 16.0479V10.0479C30.9999 7.83871 29.2091 6.04785 26.9999 6.04785H20.9999Z" fill="#333333"/>
<path fill-rule="evenodd" clip-rule="evenodd" d="M16.9999 10.0479C16.9999 7.83871 18.7908 6.04785 20.9999 6.04785H26.9999C29.2091 6.04785 30.9999 7.83871 30.9999 10.0479V16.0479C30.9999 18.257 29.2091 20.0479 26.9999 20.0479H20.9999C18.7908 20.0479 16.9999 18.257 16.9999 16.0479V10.0479ZM20.9999 8.04785C19.8954 8.04785 18.9999 8.94328 18.9999 10.0479V16.0479C18.9999 17.1524 19.8954 18.0479 20.9999 18.0479H26.9999C28.1045 18.0479 28.9999 17.1524 28.9999 16.0479V10.0479C28.9999 8.94328 28.1045 8.04785 26.9999 8.04785H20.9999Z" fill="#333333"/>
<path fill-rule="evenodd" clip-rule="evenodd" d="M24 8.54785C24.5523 8.54785 25 8.99557 25 9.54785V12.0479H27.5C28.0523 12.0479 28.5 12.4956 28.5 13.0479C28.5 13.6001 28.0523 14.0479 27.5 14.0479H25V16.5479C25 17.1001 24.5523 17.5479 24 17.5479C23.4477 17.5479 23 17.1001 23 16.5479V14.0479H20.5C19.9477 14.0479 19.5 13.6001 19.5 13.0479C19.5 12.4956 19.9477 12.0479 20.5 12.0479H23V9.54785C23 8.99557 23.4477 8.54785 24 8.54785Z" fill="#333333"/>
<path fill-rule="evenodd" clip-rule="evenodd" d="M19.9999 31H14.9999V40H19.9999V31ZM12.9999 29V42H21.9999V29H12.9999Z" fill="#333333"/>
<path fill-rule="evenodd" clip-rule="evenodd" d="M34.9999 31H26.9999V35H34.9999V31ZM24.9999 29V37H36.9999V29H24.9999Z" fill="#333333"/>
</svg>
