<svg width="48" height="48" viewBox="0 0 48 48" fill="none" xmlns="http://www.w3.org/2000/svg">
<path fill-rule="evenodd" clip-rule="evenodd" d="M13.9275 9.04805C13.2238 9.69614 12.6598 10.4858 12.3682 10.9961L10.6317 10.0039C11.0068 9.3475 11.6928 8.38719 12.5725 7.57695C13.4297 6.78748 14.6239 6 16 6H33V8H16C15.376 8 14.6536 8.37919 13.9275 9.04805Z" fill="#333333"/>
<path fill-rule="evenodd" clip-rule="evenodd" d="M23 16V7.5H25V16H23Z" fill="#333333"/>
<path fill-rule="evenodd" clip-rule="evenodd" d="M10 24C10 20.6863 12.6863 18 16 18H32C35.3137 18 38 20.6863 38 24V41C38 42.6569 36.6569 44 35 44H13C11.3431 44 10 42.6569 10 41V24ZM16 20C13.7909 20 12 21.7909 12 24V41C12 41.5523 12.4477 42 13 42H35C35.5523 42 36 41.5523 36 41V24C36 21.7909 34.2091 20 32 20H16Z" fill="#333333"/>
<path fill-rule="evenodd" clip-rule="evenodd" d="M18 30L30 30V32L18 32V30Z" fill="#333333"/>
<path fill-rule="evenodd" clip-rule="evenodd" d="M23 37L23 25L25 25L25 37L23 37Z" fill="#333333"/>
<path fill-rule="evenodd" clip-rule="evenodd" d="M17 16C17 14.8954 17.8954 14 19 14H29C30.1046 14 31 14.8954 31 16V20H17V16ZM29 16H19V18H29V16Z" fill="#333333"/>
</svg>
