<svg width="48" height="48" viewBox="0 0 48 48" fill="none" xmlns="http://www.w3.org/2000/svg">
<path fill-rule="evenodd" clip-rule="evenodd" d="M31 21H17C15.8954 21 15 21.8954 15 23V40C15 41.1046 15.8954 42 17 42H31C32.1046 42 33 41.1046 33 40V23C33 21.8954 32.1046 21 31 21ZM17 19C14.7909 19 13 20.7909 13 23V40C13 42.2091 14.7909 44 17 44H31C33.2091 44 35 42.2091 35 40V23C35 20.7909 33.2091 19 31 19H17Z" fill="#333333"/>
<path fill-rule="evenodd" clip-rule="evenodd" d="M21 22H18C16.8954 22 16 22.8954 16 24V35V37H18L21 37V35H18V24H21V22ZM27 24H30V35H27V37L30 37H32V35V24C32 22.8954 31.1046 22 30 22H27V24Z" fill="#333333"/>
<path fill-rule="evenodd" clip-rule="evenodd" d="M24 33C25.6569 33 27 31.6569 27 30C27 28.3431 25.6569 27 24 27C22.3431 27 21 28.3431 21 30C21 31.6569 22.3431 33 24 33ZM24 35C26.7614 35 29 32.7614 29 30C29 27.2386 26.7614 25 24 25C21.2386 25 19 27.2386 19 30C19 32.7614 21.2386 35 24 35Z" fill="#333333"/>
<path fill-rule="evenodd" clip-rule="evenodd" d="M23 26V21H25V26H23Z" fill="#333333"/>
<path fill-rule="evenodd" clip-rule="evenodd" d="M23 37V34H25V37H23Z" fill="#333333"/>
<path d="M22 20H26V22C26 22.5523 25.5523 23 25 23H23C22.4477 23 22 22.5523 22 22V20Z" fill="#333333"/>
<path fill-rule="evenodd" clip-rule="evenodd" d="M23 6L25 4V11H23V6ZM23 19H19V17H21V12C21 11.4477 21.4477 11 22 11H23V19ZM25 19H29V17H27V12C27 11.4477 26.5523 11 26 11H25V19Z" fill="#333333"/>
</svg>
