<svg width="48" height="48" viewBox="0 0 48 48" fill="none" xmlns="http://www.w3.org/2000/svg">
<path d="M41.8515 10.2607C41.8381 9.72449 41.4547 9.26923 40.9286 9.16469L35.1791 8.02221C34.5578 7.89876 33.9541 8.30232 33.8307 8.92357C33.7072 9.54483 34.1108 10.1485 34.732 10.272L38.327 10.9863L35.0858 13.706C34.8534 13.4665 34.6087 13.2376 34.3522 13.0203C32.5411 11.4853 30.2561 10.6217 27.8825 10.5748C25.5089 10.5279 23.1916 11.3007 21.3213 12.763C19.4509 14.2252 18.1418 16.2875 17.6146 18.6024C17.0873 20.9172 17.3742 23.343 18.4268 25.471C18.7076 26.0387 19.3955 26.2713 19.9633 25.9905C20.531 25.7097 20.7636 25.0218 20.4828 24.454C19.6641 22.7989 19.441 20.9122 19.8511 19.1118C20.2611 17.3113 21.2793 15.7073 22.734 14.57C24.1887 13.4327 25.991 12.8316 27.8372 12.8681C29.6834 12.9045 31.4605 13.5763 32.8692 14.7701C34.2779 15.964 35.232 17.607 35.5706 19.4222C35.9093 21.2374 35.6119 23.1138 34.7285 24.7353C33.8451 26.3568 32.4298 27.6243 30.721 28.324C29.0122 29.0238 27.1144 29.113 25.3474 28.5768C24.7413 28.3929 24.1009 28.7351 23.9169 29.3412C23.733 29.9474 24.0752 30.5878 24.6814 30.7717C26.9532 31.4612 29.3932 31.3464 31.5902 30.4467C33.7872 29.547 35.607 27.9175 36.7428 25.8327C37.8785 23.7479 38.2609 21.3353 37.8255 19.0015C37.594 17.7609 37.139 16.5828 36.4914 15.5209L39.6233 12.8929L39.7066 16.2044C39.7225 16.8376 40.2488 17.338 40.882 17.3221C41.5152 17.3061 42.0156 16.7799 41.9996 16.1467L41.8515 10.2607Z" fill="#333333"/>
<path d="M9.47146 16.2717C10.4343 14.6961 11.9108 13.5005 13.6522 12.8865C15.3937 12.2724 17.2935 12.2775 19.0317 12.9007C19.6279 13.1145 20.2846 12.8045 20.4984 12.2083C20.7122 11.6121 20.4022 10.9554 19.8059 10.7416C17.5712 9.94025 15.1285 9.93377 12.8895 10.7233C10.6505 11.5127 8.75207 13.0499 7.51419 15.0758C6.2763 17.1016 5.7746 19.4922 6.09364 21.8448C6.41268 24.1974 7.53296 26.368 9.26567 27.991C10.8929 29.5152 12.9669 30.4688 15.175 30.7157V33.0717L11.7342 33.072C11.1008 33.0721 10.5874 33.5856 10.5874 34.219C10.5875 34.8524 11.101 35.3658 11.7344 35.3658L15.175 35.3655V38.8065C15.175 39.4399 15.6885 39.9534 16.3219 39.9534C16.9553 39.9534 17.4688 39.4399 17.4688 38.8065V35.3653L20.9094 35.365C21.5428 35.365 22.0562 34.8515 22.0562 34.2181C22.0561 33.5847 21.5426 33.0712 20.9092 33.0713L17.4688 33.0716V30.7157C19.1864 30.5236 20.8388 29.902 22.2678 28.895C24.2084 27.5274 25.6183 25.5326 26.2598 23.2468C26.9013 20.961 26.7353 18.524 25.7896 16.3463C25.5373 15.7653 24.8618 15.4989 24.2808 15.7512C23.6998 16.0035 23.4334 16.679 23.6857 17.26C24.4212 18.9537 24.5503 20.8492 24.0514 22.627C23.5524 24.4049 22.4559 25.9564 20.9465 27.02C19.6031 27.9667 18.0058 28.4755 16.372 28.4857C16.3554 28.485 16.3387 28.4846 16.3219 28.4846C16.305 28.4846 16.2883 28.485 16.2716 28.4857C16.103 28.4846 15.9341 28.4783 15.7651 28.4665C13.923 28.3384 12.1814 27.5793 10.8337 26.317C9.48605 25.0546 8.61473 23.3663 8.36659 21.5366C8.11845 19.7068 8.50865 17.8474 9.47146 16.2717Z" fill="#333333"/>
</svg>
