<svg width="48" height="48" viewBox="0 0 48 48" fill="none" xmlns="http://www.w3.org/2000/svg">
<path fill-rule="evenodd" clip-rule="evenodd" d="M16.6417 30.2284C16.8138 30.1864 16.9877 30.1671 17.1596 30.1691C17.4439 30.1724 17.7133 30.2966 17.9005 30.5105L24 37.4814L30.0995 30.5105C30.2867 30.2966 30.5561 30.1724 30.8404 30.1691C31.0123 30.1671 31.1862 30.1864 31.3583 30.2284L31.3583 30.2284C34.1198 30.902 36.9605 31.9383 39.1361 33.3669C41.289 34.7805 43 36.7267 43 39.2498V44C43 44.5523 42.5523 45 42 45H6C5.44772 45 5 44.5523 5 44V39.2498C5 36.7267 6.71103 34.7805 8.86388 33.3669C11.0395 31.9383 13.8802 30.902 16.6417 30.2284L16.6417 30.2284ZM16.7713 32.2573C14.2484 32.9006 11.7911 33.8374 9.96164 35.0387C8.0262 36.3096 7 37.7293 7 39.2498V43H41V39.2498C41 37.7293 39.9738 36.3096 38.0384 35.0387C36.2089 33.8374 33.7516 32.9006 31.2286 32.2573L24.7526 39.6585C24.5627 39.8755 24.2884 40 24 40C23.7116 40 23.4373 39.8755 23.2474 39.6585L16.7713 32.2573ZM31.1214 31.1997L31.1214 31.1997L31.1214 31.1997Z" fill="#333333"/>
<path d="M36 37C36 37 34 36 33 35C32 36 30 37 30 37C30 37 31.0474 41 33 41C34.9526 41 36 37 36 37Z" fill="#333333"/>
<path fill-rule="evenodd" clip-rule="evenodd" d="M20.5 29C20.5 27.8954 21.3954 27 22.5 27H25.5C26.6046 27 27.5 27.8954 27.5 29V30.382C27.5 31.0488 27.1683 31.6653 26.6267 32.0345L27.4806 36.3039L25.5194 36.6961L24.5194 31.6961C24.431 31.2539 24.6494 30.8072 25.0528 30.6056L25.5 30.382V29H22.5V30.5858L23.2071 31.2929C23.4489 31.5347 23.5504 31.8832 23.4762 32.2169L22.4762 36.7169L20.5238 36.2831L21.4047 32.3189L21.0858 32C20.7107 31.6249 20.5 31.1162 20.5 30.5858V29Z" fill="#333333"/>
<path fill-rule="evenodd" clip-rule="evenodd" d="M15 17V15H17V17C17 20.866 20.134 24 24 24C27.866 24 31 20.866 31 17V15H33V17C33 21.9706 28.9706 26 24 26C19.0294 26 15 21.9706 15 17Z" fill="#333333"/>
<path fill-rule="evenodd" clip-rule="evenodd" d="M24.1592 3.01274L24 3.99998L23.8408 3.01274L24 2.98706L24.1592 3.01274ZM34.0042 13.3975C34.0255 13.3735 34.0475 13.3483 34.0702 13.3219C34.289 13.0679 34.5747 12.6987 34.8589 12.2219C35.4274 11.2683 36 9.86702 36 8.09676C36 7.39198 35.5854 6.86089 35.1964 6.5107C34.7934 6.14783 34.2664 5.83935 33.7125 5.57457C32.5968 5.04124 31.1507 4.58291 29.7578 4.21122C28.3538 3.83654 26.9554 3.53735 25.9115 3.33225C25.3886 3.22951 24.9525 3.14995 24.6463 3.09596C24.4932 3.06895 24.3725 3.04831 24.2895 3.03435L24.1941 3.01844L24.1688 3.0143L24.1592 3.01274C24.159 3.01271 24.1592 3.01274 24 3.99998C23.8408 3.01274 23.841 3.01271 23.8408 3.01274L23.8312 3.0143L23.8059 3.01844L23.7105 3.03435C23.6275 3.04831 23.5068 3.06895 23.3537 3.09596C23.0475 3.14995 22.6114 3.22951 22.0885 3.33225C21.0446 3.53735 19.6462 3.83654 18.2422 4.21122C16.8493 4.58291 15.4032 5.04124 14.2875 5.57457C13.7336 5.83935 13.2066 6.14783 12.8036 6.5107C12.4146 6.86089 12 7.39199 12 8.09676C12 9.86688 12.5726 11.2681 13.1411 12.2217C13.4253 12.6985 13.7109 13.0678 13.9297 13.3219C13.9525 13.3483 13.9745 13.3734 13.9958 13.3974C14.0057 13.5291 14.0258 13.6792 14.0625 13.8431C14.1859 14.3952 14.4899 15.0735 15.1572 15.7189C16.4709 16.9892 19.0445 18 24 18C28.9555 18 31.5291 16.9892 32.8428 15.7189C33.5101 15.0735 33.8141 14.3952 33.9375 13.8431C33.9742 13.6792 33.9943 13.5292 34.0042 13.3975ZM31.7015 14H16.2985C16.3655 14.09 16.4474 14.1843 16.5475 14.2811C17.3021 15.0108 19.2284 16 24 16C28.7716 16 30.6979 15.0108 31.4525 14.2811C31.5526 14.1843 31.6345 14.09 31.7015 14ZM15.4308 12H32.5692C32.724 11.8186 32.9319 11.5485 33.1411 11.1977C33.5667 10.4837 33.9885 9.45184 33.9998 8.15026C33.9826 8.12431 33.9429 8.0733 33.8583 7.99708C33.6598 7.81837 33.3273 7.60719 32.85 7.37902C31.9032 6.92647 30.5993 6.50576 29.2422 6.14359C27.8962 5.78439 26.5446 5.49487 25.526 5.29473C25.0176 5.19485 24.5944 5.11766 24.299 5.06556C24.1761 5.04388 24.0754 5.02656 24 5.01378C23.9246 5.02656 23.8239 5.04388 23.701 5.06556C23.4056 5.11766 22.9824 5.19485 22.474 5.29473C21.4554 5.49487 20.1038 5.78439 18.7578 6.14359C17.4007 6.50576 16.0968 6.92647 15.15 7.37902C14.6727 7.60719 14.3402 7.81837 14.1417 7.99708C14.0571 8.0733 14.0174 8.12431 14.0002 8.15026C14.0115 9.45167 14.4333 10.4835 14.8589 11.1976C15.0681 11.5485 15.276 11.8185 15.4308 12Z" fill="#333333"/>
<path d="M26 9C26 10.1046 25.1046 11 24 11C22.8954 11 22 10.1046 22 9C22 7.89543 22.8954 7 24 7C25.1046 7 26 7.89543 26 9Z" fill="#333333"/>
</svg>
