<svg width="48" height="48" viewBox="0 0 48 48" fill="none" xmlns="http://www.w3.org/2000/svg">
<path d="M10 8.58569L39.4142 37.9999L38 39.4141L8.58579 9.99991L10 8.58569Z" fill="#333333"/>
<path d="M7 31.9999C6.44772 31.9999 6 32.4476 6 32.9999V34.9999C6 35.5522 6.44772 35.9999 7 35.9999H31C31.5523 35.9999 32 36.4476 32 36.9999C32 37.5522 31.5523 37.9999 31 37.9999H7C5.34315 37.9999 4 36.6567 4 34.9999V32.9999C4 31.343 5.34315 29.9999 7 29.9999H25.5C26.0523 29.9999 26.5 30.4476 26.5 30.9999C26.5 31.5522 26.0523 31.9999 25.5 31.9999H7Z" fill="#333333"/>
<path d="M40 31.9999C40 31.4476 39.5523 30.9999 39 30.9999C38.4477 30.9999 38 31.4476 38 31.9999V33.9999C38 34.5522 38.4477 34.9999 39 34.9999C39.5523 34.9999 40 34.5522 40 33.9999V31.9999Z" fill="#333333"/>
<path d="M34 16.9999C32.3431 16.9999 31 18.343 31 19.9999V21.8181C31 23.4749 32.3431 24.8181 34 24.8181H37C38.6569 24.8181 40 26.1612 40 27.8181V27.9999C40 28.5522 39.5523 28.9999 39 28.9999C38.4477 28.9999 38 28.5522 38 27.9999V27.8181C38 27.2658 37.5523 26.8181 37 26.8181H34C31.2386 26.8181 29 24.5795 29 21.8181V19.9999C29 17.2385 31.2386 14.9999 34 14.9999C34.5523 14.9999 35 15.4476 35 15.9999C35 16.5522 34.5523 16.9999 34 16.9999Z" fill="#333333"/>
<path d="M38 18.9999C37.4477 18.9999 37 19.4476 37 19.9999C37 20.5522 37.4477 20.9999 38 20.9999C40.2091 20.9999 42 22.7907 42 24.9999V27.9999C42 28.5522 42.4477 28.9999 43 28.9999C43.5523 28.9999 44 28.5522 44 27.9999V24.9999C44 22.9293 42.9512 21.1037 41.3559 20.0254C42.3585 19.2172 43 17.9789 43 16.5908V14.9999C43 12.2385 40.7614 9.99988 38 9.99988C37.4477 9.99988 37 10.4476 37 10.9999C37 11.5522 37.4477 11.9999 38 11.9999C39.6569 11.9999 41 13.343 41 14.9999V16.5908C41 17.9213 39.9214 18.9999 38.5909 18.9999H38Z" fill="#333333"/>
<path d="M44 31.9999C44 31.4476 43.5523 30.9999 43 30.9999C42.4477 30.9999 42 31.4476 42 31.9999V35.9999C42 36.5522 42.4477 36.9999 43 36.9999C43.5523 36.9999 44 36.5522 44 35.9999V31.9999Z" fill="#333333"/>
</svg>
