<svg width="48" height="48" viewBox="0 0 48 48" fill="none" xmlns="http://www.w3.org/2000/svg">
<path fill-rule="evenodd" clip-rule="evenodd" d="M14.127 14.127L14.127 14.2528C14.1283 14.2709 14.1318 14.3124 14.1406 14.3739C14.1593 14.5049 14.2013 14.7239 14.2942 15.0025C14.4776 15.5526 14.8649 16.3539 15.6999 17.189L19.2729 20.7619L9.55858 30.4762L10.4634 31.381L24.3148 26.0536L31.2698 31.2698L26.0535 24.3148L31.381 10.4634L30.4762 9.55859L20.7619 19.2729L17.189 15.6999C16.3539 14.8649 15.5526 14.4776 15.0025 14.2942C14.7239 14.2014 14.5049 14.1593 14.3739 14.1406C14.3124 14.1318 14.2709 14.1283 14.2528 14.127L14.127 14.127ZM33.7143 9.96826L28.3175 24L34.7936 32.6349L39.1111 30.4762L40.1905 31.5556L31.5555 40.1905L30.4762 39.1111L32.6349 34.7936L24 28.3175L9.96825 33.7143L6.73016 30.4762L16.4444 20.7619L14.2857 18.6032C13.5536 17.8711 13.0698 17.139 12.75 16.4911C12.4302 15.8429 12.2745 15.279 12.1988 14.8836C12.127 14.509 12.127 14.2857 12.127 14.2857L8.88889 17.5238C7.80952 18.6032 6.73016 17.5238 7.80952 16.4444L16.4444 7.80953C17.5238 6.73016 18.6032 7.80953 17.5238 8.88889L14.2857 12.127C14.2857 12.127 14.5089 12.127 14.8836 12.1988C15.2789 12.2745 15.8429 12.4302 16.4911 12.7501C17.139 13.0698 17.8711 13.5536 18.6032 14.2857L20.7619 16.4444L30.4762 6.73016L33.7143 9.96826Z" fill="#333333"/>
</svg>
