<svg width="48" height="48" viewBox="0 0 48 48" fill="none" xmlns="http://www.w3.org/2000/svg">
<path fill-rule="evenodd" clip-rule="evenodd" d="M37 11C37 10.4477 37.4477 10 38 10C40.7614 10 43 12.2386 43 15V16.5909C43 17.979 42.3585 19.2173 41.3559 20.0255C42.9512 21.1039 44 22.9294 44 25V28C44 28.5523 43.5523 29 43 29C42.4477 29 42 28.5523 42 28V25C42 22.7909 40.2091 21 38 21C37.4477 21 37 20.5523 37 20C37 19.4477 37.4477 19 38 19H38.5909C39.9214 19 41 17.9214 41 16.5909V15C41 13.3431 39.6569 12 38 12C37.4477 12 37 11.5523 37 11ZM34 17C32.3431 17 31 18.3431 31 20V21.8182C31 23.475 32.3431 24.8182 34 24.8182H37C38.6569 24.8182 40 26.1613 40 27.8182V28C40 28.5523 39.5523 29 39 29C38.4477 29 38 28.5523 38 28V27.8182C38 27.2659 37.5523 26.8182 37 26.8182H34C31.2386 26.8182 29 24.5796 29 21.8182V20C29 17.2386 31.2386 15 34 15C34.5523 15 35 15.4477 35 16C35 16.5523 34.5523 17 34 17ZM7 30C5.34315 30 4 31.3431 4 33V35C4 36.6569 5.34315 38 7 38H33C34.6569 38 36 36.6569 36 35V33C36 31.3431 34.6569 30 33 30H7ZM6 33C6 32.4477 6.44772 32 7 32H33C33.5523 32 34 32.4477 34 33V35C34 35.5523 33.5523 36 33 36H7C6.44772 36 6 35.5523 6 35V33ZM40 32C40 31.4477 39.5523 31 39 31C38.4477 31 38 31.4477 38 32V36C38 36.5523 38.4477 37 39 37C39.5523 37 40 36.5523 40 36V32ZM44 32C44 31.4477 43.5523 31 43 31C42.4477 31 42 31.4477 42 32V36C42 36.5523 42.4477 37 43 37C43.5523 37 44 36.5523 44 36V32Z" fill="#333333"/>
</svg>
