<svg width="48" height="48" viewBox="0 0 48 48" fill="none" xmlns="http://www.w3.org/2000/svg">
<rect width="48" height="48" fill="white"/>
<path fill-rule="evenodd" clip-rule="evenodd" d="M24 8C22.8954 8 22 8.89543 22 10C22 11.1046 22.8954 12 24 12C25.1046 12 26 11.1046 26 10C26 8.89543 25.1046 8 24 8ZM20 10C20 7.79086 21.7909 6 24 6C26.2091 6 28 7.79086 28 10C28 12.2091 26.2091 14 24 14C21.7909 14 20 12.2091 20 10Z" fill="#333333"/>
<path fill-rule="evenodd" clip-rule="evenodd" d="M19.0332 18.1556C20.3418 16.7816 22.1273 16 24 16C25.8727 16 27.6582 16.7816 28.9668 18.1556C30.2738 19.5279 31 21.3792 31 23.3V26C31 26.5523 30.5523 27 30 27H28.3379L27.5669 35.0948C27.518 35.608 27.087 36 26.5714 36H21.4286C20.913 36 20.482 35.608 20.4331 35.0948L19.6621 27H18C17.4477 27 17 26.5523 17 26V23.3C17 21.3792 17.7262 19.5279 19.0332 18.1556ZM24 18C22.6901 18 21.4234 18.5459 20.4815 19.5349C19.5381 20.5255 19 21.879 19 23.3V25H20.5714C21.087 25 21.518 25.392 21.5669 25.9052L22.3379 34H25.6621L26.4331 25.9052C26.482 25.392 26.913 25 27.4286 25H29V23.3C29 21.879 28.4619 20.5255 27.5185 19.5349C26.5766 18.5459 25.3099 18 24 18Z" fill="#333333"/>
<path fill-rule="evenodd" clip-rule="evenodd" d="M8 14V22H6V14H8Z" fill="#333333"/>
<path fill-rule="evenodd" clip-rule="evenodd" d="M6 17H14V19H6V17Z" fill="#333333"/>
<path fill-rule="evenodd" clip-rule="evenodd" d="M42 14V22H40V14H42Z" fill="#333333"/>
<path fill-rule="evenodd" clip-rule="evenodd" d="M34 17H42V19H34V17Z" fill="#333333"/>
<path fill-rule="evenodd" clip-rule="evenodd" d="M14.1317 28.6873C14.3044 29.2119 14.0191 29.7771 13.4945 29.9498C11.6759 30.5486 10.2567 31.2797 9.31257 32.0609C8.3634 32.8462 8 33.5864 8 34.2261C8 34.7963 8.28593 35.4417 9.02167 36.1348C9.75936 36.8298 10.8807 37.5017 12.3494 38.0869C15.2812 39.2552 19.3999 40 24 40C28.6001 40 32.7188 39.2552 35.6506 38.0869C37.1193 37.5017 38.2406 36.8298 38.9783 36.1348C39.7141 35.4417 40 34.7963 40 34.2261C40 33.5864 39.6366 32.8462 38.6874 32.0609C37.7433 31.2797 36.3241 30.5486 34.5055 29.9498C33.9809 29.7771 33.6956 29.2119 33.8683 28.6873C34.041 28.1627 34.6063 27.8774 35.1309 28.0502C37.0878 28.6944 38.7595 29.5247 39.9624 30.52C41.1603 31.5111 42 32.7625 42 34.2261C42 35.5264 41.3345 36.6629 40.3497 37.5906C39.3669 38.5165 37.9986 39.3042 36.3909 39.9448C33.1699 41.2283 28.7886 42 24 42C19.2114 42 14.8301 41.2283 11.6091 39.9448C10.0014 39.3042 8.63311 38.5165 7.65027 37.5906C6.66549 36.6629 6 35.5264 6 34.2261C6 32.7625 6.83974 31.5111 8.03759 30.52C9.24047 29.5247 10.9122 28.6944 12.8691 28.0502C13.3937 27.8774 13.959 28.1627 14.1317 28.6873Z" fill="#333333"/>
</svg>
