<svg width="48" height="48" viewBox="0 0 48 48" fill="none" xmlns="http://www.w3.org/2000/svg">
<path fill-rule="evenodd" clip-rule="evenodd" d="M39 8H9C8.44771 8 8 8.44772 8 9V39C8 39.5523 8.44772 40 9 40H39C39.5523 40 40 39.5523 40 39V9C40 8.44771 39.5523 8 39 8ZM9 6C7.34315 6 6 7.34315 6 9V39C6 40.6569 7.34315 42 9 42H39C40.6569 42 42 40.6569 42 39V9C42 7.34315 40.6569 6 39 6H9Z" fill="#333333"/>
<path d="M33.9899 34.6349C33.5741 35.0562 33.1615 35.4743 32.7735 36.0068V37H27V36.0068C27.0978 35.2339 27.597 33.8414 27.612 33.4543C27.6329 32.9098 28.3979 31.9175 28.3979 31.9175L30.7456 29.0888C30.7456 29.0888 31.4102 28.4184 31.7905 27.6748C32.1708 26.9312 32.9801 27.8675 33.0877 28.5365C33.1952 29.2056 32.9906 29.5582 32.9906 29.5582L31.6491 32.1046C31.6491 32.1046 33.2044 30.0703 33.6872 29.2521C33.9317 28.8377 34.0002 27.9602 34.0766 26.9795C34.1511 26.0243 34.2332 24.971 34.4932 24.152C35.0202 22.4924 36.5455 22.9079 36.8099 23.6494C37.0744 24.3909 37.0145 29.2905 36.9185 30.1074C36.8434 30.7471 36.4398 31.3727 35.9845 32.0784C35.8584 32.2739 35.7283 32.4755 35.6002 32.6853C35.0903 33.5198 34.5373 34.0802 33.9899 34.6349Z" fill="#333333"/>
<path d="M28 42C27.4477 42 27 41.5523 27 41V39C27 38.4477 27.4477 38 28 38H32C32.5523 38 33 38.4477 33 39V41C33 41.5523 32.5523 42 32 42H28Z" fill="#333333"/>
<path d="M12.9569 34.6349C13.3741 35.0562 13.788 35.4743 14.1773 36.0068V37H20V36.0068C19.9019 35.2339 19.7299 33.8414 19.715 33.4543C19.6939 32.9098 18.9264 31.9175 18.9264 31.9175L16.5708 29.0888C16.5708 29.0888 15.904 28.4184 15.5224 27.6748C15.1409 26.9312 14.3289 27.8675 14.2209 28.5365C14.113 29.2056 14.3183 29.5582 14.3183 29.5582L15.6643 32.1046C15.6643 32.1046 14.1039 30.0703 13.6194 29.2521C13.3741 28.8377 13.3054 27.9602 13.2287 26.9795C13.154 26.0243 13.0716 24.971 12.8107 24.152C12.282 22.4924 10.7516 22.9079 10.4863 23.6494C10.2209 24.3909 9.92219 29.2905 10.0185 30.1074C10.0938 30.7471 10.4988 31.3727 10.9556 32.0784C11.0821 32.2739 11.2126 32.4755 11.3412 32.6853C11.8528 33.5198 12.4076 34.0802 12.9569 34.6349Z" fill="#333333"/>
<path d="M19 42C19.5523 42 20 41.5523 20 41V39C20 38.4477 19.5523 38 19 38H15C14.4477 38 14 38.4477 14 39V41C14 41.5523 14.4477 42 15 42H19Z" fill="#333333"/>
<path d="M15 17.2069C15 13.9864 17.018 11 19.7812 11C21.6988 11 23.1217 12.3399 24 14.2406C24.8782 12.34 26.3011 11 28.2188 11C30.9823 11 33 13.9869 33 17.2069C33 24.1 24 29 24 29C24 29 15 24.3965 15 17.2069Z" fill="#333333"/>
</svg>
