<svg width="48" height="48" viewBox="0 0 48 48" fill="none" xmlns="http://www.w3.org/2000/svg">
<path fill-rule="evenodd" clip-rule="evenodd" d="M39 8.5H9C8.44771 8.5 8 8.94772 8 9.5V39.5C8 40.0523 8.44772 40.5 9 40.5H39C39.5523 40.5 40 40.0523 40 39.5V9.5C40 8.94771 39.5523 8.5 39 8.5ZM9 6.5C7.34315 6.5 6 7.84315 6 9.5V39.5C6 41.1569 7.34315 42.5 9 42.5H39C40.6569 42.5 42 41.1569 42 39.5V9.5C42 7.84315 40.6569 6.5 39 6.5H9Z" fill="#333333"/>
<path fill-rule="evenodd" clip-rule="evenodd" d="M10.3022 28.941C9.89853 29.9922 10.4407 31.1738 11.5189 31.498C15.482 32.6899 19.6695 33.3319 24 33.3319C28.3304 33.3319 32.5181 32.6898 36.4811 31.498C37.5594 31.1737 38.1015 29.9921 37.6979 28.941L32.2113 14.654C31.8398 13.6866 30.7921 13.1712 29.7788 13.3888C27.9145 13.7891 25.9814 14 24 14C22.0186 14 20.0856 13.7891 18.2212 13.3888C17.208 13.1712 16.1603 13.6866 15.7888 14.6541L10.3022 28.941ZM33.0002 22.2932C33.0002 24.4809 31.1774 26.2545 28.9288 26.2545C28.7577 26.2545 28.589 26.2442 28.4234 26.2242C28.2703 26.4305 28.1066 26.711 27.9181 27.0339C27.1075 28.4227 25.8399 30.5943 23.0001 31C20.7829 31.3205 19.2505 29.4527 18.2325 27.4642C18.1045 27.2141 17.9802 26.973 17.8638 26.7496C17.693 26.8256 17.5102 26.9077 17.3288 26.9891C16.8619 27.1988 16.4046 27.4042 16.1869 27.4888C15.2589 27.8497 14.2059 27.4102 13.835 26.5073C13.4641 25.6044 13.9158 24.58 14.8438 24.2191C14.9764 24.1676 15.2602 24.0399 15.6325 23.8724C15.8838 23.7594 16.1754 23.6283 16.4882 23.4901C16.8419 23.3338 17.2109 23.1743 17.5118 23.0562C17.6574 22.9991 17.8234 22.9371 17.9792 22.89C18.0527 22.8677 18.171 22.8341 18.3074 22.8106C18.3751 22.799 18.4882 22.7825 18.6263 22.7801C18.7336 22.7783 19.0262 22.7792 19.3633 22.9127C19.6439 23.0237 19.8266 23.1768 19.8902 23.2316C19.9741 23.304 20.0353 23.37 20.0703 23.4094C20.1406 23.4886 20.193 23.5608 20.221 23.6005C20.2812 23.6857 20.3362 23.7746 20.3782 23.8445C20.4667 23.992 20.5714 24.1798 20.6807 24.3814C20.8127 24.6248 21.2056 25.4094 21.3953 25.7896C21.446 25.8912 21.5827 25.9106 21.6598 25.8272C21.6988 25.7849 21.7125 25.7251 21.6958 25.67L21.1173 23.7666C20.9632 23.2528 20.8081 22.7373 20.6807 22.3247C20.617 22.1179 20.562 21.9429 20.5186 21.8097C20.488 21.7155 20.47 21.6636 20.4624 21.6417C20.4574 21.6271 20.4569 21.6259 20.4606 21.6346C20.0851 20.7335 20.5316 19.7069 21.4578 19.3416C22.384 18.9763 23.4391 19.4107 23.8146 20.3119L24.6899 23.2844C24.7107 23.3552 24.7802 23.3998 24.8533 23.3896C24.9358 23.3781 24.9883 23.297 24.9684 23.2161C24.8958 22.92 24.8574 22.6109 24.8574 22.2932C24.8574 20.6674 25.5718 19.5552 27.0788 18.8794C28.2523 18.3532 29.6446 18.1938 30.7939 18.7711C32.1043 19.4293 33.0002 20.7594 33.0002 22.2932Z" fill="#333333"/>
<path fill-rule="evenodd" clip-rule="evenodd" d="M36 12.5V14.5C36 15.0523 36.4477 15.5 37 15.5C37.5523 15.5 38 15.0523 38 14.5V12C38 11.1716 37.3284 10.5 36.5 10.5L34 10.5C33.4477 10.5 33 10.9477 33 11.5C33 12.0523 33.4477 12.5 34 12.5H36Z" fill="#333333"/>
<path fill-rule="evenodd" clip-rule="evenodd" d="M12 12.5H14C14.5523 12.5 15 12.0523 15 11.5C15 10.9477 14.5523 10.5 14 10.5H11.5C10.6716 10.5 10 11.1716 10 12V14.5C10 15.0523 10.4477 15.5 11 15.5C11.5523 15.5 12 15.0523 12 14.5V12.5Z" fill="#333333"/>
<path fill-rule="evenodd" clip-rule="evenodd" d="M36 36.5V34.5C36 33.9477 36.4477 33.5 37 33.5C37.5523 33.5 38 33.9477 38 34.5V37C38 37.8284 37.3284 38.5 36.5 38.5H34C33.4477 38.5 33 38.0523 33 37.5C33 36.9477 33.4477 36.5 34 36.5H36Z" fill="#333333"/>
<path fill-rule="evenodd" clip-rule="evenodd" d="M12 36.5H14C14.5523 36.5 15 36.9477 15 37.5C15 38.0523 14.5523 38.5 14 38.5H11.5C10.6716 38.5 10 37.8284 10 37V34.5C10 33.9477 10.4477 33.5 11 33.5C11.5523 33.5 12 33.9477 12 34.5V36.5Z" fill="#333333"/>
</svg>
