<svg width="48" height="48" viewBox="0 0 48 48" fill="none" xmlns="http://www.w3.org/2000/svg">
<path fill-rule="evenodd" clip-rule="evenodd" d="M19.7639 10C20.3132 9.38625 21.1115 9 22 9C22.8885 9 23.6868 9.38625 24.2361 10H23H22H19.7639ZM19 12C19 13.6569 20.3431 15 22 15V12L19 12ZM24 12V15C24 15.5523 24.4477 16 25 16H26V12H24ZM28 12V17V18H27H25C24.087 18 23.2692 17.5921 22.719 16.9487C22.4842 16.9825 22.2442 17 22 17C19.2386 17 17 14.7614 17 12C17 9.23858 19.2386 7 22 7C24.0503 7 25.8124 8.2341 26.584 10H27H28L29 10V12H28ZM11 20H9C7.89543 20 7 20.8954 7 22V28C7 29.1046 7.89543 30 9 30H11C12.1046 30 13 29.1046 13 28V24V22C13 20.8954 12.1046 20 11 20ZM15 28V24V22V21C15 20.4477 15.4477 20 16 20V32C16 34.2091 17.7909 36 20 36H22C23.7774 36 25.2841 34.8407 25.8051 33.2369L27.4964 33.8007C26.3612 36.8382 23.432 39 20 39C15.8729 39 12.4757 35.8748 12.0459 31.8619C13.7478 31.4021 15 29.8473 15 28ZM23.9071 32.6043L20.2094 31.3717C19.1886 31.0314 18.5 30.0761 18.5 29V23C18.5 21.6193 19.6193 20.5 21 20.5C22.3807 20.5 23.5 21.6193 23.5 23V27.1981L24 27.3648V22C24 20.8954 23.1046 20 22 20H18V32C18 33.1046 18.8954 34 20 34H22C22.894 34 23.6509 33.4135 23.9071 32.6043ZM18 18H22C24.2091 18 26 19.7909 26 22V28.0314L29.3785 29.1576L34.6125 27.0419L34.9662 27.917L36.4801 26.3988L40.3659 22.5019L41.7822 23.9141L39.5976 26.1049H42.6882V28.1049H37.1882H35.0422L35.362 28.8961L31.8486 30.3163C32.4372 30.9637 32.6681 31.9015 32.3717 32.7906C31.9559 34.038 30.652 34.7395 29.3973 34.4264C27.9986 38.2612 24.3202 41 20 41C14.8147 41 10.5511 37.0533 10.0494 32H9C6.79086 32 5 30.2091 5 28V22C5 19.7909 6.79086 18 9 18H8C7.44772 18 7 17.5523 7 17C7 16.4477 7.44772 16 8 16H12C12.5523 16 13 16.4477 13 17C13 17.5523 12.5523 18 12 18H11C12.0465 18 12.9991 18.4018 13.7119 19.0596C14.2622 18.4114 15.0831 18 16 18H18ZM21 22.5C20.7239 22.5 20.5 22.7239 20.5 23V29C20.5 29.2152 20.6377 29.4063 20.8419 29.4743L29.8419 32.4743C30.1039 32.5617 30.387 32.4201 30.4743 32.1581C30.5617 31.8961 30.4201 31.613 30.1581 31.5257L22.1838 28.8675C21.7754 28.7314 21.5 28.3493 21.5 27.9189V23C21.5 22.7239 21.2761 22.5 21 22.5ZM11.2929 21.2929L10 22.5858L8.70711 21.2929L7.29289 22.7071L8.58579 24L7.29289 25.2929L8.70711 26.7071L10 25.4142L11.2929 26.7071L12.7071 25.2929L11.4142 24L12.7071 22.7071L11.2929 21.2929Z" fill="#333333"/>
</svg>
