<svg width="48" height="48" viewBox="0 0 48 48" fill="none" xmlns="http://www.w3.org/2000/svg">
<path fill-rule="evenodd" clip-rule="evenodd" d="M22.4334 7.80593C22.4533 8.36778 22.5582 8.69871 22.726 8.89808C22.9709 9.18891 23.2164 9.29144 23.5052 9.31683C23.8448 9.34667 24.2768 9.26968 24.8473 9.09176C25.1253 9.00507 25.413 8.90227 25.7226 8.79014C25.7542 8.77871 25.786 8.76717 25.818 8.75554C26.0937 8.65557 26.3867 8.54931 26.6793 8.4528C27.3241 8.24013 28.0616 8.04116 28.8096 8.04116C33.6124 8.04116 36.4607 11.7906 38.3369 15.1376C40.6411 19.2481 40.5437 24.3791 38.0901 28.4016C36.4758 31.048 34.4126 33.3397 31.285 34.5561C26.7482 36.3206 21.7413 35.6382 17.6158 33.6006C16.6965 33.1466 15.6176 33.845 15.6176 34.733V41H13.6176V34.733C13.6176 32.1815 16.4189 30.7789 18.5014 31.8074C22.2428 33.6552 26.6583 34.2097 30.56 32.6921C33.127 31.6937 34.8943 29.8001 36.3826 27.3601C38.4604 23.9538 38.5426 19.5948 36.5923 16.1156C34.74 12.8112 32.402 10.0412 28.8096 10.0412C28.3898 10.0412 27.8992 10.1564 27.3057 10.3521C27.0427 10.4389 26.7781 10.5349 26.4984 10.6363C26.467 10.6476 26.4355 10.6591 26.4037 10.6706C26.0953 10.7823 25.7689 10.8993 25.4427 11.0011C24.8049 11.2 24.0686 11.374 23.3301 11.3091C22.541 11.2398 21.7986 10.9018 21.1962 10.1863C20.5915 9.46816 20.4596 8.58044 20.4347 7.8768C20.4218 7.51463 20.4367 7.15567 20.452 6.8418C20.4544 6.79377 20.4567 6.7471 20.459 6.70166C20.4723 6.43537 20.4835 6.21135 20.4825 6.00469L22.4825 5.99536C22.4837 6.26171 22.4693 6.54872 22.456 6.8111C22.4538 6.8546 22.4517 6.89742 22.4496 6.93936C22.4345 7.24986 22.4238 7.53535 22.4334 7.80593ZM13.8577 6.50519C13.8582 6.33584 13.8586 6.16741 13.8586 6.00002H15.8586C15.8586 6.12523 15.8585 6.24953 15.8584 6.37296C15.8558 9.10063 15.8536 11.4006 17.1253 13.5438C18.0092 15.0336 19.3171 16.0774 20.8048 17.2647C21.0222 17.4382 21.2434 17.6147 21.4677 17.7962C23.2701 19.2543 23.6577 21.2332 23.0424 22.9664C22.4511 24.6318 20.9625 26.011 19.13 26.5353C18.1451 26.8171 17.2109 27.0258 16.3643 27.215C16.1656 27.2594 15.9717 27.3027 15.7832 27.3456C14.7716 27.5759 13.913 27.7949 13.1496 28.1109C11.7108 28.7064 10.5341 29.6729 9.59141 31.984C9.20068 32.9418 9 33.9633 9 34.994V41H7V34.994C7 33.7033 7.25136 32.4254 7.73956 31.2286C8.87478 28.4456 10.4298 27.072 12.3847 26.2629C13.3181 25.8766 14.3219 25.6271 15.3392 25.3955C15.542 25.3493 15.7455 25.3038 15.9503 25.258C16.7929 25.0697 17.6571 24.8765 18.5798 24.6125C19.827 24.2556 20.7947 23.3194 21.1576 22.2972C21.4965 21.3429 21.3361 20.2623 20.2099 19.3511C20.0047 19.1851 19.794 19.0178 19.5801 18.8478C18.1129 17.6823 16.4906 16.3936 15.4053 14.5644C13.8438 11.9327 13.851 9.10954 13.8577 6.50519Z" fill="currentColor"/>
</svg>
