<svg width="48" height="48" viewBox="0 0 48 48" fill="none" xmlns="http://www.w3.org/2000/svg">
<path fill-rule="evenodd" clip-rule="evenodd" d="M25.3071 19.5946H24.3661C24.0397 20.6733 23.4511 21.6659 22.6396 22.4775C21.3445 23.7725 19.5881 24.5 17.7567 24.5C15.9253 24.5 14.1689 23.7725 12.8738 22.4775C12.0623 21.6659 11.4737 20.6733 11.1473 19.5946H10.2063C10.5563 20.916 11.2504 22.1344 12.2336 23.1177C13.6984 24.5825 15.6851 25.4054 17.7567 25.4054C19.8283 25.4054 21.815 24.5825 23.2798 23.1177C24.263 22.1344 24.9571 20.916 25.3071 19.5946ZM27.5166 18.5929C27.5728 18.0435 27.1198 17.5946 26.5675 17.5946H23.6621C23.1098 17.5946 22.6724 18.0469 22.5605 18.5877C22.3681 19.5185 21.9076 20.381 21.2253 21.0632C20.3054 21.9832 19.0577 22.5 17.7567 22.5C16.4557 22.5 15.208 21.9832 14.2881 21.0633C13.6058 20.381 13.1453 19.5185 12.9529 18.5877C12.841 18.0469 12.4036 17.5946 11.8513 17.5946H8.94589C8.39361 17.5946 7.9406 18.0435 7.99679 18.5929C8.22535 20.8282 9.21636 22.9288 10.8194 24.5319C12.6593 26.3718 15.1547 27.4054 17.7567 27.4054C20.3587 27.4054 22.8541 26.3718 24.694 24.5319C26.297 22.9288 27.2881 20.8282 27.5166 18.5929Z" fill="#333333"/>
<path fill-rule="evenodd" clip-rule="evenodd" d="M14.0811 28.2973V25.6216H16.0811V28.2973C16.0811 29.2227 16.8313 29.9729 17.7567 29.9729C18.6822 29.9729 19.4324 29.2227 19.4324 28.2973V26.0038H21.4324V28.2973C21.4324 30.3273 19.7867 31.9729 17.7567 31.9729C15.7267 31.9729 14.0811 30.3273 14.0811 28.2973Z" fill="#333333"/>
<path fill-rule="evenodd" clip-rule="evenodd" d="M32.8976 25C31.1843 25 29.7953 26.3889 29.7953 28.1023V35.6023C29.7953 39.1356 26.931 42 23.3976 42C19.8642 42 16.9999 39.1356 16.9999 35.6023V30.8H18.9999V35.6023C18.9999 38.0311 20.9688 40 23.3976 40C25.8264 40 27.7953 38.0311 27.7953 35.6023V28.1023C27.7953 25.2844 30.0797 23 32.8976 23C35.7155 23 37.9999 25.2844 37.9999 28.1023V31.65H35.9999V28.1023C35.9999 26.3889 34.6109 25 32.8976 25Z" fill="#333333"/>
<path fill-rule="evenodd" clip-rule="evenodd" d="M37.3783 33.4324C37.7515 33.4324 38.054 33.1299 38.054 32.7567C38.054 32.3836 37.7515 32.0811 37.3783 32.0811C37.0051 32.0811 36.7026 32.3836 36.7026 32.7567C36.7026 33.1299 37.0051 33.4324 37.3783 33.4324ZM37.3783 35.4324C38.856 35.4324 40.054 34.2345 40.054 32.7567C40.054 31.279 38.856 30.0811 37.3783 30.0811C35.9006 30.0811 34.7026 31.279 34.7026 32.7567C34.7026 34.2345 35.9006 35.4324 37.3783 35.4324Z" fill="#333333"/>
<path fill-rule="evenodd" clip-rule="evenodd" d="M12.6216 8.78381C12.0693 8.78381 11.6216 9.23153 11.6216 9.78381V17.5946H9.62158V9.78381C9.62158 8.12696 10.9647 6.78381 12.6216 6.78381H14.1891V8.78381H12.6216Z" fill="#333333"/>
<path fill-rule="evenodd" clip-rule="evenodd" d="M14.1892 7.56757C14.0698 7.56757 13.973 7.66437 13.973 7.78378C13.973 7.9032 14.0698 8 14.1892 8C14.3086 8 14.4054 7.9032 14.4054 7.78378C14.4054 7.66437 14.3086 7.56757 14.1892 7.56757ZM14.1892 9.56757C15.1743 9.56757 15.973 8.76894 15.973 7.78378C15.973 6.79863 15.1743 6 14.1892 6C13.204 6 12.4054 6.79863 12.4054 7.78378C12.4054 8.76894 13.204 9.56757 14.1892 9.56757Z" fill="#333333"/>
<path fill-rule="evenodd" clip-rule="evenodd" d="M22.8918 8.78381C23.4441 8.78381 23.8918 9.23153 23.8918 9.78381V17.5946H25.8918V9.78381C25.8918 8.12696 24.5487 6.78381 22.8918 6.78381H21.3243V8.78381H22.8918Z" fill="#333333"/>
<path fill-rule="evenodd" clip-rule="evenodd" d="M21.3242 7.56757C21.4437 7.56757 21.5405 7.66437 21.5405 7.78378C21.5405 7.9032 21.4437 8 21.3242 8C21.2048 8 21.108 7.9032 21.108 7.78378C21.108 7.66437 21.2048 7.56757 21.3242 7.56757ZM21.3242 9.56757C20.3391 9.56757 19.5405 8.76894 19.5405 7.78378C19.5405 6.79863 20.3391 6 21.3242 6C22.3094 6 23.108 6.79863 23.108 7.78378C23.108 8.76894 22.3094 9.56757 21.3242 9.56757Z" fill="#333333"/>
</svg>
