<svg width="48" height="48" viewBox="0 0 48 48" fill="none" xmlns="http://www.w3.org/2000/svg">
<path d="M22.726 8.89808C22.5582 8.69871 22.4533 8.36778 22.4334 7.80593C22.4238 7.53535 22.4345 7.24986 22.4496 6.93936L22.456 6.8111C22.4693 6.54873 22.4837 6.2617 22.4825 5.99536L20.4825 6.00469C20.4835 6.21135 20.4723 6.43537 20.459 6.70166L20.452 6.8418C20.4367 7.15567 20.4218 7.51463 20.4347 7.8768C20.4596 8.58044 20.5915 9.46816 21.1962 10.1863C21.7986 10.9018 22.541 11.2398 23.3301 11.3091C24.0686 11.374 24.8049 11.2 25.4427 11.0011C25.7689 10.8993 26.0953 10.7823 26.4037 10.6706L26.4984 10.6363C26.7781 10.5349 27.0427 10.4389 27.3057 10.3521C27.8992 10.1564 28.3898 10.0412 28.8096 10.0412C32.402 10.0412 34.74 12.8112 36.5923 16.1156C38.0908 18.7888 38.3894 21.9813 37.505 24.862C37.2196 24.2794 36.7748 23.7613 36.2034 23.4025C34.9205 22.5972 33.4429 22.8737 32.7248 23.9894C32.0207 23.8509 31.3111 23.8177 30.6184 23.8971C29.665 22.7109 28.1188 22.3048 26.9903 23.006C25.8618 23.7071 25.541 25.2733 26.1822 26.6535C25.8041 27.2393 25.5195 27.8903 25.3318 28.5829C24.0134 28.7325 23.1109 29.9348 23.2648 31.4417C23.3439 32.2164 23.6881 32.934 24.1889 33.4845C22.2256 33.2764 20.2867 32.6891 18.5014 31.8074C16.4189 30.7789 13.6176 32.1815 13.6176 34.733V41H15.6176V34.733C15.6176 33.845 16.6965 33.1466 17.6158 33.6006C21.7413 35.6382 26.7482 36.3206 31.285 34.5561C34.4126 33.3397 36.4758 31.048 38.0901 28.4016C40.5437 24.3791 40.6411 19.2481 38.3369 15.1376C36.4607 11.7906 33.6124 8.04116 28.8096 8.04116C28.0616 8.04116 27.3241 8.24013 26.6793 8.4528C26.3867 8.54931 26.0937 8.65557 25.8181 8.75553L25.7226 8.79014C25.413 8.90227 25.1253 9.00507 24.8473 9.09176C24.2768 9.26968 23.8448 9.34667 23.5052 9.31683C23.2164 9.29144 22.9709 9.18891 22.726 8.89808Z" fill="currentColor"/>
<path d="M13.8586 6.00002C13.8586 6.16741 13.8582 6.33584 13.8577 6.50519C13.851 9.10954 13.8438 11.9326 15.4053 14.5644C16.4906 16.3936 18.1129 17.6823 19.5801 18.8478C19.794 19.0177 20.0047 19.1851 20.2099 19.3511C21.3361 20.2623 21.4965 21.3429 21.1576 22.2972C20.7947 23.3194 19.827 24.2556 18.5798 24.6125C17.6571 24.8765 16.7929 25.0697 15.9503 25.258L15.9489 25.2584C15.7446 25.304 15.5416 25.3494 15.3392 25.3955C14.3219 25.6271 13.3181 25.8766 12.3847 26.2629C10.4298 27.072 8.87478 28.4456 7.73956 31.2286C7.25136 32.4254 7 33.7033 7 34.994V41H9V34.994C9 33.9633 9.20068 32.9418 9.59141 31.984C10.5341 29.6729 11.7108 28.7064 13.1496 28.1109C13.913 27.7949 14.7716 27.5759 15.7832 27.3456C15.9717 27.3027 16.1656 27.2594 16.3643 27.215C17.2109 27.0258 18.1451 26.8171 19.13 26.5353C20.9625 26.011 22.4511 24.6318 23.0424 22.9664C23.6577 21.2332 23.2701 19.2543 21.4677 17.7962C21.2435 17.6148 21.0224 17.4383 20.8051 17.2649C19.3174 16.0776 18.0092 15.0336 17.1253 13.5438C15.8536 11.4006 15.8558 9.10063 15.8584 6.37296L15.8586 6.00002H13.8586Z" fill="currentColor"/>
</svg>
