<svg width="48" height="48" viewBox="0 0 48 48" fill="none" xmlns="http://www.w3.org/2000/svg">
<path fill-rule="evenodd" clip-rule="evenodd" d="M24.0317 13C24.4773 13 24.838 13.3658 24.838 13.7978V24.8539H26.838V16.6742C26.838 16.2422 27.1986 15.8764 27.6443 15.8764C28.09 15.8764 28.4506 16.2422 28.4506 16.6742V27.6404L30.3387 28.1001L31.8796 25.1231C32.1545 24.5759 32.8443 24.3954 33.3411 24.71L33.3845 24.7375L33.4306 24.7604C33.9838 25.0357 34.1573 25.7167 33.8465 26.2029L33.8348 26.2211L30.1254 32.6142C29.2108 34.1266 27.7211 35 26.0186 35H20.69C18.0767 35 16.0001 32.9264 16.0001 30.3371V17.9326C16.0001 17.5006 16.3607 17.1348 16.8064 17.1348C17.2521 17.1348 17.6127 17.5006 17.6127 17.9326V24.6742H19.6127V15.1461C19.6127 14.7141 19.9733 14.3483 20.419 14.3483C20.8647 14.3483 21.2253 14.7141 21.2253 15.1461V24.764H23.2253V13.7978C23.2253 13.3658 23.586 13 24.0317 13ZM21.511 12.5695C21.9692 11.6399 22.9298 11 24.0317 11C25.5729 11 26.838 12.2522 26.838 13.7978V13.9945C27.0937 13.9177 27.3645 13.8764 27.6443 13.8764C29.1856 13.8764 30.4506 15.1286 30.4506 16.6742V23.6706C31.3892 22.5164 33.0699 22.202 34.3673 22.9931C35.9391 23.8078 36.4712 25.7851 35.5442 27.2602L31.8467 33.6327L31.8424 33.6399C30.5891 35.7188 28.4681 37 26.0186 37H20.69C16.9811 37 14.0001 34.0399 14.0001 30.3371V17.9326C14.0001 16.3871 15.2651 15.1348 16.8064 15.1348C17.0862 15.1348 17.357 15.1761 17.6127 15.2529V15.1461C17.6127 13.6005 18.8777 12.3483 20.419 12.3483C20.8056 12.3483 21.1748 12.4271 21.511 12.5695Z" fill="#333333"/>
<path fill-rule="evenodd" clip-rule="evenodd" d="M24 5C34.4934 5 43 13.5066 43 24C43 34.4934 34.4934 43 24 43C13.5066 43 5 34.4934 5 24C5 13.5066 13.5066 5 24 5ZM45 24C45 12.402 35.598 3 24 3C12.402 3 3 12.402 3 24C3 35.598 12.402 45 24 45C35.598 45 45 35.598 45 24Z" fill="#333333"/>
</svg>
