<svg width="48" height="48" viewBox="0 0 48 48" fill="none" xmlns="http://www.w3.org/2000/svg">
<path fill-rule="evenodd" clip-rule="evenodd" d="M24 8.51907L20.1483 16.3235C19.7113 17.2089 18.8666 17.8226 17.8894 17.9646L9.27676 19.2161L15.509 25.291C16.216 25.9802 16.5387 26.9732 16.3717 27.9464L14.9005 36.5243L22.6039 32.4744C23.4779 32.0149 24.522 32.0149 25.396 32.4744L33.0994 36.5243L31.6282 27.9464C31.4613 26.9732 31.7839 25.9802 32.491 25.291L38.7232 19.2161L30.1105 17.9646C29.1334 17.8226 28.2887 17.2089 27.8517 16.3235L24 8.51907ZM24.8967 5.81696C24.5299 5.07371 23.47 5.07371 23.1032 5.81696L18.3548 15.4384C18.2091 15.7335 17.9276 15.9381 17.6019 15.9854L6.984 17.5283C6.16378 17.6474 5.83627 18.6554 6.42979 19.234L14.1129 26.7232C14.3486 26.9529 14.4562 27.2839 14.4005 27.6083L12.5868 38.1833C12.4467 39.0002 13.3041 39.6231 14.0377 39.2374L23.5346 34.2446C23.826 34.0915 24.174 34.0915 24.4653 34.2446L33.9622 39.2374C34.6958 39.6231 35.5533 39.0002 35.4132 38.1833L33.5994 27.6083C33.5438 27.2839 33.6513 26.9529 33.887 26.7232L41.5701 19.234C42.1637 18.6554 41.8362 17.6474 41.0159 17.5283L30.3981 15.9854C30.0724 15.9381 29.7908 15.7335 29.6452 15.4384L24.8967 5.81696Z" fill="#333333"/>
</svg>
