<svg width="48" height="48" viewBox="0 0 48 48" fill="none" xmlns="http://www.w3.org/2000/svg">
<path fill-rule="evenodd" clip-rule="evenodd" d="M24 12.5191L21.3239 17.9415C20.8869 18.827 20.0422 19.4407 19.0651 19.5826L13.081 20.4522L17.4111 24.673C18.1182 25.3622 18.4408 26.3552 18.2739 27.3284L17.2517 33.2882L22.604 30.4744C23.478 30.0149 24.5221 30.0149 25.396 30.4744L30.7483 33.2882L29.7261 27.3284C29.5592 26.3552 29.8818 25.3622 30.5889 24.673L34.919 20.4522L28.935 19.5826C27.9578 19.4407 27.1131 18.827 26.6761 17.9415L24 12.5191ZM24.8967 9.81696C24.5299 9.07371 23.4701 9.07371 23.1033 9.81695L19.5304 17.0564C19.3847 17.3515 19.1032 17.5561 18.7775 17.6034L10.7883 18.7643C9.96804 18.8835 9.64053 19.8915 10.234 20.47L16.0151 26.1051C16.2508 26.3349 16.3583 26.6659 16.3027 26.9903L14.938 34.9472C14.7979 35.7641 15.6553 36.3871 16.3889 36.0014L23.5347 32.2446C23.826 32.0915 24.174 32.0915 24.4653 32.2446L31.6111 36.0014C32.3447 36.387 33.2022 35.7641 33.062 34.9472L31.6973 26.9903C31.6417 26.6659 31.7492 26.3349 31.9849 26.1051L37.766 20.47C38.3595 19.8915 38.032 18.8835 37.2118 18.7643L29.2226 17.6034C28.8968 17.5561 28.6153 17.3515 28.4696 17.0564L24.8967 9.81696Z" fill="#333333"/>
</svg>
