<svg width="48" height="48" viewBox="0 0 48 48" fill="none" xmlns="http://www.w3.org/2000/svg">
<path fill-rule="evenodd" clip-rule="evenodd" d="M27.1847 36.6486C26.5566 36.2383 25.8062 35.9998 25 35.9998C22.7909 35.9998 21 37.7907 21 39.9998C21 42.209 22.7909 43.9998 25 43.9998C27.2012 43.9998 28.9871 42.2218 28.9999 40.0236L29.2239 35.9998H30.7761L31.0001 40.0236C31.0129 42.2218 32.7988 43.9998 35 43.9998C37.2091 43.9998 39 42.209 39 39.9998C39 37.7907 37.2091 35.9998 35 35.9998C34.1938 35.9998 33.4434 36.2383 32.8153 36.6486L30.9985 4.01025L30 4.06583L29.0015 4.01025L27.1847 36.6486ZM30.6648 33.9998L30 22.058L29.3352 33.9998H30.6648ZM31 18C31 18.5523 30.5523 19 30 19C29.4477 19 29 18.5523 29 18C29 17.4477 29.4477 17 30 17C30.5523 17 31 17.4477 31 18ZM23 39.9998C23 38.8953 23.8954 37.9998 25 37.9998C26.1046 37.9998 27 38.8953 27 39.9998C27 41.1044 26.1046 41.9998 25 41.9998C23.8954 41.9998 23 41.1044 23 39.9998ZM35 37.9998C33.8954 37.9998 33 38.8953 33 39.9998C33 41.1044 33.8954 41.9998 35 41.9998C36.1046 41.9998 37 41.1044 37 39.9998C37 38.8953 36.1046 37.9998 35 37.9998Z" fill="#333333"/>
<path fill-rule="evenodd" clip-rule="evenodd" d="M17 4.23389V16.0001C17 17.6569 15.6569 19.0001 14 19.0001C12.3595 19.0001 10.9544 17.6523 11.0638 15.9334C11.3253 11.8234 12.3507 9.16292 13.3671 7.50053C13.874 6.67145 14.3733 6.09945 14.7625 5.72519C14.9568 5.53833 15.1229 5.40144 15.2479 5.30684C15.3103 5.25956 15.3624 5.22288 15.4026 5.19582C15.4226 5.18229 15.4397 5.17118 15.4536 5.16234L15.472 5.15079L15.4794 5.14628L15.4826 5.14433L15.4841 5.14343C15.4848 5.143 15.4855 5.14258 16 6.00008L15.4855 5.14258L17 4.23389ZM15 8.66598C14.1919 10.0348 13.296 12.3464 13.0597 16.0604C13.0288 16.5462 13.4314 17.0001 14 17.0001C14.5523 17.0001 15 16.5524 15 16.0001V8.66598Z" fill="#333333"/>
<path fill-rule="evenodd" clip-rule="evenodd" d="M15 41.5V20.5C15 20.2239 14.7761 20 14.5 20C14.2239 20 14 20.2239 14 20.5V41.5C14 41.7761 14.2239 42 14.5 42C14.7761 42 15 41.7761 15 41.5ZM14.5 18C13.1193 18 12 19.1193 12 20.5V41.5C12 42.8807 13.1193 44 14.5 44C15.8807 44 17 42.8807 17 41.5V20.5C17 19.1193 15.8807 18 14.5 18Z" fill="#333333"/>
<path fill-rule="evenodd" clip-rule="evenodd" d="M12.2929 23.293L15.2929 20.293L16.7071 21.7072L13.7071 24.7072L12.2929 23.293Z" fill="#333333"/>
<path fill-rule="evenodd" clip-rule="evenodd" d="M12.2929 27.293L15.2929 24.293L16.7071 25.7072L13.7071 28.7072L12.2929 27.293Z" fill="#333333"/>
<path fill-rule="evenodd" clip-rule="evenodd" d="M12.2929 31.293L15.2929 28.293L16.7071 29.7072L13.7071 32.7072L12.2929 31.293Z" fill="#333333"/>
</svg>
