<svg width="48" height="48" viewBox="0 0 48 48" fill="none" xmlns="http://www.w3.org/2000/svg">
<path fill-rule="evenodd" clip-rule="evenodd" d="M22.8499 3.55467C21.9211 2.53302 20.34 2.45773 19.3183 3.38649L13.8183 8.38648C12.8056 9.30713 12.7215 10.871 13.6295 11.895L17.5832 16.3536V42.1292C17.5832 43.5805 18.7664 44.7638 20.2177 44.7638C21.669 44.7638 22.8523 43.5805 22.8523 42.1292V30.9564H25.1215V42.1292C25.1215 43.5805 26.3047 44.7638 27.756 44.7638C29.2073 44.7638 30.3906 43.5805 30.3906 42.1292V24.7441C30.5479 24.676 30.702 24.5965 30.8491 24.5104C31.3357 24.2257 31.8541 23.8059 32.3292 23.2436C33.2893 22.1071 34.0657 20.3968 34.0657 18.0557C34.0657 16.1527 33.2279 14.707 32.2721 13.752C31.7967 13.2771 31.2835 12.9138 30.8087 12.6647C30.3649 12.4319 29.8525 12.2452 29.3906 12.2452H21.5639C21.5218 12.2452 21.4798 12.2458 21.438 12.2471H20.6245L19.0088 10.4252L22.6817 7.0862C23.7033 6.15743 23.7786 4.57631 22.8499 3.55467ZM20.6637 4.86637C20.868 4.68062 21.1842 4.69568 21.37 4.90001C21.5557 5.10434 21.5407 5.42056 21.3364 5.60632L16.9326 9.60969L16.2018 10.2741L16.8571 11.0131L19.4265 13.9106L19.7249 14.2471H20.1747H21.4546H21.4725L21.4904 14.2465C21.5147 14.2456 21.5392 14.2452 21.5639 14.2452H29.3906C29.389 14.2452 29.3905 14.2455 29.3951 14.2464C29.4259 14.2525 29.5931 14.2855 29.8795 14.4358C30.178 14.5924 30.5275 14.8362 30.8585 15.1669C31.5155 15.8232 32.0657 16.7827 32.0657 18.0557C32.0657 19.9282 31.4541 21.1804 30.8014 21.9529C30.6658 22.1134 30.5281 22.2536 30.3931 22.3748V16.2199H28.3931V22.9806H28.3906V23.9806V42.1292C28.3906 42.476 28.1028 42.7638 27.756 42.7638C27.4093 42.7638 27.1215 42.476 27.1215 42.1292V29.9564V28.9564H26.1215H21.8523H20.8523V29.9564V42.1292C20.8523 42.476 20.5645 42.7638 20.2177 42.7638C19.871 42.7638 19.5832 42.476 19.5832 42.1292V16.2452C19.5832 16.1766 19.5865 16.1091 19.593 16.0428L19.6476 15.4842L19.1992 15.1466C19.1729 15.1267 19.1483 15.1041 19.1259 15.0789L15.1259 10.5681C14.9443 10.3633 14.9611 10.0505 15.1637 9.86636L20.6637 4.86637Z" fill="#333333"/>
<path fill-rule="evenodd" clip-rule="evenodd" d="M24.0001 11C25.6569 11 27.0001 9.65685 27.0001 8C27.0001 6.34315 25.6569 5 24.0001 5C23.4491 5 22.9327 5.14856 22.489 5.4078C22.5792 5.09328 22.5949 4.78447 22.5001 4.5C22.3415 4.02435 22.0206 3.74247 21.6495 3.58586C22.3502 3.21195 23.1504 3 24.0001 3C25.555 3 26.9441 3.70978 27.8612 4.82301C27.6839 5.08816 27.4981 5.40315 27.3446 5.74634C27.1449 6.193 27.0001 6.68741 27.0001 7.18182C27.0001 8.18597 27.6716 9 28.5001 9C28.6436 9 28.7823 8.97558 28.9137 8.92997C28.4779 11.247 26.4437 13 24.0001 13C21.6967 13 19.7571 11.4424 19.177 9.32309L20.5001 8C20.6589 7.87295 20.8444 7.71078 21.0378 7.52319C21.013 7.67848 21.0001 7.83773 21.0001 8C21.0001 9.65685 22.3432 11 24.0001 11Z" fill="#333333"/>
<path fill-rule="evenodd" clip-rule="evenodd" d="M28.5 8C28.7423 8 29 7.78992 29 7.45455C29 7.1169 28.8305 6.64445 28.5 6.10554C28.1695 6.64445 28 7.1169 28 7.45455C28 7.78992 28.2577 8 28.5 8ZM27.1729 4.49648C27.1835 4.482 27.194 4.46759 27.2046 4.45326C27.8443 3.58414 28.5 3 28.5 3C28.5 3 29.1557 3.58414 29.7954 4.45326C29.806 4.46759 29.8165 4.482 29.8271 4.49648C30.4253 5.31886 31 6.3867 31 7.45455C31 8.86036 29.8807 10 28.5 10C27.1193 10 26 8.86036 26 7.45455C26 6.3867 26.5747 5.31886 27.1729 4.49648Z" fill="#333333"/>
</svg>
