<svg width="48" height="48" viewBox="0 0 48 48" fill="none" xmlns="http://www.w3.org/2000/svg">
<rect width="48" height="48" fill="white"/>
<path fill-rule="evenodd" clip-rule="evenodd" d="M6.81818 14.5002C6.36631 14.0483 6.36631 13.3157 6.81818 12.8638L13.3636 6.31822C13.8155 5.86634 14.5481 5.86634 15 6.31822C15.4518 6.7701 15.4518 7.50274 15 7.95462L14.1823 8.77229L18.2727 12.8627L21.5454 9.58995C21.9973 9.13808 22.7299 9.13807 23.1818 9.58995C23.6336 10.0418 23.6336 10.7745 23.1818 11.2264L21.545 12.8632L35.4545 26.773C37.132 28.4506 37.564 30.9021 36.7504 32.9782L37.9089 34.1367C38.5144 34.7423 38.7142 35.5999 38.5083 36.3718L41.1818 39.0454C41.6337 39.4973 41.6337 40.23 41.1818 40.6818C40.73 41.1337 39.9974 41.1337 39.5455 40.6818L36.8724 38.0086C36.1002 38.2151 35.242 38.0154 34.6362 37.4095L33.4777 36.251C31.4016 37.0645 28.9502 36.6325 27.2727 34.955L25.1328 32.8142L31.9 26.0469L20.1308 14.2774L14.7774 19.6309L17.1464 22H14.3181L13.3632 21.0451L11.7272 22.6811C11.2754 23.133 10.5428 23.133 10.0909 22.6811C9.63902 22.2293 9.63902 21.4966 10.0909 21.0447L13.3636 17.7719L9.27324 13.6815L8.45454 14.5002C8.00267 14.9521 7.27005 14.9521 6.81818 14.5002ZM12.7681 10.1865L16.8585 14.277L14.7778 16.3577L10.6874 12.2673L12.7681 10.1865ZM28.6869 33.5408L28.183 33.0368L33.5364 27.6833L34.0403 28.1872C35.1383 29.2853 35.4208 30.8901 34.8877 32.2488L32.7484 34.3881C31.3897 34.9213 29.7849 34.6388 28.6869 33.5408ZM35.4545 34.955C35.3799 35.0295 35.3039 35.1016 35.2264 35.1713L36.0504 35.9953C36.1731 36.118 36.372 36.118 36.4947 35.9953C36.6174 35.8726 36.6174 35.6737 36.4947 35.551L35.6707 34.7269C35.6011 34.8044 35.529 34.8805 35.4545 34.955Z" fill="#333333"/>
<path d="M16 28C16.5523 28 17 28.4477 17 29V31H19C19.5523 31 20 31.4477 20 32C20 32.5523 19.5523 33 19 33H17V35C17 35.5523 16.5523 36 16 36C15.4477 36 15 35.5523 15 35V33H13C12.4477 33 12 32.5523 12 32C12 31.4477 12.4477 31 13 31H15V29C15 28.4477 15.4477 28 16 28Z" fill="#333333"/>
<path fill-rule="evenodd" clip-rule="evenodd" d="M8.65965 37.6888C10.3871 39.8713 12.8 41.3922 15.4992 42C18.1987 41.3926 20.612 39.8717 22.3397 37.6892C24.0674 35.5067 25.006 32.7934 25 29.9984V26.3997C25 25.7633 24.7498 25.1529 24.3045 24.7029C23.8592 24.2528 23.2553 24 22.6256 24H8.37441C7.74469 24 7.14076 24.2528 6.69547 24.7029C6.25019 25.1529 6.00003 25.7633 6.00003 26.3997V29.9984C5.99395 32.7932 6.93225 35.5063 8.65965 37.6888ZM23 29.9984L23 30.0027C23.005 32.3476 22.2174 34.6214 20.7716 36.4479C19.4208 38.1542 17.5719 39.3738 15.4993 39.9395C13.427 39.3736 11.5784 38.1539 10.2279 36.4476C8.78229 34.6211 7.99493 32.3475 8.00003 30.0027V26.3997C8.00003 26.2869 8.04456 26.1829 8.11716 26.1096C8.18904 26.0369 8.282 26 8.37441 26H22.6256C22.718 26 22.811 26.0369 22.8828 26.1096C22.9554 26.1829 23 26.2869 23 26.3997L23 29.9984Z" fill="#333333"/>
</svg>
