<svg width="48" height="48" viewBox="0 0 48 48" fill="none" xmlns="http://www.w3.org/2000/svg">
<path fill-rule="evenodd" clip-rule="evenodd" d="M10.9517 12.1026C13.0377 9.60753 15.826 7.71984 19.0127 6.74341C19.3803 5.76034 20.0137 4.90717 20.8223 4.26465C15.6985 5.12736 11.271 8.04097 8.41314 12.1321C8.57095 12.1126 8.73138 12.1026 8.89375 12.1026H10.9517ZM7.35899 19.5082C6.6598 19.2093 6.06122 18.7124 5.64197 18.0846C5.22323 19.6525 5 21.3002 5 23.0001C5 28.8499 7.64365 34.0822 11.8014 37.5676L12.4223 35.4483C9.08653 32.3445 7 27.9159 7 23.0001C7 21.8032 7.12369 20.6352 7.35899 19.5082ZM19.4132 39.3741L18.8904 40.6132C18.8628 40.8377 18.8158 41.0557 18.7513 41.2658C20.4183 41.744 22.1793 42.0001 24 42.0001C25.8207 42.0001 27.5817 41.744 29.2487 41.2658C29.1842 41.0557 29.1372 40.8377 29.1096 40.6132L28.5868 39.3741C27.1277 39.782 25.5893 40.0001 24 40.0001C22.4107 40.0001 20.8723 39.782 19.4132 39.3741ZM35.5777 35.4483L36.1986 37.5676C40.3563 34.0822 43 28.8499 43 23.0001C43 21.3002 42.7768 19.6525 42.358 18.0846C41.9388 18.7124 41.3402 19.2093 40.641 19.5082C40.8763 20.6352 41 21.8032 41 23.0001C41 27.9159 38.9135 32.3445 35.5777 35.4483ZM37.0483 12.1026H39.1062C39.2686 12.1026 39.429 12.1126 39.5869 12.1321C36.948 8.35445 32.9708 5.58079 28.3429 4.4987C29.1073 5.18768 29.6869 6.07685 29.9917 7.08608C32.76 8.12888 35.1845 9.8733 37.0483 12.1026Z" fill="#333333"/>
<path fill-rule="evenodd" clip-rule="evenodd" d="M24.4443 4C21.826 4 19.6568 6.1046 19.6568 8.71967C19.6568 10.7117 20.9155 12.4075 22.6726 13.1025H16.7576C17.3158 13.6339 17.7207 14.325 17.8989 15.1025H39.1062C39.6126 15.1025 40 15.5087 40 15.9623C40 16.416 39.6126 16.8221 39.1062 16.8221H28.3298H26.9948L27.3701 18.1033L28.0708 20.4951C28.6429 20.1796 29.3005 20 30 20L30.0099 20L29.6648 18.8221H39.1062C40.683 18.8221 42 17.5545 42 15.9623C42 14.3702 40.683 13.1025 39.1062 13.1025H26.2161C27.9732 12.4075 29.2318 10.7117 29.2318 8.71967C29.2318 6.10461 27.0626 4 24.4443 4ZM33.8599 40.2552L30.267 27.9912C30.9642 27.9453 31.6126 27.7207 32.1669 27.3628L35.8279 39.859L35.8683 39.9967V40.1402C35.8683 41.7323 34.5512 43 32.9745 43C31.7127 43 30.7778 42.0524 30.1357 41.1311C29.4545 40.1536 28.87 38.8715 28.3743 37.5887C27.8743 36.295 27.4421 34.9397 27.0831 33.7919L26.9654 33.4151L26.9654 33.4151C26.77 32.789 26.6038 32.2566 26.4625 31.841H24.8295C24.5871 31.0389 24.0995 30.3432 23.454 29.841H24.1996H27.1577H27.8211L28.079 30.4523C28.3006 30.9776 28.5706 31.8438 28.8694 32.8024L28.8694 32.8024L28.9919 33.1948C29.3505 34.3412 29.7658 35.6411 30.2398 36.8678C30.7181 38.1055 31.2341 39.2093 31.7765 39.9876C32.358 40.8219 32.7699 41 32.9745 41C33.4376 41 33.8012 40.6603 33.8599 40.2552ZM17.7602 36.8678C17.8952 36.5186 18.0253 36.1634 18.1508 35.8075C18.6288 36.2925 19.2296 36.6561 19.9029 36.8477C19.813 37.0957 19.7206 37.3433 19.6257 37.5887C19.13 38.8715 18.5455 40.1536 17.8643 41.1311C17.2222 42.0524 16.2873 43 15.0255 43C13.4488 43 12.1318 41.7323 12.1318 40.1402V39.9967L12.1721 39.859L18.3352 18.8221H16.8347C17.3706 18.2839 17.7542 17.5938 17.9154 16.8221H19.6702H21.0052L20.6299 18.1033L14.1401 40.2552C14.1988 40.6603 14.5624 41 15.0255 41C15.2301 41 15.642 40.8219 16.2235 39.9876C16.7659 39.2093 17.2819 38.1055 17.7602 36.8678ZM11.1653 18.8221C10.6294 18.2839 10.2458 17.5938 10.0846 16.8221H8.89375C8.38736 16.8221 8 16.416 8 15.9623C8 15.5087 8.38736 15.1025 8.89375 15.1025H10.1011C10.2793 14.325 10.6842 13.6339 11.2424 13.1025H8.89375C7.31702 13.1025 6 14.3702 6 15.9623C6 17.5545 7.31702 18.8221 8.89375 18.8221H11.1653ZM21.6568 8.71967C21.6568 7.2431 22.8964 6 24.4443 6C25.9923 6 27.2318 7.2431 27.2318 8.71967C27.2318 10.1962 25.9923 11.4393 24.4443 11.4393C22.8964 11.4393 21.6568 10.1962 21.6568 8.71967Z" fill="#333333"/>
<path fill-rule="evenodd" clip-rule="evenodd" d="M14 18C15.1046 18 16 17.1046 16 16C16 14.8954 15.1046 14 14 14C12.8954 14 12 14.8954 12 16C12 17.1046 12.8954 18 14 18ZM14 20C16.2091 20 18 18.2091 18 16C18 13.7909 16.2091 12 14 12C11.7909 12 10 13.7909 10 16C10 18.2091 11.7909 20 14 20Z" fill="#333333"/>
<path fill-rule="evenodd" clip-rule="evenodd" d="M30 26C31.1046 26 32 25.1046 32 24C32 22.8954 31.1046 22 30 22C28.8954 22 28 22.8954 28 24C28 25.1046 28.8954 26 30 26ZM30 28C32.2091 28 34 26.2091 34 24C34 21.7909 32.2091 20 30 20C27.7909 20 26 21.7909 26 24C26 26.2091 27.7909 28 30 28Z" fill="#333333"/>
<path fill-rule="evenodd" clip-rule="evenodd" d="M21 35C22.1046 35 23 34.1046 23 33C23 31.8954 22.1046 31 21 31C19.8954 31 19 31.8954 19 33C19 34.1046 19.8954 35 21 35ZM21 37C23.2091 37 25 35.2091 25 33C25 30.7909 23.2091 29 21 29C18.7909 29 17 30.7909 17 33C17 35.2091 18.7909 37 21 37Z" fill="#333333"/>
</svg>
