<svg width="48" height="48" viewBox="0 0 48 48" fill="none" xmlns="http://www.w3.org/2000/svg">
<path fill-rule="evenodd" clip-rule="evenodd" d="M8.34524 21.6765H5.74524V28.4765H14.3452V27.6765C14.3452 24.3628 11.659 21.6765 8.34524 21.6765ZM3.74524 19.6765V30.4765H16.3452V27.6765C16.3452 23.2582 12.7635 19.6765 8.34524 19.6765H3.74524Z" fill="#333333"/>
<path fill-rule="evenodd" clip-rule="evenodd" d="M23.9952 28.4766C26.6186 28.4766 28.7452 26.3499 28.7452 23.7266C28.7452 21.1032 26.6186 18.9766 23.9952 18.9766C21.3719 18.9766 19.2452 21.1032 19.2452 23.7266C19.2452 26.3499 21.3719 28.4766 23.9952 28.4766ZM23.9952 30.4766C27.7232 30.4766 30.7452 27.4545 30.7452 23.7266C30.7452 19.9986 27.7232 16.9766 23.9952 16.9766C20.2673 16.9766 17.2452 19.9986 17.2452 23.7266C17.2452 27.4545 20.2673 30.4766 23.9952 30.4766Z" fill="#333333"/>
<path fill-rule="evenodd" clip-rule="evenodd" d="M2.74524 34.9765C2.74524 33.4301 3.99884 32.1765 5.54524 32.1765H35.2452V34.1765H5.54524C5.10341 34.1765 4.74524 34.5347 4.74524 34.9765C4.74524 35.4183 5.10341 35.7765 5.54524 35.7765H30.7662V37.7765H5.54524C3.99884 37.7765 2.74524 36.5229 2.74524 34.9765Z" fill="#333333"/>
<path fill-rule="evenodd" clip-rule="evenodd" d="M8.80295 12.783C12.2676 8.17037 17.7871 5.18359 24.0038 5.18359C34.4972 5.18359 43.0038 13.6902 43.0038 24.1836C43.0038 34.677 34.4972 43.1836 24.0038 43.1836C18.689 43.1836 13.8823 41 10.4352 37.4836L8.76857 35.7836H17.2859L17.5122 35.9092C19.4345 36.9758 21.6467 37.5836 24.0039 37.5836C31.4045 37.5836 37.4039 31.5842 37.4039 24.1836C37.4039 16.783 31.4045 10.7836 24.0039 10.7836C20.6048 10.7836 17.5034 12.0479 15.1406 14.1333L14.8571 14.3836H7.60071L8.80295 12.783ZM11.7661 12.3836H14.1079C16.7837 10.1374 20.2368 8.78359 24.0039 8.78359C32.509 8.78359 39.4039 15.6784 39.4039 24.1836C39.4039 32.6888 32.509 39.5836 24.0039 39.5836C21.3922 39.5836 18.9298 38.9327 16.7728 37.7836H13.802C16.6439 39.9191 20.1756 41.1836 24.0038 41.1836C33.3927 41.1836 41.0038 33.5724 41.0038 24.1836C41.0038 14.7948 33.3927 7.18359 24.0038 7.18359C19.1986 7.18359 14.859 9.1765 11.7661 12.3836Z" fill="#333333"/>
</svg>
