<svg width="48" height="48" viewBox="0 0 48 48" fill="none" xmlns="http://www.w3.org/2000/svg">
<path fill-rule="evenodd" clip-rule="evenodd" d="M18.3914 14.6872C18.0158 14.3005 17.4788 14 16.5247 14C16.2065 14 15.7482 14.134 15.1298 14.6538C14.5049 15.1789 13.8313 16.0065 13.1479 17.1386C11.7827 19.4001 10.5785 22.5399 9.67324 25.8609C8.77147 29.1692 8.20056 32.5308 8.0438 35.1806C7.965 36.5125 7.99539 37.5936 8.11224 38.3686C8.17061 38.7557 8.24241 39.0098 8.30162 39.1577C8.3077 39.1729 8.31326 39.186 8.31823 39.1972C9.27768 39.9272 10.9159 40.2192 12.9509 39.8246C15.0093 39.4254 17.0275 38.3957 18.3056 37.1211C18.7492 36.6787 19.1462 35.9486 19.4427 34.8599C19.7359 33.7838 19.8929 32.4988 19.9596 31.0985C20.0259 29.7058 20.0005 28.266 19.9557 26.8908C19.9434 26.5136 19.9294 26.1352 19.9155 25.7624C19.8804 24.8156 19.8466 23.9056 19.8466 23.1456C19.8466 22.8877 19.8491 22.6146 19.8518 22.3296C19.867 20.6822 19.8859 18.6399 19.441 16.8649C19.1868 15.851 18.8248 15.1334 18.3914 14.6872ZM8.34528 39.2512C8.34525 39.2512 8.34433 39.2498 8.34259 39.2468C8.34444 39.2496 8.3453 39.2511 8.34528 39.2512ZM21.8522 22.4003C21.89 18.8716 21.9636 12 16.5247 12C9.07413 12 3.75222 38.0065 6.94536 40.6602C10.1385 43.3139 16.5247 41.7217 19.7179 38.5372C22.2959 35.9662 22.0728 29.9586 21.9127 25.646C21.8782 24.7167 21.8466 23.8661 21.8466 23.1456C21.8466 22.9197 21.8493 22.6698 21.8522 22.4003Z" fill="#333333"/>
<path fill-rule="evenodd" clip-rule="evenodd" d="M29.6086 14.6872C29.9842 14.3005 30.5212 14 31.4753 14C31.7935 14 32.2518 14.134 32.8702 14.6538C33.4951 15.1789 34.1687 16.0065 34.8521 17.1386C36.2173 19.4001 37.4215 22.5399 38.3268 25.8609C39.2285 29.1692 39.7994 32.5308 39.9562 35.1806C40.035 36.5125 40.0046 37.5936 39.8878 38.3686C39.8294 38.7557 39.7576 39.0098 39.6984 39.1577C39.6923 39.1729 39.6867 39.186 39.6818 39.1972C38.7223 39.9272 37.0841 40.2192 35.0491 39.8246C32.9907 39.4254 30.9725 38.3957 29.6944 37.1211C29.2508 36.6787 28.8538 35.9486 28.5573 34.8599C28.2641 33.7838 28.1071 32.4988 28.0404 31.0985C27.9741 29.7058 27.9995 28.266 28.0443 26.8908C28.0566 26.5136 28.0706 26.1352 28.0845 25.7624C28.1196 24.8156 28.1534 23.9056 28.1534 23.1456C28.1534 22.8877 28.1509 22.6146 28.1482 22.3296C28.133 20.6822 28.1141 18.6399 28.559 16.8649C28.8132 15.851 29.1752 15.1334 29.6086 14.6872ZM39.6547 39.2512C39.6548 39.2512 39.6557 39.2498 39.6574 39.2468C39.6556 39.2496 39.6547 39.2511 39.6547 39.2512ZM26.1478 22.4003C26.11 18.8716 26.0364 12 31.4753 12C38.9259 12 44.2478 38.0065 41.0546 40.6602C37.8615 43.3139 31.4753 41.7217 28.2821 38.5372C25.7041 35.9662 25.9272 29.9586 26.0873 25.646C26.1218 24.7167 26.1534 23.8661 26.1534 23.1456C26.1534 22.9197 26.1507 22.6698 26.1478 22.4003Z" fill="#333333"/>
<path fill-rule="evenodd" clip-rule="evenodd" d="M23 6.00013C23 6.00004 23 6 24 6C25 6 25 6.00004 25 6.00013V20.5C25 22.6023 24.064 23.8079 23.0038 24.4263C22.5064 24.7164 22.0178 24.8573 21.6596 24.9269C21.4785 24.9621 21.3249 24.9803 21.2119 24.9897C21.1552 24.9944 21.1082 24.997 21.0725 24.9984C21.0546 24.9991 21.0395 24.9995 21.0274 24.9997L21.0114 24.9999L21.0051 25L21.0024 25L21.0011 25C21.0005 25 21 25 21 24C21 23 20.9994 23 20.9988 23L20.9978 23L20.9959 23L20.9929 23L20.9897 23.0001C20.9897 23.0001 20.9913 23 20.9948 22.9999C21.003 22.9996 21.0205 22.9987 21.0458 22.9966C21.0969 22.9924 21.1776 22.9832 21.2778 22.9637C21.4821 22.924 21.7435 22.8461 21.9961 22.6987C22.4359 22.4421 23 21.8977 23 20.5V6.00013Z" fill="#333333"/>
<path fill-rule="evenodd" clip-rule="evenodd" d="M25 6.00013C25 6.00004 25 6 24 6C23 6 23 6.00004 23 6.00013V20.5C23 22.6023 23.936 23.8079 24.9962 24.4263C25.4936 24.7164 25.9822 24.8573 26.3404 24.9269C26.5215 24.9621 26.6751 24.9803 26.7881 24.9897C26.8448 24.9944 26.8918 24.997 26.9275 24.9984C26.9454 24.9991 26.9605 24.9995 26.9726 24.9997L26.9886 24.9999L26.9949 25L26.9976 25L26.9989 25C26.9995 25 27 25 27 24C27 23 27.0006 23 27.0012 23L27.0022 23L27.0041 23L27.0071 23L27.0103 23.0001C27.0103 23.0001 27.0087 23 27.0052 22.9999C26.997 22.9996 26.9795 22.9987 26.9542 22.9966C26.9031 22.9924 26.8224 22.9832 26.7222 22.9637C26.5179 22.924 26.2565 22.8461 26.0039 22.6987C25.5641 22.4421 25 21.8977 25 20.5V6.00013Z" fill="#333333"/>
<path fill-rule="evenodd" clip-rule="evenodd" d="M33.5 19C33.7761 19 34 18.7761 34 18.5C34 18.2239 33.7761 18 33.5 18C33.2239 18 33 18.2239 33 18.5C33 18.7761 33.2239 19 33.5 19ZM33.5 21C34.8807 21 36 19.8807 36 18.5C36 17.1193 34.8807 16 33.5 16C32.1193 16 31 17.1193 31 18.5C31 19.8807 32.1193 21 33.5 21Z" fill="#333333"/>
<path fill-rule="evenodd" clip-rule="evenodd" d="M32.5 31C32.7761 31 33 30.7761 33 30.5C33 30.2239 32.7761 30 32.5 30C32.2239 30 32 30.2239 32 30.5C32 30.7761 32.2239 31 32.5 31ZM32.5 33C33.8807 33 35 31.8807 35 30.5C35 29.1193 33.8807 28 32.5 28C31.1193 28 30 29.1193 30 30.5C30 31.8807 31.1193 33 32.5 33Z" fill="#333333"/>
<path fill-rule="evenodd" clip-rule="evenodd" d="M38.5 29C38.7761 29 39 28.7761 39 28.5C39 28.2239 38.7761 28 38.5 28C38.2239 28 38 28.2239 38 28.5C38 28.7761 38.2239 29 38.5 29ZM38.5 31C39.8807 31 41 29.8807 41 28.5C41 27.1193 39.8807 26 38.5 26C37.1193 26 36 27.1193 36 28.5C36 29.8807 37.1193 31 38.5 31Z" fill="#333333"/>
<path fill-rule="evenodd" clip-rule="evenodd" d="M31 25C31.5523 25 32 24.5523 32 24C32 23.4477 31.5523 23 31 23C30.4477 23 30 23.4477 30 24C30 24.5523 30.4477 25 31 25ZM31 27C32.6569 27 34 25.6569 34 24C34 22.3431 32.6569 21 31 21C29.3431 21 28 22.3431 28 24C28 25.6569 29.3431 27 31 27Z" fill="#333333"/>
</svg>
