<svg width="48" height="48" viewBox="0 0 48 48" fill="none" xmlns="http://www.w3.org/2000/svg">
<path fill-rule="evenodd" clip-rule="evenodd" d="M19 14.0479H29V18.0479H27V17.0479C27 16.4956 26.5523 16.0479 26 16.0479C25.4477 16.0479 25 16.4956 25 17.0479V18.0479H23V17.0479C23 16.4956 22.5523 16.0479 22 16.0479C21.4477 16.0479 21 16.4956 21 17.0479V18.0479H19V14.0479ZM17 20.0479V18.0479V14.0479V12.0479H31V14.0479V20.0479H17ZM17 25.0479H31V29.0479H29V28.0479C29 27.4956 28.5523 27.0479 28 27.0479C27.4477 27.0479 27 27.4956 27 28.0479V29.0479H25V28.0479C25 27.4956 24.5523 27.0479 24 27.0479C23.4477 27.0479 23 27.4956 23 28.0479V29.0479H21V28.0479C21 27.4956 20.5523 27.0479 20 27.0479C19.4477 27.0479 19 27.4956 19 28.0479V29.0479H17V25.0479ZM15 31.0479V29.0479V23.0479H33V31.0479H15ZM27 42.0479V40.0479H21V42.0479H27ZM29 42.0479V40.0479C29 38.9433 28.1046 38.0479 27 38.0479H21C19.8954 38.0479 19 38.9433 19 40.0479V42.0479H17V36.0479H31V42.0479H29ZM11 44.0479V34.0479H37V44.0479H11ZM33 42.0479V36.0479H35V42.0479H33ZM15 42.0479V36.0479H13V42.0479H15Z" fill="#333333"/>
<path fill-rule="evenodd" clip-rule="evenodd" d="M15.428 13.7069C14.7028 13.3157 14 12.4907 14 10.7622C14.6826 11.4936 15.4235 11.7798 16.1829 11.7514C18.6549 11.6592 21.3228 8.23366 22.8149 5.98202C23.5503 4.87239 24 4.04785 24 4.04785C24 4.04785 24.4497 4.87239 25.1851 5.98202C26.6772 8.23366 29.3451 11.6592 31.8171 11.7514C32.5765 11.7798 33.3174 11.4936 34 10.7622C34 12.4908 33.2972 13.3158 32.5719 13.7069C31.7987 14.1239 31 14.0479 31 14.0479H17C17 14.0479 16.2012 14.1239 15.428 13.7069ZM27.785 12.0479H20.215C20.872 11.5197 21.4669 10.9255 21.9842 10.3527C22.7465 9.50874 23.4325 8.60631 24 7.79502C24.5675 8.60631 25.2535 9.50874 26.0158 10.3527C26.5331 10.9255 27.128 11.5197 27.785 12.0479Z" fill="#333333"/>
<path fill-rule="evenodd" clip-rule="evenodd" d="M32.55 29.0479H15C15 29.0479 13.5957 33.1438 11.3241 33.6769C10.6261 33.8407 9.8462 33.668 9 32.9367C9 34.597 10.0252 35.3713 10.9815 35.7323C11.8171 36.0479 12.6 36.0479 12.6 36.0479H35.4C35.4 36.0479 36.1817 36.0479 37.0165 35.7331C37.9733 35.3723 39 34.5982 39 32.9367C38.1722 33.6522 37.384 33.8329 36.661 33.687C34.24 33.1986 32.55 29.0479 32.55 29.0479ZM33.4533 34.0479C33.2515 33.85 33.0684 33.6501 32.9042 33.4579C32.1978 32.6308 31.6536 31.7216 31.2941 31.0479H16.3301C16.0162 31.7123 15.5493 32.5824 14.9336 33.3806C14.7676 33.5958 14.5777 33.8229 14.3634 34.0479H33.4533Z" fill="#333333"/>
<path fill-rule="evenodd" clip-rule="evenodd" d="M30.65 18.0479H17C17 18.0479 15.1999 21.9857 13.1185 22.6417C12.4248 22.8603 11.6999 22.7144 11 21.9367C11 23.5993 11.7996 24.3734 12.5443 24.7338C13.193 25.0479 13.8 25.0479 13.8 25.0479H34.2C34.2 25.0479 34.8071 25.0479 35.456 24.7337C36.2005 24.3732 37 23.5991 37 21.9367C36.3155 22.6973 35.5862 22.8536 34.8749 22.6556C32.6765 22.0438 30.65 18.0479 30.65 18.0479ZM31.8246 23.0479C31.6318 22.8642 31.4551 22.6802 31.2952 22.5044C30.5623 21.6983 29.9582 20.8077 29.5484 20.1465C29.5277 20.1132 29.5075 20.0803 29.4877 20.0479H18.2139C18.2083 20.0578 18.2027 20.0677 18.197 20.0778C17.8222 20.7403 17.2649 21.6364 16.5777 22.4497C16.4157 22.6415 16.2332 22.8448 16.0311 23.0479H31.8246Z" fill="#333333"/>
</svg>
