<svg width="48" height="49" viewBox="0 0 48 49" fill="none" xmlns="http://www.w3.org/2000/svg">
<path fill-rule="evenodd" clip-rule="evenodd" d="M21.013 30.011C21.1146 30.7168 20.8326 31.4234 20.273 31.8653C18.8763 32.9685 17.9863 34.6711 17.9879 36.5823C17.9906 39.896 20.6791 42.5801 23.9928 42.5774C27.3065 42.5747 29.9906 39.8862 29.9879 36.5725C29.9863 34.6613 29.0936 32.9601 27.695 31.8593C27.1347 31.4182 26.8516 30.7121 26.952 30.0061C26.9719 29.8663 26.9823 29.7225 26.9821 29.575L26.9658 9.57497C26.9644 7.91812 25.6202 6.57607 23.9633 6.57743C22.3065 6.57879 20.9644 7.92303 20.9658 9.57989L20.9821 29.5799C20.9823 29.7274 20.9929 29.8712 21.013 30.011ZM18.9658 9.58153C18.9635 6.8201 21.2002 4.57969 23.9617 4.57743C26.7231 4.57517 28.9635 6.81191 28.9658 9.57334L28.9821 29.5733C28.9823 29.8159 28.9653 30.0544 28.9321 30.2877C30.7912 31.7512 31.9858 34.0212 31.9879 36.5709C31.9915 40.9891 28.4127 44.5738 23.9944 44.5774C19.5762 44.581 15.9915 41.0023 15.9879 36.584C15.9858 34.0343 17.1767 31.7623 19.0334 30.2958C18.9998 30.0626 18.9823 29.8241 18.9821 29.5815L18.9658 9.58153Z" fill="#333333"/>
<path d="M23.9674 11.5774C23.9669 11.0251 24.4143 10.577 24.9666 10.5766L26.9666 10.5749L26.9682 12.5749L24.9682 12.5766C24.4159 12.577 23.9678 12.1297 23.9674 11.5774Z" fill="#333333"/>
<path d="M23.9707 15.5774C23.9702 15.0251 24.4176 14.577 24.9698 14.5766L26.9698 14.5749L26.9715 16.5749L24.9715 16.5766C24.4192 16.577 23.9711 16.1297 23.9707 15.5774Z" fill="#333333"/>
<path d="M23.974 19.5774C23.9735 19.0251 24.4209 18.577 24.9731 18.5766L26.9731 18.5749L26.9748 20.5749L24.9748 20.5766C24.4225 20.577 23.9744 20.1297 23.974 19.5774Z" fill="#333333"/>
<path fill-rule="evenodd" clip-rule="evenodd" d="M19.2907 30.8741L29.2989 40.8658L30.7119 39.4504L20.7037 29.4587L19.2907 30.8741Z" fill="#333333"/>
<path fill-rule="evenodd" clip-rule="evenodd" d="M19.2874 26.8742L30.2964 37.8651L31.7095 36.4497L20.7005 25.4588L19.2874 26.8742Z" fill="#333333"/>
<path fill-rule="evenodd" clip-rule="evenodd" d="M20.6997 24.2872L27.205 30.7818L28.618 29.3665L22.1127 22.8718L20.6997 24.2872Z" fill="#333333"/>
<path fill-rule="evenodd" clip-rule="evenodd" d="M24.6999 24.284L27.2018 26.7818L28.6149 25.3665L26.1129 22.8686L24.6999 24.284Z" fill="#333333"/>
<path fill-rule="evenodd" clip-rule="evenodd" d="M19.9763 22.5808L27.9764 22.5742L27.978 24.5742L19.9779 24.5808L19.9763 22.5808Z" fill="#333333"/>
<path fill-rule="evenodd" clip-rule="evenodd" d="M18 33.5823L28.0082 43.5741L29.4213 42.1587L19.4131 32.1669L18 33.5823Z" fill="#333333"/>
<path fill-rule="evenodd" clip-rule="evenodd" d="M16.7094 36.2906L24.716 44.284L26.129 42.8686L18.1224 34.8752L16.7094 36.2906Z" fill="#333333"/>
</svg>
