<svg width="48" height="48" viewBox="0 0 48 48" fill="none" xmlns="http://www.w3.org/2000/svg">
<path fill-rule="evenodd" clip-rule="evenodd" d="M31.7112 9C32.9569 9 33.9803 10.0234 33.9803 11.2691C33.9803 12.5149 32.9569 13.5383 31.7112 13.5383C30.4655 13.5383 29.442 12.5149 29.442 11.2691C29.442 10.0234 30.4655 9 31.7112 9ZM35.9803 11.2691C35.9803 8.91883 34.0615 7 31.7112 7C29.3609 7 27.442 8.91883 27.442 11.2691C27.442 13.6195 29.3609 15.5383 31.7112 15.5383C34.0615 15.5383 35.9803 13.6195 35.9803 11.2691Z" fill="#333333"/>
<path fill-rule="evenodd" clip-rule="evenodd" d="M38.0829 18.0955C38.7398 18.7519 39.29 19.7114 39.29 20.9843C39.29 22.8569 38.6784 24.109 38.0257 24.8815C37.8894 25.043 37.7508 25.1839 37.615 25.3056V19.443H35.615V39.0579C35.615 39.4046 35.3271 39.6924 34.9804 39.6924C34.6337 39.6924 34.3458 39.4046 34.3458 39.0579V29.885H29.0767V39.0579C29.0767 39.4046 28.7888 39.6924 28.4421 39.6924C28.0954 39.6924 27.8075 39.4046 27.8075 39.0579V18.443H18.6346C18.2879 18.443 18.0001 18.1551 18.0001 17.8084C18.0001 17.4617 18.2879 17.1738 18.6346 17.1738H36.615C36.6133 17.1738 36.6149 17.1741 36.6195 17.175C36.6502 17.1811 36.8174 17.2141 37.1039 17.3644C37.4024 17.521 37.7518 17.7648 38.0829 18.0955ZM37.615 27.6728C37.7723 27.6046 37.9264 27.5252 38.0735 27.4391C38.5601 27.1543 39.0785 26.7345 39.5535 26.1722C40.5136 25.0357 41.29 23.3254 41.29 20.9843C41.29 19.0813 40.4522 17.6356 39.4964 16.6807C39.0211 16.2058 38.5079 15.8424 38.033 15.5933C37.5893 15.3605 37.0769 15.1738 36.615 15.1738H18.6346C17.1833 15.1738 16.0001 16.3571 16.0001 17.8084C16.0001 19.2597 17.1833 20.443 18.6346 20.443H25.8075V39.0579C25.8075 40.5092 26.9908 41.6924 28.4421 41.6924C29.8934 41.6924 31.0767 40.5092 31.0767 39.0579V31.885H32.3458V39.0579C32.3458 40.5092 33.5291 41.6924 34.9804 41.6924C36.4317 41.6924 37.615 40.5092 37.615 39.0579V27.6728Z" fill="#333333"/>
<path fill-rule="evenodd" clip-rule="evenodd" d="M7 32.5C7 30.8431 8.34315 29.5 10 29.5H21C22.6569 29.5 24 30.8431 24 32.5V38.5C24 40.1569 22.6569 41.5 21 41.5H10C8.34315 41.5 7 40.1569 7 38.5V32.5ZM10 31.5C9.44772 31.5 9 31.9477 9 32.5V38.5C9 39.0523 9.44772 39.5 10 39.5H21C21.5523 39.5 22 39.0523 22 38.5V32.5C22 31.9477 21.5523 31.5 21 31.5H10Z" fill="#333333"/>
<path fill-rule="evenodd" clip-rule="evenodd" d="M11 39.5V31.5H13V39.5H11Z" fill="#333333"/>
<path fill-rule="evenodd" clip-rule="evenodd" d="M18 39.5V31.5H20V39.5H18Z" fill="#333333"/>
<path fill-rule="evenodd" clip-rule="evenodd" d="M12 28C12 26.8954 12.8954 26 14 26H17C18.1046 26 19 26.8954 19 28V30.5H17V28H14V30.5H12V28Z" fill="#333333"/>
</svg>
