<svg width="48" height="48" viewBox="0 0 48 48" fill="none" xmlns="http://www.w3.org/2000/svg">
<path fill-rule="evenodd" clip-rule="evenodd" d="M23.9999 6C19.4999 6 16.9999 7.2 16.9999 7.2V12L13.4712 15.5288C12.8783 16.1217 13.2349 17.1168 14.0713 17.1765C16.0883 17.3204 19.5054 17.5 24 17.5C26.2055 17.5 28.1516 17.4568 29.8001 17.3957L29.7833 17.3963C29.9245 17.9068 30 18.4446 30 19C30 22.3137 27.3137 25 24 25C20.6863 25 18 22.3137 18 19C18 18.4446 18.0755 17.9068 18.2167 17.3963C17.4768 17.369 16.7966 17.3381 16.1797 17.3059C16.062 17.852 16 18.4187 16 19C16 23.4183 19.5817 27 24 27C28.4183 27 32 23.4183 32 19C32 18.4187 31.938 17.852 31.8203 17.3059C32.6363 17.2633 33.3417 17.2184 33.9286 17.1765C34.765 17.1168 35.1216 16.1217 34.5287 15.5288L30.9999 12V7.2C30.9999 7.2 28.4999 6 23.9999 6ZM18.9999 12.8284L16.5082 15.3201C18.4382 15.4174 20.9695 15.5 24 15.5C27.0304 15.5 29.5617 15.4174 31.4917 15.3201L28.9999 12.8284V8.61908C28.9049 8.59275 28.804 8.56598 28.6976 8.53908C27.6562 8.27599 26.0709 8 23.9999 8C21.929 8 20.3437 8.27599 19.3023 8.53908C19.1958 8.56598 19.095 8.59275 18.9999 8.61908V12.8284ZM30.1483 9.00959L30.1472 9.00907L30.1483 9.00959ZM30.1472 9.00907L30.1458 9.00843L30.1472 9.00907Z" fill="#333333"/>
<path d="M25 30.341L30 31.8291V40H25V30.341Z" fill="#333333"/>
<path d="M23 40H18V31.8291L23 30.341V40Z" fill="#333333"/>
</svg>
