<svg width="48" height="48" viewBox="0 0 48 48" fill="none" xmlns="http://www.w3.org/2000/svg">
<path fill-rule="evenodd" clip-rule="evenodd" d="M22.8584 9C24.1042 9 25.1276 10.0234 25.1276 11.2691C25.1276 12.5149 24.1042 13.5383 22.8584 13.5383C21.6127 13.5383 20.5893 12.5149 20.5893 11.2691C20.5893 10.0234 21.6127 9 22.8584 9ZM27.1276 11.2691C27.1276 8.91883 25.2087 7 22.8584 7C20.5081 7 18.5893 8.91883 18.5893 11.2691C18.5893 13.6195 20.5081 15.5383 22.8584 15.5383C25.2087 15.5383 27.1276 13.6195 27.1276 11.2691Z" fill="#333333"/>
<path fill-rule="evenodd" clip-rule="evenodd" d="M29.397 15.3384C29.2072 15.1232 28.9341 15 28.6472 15H17.9547V17H28.1959L33.8715 23.4324C34.3338 23.9563 34.2718 24.7585 33.7345 25.2051C33.2072 25.6433 32.4243 25.5701 31.9874 25.0417L28.7327 21.1046C28.6245 20.6691 28.231 20.3464 27.7622 20.3464C27.2099 20.3464 26.7622 20.7941 26.7622 21.3464V39.0579C26.7622 39.4046 26.4743 39.6924 26.1276 39.6924C25.7809 39.6924 25.493 39.4046 25.493 39.0579V30.885C25.493 30.3327 25.0453 29.885 24.493 29.885H21.2239C20.6716 29.885 20.2239 30.3327 20.2239 30.885V39.0579C20.2239 39.4046 19.936 39.6924 19.5893 39.6924C19.2426 39.6924 18.9547 39.4046 18.9547 39.0579V24H16.9547V39.0579C16.9547 40.5092 18.138 41.6924 19.5893 41.6924C21.0406 41.6924 22.2239 40.5092 22.2239 39.0579V31.885H23.493V39.0579C23.493 40.5092 24.6763 41.6924 26.1276 41.6924C27.5789 41.6924 28.7622 40.5092 28.7622 39.0579V24.2791L30.446 26.316C31.5879 27.6974 33.6346 27.8888 35.0129 26.7431C36.4174 25.5757 36.5796 23.4786 35.3712 22.1092L29.397 15.3384Z" fill="#333333"/>
<path fill-rule="evenodd" clip-rule="evenodd" d="M24.8572 26.3442C25.1344 25.7897 24.9446 25.1153 24.4189 24.7867L18.1172 20.848C17.6488 20.5553 17.5065 19.9384 17.7992 19.47C18.0919 19.0017 18.7089 18.8593 19.1772 19.152L25.4789 23.0907C26.879 23.9658 27.3844 25.7618 26.646 27.2385C25.7904 28.95 23.6348 29.5341 22.0321 28.4889L15.4792 24.2153C13.4056 22.863 12.6456 20.1872 13.6657 17.9429C14.4756 16.161 16.2587 15.0001 18.2232 15.0002L23.1474 15.0006L23.1472 17.0006L18.223 17.0002C17.0501 17.0001 15.9747 17.6961 15.4864 18.7705C14.8709 20.1246 15.3345 21.7333 16.5717 22.5401L23.1247 26.8137C23.7265 27.2061 24.5359 26.9868 24.8572 26.3442Z" fill="#333333"/>
<path fill-rule="evenodd" clip-rule="evenodd" d="M19.3017 24.9661L25.3017 15.4661L26.9927 16.5341L20.9927 26.034L19.3017 24.9661Z" fill="#333333"/>
<path fill-rule="evenodd" clip-rule="evenodd" d="M30.1472 30C30.1472 28.3431 31.4904 27 33.1472 27C34.8041 27 36.1472 28.3431 36.1472 30V41C36.1472 41.5523 35.6995 42 35.1472 42C34.5949 42 34.1472 41.5523 34.1472 41V30C34.1472 29.4477 33.6995 29 33.1472 29C32.5949 29 32.1472 29.4477 32.1472 30V30.5C32.1472 31.0523 31.6995 31.5 31.1472 31.5C30.5949 31.5 30.1472 31.0523 30.1472 30.5V30Z" fill="#333333"/>
</svg>
