<svg width="48" height="48" viewBox="0 0 48 48" fill="none" xmlns="http://www.w3.org/2000/svg">
<path fill-rule="evenodd" clip-rule="evenodd" d="M35 6H33V8H34V10V19C34 21.3266 32.6467 23.6533 31.5144 25.1928C30.7 26.3 30 27 30 27C30.7867 27 31.5204 27.2271 32.139 27.6194C32.6846 27.9653 33.1407 28.4397 33.4649 29H34H35V27H40V29H36C39.3137 29 42 31.6863 42 35V37H40H39H37V35C37 34.4477 36.5523 34 36 34H34V34.5014V38C34 39.4806 33.1956 40.7733 32 41.4649V44H30V42H10V44H8L8 41.4649C6.8044 40.7733 6 39.4806 6 38V34.5017V32V31C6 29.5776 6.74247 28.3286 7.86101 27.6194C8.47963 27.2271 9.21329 27 10 27C10 27 9.29997 26.3 8.4856 25.1928C7.35331 23.6533 6 21.3266 6 19V10V8H7L7 6H5V4H35V6ZM32 32V33.3466C29.5556 34.5439 27.1111 34.096 24.6667 32C24.1111 32.4762 23.5556 32.8673 23 33.1735V29H25V23H23V29H21V23H19V29H17V23H15V29H17V33.1735C16.4444 32.8673 15.8889 32.4762 15.3333 32C12.8889 34.0952 10.4444 34.5442 8 33.3469V31C8 29.8954 8.89543 29 10 29H14.8284L13 27.1716V23H11V25.1339C10.9661 25.0951 10.9305 25.0541 10.8935 25.0109C10.5572 24.6186 10.1092 24.0583 9.6641 23.3906C8.73051 21.9902 8 20.3988 8 19V18H32V19C32 20.3988 31.2695 21.9902 30.3359 23.3906C29.8908 24.0583 29.4428 24.6186 29.1065 25.0109C29.0695 25.0541 29.0339 25.0951 29 25.1339V23H27V27.1716L25.1716 29H30C31.1046 29 32 29.8954 32 31V32ZM19 29H21V33.9082C20.3333 34.0306 19.6667 34.0306 19 33.9082V29ZM39 35C39 33.3431 37.6569 32 36 32H34V31H36C38.2091 31 40 32.7909 40 35H39ZM8 35.5186V38C8 39.1046 8.89543 40 10 40H30C31.1046 40 32 39.1046 32 38V35.5183C31.1429 35.8308 30.2533 35.9998 29.3336 36C27.6755 36.0002 26.1151 35.4516 24.6665 34.5018C23.2182 35.4512 21.658 36 20 36C18.342 36 16.7817 35.4512 15.3333 34.5017C13.8849 35.4512 12.3247 36 10.6667 36C9.74689 36 8.8572 35.8311 8 35.5186ZM9 6H31V8H9V6ZM32 16H8V10H32V16ZM39.5 43C40.3284 43 41 42.186 41 41.1818C41 39.5909 39.5 38 39.5 38C39.5 38 38 39.5909 38 41.1818C38 42.186 38.6716 43 39.5 43Z" fill="#333333"/>
</svg>
