<svg width="48" height="48" viewBox="0 0 48 48" fill="none" xmlns="http://www.w3.org/2000/svg">
<path d="M23 22.9217C23 22.396 23.4743 22.0001 24 22.0001C24.5257 22.0001 25 22.396 25 22.9217V41C25 41.5523 24.5523 42 24 42C23.4477 42 23 41.5523 23 41V22.9217Z" fill="currentColor"/>
<path fill-rule="evenodd" clip-rule="evenodd" d="M20 16C20 14.1362 21.2748 12.5701 23 12.126V7C23 6.44772 23.4477 6 24 6C24.5523 6 25 6.44772 25 7V12.126C26.7252 12.5701 28 14.1362 28 16C28 18.2091 26.2091 20 24 20C21.7909 20 20 18.2091 20 16ZM24 18C25.1046 18 26 17.1046 26 16C26 14.8954 25.1046 14 24 14C22.8954 14 22 14.8954 22 16C22 17.1046 22.8954 18 24 18Z" fill="currentColor"/>
<path fill-rule="evenodd" clip-rule="evenodd" d="M16 32C16 34.2091 14.2091 36 12 36C9.79086 36 8 34.2091 8 32C8 30.1334 9.27853 28.5654 11.0076 28.1241C11.0026 28.0834 11 28.042 11 28V7C11 6.44772 11.4477 6 12 6C12.5523 6 13 6.44771 13 7L13 28C13 28.042 12.9974 28.0834 12.9924 28.1241C14.7215 28.5654 16 30.1334 16 32ZM14 32C14 33.1046 13.1046 34 12 34C10.8954 34 10 33.1046 10 32C10 30.8954 10.8954 30 12 30C13.1046 30 14 30.8954 14 32Z" fill="currentColor"/>
<path d="M36 42C35.4477 42 35 41.5523 35 41V33.9217C35 33.396 35.4743 33.0001 36 33.0001C36.5257 33.0001 37 33.396 37 33.9217V41C37 41.5523 36.5523 42 36 42Z" fill="currentColor"/>
<path fill-rule="evenodd" clip-rule="evenodd" d="M36 6C35.4477 6 35 6.44772 35 7V23.126C33.2748 23.5701 32 25.1362 32 27C32 29.2091 33.7909 31 36 31C38.2091 31 40 29.2091 40 27C40 25.1362 38.7252 23.5701 37 23.126V7C37 6.44771 36.5523 6 36 6ZM36 25C34.8954 25 34 25.8954 34 27C34 28.1046 34.8954 29 36 29C37.1046 29 38 28.1046 38 27C38 25.8954 37.1046 25 36 25Z" fill="currentColor"/>
<path d="M11 41C11 41.5523 11.4477 42 12 42C12.5523 42 13 41.5523 13 41V38.9217C13 38.396 12.5257 38.0001 12 38.0001C11.4743 38.0001 11 38.396 11 38.9217V41Z" fill="currentColor"/>
</svg>
