<svg width="48" height="48" viewBox="0 0 48 48" fill="none" xmlns="http://www.w3.org/2000/svg">
<path fill-rule="evenodd" clip-rule="evenodd" d="M31.2274 4L30.017 8.63991L30.0857 7.62947L24 10.5416V6.64833L17 8.78977V12.4093L15.2298 5.80745L9.6283 11.0438L12.0676 20.1472C12.1832 20.207 12.2904 20.2836 12.3847 20.3748C13.2154 21.1776 14.0137 21.9072 14.7855 22.5635L11.8707 11.6853L14.1611 9.54423L17 20.1317V24.2931C17.6835 24.7752 18.3485 25.1921 19 25.5438L19 10.2694L22 9.35167V26.7207C22.7598 26.8992 23.5108 26.9798 24.262 26.9624L25.2681 12.152L27.858 10.9127L26.7967 26.5359C27.6041 26.2851 28.4229 25.9244 29.2635 25.4536L31.5912 16.7667L34.4308 15.9148L32.4716 23.2267C33.3441 22.5164 34.2486 21.7049 35.1945 20.7918L37.3417 12.7784L35.5751 13.2299L38.344 4H31.2274ZM35.656 6L33.3136 13.8079L30.5516 14.5139L32.7726 6H35.656Z" fill="#333333"/>
<path fill-rule="evenodd" clip-rule="evenodd" d="M35.5883 23.1689C31.6367 26.7987 27.9877 28.9708 24.046 28.9647C20.1021 28.9587 16.4204 26.771 12.4077 23.1369L14.7656 42H33.2344L35.5883 23.1689ZM11.4696 20C10.6893 20 10.0855 20.6839 10.1823 21.4583L12.781 42.2481C12.9061 43.2489 13.7569 44 14.7656 44H33.2344C34.2431 44 35.0939 43.2489 35.219 42.2481L37.8184 21.4532C37.9148 20.6815 37.3132 20 36.5355 20C36.1926 20 35.8594 20.1414 35.615 20.3819C26.6751 29.1784 21.4559 29.1419 12.3847 20.3748C12.1403 20.1385 11.8096 20 11.4696 20Z" fill="#333333"/>
</svg>
