<svg width="48" height="48" viewBox="0 0 48 48" fill="none" xmlns="http://www.w3.org/2000/svg">
<path fill-rule="evenodd" clip-rule="evenodd" d="M31.2273 4L30.0169 8.63991L30.0856 7.62947L23.9999 10.5416V6.64833L16.9999 8.78977V12.4093L15.2297 5.80745L9.62817 11.0438L12.0674 20.1472C12.1831 20.207 12.2903 20.2836 12.3846 20.3748C13.2152 21.1776 14.0136 21.9072 14.7854 22.5635L11.8706 11.6853L14.161 9.54423L16.9999 20.1317V24.2931C17.6834 24.7752 18.3484 25.1921 18.9999 25.5438L18.9999 10.2694L21.9999 9.35167V26.7207C22.7597 26.8992 23.5107 26.9798 24.2618 26.9624L25.2679 12.152L27.8579 10.9127L26.7966 26.5359C27.604 26.2851 28.4228 25.9244 29.2634 25.4536L31.5911 16.7667L34.4306 15.9148L32.4714 23.2267C33.3439 22.5164 34.2485 21.7049 35.1944 20.7918L37.3416 12.7784L35.5749 13.2299L38.3439 4H31.2273ZM35.6559 6L33.3135 13.8079L30.5515 14.5139L32.7725 6H35.6559Z" fill="#333333"/>
<path fill-rule="evenodd" clip-rule="evenodd" d="M35.5882 23.1689C31.6366 26.7987 27.9876 28.9708 24.0459 28.9647C20.1019 28.9587 16.4203 26.771 12.4076 23.1369L14.7655 42H33.2343L35.5882 23.1689ZM11.4695 20C10.6892 20 10.0854 20.6839 10.1822 21.4583L12.7809 42.2481C12.906 43.2489 13.7568 44 14.7655 44H33.2343C34.243 44 35.0938 43.2489 35.2189 42.2481L37.8182 21.4532C37.9147 20.6815 37.313 20 36.5354 20C36.1925 20 35.8593 20.1414 35.6149 20.3819C26.675 29.1784 21.4558 29.1419 12.3846 20.3748C12.1402 20.1385 11.8094 20 11.4695 20Z" fill="#333333"/>
</svg>
