<svg width="48" height="48" viewBox="0 0 48 48" fill="none" xmlns="http://www.w3.org/2000/svg">
<path fill-rule="evenodd" clip-rule="evenodd" d="M24.0002 5C22.3437 5 21.0001 6.34355 21.0001 8.00181C21.0001 9.66007 22.3437 11.0036 24.0002 11.0036C25.6567 11.0036 27.0003 9.66007 27.0003 8.00181C27.0003 6.34355 25.6567 5 24.0002 5ZM19.0001 8.00181C19.0001 5.23979 21.2383 3 24.0002 3C26.7621 3 29.0003 5.23979 29.0003 8.00181C29.0003 10.6996 26.865 12.8992 24.192 13H27.5001C29.0862 13 30.5007 13.9978 31.0328 15.492L34.3933 24.9285C34.9028 26.3592 34.156 27.9322 32.7252 28.4417C31.2944 28.9512 29.7215 28.2044 29.212 26.7736C29.2089 26.765 29.206 26.7564 29.2032 26.7478L27.7726 22.3547L27.0767 25.73L29.2683 28.3598C29.4181 28.5395 29.5001 28.7661 29.5001 29V42.3515C29.5001 43.9004 28.101 44.9993 26.7199 44.9993C25.1817 44.9993 24.1407 43.7459 24.1407 42.3515V31.6052H23.8595V42.3515C23.8595 43.828 22.6378 44.9993 21.1798 44.9993C19.7218 44.9993 18.5001 43.828 18.5001 42.3515V29C18.5001 28.7661 18.5821 28.5395 18.7319 28.3598L20.9261 25.7267L20.2653 22.4039L18.8556 26.7283C18.5652 27.5868 17.7951 28.1003 17.129 28.3515C16.4482 28.6082 15.6016 28.6998 14.8693 28.4521C14.0262 28.1669 13.5788 27.5164 13.4481 26.8028C13.331 26.163 13.4654 25.4984 13.6456 24.9659L16.8313 15.5483C17.3466 14.0252 18.7756 13 20.3836 13H23.8084C21.1354 12.8992 19.0001 10.6996 19.0001 8.00181ZM20.3836 15C19.6332 15 18.9663 15.4784 18.7258 16.1892L15.5401 25.6068C15.4105 25.9898 15.3856 26.2796 15.4155 26.4427C15.4218 26.4773 15.4294 26.4989 15.4344 26.5107C15.437 26.5165 15.4389 26.52 15.4401 26.5219L15.4418 26.5244C15.4422 26.5249 15.4445 26.5269 15.4481 26.5294C15.4549 26.5339 15.4733 26.5451 15.5101 26.5575C15.6934 26.6195 16.0512 26.6205 16.4234 26.4801C16.8051 26.3362 16.9382 26.1495 16.9602 26.0898L19.5493 18.1473C19.6903 17.7148 20.1054 17.432 20.5594 17.459C21.0135 17.486 21.3921 17.8161 21.4809 18.2622L22.9808 25.805C23.0397 26.1012 22.9616 26.4081 22.7682 26.6402L20.5001 29.362V42.3515C20.5001 42.6875 20.7901 42.9993 21.1798 42.9993C21.5695 42.9993 21.8595 42.6875 21.8595 42.3515V30.6052C21.8595 30.053 22.3072 29.6052 22.8595 29.6052H25.1407C25.693 29.6052 26.1407 30.053 26.1407 30.6052V42.3515C26.1407 42.7696 26.4104 42.9993 26.7199 42.9993C27.1864 42.9993 27.5001 42.6151 27.5001 42.3515V29.3621L25.2318 26.6402C25.0369 26.4063 24.9591 26.0963 25.0206 25.7981L26.5757 18.2553C26.6673 17.8111 27.0465 17.4841 27.4994 17.4588C27.9523 17.4335 28.3655 17.7163 28.506 18.1476L31.0998 26.1128C31.2425 26.4964 31.6674 26.6953 32.0542 26.5576C32.4444 26.4186 32.6481 25.9896 32.5092 25.5994L29.1487 16.1629C28.9004 15.4656 28.2403 15 27.5001 15H20.3836Z" fill="#333333"/>
</svg>
