<svg width="48" height="48" viewBox="0 0 48 48" fill="none" xmlns="http://www.w3.org/2000/svg">
<path fill-rule="evenodd" clip-rule="evenodd" d="M39 8H9C8.44771 8 8 8.44772 8 9V39C8 39.5523 8.44772 40 9 40H39C39.5523 40 40 39.5523 40 39V9C40 8.44771 39.5523 8 39 8ZM9 6C7.34315 6 6 7.34315 6 9V39C6 40.6569 7.34315 42 9 42H39C40.6569 42 42 40.6569 42 39V9C42 7.34315 40.6569 6 39 6H9Z" fill="#333333"/>
<path fill-rule="evenodd" clip-rule="evenodd" d="M30.5819 13.5846C31.3629 12.8035 32.6292 12.8035 33.4103 13.5846C34.3948 14.569 35.0032 15.8307 35.0001 16.9999C35.0032 18.169 34.3946 19.4178 33.4102 20.4023C32.6291 21.1833 31.3628 21.1833 30.5817 20.4023C29.8007 19.6212 29.8007 18.3549 30.5817 17.5738L30.0014 16.9935L30.5819 16.413C29.8008 15.6319 29.8008 14.3656 30.5819 13.5846ZM28.5277 16.9933C27.647 18.5223 27.8603 20.5092 29.1675 21.8165C30.7296 23.3786 33.2623 23.3786 34.8244 21.8165C36.0826 20.5582 37.0049 18.8307 37 16.9999C37.0049 15.169 36.0827 13.4286 34.8245 12.1703C33.2624 10.6082 30.7297 10.6082 29.1676 12.1703C27.8605 13.4775 27.6472 15.4643 28.5277 16.9933Z" fill="#333333"/>
<path fill-rule="evenodd" clip-rule="evenodd" d="M17.4183 13.5846C16.6372 12.8035 15.3709 12.8035 14.5898 13.5846C13.6054 14.569 12.9969 15.8307 13 16.9999C12.9969 18.169 13.6055 19.4178 14.59 20.4023C15.371 21.1833 16.6373 21.1833 17.4184 20.4023C18.1994 19.6212 18.1994 18.3549 17.4184 17.5738L17.9987 16.9935L17.4183 16.413C18.1993 15.6319 18.1993 14.3656 17.4183 13.5846ZM19.4725 16.9933C20.3531 18.5223 20.1398 20.5092 18.8326 21.8165C17.2705 23.3786 14.7378 23.3786 13.1757 21.8165C11.9175 20.5582 10.9952 18.8307 11.0001 16.9999C10.9952 15.169 11.9174 13.4286 13.1756 12.1703C14.7377 10.6082 17.2704 10.6082 18.8325 12.1703C20.1396 13.4775 20.353 15.4643 19.4725 16.9933Z" fill="#333333"/>
<path fill-rule="evenodd" clip-rule="evenodd" d="M21.8047 28.582C21.2852 28.9284 21 29.3879 21 30C21 31.6569 22.3431 33 24 33C25.6569 33 27 31.6569 27 30C27 29.3879 26.7148 28.9284 26.1953 28.5821C25.6461 28.2159 24.8517 28 24 28C23.1483 28 22.3539 28.2159 21.8047 28.582ZM27.3047 26.918C28.2852 27.5716 29 28.6121 29 30C29 32.7615 26.7614 35 24 35C21.2386 35 19 32.7615 19 30C19 28.6121 19.7148 27.5716 20.6953 26.9179C21.6461 26.284 22.8517 26 24 26C25.1483 26 26.3539 26.2841 27.3047 26.918Z" fill="#333333"/>
<path fill-rule="evenodd" clip-rule="evenodd" d="M24 33C24.5523 33 25 33.4477 25 34V37C25 37.5523 24.5523 38 24 38C23.4477 38 23 37.5523 23 37V34C23 33.4477 23.4477 33 24 33Z" fill="#333333"/>
<path fill-rule="evenodd" clip-rule="evenodd" d="M16 17C16 16.4477 16.4477 16 17 16H20C21.6558 16 23 17.3404 23 18.9983V26.9999C23 27.5522 22.5523 27.9999 22 27.9999C21.4477 27.9999 21 27.5522 21 26.9999V18.9983C21 18.4471 20.5534 18 20 18H17C16.4477 18 16 17.5523 16 17Z" fill="#333333"/>
<path fill-rule="evenodd" clip-rule="evenodd" d="M32 17C32 16.4477 31.5523 16 31 16H28C26.3442 16 25 17.3404 25 18.9983V26.9999C25 27.5522 25.4477 27.9999 26 27.9999C26.5523 27.9999 27 27.5522 27 26.9999V18.9983C27 18.4471 27.4466 18 28 18H31C31.5523 18 32 17.5523 32 17Z" fill="#333333"/>
<path fill-rule="evenodd" clip-rule="evenodd" d="M18 17.9839C17.4448 17.9839 16.9946 18.434 16.9946 18.9893C16.9946 19.5416 16.5469 19.9893 15.9946 19.9893C15.4423 19.9893 14.9946 19.5416 14.9946 18.9893C14.9946 17.3295 16.3402 15.9839 18 15.9839C18.5523 15.9839 19 16.4316 19 16.9839C19 17.5362 18.5523 17.9839 18 17.9839Z" fill="#333333"/>
<path fill-rule="evenodd" clip-rule="evenodd" d="M30 17.9839C30.5552 17.9839 31.0054 18.434 31.0054 18.9893C31.0054 19.5416 31.4531 19.9893 32.0054 19.9893C32.5577 19.9893 33.0054 19.5416 33.0054 18.9893C33.0054 17.3295 31.6598 15.9839 30 15.9839C29.4477 15.9839 29 16.4316 29 16.9839C29 17.5362 29.4477 17.9839 30 17.9839Z" fill="#333333"/>
<path fill-rule="evenodd" clip-rule="evenodd" d="M18 15.9839C17.4448 15.9839 16.9946 15.5337 16.9946 14.9785C16.9946 14.4262 16.5469 13.9785 15.9946 13.9785C15.4423 13.9785 14.9946 14.4262 14.9946 14.9785C14.9946 16.6383 16.3402 17.9839 18 17.9839C18.5523 17.9839 19 17.5362 19 16.9839C19 16.4316 18.5523 15.9839 18 15.9839Z" fill="#333333"/>
<path fill-rule="evenodd" clip-rule="evenodd" d="M30 15.9839C30.5552 15.9839 31.0054 15.5337 31.0054 14.9785C31.0054 14.4262 31.4531 13.9785 32.0054 13.9785C32.5577 13.9785 33.0054 14.4262 33.0054 14.9785C33.0054 16.6383 31.6598 17.9839 30 17.9839C29.4477 17.9839 29 17.5362 29 16.9839C29 16.4316 29.4477 15.9839 30 15.9839Z" fill="#333333"/>
<path fill-rule="evenodd" clip-rule="evenodd" d="M19 30C19 29.4477 19.4477 29 20 29H28C28.5523 29 29 29.4477 29 30C29 30.5523 28.5523 31 28 31H20C19.4477 31 19 30.5523 19 30Z" fill="#333333"/>
</svg>
