<svg width="48" height="48" viewBox="0 0 48 48" fill="none" xmlns="http://www.w3.org/2000/svg">
<path fill-rule="evenodd" clip-rule="evenodd" d="M17.9592 33.0358C17.8576 33.031 17.7446 33.0266 17.6192 33.0228C16.8834 33.0006 15.8885 33.0004 14.5 33.0004C13.1116 33.0004 12.1167 33.0006 11.3809 33.0229C11.2554 33.0267 11.1424 33.0311 11.0408 33.0359C11.2987 34.7145 12.7492 36 14.5 36C16.2508 36 17.7014 34.7145 17.9592 33.0358ZM10.2136 33.1174C10.2133 33.1175 10.2139 33.1173 10.2136 33.1174V33.1174ZM18.7855 33.117C18.7852 33.1169 18.7859 33.1171 18.7855 33.117V33.117ZM14.5 38C17.5376 38 20 35.5376 20 32.5C20 32.056 20 31.7434 19.8573 31.5234C19.518 31.0002 18.3718 31.0004 14.5 31.0004C9 31.0004 9 31.0004 9 32.5C9 35.5376 11.4624 38 14.5 38Z" fill="#333333"/>
<path fill-rule="evenodd" clip-rule="evenodd" d="M31.175 16H36V28H34V18H32.825L29.9818 32.69L28.0182 32.31L31.175 16Z" fill="#333333"/>
<path fill-rule="evenodd" clip-rule="evenodd" d="M38.4476 35.9376C40.3462 35.5744 41.5908 33.7408 41.2275 31.8422L43.1919 31.4664C43.7627 34.4498 41.8069 37.3311 38.8235 37.902C35.84 38.4728 32.9587 36.517 32.3879 33.5336L34.3522 33.1577C34.7155 35.0563 36.5491 36.3009 38.4476 35.9376Z" fill="#333333"/>
<path fill-rule="evenodd" clip-rule="evenodd" d="M40.371 28.8124C39.3934 28.1278 38.1838 27.8597 37.0085 28.0669C35.8331 28.2742 34.7883 28.9398 34.1037 29.9175C33.6138 30.6172 33.3371 31.4358 33.2954 32.2756L41.9371 30.7519C41.6107 29.9769 41.0707 29.3023 40.371 28.8124ZM42.0493 30.732C42.0499 30.7319 42.0493 30.732 42.0493 30.732V30.732ZM36.6612 26.0973C38.3589 25.798 40.106 26.1853 41.5182 27.1741C42.6051 27.9352 43.425 29.0046 43.8816 30.2309C44.3365 31.453 43.4226 32.5208 42.3952 32.7019L33.5319 34.2648C32.5045 34.4459 31.2805 33.7551 31.2901 32.4511C31.2996 31.1426 31.7043 29.8573 32.4654 28.7703C33.4542 27.3582 34.9635 26.3967 36.6612 26.0973Z" fill="#333333"/>
<path fill-rule="evenodd" clip-rule="evenodd" d="M21 20H12C11.4477 20 11 20.4477 11 21V23H22V21C22 20.4477 21.5523 20 21 20ZM12 18C10.3431 18 9 19.3431 9 21V24C9 24.5523 9.44772 25 10 25H23C23.5523 25 24 24.5523 24 24V21C24 19.3431 22.6569 18 21 18H12Z" fill="#333333"/>
<path fill-rule="evenodd" clip-rule="evenodd" d="M21 25H14.0864C10.1126 25 6.93449 27.6346 6.17371 31H20.8889C20.9468 31 20.9824 30.9815 21 30.9676V25ZM14.0864 23C8.51584 23 4 27.2782 4 32.5556C4 32.801 4.21004 33 4.46914 33H20.8889C22.0548 33 23 32.1046 23 31V23.8C23 23.3582 22.6219 23 22.1556 23H14.0864Z" fill="#333333"/>
<path fill-rule="evenodd" clip-rule="evenodd" d="M35 12H33C31.8954 12 31 12.8954 31 14C31 15.1046 31.8954 16 33 16H35V12ZM33 10C30.7909 10 29 11.7909 29 14C29 16.2091 30.7909 18 33 18H36.3846C36.7245 18 37 17.7245 37 17.3846V10.6154C37 10.2755 36.7245 10 36.3846 10H33Z" fill="#333333"/>
<path d="M25.3462 11L30.2707 11.8655L29.9245 13.8353L25 12.9698L25.3462 11Z" fill="#333333"/>
<path fill-rule="evenodd" clip-rule="evenodd" d="M32 33H20V31H32V33Z" fill="#333333"/>
<path fill-rule="evenodd" clip-rule="evenodd" d="M30 28H21V26H30V28Z" fill="#333333"/>
</svg>
