<svg width="48" height="48" viewBox="0 0 48 48" fill="none" xmlns="http://www.w3.org/2000/svg">
<rect width="48" height="48" fill="white"/>
<path fill-rule="evenodd" clip-rule="evenodd" d="M23.1526 4.88265L24.5669 6.29686C25.1295 6.85947 25.4455 7.62253 25.4455 8.41818C25.4455 9.21383 25.1295 9.97689 24.5669 10.5395L22.0312 13.0752L22.0312 16.0749C22.0312 16.8706 21.7152 17.6337 21.1525 18.1963L15.3744 23.9744C13.4218 25.9271 10.2559 25.9271 8.30331 23.9744L5.47488 21.146C3.52226 19.1934 3.52226 16.0276 5.47488 14.0749L11.253 8.29682C11.8157 7.73417 12.5788 7.4181 13.3745 7.41815L16.3743 7.41833L18.91 4.88265C19.4726 4.32004 20.2357 4.00397 21.0313 4.00397C21.827 4.00397 22.59 4.32004 23.1526 4.88265ZM21.7384 6.29686C21.5509 6.10932 21.2965 6.00397 21.0313 6.00397C20.7661 6.00397 20.5117 6.10932 20.3242 6.29686L18.2029 8.41818L21.0313 11.2466L23.1526 9.12529C23.3402 8.93775 23.4455 8.6834 23.4455 8.41818C23.4455 8.15296 23.3402 7.89861 23.1526 7.71107L21.7384 6.29686ZM16.3743 9.41833L13.3744 9.41814C13.1092 9.41813 12.8548 9.52349 12.6672 9.71104L6.8891 15.4892C5.71752 16.6607 5.71752 18.5602 6.8891 19.7318L9.71752 22.5602C10.8891 23.7318 12.7886 23.7318 13.9602 22.5602L19.7383 16.7821C19.9259 16.5945 20.0312 16.3402 20.0312 16.0749L20.0312 13.0752L16.3743 9.41833Z" fill="#333333"/>
<path d="M31.5031 10.6299C31.463 10.6692 31.4238 10.7091 31.3853 10.7498L31.9612 11.0986L31.5021 10.6309L31.5031 10.6299Z" fill="#333333"/>
<path d="M31.5031 10.6299L31.9629 11.0996L32.1592 11.2185L32.1287 11.2689L27.8788 8.62667L26.8429 10.3375L31.1233 12.9293C31.3544 13.0692 31.6324 13.1097 31.8938 13.0415C32.1552 12.9732 32.3779 12.8021 32.5112 12.5671C32.617 12.3805 32.7486 12.2095 32.9023 12.059L32.9033 12.058C33.3392 11.63 33.9252 11.3849 34.5396 11.3752C35.1539 11.3656 35.7475 11.5921 36.197 12.0063C36.6463 12.4203 36.917 12.9899 36.9542 13.596C36.9915 14.2022 36.7925 14.8 36.3976 15.2651C36.1002 15.6152 36.0796 16.1229 36.3477 16.496C36.8317 17.1694 37.0581 17.9919 36.9873 18.8157C36.9164 19.6395 36.5526 20.412 35.9602 20.9943C35.3676 21.5766 34.585 21.9303 33.7527 21.9908C32.9203 22.0512 32.0941 21.8142 31.4224 21.3233C31.0542 21.0542 30.5504 21.0683 30.1979 21.3577C29.9424 21.5674 29.6455 21.722 29.326 21.8113C29.0065 21.9006 28.6717 21.9226 28.3431 21.8759C28.0145 21.8291 27.6996 21.7146 27.4184 21.54C27.1372 21.3654 26.8961 21.1346 26.7103 20.8625C26.5244 20.5904 26.3979 20.2831 26.3384 19.96C26.2789 19.637 26.2878 19.3052 26.3646 18.9858C26.4413 18.6664 26.5842 18.3661 26.7844 18.1042C26.9847 17.8423 27.2379 17.6245 27.5281 17.4651C27.766 17.3344 27.9405 17.1126 28.0116 16.8507C28.0828 16.5888 28.0444 16.3092 27.9053 16.0762L25.3463 11.7879L23.6288 12.8128L25.72 16.3171C25.5291 16.4915 25.3535 16.6829 25.1957 16.8893C24.8262 17.3726 24.5619 17.9275 24.4199 18.5187C24.2779 19.1099 24.2614 19.7242 24.3714 20.3222C24.4815 20.9201 24.7157 21.4884 25.0588 21.9906C25.4019 22.4929 25.8463 22.918 26.3633 23.2391C26.8803 23.5601 27.4586 23.7701 28.0614 23.8559C28.6641 23.9417 29.2782 23.9014 29.8644 23.7375C30.2105 23.6407 30.5424 23.5022 30.853 23.3255C31.7785 23.8308 32.8353 24.0626 33.8975 23.9855C35.2018 23.8908 36.4303 23.3364 37.362 22.4207C38.2939 21.5049 38.868 20.2876 38.9799 18.9871C39.0708 17.9301 38.8516 16.8753 38.357 15.9479C38.794 15.2052 39.004 14.3445 38.9505 13.4734C38.8815 12.3505 38.3801 11.2984 37.5523 10.5355C36.7245 9.77276 35.6341 9.35775 34.5081 9.3755C33.3824 9.39323 32.3061 9.84202 31.5031 10.6299Z" fill="#333333"/>
<path fill-rule="evenodd" clip-rule="evenodd" d="M6.6848 36C6.79627 35.5171 6.98674 35.0643 7.24187 34.6561L6.05029 33.4645C5.65976 33.074 5.65976 32.4408 6.05029 32.0503C6.44081 31.6598 7.07398 31.6598 7.4645 32.0503L8.65608 33.2419C9.06427 32.9868 9.51703 32.7963 10 32.6848V31C10 30.4477 10.4477 30 11 30C11.5523 30 12 30.4477 12 31V32.6848C12.483 32.7963 12.9357 32.9868 13.3439 33.2419L14.5355 32.0503C14.926 31.6598 15.5592 31.6598 15.9497 32.0503C16.3402 32.4408 16.3402 33.074 15.9497 33.4645L14.7581 34.6561C15.0133 35.0643 15.2037 35.5171 15.3152 36H17C17.5523 36 18 36.4477 18 37C18 37.5523 17.5523 38 17 38H15.3152C15.2037 38.483 15.0133 38.9358 14.7581 39.3439L15.9497 40.5355C16.3402 40.926 16.3402 41.5592 15.9497 41.9497C15.5592 42.3403 14.926 42.3403 14.5355 41.9497L13.3439 40.7582C12.9357 41.0133 12.483 41.2038 12 41.3152V43C12 43.5523 11.5523 44 11 44C10.4477 44 10 43.5523 10 43V41.3152C9.51703 41.2038 9.06427 41.0133 8.65608 40.7582L7.46452 41.9497C7.07399 42.3403 6.44083 42.3403 6.0503 41.9497C5.65978 41.5592 5.65978 40.926 6.0503 40.5355L7.24187 39.3439C6.98674 38.9358 6.79627 38.483 6.6848 38H5C4.44772 38 4 37.5523 4 37C4 36.4477 4.44772 36 5 36H6.6848ZM8.57143 37C8.57143 36.3324 8.84081 35.7277 9.2768 35.2887L9.28277 35.2828L9.28871 35.2768C9.72771 34.8408 10.3324 34.5715 11 34.5715C11.6676 34.5715 12.2723 34.8408 12.7113 35.2768L12.7172 35.2828L12.7234 35.2889C13.1593 35.7279 13.4286 36.3325 13.4286 37C13.4286 37.667 13.1597 38.2712 12.7244 38.7101L12.7172 38.7172L12.7101 38.7244C12.2712 39.1597 11.667 39.4286 11 39.4286C10.333 39.4286 9.72884 39.1597 9.28993 38.7244L9.28279 38.7172L9.27558 38.7101C8.8403 38.2712 8.57143 37.667 8.57143 37Z" fill="#333333"/>
<path d="M26.4014 27.663L27.0643 26.9143L25.567 25.5884L24.9041 26.3371C23.9996 27.3585 23.3653 28.6148 23.1167 30H20V29.8C20 29.2477 19.5523 28.8 19 28.8C18.4477 28.8 18 29.2477 18 29.8V32.2C18 32.7523 18.4477 33.2 19 33.2C19.5523 33.2 20 32.7523 20 32.2V32H23.0312C23.1672 33.4872 23.7416 34.8449 24.6252 35.9606L22.6 37.9858L22.1071 37.4929C21.7166 37.1024 21.0834 37.1024 20.6929 37.4929C20.3024 37.8835 20.3024 38.5166 20.6929 38.9072L23.0929 41.3072C23.4834 41.6977 24.1166 41.6977 24.5071 41.3071C24.8976 40.9166 24.8976 40.2835 24.5071 39.8929L24.0142 39.4L26.057 37.3572C27.1745 38.2006 28.5288 38.7632 30 38.9402V42H29.8C29.2477 42 28.8 42.4477 28.8 43C28.8 43.5523 29.2477 44 29.8 44H30.9938L31 44L31.0062 44H32.2C32.7523 44 33.2 43.5523 33.2 43C33.2 42.4477 32.7523 42 32.2 42H32V38.9402C33.4712 38.7632 34.8255 38.2006 35.943 37.3572L37.7858 39.2L37.2929 39.6929C36.9024 40.0834 36.9024 40.7166 37.2929 41.1071C37.6834 41.4977 38.3166 41.4977 38.7071 41.1071L41.1071 38.7071C41.4976 38.3166 41.4976 37.6834 41.1071 37.2929C40.7166 36.9024 40.0834 36.9024 39.6929 37.2929L39.2 37.7858L37.3748 35.9606C38.2584 34.8449 38.8328 33.4872 38.9688 32H42V32.2C42 32.7523 42.4477 33.2 43 33.2C43.5523 33.2 44 32.7523 44 32.2V29.8C44 29.2477 43.5523 28.8 43 28.8C42.4477 28.8 42 29.2477 42 29.8V30H38.8833C38.7266 29.1275 38.4169 28.3053 37.9824 27.5607L37.8377 27.3127C37.9075 27.2827 37.9773 27.2516 38.047 27.2191C39.4626 26.5601 40.7768 25.4061 41.8682 23.4962C42.1423 23.0166 41.9757 22.4058 41.4961 22.1318C41.0166 21.8578 40.4058 22.0244 40.1318 22.5039C39.2232 24.0939 38.2041 24.9399 37.203 25.4059C36.1843 25.8802 35.1013 26 34 26C33.4477 26 33 26.4477 33 27C33 27.5523 33.4477 28 34 28C34.582 28 35.2052 27.971 35.8483 27.8717L36.255 28.5687C36.7306 29.3836 37 30.3187 37 31.3146C37 34.4117 34.3575 37 31 37C27.6425 37 25 34.4117 25 31.3146C25 29.9287 25.5225 28.6555 26.4014 27.663Z" fill="#333333"/>
</svg>
