<svg width="48" height="48" viewBox="0 0 48 48" fill="none" xmlns="http://www.w3.org/2000/svg">
<rect width="48" height="48" fill="white"/>
<path fill-rule="evenodd" clip-rule="evenodd" d="M20 7C20 6.44772 20.4477 6 21 6H25C25.5523 6 26 6.44772 26 7C26 7.55228 25.5523 8 25 8H21C20.4477 8 20 7.55228 20 7Z" fill="#333333"/>
<path fill-rule="evenodd" clip-rule="evenodd" d="M23 6C23.5523 6 24 6.44772 24 7V11C24 11.5523 23.5523 12 23 12C22.4477 12 22 11.5523 22 11V7C22 6.44772 22.4477 6 23 6Z" fill="#333333"/>
<path fill-rule="evenodd" clip-rule="evenodd" d="M7 20C7.55228 20 8 20.4477 8 21V25C8 25.5523 7.55228 26 7 26C6.44772 26 6 25.5523 6 25V21C6 20.4477 6.44772 20 7 20Z" fill="#333333"/>
<path fill-rule="evenodd" clip-rule="evenodd" d="M6 23C6 22.4477 6.44772 22 7 22H11C11.5523 22 12 22.4477 12 23C12 23.5523 11.5523 24 11 24H7C6.44772 24 6 23.5523 6 23Z" fill="#333333"/>
<path fill-rule="evenodd" clip-rule="evenodd" d="M32.1924 9.56495C32.5829 9.17442 33.2161 9.17442 33.6066 9.56495L36.435 12.3934C36.8256 12.7839 36.8256 13.4171 36.435 13.8076C36.0445 14.1981 35.4113 14.1981 35.0208 13.8076L32.1924 10.9792C31.8019 10.5886 31.8019 9.95547 32.1924 9.56495Z" fill="#333333"/>
<path fill-rule="evenodd" clip-rule="evenodd" d="M35.0208 10.9792C35.4113 11.3697 35.4113 12.0028 35.0208 12.3934L32.1924 15.2218C31.8019 15.6123 31.1687 15.6123 30.7782 15.2218C30.3877 14.8313 30.3877 14.1981 30.7782 13.8076L33.6066 10.9792C33.9971 10.5886 34.6303 10.5886 35.0208 10.9792Z" fill="#333333"/>
<path fill-rule="evenodd" clip-rule="evenodd" d="M13.8076 9.56495C14.1981 9.95547 14.1981 10.5886 13.8076 10.9792L10.9792 13.8076C10.5887 14.1981 9.9555 14.1981 9.56497 13.8076C9.17445 13.4171 9.17445 12.7839 9.56497 12.3934L12.3934 9.56495C12.7839 9.17442 13.4171 9.17442 13.8076 9.56495Z" fill="#333333"/>
<path fill-rule="evenodd" clip-rule="evenodd" d="M10.9792 10.9792C11.3697 10.5886 12.0029 10.5886 12.3934 10.9792L15.2218 13.8076C15.6123 14.1981 15.6123 14.8313 15.2218 15.2218C14.8313 15.6123 14.1981 15.6123 13.8076 15.2218L10.9792 12.3934C10.5887 12.0028 10.5887 11.3697 10.9792 10.9792Z" fill="#333333"/>
<path fill-rule="evenodd" clip-rule="evenodd" d="M13.8076 36.4351C13.417 36.8257 12.7839 36.8257 12.3934 36.4351L9.56493 33.6067C9.17441 33.2162 9.17441 32.583 9.56493 32.1925C9.95545 31.802 10.5886 31.802 10.9791 32.1925L13.8076 35.0209C14.1981 35.4114 14.1981 36.0446 13.8076 36.4351Z" fill="#333333"/>
<path fill-rule="evenodd" clip-rule="evenodd" d="M10.9791 35.0209C10.5886 34.6304 10.5886 33.9972 10.9791 33.6067L13.8076 30.7783C14.1981 30.3878 14.8313 30.3878 15.2218 30.7783C15.6123 31.1688 15.6123 31.802 15.2218 32.1925L12.3934 35.0209C12.0028 35.4114 11.3697 35.4114 10.9791 35.0209Z" fill="#333333"/>
<path fill-rule="evenodd" clip-rule="evenodd" d="M19.5 19C18.6716 19 18 19.6716 18 20.5C18 21.3284 18.6716 22 19.5 22C20.3284 22 21 21.3284 21 20.5C21 19.6716 20.3284 19 19.5 19ZM16 20.5C16 18.567 17.567 17 19.5 17C21.433 17 23 18.567 23 20.5C23 22.433 21.433 24 19.5 24C17.567 24 16 22.433 16 20.5Z" fill="#333333"/>
<path fill-rule="evenodd" clip-rule="evenodd" d="M31.5 25C27.9101 25 25 27.9101 25 31.5C25 35.0899 27.9101 38 31.5 38C35.0899 38 38 35.0899 38 31.5C38 27.9101 35.0899 25 31.5 25ZM23 31.5C23 26.8056 26.8056 23 31.5 23C36.1944 23 40 26.8056 40 31.5C40 36.1944 36.1944 40 31.5 40C26.8056 40 23 36.1944 23 31.5Z" fill="#333333"/>
<path fill-rule="evenodd" clip-rule="evenodd" d="M36.2929 36.2929C36.6834 35.9024 37.3166 35.9024 37.7071 36.2929L42.7071 41.2929C43.0976 41.6834 43.0976 42.3166 42.7071 42.7071C42.3166 43.0976 41.6834 43.0976 41.2929 42.7071L36.2929 37.7071C35.9024 37.3166 35.9024 36.6834 36.2929 36.2929Z" fill="#333333"/>
<path fill-rule="evenodd" clip-rule="evenodd" d="M23 13C17.4772 13 13 17.4772 13 23C13 27.9009 16.5265 31.9802 21.1807 32.8351C21.7239 32.9349 22.0833 33.4561 21.9835 33.9993C21.8838 34.5425 21.3625 34.9019 20.8193 34.8022C15.233 33.776 11 28.8834 11 23C11 16.3726 16.3726 11 23 11C28.8834 11 33.776 15.233 34.8022 20.8193C34.9019 21.3625 34.5425 21.8838 33.9993 21.9835C33.4561 22.0833 32.9349 21.7239 32.8351 21.1807C31.9802 16.5265 27.9009 13 23 13Z" fill="#333333"/>
</svg>
