<svg width="48" height="48" viewBox="0 0 48 48" fill="none" xmlns="http://www.w3.org/2000/svg">
<path d="M26.5619 9L32.1334 11.1397L31.0636 13.9254L29.67 13.3897L28.5569 16.2919C29.7192 16.9812 30.7114 17.9242 31.459 19.0463L34.2984 17.7825L33.6911 16.4187L36.4172 15.2056L38.8448 20.6577L36.1188 21.8708L35.5115 20.5085L32.6735 21.7723C32.8556 22.484 32.9526 23.2316 32.9526 24C32.9526 24.6058 32.8929 25.1982 32.778 25.7711L35.6786 26.8842L36.2128 25.4921L39 26.5619L36.8603 32.1334L34.0746 31.0636L34.6088 29.6714L31.7081 28.5569C31.0188 29.7192 30.0758 30.7114 28.9537 31.459L30.2175 34.2984L31.5813 33.6911L32.7944 36.4172L27.3423 38.8448L26.1292 36.1188L27.4915 35.5115L26.2277 32.6735C25.516 32.8556 24.7684 32.9526 24 32.9526C23.3927 32.9526 22.8004 32.8929 22.2274 32.7765L21.1143 35.6786L22.5079 36.2128L21.4381 39L15.8666 36.8603L16.9364 34.0746L18.3271 34.6088L19.4432 31.7081C18.2808 31.0188 17.2886 30.0758 16.5395 28.9537L13.7001 30.2175L14.3074 31.5813L11.5813 32.7944L9.15369 27.3423L11.8797 26.1292L12.4855 27.493L15.325 26.2277C15.1444 25.516 15.0474 24.7684 15.0474 24C15.0474 23.3942 15.1071 22.8019 15.222 22.2289L12.3199 21.1158L11.7872 22.5079L9 21.4381L11.1397 15.8681L13.9254 16.9379L13.3897 18.3301L16.2919 19.4446C16.9812 18.2808 17.9242 17.2886 19.0463 16.5395L17.7825 13.7001L16.4187 14.3074L15.2056 11.5813L20.6577 9.15518L21.8708 11.8812L20.5085 12.4885L21.7723 15.3265C22.484 15.1444 23.2316 15.0474 24 15.0474C24.6058 15.0474 25.1982 15.1071 25.7711 15.222L26.8827 12.3199L25.4921 11.7872L26.5619 9ZM24 18.0316C20.7025 18.0316 18.0316 20.7025 18.0316 24C18.0316 27.2975 20.7025 29.9684 24 29.9684C27.2975 29.9684 29.9684 27.2975 29.9684 24C29.9684 20.7025 27.2975 18.0316 24 18.0316ZM23.254 25.2922C23.9672 25.704 24.2119 26.6171 23.8001 27.3304C23.3882 28.0436 22.4751 28.2883 21.7619 27.8765C21.0486 27.4646 20.8039 26.5515 21.2158 25.8383C21.6276 25.125 22.5407 24.8803 23.254 25.2922ZM26.9842 22.5079C27.8078 22.5079 28.4763 23.1764 28.4763 24C28.4763 24.8236 27.8078 25.4921 26.9842 25.4921C26.1605 25.4921 25.4921 24.8236 25.4921 24C25.4921 23.1764 26.1605 22.5079 26.9842 22.5079ZM23.8001 20.6697C24.2119 21.3829 23.9672 22.296 23.254 22.7078C22.5407 23.1197 21.6276 22.875 21.2158 22.1617C20.8039 21.4485 21.0486 20.5354 21.7619 20.1235C22.4751 19.7117 23.3882 19.9564 23.8001 20.6697Z" fill="#333333"/>
</svg>
