<svg width="48" height="48" viewBox="0 0 48 48" fill="none" xmlns="http://www.w3.org/2000/svg">
<rect width="48" height="48" fill="white"/>
<path fill-rule="evenodd" clip-rule="evenodd" d="M6.81815 12.8638C6.36628 13.3157 6.36628 14.0483 6.81815 14.5002C7.27002 14.9521 8.00264 14.9521 8.45451 14.5002L9.27321 13.6815L13.3636 17.7719L10.0909 21.0447C9.63899 21.4966 9.63899 22.2293 10.0909 22.6811C10.5427 23.133 11.2753 23.133 11.7272 22.6811L13.3631 21.0452L15.439 23.1211C15.9476 23.0414 16.469 23 17 23C17.413 23 17.8201 23.0251 18.22 23.0737L14.7773 19.631L20.1307 14.2774L31.9 26.047L26.8241 31.123C26.9395 31.731 27 32.3584 27 33C27 33.5311 26.9586 34.0525 26.8788 34.5612L27.2727 34.9551C28.9502 36.6327 31.4016 37.0647 33.4777 36.2511L34.6361 37.4095C35.242 38.0154 36.1001 38.2151 36.8723 38.0086L39.5455 40.6818C39.9973 41.1337 40.7299 41.1337 41.1818 40.6818C41.6337 40.23 41.6337 39.4973 41.1818 39.0454L38.5083 36.3718C38.7142 35.5999 38.5144 34.7423 37.9089 34.1367L36.7504 32.9783C37.564 30.9021 37.132 28.4507 35.4545 26.7731L21.5449 12.8632L23.1817 11.2264C23.6336 10.7745 23.6336 10.0418 23.1817 9.58995C22.7299 9.13807 21.9972 9.13808 21.5454 9.58995L18.2726 12.8627L14.1823 8.77229L14.9999 7.95462C15.4518 7.50274 15.4518 6.7701 14.9999 6.31822C14.5481 5.86634 13.8155 5.86634 13.3636 6.31822L6.81815 12.8638ZM32.7482 34.3883L34.8877 32.2488C35.4207 30.8901 35.1382 29.2853 34.0403 28.1873L33.5363 27.6834L28.1829 33.0369L28.6869 33.5409C29.7848 34.6389 31.3895 34.9214 32.7482 34.3883ZM36.0503 35.9953L35.2264 35.1713C35.3039 35.1017 35.3799 35.0296 35.4545 34.9551C35.529 34.8805 35.6011 34.8045 35.6707 34.727L36.4947 35.551C36.6174 35.6737 36.6174 35.8726 36.4947 35.9953C36.372 36.118 36.173 36.118 36.0503 35.9953ZM16.8585 14.277L12.7681 10.1865L10.6874 12.2673L14.7778 16.3577L16.8585 14.277Z" fill="#333333"/>
<path fill-rule="evenodd" clip-rule="evenodd" d="M14.2426 28.8284C14.7674 28.4808 15.3616 28.2296 16 28.1V27C15.4477 27 15 26.5523 15 26C15 25.4477 15.4477 25 16 25H18C18.5523 25 19 25.4477 19 26C19 26.5523 18.5523 27 18 27V28.1C18.6383 28.2296 19.2326 28.4808 19.7574 28.8284L20.5858 27.9999C20.1953 27.6094 20.1953 26.9763 20.5858 26.5857C20.9763 26.1952 21.6095 26.1952 22 26.5857L23.4142 27.9999C23.8048 28.3905 23.8048 29.0236 23.4142 29.4142C23.0237 29.8047 22.3905 29.8047 22 29.4142L21.1716 30.2426C21.5192 30.7674 21.7704 31.3616 21.9 32H23C23 31.4477 23.4477 31 24 31C24.5523 31 25 31.4477 25 32V34C25 34.5523 24.5523 35 24 35C23.4477 35 23 34.5523 23 34H21.9C21.7704 34.6384 21.5192 35.2326 21.1716 35.7574L22 36.5859C22.3905 36.1954 23.0237 36.1954 23.4142 36.5859C23.8048 36.9764 23.8048 37.6096 23.4142 38.0001L22 39.4143C21.6095 39.8048 20.9763 39.8048 20.5858 39.4143C20.1953 39.0238 20.1953 38.3906 20.5858 38.0001L19.7574 37.1716C19.2326 37.5192 18.6383 37.7704 18 37.9V39C18.5523 39 19 39.4477 19 40C19 40.5523 18.5523 41 18 41H16C15.4477 41 15 40.5523 15 40C15 39.4477 15.4477 39 16 39V37.9C15.3616 37.7704 14.7674 37.5192 14.2426 37.1716L13.4141 38.0001C13.8047 38.3906 13.8047 39.0238 13.4141 39.4143C13.0236 39.8048 12.3904 39.8048 11.9999 39.4143L10.5857 38.0001C10.1952 37.6096 10.1952 36.9764 10.5857 36.5859C10.9762 36.1954 11.6094 36.1954 11.9999 36.5859L12.8284 35.7574C12.4808 35.2326 12.2296 34.6384 12.1 34H11C11 34.5523 10.5523 35 9.99997 35C9.44769 35 8.99997 34.5523 8.99997 34V32C8.99997 31.4477 9.44769 31 9.99997 31C10.5523 31 11 31.4477 11 32H12.1C12.2296 31.3616 12.4808 30.7674 12.8284 30.2426L12 29.4143C11.6095 29.8048 10.9763 29.8048 10.5858 29.4143C10.1953 29.0238 10.1953 28.3906 10.5858 28.0001L11.2835 27.3024L11.2929 27.2929L11.3023 27.2836L12 26.5859C12.3905 26.1954 13.0237 26.1954 13.4142 26.5859C13.8048 26.9764 13.8048 27.6096 13.4142 28.0001L14.2426 28.8284ZM14 33C14 31.3432 15.3431 30 17 30C18.6568 30 20 31.3432 20 33C20 34.6569 18.6568 36 17 36C15.3431 36 14 34.6569 14 33Z" fill="#333333"/>
</svg>
