<svg width="48" height="48" viewBox="0 0 48 48" fill="none" xmlns="http://www.w3.org/2000/svg">
<rect width="48" height="48" fill="white"/>
<path fill-rule="evenodd" clip-rule="evenodd" d="M33 28C30.2386 28 28 30.2386 28 33C28 35.7614 30.2386 38 33 38C35.7614 38 38 35.7614 38 33C38 30.2386 35.7614 28 33 28ZM26 33C26 29.134 29.134 26 33 26C36.866 26 40 29.134 40 33C40 36.866 36.866 40 33 40C29.134 40 26 36.866 26 33Z" fill="#333333"/>
<path fill-rule="evenodd" clip-rule="evenodd" d="M30 23C30 22.4477 30.4477 22 31 22H35C35.5523 22 36 22.4477 36 23C36 23.5523 35.5523 24 35 24H31C30.4477 24 30 23.5523 30 23Z" fill="#333333"/>
<path fill-rule="evenodd" clip-rule="evenodd" d="M32 28V24H34V28H32Z" fill="#333333"/>
<path fill-rule="evenodd" clip-rule="evenodd" d="M38.2929 24.2929C38.6834 23.9024 39.3166 23.9024 39.7071 24.2929L41.7071 26.2929C42.0976 26.6834 42.0976 27.3166 41.7071 27.7071C41.3166 28.0976 40.6834 28.0976 40.2929 27.7071L38.2929 25.7071C37.9024 25.3166 37.9024 24.6834 38.2929 24.2929Z" fill="#333333"/>
<path fill-rule="evenodd" clip-rule="evenodd" d="M36.2929 28.2929L39.2929 25.2929L40.7071 26.7071L37.7071 29.7071L36.2929 28.2929Z" fill="#333333"/>
<path fill-rule="evenodd" clip-rule="evenodd" d="M43 30C43.5523 30 44 30.4477 44 31V35C44 35.5523 43.5523 36 43 36C42.4477 36 42 35.5523 42 35V31C42 30.4477 42.4477 30 43 30Z" fill="#333333"/>
<path fill-rule="evenodd" clip-rule="evenodd" d="M38 33C38 32.4477 38.4477 32 39 32H43C43.5523 32 44 32.4477 44 33C44 33.5523 43.5523 34 43 34H39C38.4477 34 38 33.5523 38 33Z" fill="#333333"/>
<path fill-rule="evenodd" clip-rule="evenodd" d="M42.7071 38.2929C43.0976 38.6834 43.0976 39.3166 42.7071 39.7071L40.7071 41.7071C40.3166 42.0976 39.6834 42.0976 39.2929 41.7071C38.9024 41.3166 38.9024 40.6834 39.2929 40.2929L41.2929 38.2929C41.6834 37.9024 42.3166 37.9024 42.7071 38.2929Z" fill="#333333"/>
<path fill-rule="evenodd" clip-rule="evenodd" d="M38.7071 36.2929L41.7071 39.2929L40.2929 40.7071L37.2929 37.7071L38.7071 36.2929Z" fill="#333333"/>
<path fill-rule="evenodd" clip-rule="evenodd" d="M30 43C30 42.4477 30.4477 42 31 42H35C35.5523 42 36 42.4477 36 43C36 43.5523 35.5523 44 35 44H31C30.4477 44 30 43.5523 30 43Z" fill="#333333"/>
<path fill-rule="evenodd" clip-rule="evenodd" d="M33 38C33.5523 38 34 38.4477 34 39V43C34 43.5523 33.5523 44 33 44C32.4477 44 32 43.5523 32 43V39C32 38.4477 32.4477 38 33 38Z" fill="#333333"/>
<path fill-rule="evenodd" clip-rule="evenodd" d="M24.2929 38.2929C24.6834 37.9024 25.3166 37.9024 25.7071 38.2929L27.7071 40.2929C28.0976 40.6834 28.0976 41.3166 27.7071 41.7071C27.3166 42.0976 26.6834 42.0976 26.2929 41.7071L24.2929 39.7071C23.9024 39.3166 23.9024 38.6834 24.2929 38.2929Z" fill="#333333"/>
<path fill-rule="evenodd" clip-rule="evenodd" d="M29.7071 37.7071L26.7071 40.7071L25.2929 39.2929L28.2929 36.2929L29.7071 37.7071Z" fill="#333333"/>
<path fill-rule="evenodd" clip-rule="evenodd" d="M23 30C23.5523 30 24 30.4477 24 31V35C24 35.5523 23.5523 36 23 36C22.4477 36 22 35.5523 22 35V31C22 30.4477 22.4477 30 23 30Z" fill="#333333"/>
<path fill-rule="evenodd" clip-rule="evenodd" d="M22 33C22 32.4477 22.4477 32 23 32H27C27.5523 32 28 32.4477 28 33C28 33.5523 27.5523 34 27 34H23C22.4477 34 22 33.5523 22 33Z" fill="#333333"/>
<path fill-rule="evenodd" clip-rule="evenodd" d="M27.7071 24.2929C28.0976 24.6834 28.0976 25.3166 27.7071 25.7071L25.7071 27.7071C25.3166 28.0976 24.6834 28.0976 24.2929 27.7071C23.9024 27.3166 23.9024 26.6834 24.2929 26.2929L26.2929 24.2929C26.6834 23.9024 27.3166 23.9024 27.7071 24.2929Z" fill="#333333"/>
<path fill-rule="evenodd" clip-rule="evenodd" d="M28.2929 29.7071L25.2929 26.7071L26.7071 25.2929L29.7071 28.2929L28.2929 29.7071Z" fill="#333333"/>
<path fill-rule="evenodd" clip-rule="evenodd" d="M6 25.3333C6 24.8614 6.2585 24.3409 6.94606 23.7769C7.63324 23.2131 8.63802 22.7044 9.83358 22.2787C12.2217 21.4283 15.1079 21 17 21C18.8921 21 21.7783 21.4283 24.1664 22.2787C24.5018 22.3982 24.8222 22.5241 25.1248 22.656C25.7443 22.1836 26.4076 21.7656 27.1074 21.4091C26.4109 21.0148 25.6353 20.6787 24.8373 20.3946C22.2267 19.465 19.1129 19 17 19C14.8871 19 11.7733 19.465 9.16267 20.3946C7.85885 20.8589 6.61457 21.4619 5.67754 22.2306C4.74087 22.9991 4 24.0319 4 25.3333V31H20.1529C20.2588 30.3142 20.4183 29.646 20.627 29H6V25.3333Z" fill="#333333"/>
<path fill-rule="evenodd" clip-rule="evenodd" d="M17 16C19.7629 16 22 13.7629 22 11C22 8.23707 19.7629 6 17 6C14.2371 6 12 8.23707 12 11C12 13.7629 14.2371 16 17 16ZM24 11C24 14.8675 20.8675 18 17 18C13.1325 18 10 14.8675 10 11C10 7.1325 13.1325 4 17 4C20.8675 4 24 7.1325 24 11Z" fill="#333333"/>
</svg>
