<svg width="48" height="48" viewBox="0 0 48 48" fill="none" xmlns="http://www.w3.org/2000/svg">
<rect width="48" height="48" fill="white"/>
<path fill-rule="evenodd" clip-rule="evenodd" d="M24 19.8C22.2327 19.8 20.8 21.2327 20.8 23C20.8 24.7673 22.2327 26.2 24 26.2C25.7673 26.2 27.2 24.7673 27.2 23C27.2 21.2327 25.7673 19.8 24 19.8ZM18.8 23C18.8 20.1281 21.1281 17.8 24 17.8C26.8719 17.8 29.2 20.1281 29.2 23C29.2 25.8719 26.8719 28.2 24 28.2C21.1281 28.2 18.8 25.8719 18.8 23Z" fill="#333333"/>
<path fill-rule="evenodd" clip-rule="evenodd" d="M22.3 16C22.3 15.4477 22.7477 15 23.3 15H24.7C25.2523 15 25.7 15.4477 25.7 16C25.7 16.5523 25.2523 17 24.7 17H23.3C22.7477 17 22.3 16.5523 22.3 16Z" fill="#333333"/>
<path fill-rule="evenodd" clip-rule="evenodd" d="M23 19.5V16.7H25V19.5H23Z" fill="#333333"/>
<path fill-rule="evenodd" clip-rule="evenodd" d="M27.4929 16.6929C27.8834 16.3024 28.5166 16.3024 28.9071 16.6929L30.3071 18.0929C30.6976 18.4834 30.6976 19.1166 30.3071 19.5071C29.9166 19.8976 29.2834 19.8976 28.8929 19.5071L27.4929 18.1071C27.1024 17.7166 27.1024 17.0834 27.4929 16.6929Z" fill="#333333"/>
<path fill-rule="evenodd" clip-rule="evenodd" d="M26.0929 19.4929L28.1929 17.3929L29.6071 18.8071L27.5071 20.9071L26.0929 19.4929Z" fill="#333333"/>
<path fill-rule="evenodd" clip-rule="evenodd" d="M31 21.3C31.5523 21.3 32 21.7477 32 22.3V23.7C32 24.2523 31.5523 24.7 31 24.7C30.4477 24.7 30 24.2523 30 23.7V22.3C30 21.7477 30.4477 21.3 31 21.3Z" fill="#333333"/>
<path fill-rule="evenodd" clip-rule="evenodd" d="M27.2 23C27.2 22.4477 27.6477 22 28.2 22H31C31.5523 22 32 22.4477 32 23C32 23.5523 31.5523 24 31 24H28.2C27.6477 24 27.2 23.5523 27.2 23Z" fill="#333333"/>
<path fill-rule="evenodd" clip-rule="evenodd" d="M31.0071 26.4929C31.3976 26.8834 31.3976 27.5166 31.0071 27.9071L29.6071 29.3071C29.2166 29.6977 28.5834 29.6977 28.1929 29.3071C27.8024 28.9166 27.8024 28.2834 28.1929 27.8929L29.5929 26.4929C29.9834 26.1024 30.6166 26.1024 31.0071 26.4929Z" fill="#333333"/>
<path fill-rule="evenodd" clip-rule="evenodd" d="M28.2071 25.0929L30.3071 27.1929L28.8929 28.6071L26.7929 26.5071L28.2071 25.0929Z" fill="#333333"/>
<path fill-rule="evenodd" clip-rule="evenodd" d="M22.3 30C22.3 29.4477 22.7477 29 23.3 29H24.7C25.2523 29 25.7 29.4477 25.7 30C25.7 30.5523 25.2523 31 24.7 31H23.3C22.7477 31 22.3 30.5523 22.3 30Z" fill="#333333"/>
<path fill-rule="evenodd" clip-rule="evenodd" d="M24 26.2C24.5523 26.2 25 26.6477 25 27.2V30C25 30.5523 24.5523 31 24 31C23.4477 31 23 30.5523 23 30V27.2C23 26.6477 23.4477 26.2 24 26.2Z" fill="#333333"/>
<path fill-rule="evenodd" clip-rule="evenodd" d="M17.6929 26.4929C18.0834 26.1024 18.7166 26.1024 19.1071 26.4929L20.5071 27.8929C20.8976 28.2834 20.8976 28.9166 20.5071 29.3071C20.1166 29.6977 19.4834 29.6977 19.0929 29.3071L17.6929 27.9071C17.3024 27.5166 17.3024 26.8834 17.6929 26.4929Z" fill="#333333"/>
<path fill-rule="evenodd" clip-rule="evenodd" d="M21.9071 26.5071L19.8071 28.6071L18.3929 27.1929L20.4929 25.0929L21.9071 26.5071Z" fill="#333333"/>
<path fill-rule="evenodd" clip-rule="evenodd" d="M17 21.3C17.5523 21.3 18 21.7477 18 22.3V23.7C18 24.2523 17.5523 24.7 17 24.7C16.4477 24.7 16 24.2523 16 23.7V22.3C16 21.7477 16.4477 21.3 17 21.3Z" fill="#333333"/>
<path fill-rule="evenodd" clip-rule="evenodd" d="M16 23C16 22.4477 16.4477 22 17 22H19.8C20.3523 22 20.8 22.4477 20.8 23C20.8 23.5523 20.3523 24 19.8 24H17C16.4477 24 16 23.5523 16 23Z" fill="#333333"/>
<path fill-rule="evenodd" clip-rule="evenodd" d="M20.5071 16.6929C20.8976 17.0834 20.8976 17.7166 20.5071 18.1071L19.1071 19.5071C18.7166 19.8976 18.0834 19.8976 17.6929 19.5071C17.3024 19.1166 17.3024 18.4834 17.6929 18.0929L19.0929 16.6929C19.4834 16.3024 20.1166 16.3024 20.5071 16.6929Z" fill="#333333"/>
<path fill-rule="evenodd" clip-rule="evenodd" d="M20.4929 20.9071L18.3929 18.8071L19.8071 17.3929L21.9071 19.4929L20.4929 20.9071Z" fill="#333333"/>
<path fill-rule="evenodd" clip-rule="evenodd" d="M24 6.00137C28.8352 5.95858 33.6257 6.91845 38.0586 8.81882L38.0743 8.8257C38.6488 9.08376 39.138 9.50073 39.4806 10.0289C39.8227 10.5561 40.0037 11.1709 39.9999 11.7992V23.3011C39.9999 26.2354 39.3396 29.7569 37.2362 33.0901C35.1262 36.434 31.6073 39.519 26.0103 41.6333C24.716 42.1223 23.2839 42.1222 21.9897 41.6333C16.3923 39.5159 12.8726 36.4437 10.7625 33.1062C8.6588 29.7788 8.00006 26.2585 8.00006 23.3011V11.7993C7.99628 11.1709 8.17724 10.5561 8.51935 10.0289C8.86205 9.50073 9.35116 9.08376 9.92574 8.8257L9.94142 8.81882C14.3743 6.91845 19.1648 5.95858 24 6.00137ZM9.00009 11.796H10.0001V23.3011C10.0001 25.9694 10.5944 29.0977 12.453 32.0374C14.3051 34.9669 17.4574 37.7805 22.6969 39.7625C23.5356 40.0792 24.4649 40.0792 25.3035 39.7623C30.5388 37.7847 33.6914 34.96 35.5448 32.0228C37.4049 29.075 37.9999 25.9441 37.9999 23.3011V11.7887C38.0017 11.5525 37.9339 11.3194 37.8029 11.1175C37.673 10.9174 37.4859 10.7554 37.2616 10.6532C33.0839 8.86366 28.5679 7.95983 24.0091 8.00137H23.9909C19.4321 7.95983 14.9161 8.86366 10.7384 10.6532C10.5141 10.7555 10.327 10.9174 10.1971 11.1175C10.0661 11.3194 9.99832 11.5525 10 11.7887L9.00009 11.796Z" fill="#333333"/>
</svg>
