<svg width="48" height="48" viewBox="0 0 48 48" fill="none" xmlns="http://www.w3.org/2000/svg">
<path fill-rule="evenodd" clip-rule="evenodd" d="M27.5358 13.2714L27.5418 13.2744C27.808 13.4062 28.0981 13.4848 28.3955 13.5052C28.6929 13.5256 28.9913 13.4876 29.2736 13.3933C29.5558 13.299 29.816 13.1505 30.0395 12.9567C30.263 12.763 30.4454 12.5278 30.5766 12.265L30.5797 12.2589C30.7802 11.8609 30.8571 11.4134 30.8014 10.9728C30.7457 10.5322 30.5596 10.1167 30.2653 9.77949C29.971 9.44213 29.5814 9.19808 29.1453 9.07986L29.6686 7.14953C30.4852 7.37091 31.2174 7.82861 31.7723 8.4646C32.3273 9.10059 32.6799 9.88624 32.7856 10.7219C32.8912 11.5576 32.7452 12.4057 32.3659 13.1587C32.1168 13.6572 31.7715 14.1021 31.3497 14.4678C30.9278 14.8336 30.4377 15.113 29.9073 15.2902C29.3769 15.4674 28.8166 15.5389 28.2584 15.5005C27.7003 15.4621 27.1551 15.3147 26.6542 15.0667C26.159 14.8235 25.7184 14.4884 25.3547 14.0822C25.1609 13.8658 24.9889 13.6292 24.842 13.3755C24.4196 12.6457 24.2244 11.8074 24.2813 10.967C24.2833 10.9375 24.2856 10.9079 24.2882 10.8785C24.3424 10.2683 24.5282 9.67902 24.8306 9.15001C24.9288 8.97825 25.0393 8.81285 25.1615 8.65515C25.6785 7.98826 26.3829 7.48916 27.1853 7.22111C27.9876 6.95306 28.852 6.92815 29.6686 7.14953L29.1453 9.07986C28.7091 8.96161 28.2473 8.97495 27.8189 9.11806C27.3906 9.26114 27.0162 9.52705 26.7422 9.88052C26.4683 10.2339 26.3067 10.6591 26.2767 11.1021C26.2468 11.5451 26.3495 11.9876 26.573 12.3736C26.7965 12.7598 27.1311 13.0727 27.5358 13.2714ZM23.6358 26.4644C23.6148 26.2929 23.5781 26.1231 23.5259 25.9572C23.3552 25.4151 23.0264 24.9408 22.5829 24.597L16.0701 19.9399C16.1929 19.8245 16.3004 19.7249 16.396 19.6373C16.5307 19.5139 16.6415 19.4144 16.7379 19.3282C16.7497 19.3177 16.7613 19.3073 16.7727 19.2971C17.0659 19.0349 17.2256 18.8921 17.5426 18.5341C17.6657 18.3951 17.8125 18.2236 18 18C18.1139 18.2848 18.1962 18.606 18.28 18.933C18.2934 18.9853 18.3068 19.0378 18.3205 19.0904C18.4221 19.482 18.5334 19.875 18.7105 20.2174C18.8548 20.4964 19.0429 20.7418 19.3051 20.9256L25.8602 25.593C26.0555 25.7308 26.2742 25.831 26.5055 25.8889C26.9504 25.9962 27.42 25.9412 27.8331 25.7332C28.2463 25.5253 29.6747 23.7228 29.8657 23.2955C30.0566 22.8682 30.0959 22.3881 29.9767 21.9384C29.8574 21.4887 29.5872 21.0977 29.2127 20.8329L23.5386 16.8405C23.5101 16.3471 23.4753 15.8663 23.4396 15.3718C23.4267 15.1939 23.4137 15.0143 23.4009 14.8317C23.3871 14.6361 23.3734 14.4372 23.3602 14.2332C23.2985 13.28 23.2464 12.2188 23.2348 10.8962C23.2348 10.8933 23.2348 10.8904 23.2347 10.8875C23.231 10.4496 23.0854 10.027 22.8208 9.68534C22.7404 9.58164 22.6505 9.48715 22.5525 9.40293C22.3277 9.20972 22.0607 9.07055 21.771 8.99812C20.232 8.43603 18.5306 8.51383 17.0316 9.21485C12.9491 10.71 7.85468 16.8405 7.85468 16.8405C7.23314 17.5422 6.71897 18.3351 6.32988 19.1918C6.04906 19.8907 6.03763 20.669 6.29789 21.3692C6.55816 22.0695 7.07071 22.6395 7.73201 22.9643L16.5 29L17.0655 38.1861C16.973 38.895 17.1562 39.6091 17.5758 40.1754C17.9953 40.7418 18.6179 41.1152 19.31 41.2159C19.6432 41.2476 19.98 41.2104 20.3004 41.1064C20.6208 41.0024 20.9182 40.8339 21.1746 40.6109C21.4311 40.3878 21.6414 40.1149 21.7929 39.8084C21.9445 39.5019 22.0342 39.1681 22.0567 38.8271L23.5385 27.6325C23.6513 27.2515 23.6836 26.8535 23.6358 26.4644ZM21.378 26.1942C21.4856 26.284 21.5712 26.4083 21.6182 26.5578C21.6684 26.7172 21.6711 26.8948 21.6207 27.0651C21.5912 27.1649 21.5695 27.2668 21.5558 27.37L20.074 38.5646C20.0682 38.6081 20.0639 38.6518 20.061 38.6956C20.0558 38.7739 20.0351 38.8511 20.0002 38.9218C19.9652 38.9925 19.9176 39.0535 19.8621 39.1017C19.8067 39.1499 19.7454 39.1839 19.6832 39.204C19.6371 39.219 19.5908 39.2263 19.5458 39.2268C19.4054 39.1938 19.2765 39.1113 19.1828 38.9849C19.0765 38.8413 19.0221 38.6483 19.0487 38.4446C19.0652 38.3182 19.0695 38.1905 19.0617 38.0632L18.4962 28.8771C18.4584 28.2634 18.1405 27.7012 17.634 27.3526L8.86605 21.3169C8.78563 21.2615 8.70125 21.2121 8.61361 21.1691C8.41881 21.0734 8.25734 20.9004 8.1726 20.6724C8.09113 20.4533 8.08873 20.2027 8.17312 19.9703C8.4773 19.3131 8.87476 18.7052 9.35187 18.1665C9.36569 18.1509 9.37927 18.1351 9.3926 18.1191L9.39382 18.1176L9.402 18.1078L9.43953 18.0633C9.47379 18.0228 9.52619 17.9613 9.59528 17.8813C9.73353 17.7212 9.93812 17.4877 10.1972 17.2014C10.7167 16.6275 11.449 15.8488 12.3002 15.0283C14.0761 13.3165 16.1086 11.6828 17.7194 11.0929C17.7735 11.0731 17.8267 11.0509 17.8789 11.0265C18.9014 10.5483 20.0512 10.4992 21.0848 10.8767C21.1342 10.8948 21.1843 10.9109 21.235 10.925C21.2522 12.8524 21.3531 14.2481 21.4443 15.5087L21.4448 15.516C21.4807 16.0128 21.5144 16.4792 21.5419 16.9557C21.5771 17.565 21.8885 18.1249 22.3877 18.4762L28.0434 22.4556C28.0104 22.5058 27.9635 22.574 27.9024 22.659C27.7623 22.8536 27.5781 23.0933 27.3833 23.332C27.2116 23.5423 27.046 23.7344 26.9077 23.8837L20.4987 19.3203C20.4899 19.3049 20.4769 19.28 20.4604 19.2427C20.4285 19.1704 20.3924 19.0711 20.3504 18.9305C20.3074 18.7868 20.2678 18.6333 20.2174 18.4365C20.2138 18.4226 20.2102 18.4084 20.2065 18.3939C20.1304 18.0964 20.0201 17.6653 19.8571 17.2575C19.5959 16.6044 19.0109 16.1364 18.3163 16.0252C17.6218 15.9139 16.9198 16.1757 16.4678 16.7146C16.1385 17.1071 15.9693 17.2973 15.8465 17.4249C15.7331 17.5428 15.6465 17.6212 15.4396 17.8062C15.2655 17.9619 15.0355 18.1675 14.7001 18.4828C14.2641 18.8928 14.0346 19.4765 14.0746 20.0736C14.1146 20.6708 14.42 21.2187 14.9068 21.5668L21.378 26.1942ZM20.5115 19.3408C20.5115 19.3408 20.5111 19.3403 20.5104 19.3393L20.5115 19.3408ZM26.7044 24.0899C26.684 24.106 26.6835 24.1084 26.7044 24.0899C26.7046 24.0897 26.7042 24.0901 26.7044 24.0899Z" fill="#333333"/>
<path fill-rule="evenodd" clip-rule="evenodd" d="M40.2384 37.819C40.2388 37.819 40.2349 37.8231 40.2253 37.8312C40.2333 37.823 40.238 37.819 40.2384 37.819ZM38.5601 38.5C37.3832 38.1999 35.7956 38 34 38C32.2044 38 30.6168 38.1999 29.4399 38.5C30.6168 38.8001 32.2044 39 34 39C35.7956 39 37.3832 38.8001 38.5601 38.5ZM27.7616 37.819C27.762 37.819 27.7667 37.8231 27.7747 37.8313C27.7651 37.8232 27.7612 37.819 27.7616 37.819ZM27.7616 39.181C27.7612 39.181 27.7651 39.1768 27.7747 39.1687C27.7667 39.1769 27.762 39.181 27.7616 39.181ZM40.2253 39.1688C40.2349 39.1769 40.2388 39.181 40.2384 39.181C40.238 39.181 40.2333 39.177 40.2253 39.1688ZM34 41C38.4183 41 42 39.8807 42 38.5C42 37.1193 38.4183 36 34 36C29.5817 36 26 37.1193 26 38.5C26 39.8807 29.5817 41 34 41Z" fill="#333333"/>
<path d="M31.738 18.7932C31.738 19.3749 31.2641 19.8466 30.6795 19.8466C30.0948 19.8466 29.6209 19.3749 29.6209 18.7932C29.6209 18.2114 30.0948 17.7397 30.6795 17.7397C31.2641 17.7397 31.738 18.2114 31.738 18.7932Z" fill="#333333"/>
<path d="M33.8552 25.6402C33.8552 26.5128 33.1443 27.2203 32.2673 27.2203C31.3904 27.2203 30.6795 26.5128 30.6795 25.6402C30.6795 24.7675 31.3904 24.0601 32.2673 24.0601C33.1443 24.0601 33.8552 24.7675 33.8552 25.6402Z" fill="#333333"/>
<path d="M37.0309 28.2739C37.0309 28.8556 36.5569 29.3273 35.9723 29.3273C35.3877 29.3273 34.9137 28.8556 34.9137 28.2739C34.9137 27.6921 35.3877 27.2205 35.9723 27.2205C36.5569 27.2205 37.0309 27.6921 37.0309 28.2739Z" fill="#333333"/>
<path d="M32.7966 32.4875C32.7966 33.0693 32.3227 33.5409 31.738 33.5409C31.1534 33.5409 30.6795 33.0693 30.6795 32.4875C30.6795 31.9057 31.1534 31.4341 31.738 31.4341C32.3227 31.4341 32.7966 31.9057 32.7966 32.4875Z" fill="#333333"/>
<path d="M39.148 35.1743C39.148 36.047 38.4371 36.7545 37.5602 36.7545C36.6832 36.7545 35.9723 36.047 35.9723 35.1743C35.9723 34.3017 36.6832 33.5942 37.5602 33.5942C38.4371 33.5942 39.148 34.3017 39.148 35.1743Z" fill="#333333"/>
</svg>
