<svg width="48" height="48" viewBox="0 0 48 48" fill="none" xmlns="http://www.w3.org/2000/svg">
<path fill-rule="evenodd" clip-rule="evenodd" d="M11.5068 9.04068C9.87247 9.31306 8.76841 10.8587 9.0408 12.4931L13.0408 36.4931C13.2494 37.7446 14.2228 38.7296 15.4717 38.953C16.7207 39.1764 17.9752 38.5899 18.6047 37.4883L24 28.0466L29.3953 37.4883C30.0248 38.5899 31.2792 39.1764 32.5282 38.953C33.7772 38.7296 34.7506 37.7446 34.9592 36.4931L38.9592 12.4931C39.2316 10.8587 38.1275 9.31306 36.4932 9.04068C34.8589 8.76829 33.3132 9.87235 33.0408 11.5067L30.4256 27.198L26.6047 20.5114C26.0706 19.5767 25.0765 18.9999 24 18.9999C22.9234 18.9999 21.9294 19.5767 21.3952 20.5114L17.5744 27.198L14.9592 11.5067C14.6868 9.87235 13.1411 8.76829 11.5068 9.04068ZM11.0136 12.1643C10.9228 11.6195 11.2908 11.1043 11.8356 11.0135C12.3804 10.9227 12.8956 11.2907 12.9864 11.8355L16.0632 30.2963C16.1327 30.7135 16.4572 31.0418 16.8735 31.1163C17.2898 31.1908 17.708 30.9953 17.9178 30.6281L23.1317 21.5037C23.3098 21.1921 23.6411 20.9999 24 20.9999C24.3588 20.9999 24.6902 21.1921 24.8682 21.5037L30.0821 30.6281C30.292 30.9953 30.7101 31.1908 31.1265 31.1163C31.5428 31.0418 31.8672 30.7135 31.9368 30.2963L35.0136 11.8355C35.1044 11.2907 35.6196 10.9227 36.1644 11.0135C36.7092 11.1043 37.0772 11.6195 36.9864 12.1643L32.9864 36.1643C32.9168 36.5814 32.5924 36.9098 32.1761 36.9842C31.7597 37.0587 31.3416 36.8632 31.1317 36.496L24.8682 25.5348C24.6902 25.2233 24.3588 25.031 24 25.031C23.6411 25.031 23.3098 25.2233 23.1317 25.5348L16.8682 36.496C16.6584 36.8632 16.2402 37.0587 15.8239 36.9842C15.4076 36.9098 15.0831 36.5814 15.0136 36.1643L11.0136 12.1643Z" fill="currentColor"/>
</svg>
