<svg width="48" height="48" viewBox="0 0 48 48" fill="none" xmlns="http://www.w3.org/2000/svg">
<path fill-rule="evenodd" clip-rule="evenodd" d="M11.5068 9.04055C9.87247 9.31294 8.76841 10.8586 9.0408 12.4929L13.0408 36.4929C13.2494 37.7445 14.2228 38.7295 15.4717 38.9529C16.7207 39.1763 17.9752 38.5898 18.6047 37.4882L24 28.0464L29.3953 37.4882C30.0248 38.5898 31.2792 39.1763 32.5282 38.9529C33.7772 38.7295 34.7506 37.7445 34.9592 36.4929L38.9592 12.4929C39.2316 10.8586 38.1275 9.31294 36.4932 9.04056C34.8589 8.76817 33.3132 9.87223 33.0408 11.5065L30.4256 27.1979L26.6047 20.5113C26.0706 19.5766 25.0765 18.9997 24 18.9997C22.9234 18.9997 21.9294 19.5766 21.3952 20.5113L17.5744 27.1978L14.9592 11.5065C14.6868 9.87223 13.1411 8.76817 11.5068 9.04055ZM11.0136 12.1641C10.9228 11.6194 11.2908 11.1041 11.8356 11.0133C12.3804 10.9225 12.8956 11.2906 12.9864 11.8353L16.0632 30.2962C16.1327 30.7134 16.4572 31.0417 16.8735 31.1162C17.2898 31.1907 17.708 30.9952 17.9178 30.628L23.1317 21.5036C23.3098 21.192 23.6411 20.9997 24 20.9997C24.3588 20.9997 24.6902 21.192 24.8682 21.5036L30.0821 30.628C30.292 30.9952 30.7101 31.1907 31.1265 31.1162C31.5428 31.0417 31.8672 30.7134 31.9368 30.2962L35.0136 11.8353C35.1044 11.2906 35.6196 10.9225 36.1644 11.0133C36.7092 11.1041 37.0772 11.6194 36.9864 12.1641L32.9864 36.1641C32.9168 36.5813 32.5924 36.9096 32.1761 36.9841C31.7597 37.0586 31.3416 36.8631 31.1317 36.4959L24.8682 25.5347C24.6902 25.2232 24.3588 25.0309 24 25.0309C23.6411 25.0309 23.3098 25.2232 23.1317 25.5347L16.8682 36.4959C16.6584 36.8631 16.2402 37.0586 15.8239 36.9841C15.4076 36.9096 15.0831 36.5813 15.0136 36.1641L11.0136 12.1641Z" fill="#333333"/>
</svg>
