<svg width="48" height="48" viewBox="0 0 48 48" fill="none" xmlns="http://www.w3.org/2000/svg">
<path fill-rule="evenodd" clip-rule="evenodd" d="M24 31C26.1533 31 28 29.1844 28 26.8182C28 24.7373 26.7943 22.2053 25.3295 19.9805C24.8713 19.2844 24.4115 18.6537 24 18.1198C23.5885 18.6537 23.1287 19.2844 22.6705 19.9805C21.2057 22.2053 20 24.7373 20 26.8182C20 29.1844 21.8467 31 24 31ZM22.6966 16.5398C20.9318 18.7675 18 23.0371 18 26.8182C18 30.2323 20.6863 33 24 33C27.3137 33 30 30.2323 30 26.8182C30 23.0371 27.0682 18.7675 25.3034 16.5398C24.5435 15.5806 24 15 24 15C24 15 23.4565 15.5806 22.6966 16.5398Z" fill="#333333"/>
<path fill-rule="evenodd" clip-rule="evenodd" d="M33.8994 14.1008C28.4321 8.63347 19.5678 8.63347 14.1005 14.1008L12.6862 12.6866C18.9346 6.43821 29.0653 6.43821 35.3137 12.6866C38.4248 15.7977 39.9871 19.8734 39.9999 23.9497L39.9999 23.9529L39.9999 27.5858L43.2928 24.2929L44.7071 25.7071L39.7071 30.7071L39 31.4142L38.2928 30.7071L33.2928 25.7071L34.7071 24.2929L37.9999 27.5857L37.9999 23.956L37.9999 23.9544C37.9883 20.3853 36.6217 16.823 33.8994 14.1008ZM14.1005 33.8998C19.5678 39.3671 28.4321 39.3671 33.8994 33.8998L35.3137 35.314C29.0653 41.5624 18.9346 41.5624 12.6862 35.314C9.56307 32.1908 8.00078 28.0957 7.99996 24.0035L7.99995 24.0033V20.4142L4.70706 23.7071L3.29285 22.2929L8.29285 17.2929L8.99995 16.5858L9.70706 17.2929L14.7071 22.2929L13.2928 23.7071L9.99996 20.4142L9.99995 24.0031L9.99996 24.0033C10.0007 27.5868 11.3674 31.1667 14.1005 33.8998Z" fill="#333333"/>
</svg>
