<svg width="48" height="48" viewBox="0 0 48 48" fill="none" xmlns="http://www.w3.org/2000/svg">
<path d="M31 18C31 17.4477 31.4477 17 32 17H43C43.5523 17 44 17.4477 44 18C44 18.5523 43.5523 19 43 19H32C31.4477 19 31 18.5523 31 18Z" fill="#333333"/>
<path fill-rule="evenodd" clip-rule="evenodd" d="M9.15885 21.9997C14.7567 21.9994 17.7645 21.9996 20.9918 21.9998C23.814 21.9999 26.8042 22.0001 31.8414 22C30.9222 16.2725 26.1444 12 20.5001 12C14.8559 12 10.0782 16.2724 9.15885 21.9997ZM31.9953 21.9997L31.9941 21.9999L31.9953 21.9997ZM9.00544 21.9997L9.00423 21.9995L9.00544 21.9997ZM7.13608 22.0052C6.98556 23.0995 7.90285 23.9998 9.00748 23.9997C14.7028 23.9994 17.7352 23.9996 20.9911 23.9998C23.8413 23.9999 26.8628 24.0001 31.9922 23.9999C33.0967 23.9999 34.0146 23.0997 33.8641 22.0054C32.9306 15.2182 27.303 10 20.5001 10C13.6973 10 8.06968 15.2181 7.13608 22.0052Z" fill="#333333"/>
<path fill-rule="evenodd" clip-rule="evenodd" d="M40.8128 28H7.18715C6.73189 28 6.38849 28.2044 6.19197 28.4612C6.00003 28.7121 5.95081 28.9975 6.05131 29.2815L7.44858 33.2302C8.01258 34.8241 9.64899 36 11.6057 36H36.3943C38.351 36 39.9874 34.8241 40.5514 33.2302L41.9487 29.2815C42.0492 28.9975 42 28.7121 41.808 28.4612C41.6115 28.2044 41.2681 28 40.8128 28ZM7.18715 26C5.0134 26 3.47847 28.0061 4.16587 29.9487L5.56314 33.8974C6.4301 36.3474 8.86411 38 11.6057 38H36.3943C39.1359 38 41.5699 36.3474 42.4369 33.8974L43.8341 29.9487C44.5215 28.0061 42.9866 26 40.8128 26H7.18715Z" fill="#333333"/>
<path fill-rule="evenodd" clip-rule="evenodd" d="M15 33C15.5523 33 16 32.5523 16 32C16 31.4477 15.5523 31 15 31C14.4477 31 14 31.4477 14 32C14 32.5523 14.4477 33 15 33ZM15 35C16.6569 35 18 33.6569 18 32C18 30.3432 16.6569 29 15 29C13.3431 29 12 30.3432 12 32C12 33.6569 13.3431 35 15 35Z" fill="#333333"/>
<path fill-rule="evenodd" clip-rule="evenodd" d="M24 33C24.5523 33 25 32.5523 25 32C25 31.4477 24.5523 31 24 31C23.4477 31 23 31.4477 23 32C23 32.5523 23.4477 33 24 33ZM24 35C25.6569 35 27 33.6569 27 32C27 30.3432 25.6569 29 24 29C22.3431 29 21 30.3432 21 32C21 33.6569 22.3431 35 24 35Z" fill="#333333"/>
<path fill-rule="evenodd" clip-rule="evenodd" d="M33 33C33.5523 33 34 32.5523 34 32C34 31.4477 33.5523 31 33 31C32.4477 31 32 31.4477 32 32C32 32.5523 32.4477 33 33 33ZM33 35C34.6569 35 36 33.6569 36 32C36 30.3432 34.6569 29 33 29C31.3431 29 30 30.3432 30 32C30 33.6569 31.3431 35 33 35Z" fill="#333333"/>
</svg>
