<svg width="48" height="48" viewBox="0 0 48 48" fill="none" xmlns="http://www.w3.org/2000/svg">
<path fill-rule="evenodd" clip-rule="evenodd" d="M20.0713 26.9751C20.0714 26.9752 20.0715 26.9752 19.8915 27.9589L20.0715 26.9752L20.0891 26.9784L20.1065 26.9822L26.749 28.4445L26.792 28.4539L26.8332 28.4669L26.8333 28.4669L26.8336 28.467L26.8337 28.4671L26.834 28.4671L26.8347 28.4674L26.8447 28.4704L26.8911 28.4843C26.9334 28.4968 26.9975 28.5152 27.0802 28.5377C27.246 28.5828 27.4842 28.6435 27.7683 28.7043C28.345 28.8278 29.0724 28.9433 29.7514 28.9433C30.3676 28.9433 31.0142 29.1673 31.3636 29.795C31.6659 30.3381 31.5948 30.9346 31.4826 31.3439C31.3473 31.8376 31.0723 32.3544 30.7227 32.7979C31.2289 32.61 31.7824 32.3874 32.3766 32.1483L32.4399 32.1228C34.0645 31.4687 35.9886 30.694 37.6867 30.4184C39.6187 30.1048 41.0327 30.7896 41.6783 32.0263C42.2553 33.1313 42.1199 34.5819 41.2547 35.4526C41.0386 35.67 40.7098 35.8978 40.3801 36.1076C40.0278 36.3318 39.5939 36.5852 39.1116 36.8536C38.1458 37.3911 36.9501 38.0091 35.7496 38.6065C33.3721 39.7898 30.8806 40.94 30.0896 41.2243C28.7369 41.7104 27.1636 41.5547 25.718 41.4115C25.6738 41.4071 25.6298 41.4028 25.5858 41.3984C25.1541 41.3558 24.7222 41.3133 24.2803 41.2804C22.3522 41.1371 20.8747 40.6763 19.5091 40.2503L19.4849 40.2427C18.0158 39.7845 16.6732 39.3692 14.8702 39.298C14.6238 39.2883 14.121 39.2957 13.5301 39.3115C13.1948 40.602 12.0219 41.5548 10.6264 41.5548H8.94602C7.28916 41.5548 5.94601 40.2116 5.94601 38.5548V29.7739C5.94601 28.117 7.28916 26.7739 8.94601 26.7739H10.6264C11.7036 26.7739 12.6474 27.3412 13.1765 28.1933C14.448 27.7422 15.8267 27.2424 16.2658 27.046C16.6662 26.8669 17.1289 26.8061 17.5143 26.7842C17.9196 26.7612 18.3403 26.7771 18.7088 26.8051C19.0805 26.8333 19.4178 26.8754 19.6615 26.9102C19.7839 26.9276 19.8839 26.9434 19.9545 26.9551C19.9898 26.9609 20.0178 26.9657 20.0376 26.9692L20.061 26.9733L20.0679 26.9745L20.0701 26.9749L20.0709 26.9751L20.0713 26.9751ZM22.1749 33.3899L21.9988 34.3743L22.1868 32.39L27.5493 32.4537L27.5615 32.4538C27.566 32.4536 27.5736 32.4531 27.5842 32.4522C27.6212 32.4489 27.6951 32.4396 27.7996 32.413C28.0064 32.3604 28.3445 32.2372 28.7624 31.9444C28.9066 31.8433 29.0816 31.6674 29.2406 31.4407C29.3635 31.2653 29.4554 31.0901 29.5126 30.9398C28.7157 30.9169 27.934 30.7852 27.3495 30.66C27.0238 30.5903 26.7496 30.5205 26.5553 30.4676C26.458 30.4412 26.3803 30.4188 26.3257 30.4027C26.308 30.3975 26.2927 30.3929 26.2799 30.3891L19.6965 28.9399L19.6938 28.9394C19.6797 28.9369 19.6577 28.9332 19.6287 28.9284C19.5708 28.9188 19.4852 28.9053 19.3789 28.8901C19.1652 28.8596 18.8733 28.8233 18.5574 28.7993C18.2384 28.7751 17.913 28.7648 17.6275 28.781C17.3221 28.7983 17.149 28.8419 17.0824 28.8717C16.4377 29.1601 14.3212 29.9126 12.9327 30.4002L11.8024 30.7972L11.6139 29.6141C11.538 29.138 11.1238 28.7739 10.6264 28.7739H8.94601C8.39373 28.7739 7.94601 29.2216 7.94601 29.7739V38.5548C7.94601 39.1071 8.39373 39.5548 8.94602 39.5548H10.6264C11.1787 39.5548 11.6264 39.1071 11.6264 38.5548V38.3391V37.3729L12.592 37.3397C13.4963 37.3085 14.4964 37.2817 14.9492 37.2996C17.0292 37.3818 18.5893 37.8684 20.0538 38.3252L20.0804 38.3335C21.4521 38.7613 22.7407 39.1605 24.4286 39.286C24.8965 39.3207 25.3501 39.3655 25.777 39.4076L25.7821 39.4081C27.4068 39.5683 28.5315 39.659 29.4132 39.3421C30.0753 39.1042 32.4618 38.0088 34.8585 36.816C36.0452 36.2254 37.2107 35.6227 38.139 35.106C38.6038 34.8473 39.0002 34.6151 39.3063 34.4203C39.635 34.2112 39.7927 34.0865 39.8361 34.0428C40.0088 33.869 40.1329 33.3875 39.9055 32.9519C39.7468 32.648 39.2926 32.1839 38.0071 32.3926C36.5522 32.6287 34.8238 33.3191 33.1235 34.0036L33.1024 34.012C32.2616 34.3505 31.4255 34.6871 30.6857 34.9311C29.9704 35.167 29.2044 35.3669 28.5507 35.3282C27.6098 35.2725 25.9506 35.0285 24.5728 34.8082C23.8738 34.6965 23.2309 34.5881 22.7629 34.5077C22.5288 34.4675 22.3382 34.4342 22.2059 34.4109L22.0531 34.384L22.0129 34.3768L22.0025 34.375L21.9998 34.3745L21.9991 34.3744L21.9989 34.3743L22.1749 33.3899ZM29.579 30.6665C29.5791 30.6665 29.5792 30.6673 29.5792 30.669L29.579 30.6665Z" fill="#333333"/>
<path fill-rule="evenodd" clip-rule="evenodd" d="M25 7H41V9H25V7ZM43 5V11H23V7C23 5.89543 23.8954 5 25 5H43Z" fill="#333333"/>
<path d="M23 14C23 13.4477 23.4477 13 24 13H30C30.5523 13 31 13.4477 31 14C31 14.5523 30.5523 15 30 15H24C23.4477 15 23 14.5523 23 14Z" fill="#333333"/>
<path fill-rule="evenodd" clip-rule="evenodd" d="M27 17.1719C27.5523 17.1719 28 17.6196 28 18.1719L28 20.1719C28 20.7242 27.5523 21.1719 27 21.1719C26.4477 21.1719 26 20.7242 26 20.1719L26 18.1719C26 17.6196 26.4477 17.1719 27 17.1719Z" fill="#333333"/>
<path fill-rule="evenodd" clip-rule="evenodd" d="M29.7071 17.2928C30.0976 16.9023 30.7308 16.9023 31.1213 17.2928L32.5355 18.707C32.9261 19.0975 32.9261 19.7307 32.5355 20.1212C32.145 20.5118 31.5118 20.5118 31.1213 20.1212L29.7071 18.707C29.3166 18.3165 29.3166 17.6833 29.7071 17.2928Z" fill="#333333"/>
<path fill-rule="evenodd" clip-rule="evenodd" d="M21.2929 20.2928C20.9024 19.9023 20.9024 19.2691 21.2929 18.8786L22.7071 17.4644C23.0976 17.0738 23.7308 17.0738 24.1213 17.4644C24.5118 17.8549 24.5118 18.4881 24.1213 18.8786L22.7071 20.2928C22.3166 20.6833 21.6834 20.6833 21.2929 20.2928Z" fill="#333333"/>
<path fill-rule="evenodd" clip-rule="evenodd" d="M27 22.1719C27.5523 22.1719 28 22.6196 28 23.1719L28 25.1719C28 25.7242 27.5523 26.1719 27 26.1719C26.4477 26.1719 26 25.7242 26 25.1719L26 23.1719C26 22.6196 26.4477 22.1719 27 22.1719Z" fill="#333333"/>
<path fill-rule="evenodd" clip-rule="evenodd" d="M33.2071 20.7928C33.5976 20.4023 34.2308 20.4023 34.6213 20.7928L36.0355 22.207C36.4261 22.5975 36.4261 23.2307 36.0355 23.6212C35.645 24.0118 35.0118 24.0118 34.6213 23.6212L33.2071 22.207C32.8166 21.8165 32.8166 21.1833 33.2071 20.7928Z" fill="#333333"/>
<path fill-rule="evenodd" clip-rule="evenodd" d="M17.7929 23.5428C17.4024 23.1523 17.4024 22.5191 17.7929 22.1286L19.2071 20.7144C19.5976 20.3238 20.2308 20.3238 20.6213 20.7144C21.0118 21.1049 21.0118 21.7381 20.6213 22.1286L19.2071 23.5428C18.8166 23.9333 18.1834 23.9333 17.7929 23.5428Z" fill="#333333"/>
</svg>
