<svg width="48" height="48" viewBox="0 0 48 48" fill="none" xmlns="http://www.w3.org/2000/svg">
<path fill-rule="evenodd" clip-rule="evenodd" d="M5.76364 31.9931L8.43031 34.9931C8.99961 35.6336 9.81562 36 10.6725 36H36.7198C37.7228 36 38.6595 35.4987 39.2159 34.6641L41.2159 31.6641C42.545 29.6704 41.1159 27 38.7198 27H8.00587C5.41732 27 4.0439 30.0584 5.76364 31.9931ZM12.5 34C13.8807 34 15 32.8807 15 31.5C15 30.1193 13.8807 29 12.5 29C11.1193 29 10 30.1193 10 31.5C10 32.8807 11.1193 34 12.5 34ZM26 31.5C26 32.8807 24.8807 34 23.5 34C22.1193 34 21 32.8807 21 31.5C21 30.1193 22.1193 29 23.5 29C24.8807 29 26 30.1193 26 31.5ZM34.5 34C35.8807 34 37 32.8807 37 31.5C37 30.1193 35.8807 29 34.5 29C33.1193 29 32 30.1193 32 31.5C32 32.8807 33.1193 34 34.5 34Z" fill="#333333"/>
<path fill-rule="evenodd" clip-rule="evenodd" d="M8.58583 24.4142C8.21073 24.0391 8 23.5304 8 22.9999C8 16.8243 13.252 12 19.5 12C25.748 12 31 16.8243 31 22.9999C31 24.1045 30.1046 24.9999 29.0001 24.9999C24.5059 25.0001 22.0995 25 19.8454 24.9998C17.2992 24.9997 14.9473 24.9996 10.0001 24.9999C9.46968 24.9999 8.96093 24.7893 8.58583 24.4142ZM12 22.9998C11.3824 22.9998 10.7186 22.9999 10 22.9999C10 22.9987 10 22.9976 10 22.9964C10.0003 22.3102 10.0816 21.642 10.2354 20.9999C11.1954 16.992 14.9789 14 19.5 14C24.0211 14 27.8046 16.992 28.7646 20.9999C28.9186 21.6429 28.9999 22.3121 29 22.9993C29 22.9995 29 22.9997 29 22.9999C24.5064 23.0001 22.0998 23 19.8455 22.9998C17.6689 22.9997 15.6342 22.9996 12 22.9998Z" fill="#333333"/>
<path d="M29 19C29 18.4477 29.4477 18 30 18H42C42.5523 18 43 18.4477 43 19C43 19.5523 42.5523 20 42 20H30C29.4477 20 29 19.5523 29 19Z" fill="#333333"/>
</svg>
