<svg width="48" height="48" viewBox="0 0 48 48" fill="none" xmlns="http://www.w3.org/2000/svg">
<g clip-path="url(#clip0)">
<path fill-rule="evenodd" clip-rule="evenodd" d="M24.032 26C30.1071 26 35.032 21.0751 35.032 15C35.032 8.92487 30.1071 4 24.032 4C17.9569 4 13.032 8.92487 13.032 15C13.032 21.0751 17.9569 26 24.032 26ZM24.032 28C31.2117 28 37.032 22.1797 37.032 15C37.032 7.8203 31.2117 2 24.032 2C16.8523 2 11.032 7.8203 11.032 15C11.032 22.1797 16.8523 28 24.032 28Z" fill="#333333"/>
<path fill-rule="evenodd" clip-rule="evenodd" d="M28.7516 23.054C30.121 21.0759 31.032 18.2345 31.032 15C31.032 11.7655 30.121 8.92413 28.7516 6.94603C27.3767 4.9601 25.6754 4 24.032 4C22.3885 4 20.6873 4.9601 19.3124 6.94603C17.943 8.92413 17.032 11.7655 17.032 15C17.032 18.2345 17.943 21.0759 19.3124 23.054C20.6873 25.0399 22.3885 26 24.032 26C25.6754 26 27.3767 25.0399 28.7516 23.054ZM24.032 28C29.0025 28 33.032 22.1797 33.032 15C33.032 7.8203 29.0025 2 24.032 2C19.0614 2 15.032 7.8203 15.032 15C15.032 22.1797 19.0614 28 24.032 28Z" fill="#333333"/>
<path fill-rule="evenodd" clip-rule="evenodd" d="M23.032 27V3H25.032V27H23.032Z" fill="#333333"/>
<path fill-rule="evenodd" clip-rule="evenodd" d="M12.032 14L36.032 14L36.032 16L12.032 16L12.032 14Z" fill="#333333"/>
<path fill-rule="evenodd" clip-rule="evenodd" d="M14.032 8L34.032 8L34.032 10L14.032 10L14.032 8Z" fill="#333333"/>
<path fill-rule="evenodd" clip-rule="evenodd" d="M14.032 20L34.032 20L34.032 22L14.032 22L14.032 20Z" fill="#333333"/>
<path d="M22.0181 44.1119L23.0181 44.1119L23.0181 45.1119L22.0181 45.1119L22.0181 44.1119ZM22.0181 39.1119L22.0181 38.1119L23.0181 38.1119L23.0181 39.1119L22.0181 39.1119ZM11.0181 44.1119L11.0181 45.1119L10.0181 45.1119L10.0181 44.1119L11.0181 44.1119ZM11.0181 39.1119L10.0181 39.1119L10.0181 38.1119L11.0181 38.1119L11.0181 39.1119ZM11.4898 39.1119L12.3083 38.5375L13.4132 40.1119L11.4898 40.1119L11.4898 39.1119ZM9.59608 36.8943L10.3209 36.2054L10.3209 36.2054L9.59608 36.8943ZM7.08919 33.7429L7.95105 33.2357L7.95105 33.2357L7.08919 33.7429ZM6.49089 32.762L7.34028 32.2342L7.34028 32.2342L6.49089 32.762ZM5.03679 29.5759L6.03045 29.4635L6.03045 29.4635L5.03679 29.5759ZM5.20589 19.137L4.26013 18.8121L4.26013 18.8121L5.20589 19.137ZM8.81255 19.9494L7.85626 20.2419L7.85626 20.2419L8.81255 19.9494ZM9.46113 24.5199L8.46393 24.5948L8.46393 24.5948L9.46113 24.5199ZM10.0674 28.1934L10.9368 27.6993L10.9368 27.6993L10.0674 28.1934ZM13.2402 32.8043L14.132 32.3518L12.435 33.3972L13.2402 32.8043ZM11.1518 28.6881L12.0247 28.2002L12.0345 28.2177L12.0436 28.2357L11.1518 28.6881ZM11.0007 27.0367L10.0125 26.8837L10.0125 26.8837L11.0007 27.0367ZM14.6468 27.9294L15.3701 27.2387L15.4005 27.2706L15.428 27.305L14.6468 27.9294ZM18.3018 32.5018L19.0829 31.8775L19.0941 31.8914L19.1047 31.9057L18.3018 32.5018ZM19.5254 34.986L18.5261 35.0231L18.5261 35.0231L19.5254 34.986ZM19.9676 39.1119L19.9676 40.1119L19.0821 40.1119L18.975 39.2329L19.9676 39.1119ZM21.0181 44.1119L21.0181 39.1119L23.0181 39.1119L23.0181 44.1119L21.0181 44.1119ZM11.0181 43.1119L22.0181 43.1119L22.0181 45.1119L11.0181 45.1119L11.0181 43.1119ZM12.0181 39.1119L12.0181 44.1119L10.0181 44.1119L10.0181 39.1119L12.0181 39.1119ZM11.4898 40.1119L11.0181 40.1119L11.0181 38.1119L11.4898 38.1119L11.4898 40.1119ZM10.6712 39.6864C10.1155 38.8945 9.52264 38.2686 8.87125 37.5832L10.3209 36.2054C10.9642 36.8821 11.6559 37.6078 12.3083 38.5375L10.6712 39.6864ZM8.87125 37.5832C8.01881 36.6863 7.08513 35.7078 6.22733 34.25L7.95105 33.2357C8.6809 34.4761 9.46898 35.309 10.3209 36.2054L8.87125 37.5832ZM6.22733 34.25C6.03489 33.923 5.83869 33.6071 5.6415 33.2898L7.34028 32.2342C7.53569 32.5487 7.74446 32.8846 7.95105 33.2357L6.22733 34.25ZM5.6415 33.2898C4.97063 32.2101 4.1907 30.9929 4.04313 29.6883L6.03045 29.4635C6.11683 30.2271 6.59344 31.0323 7.34028 32.2342L5.6415 33.2898ZM4.04313 29.6883C3.96075 28.96 3.90151 26.5908 3.91095 24.3066C3.91572 23.1514 3.93814 21.9909 3.98604 21.0378C4.00995 20.562 4.0407 20.1276 4.08024 19.7666C4.11687 19.4321 4.16887 19.0778 4.26013 18.8121L6.15165 19.4618C6.15228 19.46 6.1485 19.471 6.1418 19.4992C6.13534 19.5265 6.1277 19.5633 6.11931 19.6109C6.10239 19.7068 6.08514 19.831 6.06835 19.9843C6.03477 20.291 6.00643 20.6823 5.98352 21.1382C5.93778 22.0484 5.91564 23.1751 5.91093 24.3148C5.90141 26.6204 5.96347 28.8713 6.03045 29.4635L4.04313 29.6883ZM4.26013 18.8121C4.62556 17.7483 5.75434 17.0615 6.8795 17.088C8.15313 17.118 9.26289 18.0025 9.76884 19.657L7.85626 20.2419C7.54186 19.2137 7.05415 19.0927 6.83245 19.0875C6.46229 19.0787 6.19792 19.3271 6.15165 19.4618L4.26013 18.8121ZM9.76884 19.657C10.2129 21.1093 10.3449 22.9345 10.4583 24.445L8.46393 24.5948C8.34546 23.017 8.22175 21.4371 7.85626 20.2419L9.76884 19.657ZM10.4583 24.445C10.5185 25.2472 10.5727 25.9631 10.6565 26.5613C10.7447 27.1914 10.8488 27.5445 10.9368 27.6993L9.19799 28.6875C8.90524 28.1724 8.76577 27.4814 8.67578 26.8386C8.58132 26.1638 8.52274 25.3779 8.46393 24.5948L10.4583 24.445ZM10.9368 27.6993C11.2836 28.3095 12.0464 29.4209 12.7518 30.4169C13.0985 30.9065 13.4223 31.3556 13.6595 31.6824C13.778 31.8457 13.8748 31.9783 13.9418 32.0699C13.9753 32.1157 14.0014 32.1512 14.019 32.1752C14.0278 32.1872 14.0345 32.1964 14.039 32.2024C14.0412 32.2055 14.0429 32.2077 14.044 32.2092C14.0445 32.21 14.0449 32.2105 14.0452 32.2109C14.0453 32.211 14.0454 32.2112 14.0454 32.2113C14.0455 32.2113 14.0455 32.2113 14.0455 32.2113C14.0455 32.2113 14.0455 32.2113 13.2402 32.8043C12.435 33.3972 12.435 33.3972 12.4349 33.3971C12.4349 33.3971 12.4349 33.397 12.4348 33.397C12.4347 33.3968 12.4346 33.3967 12.4344 33.3964C12.4341 33.396 12.4336 33.3954 12.433 33.3945C12.4318 33.3928 12.43 33.3904 12.4276 33.3871C12.4229 33.3807 12.4159 33.3712 12.4068 33.3588C12.3885 33.334 12.3619 33.2976 12.3277 33.2509C12.2593 33.1575 12.1611 33.0228 12.0409 32.8572C11.8006 32.5261 11.4721 32.0705 11.1196 31.5727C10.4264 30.594 9.60283 29.3999 9.19799 28.6875L10.9368 27.6993ZM12.3485 33.2567L10.26 29.1406L12.0436 28.2357L14.132 32.3518L12.3485 33.2567ZM11.1518 28.6881C10.2789 29.1761 10.2787 29.1756 10.2784 29.1752C10.2784 29.175 10.2781 29.1746 10.2779 29.1743C10.2776 29.1737 10.2773 29.1731 10.2769 29.1724C10.2762 29.1712 10.2755 29.1699 10.2748 29.1686C10.2733 29.1659 10.2718 29.1631 10.2702 29.1601C10.267 29.1542 10.2635 29.1476 10.2598 29.1404C10.2524 29.126 10.2439 29.1091 10.2348 29.0897C10.2164 29.0509 10.1949 29.0021 10.1722 28.9435C10.1267 28.8261 10.0763 28.6695 10.0351 28.4749C9.9523 28.0833 9.90955 27.5485 10.0125 26.8837L11.9889 27.1898C11.9244 27.6065 11.9572 27.8974 11.9918 28.0611C12.0094 28.1442 12.0281 28.1976 12.0371 28.2209C12.0416 28.2326 12.0438 28.2368 12.0422 28.2334C12.0413 28.2317 12.0396 28.2281 12.0368 28.2225C12.0353 28.2198 12.0336 28.2165 12.0316 28.2128C12.0306 28.211 12.0295 28.209 12.0284 28.2069C12.0278 28.2058 12.0272 28.2047 12.0266 28.2036C12.0263 28.2031 12.026 28.2025 12.0257 28.2019C12.0255 28.2016 12.0253 28.2012 12.0252 28.2011C12.0249 28.2006 12.0247 28.2002 11.1518 28.6881ZM10.0125 26.8837C10.1323 26.1099 10.6058 25.2515 11.1879 24.7356C11.4724 24.4834 11.9408 24.174 12.5285 24.2035C13.213 24.2379 13.6689 24.6979 13.9172 25.202L12.123 26.0857C12.0963 26.0315 12.0971 26.0573 12.154 26.1018C12.221 26.1542 12.3193 26.1955 12.4282 26.201C12.608 26.21 12.6399 26.1212 12.5145 26.2323C12.4136 26.3217 12.289 26.4767 12.1804 26.6746C12.0717 26.8728 12.0091 27.0594 11.9889 27.1898L10.0125 26.8837ZM13.9172 25.202C14.1693 25.7138 14.5284 26.2228 14.8402 26.6174C14.9933 26.8113 15.1291 26.9702 15.2256 27.0795C15.2737 27.134 15.3117 27.1758 15.3368 27.203C15.3493 27.2166 15.3586 27.2265 15.3643 27.2326C15.3671 27.2356 15.369 27.2376 15.37 27.2387C15.3705 27.2392 15.3708 27.2395 15.3708 27.2395C15.3708 27.2395 15.3707 27.2394 15.3706 27.2393C15.3705 27.2392 15.3705 27.2392 15.3704 27.2391C15.3703 27.239 15.3703 27.2389 15.3702 27.2389C15.3701 27.2388 15.3701 27.2387 14.6468 27.9294C13.9236 28.62 13.9235 28.6199 13.9234 28.6198C13.9234 28.6197 13.9233 28.6196 13.9232 28.6195C13.9231 28.6194 13.9229 28.6192 13.9227 28.619C13.9223 28.6186 13.9219 28.6182 13.9214 28.6176C13.9204 28.6166 13.9192 28.6153 13.9177 28.6137C13.9147 28.6106 13.9108 28.6064 13.9059 28.6012C13.8961 28.5908 13.8826 28.5763 13.8657 28.5579C13.8318 28.5212 13.7844 28.4689 13.7262 28.4031C13.6102 28.2716 13.4504 28.0845 13.2708 27.8572C12.9172 27.4096 12.463 26.7758 12.123 26.0857L13.9172 25.202ZM15.428 27.305L19.0829 31.8775L17.5207 33.1262L13.8657 28.5537L15.428 27.305ZM18.3018 32.5018C19.1047 31.9057 19.1048 31.9059 19.1049 31.906C19.1049 31.906 19.105 31.9061 19.1051 31.9062C19.1052 31.9064 19.1054 31.9066 19.1055 31.9068C19.1059 31.9073 19.1063 31.9078 19.1068 31.9085C19.1077 31.9098 19.109 31.9115 19.1105 31.9136C19.1136 31.9178 19.1178 31.9234 19.123 31.9306C19.1334 31.9449 19.148 31.965 19.1662 31.9904C19.2025 32.0412 19.2534 32.1133 19.3141 32.202C19.4348 32.3787 19.5973 32.6258 19.7624 32.9054C19.9259 33.1823 20.1014 33.5068 20.2411 33.8362C20.3729 34.1472 20.5097 34.5462 20.5247 34.9489L18.5261 35.0231C18.5247 34.9857 18.5004 34.8542 18.3998 34.6169C18.3069 34.398 18.1786 34.1565 18.0403 33.9224C17.9036 33.6909 17.7664 33.482 17.6628 33.3304C17.6113 33.2551 17.5688 33.1949 17.5399 33.1545C17.5255 33.1344 17.5145 33.1192 17.5074 33.1096C17.5039 33.1047 17.5014 33.1013 17.4999 33.0993C17.4992 33.0984 17.4988 33.0978 17.4986 33.0975C17.4985 33.0974 17.4985 33.0974 17.4985 33.0974C17.4986 33.0975 17.4986 33.0975 17.4987 33.0976C17.4987 33.0977 17.4988 33.0977 17.4988 33.0978C17.4988 33.0978 17.4989 33.0979 18.3018 32.5018ZM20.5247 34.9489C20.5459 35.5202 20.8044 37.7122 20.9603 38.9909L18.975 39.2329C18.8263 38.0132 18.5513 35.7031 18.5261 35.0231L20.5247 34.9489ZM22.0181 40.1119L19.9676 40.1119L19.9676 38.1119L22.0181 38.1119L22.0181 40.1119Z" fill="#333333"/>
<path d="M25.9819 44.1119L24.9819 44.1119L24.9819 45.1119L25.9819 45.1119L25.9819 44.1119ZM25.9819 39.1119L25.9819 38.1119L24.9819 38.1119L24.9819 39.1119L25.9819 39.1119ZM36.9819 44.1119L36.9819 45.1119L37.9819 45.1119L37.9819 44.1119L36.9819 44.1119ZM36.9819 39.1119L37.9819 39.1119L37.9819 38.1119L36.9819 38.1119L36.9819 39.1119ZM36.5102 39.1119L35.6917 38.5375L34.5868 40.1119L36.5102 40.1119L36.5102 39.1119ZM38.4039 36.8943L37.6791 36.2054L37.6791 36.2054L38.4039 36.8943ZM40.9108 33.7429L40.049 33.2357L40.049 33.2357L40.9108 33.7429ZM41.5091 32.762L40.6597 32.2342L40.6597 32.2342L41.5091 32.762ZM42.9632 29.5759L41.9695 29.4635L41.9695 29.4635L42.9632 29.5759ZM42.7941 19.137L43.7399 18.8121L43.7399 18.8121L42.7941 19.137ZM39.1874 19.9494L40.1437 20.2419L40.1437 20.2419L39.1874 19.9494ZM38.5389 24.5199L39.5361 24.5948L39.5361 24.5948L38.5389 24.5199ZM37.9326 28.1934L37.0632 27.6993L37.0632 27.6993L37.9326 28.1934ZM34.7598 32.8043L33.868 32.3518L35.565 33.3972L34.7598 32.8043ZM36.8482 28.6881L35.9753 28.2002L35.9655 28.2177L35.9564 28.2357L36.8482 28.6881ZM36.9993 27.0367L37.9875 26.8837L37.9875 26.8837L36.9993 27.0367ZM33.3532 27.9294L32.6299 27.2387L32.5995 27.2706L32.572 27.305L33.3532 27.9294ZM29.6982 32.5018L28.9171 31.8775L28.9059 31.8914L28.8953 31.9057L29.6982 32.5018ZM28.4746 34.986L29.4739 35.0231L29.4739 35.0231L28.4746 34.986ZM28.0324 39.1119L28.0324 40.1119L28.9179 40.1119L29.025 39.2329L28.0324 39.1119ZM26.9819 44.1119L26.9819 39.1119L24.9819 39.1119L24.9819 44.1119L26.9819 44.1119ZM36.9819 43.1119L25.9819 43.1119L25.9819 45.1119L36.9819 45.1119L36.9819 43.1119ZM35.9819 39.1119L35.9819 44.1119L37.9819 44.1119L37.9819 39.1119L35.9819 39.1119ZM36.5102 40.1119L36.9819 40.1119L36.9819 38.1119L36.5102 38.1119L36.5102 40.1119ZM37.3288 39.6864C37.8845 38.8945 38.4774 38.2686 39.1287 37.5832L37.6791 36.2054C37.0358 36.8821 36.3441 37.6078 35.6917 38.5375L37.3288 39.6864ZM39.1287 37.5832C39.9812 36.6863 40.9149 35.7078 41.7727 34.25L40.049 33.2357C39.3191 34.4761 38.531 35.309 37.6791 36.2054L39.1287 37.5832ZM41.7727 34.25C41.9651 33.923 42.1613 33.6071 42.3585 33.2898L40.6597 32.2342C40.4643 32.5487 40.2555 32.8846 40.049 33.2357L41.7727 34.25ZM42.3585 33.2898C43.0294 32.2101 43.8093 30.9929 43.9569 29.6883L41.9695 29.4635C41.8832 30.2271 41.4066 31.0323 40.6597 32.2342L42.3585 33.2898ZM43.9569 29.6883C44.0393 28.96 44.0985 26.5908 44.089 24.3066C44.0843 23.1514 44.0619 21.9909 44.014 21.0378C43.9901 20.562 43.9593 20.1276 43.9198 19.7666C43.8831 19.4321 43.8311 19.0778 43.7399 18.8121L41.8484 19.4618C41.8477 19.46 41.8515 19.471 41.8582 19.4992C41.8647 19.5265 41.8723 19.5633 41.8807 19.6109C41.8976 19.7068 41.9149 19.831 41.9316 19.9843C41.9652 20.291 41.9936 20.6823 42.0165 21.1382C42.0622 22.0484 42.0844 23.1751 42.0891 24.3148C42.0986 26.6204 42.0365 28.8713 41.9695 29.4635L43.9569 29.6883ZM43.7399 18.8121C43.3744 17.7483 42.2457 17.0615 41.1205 17.088C39.8469 17.118 38.7371 18.0025 38.2312 19.657L40.1437 20.2419C40.4581 19.2137 40.9459 19.0927 41.1675 19.0875C41.5377 19.0787 41.8021 19.3271 41.8484 19.4618L43.7399 18.8121ZM38.2312 19.657C37.7871 21.1093 37.6551 22.9345 37.5417 24.445L39.5361 24.5948C39.6545 23.017 39.7783 21.4371 40.1437 20.2419L38.2312 19.657ZM37.5417 24.445C37.4815 25.2472 37.4273 25.9631 37.3435 26.5613C37.2553 27.1914 37.1512 27.5445 37.0632 27.6993L38.802 28.6875C39.0948 28.1724 39.2342 27.4814 39.3242 26.8386C39.4187 26.1638 39.4773 25.3779 39.5361 24.5948L37.5417 24.445ZM37.0632 27.6993C36.7164 28.3095 35.9536 29.4209 35.2482 30.4169C34.9015 30.9065 34.5777 31.3556 34.3405 31.6824C34.222 31.8457 34.1252 31.9783 34.0582 32.0699C34.0247 32.1157 33.9986 32.1512 33.981 32.1752C33.9722 32.1872 33.9655 32.1964 33.961 32.2024C33.9588 32.2055 33.9571 32.2077 33.956 32.2092C33.9555 32.21 33.9551 32.2105 33.9548 32.2109C33.9547 32.211 33.9546 32.2112 33.9546 32.2113C33.9545 32.2113 33.9545 32.2113 33.9545 32.2113C33.9545 32.2113 33.9545 32.2113 34.7598 32.8043C35.565 33.3972 35.565 33.3972 35.5651 33.3971C35.5651 33.3971 35.5651 33.397 35.5652 33.397C35.5653 33.3968 35.5654 33.3967 35.5656 33.3964C35.5659 33.396 35.5664 33.3954 35.567 33.3945C35.5682 33.3928 35.57 33.3904 35.5724 33.3871C35.5771 33.3807 35.5841 33.3712 35.5932 33.3588C35.6115 33.334 35.6381 33.2976 35.6723 33.2509C35.7407 33.1575 35.8389 33.0228 35.9591 32.8572C36.1994 32.5261 36.5279 32.0705 36.8804 31.5727C37.5736 30.594 38.3972 29.3999 38.802 28.6875L37.0632 27.6993ZM35.6515 33.2567L37.74 29.1406L35.9564 28.2357L33.868 32.3518L35.6515 33.2567ZM36.8482 28.6881C37.7211 29.1761 37.7213 29.1756 37.7216 29.1752C37.7216 29.175 37.7219 29.1746 37.7221 29.1743C37.7224 29.1737 37.7227 29.1731 37.7231 29.1724C37.7238 29.1712 37.7245 29.1699 37.7252 29.1686C37.7267 29.1659 37.7282 29.1631 37.7298 29.1601C37.733 29.1542 37.7365 29.1476 37.7402 29.1404C37.7476 29.126 37.7561 29.1091 37.7652 29.0897C37.7836 29.0509 37.8051 29.0021 37.8278 28.9435C37.8733 28.8261 37.9237 28.6695 37.9649 28.4749C38.0477 28.0833 38.0905 27.5485 37.9875 26.8837L36.0111 27.1898C36.0756 27.6065 36.0428 27.8974 36.0082 28.0611C35.9906 28.1442 35.9719 28.1976 35.9629 28.2209C35.9584 28.2326 35.9562 28.2368 35.9578 28.2334C35.9587 28.2317 35.9604 28.2281 35.9632 28.2225C35.9647 28.2198 35.9664 28.2165 35.9684 28.2128C35.9694 28.211 35.9705 28.209 35.9716 28.2069C35.9722 28.2058 35.9728 28.2047 35.9734 28.2036C35.9737 28.2031 35.974 28.2025 35.9743 28.2019C35.9745 28.2016 35.9747 28.2012 35.9748 28.2011C35.9751 28.2006 35.9753 28.2002 36.8482 28.6881ZM37.9875 26.8837C37.8677 26.1099 37.3942 25.2515 36.8121 24.7356C36.5276 24.4834 36.0592 24.174 35.4715 24.2035C34.787 24.2379 34.3311 24.6979 34.0828 25.202L35.877 26.0857C35.9037 26.0315 35.9029 26.0573 35.846 26.1018C35.779 26.1542 35.6807 26.1955 35.5718 26.201C35.392 26.21 35.3601 26.1212 35.4855 26.2323C35.5864 26.3217 35.711 26.4767 35.8196 26.6746C35.9283 26.8728 35.9909 27.0594 36.0111 27.1898L37.9875 26.8837ZM34.0828 25.202C33.8307 25.7138 33.4716 26.2228 33.1598 26.6174C33.0067 26.8113 32.8709 26.9702 32.7744 27.0795C32.7263 27.134 32.6883 27.1758 32.6632 27.203C32.6507 27.2166 32.6414 27.2265 32.6357 27.2326C32.6329 27.2356 32.631 27.2376 32.63 27.2387C32.6295 27.2392 32.6292 27.2395 32.6292 27.2395C32.6292 27.2395 32.6293 27.2394 32.6294 27.2393C32.6295 27.2392 32.6295 27.2392 32.6296 27.2391C32.6297 27.239 32.6297 27.2389 32.6298 27.2389C32.6299 27.2388 32.6299 27.2387 33.3532 27.9294C34.0764 28.62 34.0765 28.6199 34.0766 28.6198C34.0766 28.6197 34.0767 28.6196 34.0768 28.6195C34.0769 28.6194 34.0771 28.6192 34.0773 28.619C34.0777 28.6186 34.0781 28.6182 34.0786 28.6176C34.0796 28.6166 34.0808 28.6153 34.0823 28.6137C34.0853 28.6106 34.0892 28.6064 34.0941 28.6012C34.1039 28.5908 34.1174 28.5763 34.1343 28.5579C34.1682 28.5212 34.2156 28.4689 34.2738 28.4031C34.3898 28.2716 34.5496 28.0845 34.7292 27.8572C35.0828 27.4096 35.537 26.7758 35.877 26.0857L34.0828 25.202ZM32.572 27.305L28.9171 31.8775L30.4793 33.1262L34.1343 28.5537L32.572 27.305ZM29.6982 32.5018C28.8953 31.9057 28.8952 31.9059 28.8951 31.906C28.8951 31.906 28.895 31.9061 28.8949 31.9062C28.8948 31.9064 28.8946 31.9066 28.8945 31.9068C28.8941 31.9073 28.8937 31.9078 28.8932 31.9085C28.8923 31.9098 28.891 31.9115 28.8895 31.9136C28.8864 31.9178 28.8822 31.9234 28.877 31.9306C28.8666 31.9449 28.852 31.965 28.8338 31.9904C28.7975 32.0412 28.7466 32.1133 28.6859 32.202C28.5652 32.3787 28.4027 32.6258 28.2376 32.9054C28.0741 33.1823 27.8986 33.5068 27.7589 33.8362C27.6271 34.1472 27.4903 34.5462 27.4753 34.9489L29.4739 35.0231C29.4753 34.9857 29.4996 34.8542 29.6002 34.6169C29.6931 34.398 29.8214 34.1565 29.9597 33.9224C30.0964 33.6909 30.2336 33.482 30.3372 33.3304C30.3887 33.2551 30.4312 33.1949 30.4601 33.1545C30.4745 33.1344 30.4855 33.1192 30.4926 33.1096C30.4961 33.1047 30.4986 33.1013 30.5001 33.0993C30.5008 33.0984 30.5012 33.0978 30.5014 33.0975C30.5015 33.0974 30.5015 33.0974 30.5015 33.0974C30.5014 33.0975 30.5014 33.0975 30.5013 33.0976C30.5013 33.0977 30.5012 33.0977 30.5012 33.0978C30.5012 33.0978 30.5011 33.0979 29.6982 32.5018ZM27.4753 34.9489C27.4541 35.5202 27.1956 37.7122 27.0397 38.9909L29.025 39.2329C29.1737 38.0132 29.4487 35.7031 29.4739 35.0231L27.4753 34.9489ZM25.9819 40.1119L28.0324 40.1119L28.0324 38.1119L25.9819 38.1119L25.9819 40.1119Z" fill="#333333"/>
</g>
<defs>
<clipPath id="clip0">
<rect width="48" height="48" fill="white"/>
</clipPath>
</defs>
</svg>
