<svg width="48" height="48" viewBox="0 0 48 48" fill="none" xmlns="http://www.w3.org/2000/svg">
<path fill-rule="evenodd" clip-rule="evenodd" d="M18.8446 15C18.1275 15 17.483 15.4375 17.2183 16.1039L14.0532 24.0702C13.9003 24.4551 14.0884 24.8912 14.4733 25.0441C14.8583 25.197 15.2943 25.009 15.4472 24.624L18.0708 18.0206C18.2479 17.5747 18.7168 17.3175 19.1881 17.4077C19.6593 17.4978 20.0001 17.91 20.0001 18.3898V24.4593L20.0005 24.4775C20.004 24.6328 19.9713 24.7851 19.9069 24.9231L16.5061 33H19.0978C19.6501 33 20.0978 33.4477 20.0978 34V41.2555C20.0978 41.699 20.4414 42.0002 20.7775 42.0002C21.1136 42.0002 21.4572 41.699 21.4572 41.2555V34C21.4572 33.4477 21.9049 33 22.4572 33H25.5402C26.0924 33 26.5402 33.4477 26.5402 34V41.2555C26.5402 41.699 26.8838 42.0002 27.2199 42.0002C27.5559 42.0002 27.8995 41.699 27.8995 41.2555V34C27.8995 33.4477 28.3473 33 28.8995 33L31.4939 33L28.0785 24.8884C28.0262 24.7642 27.9996 24.6309 28.0001 24.4964C28.0002 24.4892 28.0003 24.4821 28.0004 24.4749L29.0001 24.5H28.0001V24.4964V18.6639C28.0001 18.1895 28.3335 17.7804 28.7982 17.6845C29.2628 17.5887 29.7309 17.8326 29.9186 18.2683L32.5587 24.3977C32.7226 24.7782 33.1638 24.9537 33.5442 24.7899C33.9247 24.626 34.1002 24.1848 33.9364 23.8043L30.5996 16.0577C30.3231 15.4158 29.6912 15 28.9923 15H18.8446ZM18.0001 24.2977V23.6152L17.3059 25.3625C16.7452 26.7739 15.1463 27.4636 13.7349 26.9028C12.3234 26.342 11.6338 24.7432 12.1946 23.3317L15.3596 15.3654C15.9269 13.9374 17.308 13 18.8446 13H28.9923C30.49 13 31.844 13.8911 32.4364 15.2665L35.7732 23.0131C36.374 24.408 35.7303 26.0259 34.3354 26.6267C32.9406 27.2275 31.3227 26.5838 30.7219 25.1889L30.0001 23.5133V24.2984L33.3372 32.2239C33.8922 33.5422 32.9243 35 31.4939 35H29.8995V41.2555C29.8995 42.7313 28.7314 44.0002 27.2199 44.0002C25.7083 44.0002 24.5402 42.7313 24.5402 41.2555V35H23.4572V41.2555C23.4572 42.7313 22.2891 44.0002 20.7775 44.0002C19.2659 44.0002 18.0978 42.7313 18.0978 41.2555V35H16.5061C15.0757 35 14.1077 33.5422 14.6628 32.2239L18.0001 24.2977Z" fill="#333333"/>
<path fill-rule="evenodd" clip-rule="evenodd" d="M24.0001 5C22.3436 5 21 6.34355 21 8.00181C21 9.66007 22.3436 11.0036 24.0001 11.0036C25.6566 11.0036 27.0002 9.66007 27.0002 8.00181C27.0002 6.34355 25.6566 5 24.0001 5ZM19 8.00181C19 5.23979 21.2382 3 24.0001 3C26.7619 3 29.0002 5.23979 29.0002 8.00181C29.0002 10.7638 26.7619 13.0036 24.0001 13.0036C21.2382 13.0036 19 10.7638 19 8.00181Z" fill="#333333"/>
</svg>
