<svg width="48" height="49" viewBox="0 0 48 49" fill="none" xmlns="http://www.w3.org/2000/svg">
<path fill-rule="evenodd" clip-rule="evenodd" d="M29.5 12.5C29.5 10.2909 31.2909 8.5 33.5 8.5C35.7091 8.5 37.5 10.2909 37.5 12.5C37.5 14.7091 35.7091 16.5 33.5 16.5C31.2909 16.5 29.5 14.7091 29.5 12.5ZM33.5 10.5C32.3954 10.5 31.5 11.3954 31.5 12.5C31.5 13.6046 32.3954 14.5 33.5 14.5C34.6046 14.5 35.5 13.6046 35.5 12.5C35.5 11.3954 34.6046 10.5 33.5 10.5Z" fill="#333333"/>
<path fill-rule="evenodd" clip-rule="evenodd" d="M10 17.5C9.44772 17.5 9 17.9477 9 18.5C9 18.6359 9.0271 18.7654 9.07618 18.8835C7.26969 19.6372 6 21.4203 6 23.5V25.5C6 27.5512 7.23448 29.3122 9.00001 30.0836L9.00001 36.5002C9.00001 38.1155 10.2789 39.4407 11.8931 39.4983C12.9715 39.5368 13.941 39.0002 14.5 38.1593C15.0591 39.0002 16.0285 39.5368 17.1069 39.4983C18.7212 39.4407 20 38.1155 20 36.5002V30.0836C21.7655 29.3122 23 27.5512 23 25.5V23.5C23 21.4203 21.7303 19.6372 19.9238 18.8835C19.9729 18.7654 20 18.6359 20 18.5C20 17.9477 19.5523 17.5 19 17.5H10ZM11 29.374L11 29.3698V27.4145C11.4511 27.3304 11.8659 27.1804 12.2361 26.9474C12.8806 26.5419 13.2837 25.9524 13.5335 25.2882C13.7758 24.644 13.8852 23.9015 13.9403 23.1238C13.9958 22.3409 14 21.4524 14 20.5H15C15 21.4524 15.0042 22.3409 15.0597 23.1238C15.1148 23.9015 15.2242 24.644 15.4665 25.2882C15.7163 25.9524 16.1194 26.5419 16.7639 26.9474C17.1341 27.1804 17.5489 27.3304 18 27.4145L18 36.5002C18 37.0386 17.5737 37.4804 17.0357 37.4996C16.4976 37.5188 16.0409 37.1085 16.0025 36.5715L15.4975 29.5003C15.4601 28.977 15.0246 28.5716 14.5 28.5716C13.9754 28.5716 13.5399 28.977 13.5025 29.5003L12.9975 36.5715C12.9591 37.1085 12.5024 37.5188 11.9644 37.4996C11.4263 37.4804 11 37.0386 11 36.5002V29.374ZM8 25.5C8 26.3879 8.38612 27.1867 9 27.7363V22.5H11V25.3427C11.0659 25.315 11.1223 25.2853 11.1709 25.2547C11.3634 25.1336 11.5273 24.9411 11.6616 24.5841C11.8034 24.2069 11.8953 23.6888 11.9453 22.9824C11.995 22.2813 12 21.4625 12 20.5H11C9.34315 20.5 8 21.8431 8 23.5V25.5ZM21 25.5C21 26.3879 20.6139 27.1867 20 27.7363V22.5H18V25.3427C17.9341 25.315 17.8777 25.2853 17.8291 25.2547C17.6366 25.1336 17.4727 24.9411 17.3384 24.5841C17.1966 24.2069 17.1047 23.6888 17.0547 22.9824C17.005 22.2813 17 21.4625 17 20.5H18C19.6569 20.5 21 21.8431 21 23.5V25.5Z" fill="#333333"/>
<path fill-rule="evenodd" clip-rule="evenodd" d="M28.0762 18.8835C26.2697 19.6372 25 21.4203 25 23.5V25.5C25 27.2723 25.9216 28.8277 27.3105 29.7155L26.0856 31.5303C25.2526 32.7644 26.013 34.4639 27.5228 34.6176C29.1202 34.7802 31.6195 35 33.5 35C35.3805 35 37.8798 34.7802 39.4772 34.6176C40.987 34.4639 41.7474 32.7644 40.9144 31.5303L39.6895 29.7155C41.0784 28.8277 42 27.2723 42 25.5V23.5C42 21.4203 40.7303 19.6372 38.9238 18.8835C38.9729 18.7654 39 18.6359 39 18.5C39 17.9477 38.5523 17.5 38 17.5H29C28.4477 17.5 28 17.9477 28 18.5C28 18.6359 28.0271 18.7654 28.0762 18.8835ZM27 23.5C27 21.8431 28.3431 20.5 30 20.5H31C31 21.4625 30.995 22.2813 30.9453 22.9824C30.8953 23.6888 30.8034 24.2069 30.6616 24.5841C30.5273 24.9411 30.3634 25.1336 30.1709 25.2547C30.1223 25.2853 30.0659 25.315 30 25.3427V23.5H28V27.7364C27.386 27.1866 27 26.3878 27 25.5V23.5ZM30.3654 28.7646L30 28.6486V27.4145C30.4511 27.3304 30.8659 27.1804 31.2361 26.9474C31.8806 26.5419 32.2837 25.9524 32.5335 25.2882C32.7758 24.644 32.8852 23.9015 32.9403 23.1238C32.9958 22.3409 33 21.4524 33 20.5H34C34 21.4524 34.0042 22.3409 34.0597 23.1238C34.1148 23.9015 34.2242 24.644 34.4665 25.2882C34.7163 25.9524 35.1194 26.5419 35.7639 26.9474C36.1341 27.1804 36.5489 27.3304 37 27.4145V28.6486L36.6346 28.7646L39.2444 32.631C37.6498 32.7929 35.2585 33 33.5 33C31.7415 33 29.3502 32.7929 27.7556 32.631L30.3654 28.7646ZM39 27.7364C39.614 27.1866 40 26.3878 40 25.5V23.5C40 21.8431 38.6569 20.5 37 20.5H36C36 21.4625 36.005 22.2813 36.0547 22.9824C36.1047 23.6888 36.1966 24.2069 36.3384 24.5841C36.4727 24.9411 36.6366 25.1336 36.8291 25.2547C36.8777 25.2853 36.9341 25.315 37 25.3427V23.5H39V27.7364Z" fill="#333333"/>
<path d="M31.7704 36.6439C30.7177 36.5882 29.6416 36.4797 28.5 36.3172V37.5001C28.5 38.2554 29.0616 38.8929 29.8109 38.9881C30.5602 39.0833 31.2634 38.6066 31.4523 37.8753L31.7704 36.6439Z" fill="#333333"/>
<path d="M35.2277 36.6365L35.5477 37.8753C35.7366 38.6066 36.4398 39.0833 37.1891 38.9881C37.9384 38.8929 38.5 38.2554 38.5 37.5001V36.3027C37.3578 36.4651 36.2811 36.5767 35.2277 36.6365Z" fill="#333333"/>
<path fill-rule="evenodd" clip-rule="evenodd" d="M14.5 8.5C12.2909 8.5 10.5 10.2909 10.5 12.5C10.5 14.7091 12.2909 16.5 14.5 16.5C16.7091 16.5 18.5 14.7091 18.5 12.5C18.5 10.2909 16.7091 8.5 14.5 8.5ZM12.5 12.5C12.5 11.3954 13.3954 10.5 14.5 10.5C15.6046 10.5 16.5 11.3954 16.5 12.5C16.5 13.6046 15.6046 14.5 14.5 14.5C13.3954 14.5 12.5 13.6046 12.5 12.5Z" fill="#333333"/>
</svg>
